<?xml version="1.0" standalone="yes"?>

<svg version="1.1" viewBox="0.0 0.0 113.38582677165354 113.38582677165354" fill="none" stroke="none" stroke-linecap="square" stroke-miterlimit="10" xmlns="http://www.w3.org/2000/svg" xmlns:xlink="http://www.w3.org/1999/xlink"><clipPath id="p.0"><path d="m0 0l113.385826 0l0 113.385826l-113.385826 0l0 -113.385826z" clip-rule="nonzero"></path></clipPath><g clip-path="url(#p.0)"><path fill="#000000" fill-opacity="0.0" d="m0 0l113.385826 0l0 113.385826l-113.385826 0z" fill-rule="nonzero"></path><path fill="#000000" fill-opacity="0.0" d="m-5.7480316 -24.979002l87.2126 0l0 117.41733l-87.2126 0z" fill-rule="nonzero"></path><path fill="#ffffff" d="m10.658218 76.18099l0 -68.71875l25.921875 0q6.84375 0 10.453125 0.6562495q5.0625 0.84375 8.484375 3.21875q3.421875 2.359375 5.5 6.625001q2.09375 4.265625 2.09375 9.375q0 8.765623 -5.578125 14.843748q-5.578125 6.0625 -20.15625 6.0625l-17.625 0l0 27.9375l-9.09375 0zm9.09375 -36.046875l17.765625 0q8.8125 0 12.515625 -3.28125q3.703125 -3.28125 3.703125 -9.234373q0 -4.3125 -2.1875 -7.375q-2.171875 -3.078125 -5.734375 -4.0625q-2.296875 -0.60937595 -8.484375 -0.60937595l-17.578125 0l0 24.5625z" fill-rule="nonzero"></path><path fill="#000000" fill-opacity="0.0" d="m25.133858 9.146981l88.25197 0l0 117.41733l-88.25197 0z" fill-rule="nonzero"></path><path fill="#ffffff" d="m34.555733 110.30698l26.578125 -35.8125l-23.4375 -32.90625l10.828125 0l12.46875 17.625q3.890625 5.484375 5.53125 8.4375q2.296875 -3.75 5.4375 -7.828125l13.828125 -18.234375l9.890625 0l-24.140625 32.390625l26.015625 36.328125l-11.25 0l-17.296875 -24.515625q-1.453125 -2.109375 -3.0 -4.59375q-2.296875 3.75 -3.28125 5.15625l-17.25 23.953125l-10.921875 0z" fill-rule="nonzero"></path><path fill="#000000" fill-opacity="0.0" d="m107.21785 5.742782l-101.88976 101.70079" fill-rule="nonzero"></path><path stroke="#000000" stroke-width="3.0" stroke-linejoin="round" stroke-linecap="butt" d="m107.21785 5.742782l-101.88976 101.70079" fill-rule="nonzero"></path></g></svg>

