<?xml version="1.0" standalone="yes"?>

<svg version="1.1" viewBox="0.0 0.0 113.38582677165354 113.38582677165354" fill="none" stroke="none" stroke-linecap="square" stroke-miterlimit="10" xmlns="http://www.w3.org/2000/svg" xmlns:xlink="http://www.w3.org/1999/xlink"><clipPath id="p.0"><path d="m0 0l113.385826 0l0 113.385826l-113.385826 0l0 -113.385826z" clip-rule="nonzero"></path></clipPath><g clip-path="url(#p.0)"><path fill="#000000" fill-opacity="0.0" d="m0 0l113.385826 0l0 113.385826l-113.385826 0z" fill-rule="nonzero"></path><path fill="#ffffff" d="m58.969788 47.405334l0 0c0 -2.622223 2.1257324 -4.7479515 4.7479515 -4.7479515l0.70882034 0l0 0c1.2592392 0 2.466896 0.5002289 3.3573074 1.3906403c0.890419 0.8904152 1.3906479 2.0980759 1.3906479 3.3573112l0 57.71669c0 2.622223 -2.1257324 4.7479553 -4.7479553 4.7479553l-0.70882034 0c-2.622219 0 -4.7479515 -2.1257324 -4.7479515 -4.7479553z" fill-rule="nonzero"></path><path stroke="#000000" stroke-width="1.0" stroke-linejoin="round" stroke-linecap="butt" d="m58.969788 47.405334l0 0c0 -2.622223 2.1257324 -4.7479515 4.7479515 -4.7479515l0.70882034 0l0 0c1.2592392 0 2.466896 0.5002289 3.3573074 1.3906403c0.890419 0.8904152 1.3906479 2.0980759 1.3906479 3.3573112l0 57.71669c0 2.622223 -2.1257324 4.7479553 -4.7479553 4.7479553l-0.70882034 0c-2.622219 0 -4.7479515 -2.1257324 -4.7479515 -4.7479553z" fill-rule="nonzero"></path><path fill="#ffffff" d="m83.11926 7.6039343l0 0c1.4409714 -2.2577887 4.4396057 -2.920248 6.697632 -1.4796448l0.6103668 0.38941336l0 0c1.084343 0.691802 1.8493881 1.7859778 2.126831 3.041821c0.2774353 1.2558432 0.044555664 2.5704813 -0.6474228 3.6547098l-23.28572 36.485245c-1.4409714 2.2577858 -4.439598 2.9202461 -6.6976204 1.4796448l-0.61037445 -0.38941574c-2.2580223 -1.4406013 -2.9203758 -4.43874 -1.4794044 -6.6965294z" fill-rule="nonzero"></path><path stroke="#000000" stroke-width="1.0" stroke-linejoin="round" stroke-linecap="butt" d="m83.11926 7.6039343l0 0c1.4409714 -2.2577887 4.4396057 -2.920248 6.697632 -1.4796448l0.6103668 0.38941336l0 0c1.084343 0.691802 1.8493881 1.7859778 2.126831 3.041821c0.2774353 1.2558432 0.044555664 2.5704813 -0.6474228 3.6547098l-23.28572 36.485245c-1.4409714 2.2577858 -4.439598 2.9202461 -6.6976204 1.4796448l-0.61037445 -0.38941574c-2.2580223 -1.4406013 -2.9203758 -4.43874 -1.4794044 -6.6965294z" fill-rule="nonzero"></path><path fill="#ffffff" d="m97.20446 15.733156l0 0c1.4402771 -2.258235 4.438339 -2.9210558 6.6963577 -1.4804525l0.61037445 0.38941288l0 0c1.084343 0.691803 1.8495178 1.7860641 2.1271973 3.042057c0.27767944 1.2559948 0.04511261 2.570839 -0.64653015 3.655283l-14.028404 21.995436c-1.4402695 2.258236 -4.4383316 2.9210548 -6.6963577 1.4804535l-0.61037445 -0.38941574c-2.2580185 -1.4406013 -2.9209366 -4.439102 -1.4806671 -6.697338z" fill-rule="nonzero"></path><path stroke="#000000" stroke-width="1.0" stroke-linejoin="round" stroke-linecap="butt" d="m97.20446 15.733156l0 0c1.4402771 -2.258235 4.438339 -2.9210558 6.6963577 -1.4804525l0.61037445 0.38941288l0 0c1.084343 0.691803 1.8495178 1.7860641 2.1271973 3.042057c0.27767944 1.2559948 0.04511261 2.570839 -0.64653015 3.655283l-14.028404 21.995436c-1.4402695 2.258236 -4.4383316 2.9210548 -6.6963577 1.4804535l-0.61037445 -0.38941574c-2.2580185 -1.4406013 -2.9209366 -4.439102 -1.4806671 -6.697338z" fill-rule="nonzero"></path><path fill="#ffffff" d="m54.41604 47.405334l0 0c0 -2.622223 -2.1257286 -4.7479515 -4.7479515 -4.7479515l-0.70882034 0l0 0c-1.2592354 0 -2.466896 0.5002289 -3.3573074 1.3906403c-0.8904152 0.8904152 -1.3906441 2.0980759 -1.3906441 3.3573112l0 57.71669c0 2.622223 2.1257286 4.7479553 4.7479515 4.7479553l0.70882034 0c2.622223 0 4.7479515 -2.1257324 4.7479515 -4.7479553z" fill-rule="nonzero"></path><path stroke="#000000" stroke-width="1.0" stroke-linejoin="round" stroke-linecap="butt" d="m54.41604 47.405334l0 0c0 -2.622223 -2.1257286 -4.7479515 -4.7479515 -4.7479515l-0.70882034 0l0 0c-1.2592354 0 -2.466896 0.5002289 -3.3573074 1.3906403c-0.8904152 0.8904152 -1.3906441 2.0980759 -1.3906441 3.3573112l0 57.71669c0 2.622223 2.1257286 4.7479553 4.7479515 4.7479553l0.70882034 0c2.622223 0 4.7479515 -2.1257324 4.7479515 -4.7479553z" fill-rule="nonzero"></path><path fill="#ffffff" d="m30.266562 7.6039343l0 0c-1.4409733 -2.2577887 -4.439602 -2.920248 -6.697626 -1.4796448l-0.61037254 0.38941336l0 0c-1.084341 0.691802 -1.8493824 1.7859778 -2.1268253 3.041821c-0.27744102 1.2558432 -0.04455757 2.5704813 0.6474228 3.6547098l23.285713 36.485245c1.4409714 2.2577858 4.439602 2.9202461 6.697628 1.4796448l0.61037064 -0.38941574c2.2580261 -1.4406013 2.9203758 -4.43874 1.4794044 -6.6965294z" fill-rule="nonzero"></path><path stroke="#000000" stroke-width="1.0" stroke-linejoin="round" stroke-linecap="butt" d="m30.266562 7.6039343l0 0c-1.4409733 -2.2577887 -4.439602 -2.920248 -6.697626 -1.4796448l-0.61037254 0.38941336l0 0c-1.084341 0.691802 -1.8493824 1.7859778 -2.1268253 3.041821c-0.27744102 1.2558432 -0.04455757 2.5704813 0.6474228 3.6547098l23.285713 36.485245c1.4409714 2.2577858 4.439602 2.9202461 6.697628 1.4796448l0.61037064 -0.38941574c2.2580261 -1.4406013 2.9203758 -4.43874 1.4794044 -6.6965294z" fill-rule="nonzero"></path><path fill="#ffffff" d="m16.181366 15.733156l0 0c-1.4402733 -2.258235 -4.4383354 -2.9210558 -6.6963596 -1.4804525l-0.61037254 0.38941288l0 0c-1.0843415 0.691803 -1.8495169 1.7860641 -2.1271963 3.042057c-0.27767944 1.2559948 -0.0451169 2.570839 0.6465268 3.655283l14.028404 21.995436c1.4402733 2.258236 4.4383354 2.9210548 6.6963596 1.4804535l0.61037254 -0.38941574c2.2580242 -1.4406013 2.9209423 -4.439102 1.480669 -6.697338z" fill-rule="nonzero"></path><path stroke="#000000" stroke-width="1.0" stroke-linejoin="round" stroke-linecap="butt" d="m16.181366 15.733156l0 0c-1.4402733 -2.258235 -4.4383354 -2.9210558 -6.6963596 -1.4804525l-0.61037254 0.38941288l0 0c-1.0843415 0.691803 -1.8495169 1.7860641 -2.1271963 3.042057c-0.27767944 1.2559948 -0.0451169 2.570839 0.6465268 3.655283l14.028404 21.995436c1.4402733 2.258236 4.4383354 2.9210548 6.6963596 1.4804535l0.61037254 -0.38941574c2.2580242 -1.4406013 2.9209423 -4.439102 1.480669 -6.697338z" fill-rule="nonzero"></path></g></svg>

