<?xml version="1.0" standalone="yes"?>

<svg version="1.1" viewBox="0.0 0.0 113.38582677165354 113.38582677165354" fill="none" stroke="none" stroke-linecap="square" stroke-miterlimit="10" xmlns="http://www.w3.org/2000/svg" xmlns:xlink="http://www.w3.org/1999/xlink"><clipPath id="p.0"><path d="m0 0l113.385826 0l0 113.385826l-113.385826 0l0 -113.385826z" clip-rule="nonzero"></path></clipPath><g clip-path="url(#p.0)"><path fill="#000000" fill-opacity="0.0" d="m0 0l113.385826 0l0 113.385826l-113.385826 0z" fill-rule="nonzero"></path><path fill="#ffffff" d="m5.742782 88.90287l7.8503747 -7.85038l14.94492 0l7.850374 7.85038l0 11.102402l-7.850374 7.8503723l-14.94492 0l-7.8503747 -7.8503723z" fill-rule="nonzero"></path><path stroke="#000000" stroke-width="1.0" stroke-linejoin="round" stroke-linecap="butt" d="m5.742782 88.90287l7.8503747 -7.85038l14.94492 0l7.850374 7.85038l0 11.102402l-7.850374 7.8503723l-14.94492 0l-7.8503747 -7.8503723z" fill-rule="nonzero"></path><path fill="#ffffff" d="m68.71133 19.252144l14.3042145 8.010864E-5l4.4201508 -11.380833l4.4201584 11.380833l14.3042145 -8.010864E-5l-11.572411 7.033663l4.4203415 11.380785l-11.572304 -7.0337925l-11.572296 7.0337925l4.4203415 -11.380785z" fill-rule="nonzero"></path><path stroke="#000000" stroke-width="1.0" stroke-linejoin="round" stroke-linecap="butt" d="m68.71133 19.252144l14.3042145 8.010864E-5l4.4201508 -11.380833l4.4201584 11.380833l14.3042145 -8.010864E-5l-11.572411 7.033663l4.4203415 11.380785l-11.572304 -7.0337925l-11.572296 7.0337925l4.4203415 -11.380785z" fill-rule="nonzero"></path><path fill="#ffffff" d="m22.412027 72.61932l33.461586 -34.62855l-2.9133873 -2.8110237l13.908497 -2.7415276l-2.2549515 13.985622l-2.9133873 -2.8110237l-33.461586 34.62855z" fill-rule="nonzero"></path><path stroke="#000000" stroke-width="1.0" stroke-linejoin="round" stroke-linecap="butt" d="m22.412027 72.61932l33.461586 -34.62855l-2.9133873 -2.8110237l13.908497 -2.7415276l-2.2549515 13.985622l-2.9133873 -2.8110237l-33.461586 34.62855z" fill-rule="nonzero"></path><path fill="#ffffff" d="m85.71348 51.16325l-33.34572 34.76684l2.9212608 2.7952728l-13.882629 2.7922134l2.1975899 -13.973312l2.9212608 2.7952728l33.345715 -34.76684z" fill-rule="nonzero"></path><path stroke="#000000" stroke-width="1.0" stroke-linejoin="round" stroke-linecap="butt" d="m85.71348 51.16325l-33.34572 34.76684l2.9212608 2.7952728l-13.882629 2.7922134l2.1975899 -13.973312l2.9212608 2.7952728l33.345715 -34.76684z" fill-rule="nonzero"></path></g></svg>

