<?xml version="1.0" standalone="yes"?>

<svg version="1.1" viewBox="0.0 0.0 113.38582677165354 113.38582677165354" fill="none" stroke="none" stroke-linecap="square" stroke-miterlimit="10" xmlns="http://www.w3.org/2000/svg" xmlns:xlink="http://www.w3.org/1999/xlink"><clipPath id="p.0"><path d="m0 0l113.385826 0l0 113.385826l-113.385826 0l0 -113.385826z" clip-rule="nonzero"></path></clipPath><g clip-path="url(#p.0)"><path fill="#000000" fill-opacity="0.0" d="m0 0l113.385826 0l0 113.385826l-113.385826 0z" fill-rule="nonzero"></path><path fill="#ffffff" d="m56.692913 108.8189l0 0c-14.976917 0 -27.11811 -12.141197 -27.11811 -27.11811l0 -50.01575l0 0c0 -7.192171 2.8570786 -14.089767 7.942711 -19.1754c5.0856323 -5.0856323 11.983231 -7.9427104 19.1754 -7.9427104l0 0l0 0c14.976917 0 27.118107 12.1411915 27.118107 27.11811l0 50.01575l0 0c0 14.976913 -12.14119 27.11811 -27.118107 27.11811z" fill-rule="nonzero"></path><path stroke="#000000" stroke-width="1.0" stroke-linejoin="round" stroke-linecap="butt" d="m56.692913 108.8189l0 0c-14.976917 0 -27.11811 -12.141197 -27.11811 -27.11811l0 -50.01575l0 0c0 -7.192171 2.8570786 -14.089767 7.942711 -19.1754c5.0856323 -5.0856323 11.983231 -7.9427104 19.1754 -7.9427104l0 0l0 0c14.976917 0 27.118107 12.1411915 27.118107 27.11811l0 50.01575l0 0c0 14.976913 -12.14119 27.11811 -27.118107 27.11811z" fill-rule="nonzero"></path><path fill="#000000" fill-opacity="0.0" d="m29.574802 56.692913l54.236217 0" fill-rule="nonzero"></path><path stroke="#000000" stroke-width="1.0" stroke-linejoin="round" stroke-linecap="butt" d="m29.574802 56.692913l54.236217 0" fill-rule="nonzero"></path></g></svg>

