<svg
        xmlns="http://www.w3.org/2000/svg"
        xmlns:xlink="http://www.w3.org/1999/xlink"
        version="1.1"
        style=""
        xml:space="preserve"
        width="85"
        height="85">

    <rect id="backgroundrect"
          width="100%"
          height="100%"
          x="0"
          y="0"
          fill="none"
          stroke="none"/>

    <g  class="currentLayer"
        style="">

        <title>Layer 1</title>
        <path
                d="M63.111,7.110002035140992 h-2.6670000000000003 V4.444002035140992 c0,-0.49100000000000005 -0.3980000000000001,-0.8890000000000001 -0.8890000000000001,-0.8890000000000001 H42.667 l-3.295,-3.295 c-0.16700000000000004,-0.16700000000000004 -0.39300000000000007,-0.26 -0.6290000000000001,-0.26 H0.8890000000000001 C0.3980000000000001,-0.0009979648590086043 0,0.3970020351409913 0,0.8880020351409912 v76.444 c0,0.49100000000000005 0.3980000000000001,0.8890000000000001 0.8890000000000001,0.8890000000000001 h2.6670000000000003 v2.6670000000000003 c0,0.49100000000000005 0.3980000000000001,0.8890000000000001 0.8890000000000001,0.8890000000000001 h2.6670000000000003 v2.6670000000000003 c0,0.49100000000000005 0.3980000000000001,0.8890000000000001 0.8890000000000001,0.8890000000000001 h55.111 c0.49100000000000005,0 0.8890000000000001,-0.3980000000000001 0.8890000000000001,-0.8890000000000001 V7.999002035140991 C64,7.508002035140992 63.602,7.110002035140992 63.111,7.110002035140992 zM53.486,16.888002035140993 H40 V3.402002035140991 L53.486,16.888002035140993 zM1.778,1.7770020351409914 h36.444 v16 c0,0.49100000000000005 0.3980000000000001,0.8890000000000001 0.8890000000000001,0.8890000000000001 h16 v57.778 H1.778 V1.7770020351409914 zM5.333,78.22200203514099 H56 c0.49100000000000005,0 0.8890000000000001,-0.3980000000000001 0.8890000000000001,-0.8890000000000001 V18.14500203514099 c0,-0.23600000000000002 -0.09400000000000003,-0.462 -0.26,-0.6290000000000001 L44.444,5.333002035140991 h14.222 v74.667 H5.333 V78.22200203514099 zM62.222,83.55500203514099 H8.889 v-1.778 h50.667 c0.49100000000000005,0 0.8890000000000001,-0.3980000000000001 0.8890000000000001,-0.8890000000000001 v-72 h1.778 V83.55500203514099 z"
                id="svg_1"
                fill="#09979B"
                class=""/>
    </g>
</svg>