<?xml version="1.0" standalone="no"?><!-- Generator: Gravit.io --><svg xmlns="http://www.w3.org/2000/svg" xmlns:xlink="http://www.w3.org/1999/xlink" style="isolation:isolate" viewBox="0 0 1000 800" width="1000" height="800"><defs><clipPath id="_clipPath_A23bfLK96QXIktdcJSdNzsskiF3aerqY"><rect width="1000" height="800"/></clipPath></defs><g clip-path="url(#_clipPath_A23bfLK96QXIktdcJSdNzsskiF3aerqY)"><defs><filter id="h7qVGm3ZKmv39I7kKeW8SA95cAPhndVs" x="-200%" y="-200%" width="400%" height="400%" filterUnits="objectBoundingBox" color-interpolation-filters="sRGB"><feGaussianBlur xmlns="http://www.w3.org/2000/svg" in="SourceGraphic" stdDeviation="2.146804531419514"/><feOffset xmlns="http://www.w3.org/2000/svg" dx="0" dy="0" result="pf_100_offsetBlur"/><feFlood xmlns="http://www.w3.org/2000/svg" flood-color="#000000" flood-opacity="0.65"/><feComposite xmlns="http://www.w3.org/2000/svg" in2="pf_100_offsetBlur" operator="in" result="pf_100_dropShadow"/><feBlend xmlns="http://www.w3.org/2000/svg" in="SourceGraphic" in2="pf_100_dropShadow" mode="normal"/></filter></defs><g filter="url(#h7qVGm3ZKmv39I7kKeW8SA95cAPhndVs)"><path d=" M 825.077 615.385 C 811.615 568.269 764.5 541.346 717.385 551.442 C 683.731 558.173 660.173 585.096 653.442 615.385 L 586.135 615.385 C 576.038 568.269 528.923 541.346 481.808 551.442 C 448.154 558.173 424.596 585.096 417.865 615.385 L 350.558 615.385 C 340.462 568.269 293.346 541.346 246.231 551.442 C 215.942 558.173 189.019 585.096 182.288 615.385 L 168.827 615.385 C 114.981 615.385 71.231 571.635 71.231 517.788 C 71.231 463.942 114.981 420.192 168.827 420.192 L 175.558 420.192 L 175.558 423.558 L 185.654 423.558 C 195.75 457.212 229.404 484.135 266.423 484.135 C 303.442 484.135 337.096 460.577 347.192 423.558 L 421.231 423.558 C 434.692 470.673 481.808 497.596 528.923 484.135 C 559.212 477.404 579.404 453.846 589.5 423.558 L 656.808 423.558 C 670.269 470.673 717.385 497.596 764.5 484.135 C 794.788 477.404 814.981 453.846 825.077 423.558 L 835.173 423.558 C 909.212 423.558 973.154 362.981 973.154 285.577 C 973.154 211.538 912.577 147.596 835.173 147.596 L 825.077 147.596 C 814.981 100.481 771.231 70.192 724.115 80.288 C 690.462 87.019 663.538 113.942 656.808 147.596 L 592.865 147.596 C 582.769 100.481 539.019 70.192 491.904 80.288 C 458.25 87.019 431.327 113.942 424.596 147.596 L 353.923 147.596 C 340.462 107.212 306.808 76.923 266.423 76.923 C 226.038 76.923 189.019 107.212 182.288 147.596 C 128.442 147.596 84.692 103.846 84.692 50 L 44.308 50 C 44.308 127.404 104.885 187.981 182.288 187.981 L 189.019 187.981 C 199.115 221.635 232.769 248.558 269.788 248.558 C 306.808 248.558 333.731 221.635 347.192 184.615 L 421.231 184.615 C 434.692 231.731 481.808 258.654 528.923 245.192 C 559.212 238.462 579.404 214.904 589.5 184.615 L 656.808 184.615 C 670.269 231.731 717.385 258.654 764.5 245.192 C 794.788 238.462 814.981 214.904 825.077 184.615 L 835.173 184.615 C 889.019 184.615 932.769 228.365 932.769 282.212 C 932.769 336.058 889.019 379.808 835.173 379.808 L 828.442 379.808 L 828.442 376.442 L 825.077 376.442 C 814.981 329.327 767.865 302.404 720.75 312.5 C 687.096 319.231 663.538 346.154 656.808 376.442 L 589.5 376.442 C 579.404 329.327 532.288 302.404 485.173 312.5 C 451.519 319.231 427.962 346.154 421.231 376.442 L 350.558 376.442 C 343.827 339.423 310.173 309.135 269.788 309.135 C 229.404 309.135 195.75 336.058 189.019 376.442 L 168.827 376.442 C 94.788 376.442 30.846 437.019 30.846 514.423 C 30.846 588.462 91.423 652.404 168.827 652.404 L 185.654 652.404 C 195.75 699.519 242.865 726.442 289.981 716.346 C 323.635 709.615 347.192 682.692 353.923 652.404 L 421.231 652.404 C 431.327 699.519 478.442 726.442 525.558 716.346 C 555.846 709.615 582.769 682.692 589.5 652.404 L 656.808 652.404 C 666.904 699.519 714.019 726.442 761.135 716.346 C 794.788 709.615 818.346 682.692 825.077 652.404 L 828.442 652.404 C 882.288 652.404 926.038 696.154 926.038 750 L 966.423 750 C 963.058 675.962 902.481 615.385 825.077 615.385 Z " fill="rgb(255,255,255)"/></g></g></svg>