<?xml version="1.0" standalone="no"?><!-- Generator: Gravit.io --><svg xmlns="http://www.w3.org/2000/svg" xmlns:xlink="http://www.w3.org/1999/xlink" style="isolation:isolate" viewBox="0 0 400 400" width="400" height="400"><defs><clipPath id="_clipPath_4Yjz2LA0xLxeiS8gf1l8KPUfqj5HCHPK"><rect width="400" height="400"/></clipPath></defs><g clip-path="url(#_clipPath_4Yjz2LA0xLxeiS8gf1l8KPUfqj5HCHPK)"><g filter="url(#uIlnU5iToi2eifx6vNJCWMeWGLpfjBAA)"><g><g><g/></g><g><path d=" M 263.167 200.367 L 219.2 276.367 M 263.167 200.367 L 219.2 124.367 M 135.833 276.333 L 219.167 276.333 M 132.8 124.367 L 113.36 157.945 L 88.8 200.367 M 89.8 200.367 L 133.8 276.367 M 132.8 123.333 L 216.167 123.333 M 258.167 202.667 L 333.833 212.333 M 333.8 212.367 L 368.867 273.367 M 369.833 144.333 L 333.8 212.367 M 266.167 334.967 L 335.467 333.967 M 220.833 274.667 L 266.167 335 M 335.5 334 L 368.833 273.367 M 133.8 123.367 L 78.5 28.333 M 88.8 199.367 L 30.167 199.367 M 132.8 275.367 L 84.833 374.667 M 216.2 125.367 L 269.5 27.333" fill-rule="evenodd" fill="none" vector-effect="non-scaling-stroke" stroke-width="25" stroke="rgb(255,255,255)" stroke-linejoin="miter" stroke-linecap="round" stroke-miterlimit="3"/></g></g></g><defs><filter id="uIlnU5iToi2eifx6vNJCWMeWGLpfjBAA" x="-200%" y="-200%" width="400%" height="400%" filterUnits="objectBoundingBox" color-interpolation-filters="sRGB"><feGaussianBlur xmlns="http://www.w3.org/2000/svg" in="SourceGraphic" stdDeviation="2.146804531419514"/><feOffset xmlns="http://www.w3.org/2000/svg" dx="0" dy="0" result="pf_100_offsetBlur"/><feFlood xmlns="http://www.w3.org/2000/svg" flood-color="#000000" flood-opacity="0.65"/><feComposite xmlns="http://www.w3.org/2000/svg" in2="pf_100_offsetBlur" operator="in" result="pf_100_dropShadow"/><feBlend xmlns="http://www.w3.org/2000/svg" in="SourceGraphic" in2="pf_100_dropShadow" mode="normal"/></filter></defs></g></svg>