<?xml version="1.0" standalone="no"?>
<!DOCTYPE svg PUBLIC "-//W3C//DTD SVG 1.1//EN" "http://www.w3.org/Graphics/SVG/1.1/DTD/svg11.dtd" >
<svg>
<metadata>
Created by FontForge 20090914 at Fri Feb 19 11:38:49 2016
 By www-data
Copyright (c) 1988, 1990 Adobe Systems Incorporated.  All Rights Reserved.Helvetica is a registered trademark of Linotype AG and/or its subsidiaries.
</metadata>
<defs>
<font id="HelveticaNeueRegular" horiz-adv-x="500" >
  <font-face 
    font-family="HelveticaNeue"
    font-weight="5"
    font-stretch="normal"
    units-per-em="1000"
    panose-1="0 0 0 0 0 0 0 0 0 0"
    ascent="800"
    descent="-200"
    x-height="514"
    cap-height="714"
    bbox="-166 -233 1016 931.001"
    underline-thickness="50"
    underline-position="-75"
    unicode-range="U+0020-U+F002"
  />
<missing-glyph horiz-adv-x="802" 
d="M50 0v802h702v-802h-702zM702 50v702h-602v-702h602z" />
    <glyph glyph-name=".notdef" horiz-adv-x="802" 
d="M50 0v802h702v-802h-702zM702 50v702h-602v-702h602z" />
    <glyph glyph-name="space" unicode=" " horiz-adv-x="278" 
 />
    <glyph glyph-name="exclam" unicode="!" horiz-adv-x="185" 
d="M83 0v98h20v-98h-20zM83 182v532h20v-532h-20z" />
    <glyph glyph-name="quotedbl" unicode="&#x22;" horiz-adv-x="278" 
d="M93 489h-20v225h20v-225zM205 489h-20v225h20v-225z" />
    <glyph glyph-name="numbersign" unicode="#" horiz-adv-x="556" 
d="M245 680l-31 -234h171l31 234h20l-31 -234h116v-20h-121l-24 -177h117v-20h-121l-31 -229h-20l31 229h-172l-31 -229h-20l31 229h-125v20h130l24 177h-126v20h131l31 234h20zM185 249h171l24 177h-171z" />
    <glyph glyph-name="dollar" unicode="$" horiz-adv-x="556" 
d="M265 711c-58.667 0 -109.667 -13.001 -153 -39.001s-65 -67.667 -65 -125c0 -53.333 17.667 -90.166 53 -110.499s90.333 -38.833 165 -55.5v330zM26 236.999c0 -78.667 21.333 -137.167 64 -175.5s101 -57.5 175 -57.5v356c-56 12.667 -98.667 24.167 -128 34.5
s-55 27.5 -77 51.5s-33 57.667 -33 101c0 64 23.333 110.667 70 140s102.667 44 168 44v43h20v-44c71.333 0 128.833 -17.667 172.5 -53s65.5 -89.666 65.5 -162.999h-20c0 67.333 -19.833 116.833 -59.5 148.5s-92.5 47.5 -158.5 47.5v-334l8 -2
c69.333 -18 117 -31.5 143 -40.5s49.333 -26 70 -51s31 -60.833 31 -107.5c0 -62.667 -25 -110.334 -75 -143.001s-109 -49 -177 -49v-88h-20v89c-78.667 0 -141.5 21.333 -188.5 64s-70.5 105.667 -70.5 189h20zM285 2.99902c63.333 0 117.833 14.499 163.5 43.499
s68.5 72.167 68.5 129.5c0 59.333 -18.5 99.333 -55.5 120s-95.833 40.334 -176.5 59.001v-352z" />
    <glyph glyph-name="percent" unicode="%" horiz-adv-x="685" 
d="M509 8c42.667 0 75.833 14.1689 99.5 42.502s35.5 63.833 35.5 106.5c0 47.333 -11.167 84.666 -33.5 111.999s-56.166 41 -101.499 41c-44 0 -77 -13.833 -99 -41.5s-33 -64.834 -33 -111.501c0 -43.333 11.167 -79 33.5 -107s55.166 -42 98.499 -42zM172.999 692.002
c49.333 0 87.5 -15.833 114.5 -47.5s40.5 -73.167 40.5 -124.5c0 -48 -13.833 -88.333 -41.5 -121s-65.5 -49 -113.5 -49c-49.333 0 -87 16.167 -113 48.5s-39 72.5 -39 120.5c0 52 13.333 93.833 40 125.5s64 47.5 112 47.5zM172.999 370.002
c42.667 0 75.833 14.1689 99.5 42.502s35.5 63.833 35.5 106.5c0 47.333 -11.167 84.666 -33.5 111.999s-56.166 41 -101.499 41c-44 0 -77 -13.833 -99 -41.5s-33 -64.834 -33 -111.501c0 -43.333 11.167 -79 33.5 -107s55.166 -42 98.499 -42zM508.998 330.004
c49.333 0 87.5 -15.833 114.5 -47.5s40.5 -73.167 40.5 -124.5c0 -48 -13.833 -88.333 -41.5 -121s-65.5 -49 -113.5 -49c-49.333 0 -87 16.167 -113 48.5s-39 72.5 -39 120.5c0 52 13.333 93.833 40 125.5s64 47.5 112 47.5zM563.998 714.004h23l-476 -748h-23z" />
    <glyph glyph-name="ampersand" unicode="&#x26;" horiz-adv-x="574" 
d="M253 404c48.667 33.333 85.667 62.168 111 86.501s38 54.5 38 90.5c0 34.667 -12 62.167 -36 82.5s-53.667 30.5 -89 30.5c-36 0 -66.167 -10 -90.5 -30s-36.5 -47 -36.5 -81c0 -30.667 34.333 -90.334 103 -179.001zM248 378.002
c-62 -39.333 -108.167 -73.333 -138.5 -102s-45.5 -67.334 -45.5 -116.001s18.167 -87 54.5 -115s79.5 -42 129.5 -42c46 0 85.167 11.333 117.5 34s58.5 54.334 78.5 95.001zM572 0.00195312l-26.001 0.000976562l-89 113c-21.333 -39.333 -49.5 -70.833 -84.5 -94.5
s-76.5 -35.5 -124.5 -35.5c-53.333 0 -100.666 16.333 -141.999 49s-62 75.334 -62 128.001c0 60.667 20.167 107.5 60.5 140.5s84.166 64.167 131.499 93.5l-70 95c-24 34 -36 64.667 -36 92c0 43.333 14.5 76.333 43.5 99s63.167 34 102.5 34c41.333 0 76 -12 104 -36
s42 -56.333 42 -97c0 -40 -11.167 -70.833 -33.5 -92.5s-63.5 -54.834 -123.5 -99.501l188 -238c6.66699 15.333 12.334 33.666 17.001 54.999s7 45 7 71h20c0 -50.667 -10 -98.667 -30 -144z" />
    <glyph glyph-name="quotesingle" unicode="'" horiz-adv-x="167" 
d="M74 714h20v-225h-20v225z" />
    <glyph glyph-name="parenleft" unicode="(" horiz-adv-x="222" 
d="M204 731c-37.333 -70 -65.999 -142.667 -85.999 -218s-30 -152.333 -30 -231c0 -164 39 -317 117 -459h-20c-40.667 78.667 -70.334 153.667 -89.001 225s-28 149.333 -28 234c0 78 9.83301 154.667 29.5 230s48.5 148.333 86.5 219h20z" />
    <glyph glyph-name="parenright" unicode=")" horiz-adv-x="222" 
d="M18 -177c37.333 70 65.999 142.667 85.999 218s30 152.333 30 231c0 164 -39 317 -117 459h20c40.667 -78.667 70.334 -153.667 89.001 -225s28 -149.333 28 -234c0 -78 -9.83301 -154.667 -29.5 -230s-48.5 -148.333 -86.5 -219h-20z" />
    <glyph glyph-name="asterisk" unicode="*" horiz-adv-x="352" 
d="M184 714v-140l132 43l4 -19l-130 -43l83 -109l-16 -12l-83 108l-84 -104l-16 13l88 104l-130 43l6 19l126 -43v140h20z" />
    <glyph glyph-name="plus" unicode="+" horiz-adv-x="600" 
d="M290 506h20v-243h242v-20h-242v-243h-20v243h-242v20h242v243z" />
    <glyph glyph-name="comma" unicode="," horiz-adv-x="278" 
d="M149 98v-98c0 -32 -3.16699 -57 -9.5 -75s-17.833 -32.667 -34.5 -44v20c16 16 24 49 24 99v98h20z" />
    <glyph glyph-name="hyphen" unicode="-" horiz-adv-x="333" 
d="M79 278h175v-20h-175v20z" />
    <glyph glyph-name="period" unicode="." horiz-adv-x="278" 
d="M149 0h-20v98h20v-98z" />
    <glyph glyph-name="slash" unicode="/" horiz-adv-x="333" 
d="M-7 -17l327 748h20l-327 -748h-20z" />
    <glyph glyph-name="zero" unicode="0" horiz-adv-x="556" 
d="M278 672c-84.667 0 -145.334 -32.667 -182.001 -98s-55 -143.333 -55 -234c0 -91.333 18.167 -169.5 54.5 -234.5s97.166 -97.5 182.499 -97.5c84.667 0 145.334 32.667 182.001 98s55 143.333 55 234c0 91.333 -18.167 169.5 -54.5 234.5s-97.166 97.5 -182.499 97.5z
M278 -12c-89.333 0 -154.5 34.333 -195.5 103s-61.5 151.667 -61.5 249c0 98.667 20.333 182 61 250s106 102 196 102c89.333 0 154.5 -34.333 195.5 -103s61.5 -151.667 61.5 -249c0 -98.667 -20.333 -182 -61 -250s-106 -102 -196 -102z" />
    <glyph glyph-name="one" unicode="1" horiz-adv-x="556" 
d="M298 654c-20.667 -28 -47.667 -52.499 -81 -73.499s-67.333 -36.5 -102 -46.5v20c40 13.333 72.667 29.166 98 47.499s53 44.5 83 78.5h22v-680h-20v654z" />
    <glyph glyph-name="two" unicode="2" horiz-adv-x="556" 
d="M513 20l-0.000976562 -20h-458c0 36 9.33301 67.667 28 95s42.334 52.5 71.001 75.5s76 57.333 142 103s112.333 87 139 124s40 74.167 40 111.5c0 51.333 -17.5 91.333 -52.5 120s-80.5 43 -136.5 43c-68.667 0 -119 -19.167 -151 -57.5s-48 -90.833 -48 -157.5h-20
c0 75.333 18.667 133.333 56 174s91.666 61 162.999 61c61.333 0 111.5 -15.667 150.5 -47s58.5 -76.666 58.5 -135.999c0 -39.333 -13.167 -78.333 -39.5 -117s-72.166 -80.834 -137.499 -126.501s-111.833 -79 -139.5 -100s-51 -43.5 -70 -67.5s-30.167 -50 -33.5 -78h438
z" />
    <glyph glyph-name="three" unicode="3" horiz-adv-x="556" 
d="M59 469c0 72.667 20.333 128.001 61 166.001s97.667 57 171 57c60 0 110.5 -13.667 151.5 -41s61.5 -69.333 61.5 -126c0 -46 -13.5 -82.833 -40.5 -110.5s-62.167 -43.5 -105.5 -47.5c44.667 -5.33301 82.334 -22.833 113.001 -52.5s46 -71.834 46 -126.501
c0 -60.667 -22.333 -109.167 -67 -145.5s-99 -54.5 -163 -54.5c-77.333 0 -137.833 21.167 -181.5 63.5s-65.5 101.833 -65.5 178.5h20c0 -71.333 19.833 -126.166 59.5 -164.499s95.5 -57.5 167.5 -57.5c58 0 107.5 16 148.5 48s61.5 76 61.5 132
c0 55.333 -17.833 97.166 -53.5 125.499s-82.834 42.5 -141.501 42.5h-49v20h49c51.333 0 94.5 11.833 129.5 35.5s52.5 61.5 52.5 113.5c0 50 -18.833 87 -56.5 111s-83.167 36 -136.5 36c-66.667 0 -118.667 -17 -156 -51s-56 -84.667 -56 -152h-20z" />
    <glyph glyph-name="four" unicode="4" horiz-adv-x="556" 
d="M379 652l-325 -455h325v455zM34 177v24l340 479h25v-483h123v-20h-123v-177h-20v177h-345z" />
    <glyph glyph-name="five" unicode="5" horiz-adv-x="556" 
d="M147 660l-62.001 -291c19.333 30 45.333 52.833 78 68.5s69.334 23.5 110.001 23.5c70 0 126.667 -22 170 -66s65 -100.333 65 -169c0 -71.333 -21.5 -128.833 -64.5 -172.5s-99.833 -65.5 -170.5 -65.5c-72 0 -129.333 20.333 -172 61s-64 97 -64 169h20
c0 -66 19.167 -117.5 57.5 -154.5s91.166 -55.5 158.499 -55.5c66 0 118.333 19.667 157 59s58 92.333 58 159c0 63.333 -19.667 115 -59 155s-91.333 60 -156 60c-41.333 0 -78.666 -8.83301 -111.999 -26.5s-59.333 -43.5 -78 -77.5h-25l73 343h349v-20h-333z" />
    <glyph glyph-name="six" unicode="6" horiz-adv-x="556" 
d="M282 438c-59.333 0 -110 -21 -152 -63s-63 -92.667 -63 -152s21 -110 63 -152s92.667 -63 152 -63s110 21 152 63s63 92.667 63 152s-21 110 -63 152s-92.667 63 -152 63zM485 520c-12 55.333 -36 94.498 -72 117.498s-75.667 34.5 -119 34.5
c-62.667 0 -111.5 -19.833 -146.5 -59.5s-58.667 -87.834 -71 -144.501s-18.5 -117 -18.5 -181c11.333 48.667 38 89.334 80 122.001s90 49 144 49c62 0 116.667 -22.167 164 -66.5s71 -100.5 71 -168.5c0 -66.667 -23.167 -122.5 -69.5 -167.5s-101.5 -67.5 -165.5 -67.5
c-44 0 -83.167 10.333 -117.5 31s-60.833 45.334 -79.5 74.001s-31 61.334 -37 98.001s-9 80 -9 130c0 101.333 19.833 188.5 59.5 261.5s105.167 109.5 196.5 109.5c57.333 0 104.833 -16.167 142.5 -48.5s60.167 -73.5 67.5 -123.5h-20z" />
    <glyph glyph-name="seven" unicode="7" horiz-adv-x="556" 
d="M61 660v20.001h434v-27c-100 -100 -176.167 -201.667 -228.5 -305s-78.5 -219.333 -78.5 -348h-20c0 127.333 26.167 244.666 78.5 351.999s127.833 210 226.5 308h-412z" />
    <glyph glyph-name="eight" unicode="8" horiz-adv-x="556" 
d="M278 362c-67.333 0 -122 -13.333 -164 -40s-63 -70.667 -63 -132s21.5 -107 64.5 -137s97.167 -45 162.5 -45c66 0 120.333 14.833 163 44.5s64 75.5 64 137.5c0 60.667 -21.167 104.5 -63.5 131.5s-96.833 40.5 -163.5 40.5zM525 190
c0 -67.333 -23.165 -117.834 -69.498 -151.501s-105.5 -50.5 -177.5 -50.5c-71.333 0 -130.333 17 -177 51s-70 84.333 -70 151c0 52 15.5 94.167 46.5 126.5s73.5 51.166 127.5 56.499c-40.667 6 -74.167 22.333 -100.5 49s-39.5 59.334 -39.5 98.001
c0 58 19.5 101.167 58.5 129.5s90.5 42.5 154.5 42.5c63.333 0 114.666 -14.167 153.999 -42.5s59 -71.5 59 -129.5c0 -38.667 -13.167 -71.167 -39.5 -97.5s-59.833 -42.166 -100.5 -47.499c53.333 -6 95.666 -25.333 126.999 -58s47 -75 47 -127zM278.002 671.999
c-56 0 -102.167 -11.833 -138.5 -35.5s-54.5 -62.5 -54.5 -116.5c0 -45.333 19.5 -79.666 58.5 -102.999s83.833 -35 134.5 -35c51.333 0 96.333 11.667 135 35s58 57.666 58 102.999c0 53.333 -18.333 92 -55 116s-82.667 36 -138 36z" />
    <glyph glyph-name="nine" unicode="9" horiz-adv-x="556" 
d="M71 160c12 -55.333 36 -94.499 72 -117.499s75.667 -34.5 119 -34.5c62.667 0 111.5 19.833 146.5 59.5s58.667 87.834 71 144.501s18.5 117 18.5 181c-11.333 -48.667 -38 -89.334 -80 -122.001s-90 -49 -144 -49c-62 0 -116.667 22.167 -164 66.5s-71 100.5 -71 168.5
c0 66.667 23.167 122.5 69.5 167.5s101.5 67.5 165.5 67.5c44 0 83.167 -10.333 117.5 -31s60.833 -45.334 79.5 -74.001s31.167 -61.167 37.5 -97.5s9.5 -79.833 9.5 -130.5c0 -101.333 -20 -188.5 -60 -261.5s-105.667 -109.5 -197 -109.5
c-57.333 0 -104.833 16.167 -142.5 48.5s-60.167 73.5 -67.5 123.5h20zM274 672.001c-59.333 0 -110 -21 -152 -63s-63 -92.667 -63 -152s21 -110 63 -152s92.667 -63 152 -63s110 21 152 63s63 92.667 63 152s-21 110 -63 152s-92.667 63 -152 63z" />
    <glyph glyph-name="colon" unicode=":" horiz-adv-x="278" 
d="M129 0v98h20v-98h-20zM129 416v98h20v-98h-20z" />
    <glyph glyph-name="semicolon" unicode=";" horiz-adv-x="278" 
d="M149 0c0 -32 -3.16699 -57 -9.5 -75s-17.833 -32.667 -34.5 -44v20c16 16 24 49 24 99v98h20v-98zM129 416v98h20v-98h-20z" />
    <glyph glyph-name="less" unicode="&#x3c;" horiz-adv-x="600" 
d="M554 -8l-508 249v24l508 249v-21l-490 -240l490 -240v-21z" />
    <glyph glyph-name="equal" unicode="=" horiz-adv-x="600" 
d="M48 340v20h504v-20h-504zM48 146v20h504v-20h-504z" />
    <glyph glyph-name="greater" unicode="&#x3e;" horiz-adv-x="600" 
d="M536 253l-490 240v21l508 -249v-24l-508 -249v21z" />
    <glyph glyph-name="question" unicode="?" 
d="M35 493c0 72 18.835 129.67 56.502 173.003s91.167 65 160.5 65c57.333 0 104.5 -14.667 141.5 -44s55.5 -70 55.5 -122c0 -43.333 -8.66699 -77.333 -26 -102s-41.333 -50.334 -72 -77.001c-38 -36.667 -64 -68.5 -78 -95.5s-21 -63.167 -21 -108.5h-20
c0 45.333 6.66699 82.666 20 111.999s34.166 57.666 62.499 84.999l70.5 68c29.333 36 44 75.333 44 118c0 46 -16.333 81.833 -49 107.5s-75.334 38.5 -128.001 38.5c-64.667 0 -113.667 -19.5 -147 -58.5s-50 -92.167 -50 -159.5h-20zM232.002 0.00292969v98h20v-98h-20z
" />
    <glyph glyph-name="at" unicode="@" horiz-adv-x="800" 
d="M559 456c-8.66699 32 -25.166 55 -49.499 69s-51.833 21 -82.5 21c-59.333 0 -109.666 -29.5 -150.999 -88.5s-62 -119.167 -62 -180.5c0 -36 11.167 -65.833 33.5 -89.5s51.166 -35.5 86.499 -35.5c31.333 0 60.666 9 87.999 27s49.333 49 66 93zM594.001 547h20.999
l-111 -288c-4.66699 -12.667 -8.66699 -25.167 -12 -37.5s-5 -22.5 -5 -30.5c0 -26 14 -39 42 -39c44 0 87.333 25.833 130 77.5s64 112.167 64 181.5c0 82.667 -28.5 150.167 -85.5 202.5s-129.833 78.5 -218.5 78.5c-96.667 0 -177.834 -32.833 -243.501 -98.5
s-98.5 -145.834 -98.5 -240.501c0 -109.333 32.667 -194.166 98 -254.499s146.666 -90.5 243.999 -90.5c58.667 0 113.5 14.5 164.5 43.5s92.833 67.167 125.5 114.5h23c-32.667 -53.333 -77.5 -96.333 -134.5 -129s-116.5 -49 -178.5 -49c-98.667 0 -183.667 31 -255 93
s-107 152.667 -107 272c0 102.667 35.167 188.167 105.5 256.5s155.833 102.5 256.5 102.5c92 0 169 -27.5 231 -82.5s93 -127.833 93 -218.5c0 -74 -23.167 -139 -69.5 -195s-95.166 -84 -146.499 -84c-18 0 -32.5 4.83301 -43.5 14.5s-16.5 22.167 -16.5 37.5
c0 4.66699 0.333008 8.33398 1 11.001c-17.333 -22.667 -38.166 -38.834 -62.499 -48.501s-49.5 -14.5 -75.5 -14.5c-38.667 0 -71 14 -97 42s-39 62.333 -39 103c0 68 22.833 133.167 68.5 195.5s101.834 93.5 168.501 93.5c32 0 60.667 -7.66699 86 -23s42.333 -36 51 -62
z" />
    <glyph glyph-name="A" unicode="A" horiz-adv-x="575" 
d="M462 255l-170 439l-178 -439h348zM106 235l-95 -235h-23l290 714h26l282 -714h-22l-94 235h-364z" />
    <glyph glyph-name="B" unicode="B" horiz-adv-x="611" 
d="M67 20h284c60.667 0 110.167 14.667 148.5 44s57.5 72.333 57.5 129c0 58 -19.5 100.667 -58.5 128s-87.167 41 -144.5 41h-287v-342zM47 714l306.999 -0.00195312c58.667 0 106.834 -15.333 144.501 -46s56.5 -74.667 56.5 -132c0 -44 -14.5 -82.167 -43.5 -114.5
s-64.833 -48.5 -107.5 -48.5c48 -1.33301 88.833 -18.166 122.5 -50.499s50.5 -75.166 50.5 -128.499c0 -62.667 -21.5 -110.667 -64.5 -144s-99.833 -50 -170.5 -50h-295v714zM66.999 381.998h287c50.667 0 93.5 13.333 128.5 40s52.5 64.667 52.5 114
c0 51.333 -16.833 90.5 -50.5 117.5s-77.167 40.5 -130.5 40.5h-287v-312z" />
    <glyph glyph-name="C" unicode="C" horiz-adv-x="685" 
d="M662 280c-12.667 -90 -46.167 -161.999 -100.5 -215.999s-125.5 -81 -213.5 -81c-95.333 0 -173 34.333 -233 103s-90 157 -90 265c0 100.667 27.833 189.167 83.5 265.5s139.834 114.5 252.501 114.5c86 0 155 -25.333 207 -76s78 -102.334 78 -155.001h-20
c-4.66699 55.333 -31.334 104.333 -80.001 147s-110.334 64 -185.001 64c-106.667 0 -186 -37.5 -238 -112.5s-78 -157.5 -78 -247.5c0 -96 27.333 -178 82 -246s128.334 -102 221.001 -102c82.667 0 149.5 25.5 200.5 76.5s82.167 117.833 93.5 200.5h20z" />
    <glyph glyph-name="D" unicode="D" horiz-adv-x="648" 
d="M54 714l250 -0.000976562c84 0 155.667 -27.5 215 -82.5s89 -146.5 89 -274.5c0 -119.333 -32.167 -208.666 -96.5 -267.999s-143.833 -89 -238.5 -89h-219v714zM74 19.999h204c90 0 164.167 28.667 222.5 86s87.5 141 87.5 251c0 122 -27.5 208.667 -82.5 260
s-123.833 77 -206.5 77h-225v-674z" />
    <glyph glyph-name="E" unicode="E" horiz-adv-x="537" 
d="M74 20h458v-20h-478v714h474v-20h-454v-312h427v-20h-427v-342z" />
    <glyph glyph-name="F" unicode="F" horiz-adv-x="481" 
d="M74 382h380v-20h-380v-362h-20v714h440v-20h-420v-312z" />
    <glyph glyph-name="G" unicode="G" horiz-adv-x="722" 
d="M377 314l0.000976562 20h297v-335h-20v178c-19.333 -60 -54.666 -107.333 -105.999 -142s-111.666 -52 -180.999 -52c-106.667 0 -189.167 35.167 -247.5 105.5s-87.5 159.833 -87.5 268.5c0 108 30.167 197.333 90.5 268s141.833 106 244.5 106
c79.333 0 145.666 -21.667 198.999 -65s85.666 -101.666 96.999 -174.999h-20c-12.667 67.333 -43.5 120.833 -92.5 160.5s-110.167 59.5 -183.5 59.5c-96 0 -172.5 -33.833 -229.5 -101.5s-85.5 -151.834 -85.5 -252.501c0 -102 27.667 -186.5 83 -253.5
s133.666 -100.5 234.999 -100.5c80 0 147.333 26 202 78s82 117.333 82 196v37h-277z" />
    <glyph glyph-name="H" unicode="H" horiz-adv-x="648" 
d="M74 362v-362h-20v714h20v-332h500v332h20v-714h-20v362h-500z" />
    <glyph glyph-name="I" unicode="I" horiz-adv-x="128" 
d="M54 714h20v-714h-20v714z" />
    <glyph glyph-name="J" unicode="J" horiz-adv-x="463" 
d="M384 714h20v-528c0 -63.333 -15.5 -113 -46.5 -149s-80.833 -54 -149.5 -54c-64 0 -111.667 17.833 -143 53.5s-47 82.834 -47 141.501v43h20v-43c0 -116.667 56.667 -175 170 -175c60 0 104.333 14.667 133 44s43 80.666 43 153.999v513z" />
    <glyph glyph-name="K" unicode="K" horiz-adv-x="593" 
d="M74 253v-253h-20v714h20v-434l495 434h30l-345 -304l365 -410h-27l-354 398z" />
    <glyph glyph-name="L" unicode="L" horiz-adv-x="481" 
d="M491 20v-20h-437v714h20v-694h417z" />
    <glyph glyph-name="M" unicode="M" horiz-adv-x="780" 
d="M693 714h33v-714h-20v689l-305 -689h-22l-303 689l-2 -689h-20v714h33l302 -688z" />
    <glyph glyph-name="N" unicode="N" horiz-adv-x="648" 
d="M54 714h30l488 -689l2 689h20v-714h-30l-488 689l-2 -689h-20v714z" />
    <glyph glyph-name="O" unicode="O" horiz-adv-x="721" 
d="M361 3c94.667 0 169.834 32.833 225.501 98.5s83.5 150.834 83.5 255.501s-27.833 189.834 -83.5 255.501s-130.834 98.5 -225.501 98.5s-169.834 -32.833 -225.501 -98.5s-83.5 -150.834 -83.5 -255.501s27.833 -189.834 83.5 -255.501s130.834 -98.5 225.501 -98.5z
M361 731c103.333 0 184 -35.667 242 -107s87 -160.333 87 -267s-29 -195.667 -87 -267s-138.667 -107 -242 -107s-184 35.667 -242 107s-87 160.333 -87 267s29 195.667 87 267s138.667 107 242 107z" />
    <glyph glyph-name="P" unicode="P" horiz-adv-x="574" 
d="M74 345h269c57.333 0 104.5 15.5 141.5 46.5s55.5 73.5 55.5 127.5c0 116.667 -65.667 175 -197 175h-269v-349zM74 0l-20 -0.000976562v714h289c68.667 0 122 -16.667 160 -50s57 -81.666 57 -144.999c0 -61.333 -20.833 -109 -62.5 -143s-96.5 -51 -164.5 -51h-259
v-325z" />
    <glyph glyph-name="Q" unicode="Q" horiz-adv-x="721" 
d="M427 156l11 16.001l129 -89c32.667 31.333 58 70.5 76 117.5s27 99.167 27 156.5c0 104.667 -27.833 189.834 -83.5 255.501s-130.834 98.5 -225.501 98.5s-169.834 -32.833 -225.501 -98.5s-83.5 -150.834 -83.5 -255.501s27.833 -189.834 83.5 -255.501
s130.834 -98.5 225.501 -98.5c38.667 0 73.834 5.66699 105.501 17s60.5 28 86.5 50zM571 58.001c-27.333 -24 -58.5 -42.5 -93.5 -55.5s-73.833 -19.5 -116.5 -19.5c-103.333 0 -184 35.667 -242 107s-87 160.333 -87 267s29 195.667 87 267s138.667 107 242 107
s184 -35.667 242 -107s87 -160.333 87 -267c0 -58 -8.83301 -111.5 -26.5 -160.5s-44.167 -90.833 -79.5 -125.5l115 -79l-10 -14z" />
    <glyph glyph-name="R" unicode="R" horiz-adv-x="611" 
d="M74 355h267c57.333 0 105.5 14.833 144.5 44.5s58.5 74.167 58.5 133.5c0 52 -15.5 91.833 -46.5 119.5s-79.833 41.5 -146.5 41.5h-277v-339zM74 0l-20.002 -0.000976562v714h292c145.333 0 218 -61 218 -183c0 -47.333 -13.167 -87.166 -39.5 -119.499
s-64.166 -53.833 -113.499 -64.5c56.667 -8.66699 94.334 -28.5 113.001 -59.5s28 -77.833 28 -140.5c0 -31.333 1.16699 -61.166 3.5 -89.499s6.83301 -47.5 13.5 -57.5h-22c-5.33301 13.333 -9.16602 34.166 -11.499 62.499s-3.5 57.5 -3.5 87.5
c0 64.667 -12.333 111.667 -37 141s-75.334 44 -152.001 44h-269v-335z" />
    <glyph glyph-name="S" unicode="S" horiz-adv-x="611" 
d="M531 514c0 68.667 -21 118.668 -63 150.001s-98.333 47 -169 47c-60.667 0 -113.167 -12.833 -157.5 -38.5s-66.5 -67.5 -66.5 -125.5c0 -66.667 21.5 -107.5 64.5 -122.5s101.333 -31.667 175 -50s123.5 -32 149.5 -41s49.333 -26 70 -51s31 -60.833 31 -107.5
c0 -62.667 -25 -110.334 -75 -143.001s-109 -49 -177 -49c-86 0 -154 20.667 -204 62s-75 105.333 -75 192h20c0 -81.333 22.833 -140.666 68.5 -177.999s109.167 -56 190.5 -56c63.333 0 117.833 14.5 163.5 43.5s68.5 72.167 68.5 129.5c0 62 -18.5 102.333 -55.5 121
s-95 37.5 -174 56.5s-142.167 37.667 -189.5 56s-71 64.166 -71 137.499c0 64.667 23.833 111.5 71.5 140.5s105.167 43.5 172.5 43.5c76 0 137 -17.333 183 -52s69 -89.667 69 -165h-20z" />
    <glyph glyph-name="T" unicode="T" 
d="M-17 694v20h534v-20h-257v-694h-20v694h-257z" />
    <glyph glyph-name="U" unicode="U" horiz-adv-x="632" 
d="M558 714h20v-448c0 -93.333 -22.5 -163.833 -67.5 -211.5s-109.833 -71.5 -194.5 -71.5c-174.667 0 -262 94.333 -262 283v448h20v-448c0 -86 20 -151.333 60 -196s100.667 -67 182 -67s142 22.167 182 66.5s60 109.833 60 196.5v448z" />
    <glyph glyph-name="V" unicode="V" horiz-adv-x="538" 
d="M536 714h20l-272 -714h-22l-280 714h20l270 -688z" />
    <glyph glyph-name="W" unicode="W" horiz-adv-x="870" 
d="M860 714h20l-207 -714h-27l-210 689l-208 -689h-27l-211 714h21l202 -689l208 689h29l209 -689z" />
    <glyph glyph-name="X" unicode="X" horiz-adv-x="520" 
d="M510 714h25l-260 -347l272 -367h-25l-261 351l-263 -351h-25l275 367l-260 347h26l247 -331z" />
    <glyph glyph-name="Y" unicode="Y" horiz-adv-x="538" 
d="M544 714h24l-289 -413v-301h-20v301l-289 413h25l274 -392z" />
    <glyph glyph-name="Z" unicode="Z" 
d="M508 20v-20h-527v27l499 667h-471v20h491v-27l-499 -667h507z" />
    <glyph glyph-name="bracketleft" unicode="[" horiz-adv-x="222" 
d="M209 731v-20h-93v-868h93v-20h-113v908h113z" />
    <glyph glyph-name="backslash" unicode="\" horiz-adv-x="333" 
d="M320 -17l-327 748h20l327 -748h-20z" />
    <glyph glyph-name="bracketright" unicode="]" horiz-adv-x="222" 
d="M13 -177v20h93v868h-93v20h113v-908h-113z" />
    <glyph glyph-name="asciicircum" unicode="^" horiz-adv-x="600" 
d="M541 227h-20l-221 433l-221 -433h-20l231 453h20z" />
    <glyph glyph-name="underscore" unicode="_" 
d="M0 -125v50h500v-50h-500z" />
    <glyph glyph-name="grave" unicode="`" horiz-adv-x="130" 
d="M-38 731h29l125 -144h-15z" />
    <glyph glyph-name="a" unicode="a" horiz-adv-x="481" 
d="M400 302c-10 -13.333 -28.832 -23.5 -56.499 -30.5s-75.834 -10.5 -144.501 -10.5c-48 0 -86.167 -9.5 -114.5 -28.5s-42.5 -54.167 -42.5 -105.5c0 -33.333 12 -61.5 36 -84.5s62 -34.5 114 -34.5c64 0 114.667 19.667 152 59s56 86 56 140v95zM54.001 355
c0 50.667 17.167 91.833 51.5 123.5s82.5 47.5 144.5 47.5c50.667 0 91.667 -11.333 123 -34s47 -60.334 47 -113.001v-327c0 -12.667 3.83301 -21.5 11.5 -26.5s17.5 -7.5 29.5 -7.5h12c5.33301 1.33301 9.33301 2 12 2v-20h-15c-28.667 0 -47.5 4.16699 -56.5 12.5
s-13.5 20.833 -13.5 37.5v67c-12 -35.333 -36.667 -65.666 -74 -90.999s-81.333 -38 -132 -38c-52 0 -93.667 12 -125 36s-47 58.333 -47 103c0 57.333 16.667 97.333 50 120s75.666 34 126.999 34c78 0 131 4.66699 159 14s42 32.333 42 69c0 42 -9.66699 76.167 -29 102.5
s-59.666 39.5 -120.999 39.5c-54 0 -96.833 -13.167 -128.5 -39.5s-47.5 -63.5 -47.5 -111.5h-20z" />
    <glyph glyph-name="b" unicode="b" horiz-adv-x="537" 
d="M283 8c63.333 0 112.333 23.833 147 71.5s52 106.5 52 176.5c0 67.333 -16.667 125.833 -50 175.5s-83 74.5 -149 74.5c-63.333 0 -113.833 -22 -151.5 -66s-56.5 -105.333 -56.5 -184c0 -70 18.667 -128.833 56 -176.5s88 -71.5 152 -71.5zM75 370
c13.333 48 37.9971 86.001 73.9971 114.001s80.667 42 134 42c68 0 121.5 -26 160.5 -78s58.5 -116 58.5 -192c0 -79.333 -19.667 -143.833 -59 -193.5s-92.666 -74.5 -159.999 -74.5c-51.333 0 -95.166 14.167 -131.499 42.5s-61.166 66.166 -74.499 113.499l-2 -144h-20
v714h20v-344z" />
    <glyph glyph-name="c" unicode="c" 
d="M469 175c-5.33301 -58 -26.834 -103.666 -64.501 -136.999s-86.167 -50 -145.5 -50c-70.667 0 -126.334 24.5 -167.001 73.5s-61 110.5 -61 184.5c0 80 20.333 146.667 61 200s100.334 80 179.001 80c50 0 93.333 -14.833 130 -44.5s58 -70.834 64 -123.501h-20
c-7.33301 48 -27.166 84.667 -59.499 110s-70.5 38 -114.5 38c-75.333 0 -130.833 -25.833 -166.5 -77.5s-53.5 -112.5 -53.5 -182.5c0 -66.667 18.333 -123 55 -169s87.667 -69 153 -69c52 0 96.667 15.333 134 46s56 71 56 121h20z" />
    <glyph glyph-name="d" unicode="d" horiz-adv-x="537" 
d="M247 506c-65.333 0 -114.833 -25 -148.5 -75s-50.5 -108.333 -50.5 -175c0 -70 17.167 -128.833 51.5 -176.5s83.5 -71.5 147.5 -71.5c63.333 0 113.833 24 151.5 72s56.5 106.667 56.5 176c0 78.667 -18.667 140 -56 184s-88 66 -152 66zM455 714l19.999 0.000976562
v-714h-20v144c-14.667 -46.667 -40.167 -84.334 -76.5 -113.001s-80.166 -43 -131.499 -43c-66.667 0 -119.834 25 -159.501 75s-59.5 114.333 -59.5 193c0 76 19.5 140 58.5 192s92.5 78 160.5 78c53.333 0 97.833 -14 133.5 -42s59.834 -66 72.501 -114z" />
    <glyph glyph-name="e" unicode="e" 
d="M455 273c0 67.333 -17.668 123 -53.001 167s-85.333 66 -150 66c-57.333 0 -106.166 -21.333 -146.499 -64s-60.5 -99 -60.5 -169h410zM44.999 253c0 -74.667 16.3311 -134.168 48.998 -178.501s84 -66.5 154 -66.5c54 0 98.833 14.667 134.5 44
s57.834 71.333 66.501 126h20c-6.66699 -58 -30.167 -104.167 -70.5 -138.5s-89.833 -51.5 -148.5 -51.5c-76 0 -132.5 24.5 -169.5 73.5s-55.5 114.167 -55.5 195.5c0 82 22 147.333 66 196s97 73 159 73c74.667 0 130.834 -26.167 168.501 -78.5
s56.5 -117.166 56.5 -194.499h-430z" />
    <glyph glyph-name="f" unicode="f" horiz-adv-x="204" 
d="M-1 494l0.000976562 20h88v114c0 36.667 9.16699 60.167 27.5 70.5s42.833 15.5 73.5 15.5c10 0 18 -0.5 24 -1.5s12.333 -1.83301 19 -2.5v-20c-16.667 2.66699 -32.334 4 -47.001 4c-30.667 0 -51.167 -5.5 -61.5 -16.5s-15.5 -29.833 -15.5 -56.5v-107h111v-20h-111
v-494h-20v494h-88z" />
    <glyph glyph-name="g" unicode="g" horiz-adv-x="519" 
d="M249 506c-63.333 0 -112.666 -22.167 -147.999 -66.5s-53 -99.5 -53 -165.5c0 -66.667 16.833 -121 50.5 -163s81.167 -63 142.5 -63c63.333 0 113.166 21.5 149.499 64.5s54.5 96.833 54.5 161.5c0 63.333 -17.333 117.833 -52 163.5s-82.667 68.5 -144 68.5zM446 172
c-11.333 -44 -36.499 -79.0029 -75.499 -105.003s-81.833 -39 -128.5 -39c-68 0 -120.667 23.5 -158 70.5s-56 105.5 -56 175.5c0 72.667 19.333 132.834 58 180.501s93 71.5 163 71.5c48 0 90 -14 126 -42s59 -63.667 69 -107l2 137h20v-497
c0 -68.667 -18.5 -120.167 -55.5 -154.5s-89.833 -51.5 -158.5 -51.5c-57.333 0 -104.333 13.333 -141 40s-55 67.334 -55 122.001h20c0 -48 16.333 -83.667 49 -107s74.667 -35 126 -35c63.333 0 111.666 15.333 144.999 46s50 77.334 50 140.001v155z" />
    <glyph glyph-name="h" unicode="h" 
d="M55 714l19.999 0.000976562v-327c11.333 41.333 33 74.833 65 100.5s72.667 38.5 122 38.5c54.667 0 98.834 -16.167 132.501 -48.5s50.5 -77.833 50.5 -136.5v-341h-20v338c0 55.333 -15.5 97.166 -46.5 125.499s-69.833 42.5 -116.5 42.5
c-59.333 0 -105.333 -20.5 -138 -61.5s-49 -92.167 -49 -153.5v-291h-20v714z" />
    <glyph glyph-name="i" unicode="i" horiz-adv-x="130" 
d="M75 0h-20v514h20v-514zM75 613h-20v101h20v-101z" />
    <glyph glyph-name="j" unicode="j" horiz-adv-x="130" 
d="M75 -75c0 -43.333 -9.5 -71.167 -28.5 -83.5s-50.833 -18.5 -95.5 -18.5v20c42.667 0 70.667 4.66699 84 14s20 34.333 20 75v582h20v-589zM75 612.999h-20v101h20v-101z" />
    <glyph glyph-name="k" unicode="k" horiz-adv-x="444" 
d="M75 194v-194h-20v714h20v-495l355 295h29l-236 -196l253 -318h-27l-241 304z" />
    <glyph glyph-name="l" unicode="l" horiz-adv-x="130" 
d="M55 714h20v-714h-20v714z" />
    <glyph glyph-name="m" unicode="m" horiz-adv-x="778" 
d="M55 514l20 0.00195312v-127c10.667 40 31.167 73.167 61.5 99.5s65.166 39.5 104.499 39.5c40.667 0 74.334 -10.333 101.001 -31s44.334 -50.334 53.001 -89.001c11.333 36 31.833 65 61.5 87s64.167 33 103.5 33c58.667 0 100.5 -16.333 125.5 -49s37.5 -79 37.5 -139
v-338h-20v338c0 55.333 -10.5 97.166 -31.5 125.499s-58.167 42.5 -111.5 42.5c-48.667 0 -87.667 -17.5 -117 -52.5s-44 -77.5 -44 -127.5v-326h-20v330c0 55.333 -9.83301 98.5 -29.5 129.5s-55.834 46.5 -108.501 46.5c-49.333 0 -89.333 -21 -120 -63
s-46 -92.667 -46 -152v-291h-20v514z" />
    <glyph glyph-name="n" unicode="n" 
d="M55 514l19.999 0.000976562v-127c11.333 41.333 33 74.833 65 100.5s72.667 38.5 122 38.5c54.667 0 98.834 -16.167 132.501 -48.5s50.5 -77.833 50.5 -136.5v-341h-20v338c0 55.333 -15.5 97.166 -46.5 125.499s-69.833 42.5 -116.5 42.5
c-59.333 0 -105.333 -20.5 -138 -61.5s-49 -92.167 -49 -153.5v-291h-20v514z" />
    <glyph glyph-name="o" unicode="o" horiz-adv-x="519" 
d="M260 526c72 0 128.5 -26.167 169.5 -78.5s61.5 -115.833 61.5 -190.5s-20.667 -138.167 -62 -190.5s-98 -78.5 -170 -78.5s-128.5 26 -169.5 78s-61.5 115.667 -61.5 191c0 74.667 20.5 138.167 61.5 190.5s97.833 78.5 170.5 78.5zM260 8
c66 0 117.667 24.1699 155 72.5029s56 107.166 56 176.499c0 68 -18.833 126.5 -56.5 175.5s-89.167 73.5 -154.5 73.5c-66 0 -117.833 -24.333 -155.5 -73s-56.5 -107.334 -56.5 -176.001s18.833 -127.334 56.5 -176.001s89.5 -73 155.5 -73z" />
    <glyph glyph-name="p" unicode="p" horiz-adv-x="537" 
d="M482 258c0 70 -17.167 128.833 -51.5 176.5s-83.5 71.5 -147.5 71.5c-63.333 0 -113.833 -24 -151.5 -72s-56.5 -106.667 -56.5 -176c0 -78.667 18.667 -140 56 -184s88 -66 152 -66c65.333 0 114.833 25 148.5 75s50.5 108.333 50.5 175zM75 -177l-19.999 -0.000976562
v691h20v-144c14.667 46.667 40.167 84.334 76.5 113.001s80.166 43 131.499 43c66.667 0 119.834 -25 159.501 -75s59.5 -114.333 59.5 -193c0 -76 -19.5 -140 -58.5 -192s-92.5 -78 -160.5 -78c-53.333 0 -97.833 14 -133.5 42s-59.834 66 -72.501 114z" />
    <glyph glyph-name="q" unicode="q" horiz-adv-x="537" 
d="M455 514l20.0029 -0.000976562v-691h-20v321c-13.333 -48 -38 -86 -74 -114s-80.667 -42 -134 -42c-68 0 -121.5 26 -160.5 78s-58.5 116 -58.5 192c0 79.333 19.667 143.833 59 193.5s92.666 74.5 159.999 74.5c51.333 0 95.166 -14.167 131.499 -42.5
s61.166 -66.166 74.499 -113.499zM247.003 505.999c-63.333 0 -112.333 -23.833 -147 -71.5s-52 -106.5 -52 -176.5c0 -67.333 16.667 -125.833 50 -175.5s83 -74.5 149 -74.5c63.333 0 113.833 22 151.5 66s56.5 105.333 56.5 184c0 70 -18.667 128.833 -56 176.5
s-88 71.5 -152 71.5z" />
    <glyph glyph-name="r" unicode="r" horiz-adv-x="259" 
d="M75 0h-19.999v514h20v-127c11.333 42 33.5 75.667 66.5 101s78.833 38 137.5 38v-20c-66.667 0 -117.334 -20.5 -152.001 -61.5s-52 -92.167 -52 -153.5v-291z" />
    <glyph glyph-name="s" unicode="s" horiz-adv-x="463" 
d="M390 362c0 48.667 -14.832 84.835 -44.499 108.502s-70.167 35.5 -121.5 35.5c-48.667 0 -86.5 -10 -113.5 -30s-40.5 -46.333 -40.5 -79c0 -24.667 4.66699 -44 14 -58s22 -24 38 -30s36.667 -12.5 62 -19.5l107.5 -28.5c46.333 -12 80 -28.167 101 -48.5
s31.5 -47.5 31.5 -81.5c0 -48 -18.333 -83.833 -55 -107.5s-80.334 -35.5 -131.001 -35.5c-69.333 0 -121.333 15.167 -156 45.5s-52 77.833 -52 142.5h20c0 -56.667 16 -98.834 48 -126.501s78.667 -41.5 140 -41.5c43.333 0 81.833 10 115.5 30s50.5 50.333 50.5 91
c0 40 -13.667 67.167 -41 81.5s-64.333 27.333 -111 39s-78.167 20 -94.5 25s-38.333 13.5 -66 25.5s-41.5 44.333 -41.5 97c0 33.333 14.333 63.166 43 89.499s72.334 39.5 131.001 39.5c59.333 0 105.166 -13.333 137.499 -40s48.5 -68 48.5 -124h-20z" />
    <glyph glyph-name="t" unicode="t" horiz-adv-x="241" 
d="M110 494l0.000976562 -393.999c0 -34 6.16699 -55.833 18.5 -65.5s29.166 -14.5 50.499 -14.5c23.333 0 38 1 44 3v-20c-4.66699 0 -12.167 -0.5 -22.5 -1.5s-19.166 -1.5 -26.499 -1.5c-26.667 0 -47.334 7.16699 -62.001 21.5s-22 39.166 -22 74.499v398h-95v20h95v162
h20v-162h116v-20h-116z" />
    <glyph glyph-name="u" unicode="u" 
d="M445 0l-19.999 -0.000976562v127c-11.333 -41.333 -33 -74.833 -65 -100.5s-72.667 -38.5 -122 -38.5c-54.667 0 -98.834 16.167 -132.501 48.5s-50.5 77.833 -50.5 136.5v341h20v-338c0 -55.333 15.5 -97.166 46.5 -125.499s69.833 -42.5 116.5 -42.5
c59.333 0 105.333 20.5 138 61.5s49 92.167 49 153.5v291h20v-514z" />
    <glyph glyph-name="v" unicode="v" horiz-adv-x="407" 
d="M397 514h22l-194 -514h-25l-212 514h24l199 -494z" />
    <glyph glyph-name="w" unicode="w" horiz-adv-x="685" 
d="M673 514h20l-164 -514h-26l-160 494l-163 -494h-28l-160 514h20l153 -494l161 494h31l158 -494z" />
    <glyph glyph-name="x" unicode="x" horiz-adv-x="407" 
d="M380 514h24l-188 -248l206 -266h-25l-194 251l-193 -251h-25l206 266l-187 248h26l173 -233z" />
    <glyph glyph-name="y" unicode="y" horiz-adv-x="407" 
d="M398 514h21.001l-237 -619c-12 -31.333 -28.167 -51.166 -48.5 -59.499s-49.5 -12.5 -87.5 -12.5v20c38 0 64.667 3.66699 80 11s28.666 25.666 39.999 54.999l37 96l-215 509h22l204 -487z" />
    <glyph glyph-name="z" unicode="z" horiz-adv-x="407" 
d="M402 20v-20h-397v25l360 469h-333v20h354v-25l-360 -469h376z" />
    <glyph glyph-name="braceleft" unicode="{" horiz-adv-x="333" 
d="M230 -177c-26.667 0 -45.498 8.83105 -56.498 26.498s-16.5 45.834 -16.5 84.501v163c0 44.667 -4.83301 80 -14.5 106s-28.834 48.333 -57.501 67v20c20.667 3.33301 37.834 21.333 51.501 54s20.5 70.334 20.5 113.001v165c0 39.333 5.16699 67.333 15.5 84
s29.5 25 57.5 25h50v-20h-48c-20 0 -34.167 -7.66699 -42.5 -23s-12.5 -43.333 -12.5 -84v-164c0 -35.333 -5.83301 -68.5 -17.5 -99.5s-29.834 -51.833 -54.501 -62.5c21.333 -10 38.666 -30.333 51.999 -61s20 -65 20 -103v-162c0 -43.333 4.16699 -72.333 12.5 -87
s22.5 -22 42.5 -22h48v-20h-50z" />
    <glyph glyph-name="bar" unicode="|" horiz-adv-x="222" 
d="M101 -17v748h20v-748h-20z" />
    <glyph glyph-name="braceright" unicode="}" horiz-adv-x="333" 
d="M103 731c26.667 0 45.498 -8.83105 56.498 -26.498s16.5 -45.834 16.5 -84.501v-163c0 -44.667 4.83301 -80 14.5 -106s28.834 -48.333 57.501 -67v-20c-20.667 -3.33301 -37.834 -21.333 -51.501 -54s-20.5 -70.334 -20.5 -113.001v-165
c0 -39.333 -5.16699 -67.333 -15.5 -84s-29.5 -25 -57.5 -25h-50v20h48c20 0 34.167 7.66699 42.5 23s12.5 43.333 12.5 84v164c0 35.333 5.83301 68.5 17.5 99.5s29.834 51.833 54.501 62.5c-21.333 10 -38.666 30.333 -51.999 61s-20 65 -20 103v162
c0 43.333 -4.16699 72.333 -12.5 87s-22.5 22 -42.5 22h-48v20h50z" />
    <glyph glyph-name="asciitilde" unicode="~" horiz-adv-x="600" 
d="M523 295c-17.333 -28 -33.8291 -49.334 -49.4961 -64.001s-35.5 -22 -59.5 -22c-16.667 0 -34.834 4.5 -54.501 13.5s-33.834 15.167 -42.501 18.5c-26.667 12.667 -48.167 22 -64.5 28s-35.5 9 -57.5 9s-40.333 -6.16699 -55 -18.5s-29 -30.5 -43 -54.5l-20 6
c14 26 30.5 47 49.5 63s41.833 24 68.5 24c16.667 0 34.5 -3 53.5 -9s43 -15.333 72 -28s49.167 -21.167 60.5 -25.5s22.666 -6.5 33.999 -6.5c17.333 0 32.666 6.33301 45.999 19s27.333 30.334 42 53.001z" />
    <glyph glyph-name="nonbreakingspace" unicode="&#xa0;" horiz-adv-x="250" 
 />
    <glyph glyph-name="exclamdown" unicode="&#xa1;" horiz-adv-x="185" 
d="M103 542v-98h-20v98h20zM103 360v-537h-20v537h20z" />
    <glyph glyph-name="cent" unicode="&#xa2;" horiz-adv-x="556" 
d="M272 505c-61.333 0 -108.833 -24.667 -142.5 -74s-50.5 -107 -50.5 -173c0 -67.333 16.667 -125.833 50 -175.5s81 -74.5 143 -74.5v497zM292 8l4.99707 0.000976562c48.667 0 89.5 15.5 122.5 46.5s52.167 71.167 57.5 120.5h20c-6.66699 -58 -28.5 -103.667 -65.5 -137
s-83.5 -50 -139.5 -50v-109h-20v109c-67.333 0 -119.666 26.667 -156.999 80s-56 116.666 -56 189.999c0 72 18.833 134.5 56.5 187.5s89.834 79.5 156.501 79.5v88h20v-88c54 0 99.333 -14.5 136 -43.5s58 -70.167 64 -123.5h-20c-7.33301 48 -27.166 84.5 -59.499 109.5
s-72.5 37.5 -120.5 37.5v-497z" />
    <glyph glyph-name="sterling" unicode="&#xa3;" horiz-adv-x="556" 
d="M296 365l0.00292969 -20h-149c10 -18 17.5 -39.167 22.5 -63.5s7.5 -48.5 7.5 -72.5c0 -37.333 -8.5 -71.666 -25.5 -102.999s-41.5 -60.666 -73.5 -87.999l2 -2c14.667 11.333 30.334 20.333 47.001 27s35 10 55 10c18 0 37 -3.33301 57 -10s38.667 -13.334 56 -20.001
s32.833 -11.667 46.5 -15s25.5 -5 35.5 -5c29.333 0 54.666 6.5 75.999 19.5s47 34.167 77 63.5l13 -14c-28 -32 -55 -54.833 -81 -68.5s-54.333 -20.5 -85 -20.5c-18.667 0 -35.834 2.5 -51.501 7.5s-31.834 10.833 -48.501 17.5c-37.333 12.667 -60 20 -68 22s-17 3 -27 3
c-23.333 0 -44.833 -4.16699 -64.5 -12.5s-39.834 -20.833 -60.501 -37.5l-18 20c34.667 29.333 63 61.666 85 96.999s33 71.666 33 108.999c0 54.667 -10.667 100 -32 136h-76v20h66l-46 92.5c-16 33 -24 62.167 -24 87.5c0 59.333 22 105.166 66 137.499
s97.333 48.5 160 48.5c71.333 0 127.833 -19.167 169.5 -57.5s62.5 -91.166 62.5 -158.499l-2 -35h-20c0.666992 5.33301 1 10.833 1 16.5v13.5c0 64.667 -19 114.334 -57 149.001s-89.333 52 -154 52c-58 0 -106.833 -13.667 -146.5 -41s-59.5 -69 -59.5 -125
c0 -30 9.16699 -62.167 27.5 -96.5l45.5 -83.5h158z" />
    <glyph glyph-name="currency" unicode="&#xa4;" horiz-adv-x="556" 
d="M503 579l14 -14l-57 -57c44 -47.333 66 -103.333 66 -168c0 -64 -22 -120 -66 -168l57 -57l-14 -14l-57 57c-48 -44 -104 -66 -168 -66s-120 22 -168 66l-57 -57l-14 14l57 57c-44 48 -66 104 -66 168s22 120 66 168l-57 57l14 14l57 -57c48 44 104 66 168 66
c64.667 0 120.667 -22 168 -66zM278 568c-62.667 0 -116.336 -22.3311 -161.003 -66.998s-67 -98.334 -67 -161.001s22.333 -116.334 67 -161.001s98.334 -67 161.001 -67s116.334 22.333 161.001 67s67 98.334 67 161.001c0 63.333 -22.167 117.166 -66.5 161.499
s-98.166 66.5 -161.499 66.5z" />
    <glyph glyph-name="yen" unicode="&#xa5;" horiz-adv-x="556" 
d="M287 203h147v-20h-147v-183h-20v183h-147v20h147v102h-147v20h138l-237 389h22l234 -383l236 383h22l-237 -389h136v-20h-147v-102z" />
    <glyph glyph-name="section" unicode="&#xa7;" horiz-adv-x="556" 
d="M422 546c0 52 -13.167 92.5 -39.5 121.5s-64.166 43.5 -113.499 43.5c-34 0 -65.167 -9 -93.5 -27s-42.5 -47.333 -42.5 -88c0 -23.333 5 -42.333 15 -57s22.5 -27.5 37.5 -38.5s40.667 -27 77 -48s73.333 -43.667 111 -68s68 -50.666 91 -78.999
s34.5 -62.166 34.5 -101.499c0 -32.667 -12.833 -61.5 -38.5 -86.5s-51.834 -41.5 -78.501 -49.5c24 -20 39.833 -39.333 47.5 -58s11.5 -40.334 11.5 -65.001c0 -44 -16 -77.333 -48 -100s-70.333 -34 -115 -34c-56 0 -99.167 16.833 -129.5 50.5s-45.5 81.5 -45.5 143.5
h20c0 -54 12.333 -96.5 37 -127.5s64 -46.5 118 -46.5c46.667 0 82.167 12.167 106.5 36.5s36.5 50.166 36.5 77.499c0 28 -4.66699 50.333 -14 67s-27.5 34.667 -54.5 54s-62.833 42.833 -107.5 70.5s-80 50.334 -106 68.001s-46.167 38.667 -60.5 63
s-21.5 51.833 -21.5 82.5c0 30 10.833 58 32.5 84s47.167 44.333 76.5 55c-15.333 13.333 -28 28.666 -38 45.999s-15 38.333 -15 63c0 48.667 16.833 83 50.5 103s69.5 30 107.5 30c52 0 93.5 -16.833 124.5 -50.5s46.5 -78.5 46.5 -134.5h-20zM314 399
c-16 10 -40.666 24.4971 -73.999 43.4971s-52 29.833 -56 32.5c-23.333 -7.33301 -47 -22.166 -71 -44.499s-36 -51.833 -36 -88.5c0 -21.333 6.5 -43.166 19.5 -65.499s34.5 -43.166 64.5 -62.499l110.5 -71c43.667 -28 74.167 -48.333 91.5 -61c26 6 51.833 20 77.5 42
s38.5 49 38.5 81c0 34 -10.833 64.167 -32.5 90.5s-65.834 60.833 -132.501 103.5z" />
    <glyph glyph-name="dieresis" unicode="&#xa8;" horiz-adv-x="130" 
d="M-23 590v81h20v-81h-20zM133 590v81h20v-81h-20z" />
    <glyph glyph-name="copyright" unicode="&#xa9;" horiz-adv-x="800" 
d="M573 428c-6 42 -24.498 74.335 -55.498 97.002s-67.5 34 -109.5 34c-60.667 0 -108.667 -19.333 -144 -58s-53 -88.334 -53 -149.001s18 -111.167 54 -151.5s84.667 -60.5 146 -60.5c37.333 0 71.166 12 101.499 36s50.5 57.333 60.5 100h20
c-10.667 -46.667 -32.334 -84.334 -65.001 -113.001s-71.667 -43 -117 -43c-66 0 -119.167 21.833 -159.5 65.5s-60.5 98.834 -60.5 165.501c0 67.333 19.333 122.166 58 164.499s91.667 63.5 159 63.5c48.667 0 90 -13.333 124 -40s54.333 -63.667 61 -111h-20z
M400.002 731.002c104 0 192.333 -36.333 265 -109s109 -161 109 -265s-36.333 -192.333 -109 -265s-161 -109 -265 -109s-192.333 36.333 -265 109s-109 161 -109 265s36.333 192.333 109 265s161 109 265 109zM400.002 3.00195c98 0 181.5 34.5 250.5 103.5
s103.5 152.5 103.5 250.5s-34.5 181.5 -103.5 250.5s-152.5 103.5 -250.5 103.5s-181.5 -34.5 -250.5 -103.5s-103.5 -152.5 -103.5 -250.5s34.5 -181.5 103.5 -250.5s152.5 -103.5 250.5 -103.5z" />
    <glyph glyph-name="ordfeminine" unicode="&#xaa;" horiz-adv-x="300" 
d="M246 552c-8.66699 -11.333 -25.667 -18 -51 -20s-51.833 -4.33301 -79.5 -7s-50.5 -9 -68.5 -19s-27 -28.333 -27 -55c0 -21.333 8.83301 -37.333 26.5 -48s39.5 -16 65.5 -16c41.333 0 74 11 98 33s36 50 36 84v48zM300 374c-18 0 -31.502 1.49902 -40.502 4.49902
s-13.5 11.833 -13.5 26.5v41l-2 -7c-15.333 -48 -59.333 -72 -132 -72c-32.667 0 -59.5 6.83301 -80.5 20.5s-31.5 34.834 -31.5 63.501c0 36 11.333 60.833 34 74.5s52.334 20.5 89.001 20.5h24c42 0 69 3.66699 81 11s18 18.666 18 33.999
c0 28.667 -7.66699 49.334 -23 62.001s-40 19 -74 19c-64.667 0 -100.667 -28 -108 -84h-20c7.33301 69.333 50 104 128 104c36 0 64.5 -6.83301 85.5 -20.5s31.5 -36.5 31.5 -68.5v-190c0 -14 6.66699 -21 20 -21c2.66699 0 7.33398 0.666992 14.001 2v-20z" />
    <glyph glyph-name="guillemotleft" unicode="&#xab;" horiz-adv-x="352" 
d="M169 121l-103 139v16l103 139v-35l-83 -112l83 -112v-35zM262 121l-103 139v16l103 139v-35l-83 -112l83 -112v-35z" />
    <glyph glyph-name="logicalnot" unicode="&#xac;" horiz-adv-x="600" 
d="M532 340h-484v20h504v-267h-20v247z" />
    <glyph glyph-name="registered" unicode="&#xae;" horiz-adv-x="800" 
d="M274 565h141c94.667 0 142 -38.667 142 -116c0 -34.667 -10.667 -62 -32 -82s-48 -30 -80 -30l132 -202h-25l-129 200l-31 -1h-98v-199h-20v430zM398 354c39.333 0 72.333 6.33301 99 19s40 38 40 76c0 36 -11.5 61 -34.5 75s-52.833 21 -89.5 21h-119v-191h104zM400 731
c104 0 192.333 -36.333 265 -109s109 -161 109 -265s-36.333 -192.333 -109 -265s-161 -109 -265 -109s-192.333 36.333 -265 109s-109 161 -109 265s36.333 192.333 109 265s161 109 265 109zM400 3c98 0 181.5 34.5 250.5 103.5s103.5 152.5 103.5 250.5
s-34.5 181.5 -103.5 250.5s-152.5 103.5 -250.5 103.5s-181.5 -34.5 -250.5 -103.5s-103.5 -152.5 -103.5 -250.5s34.5 -181.5 103.5 -250.5s152.5 -103.5 250.5 -103.5z" />
    <glyph glyph-name="degree" unicode="&#xb0;" horiz-adv-x="400" 
d="M200 672c-32.667 0 -61.333 -12.332 -86 -36.999s-37 -53.334 -37 -86.001c0 -35.333 12 -65 36 -89s53 -36 87 -36c35.333 0 64.666 12 87.999 36s35 53.667 35 89c0 34 -11.667 63 -35 87s-52.666 36 -87.999 36zM200.001 404.001c-40 0 -73.833 13.833 -101.5 41.5
s-41.5 62.167 -41.5 103.5c0 39.333 13.667 73 41 101s61.333 42 102 42c39.333 0 73 -14 101 -42s42 -61.667 42 -101c0 -40 -13.833 -74.167 -41.5 -102.5s-61.5 -42.5 -101.5 -42.5z" />
    <glyph glyph-name="plusminus" unicode="&#xb1;" horiz-adv-x="600" 
d="M290 506h20v-198h242v-20h-242v-198h-20v198h-242v20h242v198zM48 20h504v-20h-504v20z" />
    <glyph glyph-name="acute" unicode="&#xb4;" horiz-adv-x="130" 
d="M171 731l-146 -144h-15l132 144h29z" />
    <glyph glyph-name="mu" unicode="&#xb5;" horiz-adv-x="556" 
d="M472 0l-19.998 -0.000976562v127c-10.667 -41.333 -32.334 -74.833 -65.001 -100.5s-73.334 -38.5 -122.001 -38.5c-35.333 0 -67.333 7.5 -96 22.5s-50 38.5 -64 70.5l-2 -258h-20v691h19v-338c0 -55.333 15.5 -97.166 46.5 -125.499s69.833 -42.5 116.5 -42.5
c59.333 0 105.333 20.5 138 61.5s49 92.167 49 153.5v291h20v-514z" />
    <glyph glyph-name="paragraph" unicode="&#xb6;" horiz-adv-x="600" 
d="M491 714l0.000976562 -854h-20v834h-163v-834h-20v468c-64.667 0 -117.834 18.5 -159.501 55.5s-62.5 81.833 -62.5 134.5c0 62 19.5 110.167 58.5 144.5s93.833 51.5 164.5 51.5h202z" />
    <glyph glyph-name="cedilla" unicode="&#xb8;" horiz-adv-x="130" 
d="M-16 -147c19.333 -6.66699 33.834 -10.998 43.501 -12.998s19.5 -3 29.5 -3c21.333 0 39.666 4 54.999 12s23 21.667 23 41c0 12 -6.16699 21.667 -18.5 29s-24.5 11 -36.5 11c-21.333 0 -39.333 -4.33301 -54 -13l-15 10l57 73h20l-41 -56
c6 1.33301 11.5 2.66602 16.5 3.99902s10.5 2 16.5 2c22 0 40 -4.83301 54 -14.5s21 -24.834 21 -45.501c0 -27.333 -9 -46.333 -27 -57s-41.667 -16 -71 -16c-15.333 0 -31.333 2.33301 -48 7s-28 8 -34 10z" />
    <glyph glyph-name="ordmasculine" unicode="&#xba;" horiz-adv-x="300" 
d="M151 692c46.667 0 83.333 -15.667 110 -47s40 -69.333 40 -114c0 -45.333 -13.333 -84 -40 -116s-63.667 -48 -111 -48c-46 0 -82.5 16 -109.5 48s-40.5 70.667 -40.5 116s13.333 83.5 40 114.5s63.667 46.5 111 46.5zM150.999 387c39.333 0 70.833 14.334 94.5 43.001
s35.5 62.334 35.5 101.001c0 37.333 -11.833 70.166 -35.5 98.499s-55.167 42.5 -94.5 42.5c-40 0 -71.833 -14 -95.5 -42s-35.5 -61 -35.5 -99c0 -38.667 11.833 -72.334 35.5 -101.001s55.5 -43 95.5 -43z" />
    <glyph glyph-name="guillemotright" unicode="&#xbb;" horiz-adv-x="352" 
d="M183 415l103 -139v-16l-103 -139v35l83 112l-83 112v35zM90 415l103 -139v-16l-103 -139v35l83 112l-83 112v35z" />
    <glyph glyph-name="questiondown" unicode="&#xbf;" 
d="M465 49c0 -72 -18.834 -129.666 -56.501 -172.999s-91.167 -65 -160.5 -65c-57.333 0 -104.5 14.667 -141.5 44s-55.5 70 -55.5 122c0 43.333 8.83301 77.666 26.5 102.999s41.167 50.666 70.5 75.999c38 36.667 64 68.5 78 95.5s21 63.167 21 108.5h20
c0 -45.333 -6.66699 -82.666 -20 -111.999s-34.333 -57.833 -63 -85.5l-70 -67.5c-28.667 -36 -43 -75.333 -43 -118c0 -46 16.333 -81.833 49 -107.5s75.334 -38.5 128.001 -38.5c64.667 0 113.667 19.5 147 58.5s50 92.167 50 159.5h20zM267.999 542.001v-98h-20v98h20z
" />
    <glyph glyph-name="Agrave" unicode="&#xc0;" horiz-adv-x="575" 
d="M462 255l-170 439l-178 -439h348zM106 235l-95 -235h-23l290 714h26l282 -714h-22l-94 235h-364zM185 909h29l125 -144h-15z" />
    <glyph glyph-name="Aacute" unicode="&#xc1;" horiz-adv-x="575" 
d="M462 255l-170 439l-178 -439h348zM106 235l-95 -235h-23l290 714h26l282 -714h-22l-94 235h-364zM394 909l-146 -144h-15l132 144h29z" />
    <glyph glyph-name="Acircumflex" unicode="&#xc2;" horiz-adv-x="575" 
d="M462 255l-170 439l-178 -439h348zM106 235l-95 -235h-23l290 714h26l282 -714h-22l-94 235h-364zM389 770l-103 123l-99 -123h-20l113 139h15l114 -139h-20z" />
    <glyph glyph-name="Atilde" unicode="&#xc3;" horiz-adv-x="575" 
d="M462 255l-170 439l-178 -439h348zM106 235l-95 -235h-23l290 714h26l282 -714h-22l-94 235h-364zM156 780c0 18.667 7.16797 36.501 21.501 53.501s29.833 25.5 46.5 25.5c14 0 36.5 -9.66699 67.5 -29s50.833 -29 59.5 -29c14.667 0 26.5 5.5 35.5 16.5
s13.5 23.833 13.5 38.5h20c0 -20.667 -6 -38.334 -18 -53.001s-29 -22 -51 -22c-16 0 -38.167 9.66699 -66.5 29s-48.5 29 -60.5 29c-12.667 0 -23.834 -6.5 -33.501 -19.5s-14.5 -26.167 -14.5 -39.5h-20z" />
    <glyph glyph-name="Adieresis" unicode="&#xc4;" horiz-adv-x="575" 
d="M462 255l-170 439l-178 -439h348zM106 235l-95 -235h-23l290 714h26l282 -714h-22l-94 235h-364zM200 768v81h20v-81h-20zM356 768v81h20v-81h-20z" />
    <glyph glyph-name="Aring" unicode="&#xc5;" horiz-adv-x="575" 
d="M462 255l-170 439l-178 -439h348zM106 235l-95 -235h-23l290 714h26l282 -714h-22l-94 235h-364zM288 736c-24 0 -44.667 8.66699 -62 26s-26 38 -26 62s8.66699 44.667 26 62s38 26 62 26s44.667 -8.66699 62 -26s26 -38 26 -62s-8.66699 -44.667 -26 -62
s-38 -26 -62 -26zM288 892c-18.667 0 -34.667 -6.66699 -48 -20s-20 -29.333 -20 -48s6.66699 -34.667 20 -48s29.333 -20 48 -20s34.667 6.66699 48 20s20 29.333 20 48s-6.66699 34.667 -20 48s-29.333 20 -48 20z" />
    <glyph glyph-name="AE" unicode="&#xc6;" horiz-adv-x="852" 
d="M155 274l-145 -274h-22l378 714h469v-20h-392v-312h360v-20h-360v-342h392v-20h-412v274h-268zM376 696l-211 -402h258v402h-47z" />
    <glyph glyph-name="Ccedilla" unicode="&#xc7;" horiz-adv-x="685" 
d="M626 500c-4.66699 55.333 -31.332 104.335 -79.999 147.002s-110.334 64 -185.001 64c-106.667 0 -186 -37.5 -238 -112.5s-78 -157.5 -78 -247.5c0 -96 27.333 -178 82 -246s128.334 -102 221.001 -102c82.667 0 149.5 25.5 200.5 76.5s82.167 117.833 93.5 200.5h20
c-12.667 -89.333 -45.834 -161.166 -99.501 -215.499s-123.5 -81.5 -209.5 -81.5l-29 -39c6 1.33301 11.5 2.66602 16.5 3.99902s10.5 2 16.5 2c22 0 40 -4.83301 54 -14.5s21 -24.834 21 -45.501c0 -27.333 -9 -46.333 -27 -57s-41.667 -16 -71 -16
c-15.333 0 -31.333 2.33301 -48 7s-28 8 -34 10l9 19c19.333 -6.66699 33.833 -11 43.5 -13s19.5 -3 29.5 -3c21.333 0 39.666 4 54.999 12s23 21.667 23 41c0 12 -6.16699 21.667 -18.5 29s-24.5 11 -36.5 11c-21.333 0 -39.333 -4.33301 -54 -13l-15 10l44 57
c-90.667 0 -164.5 34.667 -221.5 104s-85.5 157 -85.5 263c0 100.667 27.833 189.167 83.5 265.5s139.834 114.5 252.501 114.5c86 0 155 -25.333 207 -76s78 -102.334 78 -155.001h-20z" />
    <glyph glyph-name="Egrave" unicode="&#xc8;" horiz-adv-x="537" 
d="M74 20h458v-20h-478v714h474v-20h-454v-312h427v-20h-427v-342zM166 909h29l125 -144h-15z" />
    <glyph glyph-name="Eacute" unicode="&#xc9;" horiz-adv-x="537" 
d="M74 20h458v-20h-478v714h474v-20h-454v-312h427v-20h-427v-342zM375 909l-146 -144h-15l132 144h29z" />
    <glyph glyph-name="Ecircumflex" unicode="&#xca;" horiz-adv-x="537" 
d="M74 20h458v-20h-478v714h474v-20h-454v-312h427v-20h-427v-342zM370 770l-103 123l-99 -123h-20l113 139h15l114 -139h-20z" />
    <glyph glyph-name="Edieresis" unicode="&#xcb;" horiz-adv-x="537" 
d="M74 20h458v-20h-478v714h474v-20h-454v-312h427v-20h-427v-342zM181 768v81h20v-81h-20zM337 768v81h20v-81h-20z" />
    <glyph glyph-name="Igrave" unicode="&#xcc;" horiz-adv-x="128" 
d="M54 714h20v-714h-20v714zM-39 909h29l125 -144h-15z" />
    <glyph glyph-name="Iacute" unicode="&#xcd;" horiz-adv-x="128" 
d="M54 714h20v-714h-20v714zM170 909l-146 -144h-15l132 144h29z" />
    <glyph glyph-name="Icircumflex" unicode="&#xce;" horiz-adv-x="128" 
d="M54 714h20v-714h-20v714zM165 770l-103 123l-99 -123h-20l113 139h15l114 -139h-20z" />
    <glyph glyph-name="Idieresis" unicode="&#xcf;" horiz-adv-x="128" 
d="M54 714h20v-714h-20v714zM-24 768v81h20v-81h-20zM132 768v81h20v-81h-20z" />
    <glyph glyph-name="Ntilde" unicode="&#xd1;" horiz-adv-x="648" 
d="M54 714h30l488 -689l2 689h20v-714h-30l-488 689l-2 -689h-20v714zM192 780c0 18.667 7.16797 36.501 21.501 53.501s29.833 25.5 46.5 25.5c14 0 36.5 -9.66699 67.5 -29s50.833 -29 59.5 -29c14.667 0 26.5 5.5 35.5 16.5s13.5 23.833 13.5 38.5h20
c0 -20.667 -6 -38.334 -18 -53.001s-29 -22 -51 -22c-16 0 -38.167 9.66699 -66.5 29s-48.5 29 -60.5 29c-12.667 0 -23.834 -6.5 -33.501 -19.5s-14.5 -26.167 -14.5 -39.5h-20z" />
    <glyph glyph-name="Ograve" unicode="&#xd2;" horiz-adv-x="721" 
d="M361 3c94.667 0 169.834 32.833 225.501 98.5s83.5 150.834 83.5 255.501s-27.833 189.834 -83.5 255.501s-130.834 98.5 -225.501 98.5s-169.834 -32.833 -225.501 -98.5s-83.5 -150.834 -83.5 -255.501s27.833 -189.834 83.5 -255.501s130.834 -98.5 225.501 -98.5z
M361 731c103.333 0 184 -35.667 242 -107s87 -160.333 87 -267s-29 -195.667 -87 -267s-138.667 -107 -242 -107s-184 35.667 -242 107s-87 160.333 -87 267s29 195.667 87 267s138.667 107 242 107zM258 909h29l125 -144h-15z" />
    <glyph glyph-name="Oacute" unicode="&#xd3;" horiz-adv-x="721" 
d="M361 3c94.667 0 169.834 32.833 225.501 98.5s83.5 150.834 83.5 255.501s-27.833 189.834 -83.5 255.501s-130.834 98.5 -225.501 98.5s-169.834 -32.833 -225.501 -98.5s-83.5 -150.834 -83.5 -255.501s27.833 -189.834 83.5 -255.501s130.834 -98.5 225.501 -98.5z
M361 731c103.333 0 184 -35.667 242 -107s87 -160.333 87 -267s-29 -195.667 -87 -267s-138.667 -107 -242 -107s-184 35.667 -242 107s-87 160.333 -87 267s29 195.667 87 267s138.667 107 242 107zM467 909l-146 -144h-15l132 144h29z" />
    <glyph glyph-name="Ocircumflex" unicode="&#xd4;" horiz-adv-x="721" 
d="M361 3c94.667 0 169.834 32.833 225.501 98.5s83.5 150.834 83.5 255.501s-27.833 189.834 -83.5 255.501s-130.834 98.5 -225.501 98.5s-169.834 -32.833 -225.501 -98.5s-83.5 -150.834 -83.5 -255.501s27.833 -189.834 83.5 -255.501s130.834 -98.5 225.501 -98.5z
M361 731c103.333 0 184 -35.667 242 -107s87 -160.333 87 -267s-29 -195.667 -87 -267s-138.667 -107 -242 -107s-184 35.667 -242 107s-87 160.333 -87 267s29 195.667 87 267s138.667 107 242 107zM462 770l-103 123l-99 -123h-20l113 139h15l114 -139h-20z" />
    <glyph glyph-name="Otilde" unicode="&#xd5;" horiz-adv-x="721" 
d="M361 3c94.667 0 169.834 32.833 225.501 98.5s83.5 150.834 83.5 255.501s-27.833 189.834 -83.5 255.501s-130.834 98.5 -225.501 98.5s-169.834 -32.833 -225.501 -98.5s-83.5 -150.834 -83.5 -255.501s27.833 -189.834 83.5 -255.501s130.834 -98.5 225.501 -98.5z
M361 731c103.333 0 184 -35.667 242 -107s87 -160.333 87 -267s-29 -195.667 -87 -267s-138.667 -107 -242 -107s-184 35.667 -242 107s-87 160.333 -87 267s29 195.667 87 267s138.667 107 242 107zM229 780c0 18.667 7.16797 36.501 21.501 53.501s29.833 25.5 46.5 25.5
c14 0 36.5 -9.66699 67.5 -29s50.833 -29 59.5 -29c14.667 0 26.5 5.5 35.5 16.5s13.5 23.833 13.5 38.5h20c0 -20.667 -6 -38.334 -18 -53.001s-29 -22 -51 -22c-16 0 -38.167 9.66699 -66.5 29s-48.5 29 -60.5 29c-12.667 0 -23.834 -6.5 -33.501 -19.5
s-14.5 -26.167 -14.5 -39.5h-20z" />
    <glyph glyph-name="Odieresis" unicode="&#xd6;" horiz-adv-x="721" 
d="M361 3c94.667 0 169.834 32.833 225.501 98.5s83.5 150.834 83.5 255.501s-27.833 189.834 -83.5 255.501s-130.834 98.5 -225.501 98.5s-169.834 -32.833 -225.501 -98.5s-83.5 -150.834 -83.5 -255.501s27.833 -189.834 83.5 -255.501s130.834 -98.5 225.501 -98.5z
M361 731c103.333 0 184 -35.667 242 -107s87 -160.333 87 -267s-29 -195.667 -87 -267s-138.667 -107 -242 -107s-184 35.667 -242 107s-87 160.333 -87 267s29 195.667 87 267s138.667 107 242 107zM273 768v81h20v-81h-20zM429 768v81h20v-81h-20z" />
    <glyph glyph-name="Oslash" unicode="&#xd8;" horiz-adv-x="721" 
d="M581 617c-26.667 30 -58.668 53.168 -96.001 69.501s-78.666 24.5 -123.999 24.5c-94.667 0 -169.834 -32.833 -225.501 -98.5s-83.5 -150.834 -83.5 -255.501c0 -48.667 6.33301 -93.5 19 -134.5s31.334 -77.167 56.001 -108.5zM139.999 99.001
c26.667 -31.333 58.332 -55.167 94.999 -71.5s78.667 -24.5 126 -24.5c94.667 0 169.834 32.833 225.501 98.5s83.5 150.834 83.5 255.501c0 99.333 -25.333 180.666 -76 243.999zM112.997 98c-26 32.667 -46.001 71.5 -60.001 116.5s-21 92.5 -21 142.5
c0 106.667 29 195.667 87 267s138.667 107 242 107c50 0 94.333 -8.5 133 -25.5s72.334 -41.5 101.001 -73.5l59 65l15 -12l-61 -68c54.667 -68 82 -154.667 82 -260c0 -106.667 -29 -195.667 -87 -267s-138.667 -107 -242 -107c-49.333 0 -93.833 8.66699 -133.5 26
s-73.5 42.333 -101.5 75l-71 -79l-15 12z" />
    <glyph glyph-name="Ugrave" unicode="&#xd9;" horiz-adv-x="632" 
d="M558 714h20v-448c0 -93.333 -22.5 -163.833 -67.5 -211.5s-109.833 -71.5 -194.5 -71.5c-174.667 0 -262 94.333 -262 283v448h20v-448c0 -86 20 -151.333 60 -196s100.667 -67 182 -67s142 22.167 182 66.5s60 109.833 60 196.5v448zM213 909h29l125 -144h-15z" />
    <glyph glyph-name="Uacute" unicode="&#xda;" horiz-adv-x="632" 
d="M558 714h20v-448c0 -93.333 -22.5 -163.833 -67.5 -211.5s-109.833 -71.5 -194.5 -71.5c-174.667 0 -262 94.333 -262 283v448h20v-448c0 -86 20 -151.333 60 -196s100.667 -67 182 -67s142 22.167 182 66.5s60 109.833 60 196.5v448zM422 909l-146 -144h-15l132 144h29z
" />
    <glyph glyph-name="Ucircumflex" unicode="&#xdb;" horiz-adv-x="632" 
d="M558 714h20v-448c0 -93.333 -22.5 -163.833 -67.5 -211.5s-109.833 -71.5 -194.5 -71.5c-174.667 0 -262 94.333 -262 283v448h20v-448c0 -86 20 -151.333 60 -196s100.667 -67 182 -67s142 22.167 182 66.5s60 109.833 60 196.5v448zM417 770l-103 123l-99 -123h-20
l113 139h15l114 -139h-20z" />
    <glyph glyph-name="Udieresis" unicode="&#xdc;" horiz-adv-x="632" 
d="M558 714h20v-448c0 -93.333 -22.5 -163.833 -67.5 -211.5s-109.833 -71.5 -194.5 -71.5c-174.667 0 -262 94.333 -262 283v448h20v-448c0 -86 20 -151.333 60 -196s100.667 -67 182 -67s142 22.167 182 66.5s60 109.833 60 196.5v448zM228 768v81h20v-81h-20zM384 768v81
h20v-81h-20z" />
    <glyph glyph-name="germandbls" unicode="&#xdf;" horiz-adv-x="481" 
d="M202 407c58 0 104.667 11.835 140 35.502s53 63.167 53 118.5c0 44.667 -15.5 80 -46.5 106s-70.167 39 -117.5 39c-40 0 -76 -10.333 -108 -31s-48 -61.334 -48 -122.001v-553h-20v556c0 58.667 17 101.667 51 129s75.667 41 125 41c50.667 0 94 -14.833 130 -44.5
s54 -69.834 54 -120.501c0 -42.667 -10.667 -78.5 -32 -107.5s-53 -46.833 -95 -53.5c55.333 -6 96.5 -25.5 123.5 -58.5s40.5 -76.833 40.5 -131.5c0 -68 -19.167 -120 -57.5 -156s-102.5 -54 -192.5 -54v20c75.333 0 132.5 13.667 171.5 41s58.5 77 58.5 149
c0 68 -19.667 114.5 -59 139.5s-96.333 37.5 -171 37.5v20z" />
    <glyph glyph-name="agrave" unicode="&#xe0;" horiz-adv-x="481" 
d="M400 302c-10 -13.333 -28.832 -23.5 -56.499 -30.5s-75.834 -10.5 -144.501 -10.5c-48 0 -86.167 -9.5 -114.5 -28.5s-42.5 -54.167 -42.5 -105.5c0 -33.333 12 -61.5 36 -84.5s62 -34.5 114 -34.5c64 0 114.667 19.667 152 59s56 86 56 140v95zM54.001 355
c0 50.667 17.167 91.833 51.5 123.5s82.5 47.5 144.5 47.5c50.667 0 91.667 -11.333 123 -34s47 -60.334 47 -113.001v-327c0 -12.667 3.83301 -21.5 11.5 -26.5s17.5 -7.5 29.5 -7.5h12c5.33301 1.33301 9.33301 2 12 2v-20h-15c-28.667 0 -47.5 4.16699 -56.5 12.5
s-13.5 20.833 -13.5 37.5v67c-12 -35.333 -36.667 -65.666 -74 -90.999s-81.333 -38 -132 -38c-52 0 -93.667 12 -125 36s-47 58.333 -47 103c0 57.333 16.667 97.333 50 120s75.666 34 126.999 34c78 0 131 4.66699 159 14s42 32.333 42 69c0 42 -9.66699 76.167 -29 102.5
s-59.666 39.5 -120.999 39.5c-54 0 -96.833 -13.167 -128.5 -39.5s-47.5 -63.5 -47.5 -111.5h-20zM138.001 708.999h29l125 -144h-15z" />
    <glyph glyph-name="aacute" unicode="&#xe1;" horiz-adv-x="481" 
d="M400 302c-10 -13.333 -28.832 -23.5 -56.499 -30.5s-75.834 -10.5 -144.501 -10.5c-48 0 -86.167 -9.5 -114.5 -28.5s-42.5 -54.167 -42.5 -105.5c0 -33.333 12 -61.5 36 -84.5s62 -34.5 114 -34.5c64 0 114.667 19.667 152 59s56 86 56 140v95zM54.001 355
c0 50.667 17.167 91.833 51.5 123.5s82.5 47.5 144.5 47.5c50.667 0 91.667 -11.333 123 -34s47 -60.334 47 -113.001v-327c0 -12.667 3.83301 -21.5 11.5 -26.5s17.5 -7.5 29.5 -7.5h12c5.33301 1.33301 9.33301 2 12 2v-20h-15c-28.667 0 -47.5 4.16699 -56.5 12.5
s-13.5 20.833 -13.5 37.5v67c-12 -35.333 -36.667 -65.666 -74 -90.999s-81.333 -38 -132 -38c-52 0 -93.667 12 -125 36s-47 58.333 -47 103c0 57.333 16.667 97.333 50 120s75.666 34 126.999 34c78 0 131 4.66699 159 14s42 32.333 42 69c0 42 -9.66699 76.167 -29 102.5
s-59.666 39.5 -120.999 39.5c-54 0 -96.833 -13.167 -128.5 -39.5s-47.5 -63.5 -47.5 -111.5h-20zM347.001 708.999l-146 -144h-15l132 144h29z" />
    <glyph glyph-name="acircumflex" unicode="&#xe2;" horiz-adv-x="481" 
d="M400 302c-10 -13.333 -28.832 -23.5 -56.499 -30.5s-75.834 -10.5 -144.501 -10.5c-48 0 -86.167 -9.5 -114.5 -28.5s-42.5 -54.167 -42.5 -105.5c0 -33.333 12 -61.5 36 -84.5s62 -34.5 114 -34.5c64 0 114.667 19.667 152 59s56 86 56 140v95zM54.001 355
c0 50.667 17.167 91.833 51.5 123.5s82.5 47.5 144.5 47.5c50.667 0 91.667 -11.333 123 -34s47 -60.334 47 -113.001v-327c0 -12.667 3.83301 -21.5 11.5 -26.5s17.5 -7.5 29.5 -7.5h12c5.33301 1.33301 9.33301 2 12 2v-20h-15c-28.667 0 -47.5 4.16699 -56.5 12.5
s-13.5 20.833 -13.5 37.5v67c-12 -35.333 -36.667 -65.666 -74 -90.999s-81.333 -38 -132 -38c-52 0 -93.667 12 -125 36s-47 58.333 -47 103c0 57.333 16.667 97.333 50 120s75.666 34 126.999 34c78 0 131 4.66699 159 14s42 32.333 42 69c0 42 -9.66699 76.167 -29 102.5
s-59.666 39.5 -120.999 39.5c-54 0 -96.833 -13.167 -128.5 -39.5s-47.5 -63.5 -47.5 -111.5h-20zM342.001 569.999l-103 123l-99 -123h-20l113 139h15l114 -139h-20z" />
    <glyph glyph-name="atilde" unicode="&#xe3;" horiz-adv-x="481" 
d="M400 302c-10 -13.333 -28.832 -23.5 -56.499 -30.5s-75.834 -10.5 -144.501 -10.5c-48 0 -86.167 -9.5 -114.5 -28.5s-42.5 -54.167 -42.5 -105.5c0 -33.333 12 -61.5 36 -84.5s62 -34.5 114 -34.5c64 0 114.667 19.667 152 59s56 86 56 140v95zM54.001 355
c0 50.667 17.167 91.833 51.5 123.5s82.5 47.5 144.5 47.5c50.667 0 91.667 -11.333 123 -34s47 -60.334 47 -113.001v-327c0 -12.667 3.83301 -21.5 11.5 -26.5s17.5 -7.5 29.5 -7.5h12c5.33301 1.33301 9.33301 2 12 2v-20h-15c-28.667 0 -47.5 4.16699 -56.5 12.5
s-13.5 20.833 -13.5 37.5v67c-12 -35.333 -36.667 -65.666 -74 -90.999s-81.333 -38 -132 -38c-52 0 -93.667 12 -125 36s-47 58.333 -47 103c0 57.333 16.667 97.333 50 120s75.666 34 126.999 34c78 0 131 4.66699 159 14s42 32.333 42 69c0 42 -9.66699 76.167 -29 102.5
s-59.666 39.5 -120.999 39.5c-54 0 -96.833 -13.167 -128.5 -39.5s-47.5 -63.5 -47.5 -111.5h-20zM109.001 579.999c0 18.667 7.16797 36.501 21.501 53.501s29.833 25.5 46.5 25.5c14 0 36.5 -9.66699 67.5 -29s50.833 -29 59.5 -29c14.667 0 26.5 5.5 35.5 16.5
s13.5 23.833 13.5 38.5h20c0 -20.667 -6 -38.334 -18 -53.001s-29 -22 -51 -22c-16 0 -38.167 9.66699 -66.5 29s-48.5 29 -60.5 29c-12.667 0 -23.834 -6.5 -33.501 -19.5s-14.5 -26.167 -14.5 -39.5h-20z" />
    <glyph glyph-name="adieresis" unicode="&#xe4;" horiz-adv-x="481" 
d="M400 302c-10 -13.333 -28.832 -23.5 -56.499 -30.5s-75.834 -10.5 -144.501 -10.5c-48 0 -86.167 -9.5 -114.5 -28.5s-42.5 -54.167 -42.5 -105.5c0 -33.333 12 -61.5 36 -84.5s62 -34.5 114 -34.5c64 0 114.667 19.667 152 59s56 86 56 140v95zM54.001 355
c0 50.667 17.167 91.833 51.5 123.5s82.5 47.5 144.5 47.5c50.667 0 91.667 -11.333 123 -34s47 -60.334 47 -113.001v-327c0 -12.667 3.83301 -21.5 11.5 -26.5s17.5 -7.5 29.5 -7.5h12c5.33301 1.33301 9.33301 2 12 2v-20h-15c-28.667 0 -47.5 4.16699 -56.5 12.5
s-13.5 20.833 -13.5 37.5v67c-12 -35.333 -36.667 -65.666 -74 -90.999s-81.333 -38 -132 -38c-52 0 -93.667 12 -125 36s-47 58.333 -47 103c0 57.333 16.667 97.333 50 120s75.666 34 126.999 34c78 0 131 4.66699 159 14s42 32.333 42 69c0 42 -9.66699 76.167 -29 102.5
s-59.666 39.5 -120.999 39.5c-54 0 -96.833 -13.167 -128.5 -39.5s-47.5 -63.5 -47.5 -111.5h-20zM153.001 567.999v81h20v-81h-20zM309.001 567.999v81h20v-81h-20z" />
    <glyph glyph-name="aring" unicode="&#xe5;" horiz-adv-x="481" 
d="M400 302c-10 -13.333 -28.832 -23.5 -56.499 -30.5s-75.834 -10.5 -144.501 -10.5c-48 0 -86.167 -9.5 -114.5 -28.5s-42.5 -54.167 -42.5 -105.5c0 -33.333 12 -61.5 36 -84.5s62 -34.5 114 -34.5c64 0 114.667 19.667 152 59s56 86 56 140v95zM54.001 355
c0 50.667 17.167 91.833 51.5 123.5s82.5 47.5 144.5 47.5c50.667 0 91.667 -11.333 123 -34s47 -60.334 47 -113.001v-327c0 -12.667 3.83301 -21.5 11.5 -26.5s17.5 -7.5 29.5 -7.5h12c5.33301 1.33301 9.33301 2 12 2v-20h-15c-28.667 0 -47.5 4.16699 -56.5 12.5
s-13.5 20.833 -13.5 37.5v67c-12 -35.333 -36.667 -65.666 -74 -90.999s-81.333 -38 -132 -38c-52 0 -93.667 12 -125 36s-47 58.333 -47 103c0 57.333 16.667 97.333 50 120s75.666 34 126.999 34c78 0 131 4.66699 159 14s42 32.333 42 69c0 42 -9.66699 76.167 -29 102.5
s-59.666 39.5 -120.999 39.5c-54 0 -96.833 -13.167 -128.5 -39.5s-47.5 -63.5 -47.5 -111.5h-20zM241.001 585.999c-24 0 -44.667 8.66699 -62 26s-26 38 -26 62s8.66699 44.667 26 62s38 26 62 26s44.667 -8.66699 62 -26s26 -38 26 -62s-8.66699 -44.667 -26 -62
s-38 -26 -62 -26zM241.001 741.999c-18.667 0 -34.667 -6.66699 -48 -20s-20 -29.333 -20 -48s6.66699 -34.667 20 -48s29.333 -20 48 -20s34.667 6.66699 48 20s20 29.333 20 48s-6.66699 34.667 -20 48s-29.333 20 -48 20z" />
    <glyph glyph-name="ae" unicode="&#xe6;" horiz-adv-x="889" 
d="M837 273c0 67.333 -17.168 123 -51.501 167s-83.833 66 -148.5 66c-63.333 0 -113.666 -21 -150.999 -63s-56 -98.667 -56 -170h407zM409.999 302c-10 -13.333 -28.832 -23.5 -56.499 -30.5s-75.834 -10.5 -144.501 -10.5c-48 0 -86.167 -9.5 -114.5 -28.5
s-42.5 -54.167 -42.5 -105.5c0 -33.333 12 -61.5 36 -84.5s62 -34.5 114 -34.5c64 0 114.667 19.667 152 59s56 86 56 140v95zM64 355c0 50.667 17.165 91.833 51.498 123.5s82.5 47.5 144.5 47.5c51.333 0 92.5 -11.5 123.5 -34.5s46.5 -61.5 46.5 -115.5
c15.333 44.667 40.833 80.834 76.5 108.501s79.167 41.5 130.5 41.5c73.333 0 128.333 -25.833 165 -77.5s55 -116.834 55 -195.501h-427c0 -73.333 16.833 -132.5 50.5 -177.5s85.167 -67.5 154.5 -67.5c52.667 0 97.334 14.833 134.001 44.5s58.334 71.5 65.001 125.5h20
c-5.33301 -56.667 -28 -102.5 -68 -137.5s-90.333 -52.5 -151 -52.5c-55.333 0 -101 14.333 -137 43s-61 70 -75 124c-10.667 -51.333 -36.167 -92 -76.5 -122s-87.833 -45 -142.5 -45c-52 0 -93.667 12 -125 36s-47 58.333 -47 103c0 57.333 16.667 97.333 50 120
s75.666 34 126.999 34c78 0 131 4.66699 159 14s42 32.333 42 69c0 42 -9.66699 76.167 -29 102.5s-59.666 39.5 -120.999 39.5c-54 0 -96.833 -13.167 -128.5 -39.5s-47.5 -63.5 -47.5 -111.5h-20z" />
    <glyph glyph-name="ccedilla" unicode="&#xe7;" 
d="M469 175c-5.33301 -56.667 -26.501 -101.83 -63.501 -135.497s-83.833 -50.5 -140.5 -50.5l-33 -45c6 1.33301 11.5 2.66602 16.5 3.99902s10.5 2 16.5 2c22 0 40 -4.83301 54 -14.5s21 -24.834 21 -45.501c0 -27.333 -9 -46.333 -27 -57s-41.667 -16 -71 -16
c-15.333 0 -31.333 2.33301 -48 7s-28 8 -34 10l9 19c19.333 -6.66699 33.833 -11 43.5 -13s19.5 -3 29.5 -3c21.333 0 39.666 4 54.999 12s23 21.667 23 41c0 12 -6.16699 21.667 -18.5 29s-24.5 11 -36.5 11c-21.333 0 -39.333 -4.33301 -54 -13l-15 10l49 63
c-65.333 0 -117.333 24.833 -156 74.5s-58 110.167 -58 181.5c0 80 20.333 146.667 61 200s100.334 80 179.001 80c50 0 93.333 -14.833 130 -44.5s58 -70.834 64 -123.501h-20c-7.33301 48 -27.166 84.667 -59.499 110s-70.5 38 -114.5 38
c-75.333 0 -130.833 -25.833 -166.5 -77.5s-53.5 -112.5 -53.5 -182.5c0 -66.667 18.333 -123 55 -169s87.667 -69 153 -69c52 0 96.667 15.333 134 46s56 71 56 121h20z" />
    <glyph glyph-name="egrave" unicode="&#xe8;" 
d="M455 273c0 67.333 -17.668 123 -53.001 167s-85.333 66 -150 66c-57.333 0 -106.166 -21.333 -146.499 -64s-60.5 -99 -60.5 -169h410zM44.999 253c0 -74.667 16.3311 -134.168 48.998 -178.501s84 -66.5 154 -66.5c54 0 98.833 14.667 134.5 44
s57.834 71.333 66.501 126h20c-6.66699 -58 -30.167 -104.167 -70.5 -138.5s-89.833 -51.5 -148.5 -51.5c-76 0 -132.5 24.5 -169.5 73.5s-55.5 114.167 -55.5 195.5c0 82 22 147.333 66 196s97 73 159 73c74.667 0 130.834 -26.167 168.501 -78.5
s56.5 -117.166 56.5 -194.499h-430zM146.997 708.999h29l125 -144h-15z" />
    <glyph glyph-name="eacute" unicode="&#xe9;" 
d="M455 273c0 67.333 -17.668 123 -53.001 167s-85.333 66 -150 66c-57.333 0 -106.166 -21.333 -146.499 -64s-60.5 -99 -60.5 -169h410zM44.999 253c0 -74.667 16.3311 -134.168 48.998 -178.501s84 -66.5 154 -66.5c54 0 98.833 14.667 134.5 44
s57.834 71.333 66.501 126h20c-6.66699 -58 -30.167 -104.167 -70.5 -138.5s-89.833 -51.5 -148.5 -51.5c-76 0 -132.5 24.5 -169.5 73.5s-55.5 114.167 -55.5 195.5c0 82 22 147.333 66 196s97 73 159 73c74.667 0 130.834 -26.167 168.501 -78.5
s56.5 -117.166 56.5 -194.499h-430zM355.997 708.999l-146 -144h-15l132 144h29z" />
    <glyph glyph-name="ecircumflex" unicode="&#xea;" 
d="M455 273c0 67.333 -17.668 123 -53.001 167s-85.333 66 -150 66c-57.333 0 -106.166 -21.333 -146.499 -64s-60.5 -99 -60.5 -169h410zM44.999 253c0 -74.667 16.3311 -134.168 48.998 -178.501s84 -66.5 154 -66.5c54 0 98.833 14.667 134.5 44
s57.834 71.333 66.501 126h20c-6.66699 -58 -30.167 -104.167 -70.5 -138.5s-89.833 -51.5 -148.5 -51.5c-76 0 -132.5 24.5 -169.5 73.5s-55.5 114.167 -55.5 195.5c0 82 22 147.333 66 196s97 73 159 73c74.667 0 130.834 -26.167 168.501 -78.5
s56.5 -117.166 56.5 -194.499h-430zM350.997 569.999l-103 123l-99 -123h-20l113 139h15l114 -139h-20z" />
    <glyph glyph-name="edieresis" unicode="&#xeb;" 
d="M455 273c0 67.333 -17.668 123 -53.001 167s-85.333 66 -150 66c-57.333 0 -106.166 -21.333 -146.499 -64s-60.5 -99 -60.5 -169h410zM44.999 253c0 -74.667 16.3311 -134.168 48.998 -178.501s84 -66.5 154 -66.5c54 0 98.833 14.667 134.5 44
s57.834 71.333 66.501 126h20c-6.66699 -58 -30.167 -104.167 -70.5 -138.5s-89.833 -51.5 -148.5 -51.5c-76 0 -132.5 24.5 -169.5 73.5s-55.5 114.167 -55.5 195.5c0 82 22 147.333 66 196s97 73 159 73c74.667 0 130.834 -26.167 168.501 -78.5
s56.5 -117.166 56.5 -194.499h-430zM161.997 567.999v81h20v-81h-20zM317.997 567.999v81h20v-81h-20z" />
    <glyph glyph-name="igrave" unicode="&#xec;" horiz-adv-x="130" 
d="M55 0v514h20v-514h-20zM-38 709h29l125 -144h-15z" />
    <glyph glyph-name="iacute" unicode="&#xed;" horiz-adv-x="130" 
d="M55 0v514h20v-514h-20zM171 709l-146 -144h-15l132 144h29z" />
    <glyph glyph-name="icircumflex" unicode="&#xee;" horiz-adv-x="130" 
d="M55 0v514h20v-514h-20zM166 570l-103 123l-99 -123h-20l113 139h15l114 -139h-20z" />
    <glyph glyph-name="idieresis" unicode="&#xef;" horiz-adv-x="130" 
d="M55 0v514h20v-514h-20zM-23 568v81h20v-81h-20zM133 568v81h20v-81h-20z" />
    <glyph glyph-name="ntilde" unicode="&#xf1;" 
d="M55 514l19.999 0.000976562v-127c11.333 41.333 33 74.833 65 100.5s72.667 38.5 122 38.5c54.667 0 98.834 -16.167 132.501 -48.5s50.5 -77.833 50.5 -136.5v-341h-20v338c0 55.333 -15.5 97.166 -46.5 125.499s-69.833 42.5 -116.5 42.5
c-59.333 0 -105.333 -20.5 -138 -61.5s-49 -92.167 -49 -153.5v-291h-20v514zM117.999 580.001c0 18.667 7.16797 36.501 21.501 53.501s29.833 25.5 46.5 25.5c14 0 36.5 -9.66699 67.5 -29s50.833 -29 59.5 -29c14.667 0 26.5 5.5 35.5 16.5s13.5 23.833 13.5 38.5h20
c0 -20.667 -6 -38.334 -18 -53.001s-29 -22 -51 -22c-16 0 -38.167 9.66699 -66.5 29s-48.5 29 -60.5 29c-12.667 0 -23.834 -6.5 -33.501 -19.5s-14.5 -26.167 -14.5 -39.5h-20z" />
    <glyph glyph-name="ograve" unicode="&#xf2;" horiz-adv-x="519" 
d="M260 526c72 0 128.5 -26.167 169.5 -78.5s61.5 -115.833 61.5 -190.5s-20.667 -138.167 -62 -190.5s-98 -78.5 -170 -78.5s-128.5 26 -169.5 78s-61.5 115.667 -61.5 191c0 74.667 20.5 138.167 61.5 190.5s97.833 78.5 170.5 78.5zM260 8
c66 0 117.667 24.1699 155 72.5029s56 107.166 56 176.499c0 68 -18.833 126.5 -56.5 175.5s-89.167 73.5 -154.5 73.5c-66 0 -117.833 -24.333 -155.5 -73s-56.5 -107.334 -56.5 -176.001s18.833 -127.334 56.5 -176.001s89.5 -73 155.5 -73zM157 709.003h29l125 -144h-15z
" />
    <glyph glyph-name="oacute" unicode="&#xf3;" horiz-adv-x="519" 
d="M260 526c72 0 128.5 -26.167 169.5 -78.5s61.5 -115.833 61.5 -190.5s-20.667 -138.167 -62 -190.5s-98 -78.5 -170 -78.5s-128.5 26 -169.5 78s-61.5 115.667 -61.5 191c0 74.667 20.5 138.167 61.5 190.5s97.833 78.5 170.5 78.5zM260 8
c66 0 117.667 24.1699 155 72.5029s56 107.166 56 176.499c0 68 -18.833 126.5 -56.5 175.5s-89.167 73.5 -154.5 73.5c-66 0 -117.833 -24.333 -155.5 -73s-56.5 -107.334 -56.5 -176.001s18.833 -127.334 56.5 -176.001s89.5 -73 155.5 -73zM366 709.003l-146 -144h-15
l132 144h29z" />
    <glyph glyph-name="ocircumflex" unicode="&#xf4;" horiz-adv-x="519" 
d="M260 526c72 0 128.5 -26.167 169.5 -78.5s61.5 -115.833 61.5 -190.5s-20.667 -138.167 -62 -190.5s-98 -78.5 -170 -78.5s-128.5 26 -169.5 78s-61.5 115.667 -61.5 191c0 74.667 20.5 138.167 61.5 190.5s97.833 78.5 170.5 78.5zM260 8
c66 0 117.667 24.1699 155 72.5029s56 107.166 56 176.499c0 68 -18.833 126.5 -56.5 175.5s-89.167 73.5 -154.5 73.5c-66 0 -117.833 -24.333 -155.5 -73s-56.5 -107.334 -56.5 -176.001s18.833 -127.334 56.5 -176.001s89.5 -73 155.5 -73zM361 570.003l-103 123
l-99 -123h-20l113 139h15l114 -139h-20z" />
    <glyph glyph-name="otilde" unicode="&#xf5;" horiz-adv-x="519" 
d="M260 526c72 0 128.5 -26.167 169.5 -78.5s61.5 -115.833 61.5 -190.5s-20.667 -138.167 -62 -190.5s-98 -78.5 -170 -78.5s-128.5 26 -169.5 78s-61.5 115.667 -61.5 191c0 74.667 20.5 138.167 61.5 190.5s97.833 78.5 170.5 78.5zM260 8
c66 0 117.667 24.1699 155 72.5029s56 107.166 56 176.499c0 68 -18.833 126.5 -56.5 175.5s-89.167 73.5 -154.5 73.5c-66 0 -117.833 -24.333 -155.5 -73s-56.5 -107.334 -56.5 -176.001s18.833 -127.334 56.5 -176.001s89.5 -73 155.5 -73zM128 580.003
c0 18.667 7.16797 36.501 21.501 53.501s29.833 25.5 46.5 25.5c14 0 36.5 -9.66699 67.5 -29s50.833 -29 59.5 -29c14.667 0 26.5 5.5 35.5 16.5s13.5 23.833 13.5 38.5h20c0 -20.667 -6 -38.334 -18 -53.001s-29 -22 -51 -22c-16 0 -38.167 9.66699 -66.5 29
s-48.5 29 -60.5 29c-12.667 0 -23.834 -6.5 -33.501 -19.5s-14.5 -26.167 -14.5 -39.5h-20z" />
    <glyph glyph-name="odieresis" unicode="&#xf6;" horiz-adv-x="519" 
d="M260 526c72 0 128.5 -26.167 169.5 -78.5s61.5 -115.833 61.5 -190.5s-20.667 -138.167 -62 -190.5s-98 -78.5 -170 -78.5s-128.5 26 -169.5 78s-61.5 115.667 -61.5 191c0 74.667 20.5 138.167 61.5 190.5s97.833 78.5 170.5 78.5zM260 8
c66 0 117.667 24.1699 155 72.5029s56 107.166 56 176.499c0 68 -18.833 126.5 -56.5 175.5s-89.167 73.5 -154.5 73.5c-66 0 -117.833 -24.333 -155.5 -73s-56.5 -107.334 -56.5 -176.001s18.833 -127.334 56.5 -176.001s89.5 -73 155.5 -73zM172 568.003v81h20v-81h-20z
M328 568.003v81h20v-81h-20z" />
    <glyph glyph-name="divide" unicode="&#xf7;" horiz-adv-x="600" 
d="M48 243v20h504v-20h-504zM259 465c0 11.333 4 21 12 29s17.667 12 29 12s21 -4 29 -12s12 -17.667 12 -29c0 -12.667 -3.16699 -22.667 -9.5 -30s-16.833 -11 -31.5 -11c-13.333 0 -23.5 3.83301 -30.5 11.5s-10.5 17.5 -10.5 29.5zM259 41c0 11.333 4 21 12 29
s17.667 12 29 12s21 -4 29 -12s12 -17.667 12 -29c0 -12.667 -3.16699 -22.667 -9.5 -30s-16.833 -11 -31.5 -11c-13.333 -0 -23.5 3.83301 -30.5 11.5s-10.5 17.5 -10.5 29.5z" />
    <glyph glyph-name="oslash" unicode="&#xf8;" horiz-adv-x="519" 
d="M412 434c-17.333 22.667 -39 40.335 -65 53.002s-55 19 -87 19c-66 0 -117.833 -24.333 -155.5 -73s-56.5 -107.334 -56.5 -176.001c0 -60.667 14.667 -113.334 44 -158.001zM104 83.001c18 -24 40 -42.5 66 -55.5s56 -19.5 90 -19.5c66 0 117.667 24.167 155 72.5
s56 107.166 56 176.499c0 29.333 -4 57.833 -12 85.5s-19.667 52.834 -35 75.501zM472 496.001l13.999 -14l-47 -49c34.667 -48 52 -106.667 52 -176c0 -74.667 -20.667 -138.167 -62 -190.5s-98 -78.5 -170 -78.5c-36 0 -68.167 6.83301 -96.5 20.5
s-52.833 33.167 -73.5 58.5l-57 -59l-14 14l60 62c-16 22.667 -28.333 49.167 -37 79.5s-13 61.5 -13 93.5c0 74.667 20.5 138.167 61.5 190.5s97.833 78.5 170.5 78.5c35.333 0 66.833 -6.5 94.5 -19.5s51.834 -32.167 72.501 -57.5z" />
    <glyph glyph-name="ugrave" unicode="&#xf9;" 
d="M445 0l-19.999 -0.000976562v127c-11.333 -41.333 -33 -74.833 -65 -100.5s-72.667 -38.5 -122 -38.5c-54.667 0 -98.834 16.167 -132.501 48.5s-50.5 77.833 -50.5 136.5v341h20v-338c0 -55.333 15.5 -97.166 46.5 -125.499s69.833 -42.5 116.5 -42.5
c59.333 0 105.333 20.5 138 61.5s49 92.167 49 153.5v291h20v-514zM147.001 708.999h29l125 -144h-15z" />
    <glyph glyph-name="uacute" unicode="&#xfa;" 
d="M445 0l-19.999 -0.000976562v127c-11.333 -41.333 -33 -74.833 -65 -100.5s-72.667 -38.5 -122 -38.5c-54.667 0 -98.834 16.167 -132.501 48.5s-50.5 77.833 -50.5 136.5v341h20v-338c0 -55.333 15.5 -97.166 46.5 -125.499s69.833 -42.5 116.5 -42.5
c59.333 0 105.333 20.5 138 61.5s49 92.167 49 153.5v291h20v-514zM356.001 708.999l-146 -144h-15l132 144h29z" />
    <glyph glyph-name="ucircumflex" unicode="&#xfb;" 
d="M445 0l-19.999 -0.000976562v127c-11.333 -41.333 -33 -74.833 -65 -100.5s-72.667 -38.5 -122 -38.5c-54.667 0 -98.834 16.167 -132.501 48.5s-50.5 77.833 -50.5 136.5v341h20v-338c0 -55.333 15.5 -97.166 46.5 -125.499s69.833 -42.5 116.5 -42.5
c59.333 0 105.333 20.5 138 61.5s49 92.167 49 153.5v291h20v-514zM351.001 569.999l-103 123l-99 -123h-20l113 139h15l114 -139h-20z" />
    <glyph glyph-name="udieresis" unicode="&#xfc;" 
d="M445 0l-19.999 -0.000976562v127c-11.333 -41.333 -33 -74.833 -65 -100.5s-72.667 -38.5 -122 -38.5c-54.667 0 -98.834 16.167 -132.501 48.5s-50.5 77.833 -50.5 136.5v341h20v-338c0 -55.333 15.5 -97.166 46.5 -125.499s69.833 -42.5 116.5 -42.5
c59.333 0 105.333 20.5 138 61.5s49 92.167 49 153.5v291h20v-514zM162.001 567.999v81h20v-81h-20zM318.001 567.999v81h20v-81h-20z" />
    <glyph glyph-name="ydieresis" unicode="&#xff;" horiz-adv-x="407" 
d="M398 514h21.001l-237 -619c-12 -31.333 -28.167 -51.166 -48.5 -59.499s-49.5 -12.5 -87.5 -12.5v20c38 0 64.667 3.66699 80 11s28.666 25.666 39.999 54.999l37 96l-215 509h22l204 -487zM116.001 590v81h20v-81h-20zM272.001 590v81h20v-81h-20z" />
    <glyph glyph-name="dotlessi" unicode="&#x131;" horiz-adv-x="130" 
d="M55 0v514h20v-514h-20z" />
    <glyph glyph-name="OE" unicode="&#x152;" horiz-adv-x="1019" 
d="M944 382l-0.000976562 -20h-366v-342h414v-20h-434v65c-26.667 -27.333 -57 -47.833 -91 -61.5s-69 -20.5 -105 -20.5c-104 0 -185 35.333 -243 106s-87 158.667 -87 264c0 106 28.833 195.5 86.5 268.5s138.834 109.5 243.501 109.5c42 0 78.667 -6.16699 110 -18.5
s60 -33.5 86 -63.5v65h434v-20h-414v-312h366zM557.999 623c-30 31.333 -59.833 53.833 -89.5 67.5s-65.167 20.5 -106.5 20.5c-94.667 0 -170 -32.5 -226 -97.5s-84 -151.833 -84 -260.5c0 -103.333 27.833 -187.5 83.5 -252.5s131.167 -97.5 226.5 -97.5
c35.333 0 70 7.16699 104 21.5s64.667 37.5 92 69.5v529z" />
    <glyph glyph-name="oe" unicode="&#x153;" horiz-adv-x="890" 
d="M836 273c0 69.333 -15.332 125.5 -45.999 168.5s-78.334 64.5 -143.001 64.5c-65.333 0 -113.833 -21.167 -145.5 -63.5s-47.5 -98.833 -47.5 -169.5h382zM243.001 506c-64.667 0 -112.667 -23.999 -144 -71.999s-47 -107 -47 -177s15.667 -129 47 -177
s79.333 -72 144 -72c68 0 116.833 23.167 146.5 69.5s44.5 106.166 44.5 179.499c0 72 -15.167 131.5 -45.5 178.5s-78.833 70.5 -145.5 70.5zM454.001 253.001c0 -80.667 15.667 -141.667 47 -183s79.666 -62 144.999 -62c54.667 0 96.667 15.167 126 45.5
s48.333 70.166 57 119.499h20c-9.33301 -57.333 -31.166 -102.5 -65.499 -135.5s-80.166 -49.5 -137.499 -49.5c-56.667 0 -102.334 14.667 -137.001 44s-56 71 -64 125c-12.667 -53.333 -35.667 -94.833 -69 -124.5s-77.666 -44.5 -132.999 -44.5
c-70.667 0 -123.5 26.167 -158.5 78.5s-52.5 115.833 -52.5 190.5s17.167 138.167 51.5 190.5s87.5 78.5 159.5 78.5c54 0 98.833 -16.167 134.5 -48.5s57.167 -74.833 64.5 -127.5c10.667 53.333 32.667 96 66 128s79.333 48 138 48c69.333 0 121.666 -24.667 156.999 -74
s53 -110.666 53 -183.999v-15h-402z" />
    <glyph glyph-name="Ydieresis" unicode="&#x178;" horiz-adv-x="538" 
d="M544 714h24l-289 -413v-301h-20v301l-289 413h25l274 -392zM181 768v81h20v-81h-20zM337 768v81h20v-81h-20z" />
    <glyph glyph-name="florin" unicode="&#x192;" horiz-adv-x="556" 
d="M189 -55c-6.66699 -36 -20.165 -65.334 -40.498 -88.001s-48.833 -34 -85.5 -34c-10 0 -18.833 0.333008 -26.5 1s-15.5 2.33398 -23.5 5.00098l5 20c14 -4 28 -6 42 -6c31.333 0 55.5 9.16699 72.5 27.5s28.833 44.5 35.5 78.5l91 462h-119l4 20h119l39 195
c7.33301 36 22.166 62.5 44.499 79.5s51.5 25.5 87.5 25.5c12.667 0 22.167 -0.333008 28.5 -1s15.166 -2.66699 26.499 -6l-4 -19l-26.5 4c-9 1.33301 -17.833 2 -26.5 2c-32 0 -56.5 -7 -73.5 -21s-29.167 -39 -36.5 -75l-37 -184h127l-4 -20h-127z" />
    <glyph glyph-name="hungarumlaut" unicode="&#x2ba;" horiz-adv-x="130" 
d="M116 731l-146 -144h-15l132 144h29zM266 731l-146 -144h-15l132 144h29z" />
    <glyph glyph-name="caron" unicode="&#x2c7;" horiz-adv-x="130" 
d="M-36 731l103 -123l99 123h20l-113 -139h-15l-114 139h20z" />
    <glyph glyph-name="macron" unicode="&#x2c9;" horiz-adv-x="130" 
d="M181 628h-232v20h232v-20z" />
    <glyph glyph-name="breve" unicode="&#x2d8;" horiz-adv-x="130" 
d="M-38 731c3.33301 -26.667 14.001 -47.834 32.001 -63.501s40.667 -23.5 68 -23.5c30 0 54.5 7.33301 73.5 22s29.833 36.334 32.5 65.001h20c-4 -34 -17.333 -60.333 -40 -79s-51.334 -28 -86.001 -28c-32 0 -59 10 -81 30s-35 45.667 -39 77h20z" />
    <glyph glyph-name="dotaccent" unicode="&#x2d9;" horiz-adv-x="130" 
d="M75 671v-81h-20v81h20z" />
    <glyph glyph-name="ring" unicode="&#x2da;" horiz-adv-x="130" 
d="M65 586c-24 0 -44.667 8.66699 -62 26s-26 38 -26 62s8.66699 44.667 26 62s38 26 62 26s44.667 -8.66699 62 -26s26 -38 26 -62s-8.66699 -44.667 -26 -62s-38 -26 -62 -26zM65 742c-18.667 0 -34.667 -6.66699 -48 -20s-20 -29.333 -20 -48s6.66699 -34.667 20 -48
s29.333 -20 48 -20s34.667 6.66699 48 20s20 29.333 20 48s-6.66699 34.667 -20 48s-29.333 20 -48 20z" />
    <glyph glyph-name="ogonek" unicode="&#x2db;" horiz-adv-x="130" 
d="M110 0c-38 -28.667 -65.168 -52.833 -81.501 -72.5s-24.5 -37.5 -24.5 -53.5c0 -11.333 4.66699 -21.333 14 -30s23 -13 41 -13c18.667 0 34.334 3 47.001 9s22.667 13.333 30 22l17 -12c-12.667 -14 -27 -24 -43 -30s-33 -9 -51 -9c-24 0 -42.5 6.16699 -55.5 18.5
s-19.5 26.833 -19.5 43.5c0 22 8.83301 43.167 26.5 63.5s41.167 41.5 70.5 63.5h29z" />
    <glyph glyph-name="circumflex" unicode="&#x302;" horiz-adv-x="130" 
d="M166 592l-103 123l-99 -123h-20l113 139h15l114 -139h-20z" />
    <glyph glyph-name="tilde" unicode="&#x303;" horiz-adv-x="130" 
d="M-67 602c0 18.667 7.16797 36.501 21.501 53.501s29.833 25.5 46.5 25.5c14 0 36.5 -9.66699 67.5 -29s50.833 -29 59.5 -29c14.667 0 26.5 5.5 35.5 16.5s13.5 23.833 13.5 38.5h20c0 -20.667 -6 -38.334 -18 -53.001s-29 -22 -51 -22c-16 0 -38.167 9.66699 -66.5 29
s-48.5 29 -60.5 29c-12.667 0 -23.834 -6.5 -33.501 -19.5s-14.5 -26.167 -14.5 -39.5h-20z" />
    <glyph glyph-name="summation" unicode="&#x3a3;" horiz-adv-x="713" 
d="M618 643l14.999 -128.999h-44c-21.333 70 -49.666 118 -84.999 144s-91.666 39 -168.999 39h-132l315 -431l-344 -394h187c81.333 0 138.833 10.5 172.5 31.5s61.167 59.833 82.5 116.5h45l-30 -130l-2 -7c-15.333 -66 -52.333 -99 -111 -99h-482l389 446l-375 514h460
c43.333 0 70.666 -5 81.999 -15c11.333 -8.66699 20 -37.334 26 -86.001z" />
    <glyph glyph-name="Omega" unicode="&#x3a9;" horiz-adv-x="768" 
d="M593 90c32 0 54.665 6.33203 67.998 18.999s20 35 20 67h23v-176h-272v180c51.333 10 92.166 35.5 122.499 76.5s45.5 91.5 45.5 151.5c0 70.667 -19.667 126.834 -59 168.501s-91.666 62.5 -156.999 62.5s-117.666 -20.833 -156.999 -62.5s-59 -97.834 -59 -168.501
c0 -60 14.833 -110.333 44.5 -151s70.834 -66.334 123.501 -77.001v-180h-272v176h23c0 -32 6.33301 -54.333 19 -67s35.667 -19 69 -19h123v59c-78.667 14 -139.667 43.667 -183 89s-65 102 -65 170c0 80.667 30.833 145.334 92.5 194.001s142.167 73 241.5 73
s179.833 -24.5 241.5 -73.5s92.5 -113.5 92.5 -193.5c0 -66.667 -21.333 -122.667 -64 -168s-104 -75.666 -184 -90.999v-59h123z" />
    <glyph glyph-name="pi" unicode="&#x3c0;" horiz-adv-x="549" 
d="M404 373l-1.00391 -24.002l-3 -150v-40c0 -56 2.83301 -91 8.5 -105s15.834 -21 30.501 -21c18.667 0 32.334 9.66699 41.001 29c11.333 20.667 17 50.334 17 89.001h25v-5c0 -53.333 -8.66699 -92.666 -26 -117.999s-44 -38 -80 -38c-37.333 0 -63.833 13.333 -79.5 40
s-23.5 81.334 -23.5 164.001l1 78l3 104l-50 1l-77 2c0 -156 -7.66699 -259.833 -23 -311.5s-42 -77.5 -80 -77.5c-23.333 0 -40.833 9.66699 -52.5 29s-17.5 48 -17.5 86v19h24c0 -18 3.16699 -31.167 9.5 -39.5s15.5 -12.5 27.5 -12.5c28 0 46.167 15.667 54.5 47
s14.333 68.166 18 110.499s5.5 92.166 5.5 149.499h-22c-25.333 0 -45.166 -4.5 -59.499 -13.5s-23.5 -22.167 -27.5 -39.5h-23c0 22.667 3.33301 41.834 10 57.501s18.834 30.5 36.501 44.5s55.167 21 112.5 21l102 -3l152 -3c22.667 0 39.167 2.33301 49.5 7
s15.833 11.667 16.5 21l23 1c0 -35.333 -7.83301 -60.833 -23.5 -76.5s-40.5 -23.5 -74.5 -23.5h-14z" />
    <glyph glyph-name="endash" unicode="&#x2013;" 
d="M0 278h500v-20h-500v20z" />
    <glyph glyph-name="emdash" unicode="&#x2014;" horiz-adv-x="1000" 
d="M1000 258h-1000v20h1000v-20z" />
    <glyph glyph-name="quoteleft" unicode="&#x2018;" horiz-adv-x="167" 
d="M73 489l-0.000976562 118c0 35.333 2.83301 59.5 8.5 72.5s17.834 24.5 36.501 34.5v-20c-16.667 -10.667 -25 -39.667 -25 -87v-118h-20z" />
    <glyph glyph-name="quoteright" unicode="&#x2019;" horiz-adv-x="167" 
d="M94 714l0.000976562 -118c0 -35.333 -2.83301 -59.5 -8.5 -72.5s-17.834 -24.5 -36.501 -34.5v20c16.667 10.667 25 39.667 25 87v118h20z" />
    <glyph glyph-name="quotesinglbase" unicode="&#x201a;" horiz-adv-x="167" 
d="M93 98l-0.000976562 -98c0 -32 -3.16699 -57 -9.5 -75s-18.166 -32.667 -35.499 -44v20c16.667 16 25 49 25 99v98h20z" />
    <glyph glyph-name="quotedblleft" unicode="&#x201c;" horiz-adv-x="278" 
d="M83 489l-0.000976562 118c0 35.333 2.83301 59.5 8.5 72.5s17.834 24.5 36.501 34.5v-20c-16.667 -10.667 -25 -39.667 -25 -87v-118h-20zM182.999 489l-0.000976562 118c0 35.333 2.83301 59.5 8.5 72.5s17.834 24.5 36.501 34.5v-20
c-16.667 -10.667 -25 -39.667 -25 -87v-118h-20z" />
    <glyph glyph-name="quotedblright" unicode="&#x201d;" horiz-adv-x="278" 
d="M195 714l0.000976562 -118c0 -35.333 -2.83301 -59.5 -8.5 -72.5s-17.834 -24.5 -36.501 -34.5v20c16.667 10.667 25 39.667 25 87v118h20zM95.001 714l0.000976562 -118c0 -35.333 -2.83301 -59.5 -8.5 -72.5s-17.834 -24.5 -36.501 -34.5v20
c16.667 10.667 25 39.667 25 87v118h20z" />
    <glyph glyph-name="quotedblbase" unicode="&#x201e;" horiz-adv-x="278" 
d="M195 98l-0.000976562 -98c0 -32 -3.16699 -57 -9.5 -75s-18.166 -32.667 -35.499 -44v20c16.667 16 25 49 25 99v98h20zM94.999 98l-0.000976562 -98c0 -32 -3.16699 -57 -9.5 -75s-18.166 -32.667 -35.499 -44v20c16.667 16 25 49 25 99v98h20z" />
    <glyph glyph-name="dagger" unicode="&#x2020;" horiz-adv-x="556" 
d="M288 714v-243h208v-20h-208v-591h-20v591h-208v20h208v243h20z" />
    <glyph glyph-name="daggerdbl" unicode="&#x2021;" horiz-adv-x="556" 
d="M60 57v20h208v420h-208v20h208v197h20v-197h208v-20h-208v-420h208v-20h-208v-197h-20v197h-208z" />
    <glyph glyph-name="bullet" unicode="&#x2022;" 
d="M250 535c49.333 0 91.5 -17.167 126.5 -51.5s52.5 -76.5 52.5 -126.5s-17.333 -92.333 -52 -127s-77 -52 -127 -52c-49.333 0 -91.333 17.333 -126 52s-52 77 -52 127c0 49.333 17.333 91.333 52 126s76.667 52 126 52z" />
    <glyph glyph-name="ellipsis" unicode="&#x2026;" horiz-adv-x="1000" 
d="M177 0h-20v98h20v-98zM510 0h-20v98h20v-98zM843 0h-20v98h20v-98z" />
    <glyph glyph-name="perthousand" unicode="&#x2030;" horiz-adv-x="1037" 
d="M173 692c49.333 0 87.5 -15.833 114.5 -47.5s40.5 -73.167 40.5 -124.5c0 -48 -13.833 -88.333 -41.5 -121s-65.5 -49 -113.5 -49c-49.333 0 -87 16.167 -113 48.5s-39 72.5 -39 120.5c0 52 13.333 93.833 40 125.5s64 47.5 112 47.5zM173 370
c42.667 0 75.833 14.1689 99.5 42.502s35.5 63.833 35.5 106.5c0 47.333 -11.167 84.666 -33.5 111.999s-56.166 41 -101.499 41c-44 0 -77 -13.833 -99 -41.5s-33 -64.834 -33 -111.501c0 -43.333 11.167 -79 33.5 -107s55.166 -42 98.499 -42zM500.999 330.002
c49.333 0 87.5 -15.833 114.5 -47.5s40.5 -73.167 40.5 -124.5c0 -48 -13.833 -88.333 -41.5 -121s-65.5 -49 -113.5 -49c-49.333 0 -87 16.167 -113 48.5s-39 72.5 -39 120.5c0 52 13.333 93.833 40 125.5s64 47.5 112 47.5zM500.999 8.00195
c42.667 0 75.833 14.1689 99.5 42.502s35.5 63.833 35.5 106.5c0 47.333 -11.167 84.666 -33.5 111.999s-56.166 41 -101.499 41c-44 0 -77 -13.833 -99 -41.5s-33 -64.834 -33 -111.501c0 -43.333 11.167 -79 33.5 -107s55.166 -42 98.499 -42zM860.998 330.004
c49.333 0 87.5 -15.833 114.5 -47.5s40.5 -73.167 40.5 -124.5c0 -48 -13.833 -88.333 -41.5 -121s-65.5 -49 -113.5 -49c-49.333 0 -87 16.167 -113 48.5s-39 72.5 -39 120.5c0 52 13.333 93.833 40 125.5s64 47.5 112 47.5zM860.998 8.00391
c42.667 0 75.833 14.1689 99.5 42.502s35.5 63.833 35.5 106.5c0 47.333 -11.167 84.666 -33.5 111.999s-56.166 41 -101.499 41c-44 0 -77 -13.833 -99 -41.5s-33 -64.834 -33 -111.501c0 -43.333 11.167 -79 33.5 -107s55.166 -42 98.499 -42zM564.997 714.006h23
l-476 -748h-23z" />
    <glyph glyph-name="guilsinglleft" unicode="&#x2039;" horiz-adv-x="259" 
d="M169 121l-103 139v16l103 139v-35l-83 -112l83 -112v-35z" />
    <glyph glyph-name="guilsinglright" unicode="&#x203a;" horiz-adv-x="259" 
d="M90 415l103 -139v-16l-103 -139v35l83 112l-83 112v35z" />
    <glyph glyph-name="trademark" unicode="&#x2122;" horiz-adv-x="990" 
d="M232 694h-150v20h320v-20h-150v-392h-20v392zM496 714h34l162 -384l162 384h34v-412h-20v392l-166 -392h-20l-164 392l-2 -392h-20v412z" />
    <glyph glyph-name="partialdiff" unicode="&#x2202;" horiz-adv-x="494" 
d="M256 349c-34.667 0 -63.332 -20 -85.999 -60s-34 -93.667 -34 -161c0 -38 7.16699 -67.333 21.5 -88s35.166 -31 62.499 -31c35.333 0 64.333 20.667 87 62s34 92.333 34 153c0 38.667 -7.16699 69.167 -21.5 91.5s-35.5 33.5 -63.5 33.5zM358.002 287
c2.66699 9.33301 4.83203 18.6689 6.49902 28.002s2.5 19.666 2.5 30.999l3 89c0 56.667 -5.16699 98.667 -15.5 126s-26.166 41 -47.499 41c-12 0 -28.667 -11.667 -50 -35s-40 -35 -56 -35c-10.667 0 -19.167 2.5 -25.5 7.5s-10.166 13.167 -11.499 24.5
c0 19.333 10.167 36 30.5 50s44.166 21 71.499 21c51.333 0 88.5 -18 111.5 -54s38.5 -70.333 46.5 -103s12 -69.667 12 -111c0 -108.667 -21.5 -199.167 -64.5 -271.5s-95.5 -108.5 -157.5 -108.5c-45.333 0 -82 17 -110 51s-42 79.667 -42 137
c0 54.667 17.667 102.5 53 143.5s77 61.5 125 61.5c29.333 0 53.5 -7.33301 72.5 -22s34.167 -38.334 45.5 -71.001z" />
    <glyph glyph-name="Delta" unicode="&#x2206;" horiz-adv-x="612" 
d="M92 45h373l-186 459zM595 0h-574l276 672h22z" />
    <glyph glyph-name="product" unicode="&#x220f;" horiz-adv-x="823" 
d="M118 -176v880h-88v40h767v-40h-88v-880h88v-40h-264v40h84v880h-407v-880h84v-40h-264v40h88z" />
    <glyph glyph-name="fraction" unicode="&#x2215;" horiz-adv-x="167" 
d="M310 714h23l-476 -748h-23z" />
    <glyph glyph-name="periodcentered" unicode="&#x2219;" horiz-adv-x="278" 
d="M139 372c21.333 0 32 -10.667 32 -32s-10.667 -32 -32 -32s-32 10.667 -32 32s10.667 32 32 32z" />
    <glyph glyph-name="radical" unicode="&#x221a;" horiz-adv-x="549" 
d="M594 764h-57l-290 -784h-32l-156 431l-61 -22l-12 39l138 48l125 -346l252 681h93v-47z" />
    <glyph glyph-name="infinity" unicode="&#x221e;" horiz-adv-x="713" 
d="M383 271c15.333 -30 34.668 -53.332 58.001 -69.999c23.333 -15.333 49 -23 77 -23c34.667 0 62.834 11.667 84.501 35s32.5 53.333 32.5 90c0 37.333 -10 67.166 -30 89.499s-46.667 33.5 -80 33.5c-24.667 0 -48.334 -12 -71.001 -36s-46.334 -63.667 -71.001 -119z
M330.002 327.001c-17.333 30.667 -37 53.833 -59 69.5s-47.333 23.5 -76 23.5c-34 0 -62 -11.667 -84 -35s-33 -53.333 -33 -90c0 -36 9.83301 -65.5 29.5 -88.5s45.167 -34.5 76.5 -34.5c26.667 0 50.5 10.5 71.5 31.5s45.833 62.167 74.5 123.5zM366.002 238
c-22 -41.333 -45.835 -72.333 -71.502 -93s-54.167 -31 -85.5 -31c-44 0 -81 17.5 -111 52.5s-45 78.833 -45 131.5c0 55.333 13.667 100.166 41 134.499s62.333 51.5 105 51.5c31.333 0 58.833 -9.83301 82.5 -29.5s45.5 -51.167 65.5 -94.5
c20.667 41.333 43.834 72.333 69.501 93s54.834 31 87.501 31c42 0 78.333 -17.667 109 -53s46 -79 46 -131c0 -55.333 -13.5 -100.166 -40.5 -134.499s-61.833 -51.5 -104.5 -51.5c-30.667 0 -58.667 10 -84 30c-24 20.667 -45.333 52 -64 94z" />
    <glyph glyph-name="integral" unicode="&#x222b;" horiz-adv-x="274" 
d="M283 757c24 0 43.499 -6.16602 58.499 -18.499s22.5 -28.5 22.5 -48.5c0 -13.333 -4.33301 -24.666 -13 -33.999s-20.667 -14 -36 -14c-19.333 0 -34 10.667 -44 32s-19.667 32 -29 32c-38 0 -57 -103.333 -57 -310l-3 -98c0 -42 -1.5 -82 -4.5 -120
s-7.66699 -80.667 -14 -128s-16.666 -87.333 -30.999 -120s-34.333 -59.334 -60 -80.001s-52.834 -31 -81.501 -31c-23.333 0 -42.666 6.16699 -57.999 18.5s-23 28.5 -23 48.5c0 14.667 4.16699 26.167 12.5 34.5s20.5 12.5 36.5 12.5c19.333 0 34 -10.333 44 -31
s20 -31.334 30 -32.001c38 0 57 108 57 324l2 84c0 40 1.33301 78.667 4 116s7.16699 79.833 13.5 127.5s16.833 88.5 31.5 122.5s34.5 61.333 59.5 82s52.5 31 82.5 31z" />
    <glyph glyph-name="approxequal" unicode="&#x2248;" horiz-adv-x="549" 
d="M15 100l0.000976562 77c32.667 20.667 61.667 35.5 87 44.5s50 13.5 74 13.5c29.333 0 67.666 -8 114.999 -24s80.333 -24 99 -24s39.167 5 61.5 15s49.833 27.333 82.5 52v-78c-28 -18.667 -53.5 -32.5 -76.5 -41.5s-47.167 -13.5 -72.5 -13.5
c-21.333 0 -56 7.83301 -104 23.5s-86.667 23.5 -116 23.5c-18.667 0 -36.5 -3.66699 -53.5 -11s-33 -15.5 -48 -24.5s-31.167 -19.833 -48.5 -32.5zM15.001 219v77c15.333 9.33301 29.833 17.666 43.5 24.999s30.5 14.5 50.5 21.5s42 10.5 66 10.5
c28 0 66.167 -7.83301 114.5 -23.5s81.833 -23.5 100.5 -23.5c18 0 38 4.83301 60 14.5s50 26.834 84 51.501v-77c-12 -8 -25.667 -16 -41 -24s-31.666 -15.167 -48.999 -21.5s-37 -9.5 -59 -9.5s-56.833 7.83301 -104.5 23.5s-84.5 23.5 -110.5 23.5
c-23.333 0 -45.333 -4.5 -66 -13.5s-50.334 -27.167 -89.001 -54.5z" />
    <glyph glyph-name="notequal" unicode="&#x2260;" horiz-adv-x="549" 
d="M413 336h91v-64h-149l-73 -72h222v-64h-281l-118 -118l-43 44l74 74h-91v64h150l73 72h-223v64h281l118 118l44 -44z" />
    <glyph glyph-name="lessequal" unicode="&#x2264;" horiz-adv-x="549" 
d="M506 18h-463v68h463v-68zM162 280l344 -107v-70l-462 145v65l462 145v-70z" />
    <glyph glyph-name="greaterequal" unicode="&#x2265;" horiz-adv-x="549" 
d="M506 18h-463v68h463v-68zM506 248l-463 -145v70l344 107l-344 108v70l463 -145v-65z" />
    <glyph glyph-name="lozenge" unicode="&#x25ca;" horiz-adv-x="494" 
d="M247 688l-188 -399l188 -403l188 403zM247 807l244 -518l-244 -522l-244 522z" />
    <glyph glyph-name="apple" unicode="&#xf000;" horiz-adv-x="790" 
d="M408 594l-1 7.00098v11c0 40.667 15.333 78 46 112s69.334 55.333 116.001 64v-12l1 -18c0 -42.667 -16.833 -80.834 -50.5 -114.501s-66.834 -50.5 -99.501 -50.5h-4zM735 197.001c-37.333 -80.667 -70.9971 -136.502 -100.997 -167.502s-63 -46.5 -99 -46.5
c-16.667 0 -38 5.33301 -64 16s-46 16 -60 16c-15.333 0 -36.666 -5.33301 -63.999 -16s-48 -16 -62 -16c-20 0 -41 7 -63 21c-8.66699 6.66699 -18.834 15.834 -30.501 27.501s-27.834 31.667 -48.501 60s-40.5 68.5 -59.5 120.5s-28.5 101.333 -28.5 148
c0 71.333 20.5 129.5 61.5 174.5s93.5 67.5 157.5 67.5c10.667 0 22.5 -1.33301 35.5 -4s30.167 -8.33398 51.5 -17.001s37.666 -13 48.999 -13c12 0 32.333 5.66699 61 17s53 17 73 17c36.667 0 69.167 -6.5 97.5 -19.5s54.166 -33.167 77.499 -60.5
c-32.667 -20.667 -57.167 -44.167 -73.5 -70.5s-24.5 -56.166 -24.5 -89.499c0 -36 10 -68.667 30 -98s48 -51.666 84 -66.999z" />
    <glyph glyph-name="fi" unicode="&#xf001;" horiz-adv-x="333" 
d="M278 0h-20v514h20v-514zM278 613h-20v101h20v-101zM-1 494l0.000976562 20h88v114c0 36.667 9.16699 60.167 27.5 70.5s42.833 15.5 73.5 15.5c10 0 18 -0.5 24 -1.5s12.333 -1.83301 19 -2.5v-20c-16.667 2.66699 -32.334 4 -47.001 4
c-30.667 0 -51.167 -5.5 -61.5 -16.5s-15.5 -29.833 -15.5 -56.5v-107h111v-20h-111v-494h-20v494h-88z" />
    <glyph glyph-name="fl" unicode="&#xf002;" horiz-adv-x="333" 
d="M-1 494l0.000976562 20h88v114c0 36.667 9.16699 60.167 27.5 70.5s42.833 15.5 73.5 15.5c10 0 18 -0.5 24 -1.5s12.333 -1.83301 19 -2.5v-20c-16.667 2.66699 -32.334 4 -47.001 4c-30.667 0 -51.167 -5.5 -61.5 -16.5s-15.5 -29.833 -15.5 -56.5v-107h111v-20h-111
v-494h-20v494h-88zM278.001 0h-20v714h20v-714z" />
    <glyph glyph-name=".null" horiz-adv-x="0" 
 />
    <glyph glyph-name="nonmarkingreturn" horiz-adv-x="278" 
 />
    <glyph glyph-name="Lslash" horiz-adv-x="481" 
d="M54 0v269l-74 -52v24l74 52v421h20v-407l248 174v-24l-248 -174v-263h417v-20h-437z" />
    <glyph glyph-name="lslash" horiz-adv-x="130" 
d="M75 714v-297l73 63v-25l-73 -63v-392h-20v375l-73 -63v25l73 63v314h20z" />
    <glyph glyph-name="Scaron" horiz-adv-x="611" 
d="M531 514c0 68.667 -21 118.668 -63 150.001s-98.333 47 -169 47c-60.667 0 -113.167 -12.833 -157.5 -38.5s-66.5 -67.5 -66.5 -125.5c0 -66.667 21.5 -107.5 64.5 -122.5s101.333 -31.667 175 -50s123.5 -32 149.5 -41s49.333 -26 70 -51s31 -60.833 31 -107.5
c0 -62.667 -25 -110.334 -75 -143.001s-109 -49 -177 -49c-86 0 -154 20.667 -204 62s-75 105.333 -75 192h20c0 -81.333 22.833 -140.666 68.5 -177.999s109.167 -56 190.5 -56c63.333 0 117.833 14.5 163.5 43.5s68.5 72.167 68.5 129.5c0 62 -18.5 102.333 -55.5 121
s-95 37.5 -174 56.5s-142.167 37.667 -189.5 56s-71 64.166 -71 137.499c0 64.667 23.833 111.5 71.5 140.5s105.167 43.5 172.5 43.5c76 0 137 -17.333 183 -52s69 -89.667 69 -165h-20zM205 931.001l103 -123l99 123h20l-113 -139h-15l-114 139h20z" />
    <glyph glyph-name="scaron" horiz-adv-x="463" 
d="M390 362c0 48.667 -14.832 84.835 -44.499 108.502s-70.167 35.5 -121.5 35.5c-48.667 0 -86.5 -10 -113.5 -30s-40.5 -46.333 -40.5 -79c0 -24.667 4.66699 -44 14 -58s22 -24 38 -30s36.667 -12.5 62 -19.5l107.5 -28.5c46.333 -12 80 -28.167 101 -48.5
s31.5 -47.5 31.5 -81.5c0 -48 -18.333 -83.833 -55 -107.5s-80.334 -35.5 -131.001 -35.5c-69.333 0 -121.333 15.167 -156 45.5s-52 77.833 -52 142.5h20c0 -56.667 16 -98.834 48 -126.501s78.667 -41.5 140 -41.5c43.333 0 81.833 10 115.5 30s50.5 50.333 50.5 91
c0 40 -13.667 67.167 -41 81.5s-64.333 27.333 -111 39s-78.167 20 -94.5 25s-38.333 13.5 -66 25.5s-41.5 44.333 -41.5 97c0 33.333 14.333 63.166 43 89.499s72.334 39.5 131.001 39.5c59.333 0 105.166 -13.333 137.499 -40s48.5 -68 48.5 -124h-20zM131.001 731.001
l103 -123l99 123h20l-113 -139h-15l-114 139h20z" />
    <glyph glyph-name="Zcaron" 
d="M508 20v-20h-527v27l499 667h-471v20h491v-27l-499 -667h507zM149 931l103 -123l99 123h20l-113 -139h-15l-114 139h20z" />
    <glyph glyph-name="zcaron" horiz-adv-x="407" 
d="M402 20v-20h-397v25l360 469h-333v20h354v-25l-360 -469h376zM103 731l103 -123l99 123h20l-113 -139h-15l-114 139h20z" />
    <glyph glyph-name="brokenbar" horiz-adv-x="222" 
d="M121 -17h-20v288h20v-288zM121 731v-288h-20v288h20z" />
    <glyph glyph-name="Eth" horiz-adv-x="648" 
d="M-10 362v19.999h64v332h250c84 0 155.667 -27.5 215 -82.5s89 -146.5 89 -274.5c0 -119.333 -32.167 -208.666 -96.5 -267.999s-143.833 -89 -238.5 -89h-219v362h-64zM74 361.999v-342h204c90 0 164.167 28.667 222.5 86s87.5 141 87.5 251
c0 122 -27.5 208.667 -82.5 260s-123.833 77 -206.5 77h-225v-312h297v-20h-297z" />
    <glyph glyph-name="glyph234" horiz-adv-x="519" 
d="M249 648c-12.667 10 -26.667 20.1699 -42 30.5029s-32.333 20.166 -51 29.499l16 14c16.667 -8.66699 33.667 -18.834 51 -30.501s32.333 -22.834 45 -33.501l123 68l15 -16l-120 -67c72 -66 124.167 -130.167 156.5 -192.5s48.5 -129.833 48.5 -202.5
c0 -72 -20.667 -133.167 -62 -183.5s-98 -75.5 -170 -75.5s-128.5 25 -169.5 75s-61.5 111.333 -61.5 184c0 72 20.5 133.167 61.5 183.5s97.833 75.5 170.5 75.5c34 0 64.833 -5.66699 92.5 -17s50.834 -29.666 69.501 -54.999h4
c-17.333 35.333 -41.833 71.666 -73.5 108.999s-60.834 67.333 -87.501 90l-122 -68l-15 15zM260 9.00293c66 0 117.667 23.167 155 69.5s56 102.833 56 169.5c0 66 -18.833 122.333 -56.5 169s-89.167 70 -154.5 70c-66 0 -117.833 -23.333 -155.5 -70
s-56.5 -103 -56.5 -169s18.833 -122.333 56.5 -169s89.5 -70 155.5 -70z" />
    <glyph glyph-name="Yacute" horiz-adv-x="538" 
d="M544 714h24l-289 -413v-301h-20v301l-289 413h25l274 -392zM375 931l-146 -144h-15l132 144h29z" />
    <glyph glyph-name="yacute" horiz-adv-x="407" 
d="M398 514h21.001l-237 -619c-12 -31.333 -28.167 -51.166 -48.5 -59.499s-49.5 -12.5 -87.5 -12.5v20c38 0 64.667 3.66699 80 11s28.666 25.666 39.999 54.999l37 96l-215 509h22l204 -487zM310.001 731l-146 -144h-15l132 144h29z" />
    <glyph glyph-name="Thorn" horiz-adv-x="574" 
d="M74 221h269c57.333 0 104.5 15.5 141.5 46.5s55.5 73.5 55.5 127.5c0 116.667 -65.667 175 -197 175h-269v-349zM343 590c68.667 0 122 -16.668 160 -50.001s57 -81.666 57 -144.999c0 -61.333 -20.833 -109 -62.5 -143s-96.5 -51 -164.5 -51h-259v-201h-20v714h20v-124
h269z" />
    <glyph glyph-name="thorn" horiz-adv-x="537" 
d="M283 506c-66.667 0 -118 -23.667 -154 -71s-54 -106.333 -54 -177c0 -78.667 19 -140 57 -184s88.333 -66 151 -66c69.333 0 119.833 24.333 151.5 73s47.5 107.667 47.5 177c0 72 -16.5 131.333 -49.5 178s-82.833 70 -149.5 70zM75 -177h-20v891h20v-344
c14.667 48 39.334 86 74.001 114s79.334 42 134.001 42c69.333 0 123.166 -24.667 161.499 -74s57.5 -114 57.5 -194c0 -77.333 -18.333 -141.666 -55 -192.999s-91.334 -77 -164.001 -77c-51.333 0 -95.5 14.167 -132.5 42.5s-61.5 66.166 -73.5 113.499z" />
    <glyph glyph-name="minus" horiz-adv-x="600" 
d="M48 243v20h504v-20h-504z" />
    <glyph glyph-name="multiply" horiz-adv-x="600" 
d="M96 443l14 13l189 -191l191 191l14 -13l-191 -190l191 -190l-14 -14l-191 191l-189 -191l-14 14l190 190z" />
    <glyph glyph-name="onesuperior" horiz-adv-x="333" 
d="M181 662c-12 -16 -29.168 -30.3311 -51.501 -42.998s-44.833 -22.334 -67.5 -29.001v19c26.667 8.66699 47.834 18.167 63.501 28.5s33.5 26.166 53.5 47.499h22v-408h-20v385z" />
    <glyph glyph-name="twosuperior" horiz-adv-x="333" 
d="M316 297l0.00195312 -20h-298c0 26.667 7.66699 49.5 23 68.5s52 47.5 110 85.5s94.667 67.5 110 88.5s23 43.833 23 68.5c0 27.333 -10.667 48.166 -32 62.499s-49.333 21.5 -84 21.5c-42 0 -72.833 -10.333 -92.5 -31s-29.5 -50.667 -29.5 -90h-20
c0 46.667 11.167 81.834 33.5 105.501s58.5 35.5 108.5 35.5c40.667 0 73.5 -8.5 98.5 -25.5s37.5 -43.167 37.5 -78.5c0 -29.333 -8.83301 -55.833 -26.5 -79.5s-53.334 -52.667 -107.001 -87s-88.334 -59.833 -104.001 -76.5s-24.167 -32.667 -25.5 -48h275z" />
    <glyph glyph-name="threesuperior" horiz-adv-x="333" 
d="M24 559c0 42.667 13.6631 75.498 40.9961 98.498s64 34.5 110 34.5c39.333 0 72.333 -7.5 99 -22.5s40 -40.833 40 -77.5c0 -27.333 -9.66699 -50 -29 -68s-43.666 -27 -72.999 -27c31.333 -1.33301 57.5 -11.166 78.5 -29.499s31.5 -44.166 31.5 -77.499
c0 -36 -14.667 -65 -44 -87s-64.333 -33 -105 -33c-51.333 0 -91.166 12.5 -119.499 37.5s-42.5 60.833 -42.5 107.5h20c0 -40.667 12.333 -71.667 37 -93s59.334 -32 104.001 -32c36 0 66.667 8.83301 92 26.5s38 42.167 38 73.5c0 34 -12.167 58.5 -36.5 73.5
s-55.166 22.5 -92.499 22.5h-24v21h26c34 0 62.333 6.66699 85 20s34 35 34 65c0 30.667 -11 51.667 -33 63s-51 17 -87 17c-42.667 0 -75 -9.33301 -97 -28s-33 -47 -33 -85h-20z" />
    <glyph glyph-name="onehalf" horiz-adv-x="834" 
d="M573 714h23l-476 -748h-23zM184 662c-12 -16 -29.168 -30.3311 -51.501 -42.998s-44.833 -22.334 -67.5 -29.001v19c26.667 8.66699 47.834 18.167 63.501 28.5s33.5 26.166 53.5 47.499h22v-408h-20v385zM769.999 20.002l0.00195312 -20h-298
c0 26.667 7.66699 49.5 23 68.5s52 47.5 110 85.5s94.667 67.5 110 88.5s23 43.833 23 68.5c0 27.333 -10.667 48.166 -32 62.499s-49.333 21.5 -84 21.5c-42 0 -72.833 -10.333 -92.5 -31s-29.5 -50.667 -29.5 -90h-20c0 46.667 11.167 81.834 33.5 105.501
s58.5 35.5 108.5 35.5c40.667 0 73.5 -8.5 98.5 -25.5s37.5 -43.167 37.5 -78.5c0 -29.333 -8.83301 -55.833 -26.5 -79.5s-53.334 -52.667 -107.001 -87s-88.334 -59.833 -104.001 -76.5s-24.167 -32.667 -25.5 -48h275z" />
    <glyph glyph-name="onequarter" horiz-adv-x="834" 
d="M620 714h23l-476 -748h-23zM221 662c-12 -16 -29.168 -30.3311 -51.501 -42.998s-44.833 -22.334 -67.5 -29.001v19c26.667 8.66699 47.834 18.167 63.501 28.5s33.5 26.166 53.5 47.499h22v-408h-20v385zM634.999 379.002h-2l-198 -257h200v257zM413.999 102.002v25
l216 281h25v-286h76v-20h-76v-102h-20v102h-221z" />
    <glyph glyph-name="threequarters" horiz-adv-x="834" 
d="M674 714h23l-476 -748h-23zM683 379h-2l-198 -257h200v257zM462 102v25l216 281h25v-286h76v-20h-76v-102h-20v102h-221zM68 559c0 42.667 13.665 75.498 40.998 98.498s64 34.5 110 34.5c39.333 0 72.333 -7.5 99 -22.5s40 -40.833 40 -77.5
c0 -27.333 -9.66699 -50 -29 -68s-43.666 -27 -72.999 -27c31.333 -1.33301 57.5 -11.166 78.5 -29.499s31.5 -44.166 31.5 -77.499c0 -36 -14.667 -65 -44 -87s-64.333 -33 -105 -33c-51.333 0 -91.166 12.5 -119.499 37.5s-42.5 60.833 -42.5 107.5h20
c0 -40.667 12.333 -71.667 37 -93s59.334 -32 104.001 -32c36 0 66.667 8.83301 92 26.5s38 42.167 38 73.5c0 34 -12.333 58.667 -37 74s-55.334 23 -92.001 23l-24 -1v21h26c34 0 62.333 6.66699 85 20s34 35 34 65c0 30.667 -11 51.667 -33 63s-51 17 -87 17
c-42.667 0 -75 -9.33301 -97 -28s-33 -47 -33 -85h-20z" />
  </font>
</defs>
</svg>
