<?xml version="1.0" encoding="UTF-8" standalone="no"?>
<svg width="300px" height="300px" viewBox="0 0 300 300" version="1.1" xmlns="http://www.w3.org/2000/svg" xmlns:xlink="http://www.w3.org/1999/xlink">
    <!-- Generator: Sketch 42 (36781) - http://www.bohemiancoding.com/sketch -->
    <title>Group</title>
    <desc>Created with Sketch.</desc>
    <defs></defs>
    <g id="Page-1" stroke="none" stroke-width="1" fill="none" fill-rule="evenodd">
        <g id="Artboard" transform="translate(-1051.000000, -61.000000)" fill-rule="nonzero" fill="#09979B">
            <g id="activities" transform="translate(1072.000000, 102.000000)">
                <path d="M217.810941,162.960107 L188.04457,177.849835 C188.382721,179.436822 188.560669,181.08314 188.560669,182.77104 C188.560669,195.744263 178.048415,206.261139 165.080893,206.261139 C152.11337,206.261139 141.601116,195.744263 141.601116,182.77104 C141.601116,182.22601 141.61967,181.685316 141.656181,181.149555 L114.355601,172.045361 C110.17106,178.500594 102.9048,182.77104 94.6415621,182.77104 C87.5745551,182.77104 81.2367639,179.647524 76.9322799,174.705156 L47.1659092,189.594885 C47.5040604,191.181871 47.6820084,192.82819 47.6820084,194.516089 C47.6820084,207.489313 37.1697542,218.006188 24.2022315,218.006188 C11.2347088,218.006188 0.722454672,207.489313 0.722454672,194.516089 C0.722454672,181.542866 11.2347088,171.02599 24.2022315,171.02599 C31.2692383,171.02599 37.6070294,174.149506 41.9115134,179.091873 L71.6778845,164.202145 C71.3397332,162.615159 71.1617852,160.96884 71.1617852,159.280941 C71.1617852,146.307717 81.6740394,135.790842 94.6415621,135.790842 C107.609085,135.790842 118.121339,146.307717 118.121339,159.280941 C118.121339,159.82597 118.102785,160.366665 118.066274,160.902426 L145.366854,170.00662 C149.551394,163.551387 156.817654,159.280941 165.080893,159.280941 C172.1479,159.280941 178.485691,162.404457 182.790175,167.346824 L212.556546,152.457096 C212.218394,150.870109 212.040446,149.22379 212.040446,147.535891 C212.040446,134.562668 222.5527,124.045792 235.520223,124.045792 C248.487746,124.045792 259,134.562668 259,147.535891 C259,160.509115 248.487746,171.02599 235.520223,171.02599 C228.453216,171.02599 222.115425,167.902474 217.810941,162.960107 Z M80.9331244,78.521054 L45.4293409,108.120547 C46.8738749,111.168082 47.6820084,114.576258 47.6820084,118.173267 C47.6820084,131.146491 37.1697542,141.663366 24.2022315,141.663366 C11.2347088,141.663366 0.722454672,131.146491 0.722454672,118.173267 C0.722454672,105.200044 11.2347088,94.6831683 24.2022315,94.6831683 C29.3189734,94.6831683 34.0534437,96.3205869 37.9106689,99.1002329 L73.4144526,69.50074 C71.9699186,66.4532048 71.1617852,63.0450286 71.1617852,59.4480198 C71.1617852,46.4747963 81.6740394,35.9579208 94.6415621,35.9579208 C107.609085,35.9579208 118.121339,46.4747963 118.121339,59.4480198 C118.121339,61.1359189 117.943391,62.7822377 117.60524,64.3692238 L147.371611,79.2589524 C151.676095,74.3165853 158.013886,71.1930693 165.080893,71.1930693 C169.429571,71.1930693 173.502129,72.3758041 176.994706,74.43728 L215.263964,36.0991896 C213.215293,32.6123752 212.040446,28.5498837 212.040446,24.2128713 C212.040446,11.2396478 222.5527,0.722772277 235.520223,0.722772277 C248.487746,0.722772277 259,11.2396478 259,24.2128713 C259,37.1860947 248.487746,47.7029703 235.520223,47.7029703 C231.146596,47.7029703 227.052268,46.5066261 223.546358,44.4231933 L185.301671,82.7366674 C187.372252,86.2368831 188.560669,90.3211798 188.560669,94.6831683 C188.560669,107.656392 178.048415,118.173267 165.080893,118.173267 C152.11337,118.173267 141.601116,107.656392 141.601116,94.6831683 C141.601116,92.9952692 141.779064,91.3489504 142.117215,89.7619643 L112.350844,74.8722358 C108.04636,79.8146028 101.708569,82.9381188 94.6415621,82.9381188 C89.52482,82.9381188 84.7903496,81.3007001 80.9331244,78.521054 Z M94.6415621,71.1930693 C101.125323,71.1930693 106.38145,65.9346315 106.38145,59.4480198 C106.38145,52.9614081 101.125323,47.7029703 94.6415621,47.7029703 C88.1578007,47.7029703 82.9016736,52.9614081 82.9016736,59.4480198 C82.9016736,65.9346315 88.1578007,71.1930693 94.6415621,71.1930693 Z M24.2022315,129.918317 C30.6859929,129.918317 35.9421199,124.659878 35.9421199,118.173267 C35.9421199,111.686656 30.6859929,106.428218 24.2022315,106.428218 C17.7184702,106.428218 12.4623431,111.686656 12.4623431,118.173267 C12.4623431,124.659878 17.7184702,129.918317 24.2022315,129.918317 Z M165.080893,106.428218 C171.564653,106.428218 176.820781,101.169779 176.820781,94.6831683 C176.820781,88.1965566 171.564653,82.9381188 165.080893,82.9381188 C158.597132,82.9381188 153.341004,88.1965566 153.341004,94.6831683 C153.341004,101.169779 158.597132,106.428218 165.080893,106.428218 Z M235.520223,35.9579208 C242.003984,35.9579208 247.260112,30.699483 247.260112,24.2128713 C247.260112,17.7262596 242.003984,12.4678218 235.520223,12.4678218 C229.036462,12.4678218 223.780335,17.7262596 223.780335,24.2128713 C223.780335,30.699483 229.036462,35.9579208 235.520223,35.9579208 Z M94.6415621,171.02599 C101.125323,171.02599 106.38145,165.767552 106.38145,159.280941 C106.38145,152.794329 101.125323,147.535891 94.6415621,147.535891 C88.1578007,147.535891 82.9016736,152.794329 82.9016736,159.280941 C82.9016736,165.767552 88.1578007,171.02599 94.6415621,171.02599 Z M24.2022315,206.261139 C30.6859929,206.261139 35.9421199,201.0027 35.9421199,194.516089 C35.9421199,188.029478 30.6859929,182.77104 24.2022315,182.77104 C17.7184702,182.77104 12.4623431,188.029478 12.4623431,194.516089 C12.4623431,201.0027 17.7184702,206.261139 24.2022315,206.261139 Z M165.080893,194.516089 C171.564653,194.516089 176.820781,189.257651 176.820781,182.77104 C176.820781,176.284428 171.564653,171.02599 165.080893,171.02599 C158.597132,171.02599 153.341004,176.284428 153.341004,182.77104 C153.341004,189.257651 158.597132,194.516089 165.080893,194.516089 Z M235.520223,159.280941 C242.003984,159.280941 247.260112,154.022502 247.260112,147.535891 C247.260112,141.04928 242.003984,135.790842 235.520223,135.790842 C229.036462,135.790842 223.780335,141.04928 223.780335,147.535891 C223.780335,154.022502 229.036462,159.280941 235.520223,159.280941 Z" id="Combined-Shape"></path>
            </g>
        </g>
    </g>
</svg>