<?xml version="1.0" encoding="UTF-8" standalone="no"?>
<svg width="300px" height="300px" viewBox="0 0 300 300" version="1.1" xmlns="http://www.w3.org/2000/svg" xmlns:xlink="http://www.w3.org/1999/xlink">
    <!-- Generator: Sketch 42 (36781) - http://www.bohemiancoding.com/sketch -->
    <title>Group Copy</title>
    <desc>Created with Sketch.</desc>
    <defs></defs>
    <g id="Page-1" stroke="none" stroke-width="1" fill="none" fill-rule="evenodd">
        <g id="Artboard" transform="translate(-733.000000, -61.000000)" fill-rule="nonzero" fill="#09979B">
            <g id="documents" transform="translate(785.000000, 81.000000)">
                <polygon id="Shape" points="163.333333 81.25 114.333333 81.25 114.333333 32.5 125.222222 32.5 125.222222 70.4166667 163.333333 70.4166667"></polygon>
                <rect id="Rectangle-path" x="27.2222222" y="54.1666667" width="76.2222222" height="10.8333333"></rect>
                <rect id="Rectangle-path" x="27.2222222" y="81.25" width="76.2222222" height="10.8333333"></rect>
                <rect id="Rectangle-path" x="27.2222222" y="108.333333" width="114.333333" height="10.8333333"></rect>
                <rect id="Rectangle-path" x="27.2222222" y="135.416667" width="114.333333" height="10.8333333"></rect>
                <rect id="Rectangle-path" x="27.2222222" y="162.5" width="114.333333" height="10.8333333"></rect>
                <rect id="Rectangle-path" x="27.2222222" y="189.583333" width="114.333333" height="10.8333333"></rect>
                <path d="M169.322222,260 L0,260 L0,27.0833333 L129.577778,27.0833333 L148.633333,48.75 L169.322222,73.6666667 L169.322222,260 L169.322222,260 Z M10.8888889,249.166667 L158.433333,249.166667 L158.433333,78 L140.466667,56.3333333 L124.677778,37.9166667 L10.8888889,37.9166667 L10.8888889,249.166667 Z" id="Shape"></path>
                <polygon id="Shape" points="196 232.916667 163.877778 232.916667 163.877778 222.083333 185.111111 222.083333 185.111111 10.8333333 37.5666667 10.8333333 37.5666667 31.9583333 26.6777778 31.9583333 26.6777778 0 196 0"></polygon>
            </g>
        </g>
    </g>
</svg>