<?xml version="1.0" encoding="UTF-8" standalone="no"?>
<svg width="300px" height="300px" viewBox="0 0 300 300" version="1.1" xmlns="http://www.w3.org/2000/svg" xmlns:xlink="http://www.w3.org/1999/xlink">
    <!-- Generator: Sketch 42 (36781) - http://www.bohemiancoding.com/sketch -->
    <title>Group Copy 11</title>
    <desc>Created with Sketch.</desc>
    <defs></defs>
    <g id="Page-1" stroke="none" stroke-width="1" fill="none" fill-rule="evenodd">
        <g id="Artboard" transform="translate(-75.000000, -705.000000)">
            <g id="faq" transform="translate(91.000000, 723.000000)">
                <ellipse id="Oval-Copy" fill="#4D5456" cx="131.91579" cy="131.91579" rx="131.91579" ry="131.91579"></ellipse>
                <path d="M132.22541,181.51332 C159.905191,181.51332 182.45082,159.178108 182.45082,131.75666 C182.45082,104.335212 159.905191,82 132.22541,82 C104.545628,82 82,104.335212 82,131.75666 C82,139.386014 83.7857923,146.904798 87.134153,153.760161 L82.6696721,168.355447 C82.4464481,169.24001 82.5580601,170.124573 83.1161202,170.898566 C83.6741803,171.561988 84.5670765,172.004269 85.4599727,171.893699 L100.974044,170.787995 C109.903005,177.753928 120.952596,181.51332 132.22541,181.51332 Z M132.22541,87.5285178 C156.891667,87.5285178 176.870219,107.431182 176.870219,131.75666 C176.870219,156.082138 156.780055,175.984802 132.22541,175.984802 C121.845492,175.984802 111.688798,172.33598 103.652732,165.812329 C103.094672,165.370048 102.425,165.148907 101.643716,165.148907 L89.1431694,166.03347 L92.8263661,154.313012 C93.0495902,153.64959 92.9379781,152.875598 92.6031421,152.212176 C89.2547814,145.799095 87.5806011,138.943733 87.5806011,131.75666 C87.5806011,107.320611 107.559153,87.5285178 132.22541,87.5285178 Z M143.163388,124.680157 C143.163388,130.982667 136.020219,132.530652 136.020219,135.405482 L136.020219,138.05917 L127.760929,138.05917 L127.760929,134.189208 C127.760929,129.766393 134.904098,127.223275 134.904098,124.569587 C134.904098,122.689891 133.118306,121.584187 131.555738,121.584187 C129.658333,121.584187 128.095765,123.242742 126.533197,125.233009 L121.287432,120.478484 C124.412568,116.497951 127.984153,114.065403 132.448634,114.065403 C138.475683,113.954833 143.163388,118.045936 143.163388,124.680157 Z M136.578279,144.803962 C136.578279,147.45765 134.45765,149.558487 131.778962,149.558487 C129.100273,149.558487 126.979645,147.45765 126.979645,144.803962 C126.979645,142.150273 129.100273,140.049436 131.778962,140.049436 C134.45765,139.938866 136.578279,142.150273 136.578279,144.803962 Z" id="Shape" fill="#E9E9E9" fill-rule="nonzero"></path>
            </g>
        </g>
    </g>
</svg>