<?xml version="1.0" encoding="UTF-8" standalone="no"?>
<svg width="300px" height="300px" viewBox="0 0 300 300" version="1.1" xmlns="http://www.w3.org/2000/svg" xmlns:xlink="http://www.w3.org/1999/xlink">
    <!-- Generator: Sketch 42 (36781) - http://www.bohemiancoding.com/sketch -->
    <title>Group Copy 9</title>
    <desc>Created with Sketch.</desc>
    <defs></defs>
    <g id="Page-1" stroke="none" stroke-width="1" fill="none" fill-rule="evenodd">
        <g id="Artboard" transform="translate(-401.000000, -383.000000)" fill-rule="nonzero" fill="#27A4A8">
            <g id="ntd" transform="translate(416.000000, 398.000000)">
                <path d="M134.91579,269.83158 C60.4038567,269.83158 0,209.427723 0,134.91579 C0,60.4038567 60.4038567,0 134.91579,0 C209.427723,0 269.83158,60.4038567 269.83158,134.91579 C269.83158,209.427723 209.427723,269.83158 134.91579,269.83158 Z M134.91579,263.83158 C206.114015,263.83158 263.83158,206.114015 263.83158,134.91579 C263.83158,63.7175652 206.114015,6 134.91579,6 C63.7175652,6 6,63.7175652 6,134.91579 C6,206.114015 63.7175652,263.83158 134.91579,263.83158 Z" id="Oval-Copy-2"></path>
                <path d="M134.860752,106.325912 C130.803988,106.325912 126.284084,113.371125 126.284084,123.481463 C126.284084,133.591801 130.803988,140.637014 134.860752,140.637014 C138.917516,140.637014 143.43742,133.591801 143.43742,123.481463 C143.43742,113.371125 138.917516,106.325912 134.860752,106.325912 M134.860752,146.355531 C126.844427,146.355531 120.566306,136.308096 120.566306,123.481463 C120.566306,110.654829 126.844427,100.607395 134.860752,100.607395 C142.877078,100.607395 149.155199,110.654829 149.155199,123.481463 C149.155199,136.308096 142.877078,146.355531 134.860752,146.355531" id="Shape"></path>
                <path d="M134.860752,146.355531 C132.530758,146.355531 129.142974,151.925366 129.142974,160.651823 C129.142974,169.37828 132.530758,174.948116 134.860752,174.948116 C137.190747,174.948116 140.578531,169.37828 140.578531,160.651823 C140.578531,151.925366 137.190747,146.355531 134.860752,146.355531 M134.860752,180.666633 C128.342485,180.666633 123.425195,172.063124 123.425195,160.651823 C123.425195,149.240522 128.342485,140.637014 134.860752,140.637014 C141.37902,140.637014 146.296309,149.240522 146.296309,160.651823 C146.296309,172.063124 141.37902,180.666633 134.860752,180.666633" id="Shape"></path>
                <path d="M134.860752,86.3111021 C131.707397,86.3111021 129.142974,89.5191901 129.142974,93.4592483 C129.142974,97.3993065 131.707397,100.607395 134.860752,100.607395 C138.014107,100.607395 140.578531,97.3993065 140.578531,93.4592483 C140.578531,89.5191901 138.014107,86.3111021 134.860752,86.3111021 M134.860752,106.325912 C128.554043,106.325912 123.425195,100.553069 123.425195,93.4592483 C123.425195,86.365428 128.554043,80.592585 134.860752,80.592585 C141.167462,80.592585 146.296309,86.365428 146.296309,93.4592483 C146.296309,100.553069 141.167462,106.325912 134.860752,106.325912" id="Shape"></path>
                <path d="M134.860752,86.3111021 C133.279786,86.3111021 132.001863,85.0301542 132.001863,83.4518435 L132.001863,54.8592585 C132.001863,53.2809478 133.279786,52 134.860752,52 C136.441718,52 137.719642,53.2809478 137.719642,54.8592585 L137.719642,83.4518435 C137.719642,85.0301542 136.441718,86.3111021 134.860752,86.3111021" id="Shape"></path>
                <path d="M57.595267,136.087076 C57.5981259,137.230779 57.8582848,139.561075 59.685115,141.66263 C62.3553176,144.733473 67.587085,146.354673 74.8229338,146.354673 C76.4496418,146.463325 108.003203,148.513413 119.241497,118.519791 C96.6162468,122.519894 63.8676701,130.031166 57.595267,136.087076 M76.5382674,152.116079 C75.3432516,152.116079 74.6485415,152.067471 74.5970815,152.064612 L74.5456215,152.064612 C65.6458992,152.064612 59.0847483,149.785783 55.27099,145.296747 C51.0855761,140.378823 51.9489606,134.700335 51.9889851,134.460157 C52.0633162,133.994098 52.2548618,133.553773 52.5407507,133.17921 C60.4227085,122.885879 112.580285,113.799156 122.958053,112.080741 C123.932934,111.926341 124.904956,112.266593 125.553924,112.995704 C126.205751,113.721956 126.44018,114.734133 126.177162,115.674829 C116.611318,149.860124 84.7489974,152.116079 76.5382674,152.116079" id="Shape"></path>
                <path d="M111.986779,217.836993 C111.557946,217.836993 111.120536,217.739778 110.711715,217.536771 C109.299423,216.827675 108.724786,215.11212 109.430932,213.699646 L120.309006,191.940689 L112.169748,170.233198 C111.815246,169.289643 111.986779,168.228858 112.615735,167.442562 L124.051292,153.14627 C125.040468,151.916788 126.832991,151.713781 128.07089,152.700225 C129.303072,153.686669 129.503194,155.485143 128.516877,156.720343 L118.096226,169.747124 L126.101116,191.100067 C126.381287,191.843474 126.338403,192.672659 125.983901,193.381755 L114.548344,216.255823 C114.045179,217.259423 113.035991,217.836993 111.986779,217.836993" id="Shape"></path>
                <path d="M100.554081,174.949545 C100.176707,174.949545 99.7936163,174.875205 99.4276785,174.715086 C97.9782216,174.094627 97.3035238,172.413383 97.9267616,170.96088 L106.503429,150.94607 C106.680681,150.531478 106.952275,150.168352 107.298201,149.876707 L124.448678,135.580415 C125.669423,134.568237 127.467665,134.736934 128.479711,135.9464 C129.488899,137.161585 129.323084,138.962918 128.113774,139.975095 L111.486473,153.831062 L103.1814,173.216835 C102.71826,174.297634 101.66333,174.949545 100.554081,174.949545" id="Shape"></path>
                <path d="M120.563447,117.761516 C119.085401,117.761516 117.833208,116.623531 117.715993,115.12242 C117.701699,114.950865 116.237947,97.7467064 106.271859,97.7467064 C101.377441,97.7467064 97.6122838,96.2942031 95.0821668,93.4292261 C91.2941385,89.1374791 91.9688364,83.3417621 92.0002842,83.0958659 C92.1946886,81.5318515 93.6155566,80.4110221 95.1908046,80.6140295 C96.7517581,80.8113183 97.8610072,82.2295105 97.6751794,83.7906657 C97.6637438,83.8964582 97.3321127,87.3675981 99.3962307,89.6750197 C100.794228,91.2390341 103.109928,92.0281894 106.271859,92.0281894 C121.521175,92.0281894 123.348005,113.761413 123.416618,114.687813 C123.536692,116.260405 122.358829,117.632849 120.78644,117.752938 C120.712109,117.758657 120.634919,117.761516 120.563447,117.761516" id="Shape"></path>
                <path d="M150.48401,118.522365 C161.830942,148.598905 194.307924,146.400135 194.671003,146.362965 C202.132704,146.354387 207.364472,144.733187 210.034674,141.662344 C211.858646,139.566507 212.121663,137.24193 212.124522,136.08393 C205.843542,130.03088 173.106401,122.519608 150.48401,118.522365 M193.067166,152.121511 C185.059417,152.121511 153.125624,149.908445 143.542627,115.674543 C143.279609,114.733847 143.514038,113.72167 144.168724,112.995418 C144.817692,112.266307 145.786855,111.926055 146.761737,112.083315 C157.139505,113.79887 209.297081,122.885593 217.179038,133.178924 C217.467786,133.553487 217.656473,133.993812 217.730804,134.459872 C217.770829,134.700049 218.637072,140.378537 214.451658,145.296461 C210.626464,149.794075 204.04816,152.072904 194.896855,152.072904 C194.873984,152.075763 194.21644,152.121511 193.067166,152.121511" id="Shape"></path>
                <path d="M157.734725,217.836993 C156.685513,217.836993 155.676325,217.259423 155.173161,216.255823 L143.737603,193.381755 C143.383101,192.672659 143.340218,191.843474 143.620389,191.100067 L151.625279,169.747124 L141.204628,156.720343 C140.218311,155.485143 140.418433,153.686669 141.650614,152.700225 C142.888513,151.710922 144.683896,151.913929 145.670213,153.14627 L157.10577,167.442562 C157.734725,168.228858 157.906259,169.289643 157.551756,170.233198 L149.412499,191.940689 L160.290572,213.699646 C160.996718,215.11212 160.422081,216.827675 159.00979,217.536771 C158.600969,217.739778 158.163559,217.836993 157.734725,217.836993" id="Shape"></path>
                <path d="M169.167424,174.949545 C168.058175,174.949545 167.003244,174.297634 166.540104,173.216835 L158.235031,153.831062 L141.607731,139.975095 C140.398421,138.962918 140.232605,137.161585 141.241793,135.9464 C142.256699,134.736934 144.05494,134.568237 145.272827,135.580415 L162.423304,149.876707 C162.769229,150.168352 163.040824,150.531478 163.218075,150.94607 L171.794743,170.96088 C172.417981,172.413383 171.743283,174.094627 170.293826,174.715086 C169.927888,174.875205 169.544797,174.949545 169.167424,174.949545" id="Shape"></path>
                <path d="M149.158058,117.762946 C149.086585,117.762946 149.012254,117.760086 148.940782,117.754368 C147.365534,117.637138 146.184813,116.261835 146.304886,114.686383 C146.373499,113.762843 148.20033,92.0296191 163.449645,92.0296191 C166.611577,92.0296191 168.927277,91.2376045 170.325274,89.6764493 C172.412263,87.3432944 172.049184,83.8206879 172.046325,83.7863768 C171.871933,82.2252216 172.992618,80.8070294 174.553571,80.6240369 C176.080218,80.4238888 177.526816,81.5361403 177.72122,83.0972955 C177.752668,83.3403325 178.427366,89.1360495 174.639338,93.4306557 C172.109221,96.2956327 168.344064,97.7481361 163.449645,97.7481361 C153.440674,97.7481361 152.019806,114.946576 152.005511,115.120991 C151.891156,116.622101 150.638962,117.762946 149.158058,117.762946" id="Shape"></path>
            </g>
        </g>
    </g>
</svg>