<?xml version="1.0" encoding="UTF-8" standalone="no"?>
<svg width="300px" height="300px" viewBox="0 0 300 300" version="1.1" xmlns="http://www.w3.org/2000/svg" xmlns:xlink="http://www.w3.org/1999/xlink">
    <!-- Generator: Sketch 42 (36781) - http://www.bohemiancoding.com/sketch -->
    <title>Group Copy 13</title>
    <desc>Created with Sketch.</desc>
    <defs></defs>
    <g id="Page-1" stroke="none" stroke-width="1" fill="none" fill-rule="evenodd">
        <g id="Artboard" transform="translate(-717.000000, -706.000000)">
            <g id="funding" transform="translate(733.000000, 724.000000)">
                <ellipse id="Oval-Copy" fill="#4D5456" cx="131.91579" cy="131.91579" rx="131.91579" ry="131.91579"></ellipse>
                <g id="icon" transform="translate(82.338909, 83.000000)" fill-rule="nonzero" fill="#E9E9E9">
                    <path d="M54.3667174,60.4102455 L75.0365246,60.4102455 L75.0365246,54.1794938 L54.3667174,54.1794938 L54.3667174,60.4102455 Z M52.1145952,49.6989352 L77.2886468,49.6989352 C78.5324595,49.6989352 79.540769,50.7019424 79.540769,51.9392145 L79.540769,62.6505247 C79.540769,63.8877968 78.5324595,64.890804 77.2886468,64.890804 L52.1145952,64.890804 C50.8707824,64.890804 49.862473,63.8877968 49.862473,62.6505247 L49.862473,51.9392145 C49.862473,50.7019424 50.8707824,49.6989352 52.1145952,49.6989352 Z" id="Rectangle-path"></path>
                    <path d="M62.4494977,38.255225 L62.4494977,51.9392145 C62.4494977,53.1764866 63.4578072,54.1794938 64.7016199,54.1794938 C65.9454327,54.1794938 66.9537421,53.1764866 66.9537421,51.9392145 L66.9537421,38.255225 C66.9537421,37.0179529 65.9454327,36.0149457 64.7016199,36.0149457 C63.4578072,36.0149457 62.4494977,37.0179529 62.4494977,38.255225 Z" id="Shape"></path>
                    <path d="M45.8951035,3.19109677 C45.7892961,1.88700526 46.8246781,0.770594358 48.1399263,0.770594358 L81.2633099,0.770594358 C82.5785581,0.770594358 83.6139402,1.88700526 83.5081327,3.19109677 L81.7404385,24.9781776 C81.0289497,33.7457292 73.6087561,40.495504 64.7016201,40.495504 C55.7943489,40.495504 48.3741403,33.745717 47.6627949,24.978144 L45.8951035,3.19109677 Z M52.1524409,24.6177005 C52.6742762,31.0494976 58.1329164,36.0149455 64.7016201,36.0149455 C71.2702007,36.0149455 76.7288546,31.0494842 77.2507956,24.6176977 L78.8220996,5.25115288 L50.5811366,5.25115288 L52.1524409,24.6177005 Z" id="Shape"></path>
                    <path d="M87.8613114,13.6062633 C86.7262454,18.7187011 83.1401799,22.9734744 78.2398293,25.0155059 C77.092612,25.4935643 76.5522002,26.8062202 77.0327859,27.9474048 C77.5133715,29.0885894 78.8329665,29.6261594 79.9801838,29.1481009 C86.2282032,26.5444806 90.8079527,21.1107271 92.2595679,14.5725239 L93.7572636,7.82677628 C94.1459515,6.07609347 92.412673,4.60308737 90.7350169,5.25835586 L79.740223,9.55276517 C78.582461,10.0049704 78.0124322,11.3051713 78.467028,12.4568452 C78.9216238,13.608519 80.228698,14.1755503 81.38646,13.723345 L88.4476499,10.9653451 L87.8613114,13.6062633 Z" id="Shape"></path>
                    <path d="M47.87717,13.723345 C49.034932,14.1755503 50.3420062,13.608519 50.796602,12.4568452 C51.2511978,11.3051713 50.681169,10.0049704 49.523407,9.55276517 L38.5286131,5.25835586 C36.8509564,4.60308716 35.1176777,6.07609437 35.5063666,7.82677753 L37.0040665,14.5725256 C38.455687,21.1107322 43.0354315,26.5444828 49.2834508,29.1481012 C50.4306682,29.6261593 51.7502631,29.088589 52.2308484,27.9474042 C52.7114337,26.8062195 52.1710216,25.4935638 51.0238042,25.0155057 C46.1234545,22.973476 42.5373932,18.7187054 41.4023224,13.6062623 L40.8159828,10.9653462 L47.87717,13.723345 Z" id="Shape"></path>
                    <path d="M22.8543907,91.1940303 C22.8543907,93.9044008 20.6331561,96.092839 17.9038616,96.092839 L2.25624821,96.092839 C1.01243547,96.092839 0.00412602211,95.0898318 0.00412602211,93.8525597 L0.00412602211,56.8702332 C0.00412602211,55.6329611 1.01243547,54.6299539 2.25624821,54.6299539 L17.9038616,54.6299539 C20.6331543,54.6299539 22.8543907,56.8183984 22.8543907,59.5287626 L22.8543907,91.1940303 Z M17.9038616,91.6122804 C18.1551613,91.6122804 18.3501464,91.4201743 18.3501464,91.1940303 L18.3501464,59.5287626 C18.3501464,59.3026227 18.1551575,59.1105124 17.9038616,59.1105124 L4.50837039,59.1105124 L4.50837039,91.6122804 L17.9038616,91.6122804 Z" id="Shape"></path>
                    <path d="M80.3220875,68.1381733 C87.1482016,65.3004756 95.0185148,68.4529265 97.9044786,75.1920851 C98.3943054,76.3359042 97.8541119,77.6577135 96.7009142,78.137109 L60.5929573,93.1475383 C54.9563559,95.4908313 48.6986222,95.9574046 42.7689534,94.4766955 L42.5519121,94.4107715 L19.836886,86.2456892 C18.9446579,85.9249713 18.3501464,85.0824575 18.3501464,84.1387517 L18.3501464,62.9994593 C18.3501464,61.7621872 19.3584558,60.75918 20.6022685,60.75918 L26.7966724,60.75918 C29.0751419,60.75918 31.3127796,61.358026 33.2794045,62.4945149 L39.2882866,65.9669808 C40.5672567,66.7060823 42.0242084,67.0960011 43.5084091,67.0960011 L58.3485735,67.0960011 C62.4858931,67.0960011 65.825606,70.3893781 65.8721493,74.4426331 L80.3220875,68.1381733 Z M58.05032,81.9647975 L40.6351511,81.9647895 C39.3913383,81.964789 38.3830294,80.9617813 38.3830299,79.7245092 C38.3830305,78.4872372 39.3913404,77.4842304 40.6351532,77.484231 L58.050321,77.484239 C59.8094625,77.484239 61.2832989,76.2101632 61.3640434,74.6914978 C61.4541636,72.9965085 60.0822604,71.5765597 58.3485735,71.5765597 L43.5084091,71.5765597 C41.2299455,71.5765597 38.9923068,70.9777083 37.025677,69.8412166 L31.0167949,66.3687506 C29.7378326,65.6296537 28.2808824,65.2397385 26.7966724,65.2397385 L22.8543907,65.2397385 L22.8543907,82.5662337 L43.9734099,90.1576196 C48.9285676,91.370591 54.1506476,90.9696759 58.8561308,89.0134749 L92.5987689,74.9863316 C90.1837199,71.9090911 85.8827169,70.6825762 82.0951228,72.2568124 L61.8048513,81.1097642 C61.670098,81.1685591 61.5326947,81.2131817 61.394327,81.2442865 C60.3710176,81.7073698 59.2337012,81.9647975 58.05032,81.9647975 Z" id="Shape"></path>
                </g>
            </g>
        </g>
    </g>
</svg>