<?xml version="1.0" encoding="UTF-8" standalone="no"?>
<svg width="300px" height="300px" viewBox="0 0 300 300" version="1.1" xmlns="http://www.w3.org/2000/svg" xmlns:xlink="http://www.w3.org/1999/xlink">
    <!-- Generator: Sketch 42 (36781) - http://www.bohemiancoding.com/sketch -->
    <title>Group Copy 5</title>
    <desc>Created with Sketch.</desc>
    <defs></defs>
    <g id="Page-1" stroke="none" stroke-width="1" fill="none" fill-rule="evenodd">
        <g id="Artboard" transform="translate(-1374.000000, -63.000000)" fill-rule="nonzero" fill="#09979B">
            <g id="database" transform="translate(1426.000000, 101.000000)">
                <path d="M98.6184169,222.884932 C147.24636,222.884932 196.456041,211.956905 196.456041,191.055727 L196.456041,31.9097007 C196.456041,11.0085226 147.24636,0.0804955131 98.6184169,0.0804955131 C49.9904735,0.0804955131 0.780792809,11.0085226 0.780792809,31.9097007 L0.780792809,191.055727 C0.780792809,211.956905 49.9904735,222.884932 98.6184169,222.884932 Z M98.6184169,10.6902306 C155.919533,10.6902306 185.879001,24.5094105 185.879001,31.9097007 C185.879001,39.3099909 155.919533,53.1291709 98.6184169,53.1291709 C41.3173003,53.1291709 11.3578332,39.3099909 11.3578332,31.9097007 C11.3578332,24.5094105 41.3173003,10.6902306 98.6184169,10.6902306 Z M11.3578332,47.1611949 C28.413311,58.089222 63.6877408,63.7389059 98.6184169,63.7389059 C133.549093,63.7389059 168.823523,58.089222 185.879001,47.1611949 L185.879001,84.9583761 C185.879001,92.3586663 155.919533,106.177846 98.6184169,106.177846 C41.3173003,106.177846 11.3578332,92.3586663 11.3578332,84.9583761 L11.3578332,47.1611949 Z M11.3578332,100.20987 C28.413311,111.137897 63.6877408,116.787581 98.6184169,116.787581 C133.549093,116.787581 168.823523,111.137897 185.879001,100.20987 L185.879001,138.007051 C185.879001,145.407342 155.919533,159.226522 98.6184169,159.226522 C41.3173003,159.226522 11.3578332,145.407342 11.3578332,138.007051 L11.3578332,100.20987 Z M11.3578332,153.258546 C28.413311,164.186573 63.6877408,169.836257 98.6184169,169.836257 C133.549093,169.836257 168.823523,164.186573 185.879001,153.258546 L185.879001,191.055727 C185.879001,198.456017 155.919533,212.275197 98.6184169,212.275197 C41.3173003,212.275197 11.3578332,198.456017 11.3578332,191.055727 L11.3578332,153.258546 Z" id="Shape"></path>
                <ellipse id="Oval" cx="159.511175" cy="186.445739" rx="8.30355796" ry="8.32922504"></ellipse>
                <ellipse id="Oval" cx="159.511175" cy="130.917572" rx="8.30355796" ry="8.32922504"></ellipse>
                <ellipse id="Oval" cx="159.511175" cy="75.3894052" rx="8.30355796" ry="8.32922504"></ellipse>
            </g>
        </g>
    </g>
</svg>