<?xml version="1.0" encoding="UTF-8" standalone="no"?>
<svg width="300px" height="300px" viewBox="0 0 300 300" version="1.1" xmlns="http://www.w3.org/2000/svg" xmlns:xlink="http://www.w3.org/1999/xlink">
    <!-- Generator: Sketch 42 (36781) - http://www.bohemiancoding.com/sketch -->
    <title>Group Copy 3</title>
    <desc>Created with Sketch.</desc>
    <defs></defs>
    <g id="Page-1" stroke="none" stroke-width="1" fill="none" fill-rule="evenodd">
        <g id="Artboard" transform="translate(-77.000000, -61.000000)" fill-rule="nonzero" fill="#09979B">
            <g id="targets" transform="translate(97.000000, 81.000000)">
                <path d="M228.156263,0.995434314 C226.686974,1.02702082 225.217108,1.85401292 224.364308,2.52091888 L198.364308,25.4929218 C197.161374,26.5777172 196.453596,28.1856999 196.468619,29.8001723 L196.468619,56.0923475 L178.232508,74.2186935 C159.304219,57.3372577 134.302041,47.0291744 106.913063,47.0291744 C47.9485298,47.0291744 0.0241748,94.664781 0.0241748,153.274659 C0.0241748,211.883991 47.9485298,259.520172 106.913063,259.520172 C165.877596,259.520172 213.801952,211.883991 213.801952,153.274659 C213.801952,126.029002 203.455396,101.114515 186.447641,82.2947882 L204.593619,64.2581766 L231.135285,64.2581766 C232.772996,64.2495621 234.393663,63.5123618 235.468619,62.2840201 L258.579738,36.4405169 C260.021294,34.7921895 260.389338,32.2925772 259.482805,30.3029146 C258.576272,28.313252 256.443694,26.9390668 254.246405,26.9286719 L234.024174,26.9286719 L234.024174,6.82816942 C234.073285,3.76134961 231.241596,0.947508973 228.156263,0.995434314 L228.156263,0.995434314 Z M222.468619,19.5704523 L222.468619,32.6716726 C222.468908,35.6786217 225.221152,38.4143862 228.246396,38.4146734 L241.336538,38.4146734 L228.517374,52.7721752 L208.024174,52.7721752 L208.024174,32.3127351 L222.468619,19.5704523 Z M106.913063,58.5151759 C131.18493,58.5151759 153.292152,67.4915147 170.107508,82.2947882 L153.676952,98.6264465 C141.069263,87.9598564 124.725085,81.4871788 106.913063,81.4871788 C67.0946409,81.4871788 34.6908409,113.695075 34.6908409,153.274659 C34.6908409,192.85341 67.0946409,225.062168 106.913063,225.062168 C146.731774,225.062168 179.135285,192.85341 179.135285,153.274659 C179.135285,135.545154 172.650019,119.24135 161.892085,106.702541 L178.32293,90.370883 C193.222952,107.086748 202.246396,129.141996 202.246396,153.274659 C202.246396,205.676382 159.632396,248.034171 106.913063,248.034171 C54.1937298,248.034171 11.5797304,205.676382 11.5797304,153.274659 C11.5797304,100.872391 54.1937298,58.5151759 106.913063,58.5151759 L106.913063,58.5151759 Z M106.913063,92.9731802 C121.60133,92.9731802 135.070485,98.1091744 145.551952,106.702541 L126.95473,125.277531 C121.27893,121.243762 114.387485,118.816683 106.913063,118.816683 C87.8357076,118.816683 72.2463964,134.311558 72.2463964,153.274659 C72.2463964,172.237186 87.8357076,187.732663 106.913063,187.732663 C125.990419,187.732663 141.57973,172.237186 141.57973,153.274659 C141.57973,145.883704 139.190041,138.978894 135.169863,133.353625 L153.767374,114.86837 C162.412663,125.286719 167.57973,138.674515 167.57973,153.274659 C167.57973,186.6458 140.486574,213.576167 106.913063,213.576167 C73.3398409,213.576167 46.2463964,186.6458 46.2463964,153.274659 C46.2463964,119.902685 73.3398409,92.9731802 106.913063,92.9731802 L106.913063,92.9731802 Z M106.913063,130.302656 C111.219241,130.302656 115.209952,131.432592 118.649174,133.443503 L102.850708,149.146877 C100.627996,151.244508 100.565308,155.185068 102.720708,157.351328 C104.875819,159.517301 108.840819,159.498923 110.975419,157.313999 L126.864308,141.610337 C128.857641,145.010481 130.024174,149.02972 130.024174,153.275808 C130.024174,166.030725 119.745219,176.24781 106.913063,176.24781 C94.0809076,176.24781 83.801952,166.030725 83.801952,153.275808 C83.801952,140.520316 94.0809076,130.303805 106.913063,130.303805 L106.913063,130.302656 Z" id="Shape"></path>
            </g>
        </g>
    </g>
</svg>