<?xml version="1.0" encoding="UTF-8" standalone="no"?>
<svg width="300px" height="300px" viewBox="0 0 300 300" version="1.1" xmlns="http://www.w3.org/2000/svg" xmlns:xlink="http://www.w3.org/1999/xlink">
    <!-- Generator: Sketch 42 (36781) - http://www.bohemiancoding.com/sketch -->
    <title>Group Copy 14</title>
    <desc>Created with Sketch.</desc>
    <defs></defs>
    <g id="Page-1" stroke="none" stroke-width="1" fill="none" fill-rule="evenodd">
        <g id="Artboard" transform="translate(-1364.000000, -716.000000)">
            <g id="Internship" transform="translate(1380.000000, 734.000000)">
                <ellipse id="Oval-Copy" fill="#4D5456" cx="131.91579" cy="131.91579" rx="131.91579" ry="131.91579"></ellipse>
                <path d="M132.574651,105.209211 C132.303557,105.200026 132.033086,105.240673 131.776826,105.329108 L108.629099,113.318349 C108.628732,113.318462 108.628364,113.318575 108.627997,113.318689 L85.4802687,121.321642 C84.5939451,121.628379 84.0000494,122.459486 84.0002978,123.392738 C84.0005462,124.32599 84.5948842,125.156784 85.481371,125.463054 L99.1561673,130.182643 L99.1561673,147.025705 C99.1562177,147.74515 99.5112273,148.418783 100.106106,148.82822 C121.378647,163.468341 143.241786,163.420878 164.886013,148.840278 C165.491444,148.432473 165.854138,147.752667 165.854249,147.025485 L165.854249,130.178587 L176.590826,126.472952 L176.590826,135.613757 C176.579442,136.404395 176.997077,137.139867 177.683777,137.538491 C178.370477,137.937114 179.219826,137.937114 179.906526,137.538491 C180.593226,137.139867 181.010861,136.404395 180.999476,135.613757 L180.999476,123.392069 C180.999303,123.348645 180.997833,123.305237 180.995067,123.2619 C180.995078,123.257918 180.995078,123.253935 180.995067,123.249952 C180.942723,122.229218 180.188054,121.379877 179.175876,121.202545 L156.371948,113.318459 C156.371581,113.318345 156.371213,113.318232 156.370846,113.318119 L133.223118,105.328867 C133.014407,105.256847 132.795995,105.216433 132.575203,105.208981 L132.574651,105.209211 Z M132.499476,109.720575 L154.923562,117.459761 L154.924664,117.460101 L172.077461,123.390293 L154.924664,129.310543 C154.924296,129.310656 154.923929,129.31077 154.923562,129.310883 L132.499476,137.06342 L110.075832,129.310883 C110.075465,129.31077 110.075097,129.310656 110.07473,129.310543 L92.9219332,123.390293 L110.07473,117.460101 L110.075832,117.459761 L132.499476,109.720575 L132.499476,109.720575 Z M161.445599,131.700487 L161.445599,145.853478 C141.584739,158.841476 123.050574,158.875676 103.564817,145.866632 L103.564817,131.703666 L108.628107,133.451374 L108.629209,133.451703 L131.775945,141.454283 C132.24476,141.61635 132.754854,141.61635 133.22367,141.454283 L156.370405,133.451703 L156.371507,133.451374 L161.44582,131.699939 L161.445599,131.700487 Z" id="Shape" fill="#E9E9E9"></path>
                <path d="M178.761863,141.814589 C177.545272,141.832863 176.573596,142.827844 176.590826,144.037699 L176.590826,148.99911 C176.579442,149.789748 176.997077,150.525221 177.683777,150.923844 C178.370477,151.322468 179.219826,151.322468 179.906526,150.923844 C180.593226,150.525221 181.010861,149.789748 180.999476,148.99911 L180.999476,144.037699 C181.007915,143.445198 180.774809,142.874534 180.353269,142.455727 C179.93173,142.03692 179.357663,141.805643 178.761863,141.814589 L178.761863,141.814589 Z" id="Shape" fill="#E9E9E9"></path>
            </g>
        </g>
    </g>
</svg>