<?xml version="1.0" encoding="UTF-8" standalone="no"?>
<svg width="300px" height="300px" viewBox="0 0 300 300" version="1.1" xmlns="http://www.w3.org/2000/svg" xmlns:xlink="http://www.w3.org/1999/xlink">
    <!-- Generator: Sketch 42 (36781) - http://www.bohemiancoding.com/sketch -->
    <title>Group Copy 2</title>
    <desc>Created with Sketch.</desc>
    <defs></defs>
    <g id="Page-1" stroke="none" stroke-width="1" fill="none" fill-rule="evenodd">
        <g id="Artboard" transform="translate(-402.000000, -61.000000)" fill="#09979B">
            <g id="compound" transform="translate(422.000000, 81.000000)">
                <path d="M130,135.871654 C129.169997,135.871654 128.339995,135.657733 127.596518,135.229891 L72.7842989,103.70048 C71.2973445,102.844795 70.3808165,101.264334 70.3808165,99.5529653 L70.3808165,36.4941424 C70.3808165,34.7827738 71.2973445,33.2023122 72.7842989,32.3466279 L127.596518,0.820409262 C129.083472,-0.0384678711 130.916528,-0.0384678711 132.403482,0.820409262 L187.215701,32.3498207 C188.702656,33.205505 189.619184,34.7859666 189.619184,36.4973352 L189.619184,99.5561581 C189.619184,101.267527 188.702656,102.847988 187.215701,103.703673 L132.403482,135.229891 C131.660005,135.657733 130.830003,135.871654 130,135.871654 Z M79.9947463,96.7879556 L130,125.552357 L180.005254,96.7879556 L180.005254,39.259152 L130,10.4947502 L79.9947463,39.259152 L79.9947463,96.7879556 Z" id="Shape" fill-rule="nonzero"></path>
                <path d="M59.9945676,259.862861 C59.164565,259.862861 58.3345624,259.64894 57.5910852,259.221098 L2.77886657,227.691686 C1.29191209,226.836002 0.375384114,225.25554 0.375384114,223.544172 L0.375384114,160.485349 C0.375384114,158.77398 1.29191209,157.193519 2.77886657,156.337834 L57.5910852,124.808423 C59.0780397,123.949546 60.9110956,123.949546 62.3980501,124.808423 L117.210269,156.337834 C118.697223,157.193519 119.613751,158.77398 119.613751,160.485349 L119.613751,223.544172 C119.613751,225.25554 118.697223,226.836002 117.210269,227.691686 L62.3980501,259.221098 C61.6545728,259.64894 60.8245702,259.862861 59.9945676,259.862861 Z M9.99251859,220.782355 L59.9977723,249.546757 L110.003026,220.782355 L110.003026,163.253551 L59.9977723,134.48915 L9.99251859,163.253551 L9.99251859,220.782355 Z" id="Shape" fill-rule="nonzero"></path>
                <path d="M200.005432,259.862861 C199.17543,259.862861 198.345427,259.64894 197.60195,259.221098 L142.789731,227.691686 C141.302777,226.836002 140.386249,225.25554 140.386249,223.544172 L140.386249,160.485349 C140.386249,158.77398 141.302777,157.193519 142.789731,156.337834 L197.60195,124.808423 C199.088904,123.949546 200.92196,123.949546 202.408915,124.808423 L257.221133,156.337834 C258.708088,157.193519 259.624616,158.77398 259.624616,160.485349 L259.624616,223.544172 C259.624616,225.25554 258.708088,226.836002 257.221133,227.691686 L202.408915,259.221098 C201.665438,259.64894 200.835435,259.862861 200.005432,259.862861 Z M150.000179,220.782355 L200.005432,249.546757 L250.010686,220.782355 L250.010686,163.253551 L200.005432,134.48915 L150.000179,163.253551 L150.000179,220.782355 Z" id="Shape" fill-rule="nonzero"></path>
                <rect id="Rectangle" transform="translate(40.386682, 226.901411) scale(1, -1) rotate(60.000000) translate(-40.386682, -226.901411) " x="36.6954136" y="205.492053" width="7.38253723" height="42.8187159" rx="2"></rect>
                <rect id="Rectangle" transform="translate(40.386682, 226.901411) scale(1, -1) rotate(60.000000) translate(-40.386682, -226.901411) " x="36.6954136" y="205.492053" width="7.38253723" height="42.8187159" rx="2"></rect>
                <rect id="Rectangle-Copy-4" transform="translate(110.073806, 32.901411) rotate(60.000000) translate(-110.073806, -32.901411) " x="106.382537" y="11.4920534" width="7.38253723" height="42.8187159" rx="2"></rect>
                <rect id="Rectangle-Copy-2" transform="translate(240.691269, 191.409358) scale(1, -1) translate(-240.691269, -191.409358) " x="237" y="170" width="7.38253723" height="42.8187159" rx="2"></rect>
            </g>
        </g>
    </g>
</svg>