<?xml version="1.0" encoding="UTF-8" standalone="no"?>
<svg width="300px" height="300px" viewBox="0 0 300 300" version="1.1" xmlns="http://www.w3.org/2000/svg" xmlns:xlink="http://www.w3.org/1999/xlink">
    <!-- Generator: Sketch 42 (36781) - http://www.bohemiancoding.com/sketch -->
    <title>Group Copy 15</title>
    <desc>Created with Sketch.</desc>
    <defs></defs>
    <g id="Page-1" stroke="none" stroke-width="1" fill="none" fill-rule="evenodd">
        <g id="Artboard" transform="translate(-1685.000000, -716.000000)">
            <g id="rdf" transform="translate(1701.000000, 734.000000)">
                <ellipse id="Oval-Copy" fill="#4D5456" cx="131.91579" cy="131.91579" rx="131.91579" ry="131.91579"></ellipse>
                <path d="M101.151786,112.870136 L101.151786,151.391769 L134.647017,170.652585 L168.142248,151.391769 L168.142248,112.870136 L134.647017,93.6093198 L101.151786,112.870136 Z M171.106534,111.165578 L171.106534,153.096327 L134.647017,174.061701 L98.1875,153.096327 L98.1875,111.165578 L134.647017,90.200204 L171.106534,111.165578 Z" id="Polygon" fill="#E9E9E9" fill-rule="nonzero"></path>
                <path d="M135.388089,133.435867 L133.905946,133.435867 L134.647017,133.009728 L135.388089,133.435867 Z M168.88332,113.322772 L170.365463,115.879609 L134.647017,136.418844 L98.9285714,115.879609 L100.410714,113.322772 L134.647017,133.009728 L168.88332,113.322772 Z" id="Polygon-Copy" fill="#E9E9E9" fill-rule="nonzero"></path>
                <ellipse id="Oval-2" fill="#E9E9E9" cx="134.5" cy="92.6428571" rx="6.66964286" ry="6.64285714"></ellipse>
                <ellipse id="Oval-2-Copy" fill="#E9E9E9" cx="134.5" cy="172.357143" rx="6.66964286" ry="6.64285714"></ellipse>
                <ellipse id="Oval-2-Copy-2" fill="#E9E9E9" cx="169.330357" cy="152.428571" rx="6.66964286" ry="6.64285714"></ellipse>
                <ellipse id="Oval-2-Copy-3" fill="#E9E9E9" cx="169.330357" cy="112.571429" rx="6.66964286" ry="6.64285714"></ellipse>
                <ellipse id="Oval-2-Copy-4" fill="#E9E9E9" cx="99.6696429" cy="112.571429" rx="6.66964286" ry="6.64285714"></ellipse>
                <ellipse id="Oval-2-Copy-5" fill="#E9E9E9" cx="99.6696429" cy="151.690476" rx="6.66964286" ry="6.64285714"></ellipse>
                <ellipse id="Oval-2-Copy-6" fill="#E9E9E9" cx="134.5" cy="132.5" rx="6.66964286" ry="6.64285714"></ellipse>
            </g>
        </g>
    </g>
</svg>