<?xml version="1.0" encoding="UTF-8" standalone="no"?>
<svg width="300px" height="300px" viewBox="0 0 300 300" version="1.1" xmlns="http://www.w3.org/2000/svg" xmlns:xlink="http://www.w3.org/1999/xlink">
    <!-- Generator: Sketch 42 (36781) - http://www.bohemiancoding.com/sketch -->
    <title>Group Copy 12</title>
    <desc>Created with Sketch.</desc>
    <defs></defs>
    <g id="Page-1" stroke="none" stroke-width="1" fill="none" fill-rule="evenodd">
        <g id="Artboard" transform="translate(-397.000000, -706.000000)">
            <g id="stats" transform="translate(413.000000, 724.000000)">
                <ellipse id="Oval-Copy" fill="#4D5456" cx="131.91579" cy="131.91579" rx="131.91579" ry="131.91579"></ellipse>
                <path d="M84,87.9160201 L84,174.161107 C84,175.382467 84.999374,176.372514 86.2322404,176.372514 L179.986339,176.372514 C181.219205,176.372514 181.219205,171.9497 179.986339,171.9497 L88.4644807,171.9497 L88.4644807,87.9160201 C88.4644807,86.69466 84,86.69466 84,87.9160201 Z M167.709016,97.8674848 C163.420547,97.8674848 159.896175,101.358965 159.896175,105.60741 C159.896175,107.353537 160.501558,108.937004 161.500597,110.237543 L148.24667,128.999973 C147.685485,128.87149 147.101196,128.827262 146.502732,128.827262 C144.323954,128.827262 142.344515,129.698445 140.922131,131.142273 L131.574624,125.751913 C131.84227,124.974382 131.993169,124.16169 131.993169,123.298689 C131.993169,119.050222 128.468796,115.558742 124.180328,115.558742 C119.891859,115.558742 116.367486,119.050222 116.367486,123.298689 C116.367486,125.044816 116.97287,126.628294 117.971909,127.928822 L104.717981,146.69134 C104.156796,146.562747 103.572507,146.518518 102.974043,146.518518 C98.6855748,146.518518 95.161202,150.009999 95.161202,154.258443 C95.161202,158.506888 98.6855748,161.998368 102.974043,161.998368 C107.262512,161.998368 110.786885,158.506888 110.786885,154.258443 C110.786885,152.185581 109.947005,150.262984 108.589468,148.868138 L121.529542,130.554923 C122.359824,130.855675 123.24993,131.038669 124.180328,131.038669 C125.993911,131.038669 127.662065,130.38763 128.993596,129.345505 L138.864228,135.046844 C138.763778,135.53855 138.68989,136.047838 138.68989,136.567186 C138.68989,140.815631 142.214263,144.307111 146.502732,144.307111 C150.791201,144.307111 154.315574,140.815631 154.315574,136.567186 C154.315574,134.494324 153.475693,132.571727 152.118156,131.176882 L165.058231,112.863589 C165.888512,113.164374 166.778618,113.347334 167.709016,113.347334 C171.997485,113.347334 175.521858,109.855854 175.521858,105.60741 C175.521858,101.358965 171.997485,97.8674848 167.709016,97.8674848 L167.709016,97.8674848 Z M167.709016,102.290299 C169.584656,102.290299 171.057377,103.749231 171.057377,105.60741 C171.057377,107.465589 169.584656,108.92452 167.709016,108.92452 C165.833376,108.92452 164.360656,107.465589 164.360656,105.60741 C164.360656,103.749231 165.833376,102.290299 167.709016,102.290299 Z M124.180328,119.981556 C126.055968,119.981556 127.528688,121.440443 127.528688,123.298689 C127.528688,125.156823 126.055968,126.615799 124.180328,126.615799 C122.304688,126.615799 120.831967,125.156823 120.831967,123.298689 C120.831967,121.440443 122.304688,119.981556 124.180328,119.981556 Z M146.502732,133.250076 C148.378372,133.250076 149.851093,134.708941 149.851093,136.567186 C149.851093,138.425321 148.378372,139.884297 146.502732,139.884297 C144.627092,139.884297 143.154371,138.425321 143.154371,136.567186 C143.154371,134.708941 144.627092,133.250076 146.502732,133.250076 Z M102.974043,150.941333 C104.849684,150.941333 106.322404,152.400308 106.322404,154.258443 C106.322404,156.116578 104.849684,157.575554 102.974043,157.575554 C101.098403,157.575554 99.6256828,156.116578 99.6256828,154.258443 C99.6256828,152.400308 101.098403,150.941333 102.974043,150.941333 L102.974043,150.941333 Z" id="Shape" fill="#E9E9E9" fill-rule="nonzero"></path>
            </g>
        </g>
    </g>
</svg>