<?xml version="1.0" encoding="UTF-8" standalone="no"?>
<svg width="300px" height="300px" viewBox="0 0 300 300" version="1.1" xmlns="http://www.w3.org/2000/svg" xmlns:xlink="http://www.w3.org/1999/xlink">
    <!-- Generator: Sketch 42 (36781) - http://www.bohemiancoding.com/sketch -->
    <title>Group Copy 10</title>
    <desc>Created with Sketch.</desc>
    <defs></defs>
    <g id="Page-1" stroke="none" stroke-width="1" fill="none" fill-rule="evenodd">
        <g id="Artboard" transform="translate(-724.000000, -383.000000)" fill="#27A4A8">
            <g id="sure" transform="translate(739.000000, 398.000000)">
                <path d="M134.91579,269.83158 C60.4038567,269.83158 0,209.427723 0,134.91579 C0,60.4038567 60.4038567,0 134.91579,0 C209.427723,0 269.83158,60.4038567 269.83158,134.91579 C269.83158,209.427723 209.427723,269.83158 134.91579,269.83158 Z M134.91579,263.83158 C206.114015,263.83158 263.83158,206.114015 263.83158,134.91579 C263.83158,63.7175652 206.114015,6 134.91579,6 C63.7175652,6 6,63.7175652 6,134.91579 C6,206.114015 63.7175652,263.83158 134.91579,263.83158 Z" id="Oval" fill-rule="nonzero"></path>
                <path d="M65.6611242,52.052443 L65.6611242,206.582425 L142.432873,206.582425 C141.573008,205.372569 139.730793,202.241265 139.020898,200.928891 L71.3146581,200.928891 L71.3146581,57.7059769 L176.84729,57.7059769 L176.84729,149.197945 C178.12742,149.43219 181.270728,150.186729 182.500824,150.551382 L182.500824,52.052443 L65.6611242,52.052443 Z" id="Shape"></path>
                <path d="M94.2338394,142.153622 L94.2338394,145.919064 L153.930898,145.919064 L153.930898,142.153622 L94.2338394,142.153622 Z" id="Shape"></path>
                <path d="M94.2342917,156.874671 L94.2342917,160.640113 L145.554095,160.640113 C146.822182,159.284584 148.183704,158.024788 149.643333,156.874671 L94.2342917,156.874671 Z" id="Shape"></path>
                <path d="M94.2342917,171.593835 L94.2342917,175.359088 L137.151078,175.359088 C137.524362,174.075171 137.951053,172.815375 138.457722,171.593835 L94.2342917,171.593835 Z" id="Shape"></path>
                <path d="M149.792842,163.1486 C143.860679,169.081448 140.52839,177.127905 140.529083,185.517735 C140.529617,202.9873 154.691342,217.149058 172.160906,217.149634 C189.630464,217.149048 203.792177,202.987292 203.792711,185.517735 C203.793404,177.127908 200.461117,169.081454 194.528958,163.148606 C188.5968,157.215759 180.550733,153.882537 172.160906,153.882255 C163.771076,153.882532 155.725005,157.215751 149.792842,163.1486 Z M184.152579,174.188618 L186.817391,176.853317 L166.831263,196.843271 L164.166451,194.178383 L157.500728,187.516259 L160.16554,184.85156 L166.831263,191.513496 L184.152579,174.188618 L184.152579,174.188618 Z" id="Shape" fill-rule="nonzero"></path>
                <path d="M124.080974,83.209445 L102.721961,93.8944733 L102.721961,95.0575748 L102.721961,120.579455 L124.080974,131.264539 L145.439987,120.579455 L145.439987,93.8944733 L124.080974,83.209445 Z M124.080974,87.4238342 L141.674658,96.2243511 L141.674658,118.249577 L124.080974,127.050094 L106.487271,118.249577 L106.487271,96.2243511 L124.080974,87.4238342 Z" id="Shape" fill-rule="nonzero"></path>
            </g>
        </g>
    </g>
</svg>