<?xml version="1.0" encoding="UTF-8" standalone="no"?>
<svg width="300px" height="300px" viewBox="0 0 300 300" version="1.1" xmlns="http://www.w3.org/2000/svg" xmlns:xlink="http://www.w3.org/1999/xlink">
    <!-- Generator: Sketch 42 (36781) - http://www.bohemiancoding.com/sketch -->
    <title>Group Copy 8</title>
    <desc>Created with Sketch.</desc>
    <defs></defs>
    <g id="Page-1" stroke="none" stroke-width="1" fill="none" fill-rule="evenodd">
        <g id="Artboard" transform="translate(-76.000000, -383.000000)">
            <g id="unichem" transform="translate(94.000000, 401.000000)">
                <ellipse id="Oval-Copy" stroke="#27A4A8" stroke-width="6" fill="#FFFFFF" cx="131.91579" cy="131.91579" rx="131.91579" ry="131.91579"></ellipse>
                <path d="M68.2893293,149.643592 C58.169477,149.643592 50,141.495843 50,131.354263 C50,121.23441 58.147749,113.064933 68.2893293,113.064933 C78.4091815,113.064933 86.5786585,121.212682 86.5786585,131.354263 C86.5786585,141.474115 78.4309096,149.643592 68.2893293,149.643592 Z M68.2893293,143.990058 C75.3051736,143.990058 80.9251247,138.35512 80.9251247,131.354263 C80.9251247,124.338418 75.2901865,118.718467 68.2893293,118.718467 C61.273485,118.718467 55.6535339,124.353405 55.6535339,131.354263 C55.6535339,138.370107 61.288472,143.990058 68.2893293,143.990058 Z" id="Rectangle-path" fill="#27A4A8" fill-rule="nonzero"></path>
                <path d="M163.89147,177.74195 C163.89147,184.757794 169.526408,190.377745 176.527266,190.377745 C183.54311,190.377745 189.163061,184.742807 189.163061,177.74195 C189.163061,170.726105 183.528123,165.106154 176.527266,165.106154 C169.511421,165.106154 163.89147,170.741092 163.89147,177.74195 Z M158.237936,177.74195 C158.237936,167.622097 166.385685,159.45262 176.527266,159.45262 C186.647118,159.45262 194.816595,167.600369 194.816595,177.74195 C194.816595,187.861802 186.668846,196.031279 176.527266,196.031279 C166.407413,196.031279 158.237936,187.88353 158.237936,177.74195 Z" id="Rectangle-path" fill="#27A4A8" fill-rule="nonzero"></path>
                <path d="M110.799413,131.354263 C110.799413,120.672984 119.383832,112.014097 130.139579,112.014097 C140.820857,112.014097 149.479744,120.598516 149.479744,131.354263 C149.479744,142.035541 140.895325,150.694428 130.139579,150.694428 C119.4583,150.694428 110.799413,142.110009 110.799413,131.354263 Z" id="Rectangle-path" fill="#27A4A8"></path>
                <path d="M176.527266,103.255905 C166.407413,103.255905 158.237936,95.1081558 158.237936,84.9665755 C158.237936,74.8467232 166.385685,66.6772462 176.527266,66.6772462 C186.647118,66.6772462 194.816595,74.8249952 194.816595,84.9665755 C194.816595,95.0864278 186.668846,103.255905 176.527266,103.255905 Z M176.527266,97.6023709 C183.54311,97.6023709 189.163061,91.9674328 189.163061,84.9665755 C189.163061,77.9507312 183.528123,72.3307801 176.527266,72.3307801 C169.511421,72.3307801 163.89147,77.9657182 163.89147,84.9665755 C163.89147,91.9824198 169.526408,97.6023709 176.527266,97.6023709 Z" id="Rectangle-path" fill="#27A4A8" fill-rule="nonzero"></path>
                <path d="M83.7518916,134.784662 L114.677016,134.784662 C116.238197,134.784662 117.503783,133.519075 117.503783,131.957895 C117.503783,130.396715 116.238197,129.131128 114.677016,129.131128 L83.7518916,129.131128 C82.1907113,129.131128 80.9251247,130.396715 80.9251247,131.957895 C80.9251247,133.519075 82.1907113,134.784662 83.7518916,134.784662 Z" id="Shape" fill="#27A4A8" fill-rule="nonzero"></path>
                <path d="M167.624985,164.842017 L143.039511,140.256543 C141.93559,139.152622 140.14578,139.152622 139.041859,140.256543 C137.937938,141.360464 137.937938,143.150274 139.041859,144.254195 L163.627333,168.839669 C164.731254,169.94359 166.521064,169.94359 167.624985,168.839669 C168.728906,167.735748 168.728906,165.945938 167.624985,164.842017 Z" id="Shape" fill="#27A4A8" fill-rule="nonzero"></path>
                <path d="M163.627333,93.8688559 L139.041859,118.45433 C137.937938,119.558251 137.937938,121.348061 139.041859,122.451982 C140.14578,123.555903 141.93559,123.555903 143.039511,122.451982 L167.624985,97.866508 C168.728906,96.7625869 168.728906,94.972777 167.624985,93.8688559 C166.521064,92.7649347 164.731254,92.7649347 163.627333,93.8688559 Z" id="Shape" fill="#27A4A8" fill-rule="nonzero"></path>
            </g>
        </g>
    </g>
</svg>