<?xml version="1.0" encoding="UTF-8" standalone="no"?>
<svg width="140px" height="140px" viewBox="0 0 140 140" version="1.1" xmlns="http://www.w3.org/2000/svg" xmlns:xlink="http://www.w3.org/1999/xlink">
    <!-- Generator: Sketch 42 (36781) - http://www.bohemiancoding.com/sketch -->
    <title>antibody</title>
    <desc>Created with Sketch.</desc>
    <defs></defs>
    <g id="Page-1" stroke="none" stroke-width="1" fill="none" fill-rule="evenodd">
        <g id="artboard" fill-rule="nonzero" fill="#E8EAEA">
            <path d="M106.786806,62.687469 C105.630012,62.687469 104.458394,62.3927296 103.382624,61.7737481 C100.120774,59.8898913 99.0032687,55.7193578 100.887125,52.457508 L123.611561,13.0975666 C125.495418,9.83571685 129.665951,8.7182113 132.927801,10.6020681 C136.189651,12.4859248 137.307157,16.6564584 135.4233,19.9183081 L112.698864,59.2782495 C111.436435,61.4641854 109.144865,62.687469 106.78695,62.687469 L106.786806,62.687469 Z M78.9437202,140 C75.2619244,140 72.2801347,137.01821 72.2801347,133.338861 L72.2801347,67.3909225 C72.2801347,66.2414676 72.5797672,65.1091388 73.1472269,64.1070536 L107.538334,3.38095299 C109.350953,0.180555261 113.413406,-0.94932704 116.618696,0.868328476 C119.821541,2.68094694 120.946386,6.74843687 119.131321,9.94869069 L85.6071619,69.147126 L85.6071619,133.338861 C85.6071619,137.01821 82.6253721,140 78.9435763,140 L78.9437202,140 Z M32.551769,62.687469 C33.7085636,62.687469 34.8801814,62.3927296 35.9559514,61.7737481 C39.2178012,59.8898913 40.3353067,55.7193578 38.45145,52.457508 L15.7245676,13.0975666 C13.8431575,9.83571685 9.6701773,8.7182113 6.41077413,10.6020681 C3.14892438,12.4859248 2.03141883,16.6564584 3.91527558,19.9158616 L26.6397113,59.275803 C27.90214,61.4641854 30.19371,62.687469 32.5516251,62.687469 L32.551769,62.687469 Z M60.3924086,140 C64.0742044,140 67.0559941,137.01821 67.0559941,133.338861 L67.0559941,67.3909225 C67.0559941,66.2414676 66.7563616,65.1091388 66.1889019,64.1070536 L31.8002411,3.38095299 C29.9876227,0.180555261 25.9251698,-0.94932704 22.7198789,0.868328476 C19.5170346,2.68094694 18.3921894,6.74599031 20.2048078,9.94869069 L53.7289669,69.147126 L53.7289669,133.338861 C53.7289669,137.01821 56.7132032,140 60.3925525,140 L60.3924086,140 Z" id="Shape"></path>
        </g>
    </g>
</svg>