<?xml version="1.0" encoding="UTF-8" standalone="no"?>
<svg width="140px" height="140px" viewBox="0 0 140 140" version="1.1" xmlns="http://www.w3.org/2000/svg" xmlns:xlink="http://www.w3.org/1999/xlink">
    <!-- Generator: Sketch 42 (36781) - http://www.bohemiancoding.com/sketch -->
    <title>cell</title>
    <desc>Created with Sketch.</desc>
    <defs></defs>
    <g id="Page-1" stroke="none" stroke-width="1" fill="none" fill-rule="evenodd">
        <g id="Artboard-Copy-24" fill-rule="nonzero" fill="#E8EAEA">
            <path d="M45.9536527,99.7833902 C48.454661,97.2823819 51.4558124,92.2805118 52.2061002,90.2797931 C53.2065328,87.5287866 54.7071085,83.0270596 56.7078272,82.026627 C58.4585476,81.0261944 62.9602746,81.526484 66.961712,81.7764822 C69.2125755,81.7764822 74.4645903,81.5263374 76.7154538,80.0257618 C77.9658847,79.2754739 77.4657417,75.7741796 74.7147351,75.7741796 C71.9637286,75.7741796 67.7119999,77.2747552 66.2114242,78.0250431 C63.7104159,79.2754739 60.7092646,79.2754739 57.958258,79.7757635 C57.458115,79.7757635 56.9578254,79.2756205 57.2079702,78.7753309 C58.9586907,76.5244674 60.2091215,73.7734609 62.2098402,72.0227404 C63.4602711,71.0223078 66.7115672,67.7711582 67.7119999,65.2701499 C68.7124325,62.7691416 65.7112811,60.7684229 64.7108485,61.5187108 C62.459985,63.0192864 59.7089785,67.7711582 58.9586907,69.7718769 C57.458115,73.2731713 56.2076841,77.7748983 54.4569637,79.0254757 C52.7062432,80.2760531 47.954518,80.0259083 45.2033649,79.5256187 C43.2026462,79.2754739 37.4503418,80.0257618 34.1991922,81.2763392 C30.9480427,82.5269166 33.6990492,87.028497 35.9499127,86.528354 C39.7013518,85.5279214 43.452791,84.2774905 45.2035115,83.5272027 C48.4548076,82.2767718 50.9556693,82.026627 52.7063898,81.7764822 C53.2065328,81.7764822 53.7068224,82.2766253 53.4566776,82.7769148 C52.456245,84.2774905 51.2058141,86.2782092 48.7048058,88.7792175 C47.454375,90.0296484 44.4532236,93.0307997 42.2023601,96.031951 C40.7017845,97.7826715 43.7029358,102.284398 45.9537993,99.7833902 L45.9536527,99.7833902 Z M139.239489,47.263242 L119.231862,16.2512961 C118.481574,15.0008652 116.980998,14.0004326 115.230278,14.0004326 L68.9625773,13 C67.9621446,13 66.9618586,13.2501448 66.2115707,13.7502878 L20.444013,43.261658 C19.6937252,43.7618011 18.9434374,44.5120889 18.6932926,45.5125215 L0.43623984,88.2789279 C-0.314047992,89.7795036 -0.0639032011,91.530224 0.93638288,92.7806549 L20.9440095,123.792601 C21.6942974,125.043032 23.194873,126.043464 24.9455935,126.043464 L71.463439,127.043897 C72.4638716,127.043897 73.2141595,126.793752 73.9644473,126.293609 L119.732005,96.7822388 C120.482293,96.2820958 121.232581,95.531808 121.482725,94.5313753 L139.739778,51.764969 C140.239921,50.2643933 139.989923,48.5136729 139.239635,47.263242 L139.239489,47.263242 Z M27.4466018,116.289722 L10.1899816,89.5295053 L26.9464587,50.5145381 L70.2130081,22.7538883 L112.72927,23.754321 L129.735745,50.2645398 L112.979268,89.2795071 L69.7127186,117.290302 L27.4464552,116.289869 L27.4466018,116.289722 Z M55.9575393,108.536846 L55.9575393,108.536846 L32.9487614,108.036703 C32.4486183,108.036703 31.9483287,107.786558 31.6983305,107.286415 L21.6944439,92.0305136 C21.4442991,91.5303706 21.4442991,91.030081 21.4442991,90.5299379 L30.4477531,69.2717339 C30.6978979,69.0215891 30.6978979,68.7715908 31.1980409,68.521446 L53.9568206,54.0158325 C54.2069654,53.7656877 54.7071085,53.7656877 54.9572533,53.7656877 L77.9660312,54.2658307 C78.4661743,54.2658307 78.9664639,54.5159755 79.2164621,55.0161185 L89.2203487,70.27202 C89.4704935,70.772163 89.4704935,71.2724526 89.4704935,71.7725956 L80.4670395,93.0307997 C80.2168947,93.2809445 80.2168947,93.5309427 79.7167517,93.7810875 L56.957972,108.286701 C56.7078272,108.536846 56.2076841,108.536846 55.9575393,108.536846 L55.9575393,108.536846 Z M33.9490474,104.785407 L55.4572498,105.28555 L77.2155969,91.2802258 L85.7189078,71.5225974 L76.7154538,57.7672716 L55.2072515,57.2671286 L33.4489044,71.2724526 L24.9455935,91.030081 L33.9490474,104.785407 Z" id="Shape"></path>
        </g>
    </g>
</svg>