<?xml version="1.0" encoding="UTF-8" standalone="no"?>
<svg width="140px" height="140px" viewBox="0 0 140 140" version="1.1" xmlns="http://www.w3.org/2000/svg" xmlns:xlink="http://www.w3.org/1999/xlink">
    <!-- Generator: Sketch 42 (36781) - http://www.bohemiancoding.com/sketch -->
    <title>chirally_pure</title>
    <desc>Created with Sketch.</desc>
    <defs></defs>
    <g id="Page-1" stroke="none" stroke-width="1" fill="none" fill-rule="evenodd">
        <g id="Artboard-Copy-13" fill-rule="nonzero" fill="#E8EAEA">
            <path d="M106.27532,31.8606172 L106.131802,67.2819177 C106.131802,67.2819177 106.145691,69.7525959 103.775337,69.7525959 C101.352514,69.7525959 101.420415,67.2819177 101.420415,67.2819177 L101.420415,16.1861892 C101.420415,11.8246227 97.9266122,8.44019552 93.5763337,8.44019552 C89.2214255,8.44019552 86.1211383,11.8246227 86.1211383,16.1861892 L86.1211383,67.2788255 C86.1211383,67.2788255 85.8541648,69.7757875 83.5146748,69.7757875 C81.1937032,69.7757875 81.0193217,67.2788255 81.0193217,67.2788255 L81.0193217,7.67023447 C81.0193217,3.31176018 77.7384801,2.84217094e-14 73.3866584,2.84217094e-14 C69.0332934,2.84217094e-14 65.7246743,3.31176018 65.7246743,7.67023447 L65.7246743,67.2803716 C65.7246743,67.2803716 65.6058479,69.6706523 63.0996924,69.6706523 C60.6352033,69.6706523 60.6244009,67.2803716 60.6244009,67.2803716 L60.6244009,22.9967885 C60.6244009,18.635222 57.2154738,15.9017056 52.863652,15.9017056 C48.5087439,15.9017056 45.3235807,18.6367681 45.3235807,22.9967885 L45.3235807,87.7152615 C45.3235807,87.7152615 44.8976577,90.5910197 40.778859,85.8413804 C30.22029,73.6688837 24.7141552,71.249227 24.7141552,71.249227 C24.7141552,71.249227 14.7841505,67.8508889 11.1411555,73.8506076 C7.49816052,79.8503263 13.553409,87.7152615 15.7049582,89.9045484 C17.8565075,92.0938352 35.0705651,115.320994 35.0705651,115.320994 C35.0705651,115.320994 52.522605,139.987577 76.0764546,139.987577 C76.0764546,139.987577 122.202679,141.958863 122.202679,96.2374007 L122.042186,31.8606172 C122.037557,27.4959585 118.51289,23.9600128 114.159525,23.9600128 C109.809246,23.9600128 106.27532,27.4975046 106.27532,31.8606172 Z" id="Shape"></path>
        </g>
    </g>
</svg>