<?xml version="1.0" encoding="UTF-8" standalone="no"?>
<svg width="140px" height="140px" viewBox="0 0 140 140" version="1.1" xmlns="http://www.w3.org/2000/svg" xmlns:xlink="http://www.w3.org/1999/xlink">
    <!-- Generator: Sketch 42 (36781) - http://www.bohemiancoding.com/sketch -->
    <title>discontinued</title>
    <desc>Created with Sketch.</desc>
    <defs></defs>
    <g id="Page-1" stroke="none" stroke-width="1" fill="none" fill-rule="evenodd">
        <g id="Artboard-Copy-23" fill-rule="nonzero" fill="#E8EAEA">
            <path d="M79.6895192,66.9891286 C82.2163536,71.4145221 84.5826334,75.8170754 84.6917576,76.2644586 L95.0300967,60.570408 C95.8828054,59.2455606 96.6101769,58.1117653 97.2122114,57.1692417 C97.8142458,56.226718 98.3939299,55.4471377 98.9530167,54.8287438 C99.5121034,54.2103499 100.136598,53.7475427 100.826609,53.4383458 C101.516621,53.1291488 102.316959,52.9755385 103.227516,52.9755385 C104.871141,52.9755385 106.215557,53.468431 107.258901,54.4559726 C108.302244,55.4435143 108.823971,56.6128848 108.823971,57.9677076 C108.823971,59.9390577 107.69276,62.6188377 105.430228,66.0049615 L92.6948166,85.083379 L106.400714,106.238115 C107.634802,108.093297 108.530459,109.631815 109.089546,110.853561 L109.089326,110.853451 C109.648413,112.075196 109.927025,113.23139 109.93075,114.322034 C109.93075,115.352727 109.680186,116.293494 109.180919,117.147958 C108.681762,118.002422 107.97674,118.6789 107.066184,119.179259 C106.155627,119.679618 105.127184,119.930731 103.980963,119.930731 C102.746874,119.930731 101.705393,119.674018 100.852685,119.158727 C99.9999759,118.643435 99.310074,118.004399 98.7808973,117.237994 C98.2517205,116.473347 97.2681967,114.985556 95.8284634,112.778026 L84.4580652,94.84647 L72.3826458,113.306494 C71.4440418,114.779352 70.7746278,115.810045 70.3782382,116.398463 C69.9818486,116.986882 69.5050418,117.560257 68.945955,118.120567 C68.3868682,118.67901 67.7267668,119.121285 66.9620351,119.445414 C66.1973035,119.769544 65.3016472,119.930731 64.2732036,119.930731 C62.6875359,119.930731 61.3730301,119.445414 60.3296863,118.472806 C59.2863426,117.500197 58.7646159,116.08729 58.7646159,114.232108 C58.7646159,112.052797 59.8361167,109.388059 61.9807617,106.238006 L76.4345184,85.0832692 C74.6568878,82.830751 72.5729136,79.6632596 70.4523111,76.2263367 L27.5757294,119.102918 C38.9512932,128.939963 53.7807341,134.890511 70,134.890511 C105.83804,134.890511 134.890511,105.83804 134.890511,70 C134.890511,53.7807341 128.939963,38.9512932 119.102918,27.5757294 L79.6895192,66.9891286 Z M77.0232019,62.4295371 L115.610079,23.84266 C103.889533,12.2602152 87.7798371,5.10948905 70,5.10948905 C34.1619604,5.10948905 5.10948905,34.1619604 5.10948905,70 C5.10948905,87.7798371 12.2602152,103.889533 23.84266,115.610079 L67.7328525,71.7198865 C66.5015372,69.6413638 65.2972143,67.5651102 64.1740515,65.6207711 C62.2930088,62.4126333 60.610161,59.9690331 59.1273704,58.2899708 C57.6427174,56.612775 56.1375765,55.4640469 54.6098662,54.845653 C53.0821558,54.2272591 51.1581655,53.9180622 48.8376761,53.9180622 L44.2547643,53.9180622 L44.2547643,74.7185837 C44.2547643,77.4563381 43.6527298,79.4745728 42.4485514,80.7694448 C41.244373,82.0643168 39.6718525,82.7126861 37.7328524,82.7126861 C35.6479178,82.7126861 34.0324496,82.036208 32.8862286,80.6813852 C31.7400077,79.3265624 31.1678832,77.3383031 31.1678832,74.7185837 L31.1678832,24.9004343 C31.1678832,22.0746202 31.7980747,20.0282767 33.0620731,18.7596469 C34.3260715,17.4947504 36.3678393,16.8613139 39.1875955,16.8613139 L60.4718957,16.8613139 C63.4094294,16.8613139 65.9206635,16.9868153 68.007351,17.2360614 C70.0940385,17.4853076 71.9732186,17.9931328 73.6486164,18.7595371 C75.6755934,19.6121345 77.4667965,20.8357463 79.0244168,22.4248824 C80.5819276,24.0157753 81.7636461,25.8634906 82.571435,27.9679183 C83.3792239,30.0742127 83.7830636,32.3041419 83.7830636,34.6596824 C83.7830636,39.4887984 82.4237476,43.3453056 79.7068686,46.2311803 C76.9881271,49.1169452 74.8377884,51.0470962 69.3143005,52.2539086 C71.6346804,53.4888298 71.8853512,55.4320951 74.0000861,57.8457198 C74.6066579,58.5385219 75.727745,60.2791169 77.0232019,62.4295371 Z M23.9539259,122.724722 L23.7291743,122.949474 L20.1162199,119.336519 L20.2296465,119.223093 C7.72259332,106.577859 0,89.1907837 0,70 C0,31.3400675 31.3400675,0 70,0 C108.659932,0 140,31.3400675 140,70 C140,108.659932 108.659932,140 70,140 C52.3696174,140 36.2615491,133.482197 23.9539259,122.724722 Z M55.9769609,44.5110527 L55.9770705,44.5110527 C59.1221115,44.5110527 61.7661328,44.237431 63.9107778,43.6940305 C66.0554228,43.1487635 67.6934604,42.2210628 68.8246716,40.911258 C69.9558828,39.6014532 70.5205572,37.798756 70.5205572,35.5012998 C70.5205572,33.7042024 70.0642381,32.1226424 69.1536815,30.752777 C68.243125,29.3829116 66.9791266,28.3597947 65.3635488,27.6833166 C63.835948,27.0368139 60.8254472,26.7125744 56.3304028,26.7125744 L44.2549834,26.7125744 L44.2549834,44.5110527 L55.9769609,44.5110527 Z" id="Combined-Shape"></path>
        </g>
    </g>
</svg>