<?xml version="1.0" encoding="UTF-8" standalone="no"?>
<svg width="140px" height="140px" viewBox="0 0 140 140" version="1.1" xmlns="http://www.w3.org/2000/svg" xmlns:xlink="http://www.w3.org/1999/xlink">
    <!-- Generator: Sketch 42 (36781) - http://www.bohemiancoding.com/sketch -->
    <title>first_in_class</title>
    <desc>Created with Sketch.</desc>
    <defs></defs>
    <g id="Page-1" stroke="none" stroke-width="1" fill="none" fill-rule="evenodd">
        <g id="Artboard-Copy-11" fill="#E8EAEA">
            <path d="M70.1023718,140 C43.0511859,140 20.9183974,117.738516 20.9183974,90.5300353 C20.9183974,63.3215548 43.0511859,41.0600707 70.1023718,41.0600707 C97.1535577,41.0600707 119.286346,63.3215548 119.286346,90.5300353 C119.286346,117.738516 97.1535577,140 70.1023718,140 Z M52.7685162,80.9433266 L65.2114876,80.9433266 L65.2114876,117.645155 L75.866466,117.645155 L75.866466,64.4275037 L67.2184184,64.4275037 C67.2184184,64.8923959 67.0846244,65.6019575 66.8170322,66.5562098 C66.3548277,68.1466303 65.6736943,69.4189477 64.7736117,70.3732 C63.4599777,71.7678764 61.7571443,72.6976468 59.6650604,73.162539 C58.3514264,73.4561551 56.0526013,73.6763638 52.7685162,73.8231719 L52.7685162,80.9433266 Z M31.7388718,45.4134276 L16,19.7879859 L52.8879808,-7.10542736e-15 L70.1023718,31.1660777 C55.3471795,31.1660777 40.0017795,38.3886926 31.7388718,45.4134276 Z M108.465872,45.4134276 C100.202964,38.3886926 84.8575641,31.1660777 70.1023718,31.1660777 L87.3167628,0 L124.204744,14.8409894 L108.465872,45.4134276 Z" id="Combined-Shape"></path>
        </g>
    </g>
</svg>