<?xml version="1.0" encoding="UTF-8" standalone="no"?>
<svg width="140px" height="140px" viewBox="0 0 140 140" version="1.1" xmlns="http://www.w3.org/2000/svg" xmlns:xlink="http://www.w3.org/1999/xlink">
    <!-- Generator: Sketch 42 (36781) - http://www.bohemiancoding.com/sketch -->
    <title>inorganic</title>
    <desc>Created with Sketch.</desc>
    <defs></defs>
    <g id="Page-1" stroke="none" stroke-width="1" fill="none" fill-rule="evenodd">
        <g id="inorganic" fill="#E8EAEA">
            <path d="M66.1142182,98.3994998 C58.1902659,97.5834342 51.2442335,93.4857983 46.6695001,87.4943754 L29.691811,97.257083 C29.8873198,98.1470127 29.9903436,99.0714049 29.9903436,100.019763 C29.9903436,107.125245 24.2069863,112.885375 17.0728535,112.885375 C9.93872068,112.885375 4.15536336,107.125245 4.15536336,100.019763 C4.15536336,92.9142812 9.93872068,87.1541502 17.0728535,87.1541502 C21.1942332,87.1541502 24.8648106,89.0765125 27.2299894,92.0700727 L43.6781471,82.6118623 C41.9315661,78.9671017 40.9537823,74.8867373 40.9537823,70.5789165 C40.9537823,67.7186951 41.3848315,64.9587463 42.1857591,62.3599954 L42.1769045,62.3549036 C42.7512176,60.5130797 43.0448783,59.8032102 44.4554104,57.0450716 L44.4545539,57.0445717 C48.7986464,49.2343946 56.7859386,43.713183 66.1316479,42.7565435 L66.1316479,25.3247932 C60.5624403,23.8950756 56.4478535,18.858921 56.4478535,12.8656126 C56.4478535,5.76013099 62.2312108,0 69.3653436,0 C76.4994764,0 82.2828337,5.76013099 82.2828337,12.8656126 C82.2828337,19.0923215 77.8415339,24.2858751 71.9419246,25.4752629 L71.9419246,42.7565435 C81.3131463,43.7157944 89.3185242,49.2645728 93.6545133,57.1085846 L93.6526796,57.1096682 C95.0695217,59.8801452 95.3484295,60.6303729 95.927806,62.4909082 C96.7030809,65.0513672 97.1197902,67.7666734 97.1197902,70.5789165 C97.1197902,74.7364433 96.2090434,78.682108 94.5754167,82.2287982 L112.723475,92.6645053 C115.043628,90.4509435 118.191264,89.0909091 121.657834,89.0909091 C128.791967,89.0909091 134.575324,94.8510401 134.575324,101.956522 C134.575324,109.062003 128.791967,114.822134 121.657834,114.822134 C114.523701,114.822134 108.740344,109.062003 108.740344,101.956522 C108.740344,100.369509 109.028849,98.8496102 109.556472,97.4460136 L91.6594258,87.1546468 C87.0957691,93.3228851 80.0499452,97.5574385 71.9898094,98.3963467 L71.9898094,98.39299 C69.0520138,98.6427369 69.2073714,98.6353933 66.1142182,98.39299 L66.1142182,98.3994999 Z M66.1316479,105.583564 C68.865887,105.812746 69.1802021,105.714206 71.9419246,105.584345 L71.9419246,114.524737 C77.8415339,115.714125 82.2828337,120.907679 82.2828337,127.134387 C82.2828337,134.239869 76.4994764,140 69.3653436,140 C62.2312108,140 56.4478535,134.239869 56.4478535,127.134387 C56.4478535,121.141079 60.5624403,116.104924 66.1316479,114.675207 L66.1316479,105.583564 Z M34.6528939,58.0283599 L24.0848198,51.9513834 C21.7446322,54.2991459 18.5015176,55.7529057 14.9174901,55.7529057 C7.78335732,55.7529057 2,49.9927747 2,42.8872931 C2,35.7818114 7.78335732,30.0216804 14.9174901,30.0216804 C22.0516229,30.0216804 27.8349802,35.7818114 27.8349802,42.8872931 C27.8349802,44.3620468 27.5858468,45.778846 27.1272109,47.0982189 L37.0990847,52.8323614 C35.7577467,54.7041823 35.1609459,56.0914039 34.6528939,58.0283599 Z M103.414341,58.1315256 C102.909191,56.1927055 102.361865,54.6621402 100.823096,53.0189381 L113.238241,45.8798374 C112.832877,44.6315285 112.613861,43.2997365 112.613861,41.916996 C112.613861,34.8115144 118.397219,29.0513834 125.531352,29.0513834 C132.665484,29.0513834 138.448842,34.8115144 138.448842,41.916996 C138.448842,49.0224777 132.665484,54.7826087 125.531352,54.7826087 C121.851821,54.7826087 118.531615,53.2503408 116.178881,50.791512 L103.414341,58.1315256 Z" id="Combined-Shape"></path>
        </g>
    </g>
</svg>