<?xml version="1.0" encoding="UTF-8" standalone="no"?>
<svg width="140px" height="140px" viewBox="0 0 140 140" version="1.1" xmlns="http://www.w3.org/2000/svg" xmlns:xlink="http://www.w3.org/1999/xlink">
    <!-- Generator: Sketch 42 (36781) - http://www.bohemiancoding.com/sketch -->
    <title>Metal containing</title>
    <desc>Created with Sketch.</desc>
    <defs></defs>
    <g id="Page-1" stroke="none" stroke-width="1" fill="none" fill-rule="evenodd">
        <g id="Artboard-Copy-25" fill="#E8EAEA">
            <path d="M3.90092837,13 L3.90092837,85.253168 L18.7765806,85.253168 L18.7765806,34.5545165 L18.9789704,34.5545165 L36.6880802,85.253168 L48.9326647,85.253168 L66.6417745,34.0485419 L66.8441644,34.0485419 L66.8441644,85.253168 L81.7198166,85.253168 L81.7198166,13 L59.3557408,13 L43.3669445,62.6867024 L43.1645547,62.6867024 L26.2650042,13 L3.90092837,13 Z M100.143615,76.3163922 C99.953874,75.2917886 99.6170881,74.5138605 99.1332475,73.9825845 C98.6494069,73.4513086 97.91417,73.1856746 96.9275146,73.1856746 C96.2823938,73.1856746 95.7463824,73.2947743 95.3194642,73.5129769 C94.892546,73.7311795 94.5510166,74.001557 94.2948657,74.3241174 C94.0387148,74.6466778 93.8584632,74.9882072 93.7541054,75.3487159 C93.6497476,75.7092245 93.5880826,76.0317801 93.5691084,76.3163922 L100.143615,76.3163922 Z M93.5691084,78.8778885 C93.6260309,80.1871042 93.9580734,81.135797 94.5652459,81.7239954 C95.1724184,82.3121938 96.0452158,82.6062885 97.1836642,82.6062885 C97.9995523,82.6062885 98.701585,82.4023196 99.2897834,81.9943756 C99.8779818,81.5864315 100.238485,81.1547763 100.371304,80.6993969 L103.928938,80.6993969 C103.359713,82.463992 102.486916,83.7257535 101.310519,84.4847191 C100.134123,85.2436848 98.7110833,85.6231619 97.0413589,85.6231619 C95.8839363,85.6231619 94.8403742,85.4381668 93.9106413,85.068171 C92.9809084,84.6981753 92.1934933,84.1716508 91.5483725,83.4885817 C90.9032517,82.8055126 90.405188,81.9896368 90.0541664,81.0409297 C89.7031448,80.0922227 89.5276366,79.0486606 89.5276366,77.9102121 C89.5276366,76.8097119 89.7078882,75.7851237 90.0683969,74.8364166 C90.4289056,73.8877096 90.9411997,73.0670903 91.6052947,72.3745341 C92.2693896,71.681978 93.0615481,71.1364796 93.981794,70.7380226 C94.9020398,70.3395657 95.9218846,70.1403402 97.0413589,70.1403402 C98.2936522,70.1403402 99.384649,70.3822568 100.314382,70.8660974 C101.244115,71.349938 102.007813,71.9997926 102.605498,72.8156807 C103.203183,73.6315688 103.634839,74.5612877 103.900477,75.6048655 C104.166115,76.6484432 104.260984,77.73944 104.185087,78.8778885 L93.5691084,78.8778885 Z M111.69881,70.5387951 L111.69881,66.1273294 L107.657338,66.1273294 L107.657338,70.5387951 L105.209686,70.5387951 L105.209686,73.2425967 L107.657338,73.2425967 L107.657338,81.9232229 C107.657338,82.6632144 107.780668,83.2608909 108.027332,83.7162702 C108.273995,84.1716496 108.610781,84.522666 109.0377,84.7693298 C109.464618,85.0159936 109.957938,85.1820149 110.517675,85.2673985 C111.077412,85.3527822 111.670345,85.3954733 112.296492,85.3954733 C112.694949,85.3954733 113.102887,85.3859864 113.520318,85.3670123 C113.937749,85.3480381 114.317226,85.3100904 114.658761,85.253168 L114.658761,82.1224504 C114.469019,82.1603986 114.269794,82.1888594 114.061078,82.2078336 C113.852363,82.2268077 113.634163,82.2362946 113.406474,82.2362946 C112.723405,82.2362946 112.268032,82.1224515 112.040342,81.8947618 C111.812653,81.6670721 111.69881,81.2116996 111.69881,80.5286305 L111.69881,73.2425967 L114.658761,73.2425967 L114.658761,70.5387951 L111.69881,70.5387951 Z M116.423347,75.0641052 C116.48027,74.1153981 116.717443,73.3279831 117.134874,72.7018364 C117.552305,72.0756898 118.083573,71.5728826 118.728694,71.1933997 C119.373815,70.8139169 120.099565,70.5435395 120.905966,70.3822593 C121.712367,70.2209791 122.523499,70.1403402 123.339387,70.1403402 C124.079378,70.1403402 124.828846,70.1925183 125.587811,70.2968761 C126.346777,70.4012338 127.039323,70.6052028 127.665469,70.908789 C128.291616,71.2123753 128.80391,71.6345436 129.202367,72.1753066 C129.600824,72.7160697 129.80005,73.4323327 129.80005,74.3241174 L129.80005,81.980145 C129.80005,82.64424 129.837997,83.2798641 129.913894,83.8870367 C129.989791,84.4942092 130.122608,84.9495817 130.312349,85.253168 L126.213955,85.253168 C126.138058,85.0254783 126.076393,84.7930486 126.028958,84.5558718 C125.981523,84.318695 125.948318,84.0767784 125.929344,83.8301145 C125.284223,84.4942095 124.525269,84.9590689 123.652459,85.2247069 C122.779648,85.4903449 121.887877,85.6231619 120.977118,85.6231619 C120.275075,85.6231619 119.620477,85.5377795 119.013304,85.3670123 C118.406132,85.196245 117.874864,84.930611 117.419485,84.5701023 C116.964105,84.2095936 116.608345,83.7542211 116.352194,83.203971 C116.096044,82.6537209 115.96797,81.9991229 115.96797,81.2401572 C115.96797,80.405295 116.115017,79.7174927 116.409117,79.1767297 C116.703216,78.6359667 117.082693,78.2043114 117.547559,77.881751 C118.012426,77.5591906 118.543694,77.317274 119.141379,77.1559938 C119.739065,76.9947136 120.341485,76.86664 120.948657,76.7717693 C121.55583,76.6768986 122.153506,76.6010032 122.741705,76.5440808 C123.329903,76.4871584 123.851684,76.401776 124.307063,76.2879312 C124.762443,76.1740863 125.122946,76.0080651 125.388584,75.7898624 C125.654222,75.5716598 125.777552,75.2538477 125.758578,74.8364166 C125.758578,74.4000114 125.687426,74.0537385 125.54512,73.7975876 C125.402814,73.5414367 125.213075,73.3422112 124.975898,73.1999051 C124.738722,73.0575991 124.463601,72.9627298 124.150527,72.9152944 C123.837454,72.8678591 123.500668,72.8441418 123.140159,72.8441418 C122.343246,72.8441418 121.717108,73.0149065 121.261729,73.356441 C120.80635,73.6979756 120.540716,74.2671912 120.464819,75.0641052 L116.423347,75.0641052 Z M125.758578,78.0525174 C125.587811,78.2043106 125.374355,78.3228972 125.118204,78.4082808 C124.862053,78.4936645 124.586932,78.5648164 124.292833,78.6217388 C123.998734,78.6786613 123.690408,78.7260959 123.367848,78.7640442 C123.045288,78.8019925 122.722732,78.8494271 122.400172,78.9063495 C122.096585,78.963272 121.797747,79.0391674 121.503648,79.1340381 C121.209549,79.2289088 120.953402,79.3569823 120.735199,79.5182625 C120.516996,79.6795427 120.341488,79.8835117 120.208669,80.1301755 C120.07585,80.3768393 120.009442,80.689908 120.009442,81.0693908 C120.009442,81.4298995 120.07585,81.7334812 120.208669,81.980145 C120.341488,82.2268089 120.52174,82.4212909 120.74943,82.5635969 C120.977119,82.705903 121.242753,82.8055157 121.54634,82.8624382 C121.849926,82.9193606 122.162994,82.9478214 122.485555,82.9478214 C123.282469,82.9478214 123.899119,82.8150044 124.335524,82.5493664 C124.77193,82.2837284 125.094485,81.9659163 125.303201,81.5959206 C125.511916,81.2259248 125.63999,80.8511912 125.687425,80.4717083 C125.734861,80.0922255 125.758578,79.7886438 125.758578,79.5609541 L125.758578,78.0525174 Z M133.044612,64.9319645 L133.044612,85.253168 L137.086083,85.253168 L137.086083,64.9319645 L133.044612,64.9319645 Z M10.4736735,112.085632 L14.4297621,112.085632 C14.3728397,111.136925 14.1451534,110.316305 13.7466965,109.623749 C13.3482395,108.931193 12.8312019,108.35249 12.1955682,107.887624 C11.5599345,107.422757 10.8389279,107.076485 10.0325269,106.848795 C9.22612594,106.621105 8.38653279,106.507262 7.5137223,106.507262 C6.31835141,106.507262 5.25581545,106.706488 4.32608254,107.104945 C3.39634962,107.503402 2.60893458,108.058387 1.96381378,108.769917 C1.31869299,109.481447 0.830116182,110.325784 0.498068713,111.302952 C0.166021244,112.280121 7.10542736e-15,113.337913 7.10542736e-15,114.476362 C7.10542736e-15,115.576862 0.180251637,116.58722 0.540760317,117.507465 C0.901268998,118.427711 1.40407619,119.21987 2.04919699,119.883965 C2.69431779,120.54806 3.47698937,121.065097 4.39723521,121.435093 C5.31748105,121.805089 6.32783891,121.990084 7.42833909,121.990084 C9.38267563,121.990084 10.9859665,121.47779 12.2382598,120.453186 C13.4905531,119.428582 14.2495074,117.939135 14.5151454,115.984798 L10.6159789,115.984798 C10.4831599,116.895557 10.1558608,117.621307 9.63407197,118.16207 C9.11228309,118.702833 8.36755922,118.97321 7.39987802,118.97321 C6.77373137,118.97321 6.24246339,118.830907 5.80605814,118.546294 C5.3696529,118.261682 5.02338002,117.896436 4.76722911,117.450543 C4.51107821,117.004651 4.32608311,116.506587 4.21223826,115.956337 C4.09839341,115.406087 4.04147184,114.865332 4.04147184,114.334056 C4.04147184,113.783806 4.09839341,113.228821 4.21223826,112.669084 C4.32608311,112.109346 4.52056514,111.597052 4.79569018,111.132186 C5.07081523,110.667319 5.42657504,110.287842 5.86298028,109.993743 C6.29938553,109.699644 6.84014044,109.552597 7.48526123,109.552597 C9.21190807,109.552597 10.2080355,110.396933 10.4736735,112.085632 Z M20.3781256,114.277134 C20.3781256,114.865332 20.4350472,115.439292 20.5488921,115.999029 C20.6627369,116.558766 20.8572189,117.061573 21.132344,117.507465 C21.407469,117.953358 21.7727158,118.309118 22.2280951,118.574755 C22.6834745,118.840393 23.2526902,118.97321 23.9357593,118.97321 C24.6188284,118.97321 25.1927875,118.840393 25.657654,118.574755 C26.1225205,118.309118 26.4925107,117.953358 26.7676357,117.507465 C27.0427607,117.061573 27.2372428,116.558766 27.3510876,115.999029 C27.4649325,115.439292 27.521854,114.865332 27.521854,114.277134 C27.521854,113.688936 27.4649325,113.110233 27.3510876,112.541009 C27.2372428,111.971785 27.0427607,111.468977 26.7676357,111.032572 C26.4925107,110.596167 26.1225205,110.240407 25.657654,109.965282 C25.1927875,109.690157 24.6188284,109.552597 23.9357593,109.552597 C23.2526902,109.552597 22.6834745,109.690157 22.2280951,109.965282 C21.7727158,110.240407 21.407469,110.596167 21.132344,111.032572 C20.8572189,111.468977 20.6627369,111.971785 20.5488921,112.541009 C20.4350472,113.110233 20.3781256,113.688936 20.3781256,114.277134 Z M16.3366538,114.277134 C16.3366538,113.100737 16.5169054,112.033458 16.8774141,111.075264 C17.2379228,110.11707 17.7502169,109.301194 18.4143119,108.627612 C19.0784068,107.95403 19.8753088,107.432249 20.8050417,107.062253 C21.7347746,106.692257 22.7783367,106.507262 23.9357593,106.507262 C25.0931819,106.507262 26.1414875,106.692257 27.0807075,107.062253 C28.0199274,107.432249 28.8215729,107.95403 29.4856678,108.627612 C30.1497628,109.301194 30.6620569,110.11707 31.0225656,111.075264 C31.3830742,112.033458 31.5633259,113.100737 31.5633259,114.277134 C31.5633259,115.453531 31.3830742,116.516067 31.0225656,117.464774 C30.6620569,118.413481 30.1497628,119.224613 29.4856678,119.898195 C28.8215729,120.571777 28.0199274,121.088815 27.0807075,121.449323 C26.1414875,121.809832 25.0931819,121.990084 23.9357593,121.990084 C22.7783367,121.990084 21.7347746,121.809832 20.8050417,121.449323 C19.8753088,121.088815 19.0784068,120.571777 18.4143119,119.898195 C17.7502169,119.224613 17.2379228,118.413481 16.8774141,117.464774 C16.5169054,116.516067 16.3366538,115.453531 16.3366538,114.277134 Z M34.1817443,106.905717 L34.1817443,121.62009 L38.2232161,121.62009 L38.2232161,113.90714 C38.2232161,112.408183 38.4698762,111.331417 38.9632039,110.676809 C39.4565316,110.022201 40.2534335,109.694902 41.3539337,109.694902 C42.3216149,109.694902 42.9951868,109.99374 43.3746696,110.591426 C43.7541525,111.189111 43.943891,112.095113 43.943891,113.309458 L43.943891,121.62009 L47.9853629,121.62009 L47.9853629,112.56947 C47.9853629,111.658711 47.904724,110.828605 47.7434438,110.079126 C47.5821636,109.329648 47.3022992,108.694024 46.9038422,108.172235 C46.5053853,107.650446 45.9598869,107.242508 45.2673308,106.948409 C44.5747746,106.654309 43.6877468,106.507262 42.6062208,106.507262 C41.7523844,106.507262 40.9175347,106.701744 40.1016467,107.090714 C39.2857586,107.479684 38.6216736,108.101078 38.1093718,108.954914 L38.0239886,108.954914 L38.0239886,106.905717 L34.1817443,106.905717 Z M56.1821508,106.905717 L56.1821508,102.494251 L52.140679,102.494251 L52.140679,106.905717 L49.693027,106.905717 L49.693027,109.609519 L52.140679,109.609519 L52.140679,118.290145 C52.140679,119.030136 52.2640091,119.627813 52.5106729,120.083192 C52.7573367,120.538572 53.0941227,120.889588 53.5210409,121.136252 C53.947959,121.382916 54.4412793,121.548937 55.0010165,121.63432 C55.5607536,121.719704 56.1536866,121.762395 56.7798333,121.762395 C57.1782903,121.762395 57.5862282,121.752908 58.0036593,121.733934 C58.4210904,121.71496 58.8005675,121.677012 59.1421021,121.62009 L59.1421021,118.489372 C58.9523606,118.527321 58.7531351,118.555781 58.5444196,118.574755 C58.335704,118.59373 58.1175047,118.603217 57.889815,118.603217 C57.2067459,118.603217 56.7513734,118.489373 56.5236837,118.261684 C56.295994,118.033994 56.1821508,117.578621 56.1821508,116.895552 L56.1821508,109.609519 L59.1421021,109.609519 L59.1421021,106.905717 L56.1821508,106.905717 Z M60.9066884,111.431027 C60.9636108,110.48232 61.200784,109.694905 61.6182151,109.068758 C62.0356462,108.442612 62.5669142,107.939804 63.212035,107.560322 C63.8571558,107.180839 64.5829058,106.910461 65.3893068,106.749181 C66.1957078,106.587901 67.0068401,106.507262 67.8227282,106.507262 C68.5627197,106.507262 69.312187,106.55944 70.0711527,106.663798 C70.8301183,106.768156 71.5226641,106.972125 72.1488107,107.275711 C72.7749574,107.579297 73.2872515,108.001466 73.6857085,108.542229 C74.0841654,109.082992 74.2833909,109.799255 74.2833909,110.691039 L74.2833909,118.347067 C74.2833909,119.011162 74.3213386,119.646786 74.3972352,120.253959 C74.4731318,120.861131 74.6059488,121.316504 74.7956902,121.62009 L70.6972962,121.62009 C70.6213996,121.3924 70.5597346,121.15997 70.5122992,120.922794 C70.4648639,120.685617 70.4316596,120.4437 70.4126855,120.197036 C69.7675647,120.861131 69.0086104,121.325991 68.1358,121.591629 C67.2629895,121.857267 66.3712182,121.990084 65.4604594,121.990084 C64.7584162,121.990084 64.1038182,121.904701 63.4966457,121.733934 C62.8894731,121.563167 62.3582052,121.297533 61.9028258,120.937024 C61.4474464,120.576516 61.0916866,120.121143 60.8355357,119.570893 C60.5793848,119.020643 60.4513112,118.366045 60.4513112,117.607079 C60.4513112,116.772217 60.5983586,116.084415 60.8924578,115.543652 C61.186557,115.002889 61.5660341,114.571233 62.0309006,114.248673 C62.495767,113.926113 63.027035,113.684196 63.6247205,113.522916 C64.2224059,113.361635 64.8248259,113.233562 65.4319984,113.138691 C66.0391709,113.043821 66.6368474,112.967925 67.2250457,112.911003 C67.8132441,112.85408 68.3350252,112.768698 68.7904046,112.654853 C69.2457839,112.541008 69.6062872,112.374987 69.8719252,112.156784 C70.1375632,111.938582 70.2608932,111.62077 70.2419191,111.203339 C70.2419191,110.766933 70.1707671,110.42066 70.0284611,110.164509 C69.886155,109.908359 69.6964164,109.709133 69.4592397,109.566827 C69.2220629,109.424521 68.946942,109.329652 68.6338687,109.282216 C68.3207953,109.234781 67.9840094,109.211064 67.6235007,109.211064 C66.8265868,109.211064 66.2004495,109.381828 65.7450701,109.723363 C65.2896908,110.064897 65.0240568,110.634113 64.9481602,111.431027 L60.9066884,111.431027 Z M70.2419191,114.419439 C70.0711518,114.571232 69.8576959,114.689819 69.601545,114.775203 C69.3453941,114.860586 69.0702732,114.931738 68.776174,114.988661 C68.4820748,115.045583 68.1737497,115.093018 67.8511893,115.130966 C67.5286289,115.168914 67.2060733,115.216349 66.8835129,115.273271 C66.5799267,115.330194 66.2810884,115.406089 65.9869892,115.50096 C65.69289,115.595831 65.436743,115.723904 65.2185404,115.885184 C65.0003377,116.046465 64.8248296,116.250434 64.6920106,116.497097 C64.5591916,116.743761 64.4927831,117.05683 64.4927831,117.436313 C64.4927831,117.796821 64.5591916,118.100403 64.6920106,118.347067 C64.8248296,118.593731 65.0050812,118.788213 65.2327709,118.930519 C65.4604606,119.072825 65.7260946,119.172438 66.0296808,119.22936 C66.3332671,119.286283 66.6463357,119.314743 66.9688961,119.314743 C67.76581,119.314743 68.3824604,119.181926 68.8188656,118.916288 C69.2552709,118.65065 69.5778264,118.332838 69.786542,117.962842 C69.9952575,117.592847 70.1233311,117.218113 70.1707664,116.83863 C70.2182018,116.459147 70.2419191,116.155566 70.2419191,115.927876 L70.2419191,114.419439 Z M81.5694247,104.628832 L81.5694247,101.298886 L77.5279528,101.298886 L77.5279528,104.628832 L81.5694247,104.628832 Z M77.5279528,106.905717 L77.5279528,121.62009 L81.5694247,121.62009 L81.5694247,106.905717 L77.5279528,106.905717 Z M84.7570644,106.905717 L84.7570644,121.62009 L88.7985363,121.62009 L88.7985363,113.90714 C88.7985363,112.408183 89.0451964,111.331417 89.5385241,110.676809 C90.0318518,110.022201 90.8287537,109.694902 91.9292539,109.694902 C92.8969351,109.694902 93.570507,109.99374 93.9499898,110.591426 C94.3294727,111.189111 94.5192112,112.095113 94.5192112,113.309458 L94.5192112,121.62009 L98.5606831,121.62009 L98.5606831,112.56947 C98.5606831,111.658711 98.4800442,110.828605 98.318764,110.079126 C98.1574838,109.329648 97.8776194,108.694024 97.4791624,108.172235 C97.0807055,107.650446 96.5352071,107.242508 95.8426509,106.948409 C95.1500948,106.654309 94.263067,106.507262 93.181541,106.507262 C92.3277046,106.507262 91.4928549,106.701744 90.6769669,107.090714 C89.8610788,107.479684 89.1969938,108.101078 88.684692,108.954914 L88.5993088,108.954914 L88.5993088,106.905717 L84.7570644,106.905717 Z M105.789795,104.628832 L105.789795,101.298886 L101.748323,101.298886 L101.748323,104.628832 L105.789795,104.628832 Z M101.748323,106.905717 L101.748323,121.62009 L105.789795,121.62009 L105.789795,106.905717 L101.748323,106.905717 Z M108.977434,106.905717 L108.977434,121.62009 L113.018906,121.62009 L113.018906,113.90714 C113.018906,112.408183 113.265566,111.331417 113.758894,110.676809 C114.252222,110.022201 115.049124,109.694902 116.149624,109.694902 C117.117305,109.694902 117.790877,109.99374 118.17036,110.591426 C118.549843,111.189111 118.739581,112.095113 118.739581,113.309458 L118.739581,121.62009 L122.781053,121.62009 L122.781053,112.56947 C122.781053,111.658711 122.700414,110.828605 122.539134,110.079126 C122.377854,109.329648 122.097989,108.694024 121.699532,108.172235 C121.301075,107.650446 120.755577,107.242508 120.063021,106.948409 C119.370465,106.654309 118.483437,106.507262 117.401911,106.507262 C116.548075,106.507262 115.713225,106.701744 114.897337,107.090714 C114.081449,107.479684 113.417364,108.101078 112.905062,108.954914 L112.819679,108.954914 L112.819679,106.905717 L108.977434,106.905717 Z M132.713966,118.147839 C133.28319,118.147839 133.785998,118.033996 134.222403,117.806307 C134.658808,117.578617 135.019311,117.275035 135.303924,116.895552 C135.588536,116.51607 135.801992,116.084414 135.944298,115.600574 C136.086604,115.116733 136.157756,114.609182 136.157756,114.077907 C136.157756,113.470734 136.100834,112.896775 135.986989,112.356012 C135.873144,111.815249 135.683406,111.336159 135.417768,110.918728 C135.15213,110.501297 134.801114,110.169254 134.364708,109.92259 C133.928303,109.675927 133.378061,109.552597 132.713966,109.552597 C132.144742,109.552597 131.656165,109.66644 131.248221,109.894129 C130.840277,110.121819 130.498748,110.430144 130.223623,110.819114 C129.948498,111.208084 129.749272,111.65397 129.62594,112.156784 C129.502608,112.659599 129.440943,113.186124 129.440943,113.736374 C129.440943,114.26765 129.493121,114.794174 129.597479,115.315963 C129.701837,115.837752 129.882089,116.307355 130.138239,116.724786 C130.39439,117.142217 130.731176,117.483746 131.148607,117.749384 C131.566039,118.015022 132.08782,118.147839 132.713966,118.147839 Z M140,120.680875 C140,121.269073 139.919361,121.942645 139.758081,122.701611 C139.596801,123.460576 139.250528,124.167352 138.719252,124.82196 C138.187976,125.476568 137.419535,126.031553 136.413905,126.486933 C135.408276,126.942312 134.061132,127.169998 132.372433,127.169998 C131.651416,127.169998 130.916179,127.079873 130.166701,126.899618 C129.417222,126.719364 128.734163,126.4395 128.117504,126.060017 C127.500844,125.680534 126.98855,125.191957 126.580606,124.594272 C126.172662,123.996586 125.940232,123.280323 125.88331,122.445461 L129.89632,122.445461 C130.086062,123.204427 130.456052,123.730951 131.006302,124.02505 C131.556552,124.319149 132.192176,124.466197 132.913194,124.466197 C134.051642,124.466197 134.881748,124.124667 135.403537,123.441598 C135.925326,122.758529 136.17673,121.895219 136.157756,120.851641 L136.157756,118.916288 L136.100834,118.916288 C135.664428,119.694228 135.043034,120.268187 134.236633,120.638183 C133.430232,121.008179 132.581152,121.193174 131.689368,121.193174 C130.588868,121.193174 129.640175,120.998692 128.843261,120.609722 C128.046347,120.220752 127.391749,119.689484 126.879447,119.015902 C126.367145,118.34232 125.992412,117.554905 125.755235,116.653633 C125.518058,115.752362 125.399471,114.798925 125.399471,113.793296 C125.399471,112.844589 125.537032,111.9291 125.812157,111.046803 C126.087282,110.164505 126.490476,109.386577 127.021752,108.712995 C127.553028,108.039413 128.21237,107.503402 128.999797,107.104945 C129.787224,106.706488 130.693225,106.507262 131.717829,106.507262 C132.68551,106.507262 133.53459,106.687514 134.265095,107.048022 C134.995599,107.408531 135.607506,108.015694 136.100834,108.869531 L136.157756,108.869531 L136.157756,106.905717 L140,106.905717 L140,120.680875 Z" id="Metal-containing"></path>
        </g>
    </g>
</svg>