<?xml version="1.0" encoding="UTF-8" standalone="no"?>
<svg width="140px" height="140px" viewBox="0 0 140 140" version="1.1" xmlns="http://www.w3.org/2000/svg" xmlns:xlink="http://www.w3.org/1999/xlink">
    <!-- Generator: Sketch 42 (36781) - http://www.bohemiancoding.com/sketch -->
    <title>natural</title>
    <desc>Created with Sketch.</desc>
    <defs></defs>
    <g id="Page-1" stroke="none" stroke-width="1" fill="none" fill-rule="evenodd">
        <g id="artboard" fill-rule="nonzero" fill="#E8EAEA">
            <path d="M-1.20902311,83.8403084 C8.30870311,76.6671497 29.5148651,60.652656 52.8917365,53.9799503 C52.8917365,53.9799503 43.040055,58.317209 26.676245,69.8276264 C13.9859433,79.0025967 5.30310536,87.3434789 2.2975076,90.0125612 C-1.20902311,93.0152787 -14.4002577,103.858426 -14.734213,105.860237 C-15.0681683,107.695231 -11.5616376,107.862049 -10.7267493,108.696137 C-9.89186107,109.363408 -8.7230175,112.699761 -7.22021863,111.532037 C-5.38346444,110.197496 1.96355229,100.855708 3.29937352,100.522073 C39.8674795,124.877449 86.7882001,115.702478 113.83858,72.4967087 C122.855373,57.9835737 130.8703,41.1349918 152.24344,32.2936567 C62.4094627,4.76874558 3.63332883,17.9473394 -1.20902311,83.8403084 Z" id="natural" transform="translate(68.560502, 66.207818) rotate(-25.000000) translate(-68.560502, -66.207818) "></path>
        </g>
    </g>
</svg>