<?xml version="1.0" encoding="UTF-8" standalone="no"?>
<svg width="140px" height="140px" viewBox="0 0 140 140" version="1.1" xmlns="http://www.w3.org/2000/svg" xmlns:xlink="http://www.w3.org/1999/xlink">
    <!-- Generator: Sketch 42 (36781) - http://www.bohemiancoding.com/sketch -->
    <title>oligosaccharide</title>
    <desc>Created with Sketch.</desc>
    <defs></defs>
    <g id="Page-1" stroke="none" stroke-width="1" fill="none" fill-rule="evenodd">
        <g id="Artboard-Copy-8" fill-rule="nonzero" fill="#E8EAEA">
            <path d="M37.2852304,135.776589 C37.2852304,135.776589 33.9175781,134.814342 32.9553313,133.371043 L0.721685085,77.3229514 C-0.240561695,75.8796517 -0.240561695,73.9552991 0.721685085,72.2714025 L32.9553313,16.2233113 C33.9175781,14.7800116 35.6013338,13.8177648 37.2852304,13.8177648 L73.540665,13.8177648 L72.1311927,23.9208627 L40.1718298,23.9208627 L10.824783,74.6769489 L40.4124267,125.673491 L99.3471173,125.673491 L128.934761,74.6769489 L110.686745,44.1608857 L118.177527,37.6998644 L139.278315,72.2714025 C140.240562,73.7147022 140.240562,75.6390548 139.278315,77.3229514 L106.563475,133.371043 C105.601228,134.814342 103.917472,135.776589 102.233576,135.776589 M97.2143742,38.467005 C87.8874802,38.467005 80.4808717,30.8384265 80.4808717,21.7335025 C80.4808717,12.6285785 87.8874802,5 97.2143742,5 C106.541268,5 113.947877,12.6285785 113.947877,21.7335025 C113.947877,30.8384265 106.541268,38.467005 97.2143742,38.467005 Z M97.3971329,14.1615703 C93.1963672,14.1615703 89.7833893,17.5454977 89.7833893,21.775314 C89.7833893,26.0051302 93.196521,29.3890576 97.3971329,29.3890576 C101.597899,29.3890576 105.010877,26.0051302 105.010877,21.775314 C105.010877,17.5454977 101.597745,14.1615703 97.3971329,14.1615703 L97.3971329,14.1615703 Z" id="Shape"></path>
        </g>
    </g>
</svg>