<?xml version="1.0" encoding="UTF-8" standalone="no"?>
<svg width="140px" height="140px" viewBox="0 0 140 140" version="1.1" xmlns="http://www.w3.org/2000/svg" xmlns:xlink="http://www.w3.org/1999/xlink">
    <!-- Generator: Sketch 42 (36781) - http://www.bohemiancoding.com/sketch -->
    <title>oligonucleotide</title>
    <desc>Created with Sketch.</desc>
    <defs></defs>
    <g id="Page-1" stroke="none" stroke-width="1" fill="none" fill-rule="evenodd">
        <g id="Artboard-Copy-7" fill-rule="nonzero" fill="#E8EAEA">
            <path d="M139.061825,80.5309857 L114.300773,47.7664104 C113.050264,46.2657406 111.049273,45.5154057 109.298589,46.2657406 L72.0320044,59.021434 L42.7689431,42.2639055 L42.7689431,15.2518489 C42.7689431,13.0008442 40.7680988,11 38.5170941,11 C36.2660894,11 34.2652452,12.7508303 34.2652452,15.2518489 L34.2652452,42.2639055 L2.25100472,60.7721177 C0.750334906,61.5224526 0,63.0231224 0,64.7739527 L0,104.291542 C0,105.792212 0.750334906,107.292882 2.25100472,108.293377 L36.2662359,127.802085 C37.0165709,128.302259 37.7669058,128.302259 38.5172407,128.302259 C39.2675756,128.302259 40.0179105,128.052099 40.7682454,127.802085 L72.2823114,109.543887 L110.549392,121.299085 C111.049566,121.549245 111.549887,121.549245 111.799901,121.549245 C113.300571,121.549245 114.55108,120.79891 115.551575,119.548401 L139.062118,85.7833301 C140.312627,84.2826603 140.312627,82.281816 139.062118,80.5309857 L139.061825,80.5309857 Z M38.5169476,118.547905 L9.00372577,101.540363 L9.00372577,67.2751179 L38.5169476,50.2675756 L67.2798345,66.7749435 L67.7800089,101.54051 L38.5169476,118.548052 L38.5169476,118.547905 Z M110.048924,111.794891 L77.2843487,101.790377 L77.2843487,66.7747969 L109.048575,55.7699338 L129.807792,83.2821649 L110.048924,111.794891 L110.048924,111.794891 Z" id="Shape"></path>
        </g>
    </g>
</svg>