<?xml version="1.0" encoding="UTF-8" standalone="no"?>
<svg width="140px" height="140px" viewBox="0 0 140 140" version="1.1" xmlns="http://www.w3.org/2000/svg" xmlns:xlink="http://www.w3.org/1999/xlink">
    <!-- Generator: Sketch 42 (36781) - http://www.bohemiancoding.com/sketch -->
    <title>oral</title>
    <desc>Created with Sketch.</desc>
    <defs></defs>
    <g id="Page-1" stroke="none" stroke-width="1" fill="none" fill-rule="evenodd">
        <g id="Artboard-Copy-16" fill-rule="nonzero" fill="#E8EAEA">
            <path d="M27.8869094,142.696227 C11.0831022,133.015021 5.3435301,111.508916 15.024736,94.7051087 L63.8456727,10.2020175 C73.5268788,-6.60178886 95.0329861,-12.3413606 111.836793,-2.66015533 C128.571449,7.02104995 134.380172,28.5271567 124.698966,45.3309617 L75.8780299,129.834054 C66.1968239,146.637861 44.6907165,152.377431 27.8869094,142.696227 L27.8869094,142.696227 Z M48.148289,52.9376239 L95.4478961,80.3216043 L117.922122,41.389328 C125.528784,28.2505494 121.103091,11.7233497 107.895159,4.11668833 C94.7563808,-3.48997288 78.1600278,0.935720981 70.5533656,14.0744989 L48.148289,52.9376239 Z M98.5597119,43.7404791 L102.432194,36.9636349 C104.57589,33.2294551 105.613161,29.63358 105.336556,26.9366722 C104.608564,21.8023121 100.615073,19.4523107 100.615073,19.4523107 L104.487555,12.6754684 C109.604764,15.6489815 112.735762,21.2662512 113.150672,26.2451569 C113.56558,31.2240626 111.905944,36.2029683 109.209039,40.9052686 L105.267405,47.6821129 L98.5597119,43.7404791 Z" id="Shape" transform="translate(69.854324, 70.018036) rotate(-345.000000) translate(-69.854324, -70.018036) "></path>
        </g>
    </g>
</svg>