<?xml version="1.0" encoding="UTF-8" standalone="no"?>
<svg width="140px" height="140px" viewBox="0 0 140 140" version="1.1" xmlns="http://www.w3.org/2000/svg" xmlns:xlink="http://www.w3.org/1999/xlink">
    <!-- Generator: Sketch 42 (36781) - http://www.bohemiancoding.com/sketch -->
    <title>otc</title>
    <desc>Created with Sketch.</desc>
    <defs></defs>
    <g id="Page-1" stroke="none" stroke-width="1" fill="none" fill-rule="evenodd">
        <g id="Artboard-Copy-21" fill-rule="nonzero" fill="#E8EAEA">
            <path d="M52.6752213,7.99270933 C52.0212869,7.32824697 51.1184325,6.96884702 50.1867495,7.00212141 C49.2550665,7.03539581 48.3801511,7.45828753 47.7752839,8.16770709 L21.1756236,36.3423472 L17.150675,36.3423472 C12.571787,36.3421088 8.18294173,38.172958 4.96165581,41.4271142 C1.74036989,44.6812703 -0.0458292529,49.0884763 0.000894100421,53.6671259 C0.059522331,60.6825813 4.34335217,66.970138 10.8507555,69.5919225 L19.0756505,120.516272 C20.4521283,129.008653 27.7972548,135.240881 36.4004292,135.216084 L103.599571,135.216084 C112.202745,135.240881 119.547872,129.008653 120.92435,120.516272 L129.149244,69.5919225 C135.656648,66.970138 139.940478,60.6825813 139.999106,53.6671259 C140.045829,49.0884763 138.25963,44.6812703 135.038344,41.4271142 C131.817058,38.172958 127.428213,36.3421088 122.849325,36.3423472 L120.574354,36.3423472 L93.9746938,8.16770709 C93.3698266,7.45828753 92.4949112,7.03539581 91.5632282,7.00212141 C90.6315451,6.96884702 89.7286908,7.32824697 89.0747564,7.99270933 C88.3653368,8.59757652 87.9424451,9.47249192 87.9091707,10.4041749 C87.8758963,11.3358579 88.2352962,12.2387123 88.8997586,12.8926467 L110.949477,36.3423472 L30.8005007,36.3423472 L52.8502191,12.8926467 C53.5146814,12.2387123 53.8740814,11.3358579 53.840807,10.4041749 C53.8075326,9.47249192 53.3846408,8.59757652 52.6752213,7.99270933 L52.6752213,7.99270933 Z M21.5256192,91.9916364 L37.6254135,91.9916364 L39.2003934,105.991458 L23.8005901,105.991458 L21.5256192,91.9916364 Z M44.6253241,91.9916364 L66.5000447,91.9916364 L66.5000447,105.991458 L46.200304,105.991458 L44.6253241,91.9916364 Z M66.5000447,112.991368 L66.5000447,128.216174 L48.6502727,128.216174 L46.9002951,112.991368 L66.5000447,112.991368 Z M73.4999553,112.991368 L89.5997497,112.991368 L87.849772,128.216174 L73.4999553,128.216174 L73.4999553,112.991368 Z M73.4999553,105.991458 L73.4999553,91.9916364 L91.8747206,91.9916364 L90.2997407,105.991458 L73.4999553,105.991458 Z M98.8746312,91.9916364 L118.474381,91.9916364 L116.19941,105.991458 L97.2996513,105.991458 L98.8746312,91.9916364 Z M99.5746222,84.9917258 L101.149602,70.8169069 L121.799338,70.8169069 L119.524367,84.9917258 L99.5746222,84.9917258 Z M92.5747117,84.9917258 L73.4999553,84.9917258 L73.4999553,70.8169069 L94.1496915,70.8169069 L92.5747117,84.9917258 Z M66.5000447,84.9917258 L43.9253331,84.9917258 L42.3503532,70.8169069 L66.5000447,70.8169069 L66.5000447,84.9917258 Z M35.3504426,70.8169069 L36.9254225,84.9917258 L20.4756326,84.9917258 L18.2006616,70.8169069 L35.3504426,70.8169069 Z M26.075561,119.466285 L25.0255745,112.991368 L39.9003845,112.991368 L41.6503621,128.216174 L36.4004292,128.216174 C31.2605718,128.276276 26.8593093,124.546392 26.075561,119.466285 L26.075561,119.466285 Z M103.599571,128.216174 L94.8496826,128.216174 L96.5996602,112.991368 L114.974426,112.991368 L113.924439,119.466285 C113.140691,124.546392 108.739428,128.276276 103.599571,128.216174 L103.599571,128.216174 Z" id="Shape"></path>
        </g>
    </g>
</svg>