<?xml version="1.0" encoding="UTF-8" standalone="no"?>
<svg width="140px" height="140px" viewBox="0 0 140 140" version="1.1" xmlns="http://www.w3.org/2000/svg" xmlns:xlink="http://www.w3.org/1999/xlink">
    <!-- Generator: Sketch 42 (36781) - http://www.bohemiancoding.com/sketch -->
    <title>parenteral</title>
    <desc>Created with Sketch.</desc>
    <defs></defs>
    <g id="Page-1" stroke="none" stroke-width="1" fill="none" fill-rule="evenodd">
        <g id="Artboard-Copy-17" fill-rule="nonzero" fill="#E8EAEA">
            <path d="M24.8369346,140 C25.9463931,139.999023 26.9461743,139.329221 27.3706136,138.302567 C27.795053,137.275913 27.5606827,136.094302 26.7766647,135.308089 L17.6269946,126.1442 L48.9188664,94.8403541 L58.0685365,104.004243 L65.9189535,111.86686 C67.0004802,112.876203 68.6858493,112.846421 69.7311518,111.799494 C70.7764543,110.752567 70.8061907,109.064579 69.7984136,107.981371 L63.8877267,102.061499 L109.636077,56.2420528 C113.761989,52.1174549 114.826933,45.8282004 112.289482,40.5718023 L117.486494,35.3667132 C118.556835,34.2933742 118.556835,32.5545632 117.486494,31.4812242 L114.814791,28.8420241 L138.860124,4.75932333 C139.95162,3.68131409 139.963909,1.92120734 138.887573,0.828014872 C137.811236,-0.265177598 136.05386,-0.277486037 134.962364,0.800523204 L110.917031,24.9565351 L108.281926,22.317335 C107.210253,21.2453309 105.47414,21.2453309 104.402466,22.317335 L99.2969501,27.5224241 C94.0384676,24.9491022 87.7296798,25.9936192 83.5778168,30.1249686 L37.8294662,75.9444146 L31.9187793,70.0245421 C30.8372526,69.0151989 29.1518835,69.0449815 28.106581,70.0919085 C27.0612785,71.1388354 27.0315421,72.8268237 28.0393192,73.9100312 L35.8897361,81.7726481 L45.0394063,90.9365373 L13.7658338,122.277038 L4.61616368,113.113149 C3.53463697,112.103806 1.84926786,112.133588 0.803965341,113.180515 C-0.241337174,114.227442 -0.271073545,115.915431 0.73670355,116.998638 L22.8789052,139.17525 C23.3946226,139.702205 24.1001954,139.999402 24.8369346,140 L24.8369346,140 Z M106.342196,28.2005519 L111.630705,33.4972798 L108.940702,36.1914633 L103.652193,30.8947353 L106.342196,28.2005519 Z M69.6154202,51.9350249 L73.6778737,47.8112747 L79.4970639,53.6395083 C80.5785906,54.6488515 82.2639598,54.6190689 83.3092623,53.572142 C84.3545648,52.525215 84.3843012,50.8372267 83.3765241,49.7540193 L77.5573339,43.9257857 L81.6746854,39.8020356 L87.4938756,45.6302691 C88.5754023,46.6396124 90.2607714,46.6098298 91.306074,45.5629028 C92.3513765,44.5159758 92.3811128,42.8279876 91.3733358,41.7447801 L85.5541456,35.9165466 L87.3840796,34.0837687 C90.6032517,30.8778189 95.8032878,30.8778189 99.02246,34.0837687 L105.646821,40.7184245 C108.847797,43.9425994 108.847797,49.1507166 105.646821,52.3748916 C105.646821,52.3748916 94.5462771,63.4926864 88.9960052,69.0515838 L69.6154202,51.9350249 Z" id="Shape"></path>
        </g>
    </g>
</svg>