<?xml version="1.0" encoding="UTF-8" standalone="no"?>
<svg width="140px" height="140px" viewBox="0 0 140 140" version="1.1" xmlns="http://www.w3.org/2000/svg" xmlns:xlink="http://www.w3.org/1999/xlink">
    <!-- Generator: Sketch 42 (36781) - http://www.bohemiancoding.com/sketch -->
    <title>polymer</title>
    <desc>Created with Sketch.</desc>
    <defs></defs>
    <g id="Page-1" stroke="none" stroke-width="1" fill="none" fill-rule="evenodd">
        <g id="artboard" fill="#E8EAEA">
            <path d="M136.542534,98.8901627 C138.847523,100.787758 140,103.934288 140,108.329848 L140,131.937101 L130.608559,131.937101 L130.608559,110.613383 C130.608559,108.769392 130.361982,107.354258 129.868822,106.367937 C128.968268,104.56683 127.252954,103.66629 124.722827,103.66629 C121.613772,103.66629 119.48035,104.984938 118.322495,107.622273 C117.722126,109.015987 117.421946,110.795626 117.421946,112.961244 L117.421946,131.937101 L108.287804,131.937101 L108.287804,96.9443333 L117.132483,96.9443333 L117.132483,102.058166 C118.31178,100.257059 119.426734,98.959852 120.47738,98.1665071 C122.364255,96.7513514 124.754975,96.0437841 127.649611,96.0437841 C131.273268,96.0437841 134.237546,96.9925675 136.542534,98.8901627 Z M89.5516514,116.356494 L32.7734607,116.356494 C32.7594834,116.356614 32.7429975,116.356734 32.7263921,116.356734 C31.1455334,116.356734 29.7598778,115.518013 28.987786,114.260171 L0.587759766,64.8677873 C0.218259572,64.2367099 0,63.4777874 0,62.6678228 C0,61.8578582 0.218259572,61.0989358 0.598989322,60.4470101 L28.9769149,11.1156131 C29.7598778,9.83860092 31.1455334,9 32.7263921,9 C32.742878,9 32.7594834,9.00011982 32.7759694,9.00023963 L89.5516514,9.00023963 C89.5656286,9.00011982 89.5821145,9 89.5987199,9 C91.1795787,9 92.5652343,9.83872074 93.337326,11.0965622 L121.737352,60.425443 C122.106852,61.0565205 122.325112,61.8154429 122.325112,62.6254075 C122.325112,63.4353721 122.106852,64.1942946 121.726123,64.8462202 L93.3481972,114.135322 C92.580884,115.46745 91.1697827,116.350743 89.5524876,116.356494 L89.5516514,116.356494 Z M34.3045668,109.271814 L88.0205453,109.271814 L114.856634,62.6255273 L88.0205453,15.9792407 L34.3045668,15.9792407 L7.46847808,62.6255273 L34.3045668,109.271814 Z M42.2872843,99.0532497 C42.2872843,97.2334856 43.771674,95.7582753 45.5836056,95.7582753 L77.4581672,95.7582753 C79.2786752,95.7582753 80.7544885,97.2371884 80.7544885,99.0532497 C80.7544885,100.873014 79.2700988,102.348224 77.4581672,102.348224 L45.5836056,102.348224 C43.7630976,102.348224 42.2872843,100.869311 42.2872843,99.0532497 Z M84.1839761,29.2978398 C85.7438183,28.360592 87.7728375,28.8731729 88.7060513,30.4263014 L105.122664,57.7481333 C106.060295,59.3086132 105.552719,61.3353287 103.996051,62.2706694 C102.436209,63.2079172 100.407189,62.6953363 99.4739756,61.1422078 L83.0573628,33.8203759 C82.1197319,32.259896 82.6273078,30.2331805 84.1839761,29.2978398 Z M38.361877,28.113272 C39.9185453,29.0486127 40.4261212,31.0753282 39.4884902,32.6358081 L23.0718774,59.95764 C22.1386636,61.5107686 20.1096444,62.0233494 18.5498022,61.0861016 C16.9931339,60.150761 16.485558,58.1240455 17.4231889,56.5635655 L33.8398017,29.2417337 C34.7730155,27.6886051 36.8020347,27.1760243 38.361877,28.113272 Z" id="Combined-Shape"></path>
        </g>
    </g>
</svg>