<?xml version="1.0" encoding="UTF-8" standalone="no"?>
<svg width="140px" height="140px" viewBox="0 0 140 140" version="1.1" xmlns="http://www.w3.org/2000/svg" xmlns:xlink="http://www.w3.org/1999/xlink">
    <!-- Generator: Sketch 42 (36781) - http://www.bohemiancoding.com/sketch -->
    <title>prescription</title>
    <desc>Created with Sketch.</desc>
    <defs></defs>
    <g id="Page-1" stroke="none" stroke-width="1" fill="none" fill-rule="evenodd">
        <g id="Artboard-Copy-20" fill-rule="nonzero" fill="#E8EAEA">
            <path d="M122.841607,127.670408 C122.082195,126.010902 120.865618,123.921121 119.189346,121.401213 L100.572518,92.6665679 L117.871127,66.7522033 C120.944342,62.1528048 122.480875,58.5128385 122.480875,55.8351381 C122.480875,53.9948716 121.77221,52.4065064 120.355028,51.0651208 C118.937846,49.7237352 117.111715,49.0542356 114.879166,49.0542356 C113.64235,49.0542356 112.555244,49.2628856 111.617996,49.6828703 C110.680748,50.1028549 109.832492,50.7314896 109.07308,51.5714589 C108.313668,52.4114281 107.526279,53.4703383 106.708531,54.7505755 C105.890783,56.0308128 104.902788,57.5708559 103.744547,59.3704066 L89.7018998,80.6877589 C89.4200408,79.5322046 78.0519283,58.9504219 75.1793183,55.6694411 C72.3068571,52.3909956 71.966369,49.7514431 68.8145788,48.0740399 C76.3171759,46.4348172 79.2379979,43.8130779 82.9308859,39.8933207 C86.621244,35.9734143 88.4676135,30.7350903 88.4676135,24.175664 C88.4676135,20.9761149 87.919075,17.9471845 86.821849,15.0861883 C85.724623,12.2277275 84.1194854,9.71796131 82.0039063,7.55703893 C79.8881783,5.39850282 77.4551731,3.73646134 74.7019141,2.5783716 C72.4262082,1.53735854 69.8737031,0.847575533 67.039339,0.509022575 C64.2049749,0.170469617 60.7939459,0 56.8038708,0 L27.8932383,0 C24.0631412,0 21.289792,0.860401768 19.572893,2.57852074 C17.855994,4.30171056 17,7.08127508 17,10.9196006 L17,78.5879849 C17,82.1463704 17.7771211,84.8470386 19.3340421,86.6873051 C20.8909631,88.5275716 23.0852663,89.4464372 25.9172493,89.4464372 C28.5510083,89.4464372 30.6869753,88.565752 32.3226204,86.8069172 C33.9582654,85.0480824 34.7760135,82.3066983 34.7760135,78.5879849 L34.7760135,50.3344729 L41.0010188,50.3344729 C44.1529578,50.3344729 46.766329,50.7544575 48.8414299,51.5944268 C50.9165309,52.434396 52.9609756,53.9947225 54.9775915,56.2728707 C56.9916776,58.5535543 59.2775031,61.8727156 61.8325381,66.2303545 C67.0772873,75.3096886 73.6249272,86.5066938 78.4860268,92.6664188 L58.8533753,121.401064 C55.9402872,125.679806 54.4848592,129.29934 54.4848592,132.259516 C54.4848592,134.779424 55.1935246,136.698587 56.6107067,138.019689 C58.0278887,139.340791 59.8133922,140 61.9672173,140 C63.3641602,140 64.5807373,139.781059 65.6194783,139.340791 C66.6582193,138.900523 67.5548403,138.299778 68.3142522,137.541241 C69.0736641,136.780167 69.7213147,136.001347 70.2597338,135.202093 C70.7981528,134.40284 71.7074232,133.002841 72.9823364,131.002247 L89.3844736,105.927851 L104.828975,130.284425 C106.784576,133.28293 108.120504,135.303808 108.839289,136.342435 C109.558074,137.383448 110.495173,138.251456 111.653414,138.951381 C112.811655,139.651305 114.226307,140 115.902579,140 C117.4595,140 118.856443,139.658912 120.093259,138.97927 C121.330075,138.299629 122.287711,137.380763 122.96572,136.220138 C123.643878,135.059513 123.984222,133.781662 123.984222,132.381664 C123.979162,130.900233 123.600721,129.329765 122.84131,127.670259 L122.841607,127.670408 Z M50.6983655,37.5568578 L34.7763112,37.5568578 L34.7763112,13.3810447 L51.1784484,13.3810447 C57.2841025,13.3810447 61.3732896,13.8214618 63.4482417,14.6996115 C65.6426937,15.618477 67.3595927,17.0081847 68.5964088,18.8688837 C69.8332249,20.7295827 70.4530467,22.877828 70.4530467,25.3188395 C70.4530467,28.4394924 69.6860451,30.8881103 68.1495121,32.6672284 C66.612979,34.4463466 64.3880195,35.7064497 61.4749314,36.4470902 C58.5618433,37.1851953 54.9704483,37.5568578 50.6985143,37.5568578 L50.6983655,37.5568578 Z" id="Shape"></path>
        </g>
    </g>
</svg>