<?xml version="1.0" encoding="UTF-8" standalone="no"?>
<svg width="140px" height="140px" viewBox="0 0 140 140" version="1.1" xmlns="http://www.w3.org/2000/svg" xmlns:xlink="http://www.w3.org/1999/xlink">
    <!-- Generator: Sketch 42 (36781) - http://www.bohemiancoding.com/sketch -->
    <title>prodrug</title>
    <desc>Created with Sketch.</desc>
    <defs></defs>
    <g id="Page-1" stroke="none" stroke-width="1" fill="none" fill-rule="evenodd">
        <g id="Artboard-Copy-14" fill-rule="nonzero" fill="#E8EAEA">
            <path d="M140,29.4321622 C133.147644,20.3527906 120.299477,18.4683927 111.220105,25.1494398 L64.1101574,60.0964553 L49.5489009,49.3039946 C48.0071208,48.1048323 47.1505763,46.0491255 47.664503,44.1647276 C48.5210475,40.5672407 48.6923564,36.7984449 47.8358119,32.8583402 C45.7801051,23.4363508 37.8998957,15.8987592 28.3065973,14.3569791 C13.2314141,11.7873456 0.0406287957,23.4363508 0.0406287957,38.1689161 C0.0406287957,51.5310103 10.8330895,62.323471 24.1951837,62.323471 C28.820524,62.323471 32.9319376,61.1243087 36.7007334,58.897293 C38.4138224,57.8694396 40.6408381,58.0407485 42.1826182,59.2399108 L56.229948,69.6897537 L42.1826182,80.1395966 C40.6408381,81.3387589 38.4138224,81.5100678 36.7007334,80.4822144 C31.9040842,77.5699631 26.0795816,76.3708008 19.9124612,77.3986542 C9.63392719,79.2830521 1.58240889,87.6771882 0.211937696,98.1270311 C-1.8437691,113.88745 11.3470162,127.078235 27.107435,125.365146 C37.7285868,124.165984 46.4653407,115.771848 48.1784297,105.150696 C48.6923564,101.724518 48.5210475,98.29834 47.664503,95.2147798 C47.1505763,93.3303819 48.0071208,91.2746751 49.5489009,90.0755128 L64.1101574,79.2830521 L111.220105,114.230068 C120.299477,121.082424 133.147644,119.198026 140,109.947345 L85.6950787,69.6897537 L140,29.4321622 Z M24.1951837,48.2761412 C18.7132989,48.2761412 14.0879586,43.8221098 14.0879586,38.1689161 C14.0879586,32.6870313 18.54199,28.0616911 24.1951837,28.0616911 C29.6770685,28.0616911 34.3024088,32.5157224 34.3024088,38.1689161 C34.3024088,43.6508009 29.8483774,48.2761412 24.1951837,48.2761412 Z M24.1951837,111.317816 C18.7132989,111.317816 14.0879586,106.863785 14.0879586,101.210591 C14.0879586,95.7287065 18.54199,91.1033662 24.1951837,91.1033662 C29.6770685,91.1033662 34.3024088,95.5573976 34.3024088,101.210591 C34.3024088,106.692476 29.8483774,111.317816 24.1951837,111.317816 Z M72.6756023,74.4864029 C70.1059688,74.4864029 67.8789531,72.2593872 67.8789531,69.6897537 C67.8789531,67.1201202 70.1059688,64.8931045 72.6756023,64.8931045 C75.2452358,64.8931045 77.4722515,67.1201202 77.4722515,69.6897537 C77.4722515,72.2593872 75.4165447,74.4864029 72.6756023,74.4864029 Z" id="Shape" transform="translate(70.000000, 69.757628) rotate(-90.000000) translate(-70.000000, -69.757628) "></path>
        </g>
    </g>
</svg>