<?xml version="1.0" encoding="UTF-8" standalone="no"?>
<svg width="140px" height="140px" viewBox="0 0 140 140" version="1.1" xmlns="http://www.w3.org/2000/svg" xmlns:xlink="http://www.w3.org/1999/xlink">
    <!-- Generator: Sketch 42 (36781) - http://www.bohemiancoding.com/sketch -->
    <title>protein</title>
    <desc>Created with Sketch.</desc>
    <defs></defs>
    <g id="Page-1" stroke="none" stroke-width="1" fill="none" fill-rule="evenodd">
        <g id="Artboard-Copy-6" fill-rule="nonzero" fill="#E8EAEA">
            <path d="M139.330485,59.5939198 L139.330485,59.5939198 C138.081552,57.8504114 135.583539,57.3523287 133.585217,58.5976084 L102.360715,80.0172082 L74.133771,59.8428882 L87.1232326,21.9849536 C87.3730777,20.9886422 87.3730777,19.9924768 86.6236885,19.2452798 C86.1241445,18.4980827 85.1249101,18 84.1256758,18 L56.1484302,18 C55.1491958,18 54.1501077,18.4980827 53.6504174,19.2452798 C53.150727,19.9924768 52.9010282,21.2377565 53.1508734,21.9849536 L66.1403349,59.8428882 L37.9133905,80.0172082 L6.43904413,58.5976084 C4.69042054,57.3523287 1.94270893,57.8504114 0.693775716,59.5939198 C-0.555157496,61.3374282 -0.0556134843,64.077102 1.6930101,65.3223818 L35.1656789,88.4854899 C36.6644573,89.4818013 38.4130809,89.4818013 39.9118593,88.4854899 L69.8874273,67.0658902 L97.3649825,86.7421275 L97.3649825,117.875289 C97.3649825,120.11688 99.1136061,121.860388 101.361774,121.860388 C103.609941,121.860388 105.358565,120.11688 105.358565,117.875289 L105.358565,87.4893245 L137.832146,65.0734134 C140.080313,63.8281336 140.579857,61.3374282 139.330924,59.5939198 L139.330485,59.5939198 Z" id="Shape"></path>
        </g>
    </g>
</svg>