<?xml version="1.0" encoding="UTF-8" standalone="no"?>
<svg width="140px" height="140px" viewBox="0 0 140 140" version="1.1" xmlns="http://www.w3.org/2000/svg" xmlns:xlink="http://www.w3.org/1999/xlink">
    <!-- Generator: Sketch 42 (36781) - http://www.bohemiancoding.com/sketch -->
    <title>racemic_mixture</title>
    <desc>Created with Sketch.</desc>
    <defs></defs>
    <g id="Page-1" stroke="none" stroke-width="1" fill="none" fill-rule="evenodd">
        <g id="Artboard-Copy-12" fill-rule="nonzero" fill="#E8EAEA">
            <path d="M56.9021516,47.7950077 C56.9021516,45.2211487 58.9908281,43.1343347 61.5619981,43.1343347 C64.1349922,43.1343347 66.2181963,45.2202367 66.2209325,47.7950077 L66.3157895,85.7717404 C66.3157895,112.743448 39.0535439,111.580559 39.0535439,111.580559 C25.1323778,111.580559 14.8175991,97.0294092 14.8175991,97.0294092 C14.8175991,97.0294092 4.64347643,83.3273953 3.37183401,82.0359054 C2.10019159,80.7444156 -1.47867646,76.1047843 0.674463665,72.5654693 C2.82760379,69.0261543 8.6965911,71.0308798 8.6965911,71.0308798 C8.6965911,71.0308798 11.9509134,72.4582679 18.1914046,79.6389879 C20.6257617,82.4408641 20.8774974,80.7444156 20.8774974,80.7444156 L20.8774974,42.5661156 C20.8774974,39.9940808 22.7600426,38.3806306 25.3339488,38.3806306 C27.9060308,38.3806306 29.9208285,39.9931687 29.9208285,42.5661156 L29.9208285,68.6895985 C29.9208285,68.6895985 29.9272131,70.0996573 31.3838141,70.0996573 C32.8650415,70.0996573 32.9352721,68.6895985 32.9352721,68.6895985 L32.9352721,33.5247747 C32.9352721,30.953652 34.8907842,29 37.4637783,29 C40.0358603,29 41.9749548,30.953652 41.9749548,33.5247747 L41.9749548,68.6886864 C41.9749548,68.6886864 42.0780205,70.161678 43.4497976,70.161678 C44.8325197,70.161678 44.9903106,68.6886864 44.9903106,68.6886864 L44.9903106,38.5484513 C44.9903106,35.9755044 46.822691,33.9789852 49.3965973,33.9789852 C51.9677672,33.9789852 54.0327296,35.9755044 54.0327296,38.5484513 L54.0327296,68.6905105 C54.0327296,68.6905105 53.9925978,70.1479969 55.4245725,70.1479969 C56.8255364,70.1479969 56.8173276,68.6905105 56.8173276,68.6905105 L56.9021516,47.7950077 Z M83.0978484,47.7950077 L83.1826724,68.6905105 C83.1826724,68.6905105 83.1744636,70.1479969 84.5754275,70.1479969 C86.0074022,70.1479969 85.9672704,68.6905105 85.9672704,68.6905105 L85.9672704,38.5484513 C85.9672704,35.9755044 88.0322328,33.9789852 90.6034027,33.9789852 C93.177309,33.9789852 95.0096894,35.9755044 95.0096894,38.5484513 L95.0096894,68.6886864 C95.0096894,68.6886864 95.1674803,70.161678 96.5502024,70.161678 C97.9219795,70.161678 98.0250452,68.6886864 98.0250452,68.6886864 L98.0250452,33.5247747 C98.0250452,30.953652 99.9641397,29 102.536222,29 C105.109216,29 107.064728,30.953652 107.064728,33.5247747 L107.064728,68.6895985 C107.064728,68.6895985 107.134958,70.0996573 108.616186,70.0996573 C110.072787,70.0996573 110.079172,68.6895985 110.079172,68.6895985 L110.079172,42.5661156 C110.079172,39.9931687 112.093969,38.3806306 114.666051,38.3806306 C117.239957,38.3806306 119.122503,39.9940808 119.122503,42.5661156 L119.122503,80.7444156 C119.122503,80.7444156 119.374238,82.4408641 121.808595,79.6389879 C128.049087,72.4582679 131.303409,71.0308798 131.303409,71.0308798 C131.303409,71.0308798 137.172396,69.0261543 139.325536,72.5654693 C141.478676,76.1047843 137.899808,80.7444156 136.628166,82.0359054 C135.356524,83.3273953 125.182401,97.0294092 125.182401,97.0294092 C125.182401,97.0294092 114.867622,111.580559 100.946456,111.580559 C100.946456,111.580559 73.6842105,112.743448 73.6842105,85.7717404 L73.7790675,47.7950077 C73.7818037,45.2202367 75.8650078,43.1343347 78.4380019,43.1343347 C81.0091719,43.1343347 83.0978484,45.2211487 83.0978484,47.7950077 Z" id="Combined-Shape"></path>
        </g>
    </g>
</svg>