<?xml version="1.0" encoding="UTF-8" standalone="no"?>
<svg width="140px" height="140px" viewBox="0 0 140 140" version="1.1" xmlns="http://www.w3.org/2000/svg" xmlns:xlink="http://www.w3.org/1999/xlink">
    <!-- Generator: Sketch 42 (36781) - http://www.bohemiancoding.com/sketch -->
    <title>rule_of_five</title>
    <desc>Created with Sketch.</desc>
    <defs></defs>
    <g id="Page-1" stroke="none" stroke-width="1" fill="none" fill-rule="evenodd">
        <g id="Artboard-Copy-10" fill-rule="nonzero" fill="#E8EAEA">
            <path d="M124.548766,86.4214592 C122.055752,86.429114 119.821141,87.5352326 118.296531,89.2838076 L109.605352,84.852772 C109.893509,83.8848499 110.059393,82.7727169 110.059393,81.6216264 C110.059393,77.3159382 107.739056,73.5553811 104.287827,71.5369744 L109.821232,55.3377778 L110.324998,55.3377778 C114.920024,55.2831007 118.624087,51.5226803 118.624087,46.8916631 C118.624087,42.2267461 114.865409,38.4450016 110.228946,38.4450016 C105.592482,38.4450016 101.833804,42.2267461 101.833804,46.8916631 C101.833804,49.7914653 103.286138,52.3500821 105.499011,53.8710635 L100.154993,69.9867408 C99.6141382,69.8963868 98.9908167,69.8447169 98.3556754,69.8447169 C92.0185277,69.8447169 86.8746305,74.9854617 86.8187924,81.3482407 L69.5486554,84.4667514 C68.186532,81.5620283 65.299662,79.5879101 61.9545393,79.5879101 C57.3312541,79.5879101 53.5833092,83.3588558 53.5833092,88.0105136 C53.5833092,92.6621714 57.3312541,96.4331172 61.9545393,96.4331172 C66.3146654,96.4331172 69.896183,93.0792213 70.2897668,88.7958141 L87.4662968,85.7701178 C89.0457947,89.9411635 92.8186019,92.9285858 97.329124,93.3207576 L99.7711913,116.564284 C96.5672262,117.802858 94.3345178,120.873663 94.3345178,124.469095 C94.3345178,129.134012 98.0931956,132.915756 102.729659,132.915756 C107.366123,132.915756 111.1248,129.134012 111.1248,124.469095 C111.1248,120.278365 108.09161,116.800489 104.11352,116.136572 L101.666018,92.8893549 C104.07711,92.1469761 106.094346,90.7107443 107.546408,88.8141309 L116.249541,93.1790071 C116.141669,93.6868211 116.079989,94.2700895 116.079989,94.867984 C116.079989,99.532901 119.838667,103.314645 124.475131,103.314645 C129.111594,103.314645 132.870272,99.532901 132.870272,94.867984 C132.870272,90.2290386 129.153439,86.4635606 124.552706,86.4215959 L124.548766,86.4214592 Z M87.082359,124.383252 C87.1000207,119.836574 89.0112865,115.742486 92.0632253,112.85526 L90.6562685,98.946762 C87.9970983,97.7183034 85.7566459,95.9972037 83.9623548,93.8814717 L80.6300028,94.4338475 C79.8144406,109.565473 73.0263766,121.342519 55.3966206,121.342519 C40.7890502,121.342519 31.626305,113.113063 30.2591548,98.1986421 L8,98.1986421 C8.95943696,125.662423 29.4196815,139.973482 55.7324643,139.973482 C56.1923473,139.990432 56.7327948,140 57.2752802,140 C68.9467996,140 79.5842953,135.545727 87.6001181,128.234709 C87.2573455,127.105216 87.082359,125.769454 87.082359,124.39241 L87.082359,124.382842 L87.082359,124.383252 Z M54.7489802,62.5294622 C66.0224325,62.5294622 73.3622203,67.8870019 77.2480623,75.5855434 L80.6301387,75.0063757 C82.9864789,68.8174701 88.272213,64.2426337 94.7332642,62.9596346 L95.0697872,62.3363152 C87.8738741,51.5969045 76.0967922,44.9603298 60.2178524,44.9603298 C60.0363447,44.9569125 59.8222307,44.9548621 59.6075734,44.9548621 C49.9952704,44.9548621 41.3078961,48.9386386 35.0871797,55.3547277 L34.6965847,54.9756784 L41.7005289,20.0065027 L95.6693334,20.0065027 L95.6693334,0 L25.1259905,0 L10.5184201,75.078823 L32.7296167,75.078823 C36.4475368,65.4736896 45.3942661,62.5294622 54.7488444,62.5294622 L54.7489802,62.5294622 Z" id="Shape"></path>
        </g>
    </g>
</svg>