<?xml version="1.0" encoding="UTF-8" standalone="no"?>
<svg width="140px" height="140px" viewBox="0 0 140 140" version="1.1" xmlns="http://www.w3.org/2000/svg" xmlns:xlink="http://www.w3.org/1999/xlink">
    <!-- Generator: Sketch 42 (36781) - http://www.bohemiancoding.com/sketch -->
    <title>small molecule</title>
    <desc>Created with Sketch.</desc>
    <defs></defs>
    <g id="Page-1" stroke="none" stroke-width="1" fill="none" fill-rule="evenodd">
        <g id="artboad" fill-rule="nonzero" fill="#E8EAEA">
            <path d="M102.491067,131.86855 L37.5089335,131.86855 C37.4929367,131.868687 37.4740687,131.868824 37.4550639,131.868824 C35.6457852,131.868824 34.0599147,130.908916 33.1762626,129.469328 L0.672685811,72.9401845 C0.249796134,72.2179219 0,71.349342 0,70.4223447 C0,69.4953475 0.249796134,68.6267675 0.685537939,67.8806444 L33.1638207,11.4213004 C34.0599147,9.95977127 35.6457852,9 37.4550639,9 C37.473932,9 37.4929367,9.00013713 37.5118047,9.00027426 L102.491067,9.00027426 C102.507063,9.00013713 102.525931,9 102.544936,9 C104.354215,9 105.940085,9.9599084 106.823737,11.3994968 L139.327314,67.855961 C139.750204,68.5782235 140,69.4468035 140,70.3738008 C140,71.300798 139.750204,72.169378 139.314462,72.9155011 L106.836179,129.326438 C105.957996,130.851047 104.343003,131.861968 102.492024,131.86855 L102.491067,131.86855 Z M39.2612708,123.760197 L100.738729,123.760197 L131.452393,70.3739379 L100.738729,16.9876788 L39.2612708,16.9876788 L8.54760657,70.3739379 L39.2612708,123.760197 Z M48.3974198,112.065141 C48.3974198,109.982438 50.0828747,108.294073 52.1700302,108.294073 L88.6501817,108.294073 C90.7337368,108.294073 92.422792,109.986675 92.422792,112.065141 C92.422792,114.147845 90.7373371,115.83621 88.6501817,115.83621 L52.1700302,115.83621 C50.086475,115.83621 48.3974198,114.143607 48.3974198,112.065141 Z M96.34781,32.2306967 C98.1330356,31.1580249 100.44832,31.7331695 101.523285,33.5222109 L120.311952,64.7918039 C121.385062,66.5777593 120.804146,68.8973171 119.022553,69.9678061 C117.237327,71.0404779 114.922043,70.4653333 113.847078,68.6762919 L95.0584112,37.4066989 C93.9853009,35.6207435 94.566217,33.3011857 96.34781,32.2306967 Z M43.9048261,30.8749694 C45.6864191,31.9454585 46.2673352,34.2650163 45.194225,36.0509716 L26.405558,67.3205646 C25.3305934,69.1096061 23.0153087,69.6847506 21.2300832,68.6120789 C19.4484902,67.5415898 18.8675741,65.222032 19.9406844,63.4360767 L38.7293514,32.1664837 C39.8043159,30.3774423 42.1196006,29.8022977 43.9048261,30.8749694 Z" id="small-molecule"></path>
        </g>
    </g>
</svg>