<?xml version="1.0" encoding="UTF-8" standalone="no"?>
<svg width="140px" height="140px" viewBox="0 0 140 140" version="1.1" xmlns="http://www.w3.org/2000/svg" xmlns:xlink="http://www.w3.org/1999/xlink">
    <!-- Generator: Sketch 42 (36781) - http://www.bohemiancoding.com/sketch -->
    <title>topical</title>
    <desc>Created with Sketch.</desc>
    <defs></defs>
    <g id="Page-1" stroke="none" stroke-width="1" fill="none" fill-rule="evenodd">
        <g id="Artboard-Copy-18" fill-rule="nonzero" fill="#E8EAEA">
            <path d="M101.105589,96.2158728 L110.976228,10.651395 C111.271482,8.08922926 110.453664,5.57894918 108.672255,3.5825847 C106.643771,1.304555 103.626988,0 100.394014,0 L38.6413707,0 C35.4083969,0 32.3903781,1.30702585 30.3606585,3.5825847 C28.5804844,5.58142002 27.7639022,8.0917001 28.0591565,10.651395 L37.9297953,96.2158728 C38.9088292,104.704746 45.513139,111.50548 54.2577342,113.84219 L54.2577342,117.01463 L49.5929618,117.01463 C48.1957537,117.01463 47.0629157,118.146233 47.0629157,119.544676 L47.0629157,137.469954 C47.0629157,138.868397 48.1957537,140 49.5929618,140 L89.4411874,140 C90.8383954,140 91.9712334,138.868397 91.9712334,137.469954 L91.9712334,119.544676 C91.9712334,118.146233 90.8383954,117.01463 89.4411874,117.01463 L84.7764149,117.01463 L84.7764149,113.842499 C93.5216277,111.506098 100.126555,104.705363 101.105589,96.2158728 Z M42.9577675,95.6377178 L35.9741979,35.1043892 L103.060568,35.1043892 L96.0776166,95.6377178 C95.1560276,103.633059 87.4201152,109.661684 78.0831581,109.661684 L60.952226,109.661684 C51.6152689,109.661684 43.8793567,103.633059 42.9577675,95.6377178 Z M79.7163225,117.014631 L59.3178261,117.014631 L59.3178261,114.653831 C59.8595376,114.687186 60.4012493,114.721776 60.952226,114.721776 L78.0831581,114.721776 C78.6341348,114.721776 79.1752287,114.687186 79.7163225,114.653831 L79.7163225,117.014631 L79.7163225,117.014631 Z" id="Shape-Copy"></path>
        </g>
    </g>
</svg>