<?xml version="1.0" encoding="UTF-8" standalone="no"?>
<svg width="140px" height="140px" viewBox="0 0 140 140" version="1.1" xmlns="http://www.w3.org/2000/svg" xmlns:xlink="http://www.w3.org/1999/xlink">
    <!-- Generator: Sketch 42 (36781) - http://www.bohemiancoding.com/sketch -->
    <title>unknown</title>
    <desc>Created with Sketch.</desc>
    <defs></defs>
    <g id="Page-1" stroke="none" stroke-width="1" fill="none" fill-rule="evenodd">
        <g id="Artboard-Copy-9" fill="#E8EAEA">
            <path d="M56.3183345,112.827401 L84.337139,112.827401 L84.337139,140 L56.3183345,140 L56.3183345,112.827401 Z M40.710544,7.14573539 C48.1070439,2.38188798 57.195827,0 67.9771659,0 C82.1433437,0 93.9117508,3.38478818 103.28274,10.1544661 C112.653729,16.924144 117.339154,26.953146 117.339154,40.241773 C117.339154,48.3904594 115.302013,55.2540576 111.22767,60.8327737 C108.845746,64.2176126 104.270014,68.5426197 97.5003358,73.8079248 L90.8247146,78.9791807 C87.1891468,81.7998798 84.7759182,85.0906461 83.5849563,88.8515782 C82.8327699,91.2335019 82.4253417,94.9316964 82.3626595,99.9462727 L56.9764943,99.9462727 C57.3525875,89.3529804 58.3554877,82.034943 59.985225,77.9919409 C61.6149623,73.9489388 65.8146069,69.2948551 72.5842848,64.02955 L79.4479516,58.6702485 C81.7045109,56.977829 83.5222676,55.1287318 84.901276,53.1229013 C87.4085641,49.6753801 88.6621894,45.8831637 88.6621894,41.7461383 C88.6621894,36.9822909 87.2675313,32.6416135 84.4781733,28.7239758 C81.6888152,24.8063381 76.5959627,22.8475487 69.1994627,22.8475487 C61.9283272,22.8475487 56.7727934,25.2607773 53.7327065,30.0873069 C50.6926197,34.9138365 49.1725991,39.9283375 49.1725991,45.1309604 L22,45.1309604 C22.7521864,27.2665326 28.9889721,14.6049175 40.710544,7.14573539 Z" id="?"></path>
        </g>
    </g>
</svg>