<?xml version="1.0" encoding="UTF-8" standalone="no"?>
<svg width="140px" height="140px" viewBox="0 0 140 140" version="1.1" xmlns="http://www.w3.org/2000/svg" xmlns:xlink="http://www.w3.org/1999/xlink">
    <!-- Generator: Sketch 42 (36781) - http://www.bohemiancoding.com/sketch -->
    <title>withdrawn</title>
    <desc>Created with Sketch.</desc>
    <defs></defs>
    <g id="Page-1" stroke="none" stroke-width="1" fill="none" fill-rule="evenodd">
        <g id="Artboard-Copy-22" fill-rule="nonzero" fill="#E8EAEA">
            <path d="M100.434106,26.0744108 L129.91435,26.0744108 C131.983089,26.0744108 133.79333,27.8904803 133.79333,29.9658798 L133.79333,47.3478252 C133.79333,49.4232246 131.983089,51.2392941 129.91435,51.2392941 L100.434106,51.2392941 C98.3653679,51.2392941 96.555127,49.4232246 96.555127,47.3478252 L96.555127,29.9658798 C96.555127,27.8904803 98.3653679,26.0744108 100.434106,26.0744108 L100.434106,26.0744108 Z M139.999697,69.6588633 C139.999697,69.3993813 139.999697,68.8805695 139.741048,68.3617576 C139.741048,67.5834638 139.482399,66.5456881 139.223901,65.7673943 C138.965252,64.7296186 138.448105,63.6919949 137.672309,62.6542191 C136.637864,61.0976315 134.827775,59.541044 132.500387,58.5032682 C131.98324,58.2437863 131.465942,57.9844564 131.207445,57.7249744 C130.431649,57.2061626 129.655853,56.1683868 129.397204,55.390093 C129.138554,54.8712812 129.138554,54.3523173 128.880057,53.8335055 L101.468551,53.8335055 C101.468551,54.3523173 101.209902,54.8712812 100.951405,55.390093 C100.434258,56.4278688 99.9169597,57.2061626 99.1411638,57.7249744 C98.624017,57.9844564 98.3653679,58.2437863 97.8482211,58.5032682 C90.0902622,61.8759253 90.3489114,70.696487 90.3489114,70.696487 L90.3489114,130.106297 C90.3489114,130.625109 90.3489114,131.144073 90.6075605,131.662885 L90.8662096,132.441179 C91.1248588,132.700661 91.3833564,132.959991 91.6420055,133.219473 C91.9006547,133.478954 92.1591523,133.738284 92.6764506,133.738284 C93.1935973,133.997766 93.7108956,133.997766 94.2280423,133.997766 L136.121021,133.997766 C138.189759,133.997766 140,132.181697 140,130.106297 L140,70.4371571 L140,69.6588633 L139.999697,69.6588633 Z M96.0378287,122.063877 L96.0378287,76.9228374 L134.568974,76.9228374 L134.568974,122.063877 L96.0378287,122.063877 L96.0378287,122.063877 Z M60.3512177,7.65468963 C59.5754218,6.09810204 57.5066832,5.57929018 55.9550914,6.35758397 C55.4379447,6.61706591 54.9206464,7.13587777 54.6621488,7.65468963 L0.35643632,105.200896 C-0.419359573,106.757484 0.0977871814,108.832883 1.64937897,109.611177 C2.16652572,109.870659 2.683824,110.129989 3.20097075,110.129989 L82.5908009,110.129989 L82.5908009,70.696487 C82.5908009,67.0645 83.6252459,61.0974795 87.5042254,56.4277168 L60.3513692,7.65468963 L60.3512177,7.65468963 Z M63.9716995,95.3425585 C63.9716995,96.1208523 63.1959036,96.8991461 62.4201077,96.8991461 L52.5934103,96.8991461 C51.8176144,96.8991461 51.0418185,96.1208523 51.0418185,95.3425585 L51.0418185,85.4842211 C51.0418185,84.7059273 51.8176144,83.9276335 52.5934103,83.9276335 L62.4201077,83.9276335 C63.1959036,83.9276335 63.9716995,84.7059273 63.9716995,85.4842211 L63.9716995,95.3425585 Z M63.9716995,75.8852136 C63.9716995,76.6635074 63.1959036,77.4418012 62.4201077,77.4418012 L52.5934103,77.4418012 C51.8176144,77.4418012 51.0418185,76.6635074 51.0418185,75.8852136 L51.0418185,36.711042 C51.0418185,35.9327482 51.8176144,35.1544544 52.5934103,35.1544544 L62.4201077,35.1544544 C63.1959036,35.1544544 63.9716995,35.9327482 63.9716995,36.711042 L63.9716995,75.8852136 Z" id="Shape"></path>
        </g>
    </g>
</svg>