<?xml version="1.0" encoding="UTF-8" standalone="no"?>
<svg width="140px" height="140px" viewBox="0 0 140 140" version="1.1" xmlns="http://www.w3.org/2000/svg" xmlns:xlink="http://www.w3.org/1999/xlink">
    <!-- Generator: Sketch 42 (36781) - http://www.bohemiancoding.com/sketch -->
    <title>antibody</title>
    <desc>Created with Sketch.</desc>
    <defs></defs>
    <g id="Page-1" stroke="none" stroke-width="1" fill="none" fill-rule="evenodd">
        <g id="artboard" fill-rule="nonzero" fill="#E8EAEA">
            <path d="M101.96012,63.7321163 C100.968582,63.7321163 99.9643377,63.4794825 99.0422491,62.9489269 C96.2463779,61.3341926 95.288516,57.7594495 96.9032503,54.9635783 L116.381338,21.2264857 C117.996072,18.4306144 121.570816,17.4727525 124.366687,19.0874869 C127.162558,20.7022213 128.12042,24.2769643 126.505686,27.0728355 L107.027598,60.8099282 C105.945516,62.6835875 103.981313,63.7321163 101.960243,63.7321163 L101.96012,63.7321163 Z M78.0946174,130 C74.9387924,130 72.3829726,127.44418 72.3829726,124.290452 L72.3829726,67.7636478 C72.3829726,66.7784008 72.6398005,65.8078332 73.1261945,64.9489031 L102.604286,12.8979597 C104.157959,10.1547617 107.640062,9.18629111 110.387454,10.7442816 C113.132749,12.2979545 114.096902,15.7843745 112.541132,18.5274492 L83.8061388,69.2689651 L83.8061388,124.290452 C83.8061388,127.44418 81.250319,130 78.094494,130 L78.0946174,130 Z M38.3300877,63.7321163 C39.3216259,63.7321163 40.3258698,63.4794825 41.2479584,62.9489269 C44.0438296,61.3341926 45.0016915,57.7594495 43.3869571,54.9635783 L23.9067723,21.2264857 C22.294135,18.4306144 18.7172948,17.4727525 15.9235207,19.0874869 C13.1276495,20.7022213 12.1697876,24.2769643 13.7845219,27.0707385 L33.2626097,60.8078311 C34.3446914,62.6835875 36.3088943,63.7321163 38.3299644,63.7321163 L38.3300877,63.7321163 Z M62.193493,130 C65.349318,130 67.9051378,127.44418 67.9051378,124.290452 L67.9051378,67.7636478 C67.9051378,66.7784008 67.6483099,65.8078332 67.1619159,64.9489031 L37.685921,12.8979597 C36.132248,10.1547617 32.6501455,9.18629111 29.9027534,10.7442816 C27.1574583,12.2979545 26.1933052,15.7822774 27.7469782,18.5274492 L56.4819716,69.2689651 L56.4819716,124.290452 C56.4819716,127.44418 59.0398885,130 62.1936164,130 L62.193493,130 Z" id="Shape"></path>
        </g>
    </g>
</svg>