<?xml version="1.0" encoding="UTF-8" standalone="no"?>
<svg width="140px" height="140px" viewBox="0 0 140 140" version="1.1" xmlns="http://www.w3.org/2000/svg" xmlns:xlink="http://www.w3.org/1999/xlink">
    <!-- Generator: Sketch 42 (36781) - http://www.bohemiancoding.com/sketch -->
    <title>cell</title>
    <desc>Created with Sketch.</desc>
    <defs></defs>
    <g id="Page-1" stroke="none" stroke-width="1" fill="none" fill-rule="evenodd">
        <g id="Artboard-Copy-24" fill-rule="nonzero" fill="#E0E2E2">
            <path d="M49.3888452,95.385763 C51.5325666,93.2420416 54.104982,88.9547244 54.7480859,87.2398227 C55.6055996,84.8818171 56.8918073,81.023194 58.606709,80.1656803 C60.1073265,79.3081666 63.9659497,79.7369863 67.3957532,79.9512705 C69.3250647,79.9512705 73.8267917,79.7368606 75.7561033,78.4506529 C76.8279012,77.8075491 76.3992071,74.8064396 74.0412015,74.8064396 C71.6831959,74.8064396 68.038857,76.0926473 66.7526493,76.7357512 C64.6089279,77.8075491 62.0365125,77.8075491 59.6785069,78.2363687 C59.2498129,78.2363687 58.8209932,77.8076747 59.035403,77.378855 C60.5360206,75.4495435 61.6078185,73.0915379 63.3227202,71.5909204 C64.3945181,70.7334067 67.1813433,67.946707 68.038857,65.8029857 C68.8963707,63.6592643 66.3239553,61.9443625 65.4664416,62.5874664 C63.53713,63.8736741 61.1791244,67.946707 60.5360206,69.6616088 C59.2498129,72.6627182 58.178015,76.5213414 56.6773974,77.5932649 C55.1767799,78.6651884 51.1038726,78.4507785 48.7457414,78.0219589 C47.0308396,77.8075491 42.100293,78.4506529 39.3135933,79.5225764 C36.5268937,80.5944999 38.8848993,84.4529975 40.8142109,84.0243034 C44.0297302,83.1667897 47.2452494,82.0949919 48.745867,81.451888 C51.5326922,80.3800901 53.676288,80.1656803 55.1769055,79.9512705 C55.6055996,79.9512705 56.0344192,80.3799645 55.8200094,80.8087841 C54.9624957,82.0949919 53.8906978,83.8098936 51.7469764,85.953615 C50.6751785,87.0254129 48.1027631,89.5978283 46.1734515,92.1702437 C44.8872438,93.6708612 47.4596593,97.5294844 49.3889708,95.385763 L49.3888452,95.385763 Z M129.348133,50.3684931 L112.198739,23.7868252 C111.555635,22.7150274 110.269427,21.8575137 108.76881,21.8575137 L69.1107805,21 C68.2532668,21 67.3958788,21.2144098 66.7527749,21.6431039 L27.5234397,46.938564 C26.8803359,47.3672581 26.237232,48.0103619 26.0228222,48.8678756 L10.3739199,85.5247953 C9.73081601,86.8110031 9.94522583,88.3116206 10.8026139,89.3834185 L27.9520082,115.965086 C28.595112,117.036884 29.8813197,117.894398 31.3819373,117.894398 L71.2543763,118.751912 C72.11189,118.751912 72.7549938,118.537502 73.3980977,118.108808 L112.627433,92.8133476 C113.270537,92.3846535 113.913641,91.7415497 114.12805,90.884036 L129.776953,54.2271163 C130.205647,52.9409085 129.991363,51.440291 129.348259,50.3684931 L129.348133,50.3684931 Z M33.5256587,109.534048 L18.73427,86.5967188 L33.0969646,53.1553184 L70.1825784,29.3604757 L106.625088,30.2179894 L121.202067,52.9410342 L106.839373,86.3824346 L69.7537588,110.391687 L33.525533,109.534173 L33.5256587,109.534048 Z M57.9636052,102.888725 L57.9636052,102.888725 L38.2417955,102.460031 C37.8131014,102.460031 37.3842818,102.245621 37.1699976,101.816927 L28.5952376,88.7404402 C28.3808278,88.3117462 28.3808278,87.8829266 28.3808278,87.4542325 L36.0980741,69.2329148 C36.3124839,69.0185049 36.3124839,68.8042207 36.7411779,68.5898109 L56.2487034,56.1564278 C56.4631132,55.942018 56.8918073,55.942018 57.1062171,55.942018 L76.8280268,56.370712 C77.2567208,56.370712 77.6855404,56.5851219 77.8998247,57.0138159 L86.4745846,70.0903028 C86.6889944,70.5189969 86.6889944,70.9478165 86.6889944,71.3765105 L78.9717482,89.5978283 C78.7573383,89.8122381 78.7573383,90.0265223 78.3286443,90.2409322 L58.8211188,102.674315 C58.606709,102.888725 58.178015,102.888725 57.9636052,102.888725 L57.9636052,102.888725 Z M39.0991835,99.6732058 L57.5347855,100.1019 L76.1847973,88.0973364 L83.4733495,71.1622263 L75.7561033,59.3719471 L57.3205013,58.9432531 L38.6704895,70.9478165 L31.3819373,87.8829266 L39.0991835,99.6732058 Z" id="Shape"></path>
        </g>
    </g>
</svg>