<!-- Generated by IcoMoon.io -->
<svg version="1.1" xmlns="http://www.w3.org/2000/svg" width="32" height="32" viewBox="0 0 32 32">
<title>cell</title>
<path fill="rgb(204,204,204)" d="M11.040 22.827c0.533-0.533 1.173-1.6 1.333-2.027 0.213-0.587 0.533-1.547 0.96-1.76 0.373-0.213 1.333-0.107 2.187-0.053 0.48 0 1.6-0.053 2.080-0.373 0.267-0.16 0.16-0.907-0.427-0.907s-1.493 0.32-1.813 0.48c-0.533 0.267-1.173 0.267-1.76 0.373-0.107 0-0.213-0.107-0.16-0.213 0.373-0.48 0.64-1.067 1.067-1.44 0.267-0.213 0.96-0.907 1.173-1.44s-0.427-0.96-0.64-0.8c-0.48 0.32-1.067 1.333-1.227 1.76-0.32 0.747-0.587 1.707-0.96 1.973s-1.387 0.213-1.973 0.107c-0.427-0.053-1.653 0.107-2.347 0.373s-0.107 1.227 0.373 1.12c0.8-0.213 1.6-0.48 1.973-0.64 0.693-0.267 1.227-0.32 1.6-0.373 0.107 0 0.213 0.107 0.16 0.213-0.213 0.32-0.48 0.747-1.013 1.28-0.267 0.267-0.907 0.907-1.387 1.547-0.32 0.373 0.32 1.333 0.8 0.8zM30.933 11.627l-4.267-6.613c-0.16-0.267-0.48-0.48-0.853-0.48l-9.867-0.213c-0.213 0-0.427 0.053-0.587 0.16l-9.76 6.293c-0.16 0.107-0.32 0.267-0.373 0.48l-3.893 9.12c-0.16 0.32-0.107 0.693 0.107 0.96l4.267 6.613c0.16 0.267 0.48 0.48 0.853 0.48l9.92 0.213c0.213 0 0.373-0.053 0.533-0.16l9.76-6.293c0.16-0.107 0.32-0.267 0.373-0.48l3.893-9.12c0.107-0.32 0.053-0.693-0.107-0.96zM7.093 26.347l-3.68-5.707 3.573-8.32 9.227-5.92 9.067 0.213 3.627 5.653-3.573 8.32-9.227 5.973-9.013-0.213zM16.427 28.267v0 0 0zM13.173 24.693c0 0 0 0 0 0l-4.907-0.107c-0.107 0-0.213-0.053-0.267-0.16l-2.133-3.253c-0.053-0.107-0.053-0.213-0.053-0.32l1.92-4.533c0.053-0.053 0.053-0.107 0.16-0.16l4.853-3.093c0.053-0.053 0.16-0.053 0.213-0.053l4.907 0.107c0.107 0 0.213 0.053 0.267 0.16l2.133 3.253c0.053 0.107 0.053 0.213 0.053 0.32l-1.92 4.533c-0.053 0.053-0.053 0.107-0.16 0.16l-4.853 3.093c-0.053 0.053-0.16 0.053-0.213 0.053zM8.48 23.893l4.587 0.107 4.64-2.987 1.813-4.213-1.92-2.933-4.587-0.107-4.64 2.987-1.813 4.213 1.92 2.933z"></path>
</svg>
