<?xml version="1.0" encoding="UTF-8" standalone="no"?>
<svg width="140px" height="140px" viewBox="0 0 140 140" version="1.1" xmlns="http://www.w3.org/2000/svg" xmlns:xlink="http://www.w3.org/1999/xlink">
    <!-- Generator: Sketch 42 (36781) - http://www.bohemiancoding.com/sketch -->
    <title>Metal containing</title>
    <desc>Created with Sketch.</desc>
    <defs></defs>
    <g id="Page-1" stroke="none" stroke-width="1" fill="none" fill-rule="evenodd">
        <g id="Artboard-Copy-25" fill="#E8EAEA">
            <path d="M13.3436529,21 L13.3436529,82.9312868 L26.0942119,82.9312868 L26.0942119,39.4752999 L26.2676889,39.4752999 L41.4469259,82.9312868 L51.942284,82.9312868 L67.121521,39.0416074 L67.294998,39.0416074 L67.294998,82.9312868 L80.0455571,82.9312868 L80.0455571,21 L60.8763492,21 L47.1716667,63.588602 L46.9981897,63.588602 L32.5128607,21 L13.3436529,21 Z M95.8373847,75.2711933 C95.6747492,74.3929617 95.3860755,73.7261661 94.971355,73.2707867 C94.5566345,72.8154074 93.9264314,72.5877211 93.0807268,72.5877211 C92.5277661,72.5877211 92.0683278,72.6812351 91.7023979,72.8682659 C91.336468,73.0552967 91.0437285,73.2870488 90.8241706,73.5635292 C90.6046127,73.8400095 90.4501113,74.132749 90.3606618,74.4417565 C90.2712122,74.7507639 90.2183565,75.0272401 90.202093,75.2711933 L95.8373847,75.2711933 Z M90.202093,77.4667615 C90.2508836,78.5889465 90.5354914,79.4021117 91.055925,79.9062818 C91.5763586,80.4104518 92.3244707,80.662533 93.3002836,80.662533 C93.9996163,80.662533 94.6013586,80.4877025 95.1055286,80.1380362 C95.6096986,79.7883699 95.9187015,79.4183797 96.0325463,79.0280545 L99.0819466,79.0280545 C98.5940401,80.5405646 97.845928,81.6220744 96.837588,82.2726164 C95.8292479,82.9231584 94.6095,83.2484245 93.1783076,83.2484245 C92.1862311,83.2484245 91.2917493,83.0898572 90.4948354,82.772718 C89.6979215,82.4555788 89.0229943,82.0042721 88.4700336,81.4187843 C87.9170729,80.8332965 87.4901611,80.1339744 87.1892855,79.3207969 C86.8884098,78.5076194 86.7379742,77.6131376 86.7379742,76.6373247 C86.7379742,75.6940388 86.8924756,74.8158203 87.2014831,74.0026428 C87.5104905,73.1894653 87.9495998,72.4860774 88.518824,71.8924578 C89.0880482,71.2988383 89.7670412,70.8312682 90.5558234,70.4897337 C91.3446055,70.1481991 92.2187582,69.9774344 93.1783076,69.9774344 C94.2517019,69.9774344 95.186842,70.1847916 95.9837559,70.5995121 C96.7806698,71.0142326 97.4352679,71.5712508 97.9475697,72.2705835 C98.4598715,72.9699161 98.8298617,73.7668181 99.0575514,74.6613133 C99.2852411,75.5558085 99.3665576,76.4909486 99.3015034,77.4667615 L90.202093,77.4667615 Z M105.741837,70.3189673 L105.741837,66.5377109 L102.277718,66.5377109 L102.277718,70.3189673 L100.179731,70.3189673 L100.179731,72.6365115 L102.277718,72.6365115 L102.277718,80.0770482 C102.277718,80.7113266 102.38343,81.2236207 102.594856,81.6139459 C102.806282,82.0042711 103.094956,82.3051423 103.460885,82.5165684 C103.826815,82.7279946 104.249661,82.8702985 104.729436,82.9434844 C105.209211,83.0166704 105.717439,83.0532629 106.254136,83.0532629 C106.595671,83.0532629 106.945332,83.0451312 107.30313,83.0288677 C107.660928,83.0126041 107.986194,82.9800775 108.278938,82.9312868 L108.278938,80.2478146 C108.116302,80.2803417 107.945538,80.3047367 107.766639,80.3210002 C107.58774,80.3372638 107.400712,80.3453954 107.205549,80.3453954 C106.620061,80.3453954 106.229742,80.2478156 106.034579,80.052653 C105.839417,79.8574904 105.741837,79.4671711 105.741837,78.8816833 L105.741837,72.6365115 L108.278938,72.6365115 L108.278938,70.3189673 L105.741837,70.3189673 Z M109.79144,74.1978044 C109.840231,73.384627 110.043522,72.7096998 110.40132,72.1730026 C110.759119,71.6363055 111.214491,71.2053279 111.767452,70.8800569 C112.320412,70.5547859 112.942484,70.3230338 113.633685,70.1847937 C114.324886,70.0465535 115.020142,69.9774344 115.719475,69.9774344 C116.353753,69.9774344 116.996154,70.0221585 117.646696,70.1116081 C118.297237,70.2010576 118.890848,70.3758881 119.427545,70.6361049 C119.964242,70.8963217 120.403352,71.2581802 120.744886,71.7216914 C121.086421,72.1852026 121.257185,72.7991423 121.257185,73.5635292 L121.257185,80.1258386 C121.257185,80.6950628 121.289712,81.2398836 121.354766,81.7603171 C121.41982,82.2807507 121.533664,82.6710701 121.696299,82.9312868 L118.18339,82.9312868 C118.118336,82.7361243 118.06548,82.5368988 118.024821,82.3336044 C117.984162,82.13031 117.955701,81.9229529 117.939438,81.7115267 C117.386477,82.280751 116.735945,82.679202 115.987822,82.9068916 C115.239698,83.1345813 114.475323,83.2484245 113.694673,83.2484245 C113.092921,83.2484245 112.531837,83.1752396 112.011404,83.0288677 C111.49097,82.8824957 111.035598,82.6548094 110.645272,82.345802 C110.254947,82.0367946 109.95001,81.6464752 109.730452,81.1748323 C109.510894,80.7031893 109.401117,80.1421053 109.401117,79.4915633 C109.401117,78.7759671 109.527158,78.1864223 109.779243,77.7229112 C110.031328,77.2594 110.356594,76.8894098 110.755051,76.6129295 C111.153508,76.3364491 111.60888,76.129092 112.121182,75.9908518 C112.633484,75.8526116 113.149844,75.7428343 113.670278,75.6615166 C114.190711,75.5801988 114.703005,75.5151456 115.207175,75.466355 C115.711345,75.4175643 116.158586,75.3443794 116.548911,75.2467981 C116.939237,75.1492168 117.248239,75.0069129 117.475929,74.8198821 C117.703619,74.6328513 117.80933,74.3604409 117.793067,74.0026428 C117.793067,73.6285812 117.732079,73.3317758 117.610103,73.1122179 C117.488126,72.89266 117.325493,72.7218953 117.122199,72.5999187 C116.918904,72.4779421 116.683086,72.3966255 116.414738,72.3559667 C116.146389,72.3153078 115.857716,72.2949787 115.548708,72.2949787 C114.865639,72.2949787 114.32895,72.4413484 113.938625,72.7340923 C113.5483,73.0268362 113.320613,73.5147354 113.255559,74.1978044 L109.79144,74.1978044 Z M117.793067,76.7593007 C117.646695,76.8894091 117.463733,76.9910547 117.244175,77.0642407 C117.024617,77.1374267 116.788799,77.1984141 116.536714,77.2472047 C116.284629,77.2959954 116.02035,77.3366536 115.74387,77.3691807 C115.467389,77.4017078 115.190913,77.4423661 114.914433,77.4911567 C114.654216,77.5399474 114.398069,77.6050006 114.145984,77.6863184 C113.893899,77.7676361 113.674344,77.8774134 113.487314,78.0156536 C113.300283,78.1538938 113.149847,78.3287243 113.036002,78.5401504 C112.922157,78.7515766 112.865236,79.0199211 112.865236,79.3451921 C112.865236,79.6541996 112.922157,79.9144124 113.036002,80.1258386 C113.149847,80.3372647 113.304349,80.5039636 113.499511,80.6259402 C113.694674,80.7479169 113.92236,80.8332992 114.182577,80.8820899 C114.442794,80.9308805 114.711138,80.9552755 114.987618,80.9552755 C115.670688,80.9552755 116.199245,80.8414323 116.573307,80.6137426 C116.947368,80.3860529 117.223844,80.1136426 117.402743,79.7965034 C117.581643,79.4793641 117.69142,79.1581639 117.732079,78.8328929 C117.772738,78.5076219 117.793067,78.247409 117.793067,78.0522464 L117.793067,76.7593007 Z M124.038239,65.5131124 L124.038239,82.9312868 L127.502357,82.9312868 L127.502357,65.5131124 L124.038239,65.5131124 Z M18.9774344,105.930541 L22.3683676,105.930541 C22.3195769,105.117364 22.1244172,104.413976 21.7828827,103.820356 C21.4413482,103.226737 20.9981731,102.730706 20.4533442,102.332249 C19.9085153,101.933792 19.2905097,101.636987 18.5993088,101.441824 C17.9081079,101.246662 17.1884567,101.149082 16.4403334,101.149082 C15.4157298,101.149082 14.5049847,101.319846 13.7080707,101.661381 C12.9111568,102.002916 12.2362296,102.478617 11.683269,103.0885 C11.1303083,103.698383 10.7115282,104.422101 10.426916,105.259673 C10.1423039,106.097246 10,107.003925 10,107.979738 C10,108.923024 10.1545014,109.789045 10.4635088,110.577827 C10.7725163,111.36661 11.2034939,112.045603 11.7564546,112.614827 C12.3094152,113.184051 12.9802766,113.627226 13.7690588,113.944365 C14.5578409,114.261505 15.4238619,114.420072 16.3671478,114.420072 C18.0422934,114.420072 19.4165427,113.980963 20.489937,113.102731 C21.5633312,112.224499 22.2138635,110.94783 22.4415532,109.272684 L19.0994104,109.272684 C18.9855656,110.053335 18.7050236,110.675406 18.257776,111.138917 C17.8105284,111.602428 17.1721936,111.83418 16.3427526,111.83418 C15.8060555,111.83418 15.3506829,111.712206 14.9766213,111.468252 C14.6025596,111.224299 14.3057543,110.91123 14.0861964,110.529037 C13.8666385,110.146844 13.7080712,109.719932 13.6104899,109.248289 C13.5129086,108.776646 13.4641187,108.313142 13.4641187,107.857762 C13.4641187,107.386119 13.5129086,106.910418 13.6104899,106.430643 C13.7080712,105.950868 13.8747701,105.511759 14.1105916,105.113302 C14.3464131,104.714845 14.65135,104.389579 15.0254117,104.137494 C15.3994733,103.885409 15.8629775,103.759368 16.4159382,103.759368 C17.8959212,103.759368 18.7497447,104.483086 18.9774344,105.930541 Z M27.4669648,107.808972 C27.4669648,108.313142 27.5157547,108.805107 27.613336,109.284882 C27.7109173,109.764656 27.8776162,110.195634 28.1134377,110.577827 C28.3492592,110.960021 28.6623278,111.264958 29.052653,111.492648 C29.4429782,111.720337 29.9308773,111.83418 30.5163651,111.83418 C31.1018529,111.83418 31.5938179,111.720337 31.9922749,111.492648 C32.3907318,111.264958 32.7078663,110.960021 32.9436877,110.577827 C33.1795092,110.195634 33.3462081,109.764656 33.4437894,109.284882 C33.5413707,108.805107 33.5901606,108.313142 33.5901606,107.808972 C33.5901606,107.304802 33.5413707,106.808771 33.4437894,106.320865 C33.3462081,105.832958 33.1795092,105.401981 32.9436877,105.027919 C32.7078663,104.653857 32.3907318,104.34892 31.9922749,104.113099 C31.5938179,103.877277 31.1018529,103.759368 30.5163651,103.759368 C29.9308773,103.759368 29.4429782,103.877277 29.052653,104.113099 C28.6623278,104.34892 28.3492592,104.653857 28.1134377,105.027919 C27.8776162,105.401981 27.7109173,105.832958 27.613336,106.320865 C27.5157547,106.808771 27.4669648,107.304802 27.4669648,107.808972 Z M24.0028461,107.808972 C24.0028461,106.800632 24.1573475,105.885821 24.466355,105.064512 C24.7753624,104.243203 25.2144716,103.54388 25.7836959,102.966524 C26.3529201,102.389168 27.0359789,101.941927 27.8328929,101.624788 C28.6298068,101.307649 29.5242886,101.149082 30.5163651,101.149082 C31.5084416,101.149082 32.4069893,101.307649 33.212035,101.624788 C34.0170807,101.941927 34.7042053,102.389168 35.2734296,102.966524 C35.8426538,103.54388 36.281763,104.243203 36.5907705,105.064512 C36.8997779,105.885821 37.0542793,106.800632 37.0542793,107.808972 C37.0542793,108.817312 36.8997779,109.728057 36.5907705,110.541235 C36.281763,111.354412 35.8426538,112.049668 35.2734296,112.627024 C34.7042053,113.20438 34.0170807,113.647556 33.212035,113.956563 C32.4069893,114.26557 31.5084416,114.420072 30.5163651,114.420072 C29.5242886,114.420072 28.6298068,114.26557 27.8328929,113.956563 C27.0359789,113.647556 26.3529201,113.20438 25.7836959,112.627024 C25.2144716,112.049668 24.7753624,111.354412 24.466355,110.541235 C24.1573475,109.728057 24.0028461,108.817312 24.0028461,107.808972 Z M39.2986379,101.490615 L39.2986379,114.102934 L42.7627567,114.102934 L42.7627567,107.491834 C42.7627567,106.207014 42.9741796,105.284071 43.3970319,104.722979 C43.8198842,104.161886 44.502943,103.881344 45.4462289,103.881344 C46.2756699,103.881344 46.8530173,104.137492 47.1782883,104.649793 C47.5035593,105.162095 47.6661923,105.938668 47.6661923,106.979535 L47.6661923,114.102934 L51.130311,114.102934 L51.130311,106.34526 C51.130311,105.56461 51.061192,104.85309 50.9229518,104.21068 C50.7847116,103.568269 50.5448279,103.023449 50.2032934,102.576201 C49.8617588,102.128954 49.3941888,101.779292 48.8005692,101.527207 C48.2069497,101.275122 47.4466401,101.149082 46.5196178,101.149082 C45.7877581,101.149082 45.0721726,101.315781 44.37284,101.649183 C43.6735074,101.982586 43.1042917,102.515209 42.6651758,103.247069 L42.5919902,103.247069 L42.5919902,101.490615 L39.2986379,101.490615 Z M58.1561293,101.490615 L58.1561293,97.7093583 L54.6920106,97.7093583 L54.6920106,101.490615 L52.5940232,101.490615 L52.5940232,103.808159 L54.6920106,103.808159 L54.6920106,111.248696 C54.6920106,111.882974 54.7977221,112.395268 55.0091482,112.785593 C55.2205743,113.175918 55.509248,113.47679 55.8751779,113.688216 C56.2411077,113.899642 56.6639537,114.041946 57.1437284,114.115132 C57.6235031,114.188318 58.1317314,114.22491 58.6684285,114.22491 C59.0099631,114.22491 59.3596242,114.216779 59.7174222,114.200515 C60.0752203,114.184251 60.4004864,114.151725 60.6932303,114.102934 L60.6932303,111.419462 C60.5305948,111.451989 60.3598301,111.476384 60.1809311,111.492648 C60.002032,111.508911 59.815004,111.517043 59.6198414,111.517043 C59.0343536,111.517043 58.6440343,111.419463 58.4488717,111.2243 C58.2537091,111.029138 58.1561293,110.638818 58.1561293,110.053331 L58.1561293,103.808159 L60.6932303,103.808159 L60.6932303,101.490615 L58.1561293,101.490615 Z M62.2057329,105.369452 C62.2545235,104.556274 62.4578148,103.881347 62.8156129,103.34465 C63.173411,102.807953 63.6287836,102.376975 64.1817443,102.051704 C64.7347049,101.726433 65.3567764,101.494681 66.0479772,101.356441 C66.7391781,101.218201 67.4344344,101.149082 68.133767,101.149082 C68.7680455,101.149082 69.410446,101.193806 70.060988,101.283255 C70.71153,101.372705 71.3051406,101.547535 71.8418378,101.807752 C72.3785349,102.067969 72.8176442,102.429828 73.1591787,102.893339 C73.5007132,103.35685 73.6714779,103.97079 73.6714779,104.735177 L73.6714779,111.297486 C73.6714779,111.86671 73.7040046,112.411531 73.7690588,112.931964 C73.8341129,113.452398 73.9479561,113.842717 74.1105916,114.102934 L70.5976825,114.102934 C70.5326283,113.907772 70.4797725,113.708546 70.4391136,113.505252 C70.3984548,113.301957 70.369994,113.0946 70.3537304,112.883174 C69.8007697,113.452398 69.1502375,113.850849 68.4021143,114.078539 C67.653991,114.306229 66.8896156,114.420072 66.1089652,114.420072 C65.5072139,114.420072 64.9461299,114.346887 64.4256963,114.200515 C63.9052627,114.054143 63.4498901,113.826457 63.059565,113.517449 C62.6692398,113.208442 62.3643028,112.818123 62.1447449,112.34648 C61.9251869,111.874837 61.8154096,111.313753 61.8154096,110.663211 C61.8154096,109.947615 61.9414503,109.35807 62.1935353,108.894559 C62.4456203,108.431047 62.7708864,108.061057 63.1693434,107.784577 C63.5678003,107.508096 64.0231729,107.300739 64.5354747,107.162499 C65.0477765,107.024259 65.5641365,106.914482 66.08457,106.833164 C66.6050036,106.751846 67.1172977,106.686793 67.6214678,106.638002 C68.1256378,106.589212 68.5728787,106.516027 68.9632039,106.418445 C69.3535291,106.320864 69.6625319,106.17856 69.8902216,105.991529 C70.1179113,105.804499 70.2236228,105.532088 70.2073592,105.17429 C70.2073592,104.800229 70.1463718,104.503423 70.0243952,104.283865 C69.9024186,104.064307 69.7397855,103.893543 69.5364912,103.771566 C69.3331968,103.649589 69.0973789,103.568273 68.8290303,103.527614 C68.5606817,103.486955 68.2720081,103.466626 67.9630006,103.466626 C67.2799315,103.466626 66.7432424,103.612996 66.3529173,103.90574 C65.9625921,104.198484 65.7349058,104.686383 65.6698516,105.369452 L62.2057329,105.369452 Z M70.2073592,107.930948 C70.0609873,108.061056 69.8780251,108.162702 69.6584672,108.235888 C69.4389092,108.309074 69.2030913,108.370061 68.9510063,108.418852 C68.6989213,108.467643 68.4346426,108.508301 68.1581622,108.540828 C67.8816819,108.573355 67.6052057,108.614013 67.3287254,108.662804 C67.0685086,108.711595 66.8123615,108.776648 66.5602765,108.857966 C66.3081915,108.939283 66.0886368,109.049061 65.901606,109.187301 C65.7145752,109.325541 65.5641396,109.500372 65.4502948,109.711798 C65.3364499,109.923224 65.2795284,110.191568 65.2795284,110.516839 C65.2795284,110.825847 65.3364499,111.08606 65.4502948,111.297486 C65.5641396,111.508912 65.718641,111.675611 65.9138036,111.797588 C66.1089662,111.919564 66.3366525,112.004947 66.5968693,112.053737 C66.8570861,112.102528 67.1254306,112.126923 67.401911,112.126923 C68.08498,112.126923 68.6135375,112.01308 68.9875991,111.78539 C69.3616607,111.5577 69.6381369,111.28529 69.817036,110.968151 C69.995935,110.651011 70.1057123,110.329811 70.1463712,110.00454 C70.1870301,109.679269 70.2073592,109.419056 70.2073592,109.223894 L70.2073592,107.930948 Z M79.9166497,99.5389984 L79.9166497,96.6847598 L76.452531,96.6847598 L76.452531,99.5389984 L79.9166497,99.5389984 Z M76.452531,101.490615 L76.452531,114.102934 L79.9166497,114.102934 L79.9166497,101.490615 L76.452531,101.490615 Z M82.6489124,101.490615 L82.6489124,114.102934 L86.1130311,114.102934 L86.1130311,107.491834 C86.1130311,106.207014 86.3244541,105.284071 86.7473064,104.722979 C87.1701587,104.161886 87.8532175,103.881344 88.7965034,103.881344 C89.6259444,103.881344 90.2032917,104.137492 90.5285627,104.649793 C90.8538337,105.162095 91.0164668,105.938668 91.0164668,106.979535 L91.0164668,114.102934 L94.4805855,114.102934 L94.4805855,106.34526 C94.4805855,105.56461 94.4114664,104.85309 94.2732263,104.21068 C94.1349861,103.568269 93.8951023,103.023449 93.5535678,102.576201 C93.2120333,102.128954 92.7444632,101.779292 92.1508437,101.527207 C91.5572241,101.275122 90.7969146,101.149082 89.8698923,101.149082 C89.1380325,101.149082 88.4224471,101.315781 87.7231145,101.649183 C87.0237818,101.982586 86.4545661,102.515209 86.0154503,103.247069 L85.9422647,103.247069 L85.9422647,101.490615 L82.6489124,101.490615 Z M100.676967,99.5389984 L100.676967,96.6847598 L97.2128481,96.6847598 L97.2128481,99.5389984 L100.676967,99.5389984 Z M97.2128481,101.490615 L97.2128481,114.102934 L100.676967,114.102934 L100.676967,101.490615 L97.2128481,101.490615 Z M103.40923,101.490615 L103.40923,114.102934 L106.873348,114.102934 L106.873348,107.491834 C106.873348,106.207014 107.084771,105.284071 107.507624,104.722979 C107.930476,104.161886 108.613535,103.881344 109.55682,103.881344 C110.386262,103.881344 110.963609,104.137492 111.28888,104.649793 C111.614151,105.162095 111.776784,105.938668 111.776784,106.979535 L111.776784,114.102934 L115.240903,114.102934 L115.240903,106.34526 C115.240903,105.56461 115.171784,104.85309 115.033543,104.21068 C114.895303,103.568269 114.655419,103.023449 114.313885,102.576201 C113.97235,102.128954 113.50478,101.779292 112.911161,101.527207 C112.317541,101.275122 111.557232,101.149082 110.630209,101.149082 C109.89835,101.149082 109.182764,101.315781 108.483432,101.649183 C107.784099,101.982586 107.214883,102.515209 106.775767,103.247069 L106.702582,103.247069 L106.702582,101.490615 L103.40923,101.490615 Z M123.754828,111.12672 C124.242735,111.12672 124.673712,111.02914 125.047774,110.833977 C125.421836,110.638815 125.730838,110.378602 125.974792,110.053331 C126.218745,109.72806 126.401707,109.358069 126.523684,108.943349 C126.64566,108.528628 126.706648,108.093585 126.706648,107.638206 C126.706648,107.117772 126.657858,106.625807 126.560276,106.162296 C126.462695,105.698785 126.300062,105.288136 126.072372,104.930338 C125.844683,104.57254 125.543812,104.287932 125.16975,104.076506 C124.795688,103.86508 124.324052,103.759368 123.754828,103.759368 C123.266922,103.759368 122.848142,103.856948 122.498475,104.052111 C122.148809,104.247273 121.856069,104.511552 121.620248,104.844955 C121.384427,105.178358 121.213662,105.560545 121.107949,105.991529 C121.002236,106.422514 120.94938,106.87382 120.94938,107.345463 C120.94938,107.800843 120.994104,108.252149 121.083554,108.699397 C121.173003,109.146645 121.327504,109.549161 121.547062,109.906959 C121.76662,110.264757 122.055294,110.557497 122.413092,110.785187 C122.77089,111.012876 123.218131,111.12672 123.754828,111.12672 Z M130,113.297893 C130,113.802063 129.930881,114.37941 129.792641,115.029952 C129.654401,115.680494 129.357595,116.286302 128.902216,116.847394 C128.446837,117.408487 127.788173,117.884189 126.926205,118.274514 C126.064236,118.664839 124.909542,118.859999 123.462086,118.859999 C122.844071,118.859999 122.213868,118.782748 121.571458,118.628244 C120.929047,118.473741 120.343568,118.233857 119.815003,117.908586 C119.286438,117.583315 118.847328,117.164535 118.497662,116.652233 C118.147996,116.139931 117.94877,115.525991 117.89998,114.810395 L121.339703,114.810395 C121.502339,115.460937 121.819473,115.912244 122.291116,116.164329 C122.762759,116.416414 123.30758,116.542454 123.925595,116.542454 C124.901408,116.542454 125.612927,116.249715 126.060175,115.664227 C126.507422,115.078739 126.722911,114.338759 126.706648,113.444264 L126.706648,111.78539 L126.657857,111.78539 C126.283796,112.452196 125.751172,112.944161 125.059972,113.2613 C124.368771,113.578439 123.640988,113.737006 122.876601,113.737006 C121.933315,113.737006 121.12015,113.570307 120.437081,113.236905 C119.754012,112.903502 119.192928,112.448129 118.753812,111.870773 C118.314696,111.293417 117.993496,110.61849 117.790201,109.845971 C117.586907,109.073453 117.485261,108.256222 117.485261,107.394254 C117.485261,106.581076 117.60317,105.796372 117.838992,105.040117 C118.074813,104.283862 118.420408,103.617066 118.875788,103.03971 C119.331167,102.462354 119.896317,102.002916 120.571254,101.661381 C121.246192,101.319846 122.022764,101.149082 122.900996,101.149082 C123.730437,101.149082 124.45822,101.303583 125.084367,101.612591 C125.710513,101.921598 126.235005,102.442024 126.657857,103.173884 L126.706648,103.173884 L126.706648,101.490615 L130,101.490615 L130,113.297893 Z" id="Metal-containing"></path>
        </g>
    </g>
</svg>