<!-- Generated by IcoMoon.io -->
<svg version="1.1" xmlns="http://www.w3.org/2000/svg" width="32" height="32" viewBox="0 0 32 32">
    <title>metal_containing</title>
    <path fill="rgb(204,204,204)" d="M6.72 1.493c0.747 0 1.387 0.533 1.547 1.28l2.667 13.173h0.053l2.667-13.173c0.16-0.747 0.8-1.28 1.547-1.28h3.253c0.853 0 1.6 0.693 1.6 1.6v17.28c0 0.853-0.693 1.6-1.6 1.6h-0.64c-0.853 0-1.6-0.693-1.6-1.6v-14.773h-0.053l-3.36 15.093c-0.16 0.747-0.8 1.227-1.547 1.227h-0.693c-0.747 0-1.387-0.533-1.547-1.227l-3.36-15.093h-0.053v14.72c0 0.853-0.693 1.6-1.6 1.6h-0.533c-0.853 0-1.6-0.693-1.6-1.6v-17.28c0-0.853 0.693-1.6 1.6-1.6h3.253zM22.667 20.533c0 0.107 0 0.213 0 0.32s0.053 0.213 0.053 0.267c0.053 0.053 0.107 0.16 0.16 0.213s0.107 0.053 0.213 0.053 0.267-0.053 0.32-0.16c0.053-0.107 0.107-0.267 0.16-0.533h0.853c0 0.427-0.107 0.747-0.32 0.96s-0.533 0.32-0.96 0.32c-0.32 0-0.587-0.053-0.8-0.16s-0.32-0.267-0.427-0.427-0.16-0.373-0.16-0.64c0-0.213-0.053-0.48-0.053-0.693 0-0.267 0-0.48 0.053-0.693s0.107-0.427 0.213-0.587c0.107-0.16 0.267-0.32 0.427-0.427 0.213-0.107 0.427-0.16 0.747-0.16 0.267 0 0.48 0.053 0.64 0.107s0.32 0.213 0.427 0.373c0.107 0.16 0.16 0.373 0.213 0.587s0.053 0.48 0.053 0.747v0.213h-1.867v0.32zM23.627 19.307c0-0.107-0.053-0.213-0.053-0.267-0.053-0.053-0.107-0.107-0.16-0.16s-0.16-0.053-0.213-0.053c-0.107 0-0.16 0-0.213 0.053s-0.107 0.107-0.16 0.16c-0.053 0.053-0.053 0.16-0.053 0.213 0 0.107 0 0.16 0 0.267v0.16h0.96c-0.107-0.16-0.107-0.267-0.107-0.373zM26.133 17.227v1.067h0.533v0.64h-0.533v1.973c0 0.16 0 0.267 0.053 0.32s0.107 0.107 0.267 0.107c0.053 0 0.053 0 0.107 0s0.053 0 0.107 0v0.64c-0.107 0-0.213 0-0.32 0s-0.213 0-0.32 0c-0.16 0-0.32 0-0.427-0.053-0.107 0-0.213-0.053-0.267-0.16-0.053-0.053-0.107-0.16-0.107-0.32 0-0.107-0.053-0.267-0.053-0.48v-2.080h-0.48v-0.64h0.48v-1.067h0.96zM26.987 19.307c0-0.213 0.053-0.373 0.107-0.533s0.16-0.267 0.267-0.32c0.107-0.107 0.267-0.16 0.427-0.213s0.32-0.053 0.48-0.053c0.267 0 0.48 0.053 0.693 0.107 0.16 0.053 0.32 0.107 0.373 0.213 0.107 0.107 0.16 0.213 0.213 0.373s0.053 0.267 0.053 0.427v1.92c0 0.16 0 0.32 0 0.373 0 0.107 0.053 0.213 0.107 0.32h-0.907c-0.053-0.053-0.053-0.107-0.053-0.16s-0.053-0.107-0.053-0.213v0c-0.107 0.213-0.213 0.32-0.373 0.373s-0.32 0.107-0.533 0.107c-0.16 0-0.32-0.053-0.427-0.107s-0.213-0.16-0.267-0.213c-0.053-0.107-0.107-0.213-0.16-0.32s-0.053-0.267-0.053-0.373c0-0.16 0-0.32 0.053-0.427s0.107-0.213 0.16-0.32c0.053-0.107 0.16-0.16 0.267-0.213s0.267-0.107 0.427-0.16l0.533-0.16c0.16-0.053 0.213-0.107 0.267-0.16s0.107-0.16 0.107-0.267c0-0.16-0.053-0.267-0.107-0.32s-0.16-0.107-0.32-0.107c-0.16 0-0.267 0.053-0.32 0.107-0.053 0.107-0.107 0.213-0.107 0.32v0.107h-0.853v-0.107zM28.533 20.213c-0.053 0.053-0.16 0.053-0.213 0.053-0.213 0.053-0.32 0.107-0.427 0.213s-0.107 0.213-0.107 0.373c0 0.16 0.053 0.267 0.107 0.373s0.16 0.16 0.267 0.16c0.053 0 0.107 0 0.213-0.053 0.053 0 0.107-0.053 0.16-0.107s0.107-0.107 0.16-0.16c0.053-0.053 0.053-0.16 0.053-0.267v-0.693c-0.107 0.053-0.16 0.053-0.213 0.107zM31.253 17.067v4.853h-0.96v-4.853h0.96zM2.453 27.413c0-0.107-0.053-0.16-0.053-0.213-0.053-0.053-0.053-0.107-0.107-0.16s-0.107-0.053-0.213-0.053c-0.107 0-0.213 0-0.267 0.053s-0.107 0.107-0.16 0.213c-0.053 0.107-0.053 0.213-0.053 0.373s0 0.32 0 0.533c0 0.213 0 0.427 0 0.587s0.053 0.267 0.053 0.373c0.053 0.107 0.107 0.16 0.16 0.213s0.16 0.053 0.267 0.053c0.16 0 0.267-0.053 0.32-0.213s0.107-0.373 0.107-0.64h0.907c0 0.48-0.107 0.853-0.32 1.067-0.213 0.267-0.587 0.373-1.067 0.373-0.213 0-0.427-0.053-0.587-0.107s-0.32-0.16-0.427-0.32c-0.107-0.16-0.213-0.32-0.267-0.587s-0.107-0.533-0.107-0.907c0-0.373 0.053-0.693 0.107-0.907 0.053-0.267 0.16-0.427 0.32-0.587 0.107-0.16 0.267-0.267 0.48-0.32s0.373-0.107 0.587-0.107c0.427 0 0.747 0.107 0.96 0.373s0.32 0.587 0.32 1.013h-0.96c0 0.107 0 0 0-0.107zM4.107 27.36c0.053-0.213 0.107-0.427 0.267-0.587 0.107-0.16 0.267-0.267 0.427-0.373s0.427-0.107 0.693-0.107c0.267 0 0.533 0.053 0.693 0.107s0.32 0.213 0.427 0.373c0.107 0.16 0.16 0.373 0.213 0.587s0.053 0.533 0.053 0.853c0 0.32 0 0.587-0.053 0.8s-0.107 0.427-0.267 0.587c-0.107 0.16-0.267 0.267-0.427 0.373-0.16 0.053-0.427 0.107-0.693 0.107s-0.533-0.053-0.693-0.107c-0.16-0.053-0.32-0.213-0.427-0.373s-0.16-0.373-0.213-0.587c-0.053-0.267-0.053-0.533-0.053-0.853 0-0.267 0-0.533 0.053-0.8zM5.013 28.693c0 0.16 0.053 0.267 0.053 0.427 0.053 0.107 0.107 0.213 0.16 0.267s0.16 0.107 0.267 0.107c0.213 0 0.32-0.107 0.373-0.32s0.107-0.533 0.107-0.96c0-0.48-0.053-0.8-0.107-0.96-0.053-0.213-0.213-0.32-0.373-0.32-0.107 0-0.213 0.053-0.267 0.107s-0.107 0.16-0.16 0.267c-0.053 0.107-0.053 0.267-0.053 0.427s0 0.32 0 0.533c-0.053 0.107 0 0.267 0 0.427zM8.64 26.4v0.427c0.107-0.16 0.213-0.32 0.373-0.373 0.16-0.107 0.32-0.107 0.533-0.107 0.32 0 0.533 0.107 0.693 0.267s0.267 0.427 0.267 0.8v2.72h-0.907v-2.507c0-0.213-0.053-0.32-0.107-0.373s-0.16-0.107-0.32-0.107c-0.32 0-0.48 0.213-0.48 0.587v2.4h-0.96v-3.627h0.907zM12.64 25.333v1.067h0.533v0.64h-0.533v1.973c0 0.16 0 0.267 0.053 0.32s0.107 0.107 0.267 0.107c0.053 0 0.053 0 0.107 0s0.053 0 0.107 0v0.64c-0.107 0-0.213 0-0.32 0s-0.213 0-0.32 0c-0.16 0-0.32 0-0.427-0.053-0.107 0-0.213-0.053-0.267-0.16s-0.107-0.16-0.107-0.32c0-0.107-0.053-0.267-0.053-0.48v-2.080h-0.48v-0.64h0.48v-1.067h0.96zM13.813 27.413c0-0.213 0.053-0.373 0.107-0.533s0.16-0.267 0.267-0.32c0.107-0.107 0.267-0.16 0.427-0.213s0.32-0.053 0.48-0.053c0.267 0 0.48 0.053 0.693 0.107 0.16 0.053 0.32 0.107 0.373 0.213 0.107 0.107 0.16 0.213 0.213 0.373s0.053 0.267 0.053 0.427v1.92c0 0.16 0 0.32 0 0.373 0 0.107 0.053 0.213 0.107 0.32h-0.907c-0.053-0.053-0.053-0.107-0.053-0.16s-0.053-0.107-0.053-0.213v0c-0.107 0.213-0.213 0.32-0.373 0.373s-0.32 0.107-0.533 0.107c-0.16 0-0.32-0.053-0.427-0.107s-0.213-0.16-0.267-0.213c-0.053-0.107-0.107-0.213-0.16-0.32s-0.053-0.267-0.053-0.373c0-0.16 0-0.32 0.053-0.427s0.107-0.213 0.16-0.32c0.053-0.107 0.16-0.16 0.267-0.213s0.267-0.107 0.427-0.16l0.533-0.16c0.16-0.053 0.213-0.107 0.267-0.16s0.107-0.16 0.107-0.267c0-0.16-0.053-0.267-0.107-0.32s-0.16-0.107-0.32-0.107c-0.16 0-0.267 0.053-0.32 0.107s-0.107 0.213-0.107 0.32v0.107h-0.853v-0.107zM15.307 28.32c-0.053 0.053-0.16 0.053-0.213 0.053-0.213 0.053-0.32 0.107-0.427 0.213s-0.107 0.213-0.107 0.373c0 0.16 0.053 0.267 0.107 0.373s0.16 0.16 0.267 0.16c0.053 0 0.107 0 0.213-0.053 0.053 0 0.107-0.053 0.16-0.107s0.107-0.107 0.16-0.16c0.053-0.053 0.053-0.16 0.053-0.267v-0.693c-0.053 0.053-0.16 0.053-0.213 0.107zM18.4 25.12v0.8h-0.96v-0.8h0.96zM18.4 26.4v3.627h-0.96v-3.627h0.96zM20.267 26.4v0.427c0.107-0.16 0.213-0.32 0.373-0.373 0.16-0.107 0.32-0.107 0.533-0.107 0.32 0 0.533 0.107 0.693 0.267s0.267 0.427 0.267 0.8v2.72h-0.96v-2.507c0-0.213-0.053-0.32-0.107-0.373s-0.16-0.107-0.32-0.107c-0.32 0-0.48 0.213-0.48 0.587v2.4h-0.96v-3.627h0.96zM24.053 25.12v0.8h-0.96v-0.8h0.96zM24.053 26.4v3.627h-0.96v-3.627h0.96zM25.92 26.4v0.427c0.107-0.16 0.213-0.32 0.373-0.373 0.16-0.107 0.32-0.107 0.533-0.107 0.32 0 0.533 0.107 0.693 0.267s0.267 0.427 0.267 0.8v2.72h-0.96v-2.507c0-0.213-0.053-0.32-0.107-0.373s-0.16-0.107-0.32-0.107c-0.32 0-0.48 0.213-0.48 0.587v2.4h-0.853v-3.627h0.853zM31.52 29.867c0 0.48-0.107 0.8-0.373 1.067s-0.64 0.373-1.173 0.373c-0.373 0-0.693-0.107-0.907-0.267s-0.32-0.427-0.32-0.747h0.907c0 0.107 0.053 0.213 0.16 0.267 0.053 0.053 0.107 0.053 0.16 0.053s0.107 0.053 0.16 0.053c0.213 0 0.32-0.053 0.373-0.16s0.107-0.267 0.107-0.427v-0.48c-0.107 0.16-0.213 0.267-0.373 0.32-0.16 0.107-0.267 0.107-0.427 0.107-0.373 0-0.64-0.16-0.853-0.427s-0.267-0.747-0.267-1.44c0-0.213 0-0.427 0.053-0.64 0-0.213 0.053-0.427 0.16-0.587 0.053-0.16 0.213-0.32 0.32-0.427 0.16-0.107 0.373-0.16 0.587-0.16 0.107 0 0.267 0.053 0.427 0.107s0.267 0.213 0.32 0.373v0-0.427h0.907v3.467zM29.653 28.693c0 0.107 0.053 0.213 0.053 0.32 0.053 0.107 0.107 0.16 0.16 0.213s0.16 0.053 0.267 0.053c0.107 0 0.16 0 0.267-0.053 0.053-0.053 0.107-0.107 0.16-0.213s0.053-0.213 0.107-0.32c0-0.107 0-0.267 0-0.427 0-0.427-0.053-0.747-0.107-0.96-0.053-0.16-0.213-0.267-0.373-0.267-0.107 0-0.213 0-0.267 0.053s-0.107 0.107-0.16 0.213c-0.053 0.107-0.053 0.213-0.053 0.427 0 0.16 0 0.373 0 0.64-0.053 0.053-0.053 0.213-0.053 0.32z"></path>
</svg>
