<?xml version="1.0" encoding="UTF-8" standalone="no"?>
<svg width="140px" height="140px" viewBox="0 0 140 140" version="1.1" xmlns="http://www.w3.org/2000/svg" xmlns:xlink="http://www.w3.org/1999/xlink">
    <!-- Generator: Sketch 42 (36781) - http://www.bohemiancoding.com/sketch -->
    <title>natural</title>
    <desc>Created with Sketch.</desc>
    <defs></defs>
    <g id="Page-1" stroke="none" stroke-width="1" fill="none" fill-rule="evenodd">
        <g id="artboard" fill-rule="nonzero" fill="#E0E2E2">
            <path d="M22.5895928,78.7799899 C29.408534,73.6408059 44.6016134,62.1672787 61.34989,57.3866424 C61.34989,57.3866424 54.2916877,60.494056 42.5678941,68.7406537 C33.4759726,75.3140286 27.2551842,81.289824 25.1018343,83.2020785 C22.5895928,85.3533649 13.1387796,93.1218989 12.8995186,94.5560898 C12.6602575,95.8707648 15.1724989,95.9902807 15.7706517,96.5878602 C16.3688044,97.0659239 17.2062182,99.456242 18.2828932,98.6196307 C19.5988292,97.6635034 24.8625732,90.9706126 25.8196176,90.7315807 C52.0187073,108.180903 85.6348909,101.607528 105.015039,70.6529082 C111.475089,60.2550242 117.217355,48.1839175 132.530065,41.8495744 C68.1688311,22.1294495 26.0588787,31.5712063 22.5895928,78.7799899 Z" id="natural" transform="translate(72.706787, 66.189242) rotate(-25.000000) translate(-72.706787, -66.189242) "></path>
        </g>
    </g>
</svg>