<!-- Generated by IcoMoon.io -->
<svg version="1.1" xmlns="http://www.w3.org/2000/svg" width="32" height="32" viewBox="0 0 32 32">
<title>oligonucleotide</title>
<path fill="rgb(204,204,204)" d="M30.56 17.653l-5.28-6.987c-0.267-0.32-0.693-0.48-1.067-0.32l-7.947 2.72-6.24-3.573v-5.76c0-0.48-0.427-0.907-0.907-0.907s-0.907 0.373-0.907 0.907v5.76l-6.827 3.947c-0.32 0.16-0.48 0.48-0.48 0.853v8.427c0 0.32 0.16 0.64 0.48 0.853l7.253 4.16c0.16 0.107 0.32 0.107 0.48 0.107s0.32-0.053 0.48-0.107l6.72-3.893 8.16 2.507c0.107 0.053 0.213 0.053 0.267 0.053 0.32 0 0.587-0.16 0.8-0.427l5.013-7.2c0.267-0.32 0.267-0.747 0-1.12zM9.12 25.76l-6.293-3.627v-7.307l6.293-3.627 6.133 3.52 0.107 7.413-6.24 3.627zM24.373 24.32l-6.987-2.133v-7.467l6.773-2.347 4.427 5.867-4.213 6.080z"></path>
</svg>
