<?xml version="1.0" encoding="UTF-8" standalone="no"?>
<svg width="140px" height="140px" viewBox="0 0 140 140" version="1.1" xmlns="http://www.w3.org/2000/svg" xmlns:xlink="http://www.w3.org/1999/xlink">
    <!-- Generator: Sketch 42 (36781) - http://www.bohemiancoding.com/sketch -->
    <title>oligonucleotide</title>
    <desc>Created with Sketch.</desc>
    <defs></defs>
    <g id="Page-1" stroke="none" stroke-width="1" fill="none" fill-rule="evenodd">
        <g id="Artboard-Copy-7" fill-rule="nonzero" fill="#E0E2E2">
            <path d="M129.19585,79.5979878 L107.972091,51.514066 C106.900226,50.2277776 105.185091,49.5846334 103.684505,50.2277776 L71.741718,61.1612291 L46.6590941,46.7976333 L46.6590941,23.644442 C46.6590941,21.7150093 44.9440847,20 43.0146521,20 C41.0852195,20 39.3702101,21.5007117 39.3702101,23.644442 L39.3702101,46.7976333 L11.9294326,62.6618152 C10.6431442,63.3049594 10,64.5912478 10,66.0919595 L10,99.964179 C10,101.250467 10.6431442,102.536756 11.9294326,103.394323 L41.0853451,120.116073 C41.7284893,120.544794 42.3716335,120.544794 43.0147777,120.544794 C43.6579219,120.544794 44.3010661,120.33037 44.9442103,120.116073 L71.9562669,104.466188 L104.756621,114.542072 C105.185342,114.756496 105.614189,114.756496 105.828487,114.756496 C107.114775,114.756496 108.18664,114.113352 109.044208,113.041486 L129.196101,84.0999972 C130.267966,82.8137088 130.267966,81.0986994 129.196101,79.5979878 L129.19585,79.5979878 Z M43.0145265,112.183919 L17.7174792,97.6060255 L17.7174792,68.2358154 L43.0145265,53.6579219 L67.6684295,67.8070944 L68.0971505,97.6061511 L43.0145265,112.184045 L43.0145265,112.183919 Z M104.327649,106.395621 L76.2437275,97.8203232 L76.2437275,67.8069688 L103.470207,58.374229 L121.263822,81.9561413 L104.327649,106.395621 L104.327649,106.395621 Z" id="Shape"></path>
        </g>
    </g>
</svg>