<!-- Generated by IcoMoon.io -->
<svg version="1.1" xmlns="http://www.w3.org/2000/svg" width="32" height="32" viewBox="0 0 32 32">
<title>oligosaccharide</title>
<path fill="rgb(204,204,204)" d="M23.2 29.707h-14.4c-0.373 0-0.747-0.213-0.96-0.533l-7.147-12.427c-0.213-0.32-0.213-0.747 0-1.12l7.147-12.427c0.213-0.32 0.587-0.533 0.96-0.533h7.413c0.64 0 1.12 0.48 1.12 1.12s-0.48 1.12-1.12 1.12h-6.773l-6.507 11.253 6.56 11.307h13.067l6.56-11.307-3.733-6.453c-0.32-0.533-0.107-1.227 0.427-1.547s1.227-0.107 1.547 0.427l4.053 7.040c0.213 0.32 0.213 0.747 0 1.12l-7.253 12.427c-0.213 0.32-0.587 0.533-0.96 0.533zM21.813 8.8c-1.813 0-3.253-1.653-3.253-3.627s1.44-3.627 3.253-3.627 3.253 1.653 3.253 3.627-1.44 3.627-3.253 3.627zM21.813 3.307c-0.853 0-1.547 0.853-1.547 1.92s0.693 1.92 1.547 1.92c0.853 0 1.547-0.853 1.547-1.92s-0.693-1.92-1.547-1.92z"></path>
</svg>
