<?xml version="1.0" encoding="UTF-8" standalone="no"?>
<svg width="140px" height="140px" viewBox="0 0 140 140" version="1.1" xmlns="http://www.w3.org/2000/svg" xmlns:xlink="http://www.w3.org/1999/xlink">
    <!-- Generator: Sketch 42 (36781) - http://www.bohemiancoding.com/sketch -->
    <title>oligosaccharide</title>
    <desc>Created with Sketch.</desc>
    <defs></defs>
    <g id="Page-1" stroke="none" stroke-width="1" fill="none" fill-rule="evenodd">
        <g id="Artboard-Copy-8" fill-rule="nonzero" fill="#E8EAEA">
            <path d="M41.9587689,126.094219 C41.9587689,126.094219 39.0722098,125.269436 38.2474268,124.032322 L10.6185872,75.9911012 C9.79380426,74.7539872 9.79380426,73.1045421 10.6185872,71.6612021 L38.2474268,23.6199811 C39.0722098,22.3828671 40.5154289,21.5580841 41.9587689,21.5580841 L73.0348557,21.5580841 L71.8267366,30.2178823 L44.432997,30.2178823 L19.2783854,73.7230991 L44.6392229,117.434421 L95.154672,117.434421 L120.515509,73.7230991 L104.874353,47.5664735 L111.295023,42.0284552 L129.381413,71.6612021 C130.206196,72.8983161 130.206196,74.5477612 129.381413,75.9911012 L101.340121,124.032322 C100.515338,125.269436 99.0721192,126.094219 97.6287792,126.094219 M93.3266065,42.6860043 C85.3321259,42.6860043 78.9836043,36.1472227 78.9836043,28.3430021 C78.9836043,20.5387815 85.3321259,14 93.3266065,14 C101.321087,14 107.669609,20.5387815 107.669609,28.3430021 C107.669609,36.1472227 101.321087,42.6860043 93.3266065,42.6860043 Z M93.4832568,21.8527746 C89.8826004,21.8527746 86.9571908,24.7532837 86.9571908,28.3788405 C86.9571908,32.0043974 89.8827323,34.9049065 93.4832568,34.9049065 C97.0839131,34.9049065 100.009323,32.0043974 100.009323,28.3788405 C100.009323,24.7532837 97.0837812,21.8527746 93.4832568,21.8527746 L93.4832568,21.8527746 Z" id="Shape"></path>
        </g>
    </g>
</svg>