<?xml version="1.0" encoding="UTF-8" standalone="no"?>
<svg width="140px" height="140px" viewBox="0 0 140 140" version="1.1" xmlns="http://www.w3.org/2000/svg" xmlns:xlink="http://www.w3.org/1999/xlink">
    <!-- Generator: Sketch 42 (36781) - http://www.bohemiancoding.com/sketch -->
    <title>protein</title>
    <desc>Created with Sketch.</desc>
    <defs></defs>
    <g id="Page-1" stroke="none" stroke-width="1" fill="none" fill-rule="evenodd">
        <g id="Artboard-Copy-6" fill-rule="nonzero" fill="#E0E2E2">
            <path d="M129.42613,60.6519312 L129.42613,60.6519312 C128.355616,59.1574955 126.214462,58.7305674 124.501614,59.7979501 L97.737756,78.157607 L73.5432323,60.8653327 L84.6770565,28.4156745 C84.8912095,27.5616933 84.8912095,26.7078372 84.2488759,26.0673826 C83.8206953,25.426928 82.9642087,25 82.1077221,25 L58.1272259,25 C57.2707392,25 56.4143781,25.426928 55.986072,26.0673826 C55.557766,26.7078372 55.3437384,27.7752199 55.5578915,28.4156745 L66.6917157,60.8653327 L42.4971919,78.157607 L15.5191807,59.7979501 C14.0203605,58.7305674 11.6651791,59.1574955 10.5946649,60.6519312 C9.52415072,62.146367 9.9523313,64.4946589 11.4511515,65.5620415 L40.1420105,85.4161342 C41.4266777,86.2701154 42.9254979,86.2701154 44.2101651,85.4161342 L69.9035091,67.0564773 L93.4556993,83.9218235 L93.4556993,110.60739 C93.4556993,112.528754 94.9545195,114.02319 96.8815203,114.02319 C98.8085211,114.02319 100.307341,112.528754 100.307341,110.60739 L100.307341,84.5622782 L128.141839,65.34864 C130.06884,64.2812574 130.497021,62.146367 129.426506,60.6519312 L129.42613,60.6519312 Z" id="Shape"></path>
        </g>
    </g>
</svg>