<!-- Generated by IcoMoon.io -->
<svg version="1.1" xmlns="http://www.w3.org/2000/svg" width="32" height="32" viewBox="0 0 32 32">
<title>peptide</title>
<path fill="rgb(204,204,204)" d="M31.040 14.453v0c-0.267-0.373-0.8-0.48-1.227-0.213l-6.667 4.587-6.027-4.32 2.773-8.107c0.053-0.213 0.053-0.427-0.107-0.587-0.107-0.16-0.32-0.267-0.533-0.267h-5.973c-0.213 0-0.427 0.107-0.533 0.267s-0.16 0.427-0.107 0.587l2.773 8.107-6.027 4.32-6.72-4.587c-0.373-0.267-0.96-0.16-1.227 0.213s-0.16 0.96 0.213 1.227l7.147 4.96c0.32 0.213 0.693 0.213 1.013 0l6.4-4.587 5.867 4.213v6.667c0 0.48 0.373 0.853 0.853 0.853s0.853-0.373 0.853-0.853v-6.507l6.933-4.8c0.48-0.267 0.587-0.8 0.32-1.173z"></path>
</svg>
