<?xml version="1.0" encoding="UTF-8" standalone="no"?>
<svg width="140px" height="140px" viewBox="0 0 140 140" version="1.1" xmlns="http://www.w3.org/2000/svg" xmlns:xlink="http://www.w3.org/1999/xlink">
    <!-- Generator: Sketch 42 (36781) - http://www.bohemiancoding.com/sketch -->
    <title>unknown</title>
    <desc>Created with Sketch.</desc>
    <defs></defs>
    <g id="Page-1" stroke="none" stroke-width="1" fill="none" fill-rule="evenodd">
        <g id="Artboard-Copy-9" fill="#E8EAEA">
            <path d="M58.4157152,106.709201 L82.4318334,106.709201 L82.4318334,130 L58.4157152,130 L58.4157152,106.709201 Z M45.0376091,16.1249161 C51.3774662,12.0416183 59.1678517,10 68.4089993,10 C80.5514375,10 90.6386435,12.901247 98.6709201,18.7038281 C106.703197,24.5064091 110.719275,33.1026966 110.719275,44.4929483 C110.719275,51.4775366 108.973154,57.3606208 105.48086,62.1423774 C103.439211,65.043668 99.5171546,68.7508169 93.7145735,73.2639355 L87.9926125,77.6964406 C84.8764116,80.1141827 82.8079299,82.9348395 81.7871054,86.1584956 C81.1423742,88.2001445 80.79315,91.3700255 80.7394224,95.6682337 L58.9798522,95.6682337 C59.3022179,86.5882689 60.1618466,80.3156654 61.5587643,76.8502351 C62.9556819,73.3848047 66.5553773,69.3955901 72.3579584,64.8824715 L78.2411014,60.2887844 C80.1752951,58.8381392 81.7333722,57.2531987 82.9153794,55.5339154 C85.0644835,52.5788972 86.1390195,49.3284261 86.1390195,45.7824043 C86.1390195,41.6991065 84.9435983,37.9785259 82.5527199,34.6205507 C80.1618416,31.2625756 75.7965394,29.5836132 69.4566823,29.5836132 C63.2242805,29.5836132 58.8052514,31.6520948 56.1994627,35.7891202 C53.593674,39.9261456 52.2907992,44.2242893 52.2907992,48.6836803 L29,48.6836803 C29.6447312,33.3713136 34.9905475,22.5185007 45.0376091,16.1249161 Z" id="?"></path>
        </g>
    </g>
</svg>