<?xml version="1.0" encoding="utf-8"?>
<!-- Generator: Adobe Illustrator 21.0.1, SVG Export Plug-In . SVG Version: 6.00 Build 0)  -->
<svg version="1.1" id="Layer_1" xmlns="http://www.w3.org/2000/svg" xmlns:xlink="http://www.w3.org/1999/xlink" x="0px" y="0px"
	 viewBox="0 0 414.8 179.5" style="enable-background:new 0 0 414.8 179.5;" xml:space="preserve">
<style type="text/css">
	.st0{fill:#FFFFFF;stroke:#000000;stroke-miterlimit:10;}
</style>
<title>EMBL-white</title>
<circle id="a" cx="297.6" cy="28.1" r="7.5"/>
<circle id="a-2" cx="297.6" cy="48.7" r="7.5"/>
<circle id="a-3" cx="297.6" cy="69.2" r="7.5"/>
<circle id="a-4" cx="297.6" cy="89.7" r="7.5"/>
<circle id="a-5" cx="297.6" cy="130.9" r="7.5"/>
<circle id="a-6" cx="297.6" cy="151.5" r="7.5"/>
<circle id="a-7" cx="260.6" cy="48.6" r="7.5"/>
<circle id="a-8" cx="260.6" cy="69.3" r="7.5"/>
<circle id="a-9" cx="260.6" cy="89.7" r="7.5"/>
<circle id="a-10" cx="260.6" cy="110.3" r="7.5"/>
<circle id="a-11" cx="260.6" cy="130.8" r="7.5"/>
<circle id="a-12" cx="279.6" cy="38.4" r="7.5"/>
<circle id="a-13" cx="279.6" cy="59" r="7.5"/>
<circle id="a-14" cx="279.6" cy="79.5" r="7.5"/>
<circle id="a-15" cx="279.6" cy="100" r="7.5"/>
<circle id="a-16" cx="279.6" cy="120.5" r="7.5"/>
<circle id="a-17" cx="279.6" cy="141" r="7.5"/>
<circle id="a-18" cx="407.3" cy="48.6" r="7.5"/>
<circle id="a-19" cx="407.3" cy="69" r="7.5"/>
<circle id="a-20" cx="407.3" cy="89.7" r="7.5"/>
<circle id="a-21" cx="407.3" cy="110" r="7.5"/>
<circle id="a-22" cx="407.3" cy="131" r="7.5"/>
<circle id="a-23" cx="388.6" cy="38.4" r="7.5"/>
<circle id="a-24" cx="388.6" cy="59" r="7.5"/>
<circle id="a-25" cx="388.6" cy="79.5" r="7.5"/>
<circle id="a-26" cx="388.6" cy="100" r="7.5"/>
<circle id="a-27" cx="388.6" cy="120.5" r="7.5"/>
<circle id="a-28" cx="388.6" cy="141" r="7.5"/>
<circle id="a-29" cx="370.6" cy="28" r="7.5"/>
<circle id="a-30" cx="370.6" cy="48.7" r="7.5"/>
<circle id="a-31" cx="370.6" cy="69" r="7.5"/>
<circle id="a-32" cx="370.6" cy="89.7" r="7.5"/>
<circle id="a-33" cx="370.6" cy="110" r="7.5"/>
<circle id="a-34" cx="370.6" cy="131" r="7.5"/>
<circle id="a-35" cx="370.6" cy="151.5" r="7.5"/>
<circle id="b" class="st0" cx="297.6" cy="110" r="7.5"/>
<circle id="a-36" cx="352.6" cy="18" r="7.5"/>
<circle id="a-37" cx="352.6" cy="38" r="7.5"/>
<circle id="a-38" cx="352.6" cy="59" r="7.5"/>
<circle id="a-39" cx="352.6" cy="79" r="7.5"/>
<circle id="a-40" cx="352.6" cy="100" r="7.5"/>
<circle id="a-41" cx="352.6" cy="120.5" r="7.5"/>
<circle id="a-42" cx="352.6" cy="141" r="7.5"/>
<circle id="a-43" cx="352.6" cy="161.6" r="7.5"/>
<circle id="a-44" cx="334.1" cy="7.5" r="7.5"/>
<circle id="a-45" cx="334.1" cy="28" r="7.5"/>
<circle id="a-46" cx="334.1" cy="48.6" r="7.5"/>
<circle id="a-47" cx="334.1" cy="69" r="7.5"/>
<circle id="a-48" cx="334.1" cy="90" r="7.5"/>
<circle id="a-49" cx="334.1" cy="110.3" r="7.5"/>
<circle id="a-50" cx="334.1" cy="131" r="7.5"/>
<circle id="a-51" cx="334.1" cy="151.4" r="7.5"/>
<circle id="a-52" cx="315.6" cy="17.7" r="7.5"/>
<circle id="a-53" cx="315.6" cy="38.3" r="7.5"/>
<circle id="a-54" cx="315.6" cy="58.8" r="7.5"/>
<circle id="a-55" cx="315.6" cy="79.4" r="7.5"/>
<circle id="a-56" cx="315.6" cy="100" r="7.5"/>
<circle id="a-57" cx="315.6" cy="120.5" r="7.5"/>
<circle id="a-58" cx="315.6" cy="141" r="7.5"/>
<circle id="a-59" cx="315.6" cy="161.6" r="7.5"/>
<circle id="a-60" cx="334.1" cy="172" r="7.5"/>
<path id="E" d="M4,58.6h44.8v7.7H12.1v18.8h34v7h-34v21h37.5v7.5H4V58.6z"/>
<path d="M57,59h12l17.8,52.4L104.4,59h12v62h-8V68.7l-17.6,52h-8.2l-17.8-52v52h-8L57,59z"/>
<path id="B-2" d="M131.6,120.8h26.3c9.4,0,21.7-4.7,21.7-18c0-11.4-8-14-11.3-15.2c2.3-1,8.3-4.3,8.3-13.2c0-12.4-11-15.4-18.2-15.4
	h-26.8C131.6,59,131.6,120.8,131.6,120.8z M139.9,85V66h15c3.8,0,13.4,0.2,13.4,9.4c0,9.6-9.4,9.8-13,9.8h-15.4V85z M158.1,113.7
	h-18.2V92h16.7c3.6,0,14.7,0.3,14.7,10.4C171.3,112.1,163.3,113.7,158.1,113.7L158.1,113.7z"/>
<path id="I" d="M189.4,121h8.4V59h-8.4V121z"/>
<path id="I-2" d="M229.5,113.9v7.3h-39.7v-7.3H229.5z"/>
</svg>
