<?xml version="1.0" encoding="utf-8"?>
<!-- Generator: Adobe Illustrator 21.0.1, SVG Export Plug-In . SVG Version: 6.00 Build 0)  -->
<svg version="1.1" id="Layer_1" xmlns="http://www.w3.org/2000/svg" xmlns:xlink="http://www.w3.org/1999/xlink" x="0px" y="0px"
	 viewBox="0 0 161.7 179.5" style="enable-background:new 0 0 161.7 179.5;" xml:space="preserve">
<style type="text/css">
	.st0{fill:#FFFFFF;stroke:#000000;stroke-miterlimit:10;}
</style>
<title>EMBL-white</title>
<circle id="a" cx="44.5" cy="28.1" r="7.5"/>
<circle id="a-2" cx="44.5" cy="48.7" r="7.5"/>
<circle id="a-3" cx="44.5" cy="69.2" r="7.5"/>
<circle id="a-4" cx="44.5" cy="89.7" r="7.5"/>
<circle id="a-5" cx="44.5" cy="130.9" r="7.5"/>
<circle id="a-6" cx="44.5" cy="151.5" r="7.5"/>
<circle id="a-7" cx="7.5" cy="48.6" r="7.5"/>
<circle id="a-8" cx="7.5" cy="69.3" r="7.5"/>
<circle id="a-9" cx="7.5" cy="89.7" r="7.5"/>
<circle id="a-10" cx="7.5" cy="110.3" r="7.5"/>
<circle id="a-11" cx="7.5" cy="130.8" r="7.5"/>
<circle id="a-12" cx="26.5" cy="38.4" r="7.5"/>
<circle id="a-13" cx="26.5" cy="59" r="7.5"/>
<circle id="a-14" cx="26.5" cy="79.5" r="7.5"/>
<circle id="a-15" cx="26.5" cy="100" r="7.5"/>
<circle id="a-16" cx="26.5" cy="120.5" r="7.5"/>
<circle id="a-17" cx="26.5" cy="141" r="7.5"/>
<circle id="a-18" cx="154.2" cy="48.6" r="7.5"/>
<circle id="a-19" cx="154.2" cy="69" r="7.5"/>
<circle id="a-20" cx="154.2" cy="89.7" r="7.5"/>
<circle id="a-21" cx="154.2" cy="110" r="7.5"/>
<circle id="a-22" cx="154.2" cy="131" r="7.5"/>
<circle id="a-23" cx="135.5" cy="38.4" r="7.5"/>
<circle id="a-24" cx="135.5" cy="59" r="7.5"/>
<circle id="a-25" cx="135.5" cy="79.5" r="7.5"/>
<circle id="a-26" cx="135.5" cy="100" r="7.5"/>
<circle id="a-27" cx="135.5" cy="120.5" r="7.5"/>
<circle id="a-28" cx="135.5" cy="141" r="7.5"/>
<circle id="a-29" cx="117.5" cy="28" r="7.5"/>
<circle id="a-30" cx="117.5" cy="48.7" r="7.5"/>
<circle id="a-31" cx="117.5" cy="69" r="7.5"/>
<circle id="a-32" cx="117.5" cy="89.7" r="7.5"/>
<circle id="a-33" cx="117.5" cy="110" r="7.5"/>
<circle id="a-34" cx="117.5" cy="131" r="7.5"/>
<circle id="a-35" cx="117.5" cy="151.5" r="7.5"/>
<circle id="b" class="st0" cx="44.5" cy="110" r="7.5"/>
<circle id="a-36" cx="99.5" cy="18" r="7.5"/>
<circle id="a-37" cx="99.5" cy="38" r="7.5"/>
<circle id="a-38" cx="99.5" cy="59" r="7.5"/>
<circle id="a-39" cx="99.5" cy="79" r="7.5"/>
<circle id="a-40" cx="99.5" cy="100" r="7.5"/>
<circle id="a-41" cx="99.5" cy="120.5" r="7.5"/>
<circle id="a-42" cx="99.5" cy="141" r="7.5"/>
<circle id="a-43" cx="99.5" cy="161.6" r="7.5"/>
<circle id="a-44" cx="81" cy="7.5" r="7.5"/>
<circle id="a-45" cx="81" cy="28" r="7.5"/>
<circle id="a-46" cx="81" cy="48.6" r="7.5"/>
<circle id="a-47" cx="81" cy="69" r="7.5"/>
<circle id="a-48" cx="81" cy="90" r="7.5"/>
<circle id="a-49" cx="81" cy="110.3" r="7.5"/>
<circle id="a-50" cx="81" cy="131" r="7.5"/>
<circle id="a-51" cx="81" cy="151.4" r="7.5"/>
<circle id="a-52" cx="62.5" cy="17.7" r="7.5"/>
<circle id="a-53" cx="62.5" cy="38.3" r="7.5"/>
<circle id="a-54" cx="62.5" cy="58.8" r="7.5"/>
<circle id="a-55" cx="62.5" cy="79.4" r="7.5"/>
<circle id="a-56" cx="62.5" cy="100" r="7.5"/>
<circle id="a-57" cx="62.5" cy="120.5" r="7.5"/>
<circle id="a-58" cx="62.5" cy="141" r="7.5"/>
<circle id="a-59" cx="62.5" cy="161.6" r="7.5"/>
<circle id="a-60" cx="81" cy="172" r="7.5"/>
</svg>
