<?xml version="1.0" standalone="no"?>
<!DOCTYPE svg PUBLIC "-//W3C//DTD SVG 1.1//EN" "http://www.w3.org/Graphics/SVG/1.1/DTD/svg11.dtd" >
<svg xmlns="http://www.w3.org/2000/svg">
<metadata>Generated by IcoMoon</metadata>
<defs>
<font id="EBI-ChEMBL" horiz-adv-x="1024">
<font-face units-per-em="1024" ascent="960" descent="-64" />
<missing-glyph horiz-adv-x="1024" />
<glyph unicode="&#x20;" horiz-adv-x="512" d="" />
<glyph unicode="&#x31;" glyph-name="prescriptionONLY" d="M846.626 54.63c-5.103 11.127-13.278 25.139-24.542 42.035l-125.099 192.666 116.241 173.756c20.651 30.839 30.976 55.245 30.976 73.199 0 12.339-4.762 22.989-14.285 31.983s-21.794 13.483-36.796 13.483c-8.311 0-15.616-1.399-21.914-4.215s-11.998-7.031-17.101-12.663c-5.103-5.632-10.394-12.732-15.889-21.316s-12.134-18.91-19.917-30.976l-94.362-142.933c-1.894 7.748-4.932 17.203-10.513 30.379-8.448 19.985-20.241 42.377-35.396 67.174s-32.375 48.196-51.678 70.195c-19.302 21.982-39.561 38.622-60.74 49.869 50.415 10.991 88.013 29.628 112.828 55.91 24.798 26.283 37.205 61.406 37.205 105.387 0 21.453-3.686 41.762-11.059 60.945-7.373 19.166-18.159 35.994-32.375 50.483-14.217 14.473-30.566 25.617-49.067 33.382-15.292 6.98-32.444 11.605-51.49 13.875s-41.967 3.413-68.779 3.413h-194.27c-25.737 0-44.373-5.769-55.91-17.289-11.537-11.554-17.289-30.191-17.289-55.927v-453.717c0-23.859 5.222-41.967 15.684-54.306s25.207-18.5 44.237-18.5c17.698 0 32.051 5.905 43.042 17.698s16.486 30.174 16.486 55.108v189.44h41.83c21.18 0 38.741-2.816 52.685-8.448s27.682-16.094 41.233-31.369c13.534-15.292 28.894-37.547 46.063-66.765 35.243-60.877 79.241-135.953 111.906-177.254l-131.925-192.666c-19.575-28.689-29.355-52.958-29.355-72.806 0-16.896 4.762-29.764 14.285-38.622s21.521-13.278 35.994-13.278c9.387 0 17.562 1.468 24.542 4.42s13.005 6.98 18.108 12.066c5.103 5.103 9.455 10.325 13.073 15.684s9.728 14.746 18.295 28.16l110.217 168.124 103.782-163.311c13.141-20.105 22.118-33.655 26.948-40.619 4.83-6.98 11.127-12.8 18.91-17.493s17.289-7.031 28.553-7.031c10.462 0 19.849 2.287 28.16 6.844s14.746 10.718 19.302 18.5c4.557 7.782 6.844 16.35 6.844 25.737-0.034 9.933-2.577 20.463-7.68 31.59zM361.847 658.842h-106.991v162.099h110.217c41.028 0 68.506-2.953 82.449-8.841 14.746-6.161 26.283-15.479 34.594-27.955s12.476-26.88 12.476-43.247c0-20.924-5.154-37.342-15.479-49.271s-25.276-20.378-44.851-25.344c-19.575-4.949-43.708-7.441-72.414-7.441z" />
<glyph unicode="&#x32;" glyph-name="prescriptionDISCONTINUED" d="M982.784 435.934c0 125.559-48.777 243.49-137.335 332.049-146.825 146.825-367.462 175.787-543.556 87.108h-68.301c-23.467 0-40.465-5.257-50.978-15.77s-15.77-27.494-15.77-50.978v-35.635c-168.397-184.030-163.601-470.75 14.507-648.841 88.559-88.559 206.49-137.335 332.049-137.335 0 0 0 0 0.017 0 77.141 0 151.381 18.483 217.719 53.231 4.181-5.444 9.233-10.206 15.548-14.012 7.083-4.284 15.77-6.417 26.044-6.417 9.54 0 18.091 2.082 25.668 6.229s13.449 9.779 17.596 16.862c4.147 7.083 6.229 14.916 6.229 23.467 0 9.045-2.321 18.637-6.963 28.791-0.154 0.341-0.393 0.768-0.546 1.109 10.581 8.875 20.873 18.193 30.754 28.058 88.559 88.576 137.318 206.507 137.318 332.083zM260.727 324.471c10.018 10.752 15.036 27.494 15.036 50.244v172.715h38.144c19.319 0 35.328-2.56 48.043-7.697s25.242-14.66 37.581-28.604c7.987-9.011 16.708-20.873 26.078-35.277l-182.869-182.886c-2.935 5.547-5.598 11.179-8.175 16.828 10.24 2.202 19.012 7.014 26.163 14.677zM492.988 543.232c-8.209 6.537-16.521 12.493-25.071 17.033 25.225 5.495 46.797 13.175 64.99 22.869l-39.919-39.902zM603.119 728.695c18.159-5.615 35.977-12.954 53.231-22.101l-64.853-64.853c8.789 18.722 13.193 40.585 13.193 65.57 0 7.287-0.631 14.387-1.57 21.385zM494.302 700.348c0-19.063-4.71-34.048-14.114-44.919s-23.040-18.586-40.892-23.108c-17.852-4.523-39.851-6.793-65.997-6.793h-97.536v147.78h100.471c37.41 0 62.464-2.697 75.179-8.073 13.449-5.615 23.962-14.114 31.539-25.481 7.561-11.366 11.349-24.508 11.349-39.407zM513.417-2.577c-19.063 0-37.888 1.331-56.491 3.703 2.697 0.631 5.376 1.263 7.765 2.27 6.349 2.697 11.861 6.349 16.503 11.008 4.642 4.642 8.619 9.404 11.913 14.302s8.858 13.449 16.691 25.668l29.901 45.619c40.943 3.174 81.169 13.926 118.75 31.829l46.421-73.062c3.174-4.864 6.042-9.233 8.687-13.261-61.15-31.369-129.314-48.077-200.141-48.077zM726.204 215.706l-47.377 72.96 105.967 158.413c15.479 23.125 24.235 42.069 26.982 57.242 23.074-100.301-5.239-208.589-81.715-285.082-1.229-1.229-2.577-2.321-3.857-3.533zM800.034 542.959c-8.687 8.192-19.866 12.288-33.553 12.288-7.578 0-14.234-1.28-19.985-3.857-5.751-2.56-10.94-6.417-15.582-11.554s-9.472-11.605-14.49-19.439-11.059-17.237-18.159-28.228l-86.016-130.304c-1.724 7.066-4.506 15.684-9.591 27.699-2.97 7.014-6.571 14.49-10.479 22.17l182.989 182.989c10.155-16.708 18.381-34.15 25.054-51.968-0.068 0.068-0.119 0.137-0.188 0.205zM641.877 157.884c-25.617-11.827-52.582-19.849-80.111-24.218l48.486 73.967 31.625-49.749zM512.768 332.305c10.906-16.691 21.35-31.744 30.771-43.639l-102.741-150.050c-29.815 7.305-58.931 18.961-86.17 35.533l158.14 158.157zM799.232 103.219c-1.997 3.157-4.079 6.383-6.349 9.796l-49.698 76.527c2.867 2.679 5.922 5.086 8.704 7.885 115.319 115.319 131.516 296.363 38.519 430.473-2.611 3.755-6.741 6.161-11.298 6.571-4.693 0.444-9.079-1.229-12.288-4.454l-447.505-447.505c-3.243-3.243-4.864-7.731-4.454-12.288s2.816-8.687 6.571-11.298c31.522-21.862 65.655-37.478 100.898-47.394-17.152-25.481-25.839-47.138-25.839-64.87 0-15.394 4.335-27.136 13.022-35.209 0.973-0.905 2.099-1.587 3.123-2.389-78.746 18.364-150.972 58.18-209.442 116.651-157.884 157.884-169.916 407.108-36.335 579.072v-330.052c0-21.76 4.762-38.263 14.302-49.51 5.154-6.076 11.537-10.359 18.978-13.158 7.117-17.903 15.684-35.447 26.061-52.361 2.475-4.028 6.656-6.707 11.349-7.27 0.597-0.068 1.212-0.102 1.809-0.102 4.079 0 8.004 1.604 10.923 4.523l442.197 442.197c3.345 3.345 4.966 8.038 4.42 12.732-0.563 4.693-3.243 8.875-7.27 11.349-30.174 18.517-62.259 31.676-95.095 39.885-6.724 17.408-16.538 32.7-29.44 45.858-12.954 13.193-27.87 23.347-44.732 30.43-13.926 6.349-29.577 10.581-46.933 12.646-17.357 2.082-38.263 3.123-62.703 3.123h-26.385c150.289 45.995 320.58 9.745 439.279-108.937 82.722-82.722 128.29-192.905 128.29-310.221s-45.551-227.482-128.29-310.221c-7.851-7.868-16.043-15.275-24.388-22.477z" />
<glyph unicode="&#x33;" glyph-name="racemicMix" d="M918.752 635.52c-3.584 0-7.136-0.256-10.592-0.8-7.168 33.152-36.192 58.016-70.784 58.016-7.552 0-14.848-1.184-21.728-3.392-13.088 19.328-34.944 32-59.648 32s-46.56-12.672-59.648-32c-6.848 2.208-14.144 3.392-21.728 3.392-39.968 0-72.48-33.184-72.48-73.984v-78.88c-10.88 6.336-23.36 9.792-36.064 9.792-19.552 0-38.56-8.224-52.128-22.528-1.344-1.408-2.336-3.040-3.552-4.544-1.216 1.504-2.208 3.136-3.552 4.544-13.536 14.304-32.544 22.496-52.096 22.496-12.704 0-25.152-3.456-36.064-9.824v78.912c0 40.8-32.512 73.984-72.48 73.984-7.552 0-14.848-1.184-21.728-3.392-13.088 19.328-34.944 32-59.648 32s-46.56-12.672-59.648-32c-6.848 2.24-14.144 3.424-21.696 3.424-34.592 0-63.616-24.864-70.784-58.016-3.456 0.512-7.008 0.8-10.624 0.8-39.968 0-72.48-33.184-72.48-73.952v-143.072c0-18.336 2.592-82.848 36.192-143.552 36.928-66.784 96.384-102.080 171.936-102.080 119.744 0 170.72 92.416 211.712 166.688 16.416 29.792 31.936 57.92 49.472 76.384l7.968 8.416c1.344 1.44 2.336 3.072 3.552 4.576 1.216-1.504 2.208-3.136 3.584-4.576l7.968-8.384c17.504-18.464 33.024-46.592 49.472-76.384 40.96-74.272 91.968-166.688 211.712-166.688 75.552 0 135.008 35.296 171.936 102.080 33.568 60.704 36.192 125.216 36.192 143.552v143.072c-0.064 40.736-32.576 73.92-72.544 73.92zM473.952 455.488l-7.968-8.416c-68.352-72.096-92.608-228.928-228.256-228.928-135.616 0-162.752 143.072-162.752 200.288v143.072c0 15.744 12.224 28.608 27.136 28.608s27.136-12.864 27.136-28.608v-85.856c0-7.904 6.080-14.304 13.568-14.304s13.568 6.4 13.568 14.304v143.072c0 15.744 12.224 28.608 27.136 28.608s27.136-12.864 27.136-28.608v-143.072c0-7.904 6.080-14.304 13.568-14.304s13.568 6.4 13.568 14.304v171.744c0 15.744 12.224 28.608 27.136 28.608s27.136-12.864 27.136-28.608v-171.68c0-7.904 6.080-14.304 13.568-14.304s13.568 6.4 13.568 14.304v143.072c0 15.744 12.224 28.608 27.136 28.608s27.136-12.864 27.136-28.608v-143.072c0-15.328 4.32-20.96 10.752-20.96 10.944 0 27.936 16.384 39.68 28.8l11.808 12.448c5.28 5.568 12.224 8.352 19.168 8.352s13.92-2.784 19.2-8.352c10.432-11.168 10.432-29.376-0.128-40.512zM945.856 475.712v-57.216c0-57.216-27.136-200.288-162.752-200.288s-159.904 156.832-228.256 228.928l-7.968 8.416c-10.56 11.136-10.56 29.344 0 40.48 5.28 5.568 12.224 8.352 19.2 8.352 6.944 0 13.92-2.784 19.168-8.352l11.808-12.448c11.776-12.416 28.736-28.8 39.68-28.8 6.4 0 10.752 5.632 10.752 20.96v143.072c0 15.744 12.224 28.608 27.136 28.608s27.136-12.864 27.136-28.608v-143.072c0-7.904 6.080-14.304 13.568-14.304s13.568 6.4 13.568 14.304v171.648c0 15.744 12.224 28.608 27.136 28.608s27.136-12.864 27.136-28.608v-171.68c0-7.904 6.080-14.304 13.568-14.304s13.568 6.4 13.568 14.304v143.072c0 15.744 12.224 28.608 27.136 28.608s27.136-12.864 27.136-28.608v-143.072c0-7.904 6.080-14.304 13.568-14.304s13.568 6.4 13.568 14.304v85.856c0 15.744 12.224 28.608 27.136 28.608s27.136-12.864 27.136-28.608v-85.856z" />
<glyph unicode="&#x35;" glyph-name="ruleoffive" horiz-adv-x="920" d="M857.865 327.768c-18.35-0.056-34.798-8.148-46.020-20.94l-63.972 32.416c2.121 7.081 3.342 15.217 3.342 23.638 0 31.499-17.079 59.010-42.482 73.776l40.729 118.508h3.708c33.822 0.4 61.086 27.91 61.086 61.789 0 34.127-27.666 61.793-61.793 61.793s-61.793-27.666-61.793-61.793c0-21.214 10.69-39.932 26.978-51.059l-39.335-117.897c-3.981 0.661-8.569 1.039-13.244 1.039-46.645 0-84.507-37.608-84.918-84.156l-127.118-22.814c-10.026 21.25-31.275 35.692-55.897 35.692-34.030 0-61.617-27.587-61.617-61.617s27.587-61.617 61.617-61.617c32.093 0 58.455 24.536 61.352 55.872l126.429 22.135c11.626-30.514 39.396-52.369 72.596-55.238l17.975-170.042c-23.583-9.061-40.017-31.526-40.017-57.829 0-34.127 27.666-61.793 61.793-61.793s61.793 27.666 61.793 61.793c0 30.658-22.326 56.101-51.607 60.958l-18.015 170.069c17.747 5.431 32.595 15.938 43.283 29.813l64.060-31.932c-0.794-3.715-1.248-7.982-1.248-12.356 0-34.127 27.666-61.793 61.793-61.793s61.793 27.666 61.793 61.793c0 33.937-27.358 61.484-61.222 61.791zM582.091 50.052c0.13 33.262 14.198 63.213 36.662 84.335l-10.356 101.75c-19.573 8.987-36.064 21.578-49.271 37.056l-24.528-4.041c-6.003-110.698-55.967-196.855-185.732-196.855-107.52 0-174.963 60.204-185.026 169.313h-163.84c7.062-200.916 157.661-305.611 351.338-305.611 3.385-0.124 7.363-0.194 11.356-0.194 85.909 0 164.207 32.586 223.208 86.071-2.523 8.263-3.811 18.035-3.811 28.109 0 0.023 0 0.047 0 0.070zM344.099 502.554c82.979 0 137.004-39.194 165.606-95.514l24.894 4.237c17.344 45.276 56.25 78.744 103.807 88.13l2.477 4.56c-52.966 78.566-139.652 127.117-256.53 127.117-1.336 0.025-2.912 0.040-4.492 0.040-70.752 0-134.696-29.144-180.484-76.082l-2.875 2.773 51.553 255.823h397.241v146.361h-519.239l-107.52-549.252h163.487c27.366 70.268 93.219 91.807 162.074 91.807z" />
<glyph unicode="&#x42;" glyph-name="biotech" d="M826.592 646.72h-205.248c-15.648 26.176-40 53.184-73.728 81.6-0.896 0.768-1.44 1.92-1.44 3.104s0.544 2.336 1.472 3.072c65.632 54.336 95.712 115.584 95.36 195.84-1.856-5.92-4.224-12.608-7.232-19.904-0.768-1.92-2.816-2.848-4.8-2.368-1.184 0.32-2.208 0.608-3.168 0.608h-84.864c-5.568 0-10.080-3.84-10.080-8.576 0-4.704 4.512-8.576 10.080-8.576h77.44c1.408 0 2.72-0.736 3.456-1.984 0.704-1.216 0.736-2.72 0.096-3.968-3.68-6.88-7.264-13.056-10.944-18.912-0.832-1.376-2.432-2.112-4.128-1.76-0.064 0-0.992 0.224-1.024 0.224-0.512 0.128-0.928 0.224-1.216 0.224h-63.648c-5.568 0-10.080-3.872-10.080-8.576 0-4.736 4.512-8.576 10.080-8.576h49.28c1.536 0 2.944-0.864 3.616-2.24s0.512-3.008-0.448-4.224c-5.92-7.712-12.32-15.36-19.072-22.72-0.736-0.832-1.856-1.312-2.976-1.312h-30.4c-5.568 0-10.080-3.84-10.080-8.576 0-4.704 4.544-8.576 10.080-8.576h5.024c1.696 0 3.2-1.024 3.776-2.592 0.608-1.536 0.16-3.328-1.056-4.416-12.544-11.36-24.992-21.472-38.080-30.88l-2.208-1.664c-1.408-1.024-3.328-0.992-4.736 0.032l-2.144 1.632c-13.056 9.344-25.472 19.456-38.080 30.88-1.248 1.12-1.664 2.88-1.056 4.416 0.608 1.568 2.080 2.592 3.776 2.592h5.024c5.568 0 10.080 3.84 10.080 8.576s-4.512 8.576-10.080 8.576h-30.4c-1.152 0-2.208 0.48-2.976 1.312-6.656 7.328-13.088 14.944-19.072 22.72-0.928 1.216-1.088 2.848-0.416 4.224s2.080 2.24 3.616 2.24h49.28c5.536 0 10.048 3.84 10.048 8.576 0 4.704-4.512 8.576-10.048 8.576h-63.648c-0.256 0-0.672-0.096-1.152-0.224-0.032 0-0.992-0.224-1.056-0.224-1.6-0.352-3.296 0.416-4.192 1.824-3.776 5.984-7.328 12.16-10.944 18.912-0.672 1.248-0.64 2.752 0.096 4 0.736 1.216 2.016 1.952 3.456 1.952h77.44c5.536 0 10.048 3.84 10.048 8.576s-4.512 8.576-10.048 8.576h-84.832c-0.928 0-1.888-0.256-3.136-0.608-1.952-0.576-4.032 0.448-4.832 2.336-3.040 7.328-5.408 14.016-7.264 19.968-0.352-80.288 29.792-141.536 95.392-195.872 0.928-0.736 1.44-1.888 1.472-3.072 0-1.216-0.544-2.336-1.44-3.104-36.48-30.72-59.488-57.6-73.824-81.6h-205.152c-106.688 0-193.504-86.816-193.504-193.504v-18.848c0-106.72 86.784-193.536 193.504-193.536h205.216c14.304-23.968 37.312-50.848 73.792-81.6 0.896-0.768 1.44-1.92 1.408-3.104 0-1.216-0.544-2.336-1.44-3.104-65.6-54.336-95.744-115.584-95.392-195.872 1.856 5.92 4.224 12.64 7.264 19.936 0.768 1.92 2.848 2.976 4.8 2.336 1.12-0.32 2.144-0.608 3.136-0.608h84.832c5.568 0 10.048 3.84 10.048 8.576s-4.512 8.608-10.048 8.608h-77.44c-1.408 0-2.72 0.704-3.456 1.952s-0.768 2.72-0.096 3.968c3.584 6.752 7.168 12.928 10.944 18.912 0.896 1.408 2.496 2.080 4.16 1.856 0.064-0.032 1.088-0.256 1.152-0.288 0.448-0.096 0.864-0.192 1.12-0.192h63.648c5.568 0 10.048 3.84 10.048 8.576s-4.512 8.576-10.048 8.576h-49.28c-1.536 0-2.944 0.864-3.616 2.272-0.672 1.344-0.512 3.008 0.416 4.224 5.952 7.744 12.384 15.36 19.072 22.752 0.768 0.8 1.856 1.312 2.976 1.312h30.4c5.568 0 10.080 3.84 10.080 8.576s-4.512 8.576-10.080 8.576h-5.024c-1.664 0-3.168 1.024-3.776 2.592-0.608 1.536-0.16 3.328 1.056 4.448 12.672 11.488 25.152 21.6 38.048 30.848l2.144 1.632c1.376 1.056 3.296 1.056 4.736 0.032l2.208-1.696c13.024-9.312 25.472-19.392 38.048-30.816 1.216-1.12 1.664-2.912 1.056-4.448-0.608-1.568-2.080-2.592-3.776-2.592h-5.024c-5.568 0-10.112-3.84-10.112-8.576s4.544-8.576 10.112-8.576h30.4c1.12 0 2.208-0.512 2.976-1.312 6.816-7.424 13.216-15.104 19.072-22.752 0.928-1.216 1.088-2.88 0.448-4.224-0.672-1.408-2.080-2.272-3.616-2.272h-49.28c-5.568 0-10.080-3.808-10.080-8.576 0-4.704 4.512-8.576 10.080-8.576h63.648c0.288 0 0.672 0.096 1.152 0.224 0.064 0 1.056 0.224 1.12 0.224 1.6 0.384 3.296-0.384 4.16-1.824 3.712-5.888 7.296-12.064 10.944-18.88 0.672-1.28 0.64-2.784-0.096-4s-2.048-1.952-3.456-1.952h-77.44c-5.568 0-10.080-3.84-10.080-8.608 0-4.704 4.512-8.576 10.080-8.576h84.864c0.928 0 1.984 0.288 3.168 0.64 1.984 0.512 4.032-0.512 4.8-2.368 3.008-7.296 5.376-14.016 7.232-19.904 0.352 80.256-29.76 141.536-95.36 195.84-0.928 0.736-1.472 1.888-1.472 3.104 0 1.184 0.544 2.304 1.44 3.104 33.664 28.384 58.080 55.36 73.792 81.6h205.184c106.72 0 193.536 86.816 193.536 193.536v18.848c-0.032 106.624-86.848 193.44-193.568 193.44zM473.248 663.616h-7.232c-1.696 0-3.2 1.056-3.776 2.656-0.576 1.568-0.096 3.36 1.184 4.448 11.808 9.984 26.048 20.96 42.368 32.608 1.376 0.992 3.264 0.992 4.672 0 16.352-11.648 30.592-22.624 42.4-32.608 1.248-1.088 1.728-2.88 1.152-4.448-0.608-1.6-2.080-2.656-3.776-2.656h-7.232c-5.568 0-10.080-3.84-10.080-8.576 0-4.288 3.808-7.68 8.64-8.32h-66.816c4.8 0.64 8.608 4.032 8.608 8.32-0.064 4.736-4.576 8.576-10.112 8.576zM543.008 223.936h7.2c1.696 0 3.2-1.056 3.776-2.656 0.576-1.568 0.096-3.328-1.152-4.448-11.84-10.016-26.080-20.96-42.4-32.608-1.408-0.992-3.296-0.992-4.672 0-16.288 11.584-30.528 22.56-42.368 32.608-1.28 1.088-1.76 2.88-1.184 4.448 0.576 1.6 2.080 2.656 3.776 2.656h7.232c5.568 0 10.048 3.84 10.048 8.608 0 4.288-3.776 7.68-8.608 8.32h66.848c-4.832-0.64-8.64-4.032-8.64-8.32 0.032-4.768 4.576-8.608 10.144-8.608zM955.616 434.368c0-71.168-57.888-129.024-129.024-129.024h-318.464v276.864h318.464c71.168 0 129.024-57.888 129.024-128.992v-18.848z" />
<glyph unicode="&#x44;" glyph-name="SQLdata" d="M63.104 834.048c0 67.211 200.576 121.696 448 121.696s448-54.485 448-121.696c0-67.211-200.576-121.696-448-121.696s-448 54.485-448 121.696zM511.104 571.776c208.64 0 383.456 30.624 433.312 72 9.216-12.8 14.688-26.176 14.688-40 0-88.32-200.576-160-448-160s-448 71.68-448 160c0 13.824 5.44 27.2 14.688 40 49.824-41.376 224.64-72 433.312-72zM511.104 59.776c208.64 0 383.456 30.624 433.312 72 9.216-12.8 14.688-26.176 14.688-40 0-82.112-173.376-149.824-396.576-158.944-0.352 0-0.672-0.032-1.024-0.032-16.544-0.64-33.344-1.024-50.4-1.024s-33.856 0.384-50.4 1.024c-0.384 0-0.704 0.032-1.056 0.032-223.2 9.12-396.544 76.864-396.544 158.944 0 13.824 5.44 27.2 14.688 40 49.824-41.376 224.64-72 433.312-72zM511.104 179.776c-247.424 0-448 71.68-448 160 0 13.824 5.44 27.2 14.688 40 49.824-41.376 224.672-72 433.312-72s383.456 30.624 433.312 72c9.216-12.8 14.688-26.176 14.688-40 0-88.32-200.576-160-448-160z" />
<glyph unicode="&#x4d;" glyph-name="monomer" d="M513.741-18.807c-258.799 0-469.333 210.551-469.333 469.333 0 258.799 210.534 469.333 469.333 469.333 258.782 0 469.333-210.534 469.333-469.333 0-258.782-210.551-469.333-469.333-469.333zM513.741 776.465c-179.712 0-325.939-146.21-325.939-325.939s146.21-325.939 325.939-325.939c179.729 0 325.939 146.21 325.939 325.939s-146.21 325.939-325.939 325.939z" />
<glyph unicode="&#x52;" glyph-name="RDF" d="M1030.016 484.608v-110.56h-229.408v110.56h87.584v121.984h-356.992v-414.080h87.616v-110.528h-229.44v110.528h87.616v414.080h-329.184v-121.984h87.584v-110.56h-229.376v110.56h87.584v176.224h383.392v122.016h-87.616v110.528h229.44v-110.528h-87.616v-122.016h411.2v-176.224z" />
<glyph unicode="&#x55;" glyph-name="unichem" d="M511.846 919.245l-426.667-246.34v-492.663l322.458-186.163 44.851 250.3c-76.783 25.003-132.318 97.075-132.318 182.204 0 105.865 85.828 191.693 191.693 191.693s191.693-85.828 191.693-191.693c0-85.129-55.535-157.201-132.318-182.204l44.851-250.3 322.458 186.163v492.681l-426.701 246.323z" />
<glyph unicode="&#x56;" glyph-name="virtualEnvironment" d="M730.795 785.493l-206.746 119.381c-5.513 3.174-12.356 3.174-17.886 0l-206.746-119.364c-5.53-3.191-8.943-9.097-8.943-15.479v-238.746c0-6.383 3.396-12.288 8.943-15.479l206.746-119.364c2.765-1.587 5.854-2.389 8.943-2.389s6.178 0.802 8.943 2.389l206.746 119.364c5.513 3.191 8.943 9.097 8.943 15.479v238.729c0 6.383-3.43 12.288-8.943 15.479zM703.983 541.594l-188.877-109.056-0.341 0.205-3.738 223.812-184.508 103.287 188.604 108.885 188.877-109.056v-218.078zM486.093 372.070l-206.746 119.364c-5.513 3.174-12.356 3.174-17.886 0l-206.746-119.364c-5.53-3.191-8.943-9.097-8.943-15.479v-238.729c0-6.383 3.396-12.288 8.943-15.479l206.746-119.364c2.765-1.587 5.854-2.389 8.943-2.389s6.178 0.802 8.943 2.389l206.746 119.364c5.513 3.191 8.943 9.097 8.943 15.479v238.729c0 6.383-3.43 12.288-8.943 15.479zM459.264 128.171l-188.877-109.056-0.341 0.205-3.738 223.812-184.508 103.287 188.604 108.885 188.877-109.056v-218.078zM975.497 372.070l-206.746 119.364c-5.513 3.174-12.356 3.174-17.886 0l-206.746-119.364c-5.53-3.191-8.943-9.097-8.943-15.479v-238.729c0-6.383 3.396-12.288 8.943-15.479l206.746-119.364c2.765-1.587 5.854-2.389 8.943-2.389s6.178 0.802 8.943 2.389l206.746 119.364c5.513 3.191 8.943 9.097 8.943 15.479v238.729c0 6.383-3.43 12.288-8.943 15.479zM948.685 128.171l-188.877-109.056-0.341 0.205-3.738 223.812-184.508 103.287 188.604 108.885 188.877-109.056v-218.078z" />
<glyph unicode="&#x61;" glyph-name="antibody" d="M770.799 498.483c-8.038 0-16.179 2.048-23.654 6.349-22.665 13.090-30.43 42.069-17.34 64.734l157.901 273.493c13.090 22.665 42.069 30.43 64.734 17.34s30.43-42.069 17.34-64.734l-157.901-273.493c-8.772-15.189-24.695-23.689-41.079-23.689zM577.331-38.724c-25.583 0-46.302 20.719-46.302 46.285v458.24c0 7.987 2.082 15.855 6.025 22.818l238.967 421.956c12.595 22.238 40.823 30.089 63.095 17.459 22.255-12.595 30.071-40.858 17.459-63.095l-232.943-411.341v-446.037c0-25.566-20.719-46.285-46.302-46.285zM254.976 498.483c8.038 0 16.179 2.048 23.654 6.349 22.665 13.090 30.43 42.069 17.34 64.734l-157.918 273.493c-13.073 22.665-42.069 30.43-64.717 17.34-22.665-13.090-30.43-42.069-17.34-64.717l157.901-273.493c8.772-15.206 24.695-23.706 41.079-23.706zM448.427-38.724c25.583 0 46.302 20.719 46.302 46.285v458.24c0 7.987-2.082 15.855-6.025 22.818l-238.95 421.956c-12.595 22.238-40.823 30.089-63.095 17.459-22.255-12.595-30.071-40.841-17.476-63.095l232.943-411.341v-446.037c0-25.566 20.736-46.285 46.302-46.285z" />
<glyph unicode="&#x62;" glyph-name="blackbox" d="M283.307 645.973h616.107v-616.107h-616.107v616.107zM880.64 683.52h-607.573l-150.187 148.48h607.573zM114.347 785.92v-599.040l136.533-131.413v599.040z" />
<glyph unicode="&#x63;" glyph-name="cut" d="M890.784 278.624c-45.664 45.6-103.712 69.088-157.952 69.088h-29.12l-63.904 64 255.616 256.032c63.872 64 63.872 192.032 0 256.032l-383.424-384.064-383.424 384.064c-63.872-64-63.872-192.032 0-256.032l255.616-256.032-63.904-64h-29.12c-54.176 0-112.288-23.52-157.952-69.088-81.632-81.44-92.672-202.464-24.672-270.336 30.016-29.92 70.336-44.512 113.056-44.512 54.208 0 112.288 23.52 157.984 69.088 53.6 53.472 76.704 124 67.072 185.344l65.344 65.472 65.376-65.472c-9.664-61.344 13.504-131.872 67.072-185.344 45.664-45.568 103.744-69.088 157.952-69.088 42.72 0 83.040 14.592 112.992 44.512 68.032 67.84 56.992 188.896-24.608 270.336zM353.024 142.24c-7.712-17.92-19.040-34.336-33.664-48.928-14.592-14.592-31.168-25.92-49.12-33.632-16.128-6.912-32.96-10.56-48.672-10.56-15.136 0-36.608 3.36-52.864 19.584-16.128 16.128-19.488 37.312-19.488 52.32 0 15.552 3.648 32.224 10.528 48.224 7.712 17.92 19.008 34.336 33.632 48.928s31.168 25.92 49.152 33.632c16.128 6.912 32.96 10.56 48.672 10.56 15.168 0 36.64-3.392 52.864-19.616 16.128-16.096 19.52-37.312 19.52-52.288-0.032-15.552-3.68-32.224-10.56-48.224zM512 321.184c-49.92 0-90.368 40.544-90.368 90.528s40.448 90.528 90.368 90.528 90.368-40.544 90.368-90.528-40.448-90.528-90.368-90.528zM855.264 68.736c-16.256-16.224-37.728-19.616-52.832-19.616-15.712 0-32.576 3.648-48.672 10.56-17.984 7.712-34.496 19.008-49.152 33.632-14.624 14.592-25.92 31.040-33.632 48.928-6.88 16-10.528 32.672-10.528 48.224 0 15.008 3.392 36.192 19.52 52.32 16.256 16.192 37.728 19.584 52.864 19.584 15.68 0 32.544-3.648 48.672-10.56 17.984-7.712 34.528-19.008 49.152-33.632 14.624-14.592 25.92-31.040 33.632-48.928 6.88-16 10.528-32.672 10.528-48.224-0.032-14.976-3.424-36.192-19.552-52.288z" />
<glyph unicode="&#x65;" glyph-name="enzyme" d="M959.881 778.342c-41.387 54.101-157.815 34.56-260.045-43.639-25.566-19.558-47.821-40.926-66.167-62.822-9.182-10.957-17.374-22.033-24.542-33.092-10.735-16.572-19.115-33.092-24.883-49.015-13.466-37.137-12.715-70.98 5.376-94.652 3.533-4.608 7.782-8.482 12.339-12.032 1.092-0.853 2.185-1.673 3.328-2.475 4.727-3.26 9.779-6.161 15.394-8.414 0.461-0.188 0.973-0.29 1.434-0.461 5.325-2.031 11.076-3.533 17.084-4.693 1.536-0.29 3.038-0.597 4.608-0.836 6.537-0.99 13.312-1.604 20.48-1.638 0.239 0 0.444-0.051 0.683-0.051 1.178 0 2.475 0.188 3.652 0.222 4.71 0.102 9.506 0.358 14.421 0.853 2.219 0.222 4.489 0.546 6.741 0.853 4.42 0.597 8.892 1.331 13.449 2.219 2.389 0.478 4.779 0.939 7.202 1.502 4.932 1.126 9.95 2.458 15.002 3.925 2.014 0.58 4.011 1.075 6.042 1.707 7.083 2.219 14.251 4.71 21.487 7.561 1.161 0.461 2.338 1.024 3.499 1.485 6.127 2.492 12.288 5.188 18.5 8.124 2.441 1.161 4.881 2.423 7.322 3.652 5.035 2.526 10.069 5.154 15.121 7.97 2.645 1.468 5.274 2.97 7.919 4.506 5.137 3.004 10.24 6.195 15.36 9.489 2.355 1.519 4.693 2.953 7.031 4.54 7.356 4.949 14.694 10.121 21.948 15.667 7.305 5.598 14.268 11.366 21.026 17.22 0 0 0 0 0 0v0c87.74 76.066 127.607 172.083 89.19 222.327zM880.845 498.022c-70.451-53.879-149.146-84.787-215.876-84.787-49.852 0-91.085 18.022-116.105 50.739-60.484 79.087-8.994 212.992 119.791 311.484 8.926 6.827 17.988 13.278 27.136 19.354-65.212 42.377-142.967 67.089-226.526 67.089-229.956-0.017-416.358-186.419-416.358-416.375s186.419-416.358 416.358-416.358 416.358 186.419 416.358 416.358c0 18.142-1.28 35.977-3.533 53.504-0.427-0.324-0.819-0.683-1.246-1.007z" />
<glyph unicode="&#x6c;" glyph-name="smallmolecule" d="M749.639 1.501h-475.277c-0.117-0.001-0.255-0.002-0.394-0.002-13.233 0-24.832 7-31.295 17.498l-237.73 412.231c-3.093 5.267-4.92 11.601-4.92 18.361s1.827 13.094 5.014 18.535l237.545 411.722c6.554 10.658 18.153 17.657 31.386 17.657 0.138 0 0.277-0.001 0.415-0.002h475.256c0.117 0.001 0.255 0.002 0.394 0.002 13.233 0 24.832-7 31.295-17.498l237.73-411.701c3.093-5.267 4.92-11.601 4.92-18.361s-1.827-13.094-5.014-18.535l-237.545-411.369c-6.423-11.118-18.235-18.49-31.773-18.538zM295.548 75.123h432.905l216.276 374.819-216.276 374.819h-432.905l-216.276-374.819zM204.8 403.862c-0.013 0-0.029 0-0.045 0-25.449 0-46.080 20.631-46.080 46.080 0 8.519 2.312 16.498 6.342 23.344l152.776 265.671c8.035 14.2 23.036 23.627 40.24 23.627 25.449 0 46.080-20.631 46.080-46.080 0-8.723-2.424-16.879-6.634-23.833l-153.484-265.858c-8.016-13.636-22.519-22.704-39.159-22.951zM665.6 137.799h-307.2c0 0 0 0 0 0-25.449 0-46.080 20.631-46.080 46.080s20.631 46.080 46.080 46.080c0 0 0 0 0 0h307.2c25.449 0 46.080-20.631 46.080-46.080s-20.631-46.080-46.080-46.080zM819.2 403.862c-16.98 0.022-31.806 9.224-39.783 22.909l-153.718 266.283c-3.826 6.594-6.084 14.509-6.084 22.952 0 25.591 20.746 46.337 46.337 46.337 17.149 0 32.122-9.316 40.135-23.163l153.719-266.286c3.851-6.589 6.125-14.507 6.125-22.956 0-25.449-20.631-46.080-46.080-46.080-0.229 0-0.458 0.002-0.687 0.005z" />
<glyph unicode="&#x6d;" glyph-name="medicinebottle" horiz-adv-x="474" d="M96.75 960h280.364c20.769 0 37.606-16.837 37.606-37.606v-166.312c0-20.769-16.837-37.606-37.606-37.606h-280.364c-20.769 0-37.606 16.837-37.606 37.606v166.312c0 20.769 16.837 37.606 37.606 37.606zM403.068 653.153c-18.569 8.159-32 24.982-35.265 45.208l-260.989 0.342c-3.31-20.569-16.741-37.391-34.928-45.4-74.358-31.047-71.003-115.262-71.003-115.262v-564.966c0.288-20.236 16.517-36.588 36.677-37.075l398.699-0.001c0 0 0 0 0 0 20.769 0 37.606 16.837 37.606 37.606 0 0 0 0 0 0v564.966s3.354 83.686-70.797 114.582zM420.723 49.17h-367.051v429.55h366.521v-429.55z" />
<glyph unicode="&#x6f;" glyph-name="stop" d="M974.912 549.696c24.128-24.128 24.128-63.552-0.032-87.712l-18.208-18.208c-156.224-156.224-211.712-495.968-521.696-495.968s-372 309.984-372 433.984v309.984c0 34.080 27.84 62.016 61.952 62.016s62.016-27.936 62.016-62.016v-186.016c0-17.12 13.888-31.008 31.008-31.008s31.008 13.888 31.008 31.008v310.016c0 34.080 27.776 62.016 61.888 62.016s62.016-27.936 62.016-62.016v-310.016c0-17.12 13.888-31.008 31.008-31.008s31.008 13.888 31.008 31.008v372c0 34.112 27.904 62.016 62.016 62.016s62.016-27.936 62.016-62.016v-372c0-17.12 13.92-31.008 31.008-31.008s31.008 13.888 31.008 31.008v310.016c0 34.112 27.904 62.016 62.016 62.016s62.016-27.936 62.016-62.016v-310.016c0-89.952 72.64-25.664 115.296 16.96l26.976 26.976c24.096 24.128 63.552 24.128 87.68 0v0z" />
<glyph unicode="&#x70;" glyph-name="patent" d="M238.933 557.227h331.093v-54.613h-331.093v54.613zM238.933 337.067h220.16v-54.613h-220.16v54.613zM238.933 446.293h331.093v-54.613h-331.093v54.613zM703.147 524.8c-10.24 0-23.893 3.413-37.547 15.36-5.12-1.707-10.24-1.707-15.36-3.413v-426.667h-493.227v640h353.28c1.707 3.413 5.12 8.533 8.533 11.947-5.12 17.067-3.413 30.72 0 39.253v0 0c3.413 8.533 11.947 18.773 27.307 27.307 0 1.707 0 1.707 0 3.413h-418.133c-30.72 0-54.613-25.6-54.613-54.613v-694.613c0-30.72 25.6-54.613 54.613-54.613h551.253c30.72 0 54.613 25.6 54.613 54.613v452.267c-10.24-6.827-22.187-10.24-30.72-10.24zM238.933 666.453h245.76v-54.613h-245.76v54.613zM863.573 709.12c5.12 5.12 6.827 10.24 6.827 15.36s-1.707 10.24-6.827 15.36-6.827 10.24-8.533 15.36 0 10.24 1.707 17.067c3.413 6.827 3.413 11.947 1.707 17.067s-6.827 8.533-11.947 10.24-10.24 6.827-13.653 10.24-3.413 10.24-3.413 17.067-5.12 10.24-8.533 13.653c-3.413 3.413-8.533 5.12-15.36 5.12s-11.947 1.707-17.067 5.12-6.827 6.827-10.24 13.653c-1.707 5.12-5.12 10.24-10.24 11.947-1.707 0-1.707 0-3.413 0s-1.707 0-3.413 0c-3.413 0-8.533 0-11.947-1.707-5.12-1.707-8.533-1.707-11.947-1.707 0 0-1.707 0-1.707 0s-1.707 0-1.707 0c-5.12 1.707-10.24 3.413-15.36 8.533s-10.24 6.827-15.36 6.827c-5.12 0-10.24-1.707-15.36-6.827s-10.24-6.827-15.36-8.533c0 0-1.707 0-1.707 0s-1.707 0-1.707 0c-3.413 0-8.533 0-11.947 1.707-5.12 1.707-8.533 1.707-11.947 1.707-1.707 0-1.707 0-3.413 0s-1.707 0-3.413 0c-3.413-1.707-6.827-6.827-8.533-11.947s-6.827-10.24-10.24-13.653-10.24-3.413-17.067-5.12c-6.827 0-11.947-1.707-15.36-5.12-1.707-1.707-3.413-5.12-5.12-8.533 0-1.707-1.707-5.12-1.707-6.827 0-6.827-1.707-11.947-5.12-17.067s-6.827-8.533-13.653-10.24-10.24-6.827-11.947-10.24-1.707-10.24 1.707-17.067c3.413-6.827 3.413-11.947 1.707-17.067 0-1.707-1.707-3.413-1.707-3.413-1.707-3.413-3.413-6.827-6.827-10.24-5.12-5.12-6.827-10.24-6.827-15.36s1.707-10.24 6.827-15.36c5.12-5.12 6.827-10.24 8.533-15.36s0-10.24-1.707-17.067c-3.413-6.827-3.413-11.947-1.707-17.067s6.827-8.533 11.947-10.24 10.24-6.827 13.653-10.24 5.12-10.24 5.12-17.067c0-6.827 1.707-11.947 5.12-15.36s8.533-5.12 15.36-5.12c6.827 0 11.947-1.707 17.067-5.12s8.533-6.827 10.24-13.653c3.413-6.827 6.827-10.24 10.24-11.947 0 0 1.707 0 3.413 0s1.707 0 3.413 0c3.413 0 8.533 0 11.947 1.707 5.12 1.707 8.533 1.707 11.947 1.707 0 0 1.707 0 1.707 0s1.707 0 1.707 0c5.12-1.707 10.24-3.413 15.36-8.533s10.24-6.827 15.36-6.827c5.12 0 10.24 1.707 15.36 6.827s10.24 6.827 15.36 8.533c0 0 0 0 0 0v0c0 0 0 0 0 0s1.707 0 1.707 0c3.413 0 8.533 0 11.947-1.707s5.12-1.707 8.533-1.707v0c1.707 0 3.413 0 3.413 0 1.707 0 1.707 0 3.413 0 0 0 1.707 0 3.413 0 5.12 1.707 8.533 6.827 11.947 11.947s6.827 10.24 10.24 13.653c5.12 3.413 10.24 3.413 17.067 5.12s11.947 1.707 15.36 5.12c3.413 3.413 5.12 8.533 5.12 15.36s1.707 11.947 5.12 17.067c3.413 5.12 6.827 8.533 13.653 10.24 3.413 1.707 5.12 3.413 8.533 5.12 1.707 1.707 3.413 3.413 5.12 6.827 0 1.707 0 1.707 1.707 3.413v0c0 3.413 0 8.533-1.707 11.947-3.413 6.827-3.413 11.947-1.707 17.067-1.707 6.827 1.707 10.24 6.827 15.36zM882.347 642.56c-3.413-6.827-10.24-11.947-18.773-17.067-3.413-1.707-5.12-3.413-6.827-5.12s-1.707-5.12-1.707-8.533c0-10.24-3.413-18.773-10.24-25.6v0 0c-6.827-6.827-15.36-8.533-25.6-8.533-3.413 0-6.827 0-8.533-1.707s-3.413-5.12-5.12-6.827c-5.12-11.947-13.653-17.067-18.773-20.48h-3.413l83.627-80.213v47.787h47.787v47.787h47.787l-80.213 78.507z" />
<glyph unicode="&#x72;" glyph-name="rosette" horiz-adv-x="1022" d="M624.906 170.803c5.405 14.536 14.752 26.553 26.743 35.102 11.925 7.255 26.064 11.458 41.185 11.458 0.66 0 1.319-0.008 1.975-0.024 0.678-0.035 1.587-0.056 2.501-0.056 14.462 0 27.687 5.293 37.844 14.048 9.032 9.87 14.613 23.166 14.613 37.765 0 0.893-0.021 1.781-0.062 2.664-0.148 1.584-0.235 3.572-0.235 5.58 0 30.17 19.636 55.754 46.825 64.67 14.289 5.175 25.376 14.891 32.059 27.327 1.347 2.773 2.376 5.653 3.090 8.655l-76.975 77.326-251.020-251.549 67.162-67.162c1.555-0.103 3.371-0.162 5.2-0.162s3.645 0.059 5.446 0.175c0.892-0.157 2.209-0.24 3.545-0.24s2.652 0.083 3.945 0.243l6.544 1.747c13.76 6.54 24.296 17.994 29.486 32.038zM860.59 349.020c-11.164-19.439-28.387-34.324-49.054-42.261-8.35-3.057-14.823-7.658-19.816-13.553-3.186-6.131-5.023-13.303-5.023-20.904 0-0.607 0.012-1.211 0.035-1.812 0.016-0.613 0.027-1.437 0.027-2.264 0-24.838-9.822-47.382-25.794-63.959l0.027 0.029c-16.606-14.898-38.672-24.008-62.864-24.008-0.891 0-1.78 0.012-2.665 0.037-0.427 0.022-1.080 0.036-1.736 0.036-7.772 0-15.084-1.973-21.462-5.445-5.475-4.446-9.893-10.396-12.537-17.23-9.003-23.897-26.423-42.577-48.523-52.921l-3.574-1.477h-2.292l166.23-166.23 0.705 0.529v124.452h124.981v125.158h125.158zM842.962 494.097c10.434 9.696 17.099 23.323 17.625 38.511-0.382 15.68-7.070 29.631-17.597 39.554-10.581 10.048-18.35 22.905-22.118 37.377-0.834 4.403-1.242 8.837-1.242 13.366 0 11.346 2.558 22.094 7.129 31.699 3.222 6.445 5.22 14.559 5.22 23.141 0 6.853-1.274 13.408-3.597 19.442-6.678 12.917-18.067 23.047-31.906 28.059-14.793 5.83-26.736 15.108-35.508 26.886-7.053 11.465-11.14 25.089-11.14 39.669 0 1.064 0.022 2.124 0.065 3.177 0.058 0.83 0.095 1.975 0.095 3.129 0 14.197-5.467 27.117-14.41 36.77-10.332 9.077-24.012 14.638-38.991 14.638-0.783 0-1.562-0.015-2.337-0.045-0.258-0.003-0.694-0.006-1.131-0.006-15.096 0-29.212 4.198-41.243 11.491-11.871 8.495-21.221 20.515-26.448 34.543-5.299 14.77-15.845 26.004-29.261 31.931-2.287 1.148-4.543 1.89-6.928 2.238l-7.519 0.014c-0.303 0.003-0.661 0.005-1.019 0.005-11.288 0-22.154-1.807-32.324-5.149-8.763-3.122-19.713-5.111-31.107-5.256l-4.651-0.001c-0.556-0.133-1.195-0.209-1.851-0.209s-1.295 0.076-1.907 0.221c-15.339 3.197-28.562 10.965-38.501 21.795-9.964 10.656-23.936 17.36-39.476 17.679-15.352-0.465-29-7.146-38.628-17.589-10.325-10.957-23.938-18.643-39.254-21.476-0.999-0.201-1.638-0.277-2.294-0.277s-1.295 0.076-1.907 0.221l-3.998-0.011c-11.413 0.018-22.383 1.888-32.634 5.324-8.767 3.113-19.716 5.102-31.108 5.252l-8.003 0.001c-2.681-0.296-5.127-1.045-7.349-2.171-13.246-6.24-23.446-17.416-28.317-31.117-5.524-14.916-14.87-26.934-26.861-35.482-11.909-7.256-26.033-11.459-41.138-11.459-0.677 0-1.351 0.008-2.024 0.025-0.583 0.026-1.384 0.042-2.189 0.042-14.959 0-28.619-5.562-39.025-14.731-8.848-9.538-14.318-22.438-14.318-36.615 0-1.177 0.038-2.344 0.112-3.502 0.027-0.679 0.046-1.661 0.046-2.648 0-14.768-4.429-28.501-12.032-39.944-8.536-11.952-20.554-21.299-34.575-26.536-14.757-5.308-26.145-15.438-32.797-28.399-2.162-5.76-3.325-12.036-3.325-18.584 0-9.040 2.216-17.562 6.135-25.052 4.233-8.869 6.789-19.625 6.789-30.979 0-4.521-0.405-8.947-1.181-13.244-4.081-14.766-12.281-27.707-23.302-37.559-10.679-9.982-17.383-23.954-17.702-39.495 0.465-15.352 7.146-29 17.589-38.628 10.831-9.981 18.787-22.852 22.654-37.389 0.96-4.723 1.439-9.526 1.439-14.441 0-10.927-2.367-21.301-6.617-30.638-3.39-6.568-5.487-14.871-5.487-23.663 0-6.584 1.176-12.894 3.329-18.731 6.682-12.912 18.071-23.042 31.91-28.054 14.939-5.533 26.957-14.88 35.505-26.871 7.262-11.239 11.486-24.693 11.486-39.132 0-0.948-0.018-1.892-0.054-2.832-0.062-0.865-0.1-2.032-0.1-3.209 0-14.177 5.469-27.077 14.413-36.704 9.953-9.081 23.297-14.664 37.945-14.664 0.965 0 1.925 0.024 2.878 0.072 0.507 0.013 1.262 0.023 2.019 0.023 15.207 0 29.432-4.204 41.576-11.514 11.854-8.499 21.201-20.517 26.438-34.539 5.308-14.757 15.438-26.145 28.399-32.797l7.554-1.915c1.19-0.134 2.569-0.211 3.966-0.211s2.776 0.077 4.134 0.226c11.318 0.131 22.265 2.251 32.409 6.020 8.803 3.336 19.75 5.457 31.174 5.598l8.347 0.001c15.114-3.958 28.069-11.713 38.232-22.19 9.919-10.45 23.71-17.103 39.056-17.646 15.684 0.382 29.636 7.069 39.558 17.597 10.216 10.702 23.335 18.498 38.092 22.127l4.241 0.112h4.583c11.485-0.142 22.432-2.262 32.576-6.035 8.805-3.333 19.751-5.454 31.174-5.599 1.201-0.145 2.518-0.228 3.853-0.228s2.652 0.083 3.945 0.243l6.544 1.747c13.688 6.575 24.161 18.021 29.311 32.038 5.533 14.933 14.88 26.951 26.871 35.499 11.925 7.255 26.064 11.458 41.185 11.458 0.66 0 1.319-0.008 1.975-0.024 0.678-0.035 1.587-0.056 2.501-0.056 14.462 0 27.687 5.293 37.844 14.048 9.032 9.87 14.613 23.166 14.613 37.765 0 0.893-0.021 1.781-0.062 2.664-0.148 1.584-0.235 3.572-0.235 5.58 0 30.17 19.636 55.754 46.825 64.67 14.498 4.899 25.829 14.458 32.766 26.815 2.183 5.754 3.359 12.063 3.359 18.648 0 8.793-2.097 17.095-5.818 24.436-4.238 8.85-6.796 19.598-6.796 30.944 0 4.529 0.408 8.963 1.188 13.268 3.972 14.616 11.919 27.475 22.622 37.403zM341.803 367h-92.546v199.018c0.079 2.777 0.124 6.045 0.124 9.323 0 14.981-0.942 29.741-2.77 44.226-1.339 4.284-5.507 9.090-10.978 11.449-10.011 3.044-21.371 4.769-33.134 4.769-3.024 0-6.022-0.114-8.989-0.338l-8.243 0.024v42.483c41.404 7.231 76.84 28.716 101.832 59.114l54.703 0.292v-370.184zM518.082 393.089c-5.406-10.052-13.893-17.856-24.181-22.265-11.957-5.158-25.507-8.087-39.741-8.087-0.891 0-1.78 0.011-2.666 0.034-0.778-0.028-1.848-0.043-2.921-0.043-15.676 0-30.622 3.124-44.25 8.783-10.7 4.083-19.941 12.127-25.721 22.381-5.406 12.156-8.477 26.039-8.477 40.639 0 1.234 0.022 2.462 0.065 3.685l-0.005 10.576h63.284v-14.807c-0.084-1.352-0.131-2.932-0.131-4.524 0-7.104 0.948-13.986 2.726-20.526 1.278-2.825 4.546-5.152 8.359-5.152 0.364 0 0.723 0.021 1.076 0.063 0.349-0.046 0.803-0.070 1.262-0.070 3.64 0 6.927 1.511 9.268 3.941 1.994 3.784 3.163 8.264 3.163 13.016 0 1.067-0.059 2.12-0.174 3.157 0.185 1.187 0.285 2.708 0.285 4.252 0 6.076-1.537 11.793-4.243 16.783-11.828 8.362-25.444 16.676-39.663 23.983-17.429 8.057-30.247 18.952-39.545 32.459-4.682 9.891-7.296 21.114-7.296 32.948 0 0.921 0.016 1.837 0.047 2.75-0.119 1.558-0.185 3.532-0.185 5.522 0 12.951 2.793 25.249 7.81 36.325 5.548 8.964 14.266 16.199 24.648 19.964 11.909 4.696 25.318 7.357 39.348 7.357 0.786 0 1.57-0.008 2.352-0.025 0.658 0.020 1.57 0.031 2.484 0.031 13.259 0 26.003-2.205 37.885-6.267 9.038-3.031 17.443-8.424 24.19-15.425 4.817-4.794 8.466-10.721 10.516-17.349 1.339-7.109 2.059-14.947 2.059-22.953 0-1.145-0.015-2.288-0.044-3.426l0.003-13.405h-63.108v11.987c0.077 1.211 0.121 2.626 0.121 4.051 0 5.887-0.752 11.599-2.164 17.044-1.474 2.26-4.379 4.068-7.707 4.068-0.541 0-1.071-0.048-1.586-0.14-0.14 0.021-0.366 0.028-0.594 0.028-3.379 0-6.388-1.585-8.324-4.051-1.933-2.995-3.071-6.624-3.071-10.519 0-0.525 0.021-1.044 0.061-1.558-0.026-0.529-0.038-1.231-0.038-1.936 0-4.918 0.591-9.697 1.705-14.272 1.837-4.171 4.929-7.943 8.822-10.64 8.965-6.346 19.085-12.226 29.725-17.178 17.33-7.154 30.985-16.85 42.022-28.971 6.26-9.959 9.925-21.95 9.925-34.796 0-1.558-0.054-3.103-0.16-4.634 0.088-1.245 0.132-2.944 0.132-4.654 0-13.775-2.832-26.889-7.945-38.791zM641.476 367h-28.381c-1.6-0.045-3.484-0.070-5.374-0.070-10.544 0-20.902 0.795-31.018 2.327-5.764 1.395-11.74 4.676-16.507 9.216-5.011 4.486-8.549 10.557-9.827 17.422-1.357 10.739-2.114 22.945-2.114 35.327 0 3.266 0.053 6.519 0.157 9.759l-0.012 117.81h-15.689v37.018h15.336v37.018h71.569v-36.842h19.214v-37.018h-19.214v-125.51c-0.202-1.962-0.318-4.239-0.318-6.543 0-6.843 1.018-13.448 2.911-19.672 4.257-1.407 9.358-2.503 14.716-2.503 1.791 0 3.553 0.123 5.279 0.36l-0.2-37.746z" />
<glyph unicode="&#x73;" glyph-name="syringe" horiz-adv-x="999" d="M4.767 137.446l196.679-196.679c2.982-2.982 7.102-4.827 11.652-4.827 9.101 0 16.479 7.378 16.479 16.479 0 4.551-1.844 8.67-4.827 11.652l-35.31 35.31 130.295 130.825-125.175 125.705-130.648-131.001-35.31 35.31c-3.007 3.142-7.234 5.096-11.917 5.096-9.103 0-16.483-7.38-16.483-16.483 0-4.42 1.74-8.434 4.572-11.394zM999.106 960l-235.52-235.343h-160.132c-3.854-0.007-7.344-1.556-9.889-4.062l-1.234 1.238-366.698-366.698-14.124 14.124c-5.798 6.066-13.953 9.838-22.989 9.838-17.551 0-31.779-14.228-31.779-31.779 0-8.992 3.735-17.112 9.738-22.893l222.289-221.935c5.842-6.482 14.266-10.539 23.638-10.539 17.551 0 31.779 14.228 31.779 31.779 0 9.636-4.289 18.27-11.061 24.098l-14.166 14.159 366.698 366.345-1.059 1.059c2.505 2.543 4.054 6.033 4.061 9.886v160.663l210.45 210.273v49.788zM390.709 190.058l-136.651 136.651 19.95 19.95 63.382-63.382 25.070 25.070-63.382 63.382 27.719 27.719 63.382-63.382 25.070 25.070-63.559 63.206 27.719 27.719 63.382-63.382 25.070 25.070-63.382 63.382 27.719 27.719 62.499-63.382 25.6 24.188-63.382 63.382 27.719 27.719 63.029-62.676 25.247 24.541-63.382 63.382 27.719 27.719 136.651-136.651z" />
<glyph unicode="&#x74;" glyph-name="OTC" d="M1016.055 272.684l-167.548 218.218h24.011v108.403h-721.037v-108.403h24.364l-167.901-218.218c-4.962-6.774-7.941-15.273-7.941-24.467 0-10.204 3.668-19.552 9.758-26.796 4.901-5.748 12.228-9.41 20.411-9.41 9.121 0 17.179 4.55 22.029 11.505l151.716 197.472 37.782-363.697h540.778l37.782 363.697 151.658-197.385c4.907-7.042 12.965-11.592 22.086-11.592 8.182 0 15.509 3.662 20.431 9.436 6.012 7.2 9.643 16.504 9.643 26.657 0 9.244-3.010 17.784-8.104 24.695zM376.761 165.694h-90.041v108.403h90.218v-108.403zM376.761 382.499h-90.041v108.403h90.218v-108.403zM557.021 165.694h-90.041v108.403h90.218v-108.403zM557.021 382.499h-90.041v108.403h90.218v-108.403zM737.28 165.694h-90.041v108.403h90.041v-108.403zM737.28 382.499h-90.041v108.403h90.041v-108.403zM156.954 621.021h198.797c6.18 6.62 11.576 14.1 15.961 22.206 9.715 20.045 15.229 42.929 15.229 67.101 0 2.121-0.042 4.232-0.127 6.333 0.152 1.954 0.233 4.59 0.233 7.245 0 33.867-13.189 64.653-34.711 87.503-23.278 21.13-54.414 34.105-88.581 34.105-2.977 0-5.931-0.099-8.86-0.292-1.605 0.132-3.949 0.194-6.307 0.194-34.561 0-65.966-13.511-89.222-35.539-21.921-23.193-35.435-54.648-35.435-89.258 0-2.429 0.067-4.843 0.198-7.24-0.066-1.103-0.096-2.791-0.096-4.485 0-25.308 6.574-49.081 18.108-69.704 4.274-6.367 9.276-12.546 14.827-18.183zM217.512 769.324c8.767 10.307 21.748 16.803 36.245 16.803 0.603 0 1.203-0.011 1.8-0.033 0.588 0.036 1.377 0.054 2.171 0.054 14.591 0 27.7-6.344 36.719-16.424 9.204-12.675 14.698-28.482 14.698-45.573 0-2.62-0.129-5.209-0.381-7.763 0.254-2.123 0.383-4.967 0.383-7.842 0-18.298-5.262-35.367-14.356-49.776-8.624-9.743-21.566-16.106-35.993-16.106-0.922 0-1.838 0.026-2.747 0.077-0.657-0.051-1.573-0.077-2.495-0.077-14.428 0-27.369 6.362-36.172 16.435-9.108 13.322-14.515 29.709-14.515 47.359 0 2.677 0.124 5.326 0.368 7.939-0.242 1.94-0.365 4.584-0.365 7.257 0 17.795 5.473 34.311 14.828 47.958zM402.008 841.004v-62.499h79.448v-157.308h78.036v157.308h79.625v62.499h-237.109zM684.844 621.021h190.676l1.589 2.825c10.314 13.294 18.128 29.084 22.415 46.271l-68.142 21.525c-2.406-14.068-8.278-26.465-16.702-36.679-8.721-7.693-20.405-12.472-33.204-12.472-14.321 0-27.245 5.983-36.409 15.586-8.302 13.782-13.202 30.394-13.202 48.151 0 3.319 0.171 6.598 0.505 9.829-0.197 1.632-0.29 4.005-0.29 6.4 0 15.746 4.018 30.554 11.086 43.454 8.763 12.514 23.589 20.911 40.375 20.911 7.698 0 14.984-1.766 21.475-4.915 6.197-3.218 11.583-7.869 15.684-13.513 3.387-5.2 5.996-11.086 7.593-17.377l68.943 14.952c-7.070 24.301-21.346 44.639-40.331 59.119-19.542 12.404-42.999 19.646-68.147 19.646-2.52 0-5.023-0.073-7.506-0.216-2.024 0.174-4.789 0.263-7.574 0.263-33.405 0-63.792-12.921-86.436-34.038-21.577-23.232-34.864-54.564-34.864-89.001 0-2.267 0.058-4.52 0.171-6.759-0.093-1.474-0.139-3.57-0.139-5.677 0-26.195 7.060-50.741 19.382-71.838 3.917-5.735 8.33-11.326 13.14-16.545z" />
<glyph unicode="&#x75;" glyph-name="drug" d="M830.464 646.72h-636.96c-106.72 0-193.504-86.816-193.504-193.504v-18.848c0-106.72 86.784-193.536 193.504-193.536h636.96c106.72 0 193.536 86.816 193.536 193.536v18.848c0 106.688-86.816 193.504-193.536 193.504zM959.488 434.368c0-71.168-57.888-129.024-129.024-129.024h-318.464v276.864h318.464c71.168 0 129.024-57.888 129.024-128.992v-18.848z" />
<glyph unicode="vv" glyph-name="drug" d="M830.464 646.72h-636.96c-106.72 0-193.504-86.816-193.504-193.504v-18.848c0-106.72 86.784-193.536 193.504-193.536h636.96c106.72 0 193.536 86.816 193.536 193.536v18.848c0 106.688-86.816 193.504-193.536 193.504zM959.488 434.368c0-71.168-57.888-129.024-129.024-129.024h-318.464v276.864h318.464c71.168 0 129.024-57.888 129.024-128.992v-18.848z" />
<glyph unicode="stop" glyph-name="stop" d="M974.912 549.696c24.128-24.128 24.128-63.552-0.032-87.712l-18.208-18.208c-156.224-156.224-211.712-495.968-521.696-495.968s-372 309.984-372 433.984v309.984c0 34.080 27.84 62.016 61.952 62.016s62.016-27.936 62.016-62.016v-186.016c0-17.12 13.888-31.008 31.008-31.008s31.008 13.888 31.008 31.008v310.016c0 34.080 27.776 62.016 61.888 62.016s62.016-27.936 62.016-62.016v-310.016c0-17.12 13.888-31.008 31.008-31.008s31.008 13.888 31.008 31.008v372c0 34.112 27.904 62.016 62.016 62.016s62.016-27.936 62.016-62.016v-372c0-17.12 13.92-31.008 31.008-31.008s31.008 13.888 31.008 31.008v310.016c0 34.112 27.904 62.016 62.016 62.016s62.016-27.936 62.016-62.016v-310.016c0-89.952 72.64-25.664 115.296 16.96l26.976 26.976c24.096 24.128 63.552 24.128 87.68 0v0z" />
<glyph unicode="hierarchy" glyph-name="RDF" d="M1030.016 484.608v-110.56h-229.408v110.56h87.584v121.984h-356.992v-414.080h87.616v-110.528h-229.44v110.528h87.616v414.080h-329.184v-121.984h87.584v-110.56h-229.376v110.56h87.584v176.224h383.392v122.016h-87.616v110.528h229.44v-110.528h-87.616v-122.016h411.2v-176.224z" />
<glyph unicode="drug" glyph-name="drug" d="M830.464 646.72h-636.96c-106.72 0-193.504-86.816-193.504-193.504v-18.848c0-106.72 86.784-193.536 193.504-193.536h636.96c106.72 0 193.536 86.816 193.536 193.536v18.848c0 106.688-86.816 193.504-193.536 193.504zM959.488 434.368c0-71.168-57.888-129.024-129.024-129.024h-318.464v276.864h318.464c71.168 0 129.024-57.888 129.024-128.992v-18.848z" />
<glyph unicode="database" glyph-name="SQLdata" d="M63.104 834.048c0 67.211 200.576 121.696 448 121.696s448-54.485 448-121.696c0-67.211-200.576-121.696-448-121.696s-448 54.485-448 121.696zM511.104 571.776c208.64 0 383.456 30.624 433.312 72 9.216-12.8 14.688-26.176 14.688-40 0-88.32-200.576-160-448-160s-448 71.68-448 160c0 13.824 5.44 27.2 14.688 40 49.824-41.376 224.64-72 433.312-72zM511.104 59.776c208.64 0 383.456 30.624 433.312 72 9.216-12.8 14.688-26.176 14.688-40 0-82.112-173.376-149.824-396.576-158.944-0.352 0-0.672-0.032-1.024-0.032-16.544-0.64-33.344-1.024-50.4-1.024s-33.856 0.384-50.4 1.024c-0.384 0-0.704 0.032-1.056 0.032-223.2 9.12-396.544 76.864-396.544 158.944 0 13.824 5.44 27.2 14.688 40 49.824-41.376 224.64-72 433.312-72zM511.104 179.776c-247.424 0-448 71.68-448 160 0 13.824 5.44 27.2 14.688 40 49.824-41.376 224.672-72 433.312-72s383.456 30.624 433.312 72c9.216-12.8 14.688-26.176 14.688-40 0-88.32-200.576-160-448-160z" />
<glyph unicode="cut" glyph-name="cut" d="M890.784 278.624c-45.664 45.6-103.712 69.088-157.952 69.088h-29.12l-63.904 64 255.616 256.032c63.872 64 63.872 192.032 0 256.032l-383.424-384.064-383.424 384.064c-63.872-64-63.872-192.032 0-256.032l255.616-256.032-63.904-64h-29.12c-54.176 0-112.288-23.52-157.952-69.088-81.632-81.44-92.672-202.464-24.672-270.336 30.016-29.92 70.336-44.512 113.056-44.512 54.208 0 112.288 23.52 157.984 69.088 53.6 53.472 76.704 124 67.072 185.344l65.344 65.472 65.376-65.472c-9.664-61.344 13.504-131.872 67.072-185.344 45.664-45.568 103.744-69.088 157.952-69.088 42.72 0 83.040 14.592 112.992 44.512 68.032 67.84 56.992 188.896-24.608 270.336zM353.024 142.24c-7.712-17.92-19.040-34.336-33.664-48.928-14.592-14.592-31.168-25.92-49.12-33.632-16.128-6.912-32.96-10.56-48.672-10.56-15.136 0-36.608 3.36-52.864 19.584-16.128 16.128-19.488 37.312-19.488 52.32 0 15.552 3.648 32.224 10.528 48.224 7.712 17.92 19.008 34.336 33.632 48.928s31.168 25.92 49.152 33.632c16.128 6.912 32.96 10.56 48.672 10.56 15.168 0 36.64-3.392 52.864-19.616 16.128-16.096 19.52-37.312 19.52-52.288-0.032-15.552-3.68-32.224-10.56-48.224zM512 321.184c-49.92 0-90.368 40.544-90.368 90.528s40.448 90.528 90.368 90.528 90.368-40.544 90.368-90.528-40.448-90.528-90.368-90.528zM855.264 68.736c-16.256-16.224-37.728-19.616-52.832-19.616-15.712 0-32.576 3.648-48.672 10.56-17.984 7.712-34.496 19.008-49.152 33.632-14.624 14.592-25.92 31.040-33.632 48.928-6.88 16-10.528 32.672-10.528 48.224 0 15.008 3.392 36.192 19.52 52.32 16.256 16.192 37.728 19.584 52.864 19.584 15.68 0 32.544-3.648 48.672-10.56 17.984-7.712 34.528-19.008 49.152-33.632 14.624-14.592 25.92-31.040 33.632-48.928 6.88-16 10.528-32.672 10.528-48.224-0.032-14.976-3.424-36.192-19.552-52.288z" />
<glyph unicode="biotech" glyph-name="biotech" d="M826.592 646.72h-205.248c-15.648 26.176-40 53.184-73.728 81.6-0.896 0.768-1.44 1.92-1.44 3.104s0.544 2.336 1.472 3.072c65.632 54.336 95.712 115.584 95.36 195.84-1.856-5.92-4.224-12.608-7.232-19.904-0.768-1.92-2.816-2.848-4.8-2.368-1.184 0.32-2.208 0.608-3.168 0.608h-84.864c-5.568 0-10.080-3.84-10.080-8.576 0-4.704 4.512-8.576 10.080-8.576h77.44c1.408 0 2.72-0.736 3.456-1.984 0.704-1.216 0.736-2.72 0.096-3.968-3.68-6.88-7.264-13.056-10.944-18.912-0.832-1.376-2.432-2.112-4.128-1.76-0.064 0-0.992 0.224-1.024 0.224-0.512 0.128-0.928 0.224-1.216 0.224h-63.648c-5.568 0-10.080-3.872-10.080-8.576 0-4.736 4.512-8.576 10.080-8.576h49.28c1.536 0 2.944-0.864 3.616-2.24s0.512-3.008-0.448-4.224c-5.92-7.712-12.32-15.36-19.072-22.72-0.736-0.832-1.856-1.312-2.976-1.312h-30.4c-5.568 0-10.080-3.84-10.080-8.576 0-4.704 4.544-8.576 10.080-8.576h5.024c1.696 0 3.2-1.024 3.776-2.592 0.608-1.536 0.16-3.328-1.056-4.416-12.544-11.36-24.992-21.472-38.080-30.88l-2.208-1.664c-1.408-1.024-3.328-0.992-4.736 0.032l-2.144 1.632c-13.056 9.344-25.472 19.456-38.080 30.88-1.248 1.12-1.664 2.88-1.056 4.416 0.608 1.568 2.080 2.592 3.776 2.592h5.024c5.568 0 10.080 3.84 10.080 8.576s-4.512 8.576-10.080 8.576h-30.4c-1.152 0-2.208 0.48-2.976 1.312-6.656 7.328-13.088 14.944-19.072 22.72-0.928 1.216-1.088 2.848-0.416 4.224s2.080 2.24 3.616 2.24h49.28c5.536 0 10.048 3.84 10.048 8.576 0 4.704-4.512 8.576-10.048 8.576h-63.648c-0.256 0-0.672-0.096-1.152-0.224-0.032 0-0.992-0.224-1.056-0.224-1.6-0.352-3.296 0.416-4.192 1.824-3.776 5.984-7.328 12.16-10.944 18.912-0.672 1.248-0.64 2.752 0.096 4 0.736 1.216 2.016 1.952 3.456 1.952h77.44c5.536 0 10.048 3.84 10.048 8.576s-4.512 8.576-10.048 8.576h-84.832c-0.928 0-1.888-0.256-3.136-0.608-1.952-0.576-4.032 0.448-4.832 2.336-3.040 7.328-5.408 14.016-7.264 19.968-0.352-80.288 29.792-141.536 95.392-195.872 0.928-0.736 1.44-1.888 1.472-3.072 0-1.216-0.544-2.336-1.44-3.104-36.48-30.72-59.488-57.6-73.824-81.6h-205.152c-106.688 0-193.504-86.816-193.504-193.504v-18.848c0-106.72 86.784-193.536 193.504-193.536h205.216c14.304-23.968 37.312-50.848 73.792-81.6 0.896-0.768 1.44-1.92 1.408-3.104 0-1.216-0.544-2.336-1.44-3.104-65.6-54.336-95.744-115.584-95.392-195.872 1.856 5.92 4.224 12.64 7.264 19.936 0.768 1.92 2.848 2.976 4.8 2.336 1.12-0.32 2.144-0.608 3.136-0.608h84.832c5.568 0 10.048 3.84 10.048 8.576s-4.512 8.608-10.048 8.608h-77.44c-1.408 0-2.72 0.704-3.456 1.952s-0.768 2.72-0.096 3.968c3.584 6.752 7.168 12.928 10.944 18.912 0.896 1.408 2.496 2.080 4.16 1.856 0.064-0.032 1.088-0.256 1.152-0.288 0.448-0.096 0.864-0.192 1.12-0.192h63.648c5.568 0 10.048 3.84 10.048 8.576s-4.512 8.576-10.048 8.576h-49.28c-1.536 0-2.944 0.864-3.616 2.272-0.672 1.344-0.512 3.008 0.416 4.224 5.952 7.744 12.384 15.36 19.072 22.752 0.768 0.8 1.856 1.312 2.976 1.312h30.4c5.568 0 10.080 3.84 10.080 8.576s-4.512 8.576-10.080 8.576h-5.024c-1.664 0-3.168 1.024-3.776 2.592-0.608 1.536-0.16 3.328 1.056 4.448 12.672 11.488 25.152 21.6 38.048 30.848l2.144 1.632c1.376 1.056 3.296 1.056 4.736 0.032l2.208-1.696c13.024-9.312 25.472-19.392 38.048-30.816 1.216-1.12 1.664-2.912 1.056-4.448-0.608-1.568-2.080-2.592-3.776-2.592h-5.024c-5.568 0-10.112-3.84-10.112-8.576s4.544-8.576 10.112-8.576h30.4c1.12 0 2.208-0.512 2.976-1.312 6.816-7.424 13.216-15.104 19.072-22.752 0.928-1.216 1.088-2.88 0.448-4.224-0.672-1.408-2.080-2.272-3.616-2.272h-49.28c-5.568 0-10.080-3.808-10.080-8.576 0-4.704 4.512-8.576 10.080-8.576h63.648c0.288 0 0.672 0.096 1.152 0.224 0.064 0 1.056 0.224 1.12 0.224 1.6 0.384 3.296-0.384 4.16-1.824 3.712-5.888 7.296-12.064 10.944-18.88 0.672-1.28 0.64-2.784-0.096-4s-2.048-1.952-3.456-1.952h-77.44c-5.568 0-10.080-3.84-10.080-8.608 0-4.704 4.512-8.576 10.080-8.576h84.864c0.928 0 1.984 0.288 3.168 0.64 1.984 0.512 4.032-0.512 4.8-2.368 3.008-7.296 5.376-14.016 7.232-19.904 0.352 80.256-29.76 141.536-95.36 195.84-0.928 0.736-1.472 1.888-1.472 3.104 0 1.184 0.544 2.304 1.44 3.104 33.664 28.384 58.080 55.36 73.792 81.6h205.184c106.72 0 193.536 86.816 193.536 193.536v18.848c-0.032 106.624-86.848 193.44-193.568 193.44zM473.248 663.616h-7.232c-1.696 0-3.2 1.056-3.776 2.656-0.576 1.568-0.096 3.36 1.184 4.448 11.808 9.984 26.048 20.96 42.368 32.608 1.376 0.992 3.264 0.992 4.672 0 16.352-11.648 30.592-22.624 42.4-32.608 1.248-1.088 1.728-2.88 1.152-4.448-0.608-1.6-2.080-2.656-3.776-2.656h-7.232c-5.568 0-10.080-3.84-10.080-8.576 0-4.288 3.808-7.68 8.64-8.32h-66.816c4.8 0.64 8.608 4.032 8.608 8.32-0.064 4.736-4.576 8.576-10.112 8.576zM543.008 223.936h7.2c1.696 0 3.2-1.056 3.776-2.656 0.576-1.568 0.096-3.328-1.152-4.448-11.84-10.016-26.080-20.96-42.4-32.608-1.408-0.992-3.296-0.992-4.672 0-16.288 11.584-30.528 22.56-42.368 32.608-1.28 1.088-1.76 2.88-1.184 4.448 0.576 1.6 2.080 2.656 3.776 2.656h7.232c5.568 0 10.048 3.84 10.048 8.608 0 4.288-3.776 7.68-8.608 8.32h66.848c-4.832-0.64-8.64-4.032-8.64-8.32 0.032-4.768 4.576-8.608 10.144-8.608zM955.616 434.368c0-71.168-57.888-129.024-129.024-129.024h-318.464v276.864h318.464c71.168 0 129.024-57.888 129.024-128.992v-18.848z" />
</font>
</defs>
</svg>
