<?xml version="1.0" encoding="UTF-8" standalone="no"?>
<svg width="1277px" height="300px" viewBox="0 0 1277 300" version="1.1" xmlns="http://www.w3.org/2000/svg" xmlns:xlink="http://www.w3.org/1999/xlink">
    <!-- Generator: Sketch 42 (36781) - http://www.bohemiancoding.com/sketch -->
    <title>Group Copy 20</title>
    <desc>Created with Sketch.</desc>
    <defs></defs>
    <g id="Page-1" stroke="none" stroke-width="1" fill="none" fill-rule="evenodd">
        <g id="Artboard" transform="translate(-395.000000, -1356.000000)">
            <g id="color_logo_text" transform="translate(439.000000, 1386.000000)">
                <path d="M422.724,96.448 C419.475984,82.2185955 413.444044,72.0880302 404.628,66.056 C395.811956,60.0239698 384.289404,57.008 370.06,57.008 C360.006616,57.008 351.34537,59.0186466 344.076,63.04 C336.80663,67.0613534 330.813357,72.4746326 326.096,79.28 C321.378643,86.0853674 317.898678,93.9346222 315.656,102.828 C313.413322,111.721378 312.292,121.117284 312.292,131.016 C312.292,140.296046 313.258657,149.421288 315.192,158.392 C317.125343,167.362712 320.334644,175.366631 324.82,182.404 C329.305356,189.441369 335.337295,195.125312 342.916,199.456 C350.494705,203.786688 360.006609,205.952 371.452,205.952 C378.566702,205.952 385.062637,204.792012 390.94,202.472 C396.817363,200.151988 401.959978,196.942687 406.368,192.844 C410.776022,188.745313 414.487985,183.912028 417.504,178.344 C420.520015,172.775972 422.801326,166.6667 424.348,160.016 L440.82,160.016 C438.963991,168.058707 436.257351,175.675964 432.7,182.868 C429.142649,190.060036 424.464029,196.36264 418.664,201.776 C412.863971,207.18936 405.826708,211.481317 397.552,214.652 C389.277292,217.822683 379.572056,219.408 368.436,219.408 C355.598602,219.408 344.617379,217.049357 335.492,212.332 C326.366621,207.614643 318.904029,201.234707 313.104,193.192 C307.303971,185.149293 303.089346,175.83072 300.46,165.236 C297.830654,154.64128 296.516,143.389393 296.516,131.48 C296.516,115.549254 298.48798,102.016056 302.432,90.88 C306.37602,79.7439443 311.827965,70.6573685 318.788,63.62 C325.748035,56.5826315 333.945286,51.4786825 343.38,48.308 C352.814714,45.1373175 363.099944,43.552 374.236,43.552 C382.742709,43.552 390.669297,44.6733221 398.016,46.916 C405.362703,49.1586779 411.858638,52.5226442 417.504,57.008 C423.149362,61.4933558 427.789315,67.0226338 431.424,73.596 C435.058685,80.1693662 437.571993,87.7866234 438.964,96.448 L422.724,96.448 Z M469.588,215 L469.588,47.96 L483.508,47.96 L483.508,111.528 C489.076028,105.650637 494.837304,100.856019 500.792,97.144 C506.746696,93.4319814 513.899958,91.576 522.252,91.576 C529.676037,91.576 536.558635,92.8519872 542.9,95.404 C549.241365,97.9560128 554.577312,102.402635 558.908,108.744 C561.846681,113.074688 563.586664,117.521311 564.128,122.084 C564.669336,126.646689 564.94,131.402642 564.94,136.352 L564.94,215 L551.02,215 L551.02,136.584 C551.02,125.757279 548.622691,117.63736 543.828,112.224 C539.033309,106.81064 531.068056,104.104 519.932,104.104 C515.601312,104.104 511.657351,104.761327 508.1,106.076 C504.542649,107.390673 501.333348,109.130656 498.472,111.296 C495.610652,113.461344 493.174677,115.935986 491.164,118.72 C489.153323,121.504014 487.606672,124.442651 486.524,127.536 C485.131993,131.402686 484.281335,135.114649 483.972,138.672 C483.662665,142.229351 483.508,146.095979 483.508,150.272 L483.508,215 L469.588,215 Z M600.668,215 L600.668,47.96 L711.796,47.96 L711.796,61.416 L616.444,61.416 L616.444,121.736 L702.516,121.736 L702.516,135.192 L616.444,135.192 L616.444,201.544 L714.116,201.544 L714.116,215 L600.668,215 Z M741.724,215 L741.724,47.96 L765.852,47.96 L820.604,195.28 L821.068,195.28 L874.892,47.96 L898.788,47.96 L898.788,215 L883.012,215 L883.012,66.056 L882.548,66.056 L827.796,215 L812.948,215 L757.964,66.056 L757.5,66.056 L757.5,215 L741.724,215 Z M951.452,201.544 L991.588,201.544 C1000.24938,201.544 1007.7893,201.157337 1014.208,200.384 C1020.6267,199.610663 1025.92398,198.025345 1030.1,195.628 C1034.27602,193.230655 1037.40799,189.828022 1039.496,185.42 C1041.58401,181.011978 1042.628,175.17337 1042.628,167.904 C1042.628,160.943965 1041.46801,155.337355 1039.148,151.084 C1036.82799,146.830645 1033.50269,143.544012 1029.172,141.224 C1024.84131,138.903988 1019.66003,137.318671 1013.628,136.468 C1007.59597,135.617329 1000.86804,135.192 993.444,135.192 L951.452,135.192 L951.452,201.544 Z M951.452,121.736 L991.356,121.736 C999.553374,121.736 1006.43597,121.040007 1012.004,119.648 C1017.57203,118.255993 1022.05732,116.20668 1025.46,113.5 C1028.86268,110.79332 1031.29866,107.46802 1032.768,103.524 C1034.23734,99.5799803 1034.972,95.0560255 1034.972,89.952 C1034.972,84.693307 1034.12134,80.2466848 1032.42,76.612 C1030.71866,72.9773152 1028.01202,70.0386779 1024.3,67.796 C1020.58798,65.5533221 1015.7547,63.9293384 1009.8,62.924 C1003.8453,61.9186616 996.537377,61.416 987.876,61.416 L951.452,61.416 L951.452,121.736 Z M935.676,215 L935.676,47.96 L995.996,47.96 C1005.74005,47.96 1014.09197,48.9653233 1021.052,50.976 C1028.01203,52.9866767 1033.69598,55.8479814 1038.104,59.56 C1042.51202,63.2720186 1045.72132,67.7186408 1047.732,72.9 C1049.74268,78.0813592 1050.748,83.7653024 1050.748,89.952 C1050.748,95.8293627 1049.97467,100.894645 1048.428,105.148 C1046.88133,109.401355 1044.87068,112.958652 1042.396,115.82 C1039.92132,118.681348 1037.09868,120.923992 1033.928,122.548 C1030.75732,124.172008 1027.47068,125.29333 1024.068,125.912 L1024.068,126.376 C1035.66806,128.077342 1044.29064,132.639963 1049.936,140.064 C1055.58136,147.488037 1058.404,156.767944 1058.404,167.904 C1058.404,176.565377 1057.05068,183.91197 1054.344,189.944 C1051.63732,195.97603 1047.88669,200.847981 1043.092,204.56 C1038.29731,208.272019 1032.53603,210.939992 1025.808,212.564 C1019.07997,214.188008 1011.77204,215 1003.884,215 L935.676,215 Z M1090.42,215 L1090.42,47.96 L1106.196,47.96 L1106.196,201.544 L1195.748,201.544 L1195.748,215 L1090.42,215 Z" id="ChEMBL" fill="#27A4A8"></path>
                <g id="color_logo" fill-rule="nonzero">
                    <path d="M143.009855,73.0463162 L163.719537,25.3433453 C164.840974,22.7602115 168.018154,20.4379679 170.814491,20.1566175 L229.053667,14.2969472 C231.102881,14.0907678 233.747927,15.2752128 234.963429,16.9450706 L269.368369,64.2106161 C270.913775,66.3336953 271.301713,69.9970214 270.232617,72.3979087 L246.576845,125.522057 C245.584437,127.750724 242.817869,129.756242 240.393657,130.001901 L187.053118,135.407191 L153.14897,181.850373 C151.157957,184.577737 146.945541,185.945443 143.734159,184.903243 L87.8546115,166.768487 C84.2907957,165.611912 81.4017522,161.628822 81.4017522,157.87461 L81.4017522,98.7721261 C81.4017522,95.5828782 83.859652,92.2015156 86.8893662,91.2203729 L143.009855,73.0463162 Z M177.04053,35.5727072 L156.981901,80.1562524 L185.970014,119.887 L234.030038,114.878549 L253.895894,69.4984836 L225.324462,30.4464374 L177.04053,35.5727072 Z M172.412992,128.865688 L143.970903,89.5566816 L97.2450519,104.265252 L97.1587677,153.00547 L143.513316,168.174695 L172.412992,128.865688 Z" id="Combined-Shape" fill="#D33C60"></path>
                    <path d="M160.146673,3.73031655 C150.239328,1.29275916 139.882975,0 129.225282,0 C57.8561292,0 0,57.9711934 0,129.482285 C0,200.993376 57.8561292,258.96457 129.225282,258.96457 C195.875349,258.96457 250.740333,208.406283 257.704516,143.477257 C253.557762,146.463428 248.797285,148.490259 244.142693,148.967298 L199.792678,153.512628 L169.714309,194.272008 C163.811806,202.270526 151.355203,206.312592 141.896645,203.301786 L82.3243878,184.339014 C72.505874,181.213629 64.5038124,170.313434 64.4512615,159.988431 L64.1344889,97.7504911 C64.0809978,87.2408284 72.1214213,76.0753341 82.0953657,72.8109776 L130.84762,56.854931 L147.996867,18.3333281 C150.493991,12.7241487 154.85004,7.66927709 160.14668,3.73031135 L160.146673,3.73031655 Z" id="Combined-Shape" fill="#27A4A8"></path>
                </g>
            </g>
        </g>
    </g>
</svg>