<?xml version="1.0" encoding="UTF-8" standalone="no"?>
<svg width="300px" height="300px" viewBox="0 0 300 300" version="1.1" xmlns="http://www.w3.org/2000/svg" xmlns:xlink="http://www.w3.org/1999/xlink">
    <!-- Generator: Sketch 42 (36781) - http://www.bohemiancoding.com/sketch -->
    <title>Group Copy 17</title>
    <desc>Created with Sketch.</desc>
    <defs></defs>
    <g id="Page-1" stroke="none" stroke-width="1" fill="none" fill-rule="evenodd">
        <g id="Artboard" transform="translate(-77.000000, -1354.000000)" fill-rule="nonzero">
            <g id="logo-black-copy-copy-3" transform="translate(93.000000, 1379.000000)">
                <path d="M143.009855,73.0463162 L163.719537,25.3433453 C164.840974,22.7602115 168.018154,20.4379679 170.814491,20.1566175 L229.053667,14.2969472 C231.102881,14.0907678 233.747927,15.2752128 234.963429,16.9450706 L269.368369,64.2106161 C270.913775,66.3336953 271.301713,69.9970214 270.232617,72.3979087 L246.576845,125.522057 C245.584437,127.750724 242.817869,129.756242 240.393657,130.001901 L187.053118,135.407191 L153.14897,181.850373 C151.157957,184.577737 146.945541,185.945443 143.734159,184.903243 L87.8546115,166.768487 C84.2907957,165.611912 81.4017522,161.628822 81.4017522,157.87461 L81.4017522,98.7721261 C81.4017522,95.5828782 83.859652,92.2015156 86.8893662,91.2203729 L143.009855,73.0463162 Z M177.04053,35.5727072 L156.981901,80.1562524 L185.970014,119.887 L234.030038,114.878549 L253.895894,69.4984836 L225.324462,30.4464374 L177.04053,35.5727072 Z M172.412992,128.865688 L143.970903,89.5566816 L97.2450519,104.265252 L97.1587677,153.00547 L143.513316,168.174695 L172.412992,128.865688 Z" id="Combined-Shape" fill="#D33C60"></path>
                <path d="M160.146673,3.73031655 C150.239328,1.29275916 139.882975,0 129.225282,0 C57.8561292,0 0,57.9711934 0,129.482285 C0,200.993376 57.8561292,258.96457 129.225282,258.96457 C195.875349,258.96457 250.740333,208.406283 257.704516,143.477257 C253.557762,146.463428 248.797285,148.490259 244.142693,148.967298 L199.792678,153.512628 L169.714309,194.272008 C163.811806,202.270526 151.355203,206.312592 141.896645,203.301786 L82.3243878,184.339014 C72.505874,181.213629 64.5038124,170.313434 64.4512615,159.988431 L64.1344889,97.7504911 C64.0809978,87.2408284 72.1214213,76.0753341 82.0953657,72.8109776 L130.84762,56.854931 L147.996867,18.3333281 C150.493991,12.7241487 154.85004,7.66927709 160.14668,3.73031135 L160.146673,3.73031655 Z" id="Combined-Shape" fill="#27A4A8"></path>
            </g>
        </g>
    </g>
</svg>