<?xml version="1.0" encoding="utf-8"?>
<!-- Generator: Adobe Illustrator 19.2.1, SVG Export Plug-In . SVG Version: 6.00 Build 0)  -->
<svg version="1.1" id="Layer_1" xmlns="http://www.w3.org/2000/svg" xmlns:xlink="http://www.w3.org/1999/xlink" x="0px" y="0px"
	 viewBox="0 0 755 755" style="enable-background:new 0 0 755 755;" xml:space="preserve">
<style type="text/css">
	.st0{fill:#FFFFFF;}
</style>
<g transform="translate(0.000000,755.000000) scale(0.100000,-0.100000)">
	<path class="st0" d="M3658,7495c-87-32-152-96-189-185c-23-57-19-195,9-255c27-59,80-117,141-153c60-35,183-43,262-17
		c75,25,169,119,194,194c24,73,17,199-14,260c-33,63-103,126-167,150C3830,7514,3716,7516,3658,7495z"/>
	<path class="st0" d="M2899,7067c-116-43-190-132-209-253c-23-142,44-274,173-341c46-24,64-27,147-28c84,0,101,3,146,27
		c28,15,71,49,96,76c134,149,92,401-83,497c-46,25-67,30-144,32C2967,7079,2922,7075,2899,7067z"/>
	<path class="st0" d="M4440,7071c-90-29-165-96-204-180c-30-65-30-197,1-263c47-103,156-177,274-186c136-10,248,52,309,172
		c30,60,35,77,35,144c0,126-60,229-167,287c-45,25-66,29-138,32C4503,7078,4454,7076,4440,7071z"/>
	<path class="st0" d="M2163,6646c-100-33-161-85-211-180c-35-68-37-186-5-258c30-66,104-141,166-169c72-33,201-34,269-2
		c60,28,127,94,158,158c36,74,35,198-1,276c-33,71-87,125-157,157C2316,6658,2223,6666,2163,6646z"/>
	<path class="st0" d="M3697,6650c-102-26-192-104-227-198c-18-46-21-72-18-137c5-96,35-162,98-219c68-61,121-81,220-81
		c73,0,93,4,142,28c70,34,140,110,162,174c25,73,21,187-8,250C4003,6602,3837,6685,3697,6650z"/>
	<path class="st0" d="M5206,6644c-108-34-191-120-222-229c-41-146,32-307,171-375c42-21,65-25,140-25s98,4,140,25
		c64,31,124,92,156,155c34,70,34,196,0,272c-27,62-103,136-166,164C5364,6658,5268,6664,5206,6644z"/>
	<path class="st0" d="M1407,6220c-190-48-297-267-217-447c27-61,102-137,163-164c77-35,192-34,268,2c189,89,248,328,121,494
		C1671,6198,1523,6249,1407,6220z"/>
	<path class="st0" d="M2909,6217c-84-32-148-88-191-170c-19-35-23-58-23-137c0-83,3-101,27-145c28-53,96-123,145-148
		c79-41,209-40,292,3c182,92,228,347,92,502c-61,69-130,101-226,105C2975,6229,2932,6225,2909,6217z"/>
	<path class="st0" d="M4433,6212c-198-71-280-282-181-464c106-193,368-225,518-62c62,67,84,124,84,214c0,88-28,161-89,228
		C4687,6215,4543,6251,4433,6212z"/>
	<path class="st0" d="M5948,6215c-88-32-162-105-199-195c-23-56-18-185,10-241c57-118,165-190,288-192c94-1,161,23,227,84
		c74,67,100,129,101,235c0,73-3,88-35,150c-39,76-103,133-179,159C6106,6233,5998,6233,5948,6215z"/>
	<path class="st0" d="M619,5787c-89-34-155-94-195-181c-36-76-34-181,5-261c93-197,351-252,510-109c74,67,106,138,106,239
		c0,65-5,90-26,135c-35,74-76,120-141,155c-44,24-67,30-138,32C686,5799,642,5795,619,5787z"/>
	<path class="st0" d="M2153,5786c-89-29-168-99-206-185c-30-66-30-188,0-253c30-66,96-133,162-165c48-24,68-28,141-28
		c72,1,93,5,137,28c69,36,120,88,152,156c36,78,37,202,1,276c-31,64-92,124-154,154C2324,5798,2213,5806,2153,5786z"/>
	<path class="st0" d="M3657,5785c-89-34-172-122-197-209c-18-66-9-181,18-238c28-56,91-122,143-149c82-41,207-41,295,1
		c58,29,138,117,158,176c53,155-15,327-159,402C3853,5800,3719,5809,3657,5785z"/>
	<path class="st0" d="M5172,5779c-65-25-140-97-172-164c-35-74-35-189,1-265c34-73,76-120,138-154c167-90,375-21,454,152
		c34,73,31,198-6,274c-31,62-84,116-149,149C5375,5804,5244,5808,5172,5779z"/>
	<path class="st0" d="M6690,5774c-68-31-123-84-158-149c-24-44-27-61-27-145c0-83,3-101,27-145c28-53,96-123,145-148
		c47-25,136-37,197-27c103,17,182,75,233,173c25,46,28,63,28,147s-3,101-27,146c-34,65-114,138-175,158
		C6860,5809,6756,5805,6690,5774z"/>
	<path class="st0" d="M1379,5356c-160-57-246-214-205-374c26-105,90-182,185-226c68-31,209-30,269,2c110,59,172,153,180,275
		c8,133-62,251-183,308c-50,24-73,29-135,29C1449,5369,1399,5363,1379,5356z"/>
	<path class="st0" d="M2915,5357c-134-45-214-146-223-283c-9-144,52-255,175-316c60-29,76-33,148-32c97,0,157,25,226,94
		c66,66,92,140,87,245c-7,129-72,227-183,276C3084,5368,2972,5376,2915,5357z"/>
	<path class="st0" d="M4432,5356c-140-46-231-183-220-331c10-117,80-220,187-272c47-24,69-28,136-28s89,4,136,28
		c67,32,132,99,162,165c32,71,30,189-4,262c-53,113-156,181-283,187C4503,5369,4458,5364,4432,5356z"/>
	<path class="st0" d="M5937,5351c-76-31-132-83-169-159c-29-59-33-76-33-147c0-131,59-226,177-285c53-26,72-30,142-30
		c68,0,90,4,141,28c68,33,127,93,158,161c30,66,30,198,1,262c-30,64-88,126-148,157C6136,5373,6008,5379,5937,5351z"/>
	<path class="st0" d="M622,4932c-141-51-231-190-220-337c14-163,133-281,297-293c141-10,253,53,313,175c29,60,33,77,33,148
		c0,67-5,89-28,136c-32,66-100,132-163,160C788,4951,687,4955,622,4932z"/>
	<path class="st0" d="M2160,4937c-91-26-173-97-213-186c-32-69-30-198,3-266c31-64,91-124,155-155c42-21,65-25,140-25
		c78,0,97,4,147,28c65,32,121,90,152,156c32,70,30,197-5,272c-33,71-87,125-157,157C2317,4947,2225,4955,2160,4937z"/>
	<path class="st0" d="M3680,4937c-278-79-312-476-52-604c50-24,69-28,147-28s97,4,141,27c65,34,138,114,158,175c9,27,16,79,16,123
		c0,66-4,86-30,138c-36,70-83,115-156,149C3841,4946,3742,4955,3680,4937z"/>
	<path class="st0" d="M6729,4935c-233-75-311-351-148-529c68-75,129-101,239-101c73,0,93,4,142,28c71,35,130,101,159,176
		c27,73,23,183-10,253C7045,4901,6869,4980,6729,4935z"/>
	<path class="st0" d="M5155,4911c-101-48-157-126-178-245c-26-154,71-309,222-352c117-35,243-2,329,84c65,65,87,120,87,222
		c0,73-4,93-28,142c-34,70-110,140-174,162c-26,9-79,16-122,16C5228,4940,5205,4935,5155,4911z"/>
	<path class="st0" d="M1395,4507c-93-31-158-86-203-172c-23-43-27-62-27-140c0-75,4-98,24-139c31-63,86-118,153-153
		c47-24,64-28,143-28s97,4,142,28c116,60,176,159,177,287c0,87-28,161-87,227C1644,4498,1494,4540,1395,4507z"/>
	<path class="st0" d="M2920,4507c-231-65-311-353-149-531c68-75,129-101,239-101c73,0,93,4,142,28c105,51,168,146,176,263
		c6,90-15,162-66,229C3189,4491,3038,4541,2920,4507z"/>
	<path class="st0" d="M4433,4502c-69-25-124-64-161-115c-118-165-59-398,123-488c71-34,208-35,277,0c63,31,121,88,155,153
		c24,47,28,64,28,143c0,78-4,97-27,140c-32,62-104,130-166,157C4597,4521,4499,4525,4433,4502z"/>
	<path class="st0" d="M5965,4507c-66-22-99-43-144-92c-64-70-86-124-86-220c0-66,5-90,26-136c115-244,458-253,579-15
		c31,62,35,77,35,150c0,96-29,169-90,231C6208,4502,6062,4539,5965,4507z"/>
	<path class="st0" d="M2149,4075c-104-33-194-123-220-218c-17-63-8-174,19-229c31-63,95-126,162-157c46-22,69-26,140-26
		c73,0,92,4,137,28c69,36,120,88,152,156c22,47,26,70,26,141c-1,77-4,91-34,148c-37,69-83,111-158,144
		C2312,4089,2211,4095,2149,4075z"/>
	<path class="st0" d="M3680,4077c-87-25-155-82-202-170c-20-36-23-57-23-142s3-106,23-143c35-66,88-119,150-149c49-24,69-28,142-28
		s93,4,142,28c67,33,121,90,155,164c22,47,25,65,21,136c-4,96-28,154-90,217C3921,4070,3786,4107,3680,4077z"/>
	<path class="st0" d="M5205,4077c-94-32-168-97-207-182c-31-69-31-190-1-257c30-66,104-141,166-169c73-33,191-33,262-1
		c69,31,138,102,170,175c24,53,27,69,23,141c-7,132-66,219-187,274C5366,4088,5264,4096,5205,4077z"/>
	<path class="st0" d="M582,4050c-69-35-125-92-156-159c-30-65-30-197,0-262c31-67,87-124,156-159c111-55,253-37,353,45
		c90,73,134,216,100,330c-43,150-155,234-311,235C654,4080,635,4076,582,4050z"/>
	<path class="st0" d="M6693,4059c-134-52-220-210-194-355c14-73,48-130,111-187c67-61,129-81,229-75c60,3,88,11,130,33
		c115,63,176,174,169,305c-8,130-62,215-170,270c-54,26-71,30-142,29C6770,4079,6729,4073,6693,4059z"/>
	<path class="st0" d="M1393,3646c-89-29-168-99-206-185c-32-69-29-178,5-252c35-76,88-133,156-166c80-39,192-40,272-2
		c242,115,255,449,23,576c-51,28-76,35-135,39C1462,3658,1420,3655,1393,3646z"/>
	<path class="st0" d="M2915,3647c-68-23-101-44-148-97c-142-157-91-413,101-507c80-39,191-40,273-2c116,55,180,150,187,278
		c10,186-115,326-302,337C2983,3658,2939,3655,2915,3647z"/>
	<path class="st0" d="M4455,3651c-92-24-173-90-215-176c-21-42-25-65-25-140c0-105,23-163,90-230c64-65,125-89,225-89
		c73-1,93,3,141,27c67,32,132,99,162,165c33,72,30,189-6,263c-32,67-100,132-165,161C4612,3655,4505,3664,4455,3651z"/>
	<path class="st0" d="M5952,3642c-62-22-114-62-159-121c-41-53-53-97-53-192c0-64,5-85,30-137c35-69,92-125,159-156
		c72-33,198-30,273,7c62,31,116,84,149,149c34,65,38,185,9,261c-26,70-95,143-164,176C6126,3661,6022,3667,5952,3642z"/>
	<path class="st0" d="M623,3212c-187-67-271-258-193-439c26-62,100-135,168-166c73-33,189-31,263,6c67,32,132,99,162,165
		c30,67,30,189,0,255c-35,75-77,121-143,156C801,3231,702,3240,623,3212z"/>
	<path class="st0" d="M2138,3215c-131-50-218-171-218-304c0-131,61-233,174-291c62-31,77-35,150-35c66,0,91,5,137,26
		c71,33,124,87,158,158c22,47,26,70,26,141c0,73-4,93-28,142c-31,62-84,116-149,149C2333,3230,2195,3237,2138,3215z"/>
	<path class="st0" d="M3675,3217c-86-29-153-85-192-161c-38-73-43-189-13-269c26-70,94-143,165-177c69-33,198-34,267-3
		c70,32,131,94,163,164c25,56,27,70,23,153c-3,77-8,99-30,136c-37,62-94,115-153,141C3844,3228,3732,3236,3675,3217z"/>
	<path class="st0" d="M5205,3216c-65-21-99-42-144-91c-64-70-85-124-85-220c0-131,58-226,176-285c52-26,72-30,138-30
		c44,0,96,7,123,16c61,20,141,93,175,158c23,44,27,63,27,142c0,81-3,97-30,149C5515,3192,5349,3262,5205,3216z"/>
	<path class="st0" d="M6759,3220c-60-10-136-50-176-92c-153-162-99-428,106-521c69-31,199-29,266,3c63,31,124,92,156,155
		c20,42,24,64,24,145c0,102-13,140-71,210C6997,3199,6874,3240,6759,3220z"/>
	<path class="st0" d="M1355,2771c-69-32-137-101-168-169c-29-65-30-188,0-253c31-68,90-128,158-161c51-24,73-28,141-28
		c70,0,89,4,142,30c66,33,118,85,154,152c19,36,23,58,23,138c0,112-20,163-91,235C1625,2803,1473,2827,1355,2771z"/>
	<path class="st0" d="M2903,2782c-263-94-290-464-43-590c83-42,155-51,235-27c157,45,243,168,233,334c-5,86-27,138-84,201
		C3166,2787,3016,2822,2903,2782z"/>
	<path class="st0" d="M4392,2770c-69-35-125-92-156-159s-29-196,3-269c31-68,113-145,182-167c70-24,198-17,256,13
		c97,50,165,148,179,258c14,114-47,244-144,305c-60,38-101,49-188,49C4465,2800,4443,2795,4392,2770z"/>
	<path class="st0" d="M5970,2791c-92-30-169-96-209-181c-35-73-37-191-4-262c28-62,91-128,150-158c42-22,61-25,148-25
		c85,0,107,4,143,23c66,35,119,88,149,150c24,49,28,69,28,142c-1,99-21,153-80,218c-55,62-131,95-224,98
		C6029,2798,5984,2796,5970,2791z"/>
	<path class="st0" d="M2156,2364c-300-96-313-508-20-620c61-23,193-16,252,15c65,33,118,87,149,149c37,76,40,201,6,274
		C2476,2329,2302,2411,2156,2364z"/>
	<path class="st0" d="M619,2356c-140-50-228-185-217-330c7-88,41-157,104-215c71-65,130-85,238-79c96,5,167,38,222,101
		c58,68,78,122,78,212c1,66-4,90-25,135c-36,78-80,124-151,160c-53,26-72,30-137,30C689,2369,639,2363,619,2356z"/>
	<path class="st0" d="M3650,2353c-29-11-66-38-106-77c-77-78-99-134-92-245c8-128,73-222,191-276c51-24,68-27,140-23
		c126,5,210,56,274,165c23,40,28,61,31,138c4,78,1,99-18,143c-29,67-118,151-186,175C3823,2374,3712,2374,3650,2353z"/>
	<path class="st0" d="M5185,2357c-57-23-92-46-128-86c-58-64-80-116-85-201c-6-105,22-175,97-251c67-66,124-89,223-89
		c132,0,233,62,290,177c29,59,33,77,32,144c-1,189-137,320-327,318C5247,2369,5202,2363,5185,2357z"/>
	<path class="st0" d="M6700,2353c-67-24-162-123-186-193c-41-122-12-249,77-339c60-59,120-85,211-89c112-6,167,15,244,92
		c75,76,99,140,92,250c-8,119-69,215-170,267C6911,2371,6767,2377,6700,2353z"/>
	<path class="st0" d="M1377,1926c-221-79-285-371-117-534c62-61,121-86,210-90c135-7,250,59,307,176c24,50,28,69,28,147
		s-4,97-27,141c-34,65-114,138-175,158C1546,1943,1429,1944,1377,1926z"/>
	<path class="st0" d="M2891,1923c-27-9-68-39-102-72c-76-75-103-145-97-251c7-121,70-216,178-271c62-31,179-38,248-15
		c65,22,145,93,180,160c24,45,27,62,27,146c0,79-4,103-23,142c-29,59-89,121-144,149C3101,1941,2957,1947,2891,1923z"/>
	<path class="st0" d="M4395,1912c-68-33-127-92-159-161c-30-66-30-197,1-263c32-70,107-141,179-168c85-32,198-26,273,15
		c232,127,226,456-11,574c-53,27-72,31-142,31C4468,1940,4446,1936,4395,1912z"/>
	<path class="st0" d="M5915,1912c-68-33-127-92-159-161c-30-66-29-197,3-262c32-68,81-120,142-154c50-28,62-30,154-30
		c85,0,106,3,143,23c66,35,119,88,149,150c37,75,40,201,7,273c-32,69-91,128-159,161c-50,23-73,28-140,28S5965,1935,5915,1912z"/>
	<path class="st0" d="M2155,1507c-96-32-162-90-204-177c-35-73-37-191-4-262c115-252,465-265,585-21c30,61,33,76,33,153
		c-1,72-5,93-28,137c-56,109-155,173-276,179C2223,1518,2178,1514,2155,1507z"/>
	<path class="st0" d="M3714,1510c-99-14-186-78-236-173c-20-36-23-57-23-142c0-89,3-105,27-151c35-67,115-138,180-160
		c69-23,187-16,246,15c62,32,124,92,152,148c31,62,39,181,17,247C4025,1447,3879,1534,3714,1510z"/>
	<path class="st0" d="M5173,1493c-58-20-138-95-170-157c-57-112-38-262,46-358c61-69,130-101,226-106c102-5,175,20,239,82
		c168,164,123,434-88,532c-41,19-67,24-131,23C5251,1509,5196,1502,5173,1493z"/>
	<path class="st0" d="M2903,1072c-140-50-221-175-211-326c8-125,70-221,176-273c49-24,69-28,142-27c103,0,161,24,231,94
		c66,66,92,140,87,245c-5,93-33,158-95,217C3152,1080,3010,1110,2903,1072z"/>
	<path class="st0" d="M4455,1081c-92-24-173-90-215-176c-32-66-35-185-6-260c26-66,103-147,169-176c71-32,191-33,259-2
		c66,30,133,96,165,162c38,79,39,191,2,272c-52,111-151,178-273,184C4517,1088,4472,1086,4455,1081z"/>
	<path class="st0" d="M3662,642c-66-24-118-65-159-126c-114-167-41-406,144-476c48-18,73-21,143-18c131,7,214,59,270,170
		c26,53,30,72,30,143s-4,90-30,143c-56,111-150,172-275,179C3734,660,3700,655,3662,642z"/>
</g>
</svg>
