<?xml version="1.0" standalone="no"?>
<!DOCTYPE svg PUBLIC "-//W3C//DTD SVG 20010904//EN"
 "http://www.w3.org/TR/2001/REC-SVG-20010904/DTD/svg10.dtd">
<svg version="1.0" xmlns="http://www.w3.org/2000/svg"
 width="755.000000pt" height="755.000000pt" viewBox="0 0 755.000000 755.000000"
 preserveAspectRatio="xMidYMid meet">
<metadata>
Created by potrace 1.11, written by Peter Selinger 2001-2013
</metadata>
<g transform="translate(0.000000,755.000000) scale(0.100000,-0.100000)"
fill="#000000" stroke="none">
<path d="M3658 7495 c-87 -32 -152 -96 -189 -185 -23 -57 -19 -195 9 -255 27
-59 80 -117 141 -153 60 -35 183 -43 262 -17 75 25 169 119 194 194 24 73 17
199 -14 260 -33 63 -103 126 -167 150 -64 25 -178 27 -236 6z"/>
<path d="M2899 7067 c-116 -43 -190 -132 -209 -253 -23 -142 44 -274 173 -341
46 -24 64 -27 147 -28 84 0 101 3 146 27 28 15 71 49 96 76 134 149 92 401
-83 497 -46 25 -67 30 -144 32 -58 2 -103 -2 -126 -10z"/>
<path d="M4440 7071 c-90 -29 -165 -96 -204 -180 -30 -65 -30 -197 1 -263 47
-103 156 -177 274 -186 136 -10 248 52 309 172 30 60 35 77 35 144 0 126 -60
229 -167 287 -45 25 -66 29 -138 32 -47 1 -96 -1 -110 -6z"/>
<path d="M2163 6646 c-100 -33 -161 -85 -211 -180 -35 -68 -37 -186 -5 -258
30 -66 104 -141 166 -169 72 -33 201 -34 269 -2 60 28 127 94 158 158 36 74
35 198 -1 276 -33 71 -87 125 -157 157 -66 30 -159 38 -219 18z"/>
<path d="M3697 6650 c-102 -26 -192 -104 -227 -198 -18 -46 -21 -72 -18 -137
5 -96 35 -162 98 -219 68 -61 121 -81 220 -81 73 0 93 4 142 28 70 34 140 110
162 174 25 73 21 187 -8 250 -63 135 -229 218 -369 183z"/>
<path d="M5206 6644 c-108 -34 -191 -120 -222 -229 -41 -146 32 -307 171 -375
42 -21 65 -25 140 -25 75 0 98 4 140 25 64 31 124 92 156 155 34 70 34 196 0
272 -27 62 -103 136 -166 164 -61 27 -157 33 -219 13z"/>
<path d="M1407 6220 c-190 -48 -297 -267 -217 -447 27 -61 102 -137 163 -164
77 -35 192 -34 268 2 189 89 248 328 121 494 -71 93 -219 144 -335 115z"/>
<path d="M2909 6217 c-84 -32 -148 -88 -191 -170 -19 -35 -23 -58 -23 -137 0
-83 3 -101 27 -145 28 -53 96 -123 145 -148 79 -41 209 -40 292 3 182 92 228
347 92 502 -61 69 -130 101 -226 105 -50 2 -93 -2 -116 -10z"/>
<path d="M4433 6212 c-198 -71 -280 -282 -181 -464 106 -193 368 -225 518 -62
62 67 84 124 84 214 0 88 -28 161 -89 228 -78 87 -222 123 -332 84z"/>
<path d="M5948 6215 c-88 -32 -162 -105 -199 -195 -23 -56 -18 -185 10 -241
57 -118 165 -190 288 -192 94 -1 161 23 227 84 74 67 100 129 101 235 0 73 -3
88 -35 150 -39 76 -103 133 -179 159 -55 18 -163 18 -213 0z"/>
<path d="M619 5787 c-89 -34 -155 -94 -195 -181 -36 -76 -34 -181 5 -261 93
-197 351 -252 510 -109 74 67 106 138 106 239 0 65 -5 90 -26 135 -35 74 -76
120 -141 155 -44 24 -67 30 -138 32 -54 2 -98 -2 -121 -10z"/>
<path d="M2153 5786 c-89 -29 -168 -99 -206 -185 -30 -66 -30 -188 0 -253 30
-66 96 -133 162 -165 48 -24 68 -28 141 -28 72 1 93 5 137 28 69 36 120 88
152 156 36 78 37 202 1 276 -31 64 -92 124 -154 154 -62 29 -173 37 -233 17z"/>
<path d="M3657 5785 c-89 -34 -172 -122 -197 -209 -18 -66 -9 -181 18 -238 28
-56 91 -122 143 -149 82 -41 207 -41 295 1 58 29 138 117 158 176 53 155 -15
327 -159 402 -62 32 -196 41 -258 17z"/>
<path d="M5172 5779 c-65 -25 -140 -97 -172 -164 -35 -74 -35 -189 1 -265 34
-73 76 -120 138 -154 167 -90 375 -21 454 152 34 73 31 198 -6 274 -31 62 -84
116 -149 149 -63 33 -194 37 -266 8z"/>
<path d="M6690 5774 c-68 -31 -123 -84 -158 -149 -24 -44 -27 -61 -27 -145 0
-83 3 -101 27 -145 28 -53 96 -123 145 -148 47 -25 136 -37 197 -27 103 17
182 75 233 173 25 46 28 63 28 147 0 84 -3 101 -27 146 -34 65 -114 138 -175
158 -73 25 -177 21 -243 -10z"/>
<path d="M1379 5356 c-160 -57 -246 -214 -205 -374 26 -105 90 -182 185 -226
68 -31 209 -30 269 2 110 59 172 153 180 275 8 133 -62 251 -183 308 -50 24
-73 29 -135 29 -41 -1 -91 -7 -111 -14z"/>
<path d="M2915 5357 c-134 -45 -214 -146 -223 -283 -9 -144 52 -255 175 -316
60 -29 76 -33 148 -32 97 0 157 25 226 94 66 66 92 140 87 245 -7 129 -72 227
-183 276 -61 27 -173 35 -230 16z"/>
<path d="M4432 5356 c-140 -46 -231 -183 -220 -331 10 -117 80 -220 187 -272
47 -24 69 -28 136 -28 67 0 89 4 136 28 67 32 132 99 162 165 32 71 30 189 -4
262 -53 113 -156 181 -283 187 -43 2 -88 -3 -114 -11z"/>
<path d="M5937 5351 c-76 -31 -132 -83 -169 -159 -29 -59 -33 -76 -33 -147 0
-131 59 -226 177 -285 53 -26 72 -30 142 -30 68 0 90 4 141 28 68 33 127 93
158 161 30 66 30 198 1 262 -30 64 -88 126 -148 157 -70 35 -198 41 -269 13z"/>
<path d="M622 4932 c-141 -51 -231 -190 -220 -337 14 -163 133 -281 297 -293
141 -10 253 53 313 175 29 60 33 77 33 148 0 67 -5 89 -28 136 -32 66 -100
132 -163 160 -66 30 -167 34 -232 11z"/>
<path d="M2160 4937 c-91 -26 -173 -97 -213 -186 -32 -69 -30 -198 3 -266 31
-64 91 -124 155 -155 42 -21 65 -25 140 -25 78 0 97 4 147 28 65 32 121 90
152 156 32 70 30 197 -5 272 -33 71 -87 125 -157 157 -65 29 -157 37 -222 19z"/>
<path d="M3680 4937 c-278 -79 -312 -476 -52 -604 50 -24 69 -28 147 -28 78 0
97 4 141 27 65 34 138 114 158 175 9 27 16 79 16 123 0 66 -4 86 -30 138 -36
70 -83 115 -156 149 -63 29 -162 38 -224 20z"/>
<path d="M6729 4935 c-233 -75 -311 -351 -148 -529 68 -75 129 -101 239 -101
73 0 93 4 142 28 71 35 130 101 159 176 27 73 23 183 -10 253 -66 139 -242
218 -382 173z"/>
<path d="M5155 4911 c-101 -48 -157 -126 -178 -245 -26 -154 71 -309 222 -352
117 -35 243 -2 329 84 65 65 87 120 87 222 0 73 -4 93 -28 142 -34 70 -110
140 -174 162 -26 9 -79 16 -122 16 -63 0 -86 -5 -136 -29z"/>
<path d="M1395 4507 c-93 -31 -158 -86 -203 -172 -23 -43 -27 -62 -27 -140 0
-75 4 -98 24 -139 31 -63 86 -118 153 -153 47 -24 64 -28 143 -28 79 0 97 4
142 28 116 60 176 159 177 287 0 87 -28 161 -87 227 -73 81 -223 123 -322 90z"/>
<path d="M2920 4507 c-231 -65 -311 -353 -149 -531 68 -75 129 -101 239 -101
73 0 93 4 142 28 105 51 168 146 176 263 6 90 -15 162 -66 229 -73 96 -224
146 -342 112z"/>
<path d="M4433 4502 c-69 -25 -124 -64 -161 -115 -118 -165 -59 -398 123 -488
71 -34 208 -35 277 0 63 31 121 88 155 153 24 47 28 64 28 143 0 78 -4 97 -27
140 -32 62 -104 130 -166 157 -65 29 -163 33 -229 10z"/>
<path d="M5965 4507 c-66 -22 -99 -43 -144 -92 -64 -70 -86 -124 -86 -220 0
-66 5 -90 26 -136 115 -244 458 -253 579 -15 31 62 35 77 35 150 0 96 -29 169
-90 231 -77 77 -223 114 -320 82z"/>
<path d="M2149 4075 c-104 -33 -194 -123 -220 -218 -17 -63 -8 -174 19 -229
31 -63 95 -126 162 -157 46 -22 69 -26 140 -26 73 0 92 4 137 28 69 36 120 88
152 156 22 47 26 70 26 141 -1 77 -4 91 -34 148 -37 69 -83 111 -158 144 -61
27 -162 33 -224 13z"/>
<path d="M3680 4077 c-87 -25 -155 -82 -202 -170 -20 -36 -23 -57 -23 -142 0
-85 3 -106 23 -143 35 -66 88 -119 150 -149 49 -24 69 -28 142 -28 73 0 93 4
142 28 67 33 121 90 155 164 22 47 25 65 21 136 -4 96 -28 154 -90 217 -77 80
-212 117 -318 87z"/>
<path d="M5205 4077 c-94 -32 -168 -97 -207 -182 -31 -69 -31 -190 -1 -257 30
-66 104 -141 166 -169 73 -33 191 -33 262 -1 69 31 138 102 170 175 24 53 27
69 23 141 -7 132 -66 219 -187 274 -65 30 -167 38 -226 19z"/>
<path d="M582 4050 c-69 -35 -125 -92 -156 -159 -30 -65 -30 -197 0 -262 31
-67 87 -124 156 -159 111 -55 253 -37 353 45 90 73 134 216 100 330 -43 150
-155 234 -311 235 -70 0 -89 -4 -142 -30z"/>
<path d="M6693 4059 c-134 -52 -220 -210 -194 -355 14 -73 48 -130 111 -187
67 -61 129 -81 229 -75 60 3 88 11 130 33 115 63 176 174 169 305 -8 130 -62
215 -170 270 -54 26 -71 30 -142 29 -56 0 -97 -6 -133 -20z"/>
<path d="M1393 3646 c-89 -29 -168 -99 -206 -185 -32 -69 -29 -178 5 -252 35
-76 88 -133 156 -166 80 -39 192 -40 272 -2 242 115 255 449 23 576 -51 28
-76 35 -135 39 -46 2 -88 -1 -115 -10z"/>
<path d="M2915 3647 c-68 -23 -101 -44 -148 -97 -142 -157 -91 -413 101 -507
80 -39 191 -40 273 -2 116 55 180 150 187 278 10 186 -115 326 -302 337 -43 2
-87 -1 -111 -9z"/>
<path d="M4455 3651 c-92 -24 -173 -90 -215 -176 -21 -42 -25 -65 -25 -140 0
-105 23 -163 90 -230 64 -65 125 -89 225 -89 73 -1 93 3 141 27 67 32 132 99
162 165 33 72 30 189 -6 263 -32 67 -100 132 -165 161 -50 23 -157 32 -207 19z"/>
<path d="M5952 3642 c-62 -22 -114 -62 -159 -121 -41 -53 -53 -97 -53 -192 0
-64 5 -85 30 -137 35 -69 92 -125 159 -156 72 -33 198 -30 273 7 62 31 116 84
149 149 34 65 38 185 9 261 -26 70 -95 143 -164 176 -70 32 -174 38 -244 13z"/>
<path d="M623 3212 c-187 -67 -271 -258 -193 -439 26 -62 100 -135 168 -166
73 -33 189 -31 263 6 67 32 132 99 162 165 30 67 30 189 0 255 -35 75 -77 121
-143 156 -79 42 -178 51 -257 23z"/>
<path d="M2138 3215 c-131 -50 -218 -171 -218 -304 0 -131 61 -233 174 -291
62 -31 77 -35 150 -35 66 0 91 5 137 26 71 33 124 87 158 158 22 47 26 70 26
141 0 73 -4 93 -28 142 -31 62 -84 116 -149 149 -55 29 -193 36 -250 14z"/>
<path d="M3675 3217 c-86 -29 -153 -85 -192 -161 -38 -73 -43 -189 -13 -269
26 -70 94 -143 165 -177 69 -33 198 -34 267 -3 70 32 131 94 163 164 25 56 27
70 23 153 -3 77 -8 99 -30 136 -37 62 -94 115 -153 141 -61 27 -173 35 -230
16z"/>
<path d="M5205 3216 c-65 -21 -99 -42 -144 -91 -64 -70 -85 -124 -85 -220 0
-131 58 -226 176 -285 52 -26 72 -30 138 -30 44 0 96 7 123 16 61 20 141 93
175 158 23 44 27 63 27 142 0 81 -3 97 -30 149 -70 137 -236 207 -380 161z"/>
<path d="M6759 3220 c-60 -10 -136 -50 -176 -92 -153 -162 -99 -428 106 -521
69 -31 199 -29 266 3 63 31 124 92 156 155 20 42 24 64 24 145 0 102 -13 140
-71 210 -67 79 -190 120 -305 100z"/>
<path d="M1355 2771 c-69 -32 -137 -101 -168 -169 -29 -65 -30 -188 0 -253 31
-68 90 -128 158 -161 51 -24 73 -28 141 -28 70 0 89 4 142 30 66 33 118 85
154 152 19 36 23 58 23 138 0 112 -20 163 -91 235 -89 88 -241 112 -359 56z"/>
<path d="M2903 2782 c-263 -94 -290 -464 -43 -590 83 -42 155 -51 235 -27 157
45 243 168 233 334 -5 86 -27 138 -84 201 -78 87 -228 122 -341 82z"/>
<path d="M4392 2770 c-69 -35 -125 -92 -156 -159 -31 -67 -29 -196 3 -269 31
-68 113 -145 182 -167 70 -24 198 -17 256 13 97 50 165 148 179 258 14 114
-47 244 -144 305 -60 38 -101 49 -188 49 -59 0 -81 -5 -132 -30z"/>
<path d="M5970 2791 c-92 -30 -169 -96 -209 -181 -35 -73 -37 -191 -4 -262 28
-62 91 -128 150 -158 42 -22 61 -25 148 -25 85 0 107 4 143 23 66 35 119 88
149 150 24 49 28 69 28 142 -1 99 -21 153 -80 218 -55 62 -131 95 -224 98 -42
2 -87 0 -101 -5z"/>
<path d="M2156 2364 c-300 -96 -313 -508 -20 -620 61 -23 193 -16 252 15 65
33 118 87 149 149 37 76 40 201 6 274 -67 147 -241 229 -387 182z"/>
<path d="M619 2356 c-140 -50 -228 -185 -217 -330 7 -88 41 -157 104 -215 71
-65 130 -85 238 -79 96 5 167 38 222 101 58 68 78 122 78 212 1 66 -4 90 -25
135 -36 78 -80 124 -151 160 -53 26 -72 30 -137 30 -42 -1 -92 -7 -112 -14z"/>
<path d="M3650 2353 c-29 -11 -66 -38 -106 -77 -77 -78 -99 -134 -92 -245 8
-128 73 -222 191 -276 51 -24 68 -27 140 -23 126 5 210 56 274 165 23 40 28
61 31 138 4 78 1 99 -18 143 -29 67 -118 151 -186 175 -61 21 -172 21 -234 0z"/>
<path d="M5185 2357 c-57 -23 -92 -46 -128 -86 -58 -64 -80 -116 -85 -201 -6
-105 22 -175 97 -251 67 -66 124 -89 223 -89 132 0 233 62 290 177 29 59 33
77 32 144 -1 189 -137 320 -327 318 -40 0 -85 -6 -102 -12z"/>
<path d="M6700 2353 c-67 -24 -162 -123 -186 -193 -41 -122 -12 -249 77 -339
60 -59 120 -85 211 -89 112 -6 167 15 244 92 75 76 99 140 92 250 -8 119 -69
215 -170 267 -57 30 -201 36 -268 12z"/>
<path d="M1377 1926 c-221 -79 -285 -371 -117 -534 62 -61 121 -86 210 -90
135 -7 250 59 307 176 24 50 28 69 28 147 0 78 -4 97 -27 141 -34 65 -114 138
-175 158 -57 19 -174 20 -226 2z"/>
<path d="M2891 1923 c-27 -9 -68 -39 -102 -72 -76 -75 -103 -145 -97 -251 7
-121 70 -216 178 -271 62 -31 179 -38 248 -15 65 22 145 93 180 160 24 45 27
62 27 146 0 79 -4 103 -23 142 -29 59 -89 121 -144 149 -57 30 -201 36 -267
12z"/>
<path d="M4395 1912 c-68 -33 -127 -92 -159 -161 -30 -66 -30 -197 1 -263 32
-70 107 -141 179 -168 85 -32 198 -26 273 15 232 127 226 456 -11 574 -53 27
-72 31 -142 31 -68 0 -90 -4 -141 -28z"/>
<path d="M5915 1912 c-68 -33 -127 -92 -159 -161 -30 -66 -29 -197 3 -262 32
-68 81 -120 142 -154 50 -28 62 -30 154 -30 85 0 106 3 143 23 66 35 119 88
149 150 37 75 40 201 7 273 -32 69 -91 128 -159 161 -50 23 -73 28 -140 28
-67 0 -90 -5 -140 -28z"/>
<path d="M2155 1507 c-96 -32 -162 -90 -204 -177 -35 -73 -37 -191 -4 -262
115 -252 465 -265 585 -21 30 61 33 76 33 153 -1 72 -5 93 -28 137 -56 109
-155 173 -276 179 -38 2 -83 -2 -106 -9z"/>
<path d="M3714 1510 c-99 -14 -186 -78 -236 -173 -20 -36 -23 -57 -23 -142 0
-89 3 -105 27 -151 35 -67 115 -138 180 -160 69 -23 187 -16 246 15 62 32 124
92 152 148 31 62 39 181 17 247 -52 153 -198 240 -363 216z"/>
<path d="M5173 1493 c-58 -20 -138 -95 -170 -157 -57 -112 -38 -262 46 -358
61 -69 130 -101 226 -106 102 -5 175 20 239 82 168 164 123 434 -88 532 -41
19 -67 24 -131 23 -44 0 -99 -7 -122 -16z"/>
<path d="M2903 1072 c-140 -50 -221 -175 -211 -326 8 -125 70 -221 176 -273
49 -24 69 -28 142 -27 103 0 161 24 231 94 66 66 92 140 87 245 -5 93 -33 158
-95 217 -81 78 -223 108 -330 70z"/>
<path d="M4455 1081 c-92 -24 -173 -90 -215 -176 -32 -66 -35 -185 -6 -260 26
-66 103 -147 169 -176 71 -32 191 -33 259 -2 66 30 133 96 165 162 38 79 39
191 2 272 -52 111 -151 178 -273 184 -39 3 -84 1 -101 -4z"/>
<path d="M3662 642 c-66 -24 -118 -65 -159 -126 -114 -167 -41 -406 144 -476
48 -18 73 -21 143 -18 131 7 214 59 270 170 26 53 30 72 30 143 0 71 -4 90
-30 143 -56 111 -150 172 -275 179 -51 3 -85 -2 -123 -15z"/>
</g>
</svg>
