<?xml version="1.0" standalone="yes"?>

<svg version="1.1" viewBox="0.0 0.0 113.38582677165354 113.38582677165354" fill="none" stroke="none" stroke-linecap="square" stroke-miterlimit="10" xmlns="http://www.w3.org/2000/svg" xmlns:xlink="http://www.w3.org/1999/xlink"><clipPath id="p.0"><path d="m0 0l113.385826 0l0 113.385826l-113.385826 0l0 -113.385826z" clip-rule="nonzero"></path></clipPath><g clip-path="url(#p.0)"><path fill="#000000" fill-opacity="0.0" d="m0 0l113.385826 0l0 113.385826l-113.385826 0z" fill-rule="nonzero"></path><path fill="#000000" fill-opacity="0.0" d="m-8.005249 -47.658794l88.06299 0l0 126.58267l-88.06299 0z" fill-rule="nonzero"></path><path fill="#ffffff" d="m4.1822505 28.610579q0 -13.828125 7.6875005 -20.484375q6.421875 -5.53125 15.65625 -5.53125q10.265625 0 16.78125 6.734375q6.515625 6.71875 6.515625 18.578125q0 9.609373 -2.890625 15.124998q-2.875 5.5 -8.390625 8.546875q-5.5 3.046875 -12.015625 3.046875q-10.453125 0 -16.90625 -6.703125q-6.4375005 -6.703125 -6.4375005 -19.312498zm8.671875 0q0 9.562498 4.171875 14.328123q4.171875 4.75 10.5 4.75q6.28125 0 10.453125 -4.78125q4.171875 -4.78125 4.171875 -14.578123q0 -9.234375 -4.203125 -13.984375q-4.1875 -4.765625 -10.421875 -4.765625q-6.328125 0 -10.5 4.734375q-4.171875 4.734375 -4.171875 14.296875z" fill-rule="nonzero"></path><path fill="#000000" fill-opacity="0.0" d="m31.31496 4.6850395l41.007877 0l0 126.58267l-41.007877 0z" fill-rule="nonzero"></path><path fill="#ffffff" d="m65.064964 98.29816l1.21875 7.453125q-3.5625038 0.75 -6.375004 0.75q-4.59375 0 -7.125 -1.453125q-2.53125 -1.453125 -3.5625 -3.8125q-1.03125 -2.375 -1.03125 -9.96875l0 -28.640621l-6.1875 0l0 -6.5625l6.1875 0l0 -12.328125l8.390625 -5.0625l0 17.390625l8.484379 0l0 6.5625l-8.484379 0l0 29.109371q0 3.609375 0.4375 4.640625q0.453125 1.03125 1.453125 1.640625q1.015625 0.609375 2.890625 0.609375q1.40625 0 3.7031288 -0.328125z" fill-rule="nonzero"></path><path fill="#000000" fill-opacity="0.0" d="m54.745407 8.514436l88.06299 0l0 126.58267l-88.06299 0z" fill-rule="nonzero"></path><path fill="#ffffff" d="m102.55791 91.440056l8.296875 1.078125q-1.359375 8.578125 -6.96875 13.4375q-5.59375 4.84375 -13.75 4.84375q-10.21875 0 -16.4375 -6.671875q-6.203125 -6.6875 -6.203125 -19.15625q0 -8.0625 2.671875 -14.109375q2.671875 -6.046875 8.125 -9.0625q5.46875 -3.03125 11.890625 -3.03125q8.109375 0 13.265625 4.109375q5.15625 4.09375 6.609375 11.640625l-8.203125 1.265625q-1.171875 -5.015625 -4.15625 -7.546875q-2.96875 -2.53125 -7.1875 -2.53125q-6.375 0 -10.359375 4.578125q-3.984375 4.5625 -3.984375 14.453125q0 10.03125 3.84375 14.578125q3.84375 4.546875 10.03125 4.546875q4.96875 0 8.296875 -3.046875q3.328125 -3.046875 4.21875 -9.375z" fill-rule="nonzero"></path></g></svg>

