<?xml version="1.0" standalone="yes"?>

<svg version="1.1" viewBox="0.0 0.0 113.38582677165354 113.38582677165354" fill="none" stroke="none" stroke-linecap="square" stroke-miterlimit="10" xmlns="http://www.w3.org/2000/svg" xmlns:xlink="http://www.w3.org/1999/xlink"><clipPath id="p.0"><path d="m0 0l113.385826 0l0 113.385826l-113.385826 0l0 -113.385826z" clip-rule="nonzero"></path></clipPath><g clip-path="url(#p.0)"><path fill="#000000" fill-opacity="0.0" d="m0 0l113.385826 0l0 113.385826l-113.385826 0z" fill-rule="nonzero"></path><path fill="#999999" d="m7.446194 31.115486l73.55905 0l0 75.22835l-73.55905 0z" fill-rule="nonzero"></path><path fill="#7a7a7a" d="m81.00525 31.115486l24.519684 -24.519686l0 75.22835l-24.519684 24.519684z" fill-rule="nonzero"></path><path fill="#adadad" d="m7.446194 31.115486l24.519686 -24.519686l73.55905 0l-24.519684 24.519686z" fill-rule="nonzero"></path><path fill="#000000" fill-opacity="0.0" d="m7.446194 31.115486l24.519686 -24.519686l73.55905 0l0 75.22835l-24.519684 24.519684l-73.55905 0zm0 0l73.55905 0l24.519684 -24.519686m-24.519684 24.519686l0 75.22835" fill-rule="nonzero"></path><path stroke="#000000" stroke-width="1.0" stroke-linejoin="round" stroke-linecap="butt" d="m7.446194 31.115486l24.519686 -24.519686l73.55905 0l0 75.22835l-24.519684 24.519684l-73.55905 0zm0 0l73.55905 0l24.519684 -24.519686m-24.519684 24.519686l0 75.22835" fill-rule="nonzero"></path></g></svg>

