<?xml version="1.0" standalone="yes"?>

<svg version="1.1" viewBox="0.0 0.0 113.38582677165354 113.38582677165354" fill="none" stroke="none" stroke-linecap="square" stroke-miterlimit="10" xmlns="http://www.w3.org/2000/svg" xmlns:xlink="http://www.w3.org/1999/xlink"><clipPath id="p.0"><path d="m0 0l113.385826 0l0 113.385826l-113.385826 0l0 -113.385826z" clip-rule="nonzero"></path></clipPath><g clip-path="url(#p.0)"><path fill="#000000" fill-opacity="0.0" d="m0 0l113.385826 0l0 113.385826l-113.385826 0z" fill-rule="nonzero"></path><path fill="#ffffff" d="m5.9580054 56.692913l0 0c0 -29.492874 23.429256 -53.401573 52.33071 -53.401573l0 0c13.878963 0 27.189487 5.6262207 37.0034 15.64096c9.813911 10.014736 15.327309 23.597635 15.327309 37.760612l0 0c0 29.492878 -23.42926 53.401577 -52.330708 53.401577l0 0c-28.901453 0 -52.33071 -23.908699 -52.33071 -53.401577z" fill-rule="nonzero"></path><path stroke="#000000" stroke-width="1.0" stroke-linejoin="round" stroke-linecap="butt" d="m5.9580054 56.692913l0 0c0 -29.492874 23.429256 -53.401573 52.33071 -53.401573l0 0c13.878963 0 27.189487 5.6262207 37.0034 15.64096c9.813911 10.014736 15.327309 23.597635 15.327309 37.760612l0 0c0 29.492878 -23.42926 53.401577 -52.330708 53.401577l0 0c-28.901453 0 -52.33071 -23.908699 -52.33071 -53.401577z" fill-rule="nonzero"></path><path fill="#cccccc" d="m27.5958 56.692913l0 0c0 -16.803371 13.741686 -30.425196 30.692915 -30.425196l0 0c8.140263 0 15.9471245 3.2055016 21.703167 8.911333c5.756035 5.7058296 8.989746 13.444599 8.989746 21.513863l0 0c0 16.803371 -13.741684 30.425198 -30.692913 30.425198l0 0c-16.95123 0 -30.692915 -13.621826 -30.692915 -30.425198zm15.212599 0l0 0c0 8.401684 6.9307747 15.212597 15.480316 15.212597c8.549541 0 15.480312 -6.810913 15.480312 -15.212597c0 -8.401688 -6.930771 -15.212597 -15.480312 -15.212597l0 0c-8.549541 0 -15.480316 6.8109093 -15.480316 15.212597z" fill-rule="nonzero"></path><path stroke="#000000" stroke-width="1.0" stroke-linejoin="round" stroke-linecap="butt" d="m27.5958 56.692913l0 0c0 -16.803371 13.741686 -30.425196 30.692915 -30.425196l0 0c8.140263 0 15.9471245 3.2055016 21.703167 8.911333c5.756035 5.7058296 8.989746 13.444599 8.989746 21.513863l0 0c0 16.803371 -13.741684 30.425198 -30.692913 30.425198l0 0c-16.95123 0 -30.692915 -13.621826 -30.692915 -30.425198zm15.212599 0l0 0c0 8.401684 6.9307747 15.212597 15.480316 15.212597c8.549541 0 15.480312 -6.810913 15.480312 -15.212597c0 -8.401688 -6.930771 -15.212597 -15.480312 -15.212597l0 0c-8.549541 0 -15.480316 6.8109093 -15.480316 15.212597z" fill-rule="nonzero"></path></g></svg>

