<svg id="svg" version="1.1" width="500" height="500" xmlns="http://www.w3.org/2000/svg" xmlns:xlink="http://www.w3.org/1999/xlink" style="display: block;"><g id="svgg"><path id="path0" d="M166.121 69.974 C 165.556 71.445,167.056 72.464,168.160 71.360 C 169.014 70.506,168.400 68.800,167.238 68.800 C 166.871 68.800,166.368 69.328,166.121 69.974 M167.200 75.200 C 167.200 76.131,166.667 76.800,165.925 76.800 C 165.224 76.800,164.462 77.520,164.232 78.400 C 164.002 79.280,163.282 80.000,162.632 80.000 C 161.982 80.000,161.262 80.720,161.032 81.600 C 160.802 82.480,160.115 83.200,159.507 83.200 C 158.898 83.200,158.400 83.920,158.400 84.800 C 158.400 85.867,157.867 86.400,156.800 86.400 C 155.733 86.400,155.200 86.933,155.200 88.000 C 155.200 89.067,154.667 89.600,153.600 89.600 C 152.720 89.600,152.000 90.098,152.000 90.707 C 152.000 91.315,151.280 92.002,150.400 92.232 C 149.520 92.462,148.800 93.182,148.800 93.832 C 148.800 94.482,148.080 95.202,147.200 95.432 C 146.320 95.662,145.600 96.424,145.600 97.125 C 145.600 97.826,145.026 98.400,144.325 98.400 C 143.624 98.400,142.871 99.087,142.651 99.926 C 142.432 100.765,141.565 101.632,140.726 101.851 C 139.887 102.071,139.200 102.782,139.200 103.432 C 139.200 104.082,138.480 104.802,137.600 105.032 C 136.720 105.262,136.000 106.024,136.000 106.725 C 136.000 107.426,135.460 108.000,134.800 108.000 C 134.140 108.000,133.600 108.527,133.600 109.172 C 133.600 109.816,132.880 110.729,132.000 111.200 C 131.120 111.671,130.400 112.584,130.400 113.228 C 130.400 113.873,129.849 114.400,129.175 114.400 C 128.501 114.400,127.736 114.956,127.475 115.636 C 126.860 117.240,120.440 123.660,118.836 124.275 C 117.080 124.949,117.302 126.323,119.145 126.184 C 119.994 126.120,120.624 125.701,120.545 125.253 C 120.465 124.805,121.210 124.314,122.200 124.163 C 123.350 123.988,124.000 123.331,124.000 122.344 C 124.000 121.495,124.516 120.800,125.146 120.800 C 125.776 120.800,126.521 120.080,126.800 119.200 C 127.079 118.320,128.004 117.600,128.854 117.600 C 129.867 117.600,130.400 117.048,130.400 116.000 C 130.400 114.933,130.933 114.400,132.000 114.400 C 132.880 114.400,133.557 114.130,133.505 113.800 C 133.248 112.170,133.711 111.200,134.746 111.200 C 135.376 111.200,136.121 110.480,136.400 109.600 C 136.679 108.720,137.382 108.000,137.961 108.000 C 138.540 108.000,139.202 107.280,139.432 106.400 C 139.662 105.520,140.382 104.800,141.032 104.800 C 141.682 104.800,142.402 104.080,142.632 103.200 C 142.862 102.320,143.624 101.600,144.325 101.600 C 145.026 101.600,145.600 101.102,145.600 100.493 C 145.600 99.885,146.320 99.198,147.200 98.968 C 148.080 98.738,148.800 97.976,148.800 97.275 C 148.800 96.533,149.469 96.000,150.400 96.000 C 151.467 96.000,152.000 95.467,152.000 94.400 C 152.000 93.333,152.533 92.800,153.600 92.800 C 154.667 92.800,155.200 92.267,155.200 91.200 C 155.200 90.133,155.733 89.600,156.800 89.600 C 157.867 89.600,158.400 89.067,158.400 88.000 C 158.400 86.933,158.933 86.400,160.000 86.400 C 161.067 86.400,161.600 85.867,161.600 84.800 C 161.600 83.911,162.133 83.200,162.800 83.200 C 163.460 83.200,164.000 82.626,164.000 81.925 C 164.000 81.224,164.686 80.471,165.525 80.251 C 166.488 80.000,167.234 78.869,167.551 77.180 C 167.843 75.621,168.625 74.357,169.426 74.146 C 170.428 73.883,170.313 73.760,169.000 73.693 C 167.702 73.626,167.200 74.047,167.200 75.200 M292.000 75.200 C 292.000 76.131,292.533 76.800,293.275 76.800 C 293.976 76.800,294.738 77.520,294.968 78.400 C 295.200 79.286,296.059 80.000,296.893 80.000 C 297.867 80.000,298.400 80.566,298.400 81.600 C 298.400 82.667,298.933 83.200,300.000 83.200 C 301.067 83.200,301.600 83.733,301.600 84.800 C 301.600 85.731,302.133 86.400,302.875 86.400 C 303.576 86.400,304.338 87.120,304.568 88.000 C 304.798 88.880,305.460 89.600,306.039 89.600 C 306.618 89.600,307.321 90.320,307.600 91.200 C 307.879 92.080,308.582 92.800,309.161 92.800 C 309.740 92.800,310.402 93.520,310.632 94.400 C 310.862 95.280,311.582 96.000,312.232 96.000 C 312.882 96.000,313.602 96.720,313.832 97.600 C 314.062 98.480,314.824 99.200,315.525 99.200 C 316.226 99.200,316.800 99.698,316.800 100.307 C 316.800 100.915,317.520 101.602,318.400 101.832 C 319.280 102.062,320.000 102.782,320.000 103.432 C 320.000 104.082,320.720 104.802,321.600 105.032 C 322.480 105.262,323.200 105.982,323.200 106.632 C 323.200 107.282,323.920 108.002,324.800 108.232 C 325.680 108.462,326.400 109.224,326.400 109.925 C 326.400 110.626,326.910 111.200,327.533 111.200 C 328.157 111.200,328.848 111.650,329.070 112.200 C 329.292 112.750,329.502 112.176,329.537 110.925 C 329.581 109.327,329.146 108.531,328.074 108.251 C 327.235 108.032,326.368 107.165,326.149 106.326 C 325.929 105.487,325.218 104.800,324.568 104.800 C 323.918 104.800,323.198 104.080,322.968 103.200 C 322.738 102.320,321.976 101.600,321.275 101.600 C 320.574 101.600,320.000 101.060,320.000 100.400 C 320.000 99.740,319.449 99.200,318.775 99.200 C 318.101 99.200,317.336 98.644,317.075 97.964 C 316.500 96.464,309.733 89.600,308.830 89.600 C 308.476 89.600,307.998 88.880,307.768 88.000 C 307.538 87.120,306.776 86.400,306.075 86.400 C 305.333 86.400,304.800 85.731,304.800 84.800 C 304.800 83.733,304.267 83.200,303.200 83.200 C 302.133 83.200,301.600 82.667,301.600 81.600 C 301.600 80.533,301.067 80.000,300.000 80.000 C 298.933 80.000,298.400 79.467,298.400 78.400 C 298.400 77.333,297.867 76.800,296.800 76.800 C 295.733 76.800,295.200 76.267,295.200 75.200 C 295.200 74.133,294.667 73.600,293.600 73.600 C 292.533 73.600,292.000 74.133,292.000 75.200 M329.625 158.659 C 329.601 199.244,329.680 201.702,331.000 201.448 C 333.685 200.931,333.460 120.627,330.764 117.068 C 329.809 115.808,329.647 121.711,329.625 158.659 M94.445 143.916 C 93.857 145.015,93.924 145.673,94.690 146.309 C 96.024 147.416,96.800 146.665,96.800 144.267 C 96.800 142.014,95.562 141.830,94.445 143.916 M67.733 180.533 C 65.831 182.436,67.350 262.779,69.302 263.529 C 70.224 263.882,70.400 257.217,70.400 221.975 C 70.400 179.560,70.298 177.969,67.733 180.533 M62.913 191.367 C 61.825 195.429,62.352 226.828,63.535 228.446 C 65.387 230.979,65.675 227.872,65.426 208.066 C 65.211 191.013,64.418 185.746,62.913 191.367 M327.045 205.011 C 325.929 206.215,324.608 207.200,324.108 207.200 C 323.609 207.200,323.200 207.774,323.200 208.475 C 323.200 209.176,322.480 209.938,321.600 210.168 C 320.714 210.400,320.000 211.259,320.000 212.093 C 320.000 213.067,319.434 213.600,318.400 213.600 C 317.469 213.600,316.800 214.133,316.800 214.875 C 316.800 215.576,316.080 216.338,315.200 216.568 C 314.320 216.798,313.600 217.496,313.600 218.118 C 313.600 218.741,313.024 219.471,312.320 219.741 C 311.616 220.011,310.228 221.044,309.236 222.036 C 308.244 223.028,307.211 224.416,306.941 225.120 C 306.671 225.824,306.079 226.400,305.625 226.400 C 305.171 226.400,304.800 226.974,304.800 227.675 C 304.800 228.376,304.080 229.138,303.200 229.368 C 302.320 229.598,301.600 230.296,301.600 230.918 C 301.600 231.541,300.980 232.288,300.223 232.579 C 298.525 233.230,294.400 237.373,294.400 238.428 C 294.400 238.852,293.860 239.200,293.200 239.200 C 292.540 239.200,292.000 239.740,292.000 240.400 C 292.000 241.060,291.322 241.600,290.493 241.600 C 289.659 241.600,288.800 242.314,288.568 243.200 C 288.338 244.080,287.576 244.800,286.875 244.800 C 286.174 244.800,285.600 245.327,285.600 245.972 C 285.600 246.616,284.880 247.529,284.000 248.000 C 283.120 248.471,282.400 249.187,282.400 249.592 C 282.400 250.534,278.554 254.400,277.618 254.400 C 277.227 254.400,276.679 255.120,276.400 256.000 C 276.121 256.880,275.238 257.600,274.439 257.600 C 273.640 257.600,272.798 258.320,272.568 259.200 C 272.338 260.080,271.555 260.800,270.828 260.800 C 270.101 260.800,269.711 261.133,269.963 261.540 C 270.214 261.947,269.323 263.297,267.983 264.540 C 266.643 265.783,264.146 268.150,262.436 269.800 C 260.725 271.450,258.937 272.800,258.463 272.800 C 257.988 272.800,257.600 273.398,257.600 274.129 C 257.600 275.437,253.136 280.000,251.856 280.000 C 251.495 280.000,251.200 280.540,251.200 281.200 C 251.200 281.860,250.522 282.400,249.693 282.400 C 248.859 282.400,248.000 283.114,247.768 284.000 C 247.538 284.880,246.776 285.600,246.075 285.600 C 245.374 285.600,244.800 286.121,244.800 286.759 C 244.800 288.054,241.413 292.000,240.301 292.000 C 239.907 292.000,239.135 292.720,238.586 293.600 C 238.036 294.480,237.049 295.200,236.393 295.200 C 235.737 295.200,235.200 295.751,235.200 296.425 C 235.200 297.099,234.660 297.857,234.000 298.111 C 233.340 298.364,232.800 299.073,232.800 299.686 C 232.800 300.299,232.251 300.800,231.580 300.800 C 230.909 300.800,230.018 301.700,229.600 302.800 C 229.182 303.900,228.333 304.800,227.713 304.800 C 227.094 304.800,226.398 305.520,226.168 306.400 C 225.918 307.357,225.077 308.000,224.075 308.000 C 223.154 308.000,222.400 308.360,222.400 308.800 C 222.400 309.325,204.549 309.600,170.447 309.600 C 136.675 309.600,118.321 309.320,118.000 308.800 C 117.728 308.360,116.652 308.000,115.610 308.000 C 113.655 308.000,108.000 303.323,108.000 301.706 C 108.000 301.207,107.460 300.800,106.800 300.800 C 106.140 300.800,105.600 300.284,105.600 299.654 C 105.600 299.024,104.880 298.279,104.000 298.000 C 103.120 297.721,102.400 297.018,102.400 296.439 C 102.400 295.860,101.680 295.198,100.800 294.968 C 99.920 294.738,99.200 293.976,99.200 293.275 C 99.200 292.514,98.524 292.000,97.525 292.000 C 96.523 292.000,95.682 291.357,95.432 290.400 C 95.202 289.520,94.515 288.800,93.907 288.800 C 93.298 288.800,92.800 288.122,92.800 287.293 C 92.800 286.459,92.086 285.600,91.200 285.368 C 90.320 285.138,89.600 284.418,89.600 283.768 C 89.600 283.118,88.880 282.398,88.000 282.168 C 87.120 281.938,86.400 281.218,86.400 280.568 C 86.400 279.918,85.680 279.198,84.800 278.968 C 83.920 278.738,83.200 277.976,83.200 277.275 C 83.200 276.574,82.660 276.000,82.000 276.000 C 81.340 276.000,80.800 275.426,80.800 274.725 C 80.800 274.024,80.092 273.265,79.226 273.039 C 78.361 272.812,77.437 271.946,77.173 271.114 C 76.908 270.281,75.996 269.600,75.146 269.600 C 74.296 269.600,73.600 269.147,73.600 268.592 C 73.600 267.047,70.634 265.403,70.057 266.629 C 69.703 267.382,69.495 267.375,69.133 266.600 C 68.321 264.859,65.600 265.412,65.600 267.318 C 65.600 269.303,68.743 278.304,69.971 279.834 C 71.640 281.914,75.617 285.593,76.200 285.596 C 76.530 285.598,76.800 286.151,76.800 286.825 C 76.800 287.499,77.383 288.274,78.096 288.547 C 78.808 288.821,80.596 290.250,82.069 291.722 C 83.542 293.195,85.094 294.400,85.519 294.400 C 85.944 294.400,86.521 295.120,86.800 296.000 C 87.079 296.880,87.824 297.600,88.454 297.600 C 89.084 297.600,89.600 298.009,89.600 298.508 C 89.600 299.008,90.410 300.212,91.400 301.184 C 92.390 302.157,94.850 304.718,96.866 306.876 C 98.883 309.034,102.079 312.060,103.969 313.600 C 105.859 315.140,108.090 317.041,108.928 317.826 C 113.774 322.362,227.629 322.383,229.369 317.848 C 229.590 317.272,230.448 316.800,231.274 316.800 C 232.142 316.800,233.673 315.446,234.895 313.600 C 236.060 311.840,237.283 310.400,237.613 310.400 C 237.943 310.400,238.402 309.680,238.632 308.800 C 238.862 307.920,239.624 307.200,240.325 307.200 C 241.026 307.200,241.600 306.812,241.600 306.338 C 241.600 305.477,245.904 300.800,246.697 300.800 C 247.543 300.800,251.200 296.990,251.200 296.108 C 251.200 295.609,251.650 295.200,252.200 295.199 C 253.510 295.198,257.600 291.665,257.600 290.535 C 257.600 290.052,258.320 289.271,259.200 288.800 C 260.080 288.329,260.800 287.416,260.800 286.772 C 260.800 286.127,261.214 285.600,261.719 285.600 C 262.758 285.600,272.800 275.503,272.800 274.459 C 272.800 274.088,273.747 273.164,274.904 272.405 C 276.843 271.135,282.328 265.690,287.217 260.184 C 288.326 258.934,289.856 257.673,290.617 257.381 C 291.378 257.089,292.000 256.341,292.000 255.718 C 292.000 255.096,292.720 254.398,293.600 254.168 C 294.480 253.938,295.200 253.176,295.200 252.475 C 295.200 251.774,295.583 251.200,296.051 251.200 C 296.950 251.200,313.594 234.637,313.608 233.729 C 313.612 233.438,315.049 231.940,316.800 230.400 C 318.551 228.860,319.988 227.150,319.992 226.600 C 319.996 226.050,320.362 225.600,320.805 225.600 C 321.743 225.600,328.800 218.607,328.800 217.677 C 328.800 217.331,329.500 216.415,330.355 215.641 C 331.210 214.867,332.132 213.101,332.405 211.717 C 332.677 210.333,333.290 208.190,333.766 206.955 C 334.422 205.254,334.385 204.480,333.615 203.755 C 332.827 203.014,332.518 203.024,332.233 203.800 C 331.761 205.089,329.832 205.096,329.404 203.811 C 329.193 203.180,328.339 203.615,327.045 205.011 " stroke="none" fill="#000000" fill-rule="evenodd"></path><path id="path1" d="M174.898 68.433 C 174.647 69.088,173.532 69.970,172.421 70.392 C 171.178 70.865,170.400 71.784,170.400 72.780 C 170.400 73.671,169.876 74.400,169.236 74.400 C 168.540 74.400,167.862 75.524,167.547 77.200 C 167.227 78.904,166.558 80.000,165.836 80.000 C 165.184 80.000,164.462 80.720,164.232 81.600 C 164.002 82.480,163.315 83.200,162.707 83.200 C 162.098 83.200,161.600 83.920,161.600 84.800 C 161.600 85.867,161.067 86.400,160.000 86.400 C 158.933 86.400,158.400 86.933,158.400 88.000 C 158.400 89.067,157.867 89.600,156.800 89.600 C 155.733 89.600,155.200 90.133,155.200 91.200 C 155.200 92.267,154.667 92.800,153.600 92.800 C 152.533 92.800,152.000 93.333,152.000 94.400 C 152.000 95.434,151.467 96.000,150.493 96.000 C 149.659 96.000,148.800 96.714,148.568 97.600 C 148.338 98.480,147.576 99.200,146.875 99.200 C 146.174 99.200,145.600 99.698,145.600 100.307 C 145.600 100.915,144.880 101.602,144.000 101.832 C 143.120 102.062,142.400 102.782,142.400 103.432 C 142.400 104.082,141.680 104.802,140.800 105.032 C 139.920 105.262,139.200 106.024,139.200 106.725 C 139.200 107.426,138.684 108.000,138.054 108.000 C 137.424 108.000,136.679 108.720,136.400 109.600 C 136.121 110.480,135.376 111.200,134.746 111.200 C 133.711 111.200,133.248 112.170,133.505 113.800 C 133.557 114.130,132.880 114.400,132.000 114.400 C 130.933 114.400,130.400 114.933,130.400 116.000 C 130.400 117.048,129.867 117.600,128.854 117.600 C 128.004 117.600,127.079 118.320,126.800 119.200 C 126.521 120.080,125.776 120.800,125.146 120.800 C 124.516 120.800,124.000 121.495,124.000 122.344 C 124.000 123.331,123.350 123.988,122.200 124.163 C 121.210 124.314,120.499 124.906,120.620 125.478 C 120.741 126.051,120.507 126.314,120.101 126.063 C 119.043 125.409,114.178 130.175,114.666 131.387 C 114.987 132.184,115.087 132.186,115.137 131.400 C 115.172 130.850,115.701 130.400,116.314 130.400 C 116.927 130.400,117.648 129.830,117.915 129.133 C 118.182 128.437,118.843 128.014,119.383 128.194 C 120.401 128.534,121.568 127.800,123.834 125.400 C 124.561 124.630,125.574 124.000,126.084 124.000 C 126.595 124.000,127.202 123.280,127.432 122.400 C 127.662 121.520,128.424 120.800,129.125 120.800 C 129.867 120.800,130.400 120.131,130.400 119.200 C 130.400 118.133,130.933 117.600,132.000 117.600 C 132.880 117.600,133.600 117.178,133.600 116.662 C 133.600 116.146,135.580 113.791,138.000 111.428 C 140.420 109.065,142.400 106.788,142.400 106.366 C 142.400 105.945,142.724 105.600,143.120 105.600 C 143.810 105.600,146.782 102.811,151.328 97.899 C 152.498 96.635,154.568 94.616,155.928 93.413 C 157.288 92.210,158.400 91.071,158.400 90.882 C 158.400 90.692,159.570 89.310,161.000 87.810 C 168.410 80.036,171.200 76.576,171.200 75.163 C 171.200 74.303,171.740 73.600,172.400 73.600 C 173.060 73.600,173.600 73.112,173.600 72.515 C 173.600 70.849,193.829 70.249,242.269 70.480 C 273.901 70.630,284.384 70.447,284.620 69.740 C 284.792 69.223,285.893 68.794,287.067 68.788 C 288.743 68.778,288.943 68.608,288.000 67.994 C 285.808 66.567,175.450 66.995,174.898 68.433 M288.395 71.872 C 288.480 73.042,288.606 74.630,288.675 75.400 C 288.744 76.170,289.340 76.800,290.000 76.800 C 290.660 76.800,291.200 77.148,291.200 77.572 C 291.200 78.618,295.738 83.200,296.773 83.200 C 297.228 83.200,297.600 83.549,297.600 83.975 C 297.600 84.402,299.760 86.904,302.400 89.536 C 305.040 92.168,307.200 94.699,307.200 95.161 C 307.200 95.622,307.774 96.000,308.475 96.000 C 309.176 96.000,309.938 96.720,310.168 97.600 C 310.398 98.480,311.118 99.200,311.768 99.200 C 312.418 99.200,313.129 99.887,313.349 100.726 C 313.568 101.565,314.435 102.432,315.274 102.651 C 316.113 102.871,316.800 103.624,316.800 104.325 C 316.800 105.026,317.351 105.600,318.025 105.600 C 318.699 105.600,319.452 106.126,319.699 106.770 C 319.946 107.413,320.835 108.157,321.674 108.423 C 322.513 108.690,323.200 109.424,323.200 110.054 C 323.200 110.684,323.733 111.200,324.385 111.200 C 326.168 111.200,326.323 112.924,326.750 137.600 C 326.967 150.140,327.306 161.840,327.502 163.600 C 329.522 181.709,327.896 202.369,324.342 203.733 C 323.748 203.961,323.043 204.835,322.777 205.674 C 322.510 206.513,321.992 207.200,321.624 207.200 C 321.009 207.200,306.351 221.550,301.508 226.892 C 300.358 228.162,297.748 230.693,295.708 232.517 C 293.669 234.342,292.000 236.079,292.000 236.379 C 292.000 237.017,287.522 241.600,286.898 241.600 C 286.358 241.600,282.400 245.537,282.400 246.074 C 282.400 246.858,274.463 254.400,273.638 254.400 C 273.177 254.400,272.800 254.916,272.800 255.546 C 272.800 256.176,272.080 256.921,271.200 257.200 C 270.320 257.479,269.600 258.005,269.600 258.369 C 269.600 258.733,258.848 269.876,245.707 283.132 L 221.814 307.234 168.631 307.017 L 115.449 306.800 103.924 295.107 C 97.586 288.675,89.338 280.215,85.595 276.307 C 81.852 272.398,77.712 268.419,76.395 267.465 L 74.000 265.731 73.468 237.865 C 73.175 222.539,72.750 208.920,72.524 207.600 C 72.297 206.280,72.033 199.800,71.938 193.200 C 71.842 186.600,71.480 180.480,71.133 179.600 C 70.785 178.720,70.479 197.707,70.451 221.793 C 70.401 264.748,70.431 265.606,72.000 266.586 C 72.880 267.135,73.600 268.038,73.600 268.592 C 73.600 269.147,74.296 269.600,75.146 269.600 C 75.996 269.600,76.908 270.281,77.173 271.114 C 77.437 271.946,78.361 272.812,79.226 273.039 C 80.092 273.265,80.800 274.024,80.800 274.725 C 80.800 275.426,81.298 276.000,81.907 276.000 C 82.515 276.000,83.202 276.720,83.432 277.600 C 83.662 278.480,84.382 279.200,85.032 279.200 C 85.682 279.200,86.402 279.920,86.632 280.800 C 86.862 281.680,87.582 282.400,88.232 282.400 C 88.882 282.400,89.602 283.120,89.832 284.000 C 90.062 284.880,90.824 285.600,91.525 285.600 C 92.267 285.600,92.800 286.269,92.800 287.200 C 92.800 288.080,93.298 288.800,93.907 288.800 C 94.515 288.800,95.202 289.520,95.432 290.400 C 95.672 291.319,96.523 292.000,97.432 292.000 C 98.341 292.000,99.191 292.681,99.432 293.600 C 99.662 294.480,100.424 295.200,101.125 295.200 C 101.826 295.200,102.400 295.716,102.400 296.346 C 102.400 296.976,103.120 297.721,104.000 298.000 C 104.880 298.279,105.600 299.024,105.600 299.654 C 105.600 300.284,106.140 300.800,106.800 300.800 C 107.460 300.800,108.000 301.207,108.000 301.706 C 108.000 303.323,113.655 308.000,115.610 308.000 C 116.652 308.000,117.728 308.360,118.000 308.800 C 118.321 309.320,136.675 309.600,170.447 309.600 C 204.549 309.600,222.400 309.325,222.400 308.800 C 222.400 308.360,223.154 308.000,224.075 308.000 C 225.077 308.000,225.918 307.357,226.168 306.400 C 226.398 305.520,227.094 304.800,227.713 304.800 C 228.333 304.800,229.182 303.900,229.600 302.800 C 230.018 301.700,230.909 300.800,231.580 300.800 C 232.251 300.800,232.800 300.299,232.800 299.686 C 232.800 299.073,233.340 298.364,234.000 298.111 C 234.660 297.857,235.200 297.099,235.200 296.425 C 235.200 295.751,235.737 295.200,236.393 295.200 C 237.049 295.200,238.036 294.480,238.586 293.600 C 239.135 292.720,239.907 292.000,240.301 292.000 C 241.413 292.000,244.800 288.054,244.800 286.759 C 244.800 286.121,245.374 285.600,246.075 285.600 C 246.776 285.600,247.538 284.880,247.768 284.000 C 248.000 283.114,248.859 282.400,249.693 282.400 C 250.522 282.400,251.200 281.860,251.200 281.200 C 251.200 280.540,251.495 280.000,251.856 280.000 C 253.136 280.000,257.600 275.437,257.600 274.129 C 257.600 273.398,257.988 272.800,258.463 272.800 C 258.937 272.800,260.725 271.450,262.436 269.800 C 264.146 268.150,266.643 265.783,267.983 264.540 C 269.323 263.297,270.240 261.988,270.019 261.631 C 269.798 261.274,270.334 260.795,271.209 260.566 C 272.084 260.337,272.800 259.576,272.800 258.875 C 272.800 258.148,273.465 257.600,274.346 257.600 C 275.196 257.600,276.121 256.880,276.400 256.000 C 276.679 255.120,277.227 254.400,277.618 254.400 C 278.554 254.400,282.400 250.534,282.400 249.592 C 282.400 249.187,283.120 248.471,284.000 248.000 C 284.880 247.529,285.600 246.658,285.600 246.065 C 285.600 245.472,286.320 244.798,287.200 244.568 C 288.080 244.338,288.800 243.576,288.800 242.875 C 288.800 242.133,289.469 241.600,290.400 241.600 C 291.289 241.600,292.000 241.067,292.000 240.400 C 292.000 239.740,292.540 239.200,293.200 239.200 C 293.860 239.200,294.400 238.852,294.400 238.428 C 294.400 237.373,298.525 233.230,300.223 232.579 C 300.980 232.288,301.600 231.541,301.600 230.918 C 301.600 230.296,302.320 229.598,303.200 229.368 C 304.080 229.138,304.800 228.415,304.800 227.760 C 304.800 227.106,305.340 226.364,306.000 226.111 C 306.660 225.857,307.200 225.295,307.200 224.861 C 307.200 223.841,310.664 220.377,312.320 219.741 C 313.024 219.471,313.600 218.741,313.600 218.118 C 313.600 217.496,314.320 216.798,315.200 216.568 C 316.080 216.338,316.800 215.576,316.800 214.875 C 316.800 214.133,317.469 213.600,318.400 213.600 C 319.467 213.600,320.000 213.067,320.000 212.000 C 320.000 211.069,320.533 210.400,321.275 210.400 C 321.976 210.400,322.738 209.680,322.968 208.800 C 323.198 207.920,323.732 207.200,324.155 207.200 C 324.577 207.200,325.975 206.148,327.262 204.862 L 329.600 202.523 329.600 158.127 C 329.600 113.607,329.498 111.200,327.608 111.200 C 327.046 111.200,326.398 110.480,326.168 109.600 C 325.938 108.720,325.176 108.000,324.475 108.000 C 323.774 108.000,323.200 107.426,323.200 106.725 C 323.200 106.024,322.513 105.271,321.674 105.051 C 320.835 104.832,319.968 103.965,319.749 103.126 C 319.529 102.287,318.776 101.600,318.075 101.600 C 317.374 101.600,316.800 101.102,316.800 100.493 C 316.800 99.885,316.080 99.198,315.200 98.968 C 314.320 98.738,313.600 98.018,313.600 97.368 C 313.600 96.718,312.880 95.998,312.000 95.768 C 311.120 95.538,310.400 94.776,310.400 94.075 C 310.400 93.374,309.884 92.800,309.254 92.800 C 308.624 92.800,307.879 92.080,307.600 91.200 C 307.321 90.320,306.576 89.600,305.946 89.600 C 305.316 89.600,304.800 89.026,304.800 88.325 C 304.800 87.624,304.080 86.862,303.200 86.632 C 302.314 86.400,301.600 85.541,301.600 84.707 C 301.600 83.733,301.034 83.200,300.000 83.200 C 298.933 83.200,298.400 82.667,298.400 81.600 C 298.400 80.566,297.867 80.000,296.893 80.000 C 296.059 80.000,295.200 79.286,294.968 78.400 C 294.738 77.520,293.976 76.800,293.275 76.800 C 292.363 76.800,292.000 76.040,292.000 74.128 C 292.000 72.101,291.547 71.250,290.120 70.600 C 288.391 69.812,288.253 69.914,288.395 71.872 M111.476 134.035 C 110.769 135.877,111.410 135.978,113.140 134.297 C 114.521 132.954,114.539 132.800,113.315 132.800 C 112.564 132.800,111.737 133.356,111.476 134.035 " stroke="none" fill="#282828" fill-rule="evenodd"></path><path id="path2" d="M284.620 69.740 C 284.384 70.447,273.901 70.630,242.269 70.480 C 193.829 70.249,173.600 70.849,173.600 72.515 C 173.600 73.112,173.060 73.600,172.400 73.600 C 171.740 73.600,171.200 74.303,171.200 75.163 C 171.200 76.576,168.410 80.036,161.000 87.810 C 159.570 89.310,158.400 90.692,158.400 90.882 C 158.400 91.071,157.288 92.210,155.928 93.413 C 154.568 94.616,152.498 96.635,151.328 97.899 C 146.782 102.811,143.810 105.600,143.120 105.600 C 142.724 105.600,142.400 105.945,142.400 106.366 C 142.400 106.788,140.420 109.065,138.000 111.428 C 135.580 113.791,133.600 116.146,133.600 116.662 C 133.600 117.178,132.880 117.600,132.000 117.600 C 130.933 117.600,130.400 118.133,130.400 119.200 C 130.400 120.131,129.867 120.800,129.125 120.800 C 128.424 120.800,127.662 121.520,127.432 122.400 C 127.202 123.280,126.595 124.000,126.084 124.000 C 125.574 124.000,124.561 124.630,123.834 125.400 C 121.568 127.800,120.401 128.534,119.383 128.194 C 118.843 128.014,118.182 128.437,117.915 129.133 C 117.648 129.830,116.927 130.400,116.314 130.400 C 115.701 130.400,115.200 130.772,115.200 131.227 C 115.200 132.642,110.292 136.930,109.167 136.498 C 108.511 136.246,108.003 136.765,107.850 137.844 C 107.712 138.810,107.060 139.600,106.400 139.600 C 105.740 139.600,105.200 140.140,105.200 140.800 C 105.200 141.460,104.390 142.115,103.400 142.256 C 102.243 142.420,101.600 143.063,101.600 144.056 C 101.600 144.905,101.084 145.600,100.454 145.600 C 99.824 145.600,99.079 146.320,98.800 147.200 C 98.521 148.080,97.815 148.800,97.232 148.800 C 95.991 148.800,95.200 150.539,95.200 153.265 C 95.200 154.452,94.736 155.200,94.000 155.200 C 93.340 155.200,92.800 154.780,92.800 154.267 C 92.800 153.753,92.610 153.523,92.378 153.756 C 92.145 153.988,92.303 155.092,92.727 156.209 C 93.374 157.911,93.248 158.305,91.950 158.645 C 91.039 158.883,90.400 159.741,90.400 160.725 C 90.400 161.867,89.891 162.400,88.800 162.400 C 87.920 162.400,87.200 162.927,87.200 163.572 C 87.200 164.216,86.480 165.129,85.600 165.600 C 84.720 166.071,84.000 166.945,84.000 167.543 C 84.000 168.140,83.460 168.836,82.800 169.089 C 82.140 169.343,81.600 170.101,81.600 170.775 C 81.600 171.449,81.073 172.000,80.428 172.000 C 79.784 172.000,78.871 172.720,78.400 173.600 C 77.929 174.480,76.858 175.200,76.019 175.200 C 75.181 175.200,74.253 175.591,73.957 176.070 C 73.661 176.548,72.704 176.752,71.831 176.524 C 70.499 176.176,70.332 176.391,70.801 177.854 C 71.109 178.814,71.496 184.100,71.662 189.600 C 71.829 195.100,72.183 202.120,72.450 205.200 C 72.717 208.280,73.175 223.159,73.468 238.265 L 74.000 265.731 76.395 267.465 C 77.712 268.419,81.852 272.398,85.595 276.307 C 89.338 280.215,97.586 288.675,103.924 295.107 L 115.449 306.800 168.631 307.017 L 221.814 307.234 245.707 283.132 C 258.848 269.876,269.600 258.733,269.600 258.369 C 269.600 258.005,270.320 257.479,271.200 257.200 C 272.080 256.921,272.800 256.176,272.800 255.546 C 272.800 254.916,273.177 254.400,273.638 254.400 C 274.463 254.400,282.400 246.858,282.400 246.074 C 282.400 245.537,286.358 241.600,286.898 241.600 C 287.522 241.600,292.000 237.017,292.000 236.379 C 292.000 236.079,293.669 234.342,295.708 232.517 C 297.748 230.693,300.358 228.162,301.508 226.892 C 306.351 221.550,321.009 207.200,321.624 207.200 C 321.992 207.200,322.510 206.513,322.777 205.674 C 323.043 204.835,323.748 203.961,324.342 203.733 C 327.896 202.369,329.522 181.709,327.502 163.600 C 327.306 161.840,326.967 150.140,326.750 137.600 C 326.323 112.924,326.168 111.200,324.385 111.200 C 323.733 111.200,323.200 110.684,323.200 110.054 C 323.200 109.424,322.513 108.690,321.674 108.423 C 320.835 108.157,319.946 107.413,319.699 106.770 C 319.452 106.126,318.741 105.600,318.118 105.600 C 317.496 105.600,316.798 104.880,316.568 104.000 C 316.338 103.120,315.618 102.400,314.968 102.400 C 314.318 102.400,313.598 101.680,313.368 100.800 C 313.138 99.920,312.418 99.200,311.768 99.200 C 311.118 99.200,310.398 98.480,310.168 97.600 C 309.938 96.720,309.176 96.000,308.475 96.000 C 307.774 96.000,307.200 95.622,307.200 95.161 C 307.200 94.699,305.040 92.168,302.400 89.536 C 299.760 86.904,297.600 84.402,297.600 83.975 C 297.600 83.549,297.228 83.200,296.773 83.200 C 295.738 83.200,291.200 78.618,291.200 77.572 C 291.200 77.148,290.705 76.800,290.100 76.800 C 288.889 76.800,287.883 73.083,288.387 70.466 C 288.743 68.617,285.221 67.938,284.620 69.740 M282.422 74.393 C 285.211 75.168,320.132 109.343,323.342 114.440 C 325.577 117.988,325.818 198.303,323.602 200.916 C 322.723 201.952,312.601 212.340,301.108 224.000 C 289.615 235.660,268.554 257.054,254.306 271.543 C 240.058 286.032,227.143 299.137,225.606 300.665 C 220.469 305.773,222.480 305.600,168.226 305.597 C 121.653 305.594,118.661 305.509,116.400 304.123 C 115.080 303.314,106.440 294.988,97.200 285.621 C 87.960 276.253,79.742 268.007,78.937 267.295 C 75.226 264.011,75.226 264.012,75.185 221.840 C 75.141 175.874,74.359 180.437,83.960 170.588 C 87.502 166.955,90.400 163.626,90.400 163.191 C 90.400 162.756,90.940 162.400,91.600 162.400 C 92.260 162.400,92.800 162.093,92.800 161.719 C 92.800 160.735,97.463 156.000,98.432 156.000 C 98.882 156.000,99.471 155.424,99.741 154.720 C 100.369 153.084,103.836 149.600,104.836 149.600 C 105.256 149.600,105.600 149.286,105.600 148.902 C 105.600 148.518,111.356 142.308,118.391 135.102 C 125.426 127.896,133.256 119.829,135.791 117.175 C 138.326 114.521,145.260 107.297,151.200 101.123 C 157.140 94.948,165.215 86.426,169.146 82.185 C 173.076 77.943,177.036 74.326,177.946 74.146 C 181.651 73.412,279.726 73.644,282.422 74.393 " stroke="none" fill="#767676" fill-rule="evenodd"></path><path id="path3" d="M177.946 74.146 C 177.036 74.326,173.076 77.943,169.146 82.185 C 165.215 86.426,157.140 94.948,151.200 101.123 C 145.260 107.297,138.326 114.521,135.791 117.175 C 133.256 119.829,125.426 127.896,118.391 135.102 C 111.356 142.308,105.600 148.518,105.600 148.902 C 105.600 149.286,105.256 149.600,104.836 149.600 C 103.836 149.600,100.369 153.084,99.741 154.720 C 99.471 155.424,98.882 156.000,98.432 156.000 C 97.463 156.000,92.800 160.735,92.800 161.719 C 92.800 162.093,92.260 162.400,91.600 162.400 C 89.834 162.400,90.102 159.128,91.907 158.656 C 92.928 158.389,93.285 157.768,93.014 156.731 C 92.741 155.689,93.027 155.200,93.907 155.200 C 94.682 155.200,95.200 154.536,95.200 153.541 C 95.200 152.378,94.782 151.974,93.800 152.189 C 93.030 152.357,92.486 152.911,92.591 153.420 C 92.843 154.641,89.049 158.400,87.564 158.400 C 86.924 158.400,86.400 158.898,86.400 159.507 C 86.400 160.115,85.680 160.802,84.800 161.032 C 83.825 161.287,83.200 162.123,83.200 163.172 C 83.200 164.119,82.865 164.687,82.455 164.434 C 82.045 164.181,81.235 164.633,80.655 165.439 C 80.075 166.246,78.970 167.140,78.200 167.428 C 77.430 167.715,76.800 168.697,76.800 169.610 C 76.800 170.726,76.358 171.193,75.453 171.035 C 74.589 170.884,73.937 171.491,73.635 172.726 C 73.375 173.785,72.451 174.916,71.581 175.240 C 70.089 175.795,70.081 175.861,71.454 176.420 C 72.274 176.754,73.303 176.617,73.814 176.106 C 74.312 175.608,75.355 175.200,76.132 175.200 C 76.908 175.200,77.929 174.480,78.400 173.600 C 78.871 172.720,79.784 172.000,80.428 172.000 C 81.073 172.000,81.600 171.449,81.600 170.775 C 81.600 170.101,82.140 169.343,82.800 169.089 C 83.460 168.836,84.000 168.140,84.000 167.543 C 84.000 166.945,84.720 166.071,85.600 165.600 C 86.480 165.129,87.200 164.216,87.200 163.572 C 87.200 162.927,87.920 162.400,88.800 162.400 C 91.450 162.400,90.692 163.682,83.960 170.588 C 74.359 180.437,75.141 175.874,75.185 221.840 C 75.226 264.012,75.226 264.011,78.937 267.295 C 79.742 268.007,87.960 276.253,97.200 285.621 C 106.440 294.988,115.080 303.314,116.400 304.123 C 118.661 305.509,121.653 305.594,168.226 305.597 C 222.480 305.600,220.469 305.773,225.606 300.665 C 227.143 299.137,240.058 286.032,254.306 271.543 C 268.554 257.054,289.615 235.660,301.108 224.000 C 312.601 212.340,322.723 201.952,323.602 200.916 C 325.818 198.303,325.577 117.988,323.342 114.440 C 320.132 109.343,285.211 75.168,282.422 74.393 C 279.726 73.644,181.651 73.412,177.946 74.146 M284.346 76.901 C 286.250 78.398,315.096 107.360,320.213 112.911 L 322.159 115.022 322.682 142.111 C 323.139 165.799,323.412 192.148,323.252 197.288 C 323.188 199.367,324.507 197.959,284.096 239.081 C 265.783 257.716,244.140 279.770,236.000 288.089 L 221.200 303.216 168.800 303.217 L 116.400 303.217 100.800 287.375 C 92.220 278.662,83.550 269.737,81.533 267.543 L 77.866 263.553 77.337 223.321 C 76.923 191.917,77.026 182.677,77.804 181.212 C 78.764 179.403,81.576 176.348,99.941 157.163 C 104.593 152.302,114.160 142.243,121.200 134.809 C 128.240 127.375,135.620 119.626,137.600 117.589 C 139.580 115.552,146.780 107.976,153.600 100.753 C 160.420 93.531,168.340 85.146,171.200 82.121 C 178.165 74.753,173.351 75.308,230.892 75.251 C 282.021 75.200,282.191 75.205,284.346 76.901 M179.496 96.883 C 174.987 100.466,100.103 176.151,96.163 181.107 C 94.307 183.442,94.648 253.224,96.527 255.474 C 100.537 260.278,123.066 282.662,124.800 283.565 C 126.221 284.306,127.379 284.381,128.800 283.825 L 130.800 283.043 128.985 282.342 C 126.613 281.425,100.866 255.660,98.570 251.906 C 95.928 247.586,95.777 185.516,98.400 182.182 C 99.280 181.063,100.000 179.903,100.000 179.605 C 100.000 179.307,101.980 177.190,104.400 174.902 C 106.820 172.613,108.800 170.304,108.800 169.770 C 108.800 169.237,109.167 168.800,109.616 168.800 C 110.596 168.800,152.800 126.649,152.800 125.670 C 152.800 125.294,153.520 124.798,154.400 124.568 C 155.280 124.338,156.000 123.576,156.000 122.875 C 156.000 122.174,156.516 121.600,157.146 121.600 C 157.776 121.600,158.515 120.898,158.787 120.041 C 159.059 119.183,159.983 118.259,160.841 117.987 C 161.698 117.715,162.400 117.018,162.400 116.439 C 162.400 115.860,163.120 115.198,164.000 114.968 C 164.880 114.738,165.600 113.976,165.600 113.275 C 165.600 112.574,165.927 112.000,166.326 112.000 C 167.273 112.000,177.600 101.673,177.600 100.726 C 177.600 100.327,178.096 100.000,178.702 100.000 C 179.309 100.000,180.343 99.190,181.000 98.200 L 182.195 96.400 226.394 96.180 L 270.593 95.960 285.697 110.938 C 294.003 119.175,300.800 126.396,300.800 126.983 C 300.800 127.570,301.370 128.269,302.067 128.536 C 302.764 128.804,303.641 129.782,304.016 130.711 C 304.556 132.048,304.709 131.691,304.749 129.000 C 304.777 127.130,304.466 125.600,304.059 125.600 C 303.651 125.600,303.201 125.073,303.059 124.429 C 302.765 123.100,280.254 100.085,276.292 97.064 L 273.701 95.087 227.909 94.944 L 182.118 94.800 179.496 96.883 M304.218 139.200 C 304.218 141.180,304.374 141.990,304.565 141.000 C 304.755 140.010,304.755 138.390,304.565 137.400 C 304.374 136.410,304.218 137.220,304.218 139.200 M304.274 157.200 C 304.277 160.720,304.418 162.060,304.587 160.179 C 304.756 158.297,304.753 155.417,304.582 153.779 C 304.410 152.140,304.271 153.680,304.274 157.200 M304.202 169.200 C 304.211 170.960,304.374 171.586,304.566 170.591 C 304.757 169.596,304.750 168.156,304.550 167.391 C 304.349 166.626,304.193 167.440,304.202 169.200 M304.280 189.600 C 304.280 193.340,304.417 194.870,304.586 193.000 C 304.754 191.130,304.754 188.070,304.586 186.200 C 304.417 184.330,304.280 185.860,304.280 189.600 M301.095 198.066 C 300.788 198.910,299.246 200.929,297.668 202.552 C 296.091 204.176,293.816 206.606,292.613 207.952 C 291.410 209.299,290.084 210.400,289.667 210.400 C 289.249 210.400,288.679 211.120,288.400 212.000 C 288.121 212.880,287.418 213.600,286.839 213.600 C 286.260 213.600,285.598 214.320,285.368 215.200 C 285.138 216.080,284.376 216.800,283.675 216.800 C 282.974 216.800,282.400 217.188,282.400 217.662 C 282.400 218.135,281.348 219.575,280.062 220.862 C 278.775 222.148,277.335 223.200,276.862 223.200 C 276.388 223.200,276.000 223.525,276.000 223.923 C 276.000 224.320,263.749 236.982,248.775 252.060 C 229.947 271.020,221.865 279.669,222.570 280.105 C 223.226 280.511,223.795 280.177,224.169 279.167 C 224.488 278.305,225.258 277.600,225.881 277.600 C 226.504 277.600,227.202 276.880,227.432 276.000 C 227.662 275.120,228.424 274.400,229.125 274.400 C 229.826 274.400,230.400 273.826,230.400 273.125 C 230.400 272.424,231.120 271.662,232.000 271.432 C 232.880 271.202,233.600 270.377,233.600 269.600 C 233.600 268.823,234.320 267.998,235.200 267.768 C 236.080 267.538,236.800 266.776,236.800 266.075 C 236.800 265.333,237.469 264.800,238.400 264.800 C 239.280 264.800,240.000 264.273,240.000 263.628 C 240.000 262.984,240.720 262.071,241.600 261.600 C 242.480 261.129,243.200 260.216,243.200 259.572 C 243.200 258.927,243.920 258.400,244.800 258.400 C 245.867 258.400,246.400 257.867,246.400 256.800 C 246.400 255.733,246.933 255.200,248.000 255.200 C 248.880 255.200,249.600 254.856,249.600 254.436 C 249.600 254.016,250.516 252.756,251.636 251.636 C 252.756 250.516,254.016 249.600,254.436 249.600 C 254.856 249.600,255.200 249.073,255.200 248.428 C 255.200 247.784,255.920 246.871,256.800 246.400 C 257.680 245.929,258.400 245.016,258.400 244.372 C 258.400 243.727,258.927 243.200,259.572 243.200 C 260.216 243.200,261.129 242.480,261.600 241.600 C 262.071 240.720,262.984 240.000,263.628 240.000 C 264.273 240.000,264.800 239.473,264.800 238.828 C 264.800 238.184,265.520 237.271,266.400 236.800 C 267.280 236.329,268.000 235.458,268.000 234.865 C 268.000 234.272,268.720 233.598,269.600 233.368 C 270.480 233.138,271.200 232.376,271.200 231.675 C 271.200 230.974,271.589 230.400,272.065 230.400 C 273.045 230.400,280.800 222.457,280.800 221.453 C 280.800 221.094,281.340 220.800,282.000 220.800 C 282.660 220.800,283.200 220.249,283.200 219.575 C 283.200 218.901,283.783 218.126,284.495 217.853 C 286.229 217.188,292.800 210.757,292.800 209.725 C 292.800 209.276,293.520 208.679,294.400 208.400 C 295.280 208.121,296.000 207.376,296.000 206.746 C 296.000 206.116,296.574 205.600,297.275 205.600 C 297.976 205.600,298.738 204.880,298.968 204.000 C 299.198 203.120,299.696 202.400,300.075 202.400 C 301.483 202.400,303.486 198.366,302.545 197.425 C 301.888 196.768,301.505 196.938,301.095 198.066 M178.800 210.046 C 173.123 211.294,164.847 214.178,163.315 215.442 C 162.718 215.935,161.598 216.712,160.827 217.169 C 160.055 217.626,157.966 219.017,156.183 220.259 C 152.924 222.531,151.854 222.795,136.148 225.202 C 125.657 226.809,118.973 229.585,119.342 232.182 C 119.936 236.370,145.543 233.827,151.355 229.003 C 152.423 228.117,157.293 226.199,162.348 224.673 C 163.859 224.216,165.839 223.365,166.748 222.781 C 167.657 222.196,169.750 221.472,171.400 221.170 C 173.050 220.869,174.400 220.331,174.400 219.975 C 174.400 219.618,175.570 219.079,177.000 218.777 C 181.978 217.723,189.600 212.865,189.600 210.746 C 189.600 208.605,186.323 208.392,178.800 210.046 M181.850 227.165 C 180.887 227.576,177.892 228.312,175.193 228.801 C 170.909 229.578,166.176 231.543,163.600 233.614 C 163.160 233.967,161.360 234.516,159.600 234.832 C 157.840 235.148,155.500 235.895,154.400 236.492 C 153.300 237.090,150.960 238.085,149.200 238.704 C 137.347 242.874,132.272 245.381,128.943 248.711 C 126.178 251.475,126.167 251.513,127.918 252.294 C 131.002 253.670,145.871 250.481,149.600 247.644 C 150.260 247.142,151.741 246.262,152.891 245.689 C 154.041 245.115,155.937 243.761,157.104 242.679 C 159.641 240.327,167.090 238.134,178.000 236.528 C 193.057 234.312,199.686 231.344,196.561 228.218 C 194.967 226.624,184.823 225.898,181.850 227.165 M219.600 281.600 C 219.328 282.040,218.155 282.400,216.993 282.400 C 215.510 282.400,215.132 282.652,215.724 283.244 C 216.846 284.366,220.800 283.329,220.800 281.913 C 220.800 280.606,220.296 280.474,219.600 281.600 M154.144 282.999 C 164.784 283.125,182.424 283.125,193.344 282.999 C 204.265 282.874,195.560 282.771,174.000 282.770 C 152.440 282.770,143.505 282.873,154.144 282.999 " stroke="none" fill="#a6a6a6" fill-rule="evenodd"></path><path id="path4" d="M178.000 75.961 C 177.120 76.324,174.060 79.096,171.200 82.121 C 168.340 85.146,160.420 93.531,153.600 100.753 C 146.780 107.976,139.580 115.552,137.600 117.589 C 135.620 119.626,128.240 127.375,121.200 134.809 C 114.160 142.243,104.593 152.302,99.941 157.163 C 81.576 176.348,78.764 179.403,77.804 181.212 C 77.026 182.677,76.923 191.917,77.337 223.321 L 77.866 263.553 81.533 267.543 C 83.550 269.737,92.220 278.662,100.800 287.375 L 116.400 303.217 168.800 303.217 L 221.200 303.216 236.000 288.089 C 244.140 279.770,265.783 257.716,284.096 239.081 C 324.507 197.959,323.188 199.367,323.252 197.288 C 323.412 192.148,323.139 165.799,322.682 142.111 L 322.159 115.022 320.213 112.911 C 315.096 107.360,286.250 78.398,284.346 76.901 C 282.066 75.107,182.212 74.225,178.000 75.961 M276.292 97.064 C 280.254 100.085,302.765 123.100,303.059 124.429 C 303.201 125.073,303.651 125.600,304.059 125.600 C 304.466 125.600,304.777 127.130,304.749 129.000 C 304.709 131.691,304.556 132.048,304.016 130.711 C 303.641 129.782,302.764 128.804,302.067 128.536 C 301.370 128.269,300.800 127.570,300.800 126.983 C 300.800 126.396,294.003 119.175,285.697 110.938 L 270.593 95.960 226.394 96.180 L 182.195 96.400 181.000 98.200 C 180.343 99.190,179.309 100.000,178.702 100.000 C 178.096 100.000,177.600 100.327,177.600 100.726 C 177.600 101.673,167.273 112.000,166.326 112.000 C 165.927 112.000,165.600 112.574,165.600 113.275 C 165.600 113.976,164.880 114.738,164.000 114.968 C 163.120 115.198,162.400 115.860,162.400 116.439 C 162.400 117.018,161.698 117.715,160.841 117.987 C 159.983 118.259,159.059 119.183,158.787 120.041 C 158.515 120.898,157.776 121.600,157.146 121.600 C 156.516 121.600,156.000 122.174,156.000 122.875 C 156.000 123.576,155.280 124.338,154.400 124.568 C 153.520 124.798,152.800 125.294,152.800 125.670 C 152.800 126.649,110.596 168.800,109.616 168.800 C 109.167 168.800,108.800 169.237,108.800 169.770 C 108.800 170.304,106.820 172.613,104.400 174.902 C 101.980 177.190,100.000 179.307,100.000 179.605 C 100.000 179.903,99.280 181.063,98.400 182.182 C 95.777 185.516,95.928 247.586,98.570 251.906 C 100.866 255.660,126.613 281.425,128.985 282.342 L 130.800 283.043 128.800 283.825 C 127.379 284.381,126.221 284.306,124.800 283.565 C 123.066 282.662,100.537 260.278,96.527 255.474 C 94.648 253.224,94.307 183.442,96.163 181.107 C 100.103 176.151,174.987 100.466,179.496 96.883 L 182.118 94.800 227.909 94.944 L 273.701 95.087 276.292 97.064 M304.565 141.000 C 304.374 141.990,304.218 141.180,304.218 139.200 C 304.218 137.220,304.374 136.410,304.565 137.400 C 304.755 138.390,304.755 140.010,304.565 141.000 M304.587 160.179 C 304.418 162.060,304.277 160.720,304.274 157.200 C 304.271 153.680,304.410 152.140,304.582 153.779 C 304.753 155.417,304.756 158.297,304.587 160.179 M304.566 170.591 C 304.374 171.586,304.211 170.960,304.202 169.200 C 304.193 167.440,304.349 166.626,304.550 167.391 C 304.750 168.156,304.757 169.596,304.566 170.591 M304.586 193.000 C 304.417 194.870,304.280 193.340,304.280 189.600 C 304.280 185.860,304.417 184.330,304.586 186.200 C 304.754 188.070,304.754 191.130,304.586 193.000 M302.100 200.359 C 301.365 201.482,300.453 202.400,300.075 202.400 C 299.696 202.400,299.198 203.120,298.968 204.000 C 298.738 204.880,297.976 205.600,297.275 205.600 C 296.574 205.600,296.000 206.116,296.000 206.746 C 296.000 207.376,295.280 208.121,294.400 208.400 C 293.520 208.679,292.800 209.276,292.800 209.725 C 292.800 210.757,286.229 217.188,284.495 217.853 C 283.783 218.126,283.200 218.901,283.200 219.575 C 283.200 220.249,282.660 220.800,282.000 220.800 C 281.340 220.800,280.800 221.094,280.800 221.453 C 280.800 222.457,273.045 230.400,272.065 230.400 C 271.589 230.400,271.200 230.974,271.200 231.675 C 271.200 232.376,270.480 233.138,269.600 233.368 C 268.720 233.598,268.000 234.272,268.000 234.865 C 268.000 235.458,267.280 236.329,266.400 236.800 C 265.520 237.271,264.800 238.184,264.800 238.828 C 264.800 239.473,264.273 240.000,263.628 240.000 C 262.984 240.000,262.071 240.720,261.600 241.600 C 261.129 242.480,260.216 243.200,259.572 243.200 C 258.927 243.200,258.400 243.727,258.400 244.372 C 258.400 245.016,257.680 245.929,256.800 246.400 C 255.920 246.871,255.200 247.784,255.200 248.428 C 255.200 249.073,254.856 249.600,254.436 249.600 C 254.016 249.600,252.756 250.516,251.636 251.636 C 250.516 252.756,249.600 254.016,249.600 254.436 C 249.600 254.856,248.880 255.200,248.000 255.200 C 246.933 255.200,246.400 255.733,246.400 256.800 C 246.400 257.867,245.867 258.400,244.800 258.400 C 243.920 258.400,243.200 258.927,243.200 259.572 C 243.200 260.216,242.480 261.129,241.600 261.600 C 240.720 262.071,240.000 262.984,240.000 263.628 C 240.000 264.273,239.280 264.800,238.400 264.800 C 237.469 264.800,236.800 265.333,236.800 266.075 C 236.800 266.776,236.080 267.538,235.200 267.768 C 234.320 267.998,233.600 268.823,233.600 269.600 C 233.600 270.377,232.880 271.202,232.000 271.432 C 231.120 271.662,230.400 272.424,230.400 273.125 C 230.400 273.826,229.826 274.400,229.125 274.400 C 228.424 274.400,227.662 275.120,227.432 276.000 C 227.202 276.880,226.504 277.600,225.881 277.600 C 225.258 277.600,224.488 278.305,224.169 279.167 C 223.795 280.177,223.226 280.511,222.570 280.105 C 221.865 279.669,229.947 271.020,248.775 252.060 C 263.749 236.982,276.000 224.320,276.000 223.923 C 276.000 223.525,276.388 223.200,276.862 223.200 C 277.335 223.200,278.775 222.148,280.062 220.862 C 281.348 219.575,282.400 218.135,282.400 217.662 C 282.400 217.188,282.974 216.800,283.675 216.800 C 284.376 216.800,285.138 216.080,285.368 215.200 C 285.598 214.320,286.260 213.600,286.839 213.600 C 287.418 213.600,288.121 212.880,288.400 212.000 C 288.679 211.120,289.249 210.400,289.667 210.400 C 290.084 210.400,291.410 209.299,292.613 207.952 C 293.816 206.606,296.091 204.176,297.668 202.552 C 299.246 200.929,300.788 198.910,301.095 198.066 C 301.505 196.938,301.888 196.768,302.545 197.425 C 303.202 198.082,303.085 198.857,302.100 200.359 M188.335 209.286 C 192.139 210.745,184.425 217.204,177.000 218.777 C 175.570 219.079,174.400 219.618,174.400 219.975 C 174.400 220.331,173.050 220.869,171.400 221.170 C 169.750 221.472,167.657 222.196,166.748 222.781 C 165.839 223.365,163.859 224.216,162.348 224.673 C 157.293 226.199,152.423 228.117,151.355 229.003 C 145.543 233.827,119.936 236.370,119.342 232.182 C 118.973 229.585,125.657 226.809,136.148 225.202 C 151.854 222.795,152.924 222.531,156.183 220.259 C 157.966 219.017,160.055 217.626,160.827 217.169 C 161.598 216.712,162.718 215.935,163.315 215.442 C 166.965 212.431,184.980 207.998,188.335 209.286 M196.561 228.218 C 199.686 231.344,193.057 234.312,178.000 236.528 C 167.090 238.134,159.641 240.327,157.104 242.679 C 155.937 243.761,154.041 245.115,152.891 245.689 C 151.741 246.262,150.260 247.142,149.600 247.644 C 145.871 250.481,131.002 253.670,127.918 252.294 C 126.167 251.513,126.178 251.475,128.943 248.711 C 132.272 245.381,137.347 242.874,149.200 238.704 C 150.960 238.085,153.300 237.090,154.400 236.492 C 155.500 235.895,157.840 235.148,159.600 234.832 C 161.360 234.516,163.160 233.967,163.600 233.614 C 166.176 231.543,170.909 229.578,175.193 228.801 C 177.892 228.312,180.887 227.576,181.850 227.165 C 184.823 225.898,194.967 226.624,196.561 228.218 M220.800 281.913 C 220.800 283.329,216.846 284.366,215.724 283.244 C 215.132 282.652,215.510 282.400,216.993 282.400 C 218.155 282.400,219.328 282.040,219.600 281.600 C 220.296 280.474,220.800 280.606,220.800 281.913 M193.344 282.999 C 182.424 283.125,164.784 283.125,154.144 282.999 C 143.505 282.873,152.440 282.770,174.000 282.770 C 195.560 282.771,204.265 282.874,193.344 282.999 " stroke="none" fill="#dfe0df" fill-rule="evenodd"></path></g></svg>