<svg id="svg" version="1.1" width="500" height="500" xmlns="http://www.w3.org/2000/svg" xmlns:xlink="http://www.w3.org/1999/xlink" style="display: block;"><g id="svgg"><path id="path0" d="M191.889 71.952 C 190.010 73.495,190.009 73.503,191.745 73.386 C 192.704 73.321,193.424 72.913,193.345 72.478 C 193.265 72.044,194.280 71.442,195.600 71.139 C 197.940 70.603,197.947 70.587,195.889 70.495 C 194.727 70.443,192.927 71.098,191.889 71.952 M204.000 72.400 C 204.548 73.060,205.356 73.600,205.796 73.600 C 206.242 73.600,206.156 73.069,205.600 72.400 C 205.052 71.740,204.244 71.200,203.804 71.200 C 203.358 71.200,203.444 71.731,204.000 72.400 M224.404 78.405 C 225.203 79.288,226.030 79.836,226.242 79.624 C 226.780 79.087,224.785 76.800,223.778 76.800 C 223.324 76.800,223.606 77.522,224.404 78.405 M165.954 81.135 C 165.101 81.759,164.614 82.481,164.873 82.739 C 165.132 82.998,165.997 82.488,166.796 81.605 C 168.495 79.727,168.146 79.532,165.954 81.135 M229.600 82.000 C 229.600 82.660,230.184 83.200,230.898 83.200 C 231.961 83.200,232.016 82.983,231.200 82.000 C 230.652 81.340,230.068 80.800,229.902 80.800 C 229.736 80.800,229.600 81.340,229.600 82.000 M143.655 103.939 C 142.328 105.406,142.331 105.469,143.731 105.264 C 144.539 105.146,145.316 104.453,145.459 103.724 C 145.795 102.001,145.362 102.053,143.655 103.939 M255.417 108.820 C 256.196 109.303,256.625 110.036,256.370 110.449 C 256.114 110.862,256.313 111.200,256.811 111.200 C 258.379 111.200,257.260 108.430,255.591 108.180 C 254.121 107.959,254.108 108.008,255.417 108.820 M136.276 115.635 C 135.569 117.477,136.210 117.578,137.940 115.897 C 139.321 114.554,139.339 114.400,138.115 114.400 C 137.364 114.400,136.537 114.956,136.276 115.635 M259.000 115.867 C 260.595 117.538,261.218 117.443,260.524 115.635 C 260.263 114.956,259.499 114.400,258.825 114.400 C 257.789 114.400,257.815 114.626,259.000 115.867 M132.524 122.263 C 131.796 123.068,131.200 124.318,131.200 125.042 C 131.200 125.765,130.529 127.897,129.709 129.779 C 127.009 135.974,125.433 141.136,124.878 145.600 C 124.578 148.020,123.827 150.900,123.212 152.000 C 119.462 158.697,119.036 201.459,122.638 209.600 C 123.319 211.140,124.664 215.100,125.626 218.400 C 128.768 229.173,131.053 234.747,136.278 244.374 C 137.225 246.120,138.360 247.959,138.800 248.461 C 139.240 248.962,140.500 250.911,141.600 252.790 C 142.700 254.670,145.490 258.181,147.800 260.592 C 150.110 263.003,152.000 265.296,152.000 265.688 C 152.000 266.080,152.324 266.400,152.720 266.400 C 153.116 266.400,154.700 267.660,156.240 269.200 C 157.780 270.740,159.368 272.000,159.769 272.000 C 160.170 272.000,161.297 272.744,162.272 273.653 C 164.876 276.079,177.195 282.398,179.348 282.412 C 182.332 282.432,187.160 289.210,187.192 293.425 C 187.196 293.989,187.740 294.657,188.400 294.911 C 189.060 295.164,189.600 295.999,189.600 296.767 C 189.600 297.535,190.590 299.251,191.800 300.580 C 193.010 301.910,194.540 303.681,195.200 304.516 C 195.860 305.351,198.360 306.927,200.756 308.017 C 205.491 310.172,208.383 312.626,209.192 315.174 C 209.476 316.068,210.019 316.800,210.400 316.800 C 210.781 316.800,211.321 317.520,211.600 318.400 C 211.879 319.280,212.624 320.000,213.254 320.000 C 213.884 320.000,214.400 320.321,214.400 320.713 C 214.400 321.733,220.412 324.000,223.116 324.000 C 235.910 324.000,241.590 311.862,234.790 299.056 C 231.907 293.626,229.600 291.544,229.600 294.371 C 229.600 295.208,230.282 296.109,231.116 296.373 C 232.455 296.798,232.619 297.619,232.516 303.368 C 232.378 311.140,231.713 311.597,221.645 310.841 C 215.071 310.348,214.430 309.864,214.412 305.375 C 214.405 303.468,213.968 302.184,213.230 301.901 C 212.587 301.654,211.857 300.811,211.608 300.026 C 211.288 299.016,209.985 298.445,207.140 298.068 C 204.912 297.772,202.939 297.051,202.707 296.446 C 202.477 295.848,201.594 295.176,200.745 294.954 C 199.895 294.732,199.200 293.976,199.200 293.275 C 199.200 292.574,198.651 292.000,197.980 292.000 C 197.309 292.000,196.418 291.100,196.000 290.000 C 195.582 288.900,194.691 288.000,194.020 288.000 C 193.273 288.000,192.800 287.272,192.800 286.122 C 192.800 285.090,192.080 283.415,191.200 282.400 C 190.320 281.385,189.600 280.070,189.600 279.478 C 189.600 278.035,188.399 278.116,186.853 279.661 C 185.813 280.701,185.117 280.765,182.877 280.025 C 181.383 279.532,179.171 279.378,177.961 279.681 C 176.415 280.069,175.928 279.964,176.322 279.326 C 176.695 278.723,176.422 278.595,175.510 278.945 C 174.619 279.287,174.328 279.163,174.682 278.591 C 174.981 278.107,174.805 277.450,174.289 277.132 C 173.704 276.770,173.567 276.900,173.924 277.476 C 174.640 278.636,174.196 278.637,171.663 277.483 C 170.556 276.979,169.838 276.263,170.067 275.892 C 170.296 275.522,169.865 275.455,169.110 275.745 C 168.219 276.087,167.928 275.963,168.282 275.391 C 168.581 274.907,168.405 274.250,167.889 273.932 C 167.304 273.570,167.167 273.700,167.524 274.276 C 167.838 274.784,167.713 275.200,167.247 275.200 C 166.781 275.200,166.400 274.681,166.400 274.047 C 166.400 273.413,165.984 272.638,165.476 272.324 C 164.867 271.947,164.755 272.135,165.146 272.876 C 165.472 273.494,164.956 273.100,164.000 272.000 C 163.044 270.900,162.494 270.450,162.778 271.000 C 163.627 272.644,162.471 272.139,160.165 269.858 C 158.974 268.680,158.720 268.224,159.600 268.844 C 161.179 269.958,161.180 269.949,159.693 268.205 C 158.864 267.233,157.819 266.665,157.369 266.942 C 156.920 267.220,156.792 267.060,157.084 266.588 C 157.701 265.589,153.751 262.212,152.715 262.852 C 152.332 263.089,152.203 262.801,152.430 262.211 C 152.836 261.153,148.783 256.620,147.475 256.669 C 147.104 256.684,146.898 256.211,147.018 255.620 C 147.139 255.029,146.059 253.576,144.618 252.391 C 143.178 251.207,142.506 250.510,143.124 250.842 C 143.868 251.243,144.054 251.135,143.676 250.524 C 143.362 250.016,142.587 249.600,141.953 249.600 C 141.319 249.600,140.800 249.219,140.800 248.753 C 140.800 248.287,141.216 248.162,141.724 248.476 C 142.300 248.833,142.430 248.696,142.068 248.111 C 141.750 247.595,141.093 247.419,140.609 247.718 C 140.037 248.072,139.913 247.781,140.255 246.890 C 140.610 245.965,140.479 245.704,139.855 246.090 C 139.230 246.476,139.100 246.215,139.455 245.290 C 139.745 244.535,139.664 244.114,139.275 244.354 C 138.886 244.594,138.354 244.234,138.093 243.554 C 137.821 242.846,137.956 242.526,138.409 242.806 C 138.844 243.074,139.200 242.955,139.200 242.541 C 139.200 242.126,138.433 241.586,137.496 241.341 C 136.364 241.045,135.952 240.480,136.267 239.657 C 136.531 238.971,136.354 238.504,135.871 238.610 C 135.392 238.714,134.818 238.300,134.596 237.689 C 134.325 236.943,134.531 236.786,135.220 237.212 C 135.899 237.632,136.051 237.529,135.668 236.911 C 135.350 236.395,134.716 236.205,134.259 236.487 C 133.728 236.815,133.623 236.386,133.968 235.300 C 134.300 234.253,134.161 233.600,133.607 233.600 C 133.111 233.600,132.903 233.281,133.143 232.892 C 133.827 231.786,131.942 227.142,131.036 227.701 C 130.533 228.012,130.432 227.560,130.768 226.500 C 131.100 225.453,130.961 224.800,130.407 224.800 C 129.911 224.800,129.730 224.437,130.004 223.993 C 130.670 222.915,129.665 219.865,128.817 220.389 C 128.450 220.616,128.352 220.025,128.601 219.076 C 128.907 217.905,128.758 217.531,128.138 217.915 C 127.496 218.312,127.365 217.773,127.699 216.103 C 128.034 214.428,127.527 212.347,125.984 209.063 C 124.031 204.908,123.807 203.572,123.925 196.800 C 124.007 192.098,123.784 189.607,123.340 190.267 C 122.047 192.191,121.600 189.144,121.600 178.400 C 121.600 167.647,122.046 164.613,123.344 166.533 C 123.790 167.192,123.866 166.151,123.544 163.810 C 122.961 159.580,123.635 155.680,124.823 156.414 C 125.654 156.927,125.750 156.703,126.032 153.600 C 126.637 146.959,127.333 143.577,128.326 142.463 C 129.326 141.342,130.994 132.649,130.537 130.941 C 130.440 130.578,130.732 130.511,131.186 130.791 C 132.086 131.347,132.546 130.432,133.142 126.902 C 133.355 125.638,134.085 123.990,134.765 123.239 C 135.444 122.488,136.000 121.632,136.000 121.337 C 136.000 120.257,133.812 120.840,132.524 122.263 M260.800 121.476 C 260.800 121.848,261.520 122.804,262.400 123.600 C 263.280 124.396,264.000 126.054,264.000 127.284 C 264.000 128.514,264.545 129.825,265.211 130.198 C 265.961 130.618,266.584 132.535,266.850 135.238 C 267.394 140.781,267.766 141.839,268.918 141.127 C 269.475 140.783,269.632 140.901,269.311 141.421 C 269.015 141.899,269.140 142.516,269.587 142.792 C 270.034 143.068,270.400 143.993,270.400 144.847 C 270.400 145.701,270.940 146.400,271.600 146.400 C 272.985 146.400,272.969 146.242,272.809 158.493 C 272.707 166.274,272.892 167.864,273.944 168.268 C 274.996 168.671,275.200 170.433,275.200 179.109 C 275.200 189.657,274.825 192.357,273.476 191.524 C 273.008 191.234,272.934 193.417,273.282 197.250 C 273.674 201.577,273.585 203.285,272.987 202.915 C 272.073 202.351,270.691 206.958,271.524 207.791 C 271.786 208.052,272.000 207.427,272.000 206.400 C 272.000 205.373,272.214 204.748,272.476 205.009 C 272.738 205.271,272.699 206.639,272.389 208.049 C 272.017 209.744,271.614 210.270,271.201 209.601 C 270.276 208.104,269.411 211.370,270.054 213.932 C 270.392 215.278,270.245 216.000,269.633 216.000 C 269.038 216.000,268.890 216.625,269.232 217.700 C 269.566 218.753,269.466 219.212,268.970 218.905 C 268.129 218.386,266.854 220.721,267.581 221.448 C 267.812 221.678,268.000 221.387,268.000 220.800 C 268.000 220.213,268.188 219.922,268.419 220.152 C 269.155 220.888,267.865 223.211,267.012 222.684 C 266.553 222.400,266.365 222.666,266.585 223.289 C 266.801 223.900,266.292 225.840,265.453 227.600 C 264.412 229.784,264.320 230.307,265.164 229.247 C 266.630 227.405,266.749 227.959,265.483 230.737 C 264.979 231.844,264.263 232.562,263.892 232.333 C 263.522 232.104,263.455 232.535,263.745 233.290 C 264.133 234.301,263.990 234.488,263.200 234.000 C 262.418 233.517,262.265 233.695,262.635 234.659 C 262.928 235.422,262.774 235.900,262.271 235.790 C 261.792 235.686,261.218 236.100,260.996 236.711 C 260.751 237.386,260.944 237.606,261.487 237.270 C 262.056 236.918,262.209 237.167,261.907 237.954 C 261.646 238.634,261.049 238.954,260.580 238.664 C 260.066 238.347,259.909 238.609,260.184 239.326 C 260.445 240.005,259.988 240.922,259.120 241.464 C 258.284 241.986,257.606 242.861,257.612 243.407 C 257.620 244.074,257.908 244.006,258.488 243.200 C 259.206 242.202,259.271 242.247,258.875 243.465 C 258.614 244.271,258.400 245.103,258.400 245.313 C 258.400 245.523,258.044 245.474,257.609 245.206 C 257.139 244.915,257.032 245.274,257.345 246.090 C 257.700 247.015,257.570 247.276,256.945 246.890 C 256.367 246.532,256.176 246.728,256.437 247.409 C 256.668 248.010,256.062 249.198,255.091 250.050 C 253.930 251.069,253.528 251.188,253.917 250.400 C 254.243 249.740,253.399 250.454,252.041 251.987 C 250.683 253.519,249.737 255.203,249.938 255.728 C 250.140 256.253,249.696 257.159,248.952 257.742 C 247.709 258.714,247.697 258.671,248.800 257.200 C 249.920 255.707,249.904 255.675,248.564 256.728 C 247.774 257.349,247.305 258.320,247.523 258.887 C 247.755 259.491,247.491 259.755,246.887 259.523 C 245.616 259.035,243.673 261.223,244.373 262.356 C 244.670 262.836,244.397 262.995,243.722 262.736 C 243.084 262.491,242.290 262.731,241.957 263.269 C 241.546 263.934,241.712 264.061,242.476 263.664 C 243.094 263.344,242.991 263.583,242.246 264.195 C 241.501 264.808,240.241 266.022,239.446 266.892 C 238.651 267.763,238.360 267.950,238.800 267.307 C 239.466 266.333,239.331 266.281,237.991 266.995 C 235.936 268.089,233.077 271.230,233.600 271.818 C 233.820 272.065,233.172 272.328,232.159 272.403 C 231.147 272.478,229.707 273.188,228.959 273.982 C 228.146 274.846,228.051 275.170,228.724 274.789 C 229.500 274.350,229.660 274.455,229.243 275.131 C 228.910 275.669,228.116 275.909,227.478 275.664 C 226.839 275.419,226.514 275.536,226.754 275.925 C 227.316 276.835,224.923 277.771,223.804 277.079 C 223.277 276.753,223.190 276.937,223.577 277.562 C 224.041 278.313,223.739 278.425,222.400 278.000 C 221.258 277.638,220.783 277.725,221.101 278.240 C 221.409 278.738,220.932 278.876,219.866 278.597 C 218.462 278.230,218.232 278.409,218.665 279.537 C 218.959 280.304,219.200 281.081,219.200 281.265 C 219.200 282.794,225.605 279.757,234.119 274.189 C 239.536 270.648,253.600 257.267,253.600 255.655 C 253.600 255.241,254.294 254.160,255.143 253.252 C 255.992 252.343,257.728 249.620,259.001 247.200 C 260.274 244.780,262.336 241.188,263.583 239.217 C 264.830 237.246,266.135 234.546,266.482 233.217 C 266.829 231.888,268.202 227.740,269.534 224.000 C 270.866 220.260,272.357 215.040,272.848 212.400 C 273.339 209.760,274.019 207.240,274.361 206.800 C 277.353 202.941,277.002 153.292,273.935 146.578 C 270.242 138.495,269.734 137.244,269.148 134.800 C 268.832 133.480,267.904 131.064,267.086 129.432 C 266.269 127.799,265.600 125.704,265.600 124.775 C 265.600 123.846,265.086 122.571,264.457 121.943 C 263.212 120.698,260.800 120.390,260.800 121.476 M273.916 179.600 C 273.917 185.760,274.042 188.174,274.195 184.965 C 274.347 181.756,274.346 176.716,274.192 173.765 C 274.039 170.814,273.914 173.440,273.916 179.600 M122.699 179.600 C 122.701 184.440,122.833 186.317,122.992 183.771 C 123.151 181.225,123.150 177.265,122.989 174.971 C 122.828 172.677,122.697 174.760,122.699 179.600 M211.200 279.220 C 211.200 279.649,212.520 280.000,214.133 280.000 C 217.562 280.000,217.446 279.629,213.800 278.935 C 212.306 278.651,211.200 278.772,211.200 279.220 " stroke="none" fill="#000000" fill-rule="evenodd"></path><path id="path1" d="M192.925 72.249 C 192.294 73.009,192.475 73.295,193.641 73.383 C 194.498 73.448,195.200 73.142,195.200 72.703 C 195.200 72.264,195.535 72.113,195.945 72.366 C 196.354 72.619,196.868 72.537,197.087 72.183 C 197.756 71.100,193.827 71.163,192.925 72.249 M199.747 72.017 C 200.961 73.139,204.000 73.737,204.000 72.854 C 204.000 71.954,203.888 71.908,200.947 71.605 C 199.927 71.499,199.387 71.685,199.747 72.017 M172.457 78.057 C 170.890 79.624,170.879 80.000,172.400 80.000 C 173.060 80.000,173.600 79.490,173.600 78.867 C 173.600 78.243,174.050 77.552,174.600 77.330 C 175.304 77.046,175.321 76.908,174.657 76.863 C 174.139 76.828,173.149 77.366,172.457 78.057 M232.812 83.702 C 232.836 85.078,234.195 86.578,234.691 85.776 C 234.961 85.339,234.646 84.536,233.991 83.993 C 233.336 83.449,232.806 83.318,232.812 83.702 M140.012 110.378 C 139.024 112.223,140.124 112.578,141.541 110.871 C 142.145 110.143,142.194 109.567,141.679 109.249 C 141.240 108.977,140.490 109.485,140.012 110.378 M254.400 110.000 C 254.400 110.733,254.787 111.204,255.260 111.047 C 255.733 110.889,256.120 110.418,256.120 110.000 C 256.120 109.582,255.733 109.111,255.260 108.953 C 254.787 108.796,254.400 109.267,254.400 110.000 M137.295 116.419 C 135.334 118.380,135.744 119.501,137.742 117.640 C 138.700 116.747,139.283 115.816,139.037 115.570 C 138.791 115.325,138.008 115.707,137.295 116.419 M257.750 116.050 C 257.943 116.628,258.572 117.258,259.150 117.450 C 259.750 117.650,260.050 117.350,259.850 116.750 C 259.657 116.172,259.028 115.543,258.450 115.350 C 257.850 115.150,257.550 115.450,257.750 116.050 M134.339 121.753 C 133.769 124.056,133.894 124.637,134.879 124.259 C 136.189 123.756,136.339 122.704,135.200 122.000 C 134.760 121.728,134.372 121.617,134.339 121.753 M261.125 122.521 C 260.812 123.028,261.092 123.838,261.748 124.321 C 262.404 124.805,263.150 125.740,263.407 126.400 C 263.799 127.408,263.884 127.392,263.937 126.298 C 263.972 125.582,263.464 124.551,262.809 124.007 C 262.154 123.464,261.815 122.699,262.056 122.309 C 262.297 121.919,262.314 121.600,262.094 121.600 C 261.874 121.600,261.438 122.015,261.125 122.521 M132.504 130.016 C 132.233 130.723,131.723 131.124,131.372 130.906 C 131.020 130.689,130.678 131.228,130.612 132.105 C 130.507 133.505,130.692 133.445,132.137 131.607 C 133.042 130.457,133.606 129.339,133.390 129.123 C 133.174 128.908,132.776 129.309,132.504 130.016 M264.025 130.225 C 264.059 130.991,266.060 133.600,266.613 133.600 C 267.514 133.600,266.197 130.493,265.121 130.080 C 264.505 129.844,264.011 129.909,264.025 130.225 M128.222 142.600 C 127.797 143.150,127.208 144.320,126.914 145.200 C 126.482 146.492,126.685 146.415,127.972 144.800 C 129.454 142.939,130.009 141.600,129.298 141.600 C 129.132 141.600,128.648 142.050,128.222 142.600 M271.251 147.661 C 272.084 148.665,272.093 149.048,271.295 149.541 C 270.552 150.001,270.391 152.416,270.672 158.880 C 271.095 168.599,271.233 169.674,271.998 169.201 C 272.290 169.021,272.478 173.383,272.416 178.896 C 272.329 186.656,272.044 189.082,271.152 189.647 C 270.161 190.273,270.168 190.379,271.200 190.400 C 272.187 190.420,272.206 190.547,271.304 191.119 C 270.434 191.670,270.367 192.732,270.978 196.275 C 271.400 198.730,271.481 200.574,271.157 200.373 C 270.334 199.865,269.480 202.358,270.121 203.396 C 270.447 203.923,270.263 204.010,269.638 203.623 C 268.892 203.163,268.773 203.454,269.180 204.738 C 269.509 205.774,269.301 207.009,268.666 207.792 C 267.902 208.734,267.884 208.937,268.600 208.506 C 269.150 208.176,269.600 208.266,269.600 208.706 C 269.600 209.146,269.318 209.680,268.974 209.893 C 267.909 210.551,268.330 215.442,269.484 215.828 C 270.312 216.104,270.441 215.607,270.028 213.725 C 269.730 212.370,269.861 210.617,270.319 209.831 C 270.972 208.708,271.168 208.658,271.226 209.600 C 271.268 210.260,271.652 209.922,272.081 208.848 C 272.510 207.775,272.628 205.840,272.345 204.548 C 271.955 202.776,272.076 202.352,272.836 202.822 C 273.630 203.313,273.724 202.133,273.282 197.250 C 272.934 193.417,273.008 191.234,273.476 191.524 C 274.825 192.357,275.200 189.657,275.200 179.109 C 275.200 170.433,274.996 168.671,273.944 168.268 C 272.892 167.864,272.707 166.274,272.809 158.493 C 272.969 146.184,272.993 146.400,271.502 146.400 C 270.411 146.400,270.371 146.601,271.251 147.661 M126.224 150.435 C 126.028 151.775,126.167 153.056,126.533 153.282 C 126.900 153.509,127.200 152.413,127.200 150.847 C 127.200 147.358,126.706 147.150,126.224 150.435 M125.891 155.595 C 125.639 156.253,125.121 156.598,124.740 156.363 C 123.625 155.674,122.978 159.706,123.544 163.810 C 123.866 166.151,123.790 167.192,123.344 166.533 C 122.046 164.613,121.600 167.647,121.600 178.400 C 121.600 189.144,122.047 192.191,123.340 190.267 C 123.784 189.607,124.007 192.098,123.925 196.800 C 123.807 203.572,124.031 204.908,125.984 209.063 C 127.527 212.347,128.034 214.428,127.699 216.103 C 127.365 217.773,127.496 218.312,128.138 217.915 C 128.758 217.531,128.907 217.905,128.601 219.076 C 128.352 220.025,128.450 220.616,128.817 220.389 C 129.665 219.865,130.670 222.915,130.004 223.993 C 129.730 224.437,129.911 224.800,130.407 224.800 C 130.961 224.800,131.100 225.453,130.768 226.500 C 130.424 227.584,130.529 228.015,131.057 227.689 C 132.077 227.058,133.120 230.034,132.328 231.316 C 131.944 231.938,132.104 232.030,132.812 231.592 C 133.582 231.117,133.732 231.302,133.361 232.269 C 133.080 233.002,133.237 233.600,133.711 233.600 C 134.184 233.600,134.354 234.166,134.088 234.858 C 133.497 236.399,134.994 239.422,136.031 238.781 C 136.446 238.525,136.560 238.894,136.287 239.606 C 135.949 240.488,136.331 241.036,137.496 241.341 C 138.433 241.586,139.200 242.126,139.200 242.541 C 139.200 242.955,138.832 243.067,138.382 242.789 C 137.932 242.511,138.364 243.930,139.341 245.942 C 140.319 247.954,141.566 249.600,142.112 249.600 C 142.659 249.600,143.362 250.016,143.676 250.524 C 144.052 251.131,143.862 251.248,143.124 250.864 C 142.506 250.544,142.624 250.794,143.388 251.420 C 144.151 252.046,144.511 252.850,144.188 253.207 C 143.864 253.564,144.009 253.623,144.509 253.337 C 145.604 252.712,147.348 254.610,147.028 256.079 C 146.903 256.656,147.340 257.144,148.000 257.164 C 148.660 257.184,149.200 257.740,149.200 258.400 C 149.200 259.060,149.560 259.606,150.000 259.612 C 151.579 259.636,152.901 260.984,152.464 262.122 C 152.219 262.761,152.332 263.089,152.715 262.852 C 153.686 262.252,157.721 265.557,157.148 266.484 C 156.891 266.900,157.141 267.141,157.704 267.020 C 158.267 266.899,158.749 267.160,158.776 267.600 C 158.874 269.215,160.072 270.295,161.635 270.177 C 162.637 270.102,163.082 269.646,162.820 268.963 C 162.589 268.361,162.400 267.719,162.400 267.535 C 162.400 267.351,162.019 267.200,161.553 267.200 C 161.087 267.200,160.913 267.535,161.166 267.945 C 161.419 268.354,161.170 268.952,160.613 269.273 C 160.056 269.594,159.861 269.568,160.179 269.216 C 160.815 268.512,158.435 264.000,157.428 264.000 C 157.082 264.000,156.800 263.460,156.800 262.800 C 156.800 262.140,156.260 261.600,155.600 261.600 C 154.940 261.600,154.400 261.060,154.400 260.400 C 154.400 259.740,153.916 259.200,153.324 259.200 C 152.732 259.200,151.585 258.467,150.774 257.572 C 149.964 256.676,148.738 256.137,148.050 256.374 C 147.073 256.710,147.101 256.569,148.182 255.727 C 149.464 254.728,149.423 254.576,147.609 253.605 C 146.534 253.030,145.818 252.294,146.018 251.970 C 146.219 251.646,145.846 250.936,145.191 250.393 C 144.536 249.849,144.000 248.908,144.000 248.302 C 144.000 247.696,143.619 247.200,143.153 247.200 C 142.687 247.200,142.528 246.840,142.800 246.400 C 143.072 245.960,142.875 245.600,142.362 245.600 C 141.847 245.600,141.643 245.043,141.905 244.358 C 142.217 243.547,142.060 243.315,141.455 243.690 C 140.830 244.076,140.700 243.815,141.055 242.890 C 141.368 242.074,141.261 241.715,140.791 242.006 C 140.356 242.274,140.000 241.933,140.000 241.247 C 140.000 240.561,139.580 240.000,139.067 240.000 C 138.553 240.000,138.356 239.777,138.629 239.505 C 138.901 239.232,138.691 238.525,138.162 237.933 C 135.861 235.356,135.167 234.400,135.597 234.400 C 135.849 234.400,135.658 233.657,135.172 232.748 C 134.686 231.840,134.167 230.490,134.020 229.748 C 133.393 226.597,133.159 225.970,132.400 225.412 C 131.925 225.063,132.068 224.820,132.753 224.812 C 133.591 224.803,133.482 224.457,132.353 223.541 C 131.499 222.848,131.251 222.510,131.802 222.789 C 133.333 223.565,132.588 220.381,130.756 218.319 L 129.200 216.567 131.200 217.528 C 133.089 218.435,133.114 218.419,131.640 217.239 C 130.698 216.484,130.062 214.963,130.033 213.395 C 130.006 211.968,129.194 209.315,128.227 207.499 C 127.260 205.684,126.693 203.974,126.968 203.699 C 127.242 203.425,127.133 203.200,126.726 203.200 C 126.315 203.200,126.044 199.903,126.117 195.802 C 126.190 191.733,126.083 188.135,125.880 187.806 C 125.108 186.556,125.042 161.974,125.809 161.000 C 126.242 160.450,126.410 160.000,126.182 160.000 C 125.955 160.000,126.053 158.740,126.400 157.200 C 127.039 154.366,126.733 153.401,125.891 155.595 M274.195 184.965 C 274.042 188.174,273.917 185.760,273.916 179.600 C 273.914 173.440,274.039 170.814,274.192 173.765 C 274.346 176.716,274.347 181.756,274.195 184.965 M122.992 183.771 C 122.833 186.317,122.701 184.440,122.699 179.600 C 122.697 174.760,122.828 172.677,122.989 174.971 C 123.150 177.265,123.151 181.225,122.992 183.771 M266.899 216.640 C 266.681 216.992,267.200 217.715,268.052 218.247 C 269.731 219.295,269.851 219.184,269.114 217.265 C 268.592 215.903,267.538 215.606,266.899 216.640 M265.947 219.800 C 265.486 220.570,265.168 222.370,265.240 223.800 C 265.324 225.465,264.998 226.400,264.333 226.400 C 263.762 226.400,263.074 226.756,262.806 227.191 C 262.533 227.632,262.829 227.785,263.478 227.536 C 265.015 226.946,266.034 228.688,264.843 229.870 C 264.128 230.579,264.044 230.435,264.491 229.261 C 264.965 228.018,264.808 227.826,263.673 228.261 C 262.901 228.558,262.029 228.806,261.735 228.812 C 261.441 228.819,261.740 229.173,262.400 229.600 C 263.395 230.243,263.327 230.380,262.000 230.400 C 260.673 230.420,260.605 230.557,261.600 231.200 C 262.652 231.880,262.643 231.977,261.533 231.988 C 260.837 231.994,260.236 232.450,260.198 233.000 C 259.947 236.629,257.878 241.600,256.618 241.600 C 256.226 241.600,256.128 241.960,256.400 242.400 C 256.672 242.840,256.333 243.200,255.647 243.200 C 254.961 243.200,254.400 243.581,254.400 244.047 C 254.400 244.513,254.850 244.624,255.400 244.294 C 256.079 243.885,256.048 244.127,255.302 245.046 C 254.274 246.314,254.614 246.777,256.335 246.450 C 258.081 246.118,255.022 248.571,252.414 249.595 C 250.730 250.255,249.709 251.130,249.935 251.718 C 250.146 252.268,249.591 252.949,248.701 253.231 C 247.812 253.514,247.259 254.199,247.472 254.755 C 247.685 255.310,247.171 256.354,246.330 257.075 C 245.488 257.795,244.786 258.118,244.768 257.792 C 244.750 257.466,244.193 258.201,243.530 259.424 C 242.867 260.647,241.981 261.436,241.562 261.177 C 241.143 260.918,240.800 261.267,240.800 261.953 C 240.800 262.639,240.200 263.200,239.467 263.200 C 238.733 263.200,238.356 263.423,238.629 263.695 C 239.339 264.405,237.147 266.400,235.657 266.400 C 234.966 266.400,234.487 266.670,234.594 267.000 C 234.935 268.058,232.450 270.791,230.906 271.057 C 230.084 271.198,228.679 271.995,227.784 272.829 C 226.890 273.663,225.852 274.156,225.479 273.925 C 225.105 273.694,224.800 274.226,224.800 275.106 C 224.800 275.986,224.444 276.926,224.009 277.194 C 223.568 277.467,223.415 277.171,223.664 276.522 C 224.297 274.872,222.771 274.189,221.600 275.600 C 221.060 276.250,220.299 276.585,219.909 276.344 C 219.519 276.103,219.200 276.245,219.200 276.659 C 219.200 277.074,218.480 277.602,217.600 277.832 C 216.720 278.062,216.000 277.864,216.000 277.392 C 216.000 276.920,215.774 276.759,215.499 277.035 C 215.223 277.311,213.963 277.001,212.699 276.348 L 210.400 275.159 210.463 277.779 C 210.498 279.221,210.703 279.964,210.919 279.431 C 211.432 278.167,215.890 278.982,217.906 280.710 C 219.332 281.931,219.381 281.897,218.815 280.083 C 218.293 278.408,218.432 278.222,219.910 278.608 C 221.000 278.893,221.413 278.744,221.070 278.189 C 220.730 277.639,221.034 277.519,221.915 277.857 C 223.184 278.344,229.600 275.739,229.600 274.737 C 229.600 274.500,229.150 274.558,228.600 274.865 C 228.050 275.173,228.212 274.776,228.959 273.982 C 229.707 273.188,231.147 272.478,232.159 272.403 C 233.172 272.328,233.932 271.937,233.848 271.534 C 233.665 270.644,236.795 267.200,237.787 267.200 C 238.176 267.200,238.242 267.650,237.935 268.200 C 237.627 268.750,238.055 268.480,238.887 267.600 C 239.719 266.720,241.120 265.339,242.000 264.531 C 242.880 263.722,243.094 263.328,242.476 263.654 C 241.710 264.059,241.545 263.936,241.957 263.269 C 242.290 262.731,243.047 262.477,243.640 262.705 C 244.289 262.954,244.561 262.708,244.323 262.087 C 243.835 260.816,246.023 258.873,247.156 259.573 C 247.668 259.889,247.785 259.535,247.463 258.642 C 247.178 257.849,247.239 257.467,247.599 257.793 C 248.433 258.549,250.530 256.857,249.941 255.904 C 249.376 254.990,252.712 250.251,253.554 250.772 C 254.900 251.603,259.710 243.873,258.782 242.371 C 258.516 241.941,258.839 241.381,259.499 241.128 C 260.202 240.858,260.498 240.144,260.214 239.403 C 259.914 238.623,260.055 238.339,260.580 238.664 C 261.049 238.954,261.646 238.634,261.907 237.954 C 262.209 237.167,262.056 236.918,261.487 237.270 C 260.944 237.606,260.751 237.386,260.996 236.711 C 261.218 236.100,261.792 235.686,262.271 235.790 C 262.774 235.900,262.928 235.422,262.635 234.659 C 262.328 233.859,262.451 233.537,262.947 233.844 C 264.385 234.732,266.358 229.095,266.468 223.783 C 266.484 223.003,266.797 222.551,267.165 222.778 C 268.068 223.336,268.862 221.092,268.289 219.600 C 267.684 218.023,266.974 218.084,265.947 219.800 M163.624 270.361 C 163.330 270.837,162.754 271.019,162.345 270.766 C 161.935 270.513,161.600 270.717,161.600 271.219 C 161.600 271.722,162.050 271.982,162.600 271.796 C 163.150 271.611,164.077 272.031,164.659 272.730 C 165.289 273.485,165.482 273.545,165.136 272.876 C 164.752 272.138,164.869 271.948,165.476 272.324 C 165.984 272.638,166.400 273.336,166.400 273.876 C 166.400 275.328,176.646 280.157,178.488 279.572 C 179.334 279.304,181.278 279.498,182.809 280.003 C 185.125 280.767,185.804 280.710,186.853 279.661 C 188.399 278.116,189.600 278.035,189.600 279.478 C 189.600 280.070,190.320 281.385,191.200 282.400 C 193.315 284.839,193.315 282.794,191.200 279.600 C 190.326 278.280,189.598 276.120,189.582 274.800 L 189.553 272.400 187.010 275.200 C 184.258 278.229,180.436 279.091,179.585 276.873 C 179.173 275.800,179.020 275.794,178.369 276.822 C 177.942 277.499,177.619 277.604,177.612 277.071 C 177.606 276.560,176.970 276.248,176.200 276.377 C 175.430 276.507,174.920 277.105,175.067 277.706 C 175.213 278.308,175.038 278.505,174.677 278.144 C 174.316 277.782,174.016 276.883,174.010 276.146 C 174.005 275.408,173.640 274.778,173.200 274.745 C 171.389 274.611,168.085 272.510,168.536 271.779 C 168.804 271.346,168.523 271.172,167.911 271.392 C 167.300 271.611,166.206 271.275,165.479 270.643 C 164.576 269.858,163.990 269.769,163.624 270.361 M192.825 286.200 C 192.810 287.291,193.281 288.000,194.020 288.000 C 194.691 288.000,195.582 288.900,196.000 290.000 C 196.418 291.100,197.309 292.000,197.980 292.000 C 198.651 292.000,199.200 292.551,199.200 293.225 C 199.200 293.899,199.830 294.682,200.600 294.965 C 201.370 295.248,202.282 295.946,202.626 296.516 C 202.971 297.086,205.031 297.788,207.204 298.076 C 209.992 298.446,211.289 299.020,211.608 300.026 C 212.065 301.464,214.400 302.885,214.400 301.726 C 214.400 300.454,211.087 297.600,209.611 297.600 C 208.772 297.600,206.473 296.743,204.504 295.696 C 201.084 293.878,199.185 292.134,194.816 286.800 C 192.950 284.522,192.849 284.491,192.825 286.200 M214.505 305.335 C 214.349 309.102,215.115 310.401,217.486 310.388 L 219.600 310.376 217.600 309.367 C 216.258 308.690,215.437 307.443,215.105 305.579 L 214.611 302.800 214.505 305.335 M230.846 309.265 C 229.548 310.214,229.508 310.400,230.600 310.400 C 231.318 310.400,232.143 310.016,232.433 309.547 C 233.281 308.175,232.521 308.040,230.846 309.265 M222.214 310.980 C 223.652 311.158,225.812 311.154,227.014 310.972 C 228.216 310.789,227.040 310.643,224.400 310.648 C 221.760 310.652,220.776 310.802,222.214 310.980 " stroke="none" fill="#3b3b3b" fill-rule="evenodd"></path><path id="path2" d="M196.966 71.800 C 196.336 72.660,196.129 72.737,196.430 72.000 C 196.811 71.065,196.682 71.086,195.848 72.095 C 195.040 73.072,192.851 73.484,186.954 73.770 C 181.992 74.011,178.777 74.531,178.165 75.192 C 177.400 76.019,177.433 76.102,178.324 75.594 C 179.022 75.195,179.256 75.263,178.940 75.773 C 178.661 76.224,177.346 76.811,176.017 77.077 C 174.596 77.361,173.600 78.063,173.600 78.780 C 173.600 79.643,172.773 80.000,170.774 80.000 C 168.591 80.000,167.784 80.410,167.225 81.800 C 166.827 82.790,166.479 83.286,166.451 82.902 C 166.423 82.518,165.898 82.621,165.284 83.130 C 164.671 83.639,163.697 83.954,163.121 83.828 C 162.544 83.703,162.056 84.140,162.036 84.800 C 162.016 85.460,161.190 86.115,160.200 86.256 C 159.043 86.420,158.400 87.063,158.400 88.056 C 158.400 89.037,157.848 89.600,156.887 89.600 C 155.940 89.600,155.186 90.348,154.871 91.600 C 154.595 92.700,153.836 93.600,153.185 93.600 C 152.533 93.600,152.000 93.960,152.000 94.400 C 152.000 94.840,151.280 95.920,150.400 96.800 C 149.520 97.680,148.794 99.030,148.788 99.800 C 148.779 100.829,148.603 100.928,148.124 100.174 C 147.682 99.477,147.132 100.183,146.409 102.374 C 145.823 104.148,144.850 105.600,144.247 105.600 C 143.133 105.600,142.440 106.765,142.075 109.248 C 141.964 110.003,141.348 111.022,140.705 111.511 C 140.063 112.000,139.480 113.256,139.411 114.301 C 139.341 115.347,138.545 116.891,137.642 117.732 C 136.739 118.574,136.000 120.199,136.000 121.343 C 136.000 122.487,135.460 123.823,134.801 124.312 C 134.142 124.800,133.505 126.280,133.387 127.600 C 133.269 128.920,132.591 130.900,131.881 132.000 C 131.171 133.100,130.387 135.874,130.137 138.164 C 129.888 140.454,129.164 143.154,128.529 144.164 C 127.622 145.606,126.637 152.378,126.422 158.647 C 126.410 159.003,125.950 159.024,125.400 158.694 C 124.650 158.243,124.660 158.414,125.439 159.375 C 126.010 160.081,126.153 160.858,125.756 161.103 C 125.050 161.540,125.172 186.661,125.887 187.817 C 126.086 188.140,126.190 191.733,126.117 195.802 C 126.044 199.871,126.279 203.200,126.640 203.200 C 127.000 203.200,127.115 203.490,126.895 203.846 C 126.676 204.201,127.329 205.956,128.346 207.747 C 129.534 209.838,130.142 212.111,130.046 214.101 C 129.959 215.897,130.404 217.803,131.104 218.636 C 132.673 220.500,133.175 223.485,131.802 222.789 C 131.251 222.510,131.499 222.848,132.353 223.541 C 133.482 224.457,133.591 224.803,132.753 224.812 C 132.068 224.820,131.925 225.063,132.400 225.412 C 133.159 225.970,133.393 226.597,134.020 229.748 C 134.167 230.490,134.686 231.840,135.172 232.748 C 135.658 233.657,135.838 234.400,135.571 234.400 C 135.304 234.400,135.561 234.928,136.143 235.572 C 138.604 238.301,139.078 239.056,138.619 239.515 C 138.352 239.782,138.553 240.000,139.067 240.000 C 139.580 240.000,140.000 240.561,140.000 241.247 C 140.000 241.933,140.356 242.274,140.791 242.006 C 141.261 241.715,141.368 242.074,141.055 242.890 C 140.700 243.815,140.830 244.076,141.455 243.690 C 142.060 243.315,142.217 243.547,141.905 244.358 C 141.643 245.043,141.847 245.600,142.362 245.600 C 142.875 245.600,143.072 245.960,142.800 246.400 C 142.528 246.840,142.687 247.200,143.153 247.200 C 143.619 247.200,144.000 247.696,144.000 248.302 C 144.000 248.908,144.549 249.859,145.219 250.416 C 145.890 250.973,146.247 251.620,146.013 251.854 C 145.779 252.088,146.580 252.934,147.794 253.735 C 149.007 254.535,149.522 255.192,148.939 255.195 C 148.355 255.198,148.947 256.100,150.254 257.200 C 151.561 258.300,153.029 259.200,153.515 259.200 C 154.002 259.200,154.400 259.740,154.400 260.400 C 154.400 261.060,154.940 261.600,155.600 261.600 C 156.260 261.600,156.800 261.956,156.800 262.391 C 156.800 262.826,157.333 263.816,157.985 264.591 C 158.636 265.366,159.743 266.720,160.444 267.600 C 161.145 268.480,161.491 268.750,161.212 268.200 C 160.934 267.650,161.063 267.200,161.499 267.200 C 161.935 267.200,162.522 267.925,162.804 268.812 C 163.085 269.698,163.608 270.242,163.967 270.020 C 164.325 269.799,165.046 270.132,165.568 270.761 C 166.090 271.390,167.090 271.685,167.790 271.416 C 168.595 271.107,168.863 271.250,168.520 271.806 C 168.216 272.298,168.692 272.912,169.600 273.200 C 170.493 273.483,171.028 274.030,170.790 274.416 C 170.552 274.801,171.105 274.972,172.018 274.796 C 172.943 274.618,173.867 274.966,174.103 275.580 C 174.336 276.187,175.218 276.551,176.063 276.388 C 176.908 276.225,177.606 276.521,177.612 277.046 C 177.620 277.679,177.858 277.631,178.319 276.904 C 178.879 276.019,179.180 276.096,179.882 277.304 C 180.360 278.127,180.762 278.486,180.776 278.102 C 180.789 277.718,181.325 277.840,181.967 278.373 C 182.925 279.168,183.712 278.719,186.357 275.871 L 189.580 272.400 189.595 274.800 C 189.604 276.120,190.326 278.280,191.200 279.600 C 192.074 280.920,192.792 282.483,192.795 283.073 C 192.800 284.245,195.051 287.370,198.800 291.412 C 201.274 294.080,206.842 297.197,210.453 297.936 C 212.796 298.416,214.424 300.997,215.132 305.357 C 215.911 310.146,226.122 312.587,231.022 309.155 C 233.685 307.289,233.174 296.800,230.420 296.800 C 229.170 296.800,229.443 299.674,230.800 300.800 C 234.479 303.854,230.613 308.800,224.547 308.800 C 219.270 308.800,217.242 307.401,216.132 302.994 C 215.102 298.902,212.783 296.565,208.400 295.202 C 201.110 292.934,195.041 286.232,192.572 277.724 L 191.331 273.449 193.665 271.006 C 196.942 267.577,196.848 267.500,188.662 266.919 C 184.283 266.608,180.815 265.955,180.062 265.300 C 179.368 264.696,177.450 263.769,175.800 263.239 C 174.150 262.709,172.800 261.944,172.800 261.538 C 172.800 261.132,172.260 260.800,171.600 260.800 C 170.940 260.800,169.680 260.080,168.800 259.200 C 167.920 258.320,166.842 257.600,166.404 257.600 C 165.135 257.600,152.000 244.086,152.000 242.781 C 152.000 242.131,151.460 241.600,150.800 241.600 C 150.140 241.600,149.600 241.133,149.600 240.563 C 149.600 239.992,149.059 238.822,148.397 237.963 C 145.366 234.027,142.428 229.083,142.415 227.898 C 142.407 227.182,141.860 226.148,141.200 225.600 C 140.540 225.052,140.000 224.058,140.000 223.390 C 140.000 222.722,139.324 220.696,138.498 218.888 C 137.002 215.612,135.865 211.797,134.248 204.622 C 133.725 202.300,132.873 200.677,132.039 200.412 C 127.727 199.044,125.982 194.627,128.800 192.214 C 130.321 190.912,130.400 189.851,130.405 170.822 C 130.409 154.164,130.621 150.397,131.669 148.400 C 132.361 147.080,133.193 143.542,133.518 140.538 C 133.842 137.533,134.531 134.813,135.049 134.493 C 135.567 134.173,136.301 132.247,136.681 130.213 C 137.061 128.178,137.963 125.922,138.686 125.200 C 139.409 124.477,140.000 122.820,140.000 121.518 C 140.000 120.196,140.508 118.955,141.151 118.708 C 141.784 118.465,142.525 117.254,142.796 116.016 C 143.068 114.779,143.990 113.133,144.845 112.359 C 145.700 111.585,146.400 110.457,146.400 109.851 C 146.400 109.245,146.915 108.552,147.544 108.311 C 148.173 108.069,149.088 106.911,149.576 105.736 C 151.299 101.591,152.899 99.200,153.950 99.200 C 154.535 99.200,155.202 98.480,155.432 97.600 C 155.662 96.720,156.424 96.000,157.125 96.000 C 157.867 96.000,158.400 95.331,158.400 94.400 C 158.400 93.520,158.927 92.800,159.572 92.800 C 160.216 92.800,161.129 92.080,161.600 91.200 C 162.071 90.320,162.984 89.600,163.628 89.600 C 164.273 89.600,164.800 89.084,164.800 88.454 C 164.800 87.824,165.556 87.068,166.479 86.775 C 167.402 86.482,168.842 85.558,169.679 84.721 C 170.516 83.884,171.881 83.200,172.714 83.200 C 173.547 83.200,174.428 82.680,174.672 82.044 C 174.916 81.408,176.485 80.643,178.158 80.343 C 179.831 80.043,181.740 79.349,182.400 78.800 C 183.970 77.495,187.781 76.882,195.400 76.708 C 199.295 76.619,201.605 76.238,201.612 75.683 C 201.621 75.041,201.785 75.040,202.212 75.681 C 202.536 76.165,205.292 76.812,208.338 77.117 C 211.388 77.423,214.264 78.156,214.738 78.747 C 215.212 79.338,216.969 80.062,218.642 80.355 C 220.315 80.648,221.884 81.408,222.128 82.044 C 222.372 82.680,223.200 83.200,223.969 83.200 C 224.737 83.200,226.337 84.100,227.524 85.200 C 228.711 86.300,230.204 87.200,230.841 87.200 C 231.479 87.200,232.000 87.740,232.000 88.400 C 232.000 89.060,232.527 89.600,233.172 89.600 C 233.816 89.600,234.729 90.320,235.200 91.200 C 235.671 92.080,236.542 92.800,237.135 92.800 C 237.728 92.800,238.402 93.520,238.632 94.400 C 238.862 95.280,239.624 96.000,240.325 96.000 C 241.067 96.000,241.600 96.669,241.600 97.600 C 241.600 98.500,242.133 99.200,242.820 99.200 C 243.491 99.200,244.382 100.100,244.800 101.200 C 245.218 102.300,245.894 103.200,246.302 103.200 C 246.710 103.200,247.420 104.280,247.880 105.600 C 248.340 106.920,249.089 108.000,249.543 108.000 C 249.998 108.000,250.608 108.952,250.901 110.116 C 251.193 111.279,252.099 112.899,252.916 113.716 C 253.732 114.532,254.400 115.740,254.400 116.400 C 254.400 117.060,255.120 118.320,256.000 119.200 C 256.880 120.080,257.600 121.762,257.600 122.937 C 257.600 124.112,258.171 125.704,258.868 126.475 C 259.565 127.245,260.338 129.434,260.585 131.338 C 260.833 133.242,261.522 135.088,262.117 135.440 C 262.713 135.792,263.200 136.948,263.200 138.009 C 263.200 140.362,266.101 143.234,268.351 143.107 C 269.597 143.037,269.675 142.928,268.669 142.662 C 267.743 142.417,267.172 141.045,266.793 138.155 C 266.493 135.870,265.796 133.280,265.245 132.400 C 264.693 131.520,263.997 129.485,263.699 127.877 C 263.401 126.270,262.626 124.751,261.978 124.502 C 261.218 124.211,260.800 122.939,260.800 120.918 C 260.800 118.459,260.456 117.697,259.200 117.368 C 257.781 116.997,257.059 114.626,257.505 111.800 C 257.557 111.470,256.880 111.200,256.000 111.200 C 254.956 111.200,254.400 110.667,254.400 109.665 C 254.400 107.281,253.538 105.600,252.314 105.600 C 251.701 105.600,251.200 104.960,251.200 104.178 C 251.200 103.396,250.465 102.126,249.566 101.356 C 248.667 100.587,248.106 99.676,248.318 99.333 C 248.530 98.989,247.826 98.048,246.752 97.242 C 245.678 96.436,244.800 95.408,244.800 94.959 C 244.800 94.029,240.053 89.600,239.056 89.600 C 238.695 89.600,238.443 89.330,238.495 89.000 C 238.778 87.205,238.272 86.278,237.226 86.679 C 236.580 86.927,235.835 86.780,235.570 86.352 C 235.306 85.924,234.780 85.765,234.402 85.999 C 234.024 86.232,233.485 85.698,233.204 84.812 C 232.922 83.925,231.996 83.200,231.146 83.200 C 230.133 83.200,229.600 82.648,229.600 81.600 C 229.600 80.102,226.765 79.333,223.600 79.972 C 223.160 80.061,223.067 79.866,223.393 79.540 C 224.268 78.665,222.437 76.800,220.702 76.800 C 219.876 76.800,219.200 76.419,219.200 75.953 C 219.200 75.487,218.871 75.309,218.468 75.558 C 218.066 75.806,217.605 75.614,217.444 75.131 C 217.282 74.647,215.182 74.096,212.775 73.906 C 210.369 73.717,206.613 73.414,204.428 73.234 C 202.062 73.039,200.086 72.400,199.540 71.653 C 198.388 70.078,198.221 70.087,196.966 71.800 M270.093 146.648 C 270.298 148.256,269.813 149.421,268.390 150.740 L 266.400 152.583 266.400 173.714 C 266.400 190.278,266.164 195.185,265.307 196.422 C 264.705 197.290,263.959 200.408,263.648 203.350 C 263.337 206.293,262.607 209.096,262.025 209.579 C 261.443 210.062,260.723 211.794,260.425 213.429 C 260.126 215.063,259.423 217.120,258.862 218.000 C 258.300 218.880,257.597 220.915,257.299 222.523 C 257.001 224.130,256.226 225.649,255.578 225.898 C 254.930 226.146,254.400 227.081,254.400 227.975 C 254.400 228.869,253.680 230.320,252.800 231.200 C 251.920 232.080,251.200 233.270,251.200 233.845 C 251.200 236.074,236.018 254.400,234.171 254.400 C 233.950 254.400,232.561 255.533,231.085 256.918 C 229.608 258.303,227.230 259.928,225.800 260.529 C 224.370 261.130,223.200 261.937,223.200 262.322 C 223.200 262.707,221.976 263.252,220.480 263.532 C 218.985 263.813,217.359 264.527,216.867 265.119 C 216.375 265.712,213.840 266.438,211.233 266.733 C 208.479 267.044,205.718 267.897,204.646 268.767 L 202.800 270.264 204.501 272.132 C 205.437 273.159,206.625 275.318,207.140 276.929 C 208.169 280.145,209.195 280.800,213.208 280.800 C 214.681 280.800,216.370 281.250,216.962 281.800 C 218.178 282.930,220.000 283.462,220.000 282.688 C 220.000 281.387,216.884 280.049,213.800 280.025 C 210.555 280.001,210.400 279.890,210.400 277.579 C 210.400 275.171,210.412 275.165,212.699 276.348 C 213.963 277.001,215.223 277.311,215.499 277.035 C 215.774 276.759,216.000 276.920,216.000 277.392 C 216.000 277.864,216.720 278.062,217.600 277.832 C 218.480 277.602,219.200 277.074,219.200 276.659 C 219.200 276.245,219.519 276.103,219.909 276.344 C 220.299 276.585,221.091 276.214,221.667 275.519 C 222.617 274.374,222.814 274.390,223.758 275.681 C 224.728 277.007,224.800 276.981,224.800 275.306 C 224.800 274.316,225.105 273.694,225.479 273.925 C 225.852 274.156,226.890 273.663,227.784 272.829 C 228.679 271.995,230.084 271.198,230.906 271.057 C 232.450 270.791,234.935 268.058,234.594 267.000 C 234.487 266.670,234.966 266.400,235.657 266.400 C 237.147 266.400,239.339 264.405,238.629 263.695 C 238.356 263.423,238.733 263.200,239.467 263.200 C 240.200 263.200,240.800 262.639,240.800 261.953 C 240.800 261.267,241.143 260.918,241.562 261.177 C 241.981 261.436,242.867 260.647,243.530 259.424 C 244.193 258.201,244.750 257.466,244.768 257.792 C 244.786 258.118,245.488 257.795,246.330 257.075 C 247.171 256.354,247.685 255.310,247.472 254.755 C 247.259 254.199,247.812 253.514,248.701 253.231 C 249.591 252.949,250.152 252.284,249.948 251.753 C 249.737 251.203,251.008 250.167,252.902 249.347 C 255.352 248.285,255.991 247.671,255.332 247.012 C 254.673 246.353,254.696 245.799,255.419 244.905 C 256.197 243.943,256.193 243.817,255.400 244.294 C 254.850 244.624,254.400 244.513,254.400 244.047 C 254.400 243.581,254.961 243.200,255.647 243.200 C 256.333 243.200,256.672 242.840,256.400 242.400 C 256.128 241.960,256.226 241.600,256.618 241.600 C 257.878 241.600,259.947 236.629,260.198 233.000 C 260.236 232.450,260.837 231.994,261.533 231.988 C 262.643 231.977,262.652 231.880,261.600 231.200 C 260.601 230.555,260.668 230.412,262.000 230.349 C 263.062 230.299,263.223 230.124,262.479 229.830 C 261.652 229.503,261.863 229.084,263.279 228.238 C 264.336 227.606,264.551 227.290,263.758 227.536 C 262.918 227.796,262.521 227.652,262.806 227.191 C 263.074 226.756,263.764 226.400,264.338 226.400 C 264.927 226.400,265.322 225.617,265.244 224.600 C 265.169 223.610,265.488 222.281,265.954 221.646 C 266.623 220.735,266.548 220.641,265.600 221.200 C 264.247 221.997,265.988 219.396,267.600 218.212 C 268.072 217.866,267.908 217.609,267.200 217.587 C 266.133 217.553,266.133 217.441,267.200 216.575 C 267.860 216.039,268.388 214.403,268.374 212.940 C 268.359 211.477,268.629 210.106,268.974 209.893 C 269.318 209.680,269.600 209.146,269.600 208.706 C 269.600 208.266,269.150 208.176,268.600 208.506 C 267.884 208.937,267.902 208.734,268.666 207.792 C 269.301 207.009,269.509 205.774,269.180 204.738 C 268.773 203.454,268.892 203.163,269.638 203.623 C 270.263 204.010,270.447 203.923,270.121 203.396 C 269.480 202.358,270.334 199.865,271.157 200.373 C 271.481 200.574,271.400 198.730,270.978 196.275 C 270.367 192.732,270.434 191.670,271.304 191.119 C 272.206 190.547,272.187 190.420,271.200 190.400 C 270.161 190.379,270.156 190.277,271.162 189.641 C 272.778 188.618,273.038 169.944,271.467 167.622 C 270.019 165.481,269.961 149.881,271.400 149.397 C 272.157 149.142,272.178 148.786,271.486 147.930 C 270.983 147.309,270.400 146.260,270.189 145.600 C 269.979 144.940,269.935 145.412,270.093 146.648 M226.400 290.000 C 226.400 290.220,227.140 291.140,228.046 292.046 C 229.528 293.528,229.667 293.548,229.446 292.246 C 229.137 290.431,226.400 288.412,226.400 290.000 " stroke="none" fill="#606060" fill-rule="evenodd"></path><path id="path3" d="M201.612 75.683 C 201.605 76.238,199.295 76.619,195.400 76.708 C 187.781 76.882,183.970 77.495,182.400 78.800 C 181.740 79.349,179.831 80.043,178.158 80.343 C 176.485 80.643,174.916 81.408,174.672 82.044 C 174.428 82.680,173.547 83.200,172.714 83.200 C 171.881 83.200,170.516 83.884,169.679 84.721 C 168.842 85.558,167.402 86.482,166.479 86.775 C 165.556 87.068,164.800 87.824,164.800 88.454 C 164.800 89.084,164.273 89.600,163.628 89.600 C 162.984 89.600,162.071 90.320,161.600 91.200 C 161.129 92.080,160.216 92.800,159.572 92.800 C 158.927 92.800,158.400 93.520,158.400 94.400 C 158.400 95.331,157.867 96.000,157.125 96.000 C 156.424 96.000,155.662 96.720,155.432 97.600 C 155.202 98.480,154.535 99.200,153.950 99.200 C 152.899 99.200,151.299 101.591,149.576 105.736 C 149.088 106.911,148.173 108.069,147.544 108.311 C 146.915 108.552,146.400 109.245,146.400 109.851 C 146.400 110.457,145.700 111.585,144.845 112.359 C 143.990 113.133,143.068 114.779,142.796 116.016 C 142.525 117.254,141.784 118.465,141.151 118.708 C 140.508 118.955,140.000 120.196,140.000 121.518 C 140.000 122.820,139.409 124.477,138.686 125.200 C 137.963 125.922,137.061 128.178,136.681 130.213 C 136.301 132.247,135.567 134.173,135.049 134.493 C 134.531 134.813,133.842 137.533,133.518 140.538 C 133.193 143.542,132.361 147.080,131.669 148.400 C 130.621 150.397,130.409 154.164,130.405 170.822 C 130.400 189.851,130.321 190.912,128.800 192.214 C 125.982 194.627,127.727 199.044,132.039 200.412 C 132.873 200.677,133.725 202.300,134.248 204.622 C 135.865 211.797,137.002 215.612,138.498 218.888 C 139.324 220.696,140.000 222.722,140.000 223.390 C 140.000 224.058,140.540 225.052,141.200 225.600 C 141.860 226.148,142.407 227.182,142.415 227.898 C 142.428 229.083,145.366 234.027,148.397 237.963 C 149.059 238.822,149.600 239.992,149.600 240.563 C 149.600 241.133,150.140 241.600,150.800 241.600 C 151.460 241.600,152.000 242.131,152.000 242.781 C 152.000 244.086,165.135 257.600,166.404 257.600 C 166.842 257.600,167.920 258.320,168.800 259.200 C 169.680 260.080,170.940 260.800,171.600 260.800 C 172.260 260.800,172.800 261.132,172.800 261.538 C 172.800 261.944,174.150 262.709,175.800 263.239 C 177.450 263.769,179.368 264.696,180.062 265.300 C 180.815 265.955,184.283 266.608,188.662 266.919 C 196.848 267.500,196.942 267.577,193.665 271.006 L 191.331 273.449 192.572 277.724 C 195.041 286.232,201.110 292.934,208.400 295.202 C 212.783 296.565,215.102 298.902,216.132 302.994 C 217.242 307.401,219.270 308.800,224.547 308.800 C 230.670 308.800,234.114 304.462,230.852 300.858 C 230.221 300.160,229.592 297.732,229.454 295.461 C 229.316 293.190,229.022 291.345,228.801 291.361 C 227.018 291.488,226.400 290.912,226.400 289.125 C 226.400 287.723,225.881 286.915,224.800 286.632 C 223.342 286.251,222.849 285.426,223.105 283.800 C 223.182 283.312,221.281 283.061,218.771 283.229 C 218.536 283.244,217.790 282.704,217.114 282.029 C 216.439 281.353,214.681 280.800,213.208 280.800 C 209.195 280.800,208.169 280.145,207.140 276.929 C 206.625 275.318,205.437 273.159,204.501 272.132 L 202.800 270.264 204.646 268.767 C 205.718 267.897,208.479 267.044,211.233 266.733 C 213.840 266.438,216.375 265.712,216.867 265.119 C 217.359 264.527,218.985 263.813,220.480 263.532 C 221.976 263.252,223.200 262.707,223.200 262.322 C 223.200 261.937,224.370 261.130,225.800 260.529 C 227.230 259.928,229.608 258.303,231.085 256.918 C 232.561 255.533,233.950 254.400,234.171 254.400 C 236.018 254.400,251.200 236.074,251.200 233.845 C 251.200 233.270,251.920 232.080,252.800 231.200 C 253.680 230.320,254.400 228.869,254.400 227.975 C 254.400 227.081,254.930 226.146,255.578 225.898 C 256.226 225.649,257.001 224.130,257.299 222.523 C 257.597 220.915,258.300 218.880,258.862 218.000 C 259.423 217.120,260.126 215.063,260.425 213.429 C 260.723 211.794,261.443 210.062,262.025 209.579 C 262.607 209.096,263.337 206.293,263.648 203.350 C 263.959 200.408,264.705 197.290,265.307 196.422 C 266.164 195.185,266.400 190.278,266.400 173.714 L 266.400 152.583 268.474 150.661 C 269.724 149.503,270.360 148.249,270.074 147.504 C 269.813 146.825,269.600 145.579,269.600 144.735 C 269.600 143.787,269.046 143.200,268.151 143.200 C 266.028 143.200,263.200 140.234,263.200 138.009 C 263.200 136.948,262.713 135.792,262.117 135.440 C 261.522 135.088,260.833 133.242,260.585 131.338 C 260.338 129.434,259.565 127.245,258.868 126.475 C 258.171 125.704,257.600 124.112,257.600 122.937 C 257.600 121.762,256.880 120.080,256.000 119.200 C 255.120 118.320,254.400 117.060,254.400 116.400 C 254.400 115.740,253.732 114.532,252.916 113.716 C 252.099 112.899,251.193 111.279,250.901 110.116 C 250.608 108.952,249.998 108.000,249.543 108.000 C 249.089 108.000,248.340 106.920,247.880 105.600 C 247.420 104.280,246.710 103.200,246.302 103.200 C 245.894 103.200,245.218 102.300,244.800 101.200 C 244.382 100.100,243.491 99.200,242.820 99.200 C 242.133 99.200,241.600 98.500,241.600 97.600 C 241.600 96.669,241.067 96.000,240.325 96.000 C 239.624 96.000,238.862 95.280,238.632 94.400 C 238.402 93.520,237.728 92.800,237.135 92.800 C 236.542 92.800,235.671 92.080,235.200 91.200 C 234.729 90.320,233.816 89.600,233.172 89.600 C 232.527 89.600,232.000 89.060,232.000 88.400 C 232.000 87.740,231.479 87.200,230.841 87.200 C 230.204 87.200,228.711 86.300,227.524 85.200 C 226.337 84.100,224.737 83.200,223.969 83.200 C 223.200 83.200,222.372 82.680,222.128 82.044 C 221.884 81.408,220.315 80.648,218.642 80.355 C 216.969 80.062,215.212 79.338,214.738 78.747 C 214.264 78.156,211.388 77.423,208.338 77.117 C 205.292 76.812,202.536 76.165,202.212 75.681 C 201.785 75.040,201.621 75.041,201.612 75.683 M194.109 81.776 C 194.440 82.313,194.594 86.003,194.450 89.976 C 194.306 93.949,193.966 107.071,193.694 119.135 C 193.311 136.137,192.965 141.148,192.155 141.417 C 191.085 141.772,154.400 105.905,154.400 104.504 C 154.400 103.331,168.899 89.244,171.618 87.774 C 182.695 81.787,192.499 79.172,194.109 81.776 M218.400 84.255 C 236.491 92.322,254.086 116.105,259.008 139.145 L 260.279 145.089 256.339 148.665 C 250.976 153.533,240.021 163.302,232.861 169.600 C 229.610 172.460,225.836 175.829,224.475 177.087 C 214.908 185.927,207.803 191.232,206.726 190.338 C 205.487 189.310,204.972 83.309,206.200 82.053 C 207.219 81.010,213.778 82.194,218.400 84.255 M150.805 114.212 C 151.247 114.536,152.672 116.240,153.970 118.000 C 155.269 119.760,161.312 126.223,167.398 132.361 C 186.020 151.144,189.201 154.673,191.237 158.811 L 193.200 162.800 193.189 195.744 C 193.184 213.863,192.906 228.961,192.572 229.295 C 191.640 230.227,186.142 227.102,175.600 219.647 C 170.320 215.913,162.580 210.483,158.400 207.580 C 154.220 204.677,148.820 200.858,146.400 199.093 C 143.980 197.328,140.735 195.059,139.188 194.051 C 134.823 191.205,134.456 190.385,133.736 181.864 C 132.356 165.554,135.359 141.806,140.098 131.547 C 140.924 129.759,141.600 127.878,141.600 127.369 C 141.600 125.936,145.036 118.982,146.600 117.249 C 147.370 116.396,148.000 115.226,148.000 114.649 C 148.000 113.509,149.518 113.272,150.805 114.212 M262.258 162.600 C 262.760 164.910,263.392 168.261,263.663 170.046 C 264.210 173.652,261.920 197.906,260.843 199.921 C 260.467 200.624,259.700 203.529,259.141 206.376 C 258.581 209.223,257.647 212.463,257.066 213.576 C 256.485 214.689,256.008 215.892,256.005 216.250 C 255.994 217.723,249.328 231.459,247.586 233.600 C 247.048 234.260,246.472 235.212,246.304 235.716 C 245.148 239.197,232.567 252.131,225.192 257.421 C 219.871 261.237,207.535 264.994,206.332 263.164 C 205.058 261.227,205.872 213.064,207.244 209.221 C 207.932 207.293,210.587 203.818,213.989 200.391 C 219.498 194.843,221.914 192.654,242.764 174.315 C 248.464 169.302,254.764 163.676,256.764 161.814 C 261.308 157.581,261.163 157.560,262.258 162.600 M148.000 212.800 C 150.968 215.000,153.802 216.800,154.298 216.800 C 154.794 216.800,155.200 217.124,155.200 217.521 C 155.200 217.918,156.370 218.989,157.800 219.903 C 159.230 220.816,161.119 222.021,161.997 222.582 C 162.875 223.142,164.907 224.590,166.511 225.799 C 168.116 227.009,172.386 230.001,176.000 232.448 C 190.019 241.940,192.097 244.953,192.643 256.589 C 193.062 265.509,192.934 265.616,184.754 263.131 C 165.150 257.176,143.258 232.405,141.158 213.800 C 140.455 207.574,140.869 207.513,148.000 212.800 " stroke="none" fill="#b5b5b5" fill-rule="evenodd"></path><path id="path4" d="M186.000 81.626 C 183.048 82.227,177.466 84.613,171.618 87.774 C 168.899 89.244,154.400 103.331,154.400 104.504 C 154.400 105.905,191.085 141.772,192.155 141.417 C 192.965 141.148,193.311 136.137,193.694 119.135 C 193.966 107.071,194.306 93.949,194.450 89.976 C 194.803 80.240,194.463 79.904,186.000 81.626 M206.200 82.053 C 204.972 83.309,205.487 189.310,206.726 190.338 C 207.803 191.232,214.908 185.927,224.475 177.087 C 225.836 175.829,229.610 172.460,232.861 169.600 C 240.021 163.302,250.976 153.533,256.339 148.665 L 260.279 145.089 259.008 139.145 C 254.086 116.105,236.491 92.322,218.400 84.255 C 213.778 82.194,207.219 81.010,206.200 82.053 M148.000 114.649 C 148.000 115.226,147.370 116.396,146.600 117.249 C 145.036 118.982,141.600 125.936,141.600 127.369 C 141.600 127.878,140.924 129.759,140.098 131.547 C 135.359 141.806,132.356 165.554,133.736 181.864 C 134.456 190.385,134.823 191.205,139.188 194.051 C 140.735 195.059,143.980 197.328,146.400 199.093 C 148.820 200.858,154.220 204.677,158.400 207.580 C 162.580 210.483,170.320 215.913,175.600 219.647 C 186.142 227.102,191.640 230.227,192.572 229.295 C 192.906 228.961,193.184 213.863,193.189 195.744 L 193.200 162.800 191.237 158.811 C 189.201 154.673,186.020 151.144,167.398 132.361 C 161.312 126.223,155.269 119.760,153.970 118.000 C 150.694 113.560,148.000 112.048,148.000 114.649 M256.764 161.814 C 254.764 163.676,248.464 169.302,242.764 174.315 C 202.505 209.725,206.208 203.419,205.838 237.200 C 205.674 252.138,205.871 262.463,206.332 263.164 C 207.535 264.994,219.871 261.237,225.192 257.421 C 232.567 252.131,245.148 239.197,246.304 235.716 C 246.472 235.212,247.048 234.260,247.586 233.600 C 249.328 231.459,255.994 217.723,256.005 216.250 C 256.008 215.892,256.485 214.689,257.066 213.576 C 257.647 212.463,258.581 209.223,259.141 206.376 C 259.700 203.529,260.467 200.624,260.843 199.921 C 261.920 197.906,264.210 173.652,263.663 170.046 C 261.762 157.514,261.595 157.314,256.764 161.814 M141.158 213.800 C 143.258 232.405,165.150 257.176,184.754 263.131 C 192.934 265.616,193.062 265.509,192.643 256.589 C 192.097 244.953,190.019 241.940,176.000 232.448 C 172.386 230.001,168.116 227.009,166.511 225.799 C 164.907 224.590,162.875 223.142,161.997 222.582 C 161.119 222.021,159.230 220.816,157.800 219.903 C 156.370 218.989,155.200 217.918,155.200 217.521 C 155.200 217.124,154.794 216.800,154.298 216.800 C 153.802 216.800,150.968 215.000,148.000 212.800 C 140.869 207.513,140.455 207.574,141.158 213.800 " stroke="none" fill="#ffffff" fill-rule="evenodd"></path></g></svg>