<svg id="svg" version="1.1" width="500" height="500" xmlns="http://www.w3.org/2000/svg" xmlns:xlink="http://www.w3.org/1999/xlink" style="display: block;"><g id="svgg"><path id="path0" d="M163.279 85.116 C 161.956 86.524,161.740 87.192,162.463 87.639 C 163.094 88.029,163.243 87.916,162.876 87.324 C 162.562 86.816,162.600 86.400,162.960 86.400 C 163.320 86.400,164.065 85.680,164.614 84.800 C 165.945 82.669,165.473 82.780,163.279 85.116 M229.600 87.200 C 229.600 87.640,229.960 88.000,230.400 88.000 C 230.840 88.000,231.200 88.540,231.200 89.200 C 231.200 89.860,230.840 90.400,230.400 90.400 C 229.960 90.400,229.600 91.791,229.600 93.492 C 229.600 95.299,228.978 97.377,228.104 98.492 C 227.281 99.541,226.370 102.364,226.079 104.764 C 225.789 107.164,225.069 109.684,224.481 110.364 C 223.892 111.044,223.207 113.207,222.958 115.172 C 222.710 117.136,221.999 119.116,221.380 119.572 C 220.722 120.056,220.064 122.503,219.798 125.459 C 219.533 128.386,218.805 131.110,218.071 131.922 C 217.345 132.724,216.800 134.732,216.800 136.606 C 216.800 138.526,216.277 140.409,215.539 141.147 C 214.845 141.841,213.978 144.477,213.613 147.004 C 213.248 149.532,212.378 152.680,211.679 154.000 C 210.981 155.320,210.408 157.724,210.405 159.343 C 210.402 160.961,209.860 162.826,209.200 163.486 C 206.689 165.997,208.889 169.765,213.452 170.767 C 214.780 171.059,216.114 171.906,216.416 172.649 C 217.031 174.160,218.695 168.737,219.610 162.240 C 219.901 160.172,220.648 158.058,221.270 157.542 C 221.891 157.026,222.400 155.794,222.400 154.804 C 222.400 153.814,223.300 150.247,224.400 146.877 C 225.500 143.508,226.400 139.874,226.400 138.802 C 226.400 137.731,226.904 135.672,227.519 134.227 C 234.349 118.192,237.919 97.767,234.718 93.036 C 233.886 91.806,232.772 89.810,232.241 88.600 C 231.309 86.473,229.600 85.567,229.600 87.200 M160.800 89.946 C 160.800 90.576,160.118 91.309,159.284 91.573 C 157.810 92.041,157.493 93.033,156.289 100.957 C 156.001 102.857,156.290 104.816,157.099 106.438 C 157.791 107.826,158.595 110.275,158.886 111.881 C 159.176 113.486,159.906 115.772,160.507 116.960 C 161.108 118.148,161.600 119.894,161.600 120.839 C 161.600 121.785,162.101 123.693,162.713 125.079 C 163.823 127.595,165.378 133.364,167.598 143.200 C 168.243 146.060,169.287 149.660,169.918 151.200 C 173.790 160.647,176.385 172.886,174.718 173.840 C 174.103 174.192,173.600 174.877,173.600 175.364 C 173.600 175.850,174.258 175.652,175.063 174.924 C 175.868 174.196,177.084 173.600,177.765 173.600 C 178.447 173.600,179.452 173.060,180.000 172.400 C 180.548 171.740,181.402 171.188,181.898 171.173 C 183.509 171.126,186.589 168.035,186.055 167.002 C 185.770 166.451,185.017 165.100,184.380 164.000 C 183.744 162.900,183.218 160.874,183.212 159.498 C 183.205 158.122,182.709 156.589,182.110 156.091 C 181.510 155.593,180.774 152.793,180.475 149.867 C 180.141 146.608,179.324 143.697,178.365 142.351 C 177.504 141.142,176.800 139.013,176.800 137.619 C 176.800 136.226,176.314 134.600,175.721 134.006 C 175.127 133.413,174.412 130.733,174.132 128.052 C 173.851 125.371,173.116 122.373,172.498 121.389 C 171.879 120.405,171.137 117.922,170.848 115.871 C 170.560 113.820,169.854 111.962,169.281 111.742 C 168.708 111.522,168.018 109.472,167.748 107.186 C 167.477 104.901,166.827 102.514,166.303 101.883 C 165.779 101.252,165.055 98.861,164.692 96.570 C 164.330 94.278,163.545 92.042,162.947 91.602 C 162.349 91.161,162.011 90.350,162.196 89.800 C 162.382 89.250,162.143 88.800,161.667 88.800 C 161.190 88.800,160.800 89.316,160.800 89.946 M85.000 161.373 C 86.210 161.556,88.190 161.556,89.400 161.373 C 90.610 161.190,89.620 161.040,87.200 161.040 C 84.780 161.040,83.790 161.190,85.000 161.373 M303.868 164.538 C 302.410 164.925,301.176 167.200,302.425 167.200 C 302.851 167.200,303.200 166.870,303.200 166.467 C 303.200 166.063,304.190 165.372,305.400 164.930 C 307.570 164.137,306.457 163.853,303.868 164.538 M319.825 165.008 C 320.829 165.599,321.369 166.392,321.025 166.770 C 320.681 167.148,320.828 167.211,321.351 166.911 C 321.874 166.612,322.626 166.946,323.023 167.655 C 323.419 168.364,324.071 169.001,324.472 169.072 C 324.872 169.142,325.110 169.470,325.000 169.800 C 324.890 170.130,325.160 170.400,325.600 170.400 C 326.040 170.400,326.400 169.860,326.400 169.200 C 326.400 168.540,326.054 168.000,325.631 168.000 C 325.208 168.000,324.218 167.325,323.431 166.499 C 322.644 165.674,321.100 164.759,320.000 164.466 L 318.000 163.933 319.825 165.008 M102.302 168.880 C 103.294 169.805,104.279 170.388,104.491 170.176 C 105.026 169.640,102.485 167.200,101.392 167.200 C 100.900 167.200,101.310 167.956,102.302 168.880 M71.360 171.360 C 70.832 171.888,70.400 172.910,70.400 173.632 C 70.400 174.353,69.535 175.337,68.478 175.819 C 65.248 177.291,63.613 193.078,66.505 194.865 C 66.887 195.101,67.200 196.121,67.200 197.131 C 67.200 199.128,75.062 207.200,77.007 207.200 C 77.613 207.200,79.525 208.460,81.255 209.999 C 82.985 211.539,84.787 212.799,85.261 212.799 C 85.734 212.800,86.967 213.700,88.000 214.800 C 89.033 215.900,90.300 216.800,90.815 216.800 C 91.331 216.800,92.438 217.558,93.276 218.485 C 94.114 219.412,96.215 220.892,97.945 221.775 C 99.674 222.658,101.654 224.017,102.345 224.796 C 103.035 225.575,105.220 227.065,107.200 228.106 C 109.180 229.148,111.090 230.454,111.445 231.009 C 111.800 231.564,113.824 232.897,115.943 233.971 C 118.062 235.045,121.243 237.356,123.011 239.106 C 131.689 247.699,145.007 249.985,153.562 244.351 C 155.941 242.785,160.252 240.064,163.144 238.305 C 169.979 234.146,172.364 232.546,179.999 227.000 C 183.482 224.470,186.551 222.400,186.819 222.400 C 187.403 222.400,192.998 218.285,193.677 217.356 C 194.839 215.767,200.829 216.597,202.690 218.606 C 203.707 219.703,205.948 221.264,207.670 222.075 C 209.391 222.885,211.160 223.851,211.600 224.221 C 212.328 224.834,214.423 226.221,218.800 228.988 C 219.680 229.545,220.690 230.454,221.045 231.009 C 221.400 231.564,223.380 232.881,225.445 233.935 C 227.510 234.989,230.172 236.875,231.360 238.128 L 233.520 240.404 233.767 268.002 C 234.039 298.399,233.924 297.664,239.747 306.474 C 245.465 315.127,260.632 315.593,268.514 307.358 C 274.928 300.657,275.200 299.117,275.200 269.553 C 275.200 241.133,275.351 239.994,279.333 238.346 C 280.800 237.739,282.900 236.333,284.000 235.221 C 285.100 234.110,287.740 232.318,289.867 231.240 C 291.994 230.162,294.182 228.639,294.731 227.856 C 295.280 227.073,297.058 225.876,298.683 225.197 C 300.307 224.519,302.432 223.161,303.404 222.182 C 304.375 221.202,305.743 220.040,306.442 219.600 C 307.141 219.160,309.455 217.720,311.584 216.400 C 313.713 215.080,316.615 213.010,318.033 211.800 C 319.451 210.590,321.007 209.600,321.491 209.600 C 322.845 209.600,332.800 199.332,332.800 197.936 C 332.800 197.256,333.381 194.924,334.091 192.753 C 335.607 188.118,335.131 183.225,332.789 179.374 C 330.674 175.896,328.800 175.976,328.800 179.543 C 328.800 181.051,328.260 182.826,327.600 183.486 C 326.940 184.146,326.400 185.053,326.400 185.502 C 326.400 187.245,317.113 195.134,315.000 195.185 C 314.670 195.193,313.739 195.830,312.932 196.600 C 312.125 197.370,310.775 198.447,309.932 198.994 C 309.089 199.541,306.600 201.155,304.400 202.579 C 302.200 204.004,299.702 205.807,298.849 206.585 C 297.996 207.363,296.856 208.000,296.316 208.000 C 295.775 208.000,295.213 208.277,295.067 208.616 C 294.920 208.955,292.746 210.583,290.235 212.235 C 287.725 213.887,285.453 215.590,285.188 216.019 C 284.923 216.449,284.007 216.800,283.153 216.800 C 282.299 216.800,281.600 217.124,281.600 217.521 C 281.600 217.918,280.430 218.989,279.000 219.903 C 272.816 223.852,272.147 224.316,269.258 226.661 L 266.916 228.561 266.858 259.681 L 266.800 290.800 264.708 293.000 C 263.558 294.210,262.252 295.200,261.806 295.200 C 261.361 295.200,260.548 295.740,260.000 296.400 C 259.346 297.188,257.561 297.600,254.800 297.600 C 252.039 297.600,250.254 297.188,249.600 296.400 C 249.052 295.740,248.230 295.200,247.773 295.200 C 247.317 295.200,245.921 294.055,244.671 292.656 L 242.400 290.112 242.400 258.425 L 242.400 226.738 238.000 224.071 C 235.580 222.605,233.600 221.089,233.600 220.702 C 233.600 220.316,233.116 220.000,232.524 220.000 C 231.932 220.000,230.796 219.280,230.000 218.400 C 229.204 217.520,228.094 216.800,227.533 216.800 C 226.973 216.800,225.887 216.172,225.119 215.405 C 224.352 214.638,223.098 213.648,222.333 213.205 C 221.567 212.762,219.271 211.230,217.230 209.800 C 215.190 208.370,213.334 207.200,213.107 207.200 C 212.639 207.200,207.355 203.325,205.743 201.800 C 205.161 201.250,204.377 200.800,204.000 200.800 C 203.623 200.800,202.752 200.238,202.065 199.551 C 200.253 197.739,195.735 197.179,194.323 198.592 C 193.687 199.227,192.297 200.213,191.234 200.782 C 190.171 201.351,188.918 202.132,188.450 202.518 C 184.943 205.410,181.261 208.000,180.656 208.000 C 180.258 208.000,179.498 208.355,178.966 208.788 C 174.454 212.468,172.864 213.600,172.209 213.600 C 171.790 213.600,170.796 214.320,170.000 215.200 C 169.204 216.080,168.124 216.800,167.600 216.800 C 167.076 216.800,165.996 217.520,165.200 218.400 C 164.404 219.280,163.348 220.000,162.854 220.000 C 162.360 220.000,161.339 220.720,160.586 221.600 C 159.832 222.480,158.702 223.200,158.074 223.200 C 157.447 223.200,156.813 223.470,156.667 223.800 C 156.009 225.279,149.899 229.117,147.285 229.693 C 145.698 230.042,143.380 230.572,142.133 230.870 C 138.766 231.675,133.895 229.721,130.839 226.338 C 129.356 224.696,127.390 223.114,126.471 222.823 C 125.552 222.531,124.800 221.948,124.800 221.526 C 124.800 221.105,123.990 220.408,123.000 219.977 C 122.010 219.546,119.580 217.959,117.600 216.450 C 115.620 214.941,113.692 213.682,113.315 213.653 C 112.939 213.624,111.621 212.790,110.387 211.800 C 105.676 208.020,104.444 207.200,103.477 207.200 C 102.928 207.200,102.192 206.741,101.840 206.181 C 101.264 205.263,98.896 203.456,95.294 201.184 C 94.582 200.735,92.420 199.295,90.489 197.984 C 88.557 196.673,86.127 195.130,85.089 194.556 C 84.050 193.982,83.200 193.211,83.200 192.843 C 83.200 192.475,82.362 191.963,81.338 191.706 C 74.493 189.988,68.337 177.290,72.252 172.964 C 74.359 170.636,73.546 169.174,71.360 171.360 M294.200 171.264 C 293.430 171.713,292.800 172.422,292.800 172.840 C 292.800 174.125,293.962 173.684,295.014 172.000 C 296.151 170.179,296.117 170.148,294.200 171.264 M326.400 172.516 C 326.400 174.103,327.794 176.000,328.960 176.000 C 330.172 176.000,329.597 173.845,328.000 172.400 C 326.452 170.999,326.400 171.003,326.400 172.516 M110.993 174.543 C 111.539 175.205,111.809 175.924,111.593 176.140 C 111.377 176.356,111.740 176.533,112.400 176.533 C 114.166 176.533,113.860 175.395,111.800 174.297 C 110.231 173.461,110.127 173.493,110.993 174.543 M220.702 175.280 C 221.694 176.205,222.751 176.715,223.052 176.415 C 223.352 176.115,222.899 175.359,222.046 174.735 C 219.659 172.990,218.673 173.390,220.702 175.280 M289.600 174.898 C 289.600 175.961,289.817 176.016,290.800 175.200 C 291.460 174.652,292.000 174.068,292.000 173.902 C 292.000 173.736,291.460 173.600,290.800 173.600 C 290.140 173.600,289.600 174.184,289.600 174.898 M168.160 177.760 C 166.812 179.108,166.966 179.893,168.533 179.663 C 169.267 179.555,169.955 178.867,170.063 178.133 C 170.293 176.566,169.508 176.412,168.160 177.760 M283.984 178.019 C 282.488 179.822,283.356 180.031,285.140 178.297 C 285.987 177.474,286.301 176.800,285.838 176.800 C 285.375 176.800,284.541 177.349,283.984 178.019 M228.986 181.600 C 230.016 183.250,232.000 183.795,232.000 182.428 C 232.000 181.713,229.493 180.000,228.446 180.000 C 228.193 180.000,228.436 180.720,228.986 181.600 M120.000 182.000 C 120.000 182.660,120.708 183.200,121.575 183.200 C 122.646 183.200,123.003 182.816,122.689 182.000 C 122.436 181.340,121.727 180.800,121.114 180.800 C 120.501 180.800,120.000 181.340,120.000 182.000 M158.676 184.435 C 157.956 186.311,158.733 186.531,159.837 184.764 C 160.455 183.774,160.508 183.200,159.982 183.200 C 159.524 183.200,158.937 183.756,158.676 184.435 M274.933 183.733 C 274.640 184.027,274.400 184.772,274.400 185.390 C 274.400 186.322,274.606 186.309,275.600 185.314 C 276.260 184.654,276.800 183.909,276.800 183.657 C 276.800 183.031,275.586 183.081,274.933 183.733 M238.200 186.930 C 238.750 187.152,239.200 187.801,239.200 188.373 C 239.200 188.945,239.893 189.595,240.740 189.816 C 241.833 190.102,242.154 189.890,241.846 189.087 C 241.399 187.922,239.009 186.351,237.853 186.463 C 237.494 186.498,237.650 186.708,238.200 186.930 M129.600 188.333 C 129.600 189.030,130.170 189.600,130.867 189.600 C 132.279 189.600,132.033 187.878,130.550 187.383 C 130.028 187.209,129.600 187.637,129.600 188.333 M133.750 190.450 C 133.942 191.028,134.572 191.658,135.150 191.850 C 135.750 192.050,136.050 191.750,135.850 191.150 C 135.657 190.572,135.028 189.942,134.450 189.750 C 133.850 189.550,133.550 189.850,133.750 190.450 M265.000 191.155 C 264.010 191.981,263.200 192.841,263.200 193.067 C 263.200 193.666,267.886 191.232,268.431 190.349 C 269.241 189.039,266.869 189.595,265.000 191.155 M247.378 193.778 C 248.356 194.756,249.826 195.658,250.646 195.783 C 251.764 195.954,251.541 195.511,249.752 194.005 C 246.804 191.524,244.946 191.346,247.378 193.778 M138.831 193.549 C 138.208 194.558,142.104 196.218,143.937 195.725 C 144.876 195.473,144.806 195.362,143.663 195.293 C 142.818 195.242,141.503 194.637,140.742 193.948 C 139.823 193.116,139.182 192.982,138.831 193.549 M258.600 195.718 C 255.866 197.066,255.170 198.400,257.200 198.400 C 257.860 198.400,258.400 198.051,258.400 197.626 C 258.400 197.200,259.390 196.314,260.600 195.658 C 263.560 194.052,261.877 194.103,258.600 195.718 " stroke="none" fill="#000000" fill-rule="evenodd"></path><path id="path1" d="M164.006 85.428 C 161.829 87.798,161.421 90.344,163.017 91.602 C 163.576 92.042,164.330 94.278,164.692 96.570 C 165.055 98.861,165.779 101.252,166.303 101.883 C 166.827 102.514,167.477 104.901,167.748 107.186 C 168.018 109.472,168.708 111.522,169.281 111.742 C 169.854 111.962,170.560 113.820,170.848 115.871 C 171.137 117.922,171.879 120.405,172.498 121.389 C 173.116 122.373,173.851 125.371,174.132 128.052 C 174.412 130.733,175.127 133.413,175.721 134.006 C 176.314 134.600,176.800 136.226,176.800 137.619 C 176.800 139.013,177.504 141.142,178.365 142.351 C 179.324 143.697,180.141 146.608,180.475 149.867 C 180.774 152.793,181.510 155.593,182.110 156.091 C 182.709 156.589,183.205 158.122,183.212 159.498 C 183.218 160.874,183.744 162.900,184.380 164.000 C 185.017 165.100,185.770 166.451,186.055 167.002 C 186.589 168.035,183.509 171.126,181.898 171.173 C 181.402 171.188,180.548 171.740,180.000 172.400 C 179.452 173.060,178.384 173.600,177.626 173.600 C 176.868 173.600,175.596 174.320,174.800 175.200 C 174.004 176.080,172.744 176.800,172.000 176.800 C 171.256 176.800,170.005 177.511,169.218 178.380 C 168.432 179.248,167.176 180.154,166.428 180.391 C 164.669 180.949,164.654 183.200,166.409 183.200 C 167.148 183.200,168.395 182.489,169.182 181.620 C 169.968 180.752,171.276 179.830,172.089 179.572 C 172.902 179.314,173.485 178.683,173.384 178.170 C 173.283 177.658,174.095 177.103,175.190 176.939 C 176.284 176.774,178.084 176.029,179.190 175.284 C 180.295 174.539,182.865 173.102,184.899 172.090 L 188.599 170.252 187.499 166.599 C 186.895 164.590,186.400 162.179,186.400 161.242 C 186.400 160.305,185.680 158.126,184.800 156.400 C 183.920 154.674,183.189 151.988,183.175 150.431 C 183.161 148.874,182.635 146.921,182.007 146.092 C 181.379 145.263,180.618 142.934,180.316 140.918 C 180.014 138.902,179.107 135.801,178.301 134.026 C 177.495 132.252,176.827 129.702,176.818 128.360 C 176.808 127.018,176.465 125.578,176.055 125.160 C 175.645 124.742,174.759 122.240,174.086 119.600 C 171.740 110.388,169.723 103.578,168.466 100.626 C 167.770 98.990,167.200 96.938,167.200 96.065 C 167.200 95.193,166.658 94.176,165.995 93.805 C 163.866 92.613,164.051 86.999,166.237 86.456 C 167.248 86.205,181.918 86.180,198.838 86.400 C 215.758 86.620,229.601 86.530,229.601 86.200 C 229.600 85.870,228.970 85.572,228.200 85.537 C 227.355 85.499,227.199 85.313,227.805 85.069 C 231.343 83.642,224.506 83.238,196.964 83.247 L 166.000 83.257 164.006 85.428 M229.215 90.333 C 228.933 91.616,228.184 92.865,227.551 93.108 C 226.918 93.351,226.400 94.385,226.400 95.406 C 226.400 96.427,225.680 98.674,224.800 100.400 C 223.920 102.126,223.200 104.560,223.200 105.808 C 223.200 107.056,222.480 109.568,221.600 111.389 C 220.720 113.210,220.000 115.637,220.000 116.781 C 220.000 117.925,219.280 120.274,218.400 122.000 C 217.520 123.726,216.798 126.232,216.795 127.569 C 216.792 128.906,216.269 130.999,215.632 132.221 C 214.995 133.442,214.111 136.403,213.668 138.801 C 213.224 141.198,212.308 144.231,211.631 145.540 C 210.954 146.849,210.400 148.950,210.400 150.207 C 210.400 151.465,209.871 153.193,209.225 154.047 C 208.579 154.901,208.039 156.334,208.025 157.232 C 208.011 158.129,207.467 160.909,206.816 163.409 C 206.165 165.908,205.812 168.422,206.032 168.996 C 206.473 170.144,213.821 173.867,215.649 173.867 C 216.282 173.867,216.800 174.569,216.800 175.427 C 216.800 176.651,217.222 176.906,218.761 176.612 C 219.929 176.388,220.656 176.593,220.561 177.118 C 220.472 177.603,220.850 177.910,221.400 177.800 C 221.950 177.690,222.400 178.140,222.400 178.800 C 222.400 179.485,223.119 180.000,224.075 180.000 C 225.077 180.000,225.918 180.643,226.168 181.600 C 226.398 182.480,227.239 183.200,228.036 183.200 C 228.833 183.200,230.117 183.830,230.889 184.600 C 231.661 185.370,232.856 186.000,233.546 186.000 C 234.236 186.000,235.155 186.810,235.590 187.800 C 236.472 189.812,239.200 190.265,239.200 188.400 C 239.200 187.740,238.840 187.200,238.400 187.200 C 237.960 187.200,236.797 186.397,235.816 185.416 C 234.834 184.434,233.189 183.519,232.159 183.381 C 231.129 183.243,228.976 181.706,227.376 179.965 C 225.775 178.224,223.821 176.800,223.033 176.800 C 222.245 176.800,221.600 176.481,221.600 176.091 C 221.600 175.701,220.340 174.784,218.800 174.054 C 217.260 173.323,216.000 172.410,216.000 172.026 C 216.000 171.642,214.883 171.082,213.519 170.782 C 208.893 169.766,206.672 166.014,209.200 163.486 C 209.860 162.826,210.402 160.961,210.405 159.343 C 210.408 157.724,210.981 155.320,211.679 154.000 C 212.378 152.680,213.248 149.532,213.613 147.004 C 213.978 144.477,214.845 141.841,215.539 141.147 C 216.277 140.409,216.800 138.526,216.800 136.606 C 216.800 134.732,217.345 132.724,218.071 131.922 C 218.805 131.110,219.533 128.386,219.798 125.459 C 220.064 122.503,220.722 120.056,221.380 119.572 C 221.999 119.116,222.710 117.136,222.958 115.172 C 223.207 113.207,223.892 111.044,224.481 110.364 C 225.069 109.684,225.789 107.164,226.079 104.764 C 226.370 102.364,227.281 99.541,228.104 98.492 C 228.978 97.377,229.600 95.299,229.600 93.492 C 229.600 91.791,229.960 90.400,230.400 90.400 C 230.840 90.400,231.200 89.860,231.200 89.200 C 231.200 87.087,229.745 87.917,229.215 90.333 M80.119 163.607 C 79.084 164.700,77.914 165.394,77.519 165.150 C 77.123 164.905,76.800 165.087,76.800 165.553 C 76.800 166.593,77.223 166.613,79.011 165.658 C 84.971 162.477,90.521 162.162,92.568 164.890 C 93.101 165.599,94.631 166.633,95.968 167.187 C 97.306 167.741,98.400 168.690,98.400 169.297 C 98.400 169.940,99.234 170.400,100.400 170.400 C 101.500 170.400,103.120 171.120,104.000 172.000 C 104.880 172.880,105.916 173.600,106.302 173.600 C 106.689 173.600,107.499 174.298,108.102 175.152 C 108.706 176.005,109.920 176.815,110.800 176.952 C 112.439 177.206,113.407 177.799,115.991 180.133 C 116.802 180.867,117.677 181.257,117.933 181.000 C 118.190 180.743,118.400 181.095,118.400 181.781 C 118.400 182.973,120.502 184.406,121.829 184.117 C 122.589 183.952,126.400 187.953,126.400 188.917 C 126.400 189.293,126.973 189.600,127.674 189.600 C 128.374 189.600,129.863 190.320,130.982 191.200 C 132.100 192.080,133.482 192.800,134.051 192.800 C 134.620 192.800,135.616 193.330,136.263 193.978 C 137.262 194.977,137.580 194.988,138.359 194.050 C 139.097 193.160,138.790 192.837,136.784 192.397 C 135.413 192.095,134.092 191.328,133.847 190.691 C 133.603 190.054,132.637 189.638,131.702 189.766 C 130.457 189.937,129.931 189.517,129.744 188.200 C 129.580 187.043,128.937 186.400,127.944 186.400 C 127.095 186.400,126.400 186.001,126.400 185.514 C 126.400 185.027,125.878 184.829,125.241 185.074 C 124.443 185.380,124.229 185.134,124.554 184.287 C 124.925 183.321,124.528 183.115,122.713 183.328 C 120.823 183.550,120.353 183.271,120.144 181.800 C 119.987 180.689,119.333 180.000,118.438 180.000 C 117.640 180.000,116.798 179.280,116.568 178.400 C 116.331 177.494,115.477 176.800,114.599 176.800 C 113.746 176.800,112.396 176.080,111.600 175.200 C 110.804 174.320,109.657 173.600,109.051 173.600 C 108.445 173.600,107.748 173.074,107.501 172.430 C 107.254 171.787,106.303 171.023,105.388 170.733 C 104.472 170.442,102.997 169.528,102.111 168.702 C 101.224 167.876,99.825 167.200,99.002 167.200 C 98.179 167.200,97.721 166.851,97.985 166.424 C 98.249 165.998,97.234 165.134,95.730 164.506 C 94.226 163.877,92.779 163.013,92.514 162.585 C 91.379 160.748,82.102 161.513,80.119 163.607 M305.400 164.930 C 304.190 165.372,303.200 166.063,303.200 166.467 C 303.200 166.870,302.656 167.200,301.992 167.200 C 301.328 167.200,300.168 167.920,299.414 168.800 C 298.661 169.680,297.587 170.400,297.029 170.400 C 296.471 170.400,295.564 171.120,295.014 172.000 C 294.465 172.880,293.618 173.600,293.132 173.600 C 292.646 173.600,291.596 174.320,290.800 175.200 C 290.004 176.080,288.756 176.800,288.027 176.800 C 287.298 176.800,285.929 177.520,284.984 178.400 C 284.040 179.280,282.895 180.000,282.440 180.000 C 281.986 180.000,281.164 180.720,280.614 181.600 C 280.065 182.480,279.114 183.200,278.501 183.200 C 277.889 183.200,276.800 183.877,276.082 184.705 C 275.364 185.533,274.062 186.348,273.189 186.516 C 272.315 186.684,271.600 187.279,271.600 187.837 C 271.600 188.812,269.901 190.018,265.600 192.099 C 264.500 192.631,263.360 193.096,263.067 193.133 C 261.795 193.293,261.474 194.402,262.577 194.825 C 264.043 195.388,270.091 192.360,270.707 190.755 C 270.950 190.120,271.571 189.600,272.087 189.600 C 272.602 189.600,273.484 188.970,274.047 188.200 C 275.067 186.805,275.363 186.690,278.400 186.500 C 279.433 186.435,280.000 185.833,280.000 184.800 C 280.000 183.920,280.484 183.200,281.076 183.200 C 281.668 183.200,282.804 182.480,283.600 181.600 C 284.396 180.720,285.494 180.000,286.038 180.000 C 286.583 180.000,287.256 179.408,287.533 178.685 C 287.811 177.963,288.252 177.585,288.514 177.847 C 288.776 178.109,289.517 177.798,290.160 177.155 C 290.803 176.511,291.716 176.224,292.188 176.516 C 292.683 176.822,292.816 176.673,292.501 176.164 C 292.201 175.678,292.713 174.875,293.638 174.380 C 294.564 173.884,296.014 172.786,296.861 171.939 C 297.707 171.093,299.300 170.400,300.400 170.400 C 301.500 170.400,302.400 170.019,302.400 169.553 C 302.400 169.087,301.950 168.965,301.400 169.281 C 300.819 169.615,300.679 169.551,301.067 169.128 C 301.433 168.728,301.973 168.369,302.267 168.331 C 303.595 168.159,306.004 166.796,307.339 165.461 C 308.961 163.839,308.633 163.749,305.400 164.930 M311.000 164.565 C 311.990 164.755,313.610 164.755,314.600 164.565 C 315.590 164.374,314.780 164.218,312.800 164.218 C 310.820 164.218,310.010 164.374,311.000 164.565 M316.800 165.200 C 316.800 166.389,317.090 166.531,319.800 166.673 C 320.570 166.714,321.450 167.108,321.757 167.550 C 322.063 167.992,322.553 168.113,322.847 167.820 C 323.357 167.310,318.647 164.009,317.400 164.003 C 317.070 164.001,316.800 164.540,316.800 165.200 M74.133 167.733 C 73.840 168.027,73.600 169.107,73.600 170.133 C 73.600 171.160,73.198 171.910,72.706 171.800 C 70.360 171.275,70.660 180.733,73.104 184.334 C 75.600 188.013,79.097 191.144,81.338 191.706 C 82.362 191.963,83.200 192.475,83.200 192.843 C 83.200 193.211,84.050 193.982,85.089 194.556 C 86.127 195.130,88.557 196.673,90.489 197.984 C 92.420 199.295,94.582 200.735,95.294 201.184 C 98.896 203.456,101.264 205.263,101.840 206.181 C 102.192 206.741,102.928 207.200,103.477 207.200 C 104.444 207.200,105.676 208.020,110.387 211.800 C 111.621 212.790,112.939 213.624,113.315 213.653 C 113.692 213.682,115.620 214.941,117.600 216.450 C 119.580 217.959,122.010 219.546,123.000 219.977 C 123.990 220.408,124.800 221.105,124.800 221.526 C 124.800 221.948,125.552 222.531,126.471 222.823 C 127.390 223.114,129.356 224.696,130.839 226.338 C 133.895 229.721,138.766 231.675,142.133 230.870 C 143.380 230.572,145.698 230.042,147.285 229.693 C 149.899 229.117,156.009 225.279,156.667 223.800 C 156.813 223.470,157.447 223.200,158.074 223.200 C 158.702 223.200,159.832 222.480,160.586 221.600 C 161.339 220.720,162.360 220.000,162.854 220.000 C 163.348 220.000,164.404 219.280,165.200 218.400 C 165.996 217.520,167.076 216.800,167.600 216.800 C 168.124 216.800,169.204 216.080,170.000 215.200 C 170.796 214.320,171.790 213.600,172.209 213.600 C 172.864 213.600,174.454 212.468,178.966 208.788 C 179.498 208.355,180.258 208.000,180.656 208.000 C 181.261 208.000,184.943 205.410,188.450 202.518 C 188.918 202.132,190.171 201.351,191.234 200.782 C 192.297 200.213,193.687 199.227,194.323 198.592 C 195.735 197.179,200.253 197.739,202.065 199.551 C 202.752 200.238,203.623 200.800,204.000 200.800 C 204.377 200.800,205.161 201.250,205.743 201.800 C 207.355 203.325,212.639 207.200,213.107 207.200 C 213.334 207.200,215.190 208.370,217.230 209.800 C 219.271 211.230,221.567 212.762,222.333 213.205 C 223.098 213.648,224.352 214.638,225.119 215.405 C 225.887 216.172,226.973 216.800,227.533 216.800 C 228.094 216.800,229.204 217.520,230.000 218.400 C 230.796 219.280,231.932 220.000,232.524 220.000 C 233.116 220.000,233.600 220.316,233.600 220.702 C 233.600 221.089,235.580 222.605,238.000 224.071 L 242.400 226.738 242.400 258.425 L 242.400 290.112 244.671 292.656 C 245.921 294.055,247.317 295.200,247.773 295.200 C 248.230 295.200,249.052 295.740,249.600 296.400 C 250.254 297.188,252.039 297.600,254.800 297.600 C 257.561 297.600,259.346 297.188,260.000 296.400 C 260.548 295.740,261.361 295.200,261.806 295.200 C 262.252 295.200,263.558 294.210,264.708 293.000 L 266.800 290.800 266.858 259.681 L 266.916 228.561 269.258 226.661 C 272.147 224.316,272.816 223.852,279.000 219.903 C 280.430 218.989,281.600 217.918,281.600 217.521 C 281.600 217.124,282.299 216.800,283.153 216.800 C 284.007 216.800,284.923 216.449,285.188 216.019 C 285.453 215.590,287.725 213.887,290.235 212.235 C 292.746 210.583,294.920 208.955,295.067 208.616 C 295.213 208.277,295.775 208.000,296.316 208.000 C 296.856 208.000,297.996 207.363,298.849 206.585 C 299.702 205.807,302.200 204.004,304.400 202.579 C 306.600 201.155,309.089 199.541,309.932 198.994 C 310.775 198.447,312.125 197.370,312.932 196.600 C 313.739 195.830,314.670 195.193,315.000 195.185 C 317.328 195.129,326.400 187.203,326.400 185.225 C 326.400 184.625,326.806 183.998,327.302 183.833 C 329.045 183.252,329.497 176.320,327.857 175.297 C 327.056 174.796,326.400 173.489,326.400 172.393 C 326.400 171.297,326.040 170.400,325.600 170.400 C 324.616 170.400,324.614 170.252,325.665 175.153 C 326.530 179.186,325.579 184.800,324.031 184.800 C 323.677 184.800,323.218 185.446,323.011 186.235 C 322.805 187.025,317.093 191.405,310.318 195.969 C 303.543 200.533,295.300 206.082,292.000 208.301 C 288.700 210.520,285.880 212.619,285.733 212.967 C 285.587 213.315,285.012 213.600,284.457 213.600 C 283.902 213.600,282.796 214.320,282.000 215.200 C 281.204 216.080,280.124 216.800,279.600 216.800 C 279.076 216.800,277.996 217.520,277.200 218.400 C 276.404 219.280,275.257 220.000,274.651 220.000 C 274.045 220.000,273.348 220.526,273.101 221.170 C 272.854 221.813,271.927 222.569,271.041 222.851 C 269.494 223.341,267.568 224.715,265.039 227.129 C 264.202 227.928,263.988 229.214,264.307 231.529 C 264.554 233.328,264.990 245.600,265.275 258.800 C 265.956 290.401,265.000 293.943,255.499 295.014 C 251.570 295.457,245.600 292.223,245.600 289.651 C 245.600 288.919,245.222 287.942,244.761 287.481 C 243.852 286.572,243.641 235.725,244.523 230.209 C 245.103 226.586,244.127 225.256,238.084 221.436 C 235.838 220.016,233.712 218.392,233.360 217.827 C 233.008 217.262,232.288 216.798,231.760 216.797 C 231.232 216.795,228.903 215.355,226.584 213.597 C 224.265 211.838,222.222 210.400,222.044 210.400 C 221.865 210.400,219.083 208.588,215.860 206.373 C 212.637 204.159,208.560 201.405,206.800 200.255 C 205.040 199.104,202.553 197.291,201.273 196.226 C 198.644 194.038,195.947 194.248,193.148 196.859 C 192.240 197.707,191.212 198.400,190.864 198.400 C 190.515 198.400,188.918 199.420,187.315 200.667 C 181.888 204.887,173.905 210.195,172.148 210.753 C 171.187 211.058,170.400 211.652,170.400 212.074 C 170.400 212.495,169.500 213.182,168.400 213.600 C 167.300 214.018,166.400 214.722,166.400 215.165 C 166.400 215.607,165.526 216.189,164.459 216.457 C 163.391 216.725,161.895 217.632,161.135 218.472 C 160.374 219.312,159.268 220.000,158.676 220.000 C 158.084 220.000,157.600 220.326,157.600 220.724 C 157.600 221.122,155.890 222.472,153.800 223.724 C 142.939 230.229,138.655 230.563,132.966 225.348 C 130.895 223.449,128.544 221.379,127.743 220.748 C 126.941 220.117,125.591 218.970,124.743 218.200 C 123.894 217.430,122.853 216.800,122.428 216.800 C 122.004 216.800,120.114 215.707,118.228 214.370 C 114.434 211.681,106.553 206.265,98.014 200.478 C 94.942 198.396,92.242 196.440,92.014 196.130 C 91.786 195.821,90.700 195.107,89.600 194.545 C 84.775 192.077,83.200 191.070,83.200 190.453 C 83.200 190.091,82.202 189.381,80.983 188.876 C 75.589 186.642,71.366 175.255,74.522 171.454 C 74.970 170.913,75.106 170.094,74.822 169.635 C 74.538 169.176,74.888 168.800,75.600 168.800 C 76.312 168.800,76.672 168.440,76.400 168.000 C 75.829 167.076,74.900 166.967,74.133 167.733 M323.575 168.840 C 322.815 170.070,323.856 170.864,324.883 169.837 C 325.458 169.262,325.471 168.815,324.925 168.477 C 324.477 168.200,323.870 168.364,323.575 168.840 M159.814 184.800 C 159.265 185.680,158.148 186.400,157.333 186.400 C 156.517 186.400,155.662 187.120,155.432 188.000 C 155.202 188.880,154.491 189.600,153.853 189.600 C 153.215 189.600,151.457 190.543,149.947 191.695 C 148.436 192.847,147.200 193.527,147.200 193.206 C 147.200 192.885,146.525 193.457,145.699 194.476 C 144.338 196.157,143.929 196.247,141.299 195.440 C 138.181 194.483,137.838 194.792,139.534 197.028 C 140.743 198.622,144.000 199.554,144.000 198.307 C 144.000 197.866,144.361 197.728,144.801 198.001 C 145.242 198.273,145.951 197.581,146.376 196.463 C 146.903 195.078,147.549 194.584,148.407 194.913 C 149.217 195.224,149.583 195.005,149.433 194.298 C 149.296 193.652,149.752 193.291,150.540 193.421 C 151.277 193.543,152.447 192.833,153.140 191.843 C 153.982 190.641,154.408 190.435,154.424 191.222 C 154.443 192.122,154.641 192.070,155.264 191.000 C 155.713 190.230,156.782 189.600,157.640 189.600 C 158.498 189.600,159.157 189.330,159.105 189.000 C 158.821 187.200,159.384 186.400,160.933 186.400 C 161.887 186.400,162.430 186.163,162.140 185.874 C 161.851 185.584,162.015 184.864,162.505 184.274 C 163.188 183.451,163.094 183.200,162.105 183.200 C 161.395 183.200,160.364 183.920,159.814 184.800 M240.600 190.117 C 241.150 190.346,241.600 190.998,241.600 191.567 C 241.600 192.135,242.704 192.821,244.053 193.091 C 245.645 193.409,246.304 193.909,245.929 194.514 C 245.571 195.094,245.701 195.232,246.273 194.878 C 246.823 194.539,247.568 195.133,248.125 196.355 C 248.638 197.480,249.629 198.413,250.328 198.428 C 251.028 198.444,252.499 198.954,253.598 199.562 C 254.896 200.281,255.918 200.400,256.516 199.904 C 257.022 199.483,258.257 198.982,259.260 198.789 C 260.262 198.595,261.373 197.979,261.729 197.419 C 263.377 194.822,261.610 194.390,259.200 196.800 C 257.301 198.699,255.413 198.841,253.621 197.219 C 252.903 196.570,251.615 195.919,250.758 195.774 C 249.901 195.629,247.848 194.292,246.195 192.803 C 244.542 191.315,242.382 190.008,241.395 189.899 C 240.408 189.790,240.050 189.889,240.600 190.117 " stroke="none" fill="#333333" fill-rule="evenodd"></path><path id="path2" d="M166.239 86.456 C 164.051 86.999,163.864 92.613,165.995 93.805 C 166.658 94.176,167.200 95.193,167.200 96.065 C 167.200 96.938,167.770 98.990,168.466 100.626 C 169.723 103.578,171.740 110.388,174.086 119.600 C 174.759 122.240,175.645 124.742,176.055 125.160 C 176.465 125.578,176.808 127.018,176.818 128.360 C 176.827 129.702,177.495 132.252,178.301 134.026 C 179.107 135.801,180.014 138.902,180.316 140.918 C 180.618 142.934,181.379 145.263,182.007 146.092 C 182.635 146.921,183.161 148.874,183.175 150.431 C 183.189 151.988,183.920 154.674,184.800 156.400 C 185.680 158.126,186.400 160.305,186.400 161.242 C 186.400 162.179,186.895 164.590,187.499 166.599 L 188.599 170.252 184.899 172.090 C 182.865 173.102,180.295 174.539,179.190 175.284 C 178.084 176.029,176.284 176.774,175.190 176.939 C 174.095 177.103,173.283 177.658,173.384 178.170 C 173.485 178.683,172.902 179.314,172.089 179.572 C 171.276 179.830,169.968 180.752,169.182 181.620 C 168.395 182.489,166.772 183.200,165.574 183.200 C 163.368 183.200,161.174 184.908,162.140 185.874 C 162.430 186.163,161.887 186.400,160.933 186.400 C 159.384 186.400,158.821 187.200,159.105 189.000 C 159.157 189.330,158.498 189.600,157.640 189.600 C 156.782 189.600,155.713 190.230,155.264 191.000 C 154.641 192.070,154.443 192.122,154.424 191.222 C 154.408 190.435,153.982 190.641,153.140 191.843 C 152.447 192.833,151.277 193.543,150.540 193.421 C 149.752 193.291,149.296 193.652,149.433 194.298 C 149.583 195.005,149.217 195.224,148.407 194.913 C 147.549 194.584,146.903 195.078,146.376 196.463 C 145.951 197.581,145.242 198.273,144.801 198.001 C 144.361 197.728,144.000 197.866,144.000 198.307 C 144.000 200.477,138.513 197.176,138.425 194.953 C 138.411 194.597,138.040 194.528,137.600 194.800 C 137.160 195.072,136.800 194.968,136.800 194.569 C 136.800 194.169,135.329 193.265,133.530 192.558 C 131.732 191.852,130.446 190.974,130.672 190.607 C 130.899 190.240,130.121 189.860,128.942 189.763 C 127.764 189.666,126.679 189.226,126.531 188.785 C 126.223 187.870,121.675 183.200,121.091 183.200 C 120.879 183.200,120.944 183.587,121.237 184.059 C 121.529 184.532,121.010 184.445,120.084 183.867 C 119.158 183.288,118.400 182.302,118.400 181.674 C 118.400 181.047,118.190 180.743,117.933 181.000 C 117.677 181.257,116.802 180.867,115.991 180.133 C 113.407 177.799,112.439 177.206,110.800 176.952 C 109.920 176.815,108.706 176.005,108.102 175.152 C 107.499 174.298,106.689 173.600,106.302 173.600 C 105.916 173.600,104.880 172.880,104.000 172.000 C 103.120 171.120,101.500 170.400,100.400 170.400 C 99.234 170.400,98.400 169.940,98.400 169.297 C 98.400 168.690,97.306 167.741,95.968 167.187 C 94.631 166.633,93.101 165.599,92.568 164.890 C 90.895 162.661,85.728 162.314,82.671 164.226 C 82.161 164.545,80.837 164.881,79.729 164.973 C 78.622 165.064,77.867 165.385,78.053 165.686 C 78.239 165.986,77.830 166.448,77.145 166.711 C 76.459 166.974,76.123 167.551,76.397 167.994 C 76.670 168.437,76.312 168.800,75.600 168.800 C 74.888 168.800,74.538 169.176,74.822 169.635 C 75.106 170.094,74.970 170.913,74.522 171.454 C 71.366 175.255,75.589 186.642,80.983 188.876 C 82.202 189.381,83.200 190.091,83.200 190.453 C 83.200 191.070,84.775 192.077,89.600 194.545 C 90.700 195.107,91.786 195.821,92.014 196.130 C 92.242 196.440,94.942 198.396,98.014 200.478 C 106.553 206.265,114.434 211.681,118.228 214.370 C 120.114 215.707,122.004 216.800,122.428 216.800 C 122.853 216.800,123.894 217.430,124.743 218.200 C 125.591 218.970,126.941 220.117,127.743 220.748 C 128.544 221.379,130.895 223.449,132.966 225.348 C 138.655 230.563,142.939 230.229,153.800 223.724 C 155.890 222.472,157.600 221.122,157.600 220.724 C 157.600 220.326,158.084 220.000,158.676 220.000 C 159.268 220.000,160.374 219.312,161.135 218.472 C 161.895 217.632,163.391 216.725,164.459 216.457 C 165.526 216.189,166.400 215.607,166.400 215.165 C 166.400 214.722,167.300 214.018,168.400 213.600 C 169.500 213.182,170.400 212.495,170.400 212.074 C 170.400 211.652,171.187 211.058,172.148 210.753 C 173.905 210.195,181.888 204.887,187.315 200.667 C 188.918 199.420,190.515 198.400,190.864 198.400 C 191.212 198.400,192.240 197.707,193.148 196.859 C 195.947 194.248,198.644 194.038,201.273 196.226 C 202.553 197.291,205.040 199.104,206.800 200.255 C 208.560 201.405,212.637 204.159,215.860 206.373 C 219.083 208.588,221.865 210.400,222.044 210.400 C 222.222 210.400,224.265 211.838,226.584 213.597 C 228.903 215.355,231.232 216.795,231.760 216.797 C 232.288 216.798,233.008 217.262,233.360 217.827 C 233.712 218.392,235.838 220.016,238.084 221.436 C 244.127 225.256,245.103 226.586,244.523 230.209 C 243.641 235.725,243.852 286.572,244.761 287.481 C 245.222 287.942,245.600 288.919,245.600 289.651 C 245.600 292.223,251.570 295.457,255.499 295.014 C 265.000 293.943,265.956 290.401,265.275 258.800 C 264.990 245.600,264.551 233.297,264.300 231.459 C 263.918 228.662,264.131 227.881,265.611 226.659 C 266.583 225.857,267.805 224.797,268.327 224.306 C 268.848 223.814,270.035 223.170,270.963 222.875 C 271.892 222.580,272.854 221.813,273.101 221.170 C 273.348 220.526,274.045 220.000,274.651 220.000 C 275.257 220.000,276.404 219.280,277.200 218.400 C 277.996 217.520,279.076 216.800,279.600 216.800 C 280.124 216.800,281.204 216.080,282.000 215.200 C 282.796 214.320,283.902 213.600,284.457 213.600 C 285.012 213.600,285.587 213.315,285.733 212.967 C 285.880 212.619,288.700 210.520,292.000 208.301 C 295.300 206.082,303.543 200.533,310.318 195.969 C 317.093 191.405,322.805 187.025,323.011 186.235 C 323.218 185.446,323.677 184.800,324.031 184.800 C 324.386 184.800,325.090 183.544,325.597 182.010 C 326.599 178.973,325.378 170.400,323.943 170.400 C 323.534 170.400,323.200 169.884,323.200 169.254 C 323.200 168.198,321.332 167.198,318.415 166.692 C 317.763 166.580,317.103 166.108,316.948 165.644 C 316.506 164.319,307.238 164.570,306.720 165.921 C 306.357 166.865,304.537 167.834,302.267 168.292 C 301.973 168.352,301.433 168.728,301.067 169.128 C 300.679 169.551,300.819 169.615,301.400 169.281 C 301.950 168.965,302.400 169.087,302.400 169.553 C 302.400 170.019,301.500 170.400,300.400 170.400 C 299.300 170.400,297.707 171.093,296.861 171.939 C 296.014 172.786,294.564 173.884,293.638 174.380 C 292.713 174.875,292.201 175.678,292.501 176.164 C 292.816 176.673,292.683 176.822,292.188 176.516 C 291.716 176.224,290.803 176.511,290.160 177.155 C 289.517 177.798,288.776 178.109,288.514 177.847 C 288.252 177.585,287.811 177.963,287.533 178.685 C 287.256 179.408,286.583 180.000,286.038 180.000 C 285.494 180.000,284.396 180.720,283.600 181.600 C 282.804 182.480,281.668 183.200,281.076 183.200 C 280.484 183.200,280.000 183.920,280.000 184.800 C 280.000 185.833,279.433 186.435,278.400 186.500 C 275.363 186.690,275.067 186.805,274.047 188.200 C 273.484 188.970,272.626 189.600,272.140 189.600 C 271.654 189.600,270.917 190.230,270.501 191.000 C 270.086 191.770,268.094 193.120,266.073 194.000 C 264.053 194.880,262.196 196.230,261.946 197.000 C 261.541 198.250,261.010 198.547,259.558 198.336 C 259.315 198.300,258.307 198.801,257.318 199.449 C 255.787 200.452,255.228 200.466,253.560 199.542 C 252.482 198.945,251.060 198.442,250.400 198.423 C 249.740 198.405,248.583 197.306,247.829 195.981 C 246.945 194.427,245.595 193.399,244.029 193.086 C 242.693 192.819,241.600 192.144,241.600 191.586 C 241.600 190.487,239.869 189.600,237.724 189.600 C 236.985 189.600,236.024 188.790,235.590 187.800 C 235.155 186.810,234.236 186.000,233.546 186.000 C 232.856 186.000,231.661 185.370,230.889 184.600 C 230.117 183.830,228.833 183.200,228.036 183.200 C 227.239 183.200,226.398 182.480,226.168 181.600 C 225.918 180.643,225.077 180.000,224.075 180.000 C 223.150 180.000,222.400 179.484,222.400 178.847 C 222.400 178.213,221.984 177.438,221.476 177.124 C 220.857 176.741,220.764 176.923,221.194 177.676 C 221.712 178.585,221.629 178.609,220.757 177.800 C 220.165 177.250,219.032 176.800,218.240 176.800 C 217.377 176.800,216.800 176.212,216.800 175.333 C 216.800 174.527,216.282 173.867,215.649 173.867 C 213.821 173.867,206.473 170.144,206.032 168.996 C 205.812 168.422,206.165 165.908,206.816 163.409 C 207.467 160.909,208.011 158.129,208.025 157.232 C 208.039 156.334,208.579 154.901,209.225 154.047 C 209.871 153.193,210.400 151.465,210.400 150.207 C 210.400 148.950,210.954 146.849,211.631 145.540 C 212.308 144.231,213.224 141.198,213.668 138.801 C 214.111 136.403,214.995 133.442,215.632 132.221 C 216.269 130.999,216.792 128.906,216.795 127.569 C 216.798 126.232,217.520 123.726,218.400 122.000 C 219.280 120.274,220.000 117.925,220.000 116.781 C 220.000 115.637,220.720 113.210,221.600 111.389 C 222.480 109.568,223.200 107.056,223.200 105.808 C 223.200 104.560,223.920 102.126,224.800 100.400 C 225.680 98.674,226.400 96.456,226.400 95.471 C 226.400 94.485,226.971 93.360,227.668 92.970 C 228.387 92.568,228.993 91.078,229.068 89.530 L 229.200 86.800 198.639 86.400 C 181.831 86.180,167.251 86.205,166.239 86.456 M223.253 90.428 C 224.854 91.285,225.453 95.502,224.092 96.343 C 223.703 96.584,223.135 98.495,222.830 100.590 C 222.525 102.686,221.809 105.128,221.239 106.017 C 220.669 106.907,219.934 109.247,219.607 111.217 C 219.279 113.188,218.560 115.700,218.009 116.800 C 217.458 117.900,216.750 120.570,216.435 122.734 C 216.120 124.897,215.395 127.417,214.825 128.334 C 214.255 129.250,213.556 131.568,213.272 133.484 C 212.987 135.400,212.225 137.992,211.577 139.244 C 210.930 140.496,210.400 142.267,210.400 143.180 C 210.400 144.093,209.680 146.889,208.800 149.392 C 207.920 151.896,207.188 154.677,207.173 155.572 C 207.158 156.468,206.450 158.640,205.600 160.400 C 204.077 163.553,203.395 171.200,204.637 171.200 C 204.988 171.200,205.978 171.740,206.837 172.400 C 209.989 174.820,214.492 177.600,215.261 177.600 C 215.695 177.600,216.245 178.107,216.483 178.727 C 216.720 179.346,217.969 180.290,219.257 180.824 C 220.546 181.357,221.600 182.104,221.600 182.482 C 221.600 182.860,222.500 183.395,223.600 183.671 C 224.700 183.948,225.600 184.475,225.600 184.843 C 225.600 185.211,226.450 185.982,227.489 186.556 C 228.527 187.130,230.957 188.673,232.889 189.984 C 236.945 192.737,237.836 193.324,241.849 195.879 C 243.472 196.912,244.800 198.082,244.800 198.479 C 244.800 198.876,245.285 199.200,245.878 199.200 C 246.470 199.200,247.785 199.920,248.800 200.800 C 249.815 201.680,250.936 202.400,251.291 202.400 C 251.647 202.400,252.582 203.078,253.369 203.907 C 254.857 205.474,258.400 204.995,258.400 203.226 C 258.400 202.772,258.742 202.400,259.160 202.400 C 259.578 202.400,261.590 201.230,263.630 199.800 C 265.671 198.370,267.967 196.838,268.733 196.395 C 269.498 195.952,270.752 194.962,271.519 194.195 C 272.287 193.428,273.429 192.800,274.057 192.800 C 274.686 192.800,275.200 192.481,275.200 192.091 C 275.200 191.701,276.460 190.784,278.000 190.054 C 279.540 189.323,280.800 188.382,280.800 187.962 C 280.800 187.543,281.198 187.200,281.685 187.200 C 282.171 187.200,283.639 186.300,284.946 185.200 C 286.253 184.100,287.835 183.200,288.461 183.200 C 289.088 183.200,289.600 182.831,289.600 182.380 C 289.600 181.929,290.500 181.218,291.600 180.800 C 292.700 180.382,293.600 179.714,293.600 179.317 C 293.600 178.919,294.770 178.122,296.200 177.544 C 297.630 176.966,299.088 176.023,299.440 175.447 C 299.792 174.871,300.584 174.400,301.200 174.400 C 301.816 174.400,302.608 173.932,302.960 173.360 C 305.459 169.298,313.830 167.024,316.800 169.600 C 317.815 170.480,318.860 171.202,319.122 171.205 C 320.567 171.222,323.200 176.824,323.200 179.881 C 323.200 183.879,320.274 187.273,312.400 192.412 C 309.760 194.135,307.420 195.751,307.200 196.003 C 306.824 196.434,297.871 202.537,288.426 208.800 C 281.932 213.107,279.694 214.690,278.543 215.790 C 277.961 216.345,276.971 216.800,276.343 216.800 C 275.714 216.800,275.200 217.168,275.200 217.617 C 275.200 218.067,274.215 218.877,273.011 219.417 C 271.807 219.958,270.277 220.863,269.611 221.429 C 268.945 221.995,267.230 223.377,265.800 224.500 L 263.200 226.542 263.195 256.671 C 263.190 284.481,263.077 286.970,261.731 289.012 C 258.232 294.319,253.736 295.075,249.228 291.117 L 246.400 288.634 246.400 257.270 C 246.400 222.318,246.854 224.992,240.200 220.785 C 237.890 219.325,236.000 217.831,236.000 217.465 C 236.000 217.099,235.550 216.794,235.000 216.788 C 234.450 216.781,232.200 215.503,230.000 213.948 C 227.800 212.393,224.380 210.059,222.400 208.762 C 216.155 204.669,215.825 204.439,213.573 202.600 C 212.361 201.610,211.164 200.800,210.913 200.800 C 210.662 200.800,208.914 199.708,207.028 198.374 C 205.143 197.039,202.700 195.338,201.600 194.592 C 200.500 193.847,199.365 192.904,199.078 192.497 C 198.462 191.624,191.897 194.848,190.960 196.483 C 190.608 197.098,189.991 197.600,189.589 197.600 C 189.186 197.600,187.314 198.692,185.428 200.026 C 183.543 201.361,179.300 204.219,176.000 206.379 C 172.700 208.539,169.540 210.711,168.977 211.206 C 164.446 215.193,147.365 225.593,144.036 226.391 C 138.950 227.611,137.706 227.155,131.827 221.909 C 129.144 219.515,125.745 216.985,124.274 216.287 C 122.803 215.589,121.600 214.699,121.600 214.309 C 121.600 213.919,121.104 213.600,120.498 213.600 C 119.892 213.600,118.950 213.062,118.404 212.405 C 117.859 211.748,115.565 210.110,113.306 208.766 C 111.048 207.421,107.220 204.907,104.800 203.178 C 102.380 201.450,99.860 199.674,99.200 199.232 C 97.305 197.964,92.027 194.401,86.751 190.828 C 76.078 183.601,73.663 176.614,79.738 170.538 C 82.542 167.735,90.644 166.803,92.943 169.019 C 93.524 169.580,95.800 171.191,98.000 172.598 C 100.200 174.006,102.360 175.453,102.800 175.813 C 103.240 176.173,106.570 178.428,110.200 180.824 C 113.830 183.220,116.800 185.455,116.800 185.790 C 116.800 186.126,117.250 186.400,117.800 186.401 C 118.350 186.402,119.846 187.302,121.124 188.401 C 122.403 189.500,123.933 190.400,124.524 190.400 C 125.116 190.400,125.600 190.740,125.600 191.156 C 125.600 191.572,126.433 192.382,127.451 192.956 C 131.923 195.477,135.200 197.813,135.200 198.479 C 135.200 198.876,135.864 199.200,136.676 199.200 C 137.488 199.200,138.804 199.920,139.600 200.800 C 141.688 203.108,143.403 202.803,148.592 199.201 C 151.126 197.442,153.611 196.002,154.114 196.001 C 154.617 196.000,155.224 195.491,155.463 194.868 C 155.893 193.748,158.345 192.158,162.600 190.241 C 163.810 189.695,164.800 188.827,164.800 188.311 C 164.800 187.796,165.700 187.148,166.800 186.871 C 167.900 186.595,168.800 185.998,168.800 185.544 C 168.800 185.090,170.060 184.192,171.600 183.548 C 173.140 182.905,174.400 182.023,174.400 181.589 C 174.400 181.155,174.798 180.800,175.285 180.800 C 175.771 180.800,177.239 179.900,178.546 178.800 C 179.853 177.700,181.397 176.800,181.976 176.800 C 182.555 176.800,183.236 176.260,183.489 175.600 C 183.743 174.940,184.336 174.400,184.807 174.400 C 189.198 174.400,191.883 166.561,188.784 162.789 C 188.418 162.344,187.696 160.184,187.180 157.989 C 186.663 155.795,185.774 152.920,185.203 151.600 C 184.633 150.280,183.912 147.641,183.601 145.735 C 183.291 143.829,182.536 141.309,181.924 140.135 C 181.311 138.961,180.808 136.990,180.805 135.756 C 180.802 134.522,180.120 132.002,179.289 130.156 C 178.458 128.310,177.527 125.272,177.219 123.404 C 176.912 121.536,176.366 119.826,176.005 119.603 C 175.645 119.381,175.096 117.309,174.787 114.999 C 174.477 112.690,173.543 109.290,172.712 107.444 C 171.880 105.598,171.200 103.248,171.200 102.222 C 171.200 101.196,170.712 99.646,170.116 98.778 C 168.323 96.166,167.987 92.564,169.391 91.000 C 170.877 89.345,220.249 88.821,223.253 90.428 " stroke="none" fill="#5d5d5d" fill-rule="evenodd"></path><path id="path3" d="M169.391 91.000 C 167.987 92.564,168.323 96.166,170.116 98.778 C 170.712 99.646,171.200 101.196,171.200 102.222 C 171.200 103.248,171.880 105.598,172.712 107.444 C 173.543 109.290,174.477 112.690,174.787 114.999 C 175.096 117.309,175.645 119.381,176.005 119.603 C 176.366 119.826,176.912 121.536,177.219 123.404 C 177.527 125.272,178.458 128.310,179.289 130.156 C 180.120 132.002,180.802 134.522,180.805 135.756 C 180.808 136.990,181.311 138.961,181.924 140.135 C 182.536 141.309,183.291 143.829,183.601 145.735 C 183.912 147.641,184.633 150.280,185.203 151.600 C 185.774 152.920,186.663 155.795,187.180 157.989 C 187.696 160.184,188.418 162.344,188.784 162.789 C 191.883 166.561,189.198 174.400,184.807 174.400 C 184.336 174.400,183.743 174.940,183.489 175.600 C 183.236 176.260,182.555 176.800,181.976 176.800 C 181.397 176.800,179.853 177.700,178.546 178.800 C 177.239 179.900,175.771 180.800,175.285 180.800 C 174.798 180.800,174.400 181.155,174.400 181.589 C 174.400 182.023,173.140 182.905,171.600 183.548 C 170.060 184.192,168.800 185.090,168.800 185.544 C 168.800 185.998,167.900 186.595,166.800 186.871 C 165.700 187.148,164.800 187.796,164.800 188.311 C 164.800 188.827,163.810 189.695,162.600 190.241 C 158.345 192.158,155.893 193.748,155.463 194.868 C 155.224 195.491,154.617 196.000,154.114 196.001 C 153.611 196.002,151.126 197.442,148.592 199.201 C 143.403 202.803,141.688 203.108,139.600 200.800 C 138.804 199.920,137.488 199.200,136.676 199.200 C 135.864 199.200,135.200 198.876,135.200 198.479 C 135.200 197.813,131.923 195.477,127.451 192.956 C 126.433 192.382,125.600 191.572,125.600 191.156 C 125.600 190.740,125.116 190.400,124.524 190.400 C 123.933 190.400,122.403 189.500,121.124 188.401 C 119.846 187.302,118.350 186.402,117.800 186.401 C 117.250 186.400,116.800 186.126,116.800 185.790 C 116.800 185.455,113.830 183.220,110.200 180.824 C 106.570 178.428,103.240 176.173,102.800 175.813 C 102.360 175.453,100.200 174.006,98.000 172.598 C 95.800 171.191,93.524 169.580,92.943 169.019 C 90.644 166.803,82.542 167.735,79.738 170.538 C 73.663 176.614,76.078 183.601,86.751 190.828 C 92.027 194.401,97.305 197.964,99.200 199.232 C 99.860 199.674,102.380 201.450,104.800 203.178 C 107.220 204.907,111.048 207.421,113.306 208.766 C 115.565 210.110,117.859 211.748,118.404 212.405 C 118.950 213.062,119.892 213.600,120.498 213.600 C 121.104 213.600,121.600 213.919,121.600 214.309 C 121.600 214.699,122.803 215.589,124.274 216.287 C 125.745 216.985,129.144 219.515,131.827 221.909 C 137.706 227.155,138.950 227.611,144.036 226.391 C 147.365 225.593,164.446 215.193,168.977 211.206 C 169.540 210.711,172.700 208.539,176.000 206.379 C 179.300 204.219,183.543 201.361,185.428 200.026 C 187.314 198.692,189.186 197.600,189.589 197.600 C 189.991 197.600,190.608 197.098,190.960 196.483 C 191.897 194.848,198.462 191.624,199.078 192.497 C 199.365 192.904,200.500 193.847,201.600 194.592 C 202.700 195.338,205.143 197.039,207.028 198.374 C 208.914 199.708,210.662 200.800,210.913 200.800 C 211.164 200.800,212.361 201.610,213.573 202.600 C 215.825 204.439,216.155 204.669,222.400 208.762 C 224.380 210.059,227.800 212.393,230.000 213.948 C 232.200 215.503,234.450 216.781,235.000 216.788 C 235.550 216.794,236.000 217.099,236.000 217.465 C 236.000 217.831,237.890 219.325,240.200 220.785 C 246.854 224.992,246.400 222.318,246.400 257.270 L 246.400 288.634 249.228 291.117 C 253.736 295.075,258.232 294.319,261.731 289.012 C 263.077 286.970,263.190 284.481,263.195 256.671 L 263.200 226.542 265.800 224.500 C 267.230 223.377,268.945 221.995,269.611 221.429 C 270.277 220.863,271.807 219.958,273.011 219.417 C 274.215 218.877,275.200 218.067,275.200 217.617 C 275.200 217.168,275.714 216.800,276.343 216.800 C 276.971 216.800,277.961 216.345,278.543 215.790 C 279.694 214.690,281.932 213.107,288.426 208.800 C 297.871 202.537,306.824 196.434,307.200 196.003 C 307.420 195.751,309.760 194.135,312.400 192.412 C 320.274 187.273,323.200 183.879,323.200 179.881 C 323.200 176.824,320.567 171.222,319.122 171.205 C 318.860 171.202,317.815 170.480,316.800 169.600 C 313.830 167.024,305.459 169.298,302.960 173.360 C 302.608 173.932,301.816 174.400,301.200 174.400 C 300.584 174.400,299.792 174.871,299.440 175.447 C 299.088 176.023,297.630 176.966,296.200 177.544 C 294.770 178.122,293.600 178.919,293.600 179.317 C 293.600 179.714,292.700 180.382,291.600 180.800 C 290.500 181.218,289.600 181.929,289.600 182.380 C 289.600 182.831,289.088 183.200,288.461 183.200 C 287.835 183.200,286.253 184.100,284.946 185.200 C 283.639 186.300,282.171 187.200,281.685 187.200 C 281.198 187.200,280.800 187.543,280.800 187.962 C 280.800 188.382,279.540 189.323,278.000 190.054 C 276.460 190.784,275.200 191.701,275.200 192.091 C 275.200 192.481,274.686 192.800,274.057 192.800 C 273.429 192.800,272.287 193.428,271.519 194.195 C 270.752 194.962,269.498 195.952,268.733 196.395 C 267.967 196.838,265.671 198.370,263.630 199.800 C 261.590 201.230,259.578 202.400,259.160 202.400 C 258.742 202.400,258.400 202.772,258.400 203.226 C 258.400 204.995,254.857 205.474,253.369 203.907 C 252.582 203.078,251.647 202.400,251.291 202.400 C 250.936 202.400,249.815 201.680,248.800 200.800 C 247.785 199.920,246.470 199.200,245.878 199.200 C 245.285 199.200,244.800 198.876,244.800 198.479 C 244.800 198.082,243.472 196.912,241.849 195.879 C 237.836 193.324,236.945 192.737,232.889 189.984 C 230.957 188.673,228.527 187.130,227.489 186.556 C 226.450 185.982,225.600 185.211,225.600 184.843 C 225.600 184.475,224.700 183.948,223.600 183.671 C 222.500 183.395,221.600 182.860,221.600 182.482 C 221.600 182.104,220.546 181.357,219.257 180.824 C 217.969 180.290,216.720 179.346,216.483 178.727 C 216.245 178.107,215.695 177.600,215.261 177.600 C 214.492 177.600,209.989 174.820,206.837 172.400 C 205.978 171.740,204.988 171.200,204.637 171.200 C 203.395 171.200,204.077 163.553,205.600 160.400 C 206.450 158.640,207.158 156.468,207.173 155.572 C 207.188 154.677,207.920 151.896,208.800 149.392 C 209.680 146.889,210.400 144.093,210.400 143.180 C 210.400 142.267,210.930 140.496,211.577 139.244 C 212.225 137.992,212.987 135.400,213.272 133.484 C 213.556 131.568,214.255 129.250,214.825 128.334 C 215.395 127.417,216.120 124.897,216.435 122.734 C 216.750 120.570,217.458 117.900,218.009 116.800 C 218.560 115.700,219.279 113.188,219.607 111.217 C 219.934 109.247,220.669 106.907,221.239 106.017 C 221.809 105.128,222.525 102.686,222.830 100.590 C 223.135 98.495,223.703 96.584,224.092 96.343 C 225.453 95.502,224.854 91.285,223.253 90.428 C 220.249 88.821,170.877 89.345,169.391 91.000 M221.440 91.360 C 222.843 92.763,222.615 96.954,220.851 102.197 C 219.063 107.510,218.042 110.989,215.981 118.800 C 215.168 121.880,213.734 126.920,212.796 130.000 C 211.857 133.080,210.186 138.840,209.081 142.800 C 207.977 146.760,206.587 151.620,205.992 153.600 C 201.979 166.953,201.421 169.620,202.395 170.794 C 203.197 171.760,212.297 178.161,221.171 184.000 C 223.934 185.819,237.850 195.281,246.400 201.155 C 254.588 206.781,256.291 207.260,259.401 204.814 C 260.510 203.941,266.049 200.116,271.709 196.313 C 277.369 192.510,282.768 188.814,283.707 188.099 C 284.646 187.385,286.086 186.357,286.907 185.815 C 290.214 183.632,294.328 180.850,300.736 176.466 C 311.125 169.357,314.739 168.844,319.294 173.832 C 324.523 179.557,322.308 184.127,310.400 192.186 C 306.220 195.015,299.380 199.666,295.200 202.521 C 291.020 205.376,282.380 211.235,276.000 215.540 C 259.810 226.465,261.600 221.421,261.600 256.128 C 261.600 291.190,261.134 293.141,253.118 291.637 C 247.736 290.628,247.616 289.873,247.472 255.857 C 247.401 239.218,247.013 225.123,246.606 224.396 C 245.893 223.122,242.190 220.446,225.200 208.930 C 220.800 205.947,213.155 200.738,208.211 197.353 C 203.267 193.969,198.498 191.200,197.613 191.200 C 196.372 191.200,168.267 209.233,166.400 211.227 C 166.180 211.462,161.520 214.665,156.044 218.344 C 143.913 226.494,138.600 227.555,134.497 222.647 C 133.323 221.243,130.931 219.122,129.181 217.935 C 127.431 216.747,119.340 211.268,111.200 205.759 C 77.246 182.780,78.400 183.744,78.400 178.336 C 78.400 174.976,78.733 174.286,81.602 171.693 C 86.925 166.884,87.770 167.237,113.060 184.842 C 116.503 187.239,120.178 189.740,121.227 190.400 C 122.276 191.060,127.019 194.272,131.767 197.538 C 142.131 204.667,146.845 204.855,152.800 198.380 C 153.020 198.141,157.160 195.274,162.000 192.010 C 166.840 188.746,173.991 183.898,177.891 181.238 C 181.791 178.577,185.761 175.969,186.712 175.442 C 192.466 172.256,192.643 170.759,188.779 158.000 C 187.070 152.357,184.637 143.931,182.772 137.200 C 182.041 134.560,180.778 130.240,179.966 127.600 C 179.154 124.960,177.730 120.100,176.802 116.800 C 175.874 113.500,174.423 108.460,173.577 105.600 C 170.216 94.236,170.000 92.671,171.628 91.481 C 173.650 90.002,219.970 89.890,221.440 91.360 " stroke="none" fill="#8c8c8c" fill-rule="evenodd"></path><path id="path4" d="M171.628 91.481 C 170.000 92.671,170.216 94.236,173.577 105.600 C 174.423 108.460,175.874 113.500,176.802 116.800 C 177.730 120.100,179.154 124.960,179.966 127.600 C 180.778 130.240,182.041 134.560,182.772 137.200 C 184.637 143.931,187.070 152.357,188.779 158.000 C 192.643 170.759,192.466 172.256,186.712 175.442 C 185.761 175.969,181.791 178.577,177.891 181.238 C 173.991 183.898,166.840 188.746,162.000 192.010 C 157.160 195.274,153.020 198.141,152.800 198.380 C 146.845 204.855,142.131 204.667,131.767 197.538 C 127.019 194.272,122.276 191.060,121.227 190.400 C 120.178 189.740,116.503 187.239,113.060 184.842 C 87.770 167.237,86.925 166.884,81.602 171.693 C 78.733 174.286,78.400 174.976,78.400 178.336 C 78.400 183.744,77.246 182.780,111.200 205.759 C 119.340 211.268,127.431 216.747,129.181 217.935 C 130.931 219.122,133.323 221.243,134.497 222.647 C 138.600 227.555,143.913 226.494,156.044 218.344 C 161.520 214.665,166.180 211.462,166.400 211.227 C 168.267 209.233,196.372 191.200,197.613 191.200 C 198.498 191.200,203.267 193.969,208.211 197.353 C 213.155 200.738,220.800 205.947,225.200 208.930 C 242.190 220.446,245.893 223.122,246.606 224.396 C 247.013 225.123,247.401 239.218,247.472 255.857 C 247.616 289.873,247.736 290.628,253.118 291.637 C 261.134 293.141,261.600 291.190,261.600 256.128 C 261.600 221.421,259.810 226.465,276.000 215.540 C 282.380 211.235,291.020 205.376,295.200 202.521 C 299.380 199.666,306.220 195.015,310.400 192.186 C 322.308 184.127,324.523 179.557,319.294 173.832 C 314.739 168.844,311.125 169.357,300.736 176.466 C 294.328 180.850,290.214 183.632,286.907 185.815 C 286.086 186.357,284.646 187.385,283.707 188.099 C 282.768 188.814,277.369 192.510,271.709 196.313 C 266.049 200.116,260.510 203.941,259.401 204.814 C 256.291 207.260,254.588 206.781,246.400 201.155 C 237.850 195.281,223.934 185.819,221.171 184.000 C 212.297 178.161,203.197 171.760,202.395 170.794 C 201.421 169.620,201.979 166.953,205.992 153.600 C 206.587 151.620,207.977 146.760,209.081 142.800 C 210.186 138.840,211.857 133.080,212.796 130.000 C 213.734 126.920,215.168 121.880,215.981 118.800 C 218.042 110.989,219.063 107.510,220.851 102.197 C 222.615 96.954,222.843 92.763,221.440 91.360 C 219.970 89.890,173.650 90.002,171.628 91.481 M220.800 94.453 C 220.800 95.802,220.378 97.692,219.862 98.653 C 219.346 99.614,218.465 102.380,217.905 104.800 C 216.161 112.329,215.054 116.309,213.998 118.837 C 213.439 120.178,212.552 123.341,212.028 125.867 C 211.503 128.393,210.565 131.436,209.942 132.630 C 209.319 133.823,208.808 135.495,208.805 136.344 C 208.802 137.193,208.063 140.253,207.163 143.144 C 206.262 146.035,204.790 150.920,203.891 154.000 C 202.992 157.080,201.874 160.680,201.408 162.000 C 200.941 163.320,200.403 166.047,200.212 168.060 L 199.865 171.719 210.525 178.860 C 222.052 186.580,221.677 186.321,225.200 189.003 C 226.520 190.008,232.460 194.060,238.400 198.008 C 244.340 201.956,249.675 205.639,250.256 206.192 C 253.278 209.070,257.642 208.387,263.483 204.121 C 265.747 202.468,269.040 200.255,270.800 199.204 C 272.560 198.153,275.477 196.102,277.282 194.647 C 279.088 193.191,280.910 192.000,281.332 192.000 C 281.753 192.000,282.796 191.366,283.649 190.591 C 294.103 181.097,313.069 171.216,316.569 173.440 C 322.290 177.076,319.988 183.726,310.978 189.590 C 307.360 191.944,302.899 195.070,301.065 196.535 C 299.231 198.001,297.374 199.200,296.937 199.200 C 296.501 199.200,294.322 200.640,292.095 202.400 C 289.869 204.160,287.883 205.600,287.683 205.600 C 287.483 205.600,284.683 207.409,281.460 209.620 C 278.237 211.831,273.677 214.907,271.327 216.457 C 266.572 219.591,266.355 219.753,262.400 223.098 L 259.600 225.467 259.200 257.068 C 258.770 291.013,258.919 289.920,254.719 289.920 C 250.432 289.920,250.425 289.867,250.412 257.294 C 250.398 221.992,250.919 224.268,241.396 217.870 C 235.093 213.635,235.348 213.817,230.890 210.390 C 229.179 209.076,227.454 208.000,227.056 208.000 C 226.658 208.000,225.898 207.636,225.366 207.190 C 224.835 206.745,222.960 205.309,221.200 204.000 C 219.440 202.691,217.612 201.299,217.139 200.907 C 216.665 200.516,215.542 199.963,214.644 199.677 C 213.746 199.392,212.368 198.448,211.582 197.580 C 210.795 196.711,209.668 196.000,209.076 196.000 C 208.484 196.000,208.000 195.666,208.000 195.259 C 208.000 193.552,199.129 189.402,196.420 189.842 C 193.937 190.245,188.146 193.802,182.939 198.123 C 181.695 199.156,180.292 200.000,179.821 200.000 C 179.350 200.000,177.488 201.191,175.682 202.647 C 173.877 204.102,170.960 206.146,169.200 207.189 C 167.440 208.231,165.460 209.565,164.800 210.152 C 162.769 211.959,155.694 216.761,153.924 217.534 C 153.002 217.937,151.720 218.794,151.074 219.440 C 146.137 224.377,139.762 225.091,135.957 221.132 C 134.441 219.554,131.580 217.322,129.600 216.170 C 127.620 215.019,125.814 213.815,125.587 213.494 C 125.164 212.896,119.278 208.876,97.600 194.379 C 80.413 182.885,77.926 179.909,81.256 174.827 C 84.838 169.360,89.405 170.031,98.800 177.405 C 99.670 178.088,117.764 190.295,119.840 191.600 C 121.792 192.827,122.594 193.411,125.315 195.588 C 126.699 196.695,128.139 197.624,128.515 197.653 C 128.892 197.682,130.820 198.941,132.800 200.450 C 134.780 201.959,137.175 203.533,138.122 203.947 C 139.070 204.362,140.081 205.084,140.370 205.551 C 141.382 207.188,144.711 206.374,148.346 203.600 C 150.363 202.060,152.281 200.776,152.607 200.747 C 152.933 200.718,154.820 199.459,156.800 197.950 C 158.780 196.441,161.210 194.854,162.200 194.423 C 163.190 193.992,164.000 193.271,164.000 192.820 C 164.000 192.369,164.490 192.000,165.090 192.000 C 165.689 192.000,167.579 190.877,169.290 189.504 C 171.987 187.340,175.079 185.196,180.086 182.016 C 193.895 173.247,194.868 171.987,192.759 165.600 C 191.960 163.180,191.282 160.534,191.253 159.721 C 191.224 158.907,190.702 157.107,190.094 155.721 C 189.486 154.334,188.562 151.136,188.040 148.614 C 187.518 146.091,186.777 143.833,186.392 143.595 C 186.007 143.357,185.445 141.461,185.142 139.381 C 184.840 137.302,184.099 134.628,183.496 133.440 C 182.893 132.252,182.384 130.452,182.365 129.440 C 182.346 128.428,181.778 126.160,181.104 124.400 C 180.430 122.640,179.423 119.187,178.865 116.727 C 178.308 114.267,177.525 111.747,177.126 111.127 C 176.727 110.507,175.977 108.020,175.460 105.600 C 174.942 103.180,174.073 99.725,173.527 97.922 C 171.656 91.741,170.622 92.000,197.175 92.000 L 220.800 92.000 220.800 94.453 " stroke="none" fill="#bbbbbb" fill-rule="evenodd"></path><path id="path5" d="M173.042 93.322 C 172.763 94.050,172.981 96.120,173.527 97.922 C 174.073 99.725,174.942 103.180,175.460 105.600 C 175.977 108.020,176.727 110.507,177.126 111.127 C 177.525 111.747,178.308 114.267,178.865 116.727 C 179.423 119.187,180.430 122.640,181.104 124.400 C 181.778 126.160,182.346 128.428,182.365 129.440 C 182.384 130.452,182.893 132.252,183.496 133.440 C 184.099 134.628,184.840 137.302,185.142 139.381 C 185.445 141.461,186.007 143.357,186.392 143.595 C 186.777 143.833,187.518 146.091,188.040 148.614 C 188.562 151.136,189.486 154.334,190.094 155.721 C 190.702 157.107,191.224 158.907,191.253 159.721 C 191.282 160.534,191.960 163.180,192.759 165.600 C 194.868 171.987,193.895 173.247,180.086 182.016 C 175.079 185.196,171.987 187.340,169.290 189.504 C 167.579 190.877,165.689 192.000,165.090 192.000 C 164.490 192.000,164.000 192.369,164.000 192.820 C 164.000 193.271,163.190 193.992,162.200 194.423 C 161.210 194.854,158.780 196.441,156.800 197.950 C 154.820 199.459,152.933 200.718,152.607 200.747 C 152.281 200.776,150.363 202.060,148.346 203.600 C 144.711 206.374,141.382 207.188,140.370 205.551 C 140.081 205.084,139.070 204.362,138.122 203.947 C 137.175 203.533,134.780 201.959,132.800 200.450 C 130.820 198.941,128.892 197.682,128.515 197.653 C 128.139 197.624,126.699 196.695,125.315 195.588 C 122.594 193.411,121.792 192.827,119.840 191.600 C 117.764 190.295,99.670 178.088,98.800 177.405 C 89.405 170.031,84.838 169.360,81.256 174.827 C 77.926 179.909,80.413 182.885,97.600 194.379 C 119.278 208.876,125.164 212.896,125.587 213.494 C 125.814 213.815,127.620 215.019,129.600 216.170 C 131.580 217.322,134.441 219.554,135.957 221.132 C 139.762 225.091,146.137 224.377,151.074 219.440 C 151.720 218.794,153.002 217.937,153.924 217.534 C 155.694 216.761,162.769 211.959,164.800 210.152 C 165.460 209.565,167.440 208.231,169.200 207.189 C 170.960 206.146,173.877 204.102,175.682 202.647 C 177.488 201.191,179.350 200.000,179.821 200.000 C 180.292 200.000,181.695 199.156,182.939 198.123 C 188.146 193.802,193.937 190.245,196.420 189.842 C 199.129 189.402,208.000 193.552,208.000 195.259 C 208.000 195.666,208.484 196.000,209.076 196.000 C 209.668 196.000,210.795 196.711,211.582 197.580 C 212.368 198.448,213.746 199.392,214.644 199.677 C 215.542 199.963,216.665 200.516,217.139 200.907 C 217.612 201.299,219.440 202.691,221.200 204.000 C 222.960 205.309,224.835 206.745,225.366 207.190 C 225.898 207.636,226.658 208.000,227.056 208.000 C 227.454 208.000,229.179 209.076,230.890 210.390 C 235.348 213.817,235.093 213.635,241.396 217.870 C 250.919 224.268,250.398 221.992,250.412 257.294 C 250.425 289.867,250.432 289.920,254.719 289.920 C 258.919 289.920,258.770 291.013,259.200 257.068 L 259.600 225.467 262.400 223.098 C 266.355 219.753,266.572 219.591,271.327 216.457 C 273.677 214.907,278.237 211.831,281.460 209.620 C 284.683 207.409,287.483 205.600,287.683 205.600 C 287.883 205.600,289.869 204.160,292.095 202.400 C 294.322 200.640,296.501 199.200,296.937 199.200 C 297.374 199.200,299.231 198.001,301.065 196.535 C 302.899 195.070,307.360 191.944,310.978 189.590 C 319.988 183.726,322.290 177.076,316.569 173.440 C 313.069 171.216,294.103 181.097,283.649 190.591 C 282.796 191.366,281.753 192.000,281.332 192.000 C 280.910 192.000,279.088 193.191,277.282 194.647 C 275.477 196.102,272.560 198.153,270.800 199.204 C 269.040 200.255,265.747 202.468,263.483 204.121 C 257.642 208.387,253.278 209.070,250.256 206.192 C 249.675 205.639,244.340 201.956,238.400 198.008 C 232.460 194.060,226.520 190.008,225.200 189.003 C 221.677 186.321,222.052 186.580,210.525 178.860 L 199.865 171.719 200.212 168.060 C 200.403 166.047,200.941 163.320,201.408 162.000 C 201.874 160.680,202.992 157.080,203.891 154.000 C 204.790 150.920,206.262 146.035,207.163 143.144 C 208.063 140.253,208.802 137.193,208.805 136.344 C 208.808 135.495,209.319 133.823,209.942 132.630 C 210.565 131.436,211.503 128.393,212.028 125.867 C 212.552 123.341,213.439 120.178,213.998 118.837 C 215.054 116.309,216.161 112.329,217.905 104.800 C 218.465 102.380,219.346 99.614,219.862 98.653 C 220.378 97.692,220.800 95.802,220.800 94.453 L 220.800 92.000 197.175 92.000 C 175.940 92.000,173.498 92.134,173.042 93.322 " stroke="none" fill="#ffffff" fill-rule="evenodd"></path></g></svg>