<svg id="svg" version="1.1" width="500" height="500" xmlns="http://www.w3.org/2000/svg" xmlns:xlink="http://www.w3.org/1999/xlink" style="display: block;"><g id="svgg"><path id="path0" d="M142.933 90.133 C 141.919 91.148,142.402 92.194,143.474 91.305 C 144.064 90.815,144.784 90.651,145.074 90.940 C 145.363 91.230,145.600 91.047,145.600 90.533 C 145.600 89.528,143.807 89.259,142.933 90.133 M201.600 90.403 C 201.600 90.962,202.251 91.101,203.300 90.768 C 204.244 90.469,204.802 90.549,204.556 90.948 C 204.311 91.344,204.829 91.722,205.707 91.788 C 206.622 91.857,207.169 91.501,206.990 90.954 C 206.581 89.707,201.600 89.198,201.600 90.403 M240.823 90.369 C 240.176 90.778,239.912 91.379,240.237 91.703 C 240.561 92.028,241.253 91.867,241.773 91.347 C 242.924 90.196,248.511 90.086,249.200 91.200 C 249.472 91.640,250.077 92.000,250.545 92.000 C 251.082 92.000,251.028 91.557,250.400 90.800 C 249.280 89.451,242.740 89.156,240.823 90.369 M208.800 92.588 C 211.858 94.148,214.380 96.277,214.823 97.672 C 215.090 98.512,215.644 99.200,216.054 99.200 C 218.891 99.200,213.358 93.109,209.903 92.429 C 208.622 92.177,208.132 92.247,208.800 92.588 M133.386 94.400 C 132.632 95.280,132.282 95.989,132.608 95.975 C 133.440 95.939,136.000 93.929,136.000 93.312 C 136.000 92.301,134.730 92.830,133.386 94.400 M226.676 96.435 C 226.416 97.113,226.427 97.893,226.701 98.168 C 226.976 98.442,227.200 98.093,227.200 97.392 C 227.200 96.691,227.830 95.953,228.600 95.751 C 229.912 95.409,229.910 95.380,228.575 95.293 C 227.791 95.242,226.937 95.756,226.676 96.435 M222.289 99.973 C 221.250 100.839,220.794 101.559,221.276 101.573 C 221.758 101.588,222.804 100.880,223.600 100.000 C 225.453 97.953,224.732 97.938,222.289 99.973 M267.939 100.295 C 270.105 102.645,270.532 102.876,269.959 101.383 C 269.745 100.823,268.766 99.876,267.785 99.278 C 266.083 98.240,266.090 98.287,267.939 100.295 M216.800 102.300 C 216.800 104.376,219.461 106.406,220.638 105.229 C 221.307 104.559,219.930 101.941,218.409 100.991 C 216.936 100.072,216.800 100.182,216.800 102.300 M121.800 105.330 C 121.250 105.552,120.800 106.399,120.800 107.213 C 120.800 108.026,120.124 108.907,119.297 109.169 C 118.470 109.432,117.029 111.346,116.093 113.423 C 115.157 115.500,113.337 119.180,112.048 121.600 C 110.760 124.020,108.661 128.160,107.385 130.800 C 106.110 133.440,103.926 137.678,102.533 140.218 C 101.140 142.758,100.000 145.153,100.000 145.541 C 100.000 145.929,98.715 148.519,97.145 151.297 C 95.575 154.075,94.084 157.439,93.833 158.774 C 93.235 161.941,92.219 163.948,89.972 166.400 C 88.964 167.500,87.734 169.930,87.239 171.800 C 86.743 173.670,85.947 175.200,85.469 175.200 C 84.936 175.200,84.780 176.100,85.066 177.528 C 85.391 179.154,85.180 179.990,84.366 180.303 C 83.724 180.549,83.200 181.301,83.200 181.975 C 83.200 182.649,82.875 183.200,82.478 183.200 C 81.573 183.200,80.000 187.608,80.000 190.144 C 80.000 191.193,79.458 192.258,78.796 192.512 C 78.134 192.766,76.996 194.285,76.266 195.887 C 75.536 197.489,74.291 199.340,73.499 200.000 C 69.991 202.922,69.537 224.409,72.826 231.846 C 73.692 233.802,74.400 236.029,74.400 236.794 C 74.400 237.559,75.120 239.100,76.000 240.218 C 76.880 241.337,77.600 242.714,77.600 243.279 C 77.600 243.844,84.457 258.187,92.837 275.153 C 101.217 292.119,109.215 308.340,110.609 311.200 C 112.004 314.060,113.368 316.580,113.641 316.800 C 113.914 317.020,114.544 318.386,115.040 319.835 C 115.918 322.403,118.505 326.526,120.574 328.657 C 121.138 329.239,121.600 330.056,121.600 330.473 C 121.600 331.409,130.551 340.791,131.450 340.796 C 131.807 340.798,134.147 341.790,136.650 343.000 L 141.200 345.200 193.600 345.455 C 250.579 345.732,254.398 345.516,262.784 341.542 C 268.638 338.767,277.151 330.755,278.906 326.367 C 279.603 324.625,280.487 323.200,280.871 323.200 C 281.708 323.200,284.800 317.330,284.800 315.740 C 284.800 315.122,285.520 313.700,286.400 312.582 C 287.280 311.463,288.000 310.023,288.000 309.382 C 288.000 308.740,288.720 307.300,289.600 306.182 C 290.480 305.063,291.200 303.623,291.200 302.982 C 291.200 302.340,291.890 300.938,292.734 299.865 C 293.578 298.793,294.518 296.584,294.823 294.957 C 295.128 293.331,295.684 292.000,296.057 292.000 C 296.430 292.000,297.167 290.560,297.695 288.800 C 298.222 287.040,298.884 285.600,299.166 285.600 C 299.448 285.600,300.162 284.250,300.752 282.600 C 301.342 280.950,302.045 279.420,302.313 279.200 C 302.581 278.980,304.538 275.200,306.662 270.800 C 308.787 266.400,310.836 262.260,311.216 261.600 C 311.597 260.940,313.023 258.060,314.385 255.200 C 315.748 252.340,317.210 249.460,317.633 248.800 C 318.057 248.140,318.763 246.700,319.201 245.600 C 319.640 244.500,320.360 243.060,320.801 242.400 C 321.243 241.740,321.963 240.300,322.402 239.200 C 322.841 238.100,323.599 236.513,324.086 235.673 C 328.510 228.047,326.718 207.679,320.537 195.332 C 318.042 190.348,316.000 185.839,316.000 185.313 C 316.000 184.787,314.920 183.174,313.600 181.729 C 312.280 180.284,311.207 178.493,311.215 177.751 C 311.242 175.405,298.122 150.420,296.612 149.940 C 295.835 149.694,295.200 148.763,295.200 147.871 C 295.200 146.949,294.542 146.078,293.674 145.851 C 292.835 145.632,291.968 144.765,291.749 143.926 C 291.505 142.992,290.648 142.400,289.542 142.400 C 288.547 142.400,288.003 142.670,288.333 143.000 C 288.663 143.330,289.263 143.600,289.667 143.600 C 290.070 143.600,290.310 143.903,290.200 144.273 C 290.090 144.643,290.961 145.449,292.135 146.064 C 293.458 146.758,294.477 148.128,294.816 149.673 C 295.117 151.042,296.046 152.846,296.881 153.681 C 297.717 154.517,298.400 155.876,298.400 156.702 C 298.400 157.528,298.917 158.633,299.549 159.157 C 300.180 159.682,300.923 161.141,301.200 162.400 C 301.477 163.659,302.223 165.121,302.859 165.649 C 303.494 166.176,304.237 168.001,304.509 169.704 C 304.782 171.407,305.337 172.800,305.743 172.800 C 306.149 172.800,306.998 174.035,307.629 175.545 C 308.260 177.055,309.141 178.516,309.588 178.793 C 310.035 179.069,310.400 180.125,310.400 181.139 C 310.400 182.154,311.120 183.900,312.000 185.018 C 312.880 186.137,313.600 187.479,313.600 188.000 C 313.600 188.521,314.320 189.863,315.200 190.982 C 316.080 192.100,316.800 193.738,316.800 194.620 C 316.800 195.502,317.430 196.684,318.200 197.248 C 320.195 198.707,320.082 219.843,318.073 220.967 C 317.356 221.368,316.800 222.714,316.800 224.048 C 316.800 225.426,316.131 226.988,315.200 227.786 C 314.320 228.539,313.600 229.649,313.600 230.252 C 313.600 230.854,312.880 232.263,312.000 233.382 C 311.120 234.500,310.400 236.039,310.400 236.800 C 310.400 237.561,309.680 239.100,308.800 240.218 C 307.920 241.337,307.200 242.777,307.200 243.418 C 307.200 244.060,306.480 245.500,305.600 246.618 C 304.720 247.737,304.000 249.047,304.000 249.529 C 304.000 250.011,303.280 251.749,302.400 253.391 C 301.520 255.033,300.800 256.788,300.800 257.290 C 300.800 257.793,300.295 258.623,299.678 259.135 C 299.062 259.647,298.314 261.041,298.016 262.233 C 297.719 263.425,297.012 264.940,296.445 265.600 C 295.878 266.260,295.186 267.765,294.906 268.944 C 294.626 270.123,293.858 271.628,293.199 272.287 C 292.539 272.946,292.000 274.003,292.000 274.635 C 292.000 275.267,291.327 276.643,290.504 277.692 C 289.682 278.741,288.748 280.794,288.429 282.254 C 288.110 283.714,287.378 285.089,286.803 285.309 C 286.228 285.530,285.532 286.911,285.257 288.378 C 284.982 289.845,284.226 291.249,283.578 291.498 C 282.930 291.746,282.400 292.624,282.400 293.447 C 282.400 295.131,277.893 304.525,276.744 305.235 C 276.335 305.488,276.000 306.367,276.000 307.190 C 276.000 308.013,275.507 309.178,274.906 309.780 C 274.304 310.382,273.548 311.758,273.227 312.837 C 272.428 315.521,264.398 322.818,260.000 324.856 C 258.020 325.773,255.444 327.036,254.277 327.662 C 252.499 328.615,243.088 328.800,196.435 328.800 L 140.717 328.800 137.415 327.000 C 133.204 324.704,130.400 321.810,130.400 319.760 C 130.400 318.876,128.962 316.922,127.200 315.414 C 125.440 313.908,124.000 311.983,124.000 311.138 C 124.000 310.292,123.280 308.880,122.400 308.000 C 121.520 307.120,120.800 305.827,120.800 305.126 C 120.800 304.426,120.080 302.937,119.200 301.818 C 118.320 300.700,117.600 298.933,117.600 297.892 C 117.600 296.851,117.289 296.000,116.909 296.000 C 116.528 296.000,115.599 294.380,114.843 292.400 C 114.086 290.420,113.166 288.800,112.797 288.800 C 112.429 288.800,111.895 287.745,111.612 286.455 C 111.329 285.166,110.577 283.679,109.941 283.151 C 109.306 282.624,108.563 280.799,108.291 279.096 C 108.018 277.393,107.512 276.000,107.164 276.000 C 106.446 276.000,101.600 266.365,101.600 264.937 C 101.600 264.422,101.254 264.000,100.831 264.000 C 100.408 264.000,99.674 262.560,99.200 260.800 C 98.726 259.040,98.006 257.600,97.600 257.600 C 97.194 257.600,96.485 256.202,96.025 254.493 C 95.565 252.784,94.651 250.940,93.994 250.395 C 93.337 249.850,92.800 248.695,92.800 247.828 C 92.800 246.962,92.080 245.337,91.200 244.218 C 90.320 243.100,89.600 241.660,89.600 241.018 C 89.600 240.377,88.880 238.937,88.000 237.818 C 87.120 236.700,86.400 235.113,86.400 234.292 C 86.400 233.471,85.680 232.080,84.800 231.200 C 83.920 230.320,83.200 229.027,83.200 228.326 C 83.200 227.626,82.480 226.137,81.600 225.018 C 80.720 223.900,80.000 222.300,80.000 221.464 C 80.000 220.628,79.381 218.999,78.624 217.844 C 76.600 214.754,76.582 199.258,78.600 197.024 C 79.370 196.171,80.000 194.921,80.000 194.245 C 80.000 193.569,80.673 192.157,81.496 191.108 C 82.318 190.059,83.240 188.060,83.545 186.667 C 83.849 185.274,84.616 183.935,85.249 183.692 C 85.882 183.449,86.400 182.339,86.400 181.225 C 86.400 180.111,87.120 178.480,88.000 177.600 C 88.880 176.720,89.600 175.509,89.600 174.908 C 89.600 174.307,90.320 172.900,91.200 171.782 C 92.080 170.663,92.800 168.803,92.800 167.649 C 92.800 166.494,93.318 165.351,93.951 165.108 C 94.584 164.865,95.346 163.526,95.644 162.133 C 95.942 160.740,96.864 158.956,97.693 158.169 C 98.522 157.382,99.200 155.840,99.200 154.744 C 99.200 153.647,99.705 152.556,100.321 152.319 C 100.938 152.083,101.678 150.635,101.966 149.103 C 102.253 147.570,102.973 146.130,103.566 145.903 C 104.158 145.675,104.878 144.235,105.166 142.703 C 105.453 141.170,106.208 139.716,106.844 139.472 C 107.480 139.228,108.000 138.043,108.000 136.838 C 108.000 135.634,108.679 134.034,109.508 133.283 C 110.338 132.532,111.229 130.857,111.488 129.559 C 111.763 128.185,112.469 127.200,113.180 127.200 C 113.989 127.200,114.400 126.429,114.400 124.908 C 114.400 123.647,115.120 121.700,116.000 120.582 C 116.880 119.463,117.600 117.761,117.600 116.799 C 117.600 115.723,118.216 114.889,119.200 114.632 C 120.396 114.319,120.800 113.541,120.800 111.546 C 120.800 109.884,121.305 108.597,122.140 108.130 C 122.877 107.717,123.565 106.799,123.669 106.090 C 123.864 104.764,123.534 104.630,121.800 105.330 M273.600 110.000 C 273.600 110.660,273.981 111.200,274.447 111.200 C 274.913 111.200,275.072 111.560,274.800 112.000 C 274.528 112.440,274.687 112.800,275.153 112.800 C 276.110 112.800,276.226 111.921,275.514 110.065 C 274.898 108.460,273.600 108.416,273.600 110.000 M242.283 113.003 C 242.686 113.406,243.867 113.602,244.908 113.438 C 246.509 113.186,246.396 113.073,244.175 112.705 C 242.585 112.441,241.839 112.559,242.283 113.003 M248.800 115.200 C 249.271 116.080,250.059 116.800,250.552 116.800 C 251.045 116.800,250.796 116.080,250.000 115.200 C 249.204 114.320,248.415 113.600,248.248 113.600 C 248.081 113.600,248.329 114.320,248.800 115.200 M238.493 117.937 C 238.442 118.782,237.802 120.135,237.072 120.942 C 236.341 121.749,235.952 122.619,236.208 122.874 C 237.000 123.667,239.354 119.360,238.959 117.839 C 238.620 116.532,238.577 116.541,238.493 117.937 M252.229 124.400 C 252.235 126.600,252.390 127.405,252.574 126.189 C 252.758 124.973,252.753 123.173,252.563 122.189 C 252.373 121.205,252.223 122.200,252.229 124.400 M213.425 124.200 C 213.109 124.970,212.355 125.600,211.749 125.600 C 211.143 125.600,210.026 126.288,209.265 127.128 C 207.038 129.589,199.338 130.400,178.187 130.400 C 156.500 130.400,154.617 130.714,153.869 134.456 C 153.596 135.821,152.884 137.125,152.286 137.354 C 151.689 137.584,151.200 138.584,151.200 139.578 C 151.200 140.571,150.480 142.300,149.600 143.418 C 148.720 144.537,148.000 146.209,148.000 147.134 C 148.000 148.059,147.280 149.432,146.400 150.186 C 145.520 150.939,144.800 152.147,144.800 152.870 C 144.800 153.593,144.080 155.100,143.200 156.218 C 142.320 157.337,141.600 158.792,141.600 159.452 C 141.600 160.671,137.664 168.867,136.727 169.600 C 136.446 169.820,135.945 170.900,135.613 172.000 C 135.282 173.100,134.553 174.540,133.994 175.200 C 133.435 175.860,132.724 177.594,132.414 179.054 C 132.103 180.514,131.378 181.889,130.803 182.109 C 130.228 182.330,129.522 183.765,129.234 185.297 C 128.947 186.830,128.227 188.270,127.634 188.497 C 127.042 188.725,126.332 190.110,126.057 191.575 C 125.783 193.040,125.027 194.679,124.379 195.218 C 123.730 195.756,123.200 196.872,123.200 197.698 C 123.200 198.524,122.480 199.920,121.600 200.800 C 120.720 201.680,120.000 202.964,120.000 203.653 C 120.000 204.342,119.671 205.520,119.269 206.270 C 118.219 208.234,119.958 215.121,121.746 216.078 C 122.546 216.506,123.200 217.575,123.200 218.453 C 123.200 219.332,123.730 220.254,124.378 220.502 C 125.026 220.751,125.796 222.229,126.088 223.787 C 126.380 225.345,127.290 227.290,128.110 228.110 C 128.929 228.929,129.600 230.500,129.600 231.600 C 129.600 232.837,130.054 233.600,130.791 233.600 C 131.558 233.600,132.160 234.720,132.485 236.751 C 132.762 238.483,133.466 240.085,134.050 240.309 C 134.634 240.533,135.347 241.970,135.634 243.503 C 135.922 245.035,136.642 246.475,137.234 246.703 C 137.827 246.930,138.547 248.370,138.834 249.903 C 139.122 251.435,139.862 252.883,140.479 253.119 C 141.095 253.356,141.600 254.585,141.600 255.851 C 141.600 257.136,142.306 258.791,143.200 259.600 C 144.080 260.396,144.800 261.656,144.800 262.400 C 144.800 263.144,145.520 264.404,146.400 265.200 C 147.280 265.996,148.000 267.437,148.000 268.402 C 148.000 269.366,148.720 270.985,149.600 272.000 C 150.480 273.015,151.200 274.610,151.200 275.545 C 151.200 276.480,151.920 277.861,152.800 278.614 C 153.680 279.368,154.400 280.708,154.400 281.592 C 154.400 282.476,155.120 283.920,156.000 284.800 C 156.880 285.680,157.600 287.120,157.600 288.000 C 157.600 289.244,158.133 289.600,160.000 289.600 C 162.462 289.600,163.250 288.497,161.317 287.756 C 159.837 287.188,156.800 281.188,156.800 278.833 C 156.800 277.777,156.350 276.429,155.800 275.836 C 154.003 273.897,151.200 269.682,151.200 268.918 C 151.200 268.507,150.660 267.964,150.000 267.711 C 149.340 267.457,148.800 266.507,148.800 265.599 C 148.800 263.103,146.725 258.652,144.544 256.471 C 143.475 255.402,142.397 253.509,142.149 252.264 C 140.658 244.776,139.994 242.875,138.195 240.945 C 135.722 238.291,134.400 235.786,134.400 233.751 C 134.400 232.895,133.903 231.784,133.296 231.280 C 132.689 230.776,131.965 229.226,131.687 227.835 C 131.409 226.443,130.603 224.666,129.896 223.885 C 126.416 220.040,127.267 216.373,135.381 200.253 C 139.549 191.974,143.418 183.760,143.980 182.000 C 144.542 180.240,145.437 178.260,145.969 177.600 C 147.435 175.779,150.400 169.689,150.400 168.498 C 150.400 167.919,151.120 166.615,152.000 165.600 C 152.880 164.585,153.600 163.087,153.600 162.270 C 153.600 161.453,154.320 160.168,155.200 159.414 C 156.080 158.661,156.800 157.422,156.800 156.662 C 156.800 155.638,160.436 149.304,161.857 147.854 C 161.936 147.773,171.180 147.476,182.400 147.194 C 203.158 146.671,207.697 146.065,212.646 143.155 C 214.101 142.300,215.811 141.600,216.446 141.600 C 218.060 141.600,217.889 139.441,216.200 138.498 C 215.073 137.870,214.722 136.261,214.400 130.259 C 214.176 126.085,213.747 123.417,213.425 124.200 M236.000 127.225 C 236.000 127.651,236.336 128.000,236.746 128.000 C 237.156 128.000,237.729 128.747,238.019 129.660 C 238.309 130.573,238.726 131.141,238.946 130.921 C 239.646 130.221,238.384 127.365,237.170 126.899 C 236.526 126.652,236.000 126.799,236.000 127.225 M282.800 140.800 C 283.596 141.680,284.552 142.400,284.924 142.400 C 286.122 142.400,285.642 140.187,284.335 139.686 C 281.948 138.770,281.353 139.201,282.800 140.800 M221.652 149.263 C 222.708 150.536,224.000 150.772,224.000 149.693 C 224.000 149.305,223.259 148.793,222.354 148.556 C 221.004 148.203,220.878 148.330,221.652 149.263 M230.400 154.743 C 230.400 155.396,232.918 157.600,233.664 157.600 C 234.076 157.600,233.964 156.880,233.414 156.000 C 232.556 154.626,230.400 153.727,230.400 154.743 M255.337 156.078 C 254.761 157.001,254.076 157.542,253.815 157.281 C 253.020 156.486,250.692 162.548,250.112 166.923 C 249.359 172.600,250.606 177.261,255.673 187.718 C 272.384 222.208,272.067 216.736,258.888 243.283 C 251.377 258.410,248.800 264.368,248.800 266.601 L 248.800 269.600 250.400 268.000 C 251.280 267.120,252.000 265.466,252.000 264.325 C 252.000 262.923,252.519 262.115,253.600 261.832 C 254.798 261.518,255.200 260.741,255.200 258.735 C 255.200 256.875,255.689 255.795,256.800 255.200 C 257.853 254.636,258.400 253.525,258.400 251.947 C 258.400 250.599,258.904 249.356,259.551 249.108 C 260.184 248.865,260.951 247.526,261.255 246.133 C 261.560 244.740,262.482 242.741,263.304 241.692 C 264.127 240.643,264.800 239.157,264.800 238.390 C 264.800 237.623,265.317 236.567,265.949 236.043 C 266.580 235.518,267.329 234.034,267.612 232.745 C 267.895 231.455,268.639 230.400,269.264 230.400 C 269.914 230.400,270.392 229.631,270.381 228.600 C 270.357 226.237,274.540 217.604,275.711 217.602 C 276.212 217.601,276.852 216.375,277.133 214.877 C 277.414 213.380,278.186 211.946,278.850 211.692 C 279.906 211.286,279.913 211.003,278.906 209.414 C 278.274 208.416,277.514 206.434,277.217 205.009 C 276.920 203.584,276.373 202.230,276.001 202.001 C 274.981 201.370,270.400 191.667,270.400 190.137 C 270.400 189.402,270.091 188.800,269.714 188.800 C 268.911 188.800,264.800 181.131,264.800 179.634 C 264.800 179.074,264.080 177.700,263.200 176.582 C 262.320 175.463,261.600 173.971,261.600 173.266 C 261.600 172.561,260.880 171.368,260.000 170.614 C 259.095 169.839,258.400 168.254,258.400 166.965 C 258.400 165.711,257.860 164.146,257.200 163.486 C 256.540 162.826,256.000 160.871,256.000 159.143 C 256.000 156.883,256.337 156.000,257.200 156.000 C 257.860 156.000,258.400 155.640,258.400 155.200 C 258.400 153.781,256.416 154.350,255.337 156.078 M242.111 276.769 C 240.510 280.272,239.200 283.872,239.200 284.769 C 239.200 285.666,238.853 286.400,238.428 286.400 C 238.004 286.400,237.271 287.120,236.800 288.000 C 236.048 289.404,236.192 289.600,237.972 289.600 C 239.260 289.600,240.000 289.153,240.000 288.375 C 240.000 287.701,240.540 286.943,241.200 286.689 C 241.860 286.436,242.400 285.367,242.400 284.314 C 242.400 283.261,243.083 281.717,243.919 280.881 C 244.754 280.046,245.676 278.276,245.967 276.948 C 246.259 275.620,247.016 274.335,247.649 274.092 C 249.643 273.327,249.059 270.400,246.911 270.400 C 245.328 270.400,244.551 271.431,242.111 276.769 " stroke="none" fill="#000000" fill-rule="evenodd"></path><path id="path1" d="M145.600 90.533 C 145.600 91.047,145.363 91.230,145.074 90.940 C 144.784 90.651,144.088 90.795,143.527 91.261 C 142.966 91.726,141.201 92.269,139.605 92.467 C 138.010 92.665,135.938 93.541,135.001 94.414 C 134.065 95.286,132.868 96.000,132.341 96.000 C 131.815 96.000,130.787 96.911,130.057 98.025 C 129.327 99.140,128.386 99.838,127.965 99.578 C 127.544 99.318,127.200 99.625,127.200 100.259 C 127.200 100.894,126.480 101.602,125.600 101.832 C 124.208 102.196,123.524 104.100,123.897 106.576 C 123.945 106.893,123.268 107.536,122.392 108.004 C 121.289 108.594,120.800 109.680,120.800 111.535 C 120.800 113.541,120.398 114.318,119.200 114.632 C 118.216 114.889,117.600 115.723,117.600 116.799 C 117.600 117.761,116.880 119.463,116.000 120.582 C 115.120 121.700,114.400 123.647,114.400 124.908 C 114.400 126.429,113.989 127.200,113.180 127.200 C 112.469 127.200,111.763 128.185,111.488 129.559 C 111.229 130.857,110.338 132.532,109.508 133.283 C 108.679 134.034,108.000 135.634,108.000 136.838 C 108.000 138.043,107.480 139.228,106.844 139.472 C 106.208 139.716,105.453 141.170,105.166 142.703 C 104.878 144.235,104.158 145.675,103.566 145.903 C 102.973 146.130,102.253 147.570,101.966 149.103 C 101.678 150.635,100.938 152.083,100.321 152.319 C 99.705 152.556,99.200 153.647,99.200 154.744 C 99.200 155.840,98.522 157.382,97.693 158.169 C 96.864 158.956,95.942 160.740,95.644 162.133 C 95.346 163.526,94.584 164.865,93.951 165.108 C 93.318 165.351,92.800 166.494,92.800 167.649 C 92.800 168.803,92.080 170.663,91.200 171.782 C 90.320 172.900,89.600 174.307,89.600 174.908 C 89.600 175.509,88.880 176.720,88.000 177.600 C 87.120 178.480,86.400 180.111,86.400 181.225 C 86.400 182.339,85.882 183.449,85.249 183.692 C 84.616 183.935,83.849 185.274,83.545 186.667 C 83.240 188.060,82.318 190.059,81.496 191.108 C 80.673 192.157,80.000 193.569,80.000 194.245 C 80.000 194.921,79.370 196.171,78.600 197.024 C 76.582 199.258,76.600 214.754,78.624 217.844 C 79.381 218.999,80.000 220.628,80.000 221.464 C 80.000 222.300,80.720 223.900,81.600 225.018 C 82.480 226.137,83.200 227.626,83.200 228.326 C 83.200 229.027,83.920 230.320,84.800 231.200 C 85.680 232.080,86.400 233.471,86.400 234.292 C 86.400 235.113,87.120 236.700,88.000 237.818 C 88.880 238.937,89.600 240.377,89.600 241.018 C 89.600 241.660,90.320 243.100,91.200 244.218 C 92.080 245.337,92.800 246.962,92.800 247.828 C 92.800 248.695,93.337 249.850,93.994 250.395 C 94.651 250.940,95.565 252.784,96.025 254.493 C 96.485 256.202,97.194 257.600,97.600 257.600 C 98.006 257.600,98.726 259.040,99.200 260.800 C 99.674 262.560,100.408 264.000,100.831 264.000 C 101.254 264.000,101.600 264.422,101.600 264.937 C 101.600 266.365,106.446 276.000,107.164 276.000 C 107.512 276.000,108.018 277.393,108.291 279.096 C 108.563 280.799,109.306 282.624,109.941 283.151 C 110.577 283.679,111.329 285.166,111.612 286.455 C 111.895 287.745,112.429 288.800,112.797 288.800 C 113.166 288.800,114.086 290.420,114.843 292.400 C 115.599 294.380,116.528 296.000,116.909 296.000 C 117.289 296.000,117.600 296.851,117.600 297.892 C 117.600 298.933,118.320 300.700,119.200 301.818 C 120.080 302.937,120.800 304.426,120.800 305.126 C 120.800 305.827,121.520 307.120,122.400 308.000 C 123.280 308.880,124.000 310.292,124.000 311.138 C 124.000 311.983,125.440 313.908,127.200 315.414 C 128.962 316.922,130.400 318.876,130.400 319.760 C 130.400 321.810,133.204 324.704,137.415 327.000 L 140.717 328.800 196.435 328.800 C 243.088 328.800,252.499 328.615,254.277 327.662 C 255.444 327.036,258.020 325.773,260.000 324.856 C 264.398 322.818,272.428 315.521,273.227 312.837 C 273.548 311.758,274.304 310.382,274.906 309.780 C 275.507 309.178,276.000 308.013,276.000 307.190 C 276.000 306.367,276.335 305.488,276.744 305.235 C 277.893 304.525,282.400 295.131,282.400 293.447 C 282.400 292.624,282.930 291.746,283.578 291.498 C 284.226 291.249,284.982 289.845,285.257 288.378 C 285.532 286.911,286.228 285.530,286.803 285.309 C 287.378 285.089,288.110 283.714,288.429 282.254 C 288.748 280.794,289.682 278.741,290.504 277.692 C 291.327 276.643,292.000 275.267,292.000 274.635 C 292.000 274.003,292.539 272.946,293.199 272.287 C 293.858 271.628,294.626 270.123,294.906 268.944 C 295.186 267.765,295.878 266.260,296.445 265.600 C 297.012 264.940,297.719 263.425,298.016 262.233 C 298.314 261.041,299.062 259.647,299.678 259.135 C 300.295 258.623,300.800 257.793,300.800 257.290 C 300.800 256.788,301.520 255.033,302.400 253.391 C 303.280 251.749,304.000 250.011,304.000 249.529 C 304.000 249.047,304.720 247.737,305.600 246.618 C 306.480 245.500,307.200 244.060,307.200 243.418 C 307.200 242.777,307.920 241.337,308.800 240.218 C 309.680 239.100,310.400 237.561,310.400 236.800 C 310.400 236.039,311.120 234.500,312.000 233.382 C 312.880 232.263,313.600 230.854,313.600 230.252 C 313.600 229.649,314.320 228.539,315.200 227.786 C 316.131 226.988,316.800 225.426,316.800 224.048 C 316.800 222.714,317.356 221.368,318.073 220.967 C 320.082 219.843,320.195 198.707,318.200 197.248 C 317.430 196.684,316.800 195.502,316.800 194.620 C 316.800 193.738,316.080 192.100,315.200 190.982 C 314.320 189.863,313.600 188.521,313.600 188.000 C 313.600 187.479,312.880 186.137,312.000 185.018 C 311.120 183.900,310.400 182.154,310.400 181.139 C 310.400 180.125,310.035 179.069,309.588 178.793 C 309.141 178.516,308.260 177.055,307.629 175.545 C 306.998 174.035,306.149 172.800,305.743 172.800 C 305.337 172.800,304.782 171.407,304.509 169.704 C 304.237 168.001,303.494 166.176,302.859 165.649 C 302.223 165.121,301.477 163.659,301.200 162.400 C 300.923 161.141,300.180 159.682,299.549 159.157 C 298.917 158.633,298.400 157.528,298.400 156.702 C 298.400 155.876,297.717 154.517,296.881 153.681 C 296.046 152.846,295.117 151.042,294.816 149.673 C 294.477 148.128,293.458 146.758,292.135 146.064 C 290.961 145.449,290.090 144.643,290.200 144.273 C 290.310 143.903,290.070 143.600,289.667 143.600 C 289.263 143.600,288.663 143.330,288.333 143.000 C 288.003 142.670,286.915 142.400,285.914 142.400 C 284.913 142.400,283.838 141.984,283.524 141.476 C 283.146 140.865,283.307 140.772,284.000 141.200 C 284.698 141.631,284.854 141.535,284.468 140.911 C 284.150 140.395,283.579 140.166,283.200 140.400 C 282.821 140.634,282.271 140.439,281.979 139.966 C 281.672 139.469,280.474 139.320,279.142 139.613 C 274.416 140.651,272.334 138.725,274.999 135.780 C 276.778 133.814,277.130 113.577,275.395 112.999 C 274.842 112.814,274.594 112.334,274.842 111.932 C 275.091 111.529,274.913 111.200,274.447 111.200 C 273.981 111.200,273.600 110.199,273.600 108.977 C 273.600 107.671,272.940 106.277,272.000 105.600 C 271.120 104.966,270.400 103.999,270.400 103.452 C 270.400 102.351,267.658 100.608,266.985 101.281 C 266.751 101.515,266.614 101.053,266.680 100.253 C 266.749 99.422,266.343 98.895,265.731 99.023 C 265.143 99.146,264.471 98.516,264.238 97.623 C 264.004 96.730,263.329 96.000,262.738 96.000 C 262.146 96.000,260.971 95.258,260.127 94.352 C 259.074 93.221,257.173 92.558,254.072 92.238 C 251.587 91.981,249.362 91.463,249.129 91.086 C 248.578 90.193,242.622 90.193,242.071 91.086 C 241.838 91.463,239.612 91.981,237.126 92.238 C 234.148 92.545,232.006 93.267,230.851 94.352 C 229.886 95.259,228.670 96.000,228.148 96.000 C 227.627 96.000,227.200 96.540,227.200 97.200 C 227.200 97.860,226.750 98.411,226.200 98.425 C 224.443 98.470,220.800 102.262,220.800 104.047 C 220.800 105.291,220.447 105.636,219.535 105.286 C 218.839 105.019,217.939 104.800,217.535 104.800 C 217.131 104.800,216.800 103.705,216.800 102.366 C 216.800 101.028,216.350 99.372,215.800 98.688 C 213.769 96.159,210.019 92.800,209.222 92.795 C 208.770 92.792,207.399 92.268,206.175 91.630 C 204.952 90.991,203.422 90.672,202.775 90.920 C 202.129 91.168,201.600 90.973,201.600 90.486 C 201.600 89.855,193.537 89.600,173.600 89.600 C 152.800 89.600,145.600 89.840,145.600 90.533 M203.806 93.783 C 203.682 94.394,204.958 95.101,207.000 95.554 C 208.870 95.968,210.400 96.765,210.400 97.326 C 210.400 97.886,211.120 98.729,212.000 99.200 C 212.880 99.671,213.600 100.499,213.600 101.040 C 213.600 101.581,214.320 103.367,215.200 105.009 C 217.078 108.513,217.239 112.398,215.623 115.200 C 214.988 116.300,214.088 118.046,213.624 119.081 C 212.663 121.219,210.298 123.408,206.800 125.398 C 204.714 126.585,201.155 126.803,179.630 127.061 C 157.754 127.323,154.746 127.512,153.879 128.679 C 153.010 129.849,149.968 135.850,147.329 141.600 C 146.825 142.700,146.087 144.140,145.691 144.800 C 145.295 145.460,144.575 146.900,144.091 148.000 C 143.607 149.100,142.896 150.540,142.509 151.200 C 140.569 154.516,132.796 170.917,132.798 171.692 C 132.799 172.183,132.135 173.443,131.322 174.492 C 130.509 175.541,129.609 177.365,129.321 178.544 C 129.033 179.723,128.312 181.173,127.720 181.766 C 127.127 182.359,126.199 184.184,125.659 185.822 C 125.118 187.460,124.344 188.800,123.938 188.800 C 123.532 188.800,123.200 189.471,123.200 190.292 C 123.200 191.113,122.480 192.700,121.600 193.818 C 120.720 194.937,120.000 196.287,120.000 196.817 C 120.000 197.348,119.244 199.271,118.319 201.091 C 114.383 208.840,114.475 208.501,115.678 210.820 C 116.295 212.010,116.800 213.575,116.800 214.299 C 116.800 215.023,117.520 216.065,118.400 216.614 C 119.280 217.164,120.000 218.431,120.000 219.429 C 120.000 220.427,120.720 221.861,121.600 222.614 C 122.480 223.368,123.200 224.723,123.200 225.626 C 123.200 226.528,123.920 228.040,124.800 228.984 C 125.680 229.929,126.400 231.369,126.400 232.184 C 126.400 233.000,127.120 234.440,128.000 235.384 C 128.880 236.329,129.600 237.780,129.600 238.608 C 129.600 239.436,130.158 240.672,130.839 241.354 C 131.521 242.035,132.286 243.629,132.539 244.896 C 132.793 246.163,133.287 247.200,133.638 247.200 C 133.989 247.200,134.709 248.550,135.239 250.200 C 135.769 251.850,136.669 253.740,137.239 254.400 C 137.809 255.060,138.522 256.590,138.824 257.800 C 139.126 259.010,139.689 260.000,140.075 260.000 C 140.461 260.000,141.179 261.596,141.670 263.546 C 142.161 265.496,143.021 267.267,143.580 267.482 C 144.140 267.697,144.833 269.126,145.121 270.659 C 145.408 272.192,146.174 273.649,146.822 273.898 C 147.470 274.146,148.000 275.033,148.000 275.867 C 148.000 276.701,148.720 278.300,149.600 279.418 C 150.480 280.537,151.200 282.373,151.200 283.498 C 151.200 284.725,151.840 285.886,152.800 286.400 C 153.827 286.950,154.400 288.075,154.400 289.543 C 154.400 292.882,153.270 292.800,199.505 292.800 L 242.079 292.800 243.091 290.000 C 243.648 288.460,244.440 287.200,244.852 287.200 C 245.263 287.200,245.600 286.368,245.600 285.351 C 245.600 284.334,246.320 282.729,247.200 281.784 C 248.080 280.840,248.800 279.560,248.800 278.941 C 248.800 278.322,249.520 276.900,250.400 275.782 C 251.280 274.663,252.000 272.991,252.000 272.066 C 252.000 271.141,252.720 269.768,253.600 269.014 C 254.480 268.261,255.200 266.824,255.200 265.822 C 255.200 264.820,255.920 263.280,256.800 262.400 C 257.680 261.520,258.400 259.913,258.400 258.828 C 258.400 257.675,259.064 256.501,260.000 256.000 C 261.003 255.463,261.600 254.325,261.600 252.950 C 261.600 251.743,262.320 250.139,263.200 249.386 C 264.080 248.632,264.800 247.101,264.800 245.983 C 264.800 244.865,265.305 243.756,265.921 243.519 C 266.538 243.283,267.278 241.835,267.566 240.303 C 267.853 238.770,268.573 237.330,269.166 237.103 C 269.758 236.875,270.478 235.435,270.766 233.903 C 271.053 232.370,271.773 230.930,272.366 230.703 C 272.958 230.475,273.678 229.035,273.966 227.503 C 274.253 225.970,274.973 224.530,275.566 224.303 C 276.158 224.075,276.878 222.635,277.166 221.103 C 277.453 219.570,278.176 218.129,278.772 217.900 C 279.368 217.671,280.096 216.520,280.390 215.342 C 280.684 214.164,281.471 212.594,282.139 211.853 C 283.225 210.647,283.219 210.268,282.082 208.253 C 281.383 207.014,280.449 205.100,280.007 204.000 C 279.565 202.900,278.843 201.460,278.401 200.800 C 277.960 200.140,277.240 198.700,276.801 197.600 C 276.363 196.500,275.643 195.060,275.201 194.400 C 274.760 193.740,274.040 192.300,273.601 191.200 C 273.163 190.100,272.443 188.660,272.001 188.000 C 271.560 187.340,270.840 185.900,270.401 184.800 C 269.963 183.700,269.257 182.260,268.832 181.600 C 268.408 180.940,267.096 178.240,265.916 175.600 C 264.737 172.960,263.292 170.242,262.706 169.560 C 257.863 163.921,262.365 145.600,268.593 145.600 C 269.375 145.600,270.489 144.841,271.069 143.913 C 272.452 141.698,282.702 141.943,284.375 144.231 C 284.926 144.984,286.000 145.600,286.763 145.600 C 287.526 145.600,288.329 146.287,288.549 147.126 C 288.768 147.965,289.635 148.832,290.474 149.051 C 291.313 149.271,292.000 150.057,292.000 150.799 C 292.000 151.541,292.720 153.063,293.600 154.182 C 294.480 155.300,295.200 156.887,295.200 157.708 C 295.200 158.529,295.920 159.920,296.800 160.800 C 297.680 161.680,298.400 163.441,298.400 164.714 C 298.400 165.994,298.917 167.227,299.556 167.472 C 300.192 167.716,300.947 169.170,301.234 170.703 C 301.522 172.235,302.242 173.675,302.834 173.903 C 303.427 174.130,304.152 175.595,304.445 177.158 C 304.738 178.721,305.446 180.000,306.019 180.000 C 306.606 180.000,307.290 181.367,307.589 183.137 C 307.881 184.863,308.633 186.472,309.260 186.712 C 309.887 186.953,310.400 187.833,310.400 188.667 C 310.400 189.501,311.065 191.043,311.878 192.092 C 312.691 193.141,313.609 195.033,313.918 196.297 C 314.226 197.560,315.038 199.152,315.721 199.836 C 316.739 200.854,316.903 202.680,316.630 209.939 C 316.304 218.568,316.066 219.507,312.659 225.600 C 312.290 226.260,311.575 227.700,311.070 228.800 C 310.565 229.900,306.106 239.080,301.162 249.200 C 296.218 259.320,291.940 268.377,291.656 269.328 C 291.371 270.278,290.612 271.492,289.969 272.026 C 289.326 272.559,288.800 273.623,288.800 274.390 C 288.800 275.157,288.080 276.700,287.200 277.818 C 286.320 278.937,285.600 280.377,285.600 281.018 C 285.600 281.660,284.927 283.043,284.104 284.092 C 283.282 285.141,282.348 287.194,282.029 288.654 C 281.710 290.114,280.943 291.502,280.325 291.740 C 279.706 291.977,279.200 292.654,279.200 293.243 C 279.200 293.833,278.390 295.874,277.400 297.779 C 276.410 299.685,274.714 303.304,273.631 305.822 C 272.549 308.340,271.418 310.400,271.118 310.400 C 270.819 310.400,270.359 311.252,270.098 312.294 C 269.836 313.336,267.907 315.564,265.811 317.245 C 263.715 318.925,261.356 320.953,260.569 321.750 C 259.782 322.548,258.370 323.200,257.432 323.200 C 256.494 323.200,255.030 323.830,254.179 324.600 C 252.737 325.905,248.856 326.000,196.916 326.000 L 141.200 326.000 137.400 323.724 C 135.247 322.435,133.600 320.858,133.600 320.087 C 133.600 318.585,131.769 315.910,129.000 313.365 C 128.010 312.456,127.200 311.280,127.200 310.754 C 127.200 310.227,126.670 309.356,126.021 308.818 C 125.373 308.279,124.612 306.611,124.330 305.111 C 124.049 303.610,123.529 302.203,123.174 301.984 C 122.820 301.765,120.667 297.719,118.389 292.993 C 116.112 288.267,113.920 283.860,113.519 283.200 C 113.117 282.540,112.393 281.100,111.909 280.000 C 111.425 278.900,110.707 277.460,110.313 276.800 C 109.919 276.140,109.237 274.700,108.799 273.600 C 108.360 272.500,107.640 271.060,107.199 270.400 C 106.757 269.740,106.037 268.300,105.599 267.200 C 105.160 266.100,104.440 264.660,103.999 264.000 C 103.557 263.340,102.827 261.900,102.377 260.800 C 101.363 258.326,99.186 253.607,98.316 252.000 C 95.220 246.278,92.800 241.177,92.800 240.370 C 92.800 239.834,92.283 238.967,91.651 238.443 C 91.020 237.918,90.277 236.459,90.000 235.200 C 89.723 233.941,89.003 232.501,88.400 232.000 C 87.797 231.499,87.063 229.998,86.770 228.663 C 86.477 227.329,85.554 225.554,84.719 224.719 C 83.883 223.883,83.200 222.454,83.200 221.543 C 83.200 220.631,82.699 219.385,82.087 218.773 C 79.459 216.145,79.787 197.600,82.462 197.600 C 82.868 197.600,83.200 196.533,83.200 195.228 C 83.200 193.675,83.752 192.561,84.800 192.000 C 85.736 191.499,86.400 190.325,86.400 189.172 C 86.400 188.087,87.120 186.480,88.000 185.600 C 88.880 184.720,89.600 183.335,89.600 182.522 C 89.600 181.710,90.320 180.215,91.200 179.200 C 92.080 178.185,92.800 176.566,92.800 175.602 C 92.800 174.637,93.520 173.196,94.400 172.400 C 95.280 171.604,96.000 170.164,96.000 169.200 C 96.000 168.236,96.720 166.796,97.600 166.000 C 98.480 165.204,99.200 163.734,99.200 162.733 C 99.200 161.733,99.686 160.429,100.279 159.835 C 100.873 159.241,101.801 157.416,102.341 155.778 C 102.882 154.140,103.656 152.800,104.062 152.800 C 104.468 152.800,104.800 152.129,104.800 151.308 C 104.800 150.487,105.520 148.900,106.400 147.782 C 107.280 146.663,108.000 144.994,108.000 144.074 C 108.000 143.153,108.671 141.729,109.490 140.910 C 110.310 140.090,111.226 138.110,111.527 136.510 C 111.833 134.878,112.545 133.600,113.147 133.600 C 113.745 133.600,114.458 132.339,114.755 130.758 C 115.048 129.195,115.808 127.716,116.444 127.472 C 117.080 127.228,117.600 126.167,117.600 125.114 C 117.600 124.061,118.320 122.480,119.200 121.600 C 120.080 120.720,120.800 119.103,120.800 118.007 C 120.800 116.880,121.495 115.579,122.400 115.014 C 123.335 114.430,124.000 113.149,124.000 111.930 C 124.000 110.783,124.720 109.015,125.600 108.000 C 126.480 106.985,127.200 105.850,127.200 105.478 C 127.200 105.105,127.740 104.800,128.400 104.800 C 129.060 104.800,129.600 104.226,129.600 103.525 C 129.600 102.824,130.320 102.062,131.200 101.832 C 132.080 101.602,132.800 100.915,132.800 100.307 C 132.800 99.698,133.326 99.200,133.969 99.200 C 134.612 99.200,135.782 98.528,136.569 97.706 C 137.356 96.885,139.350 95.968,141.000 95.670 C 142.791 95.346,144.000 94.673,144.000 94.000 C 144.000 93.052,148.754 92.864,174.006 92.819 C 197.880 92.776,203.970 92.973,203.806 93.783 M254.400 97.223 C 254.400 97.809,255.792 98.494,257.600 98.800 C 259.567 99.132,260.800 99.776,260.800 100.470 C 260.800 101.092,261.520 101.600,262.400 101.600 C 263.467 101.600,264.000 102.133,264.000 103.200 C 264.000 104.267,264.533 104.800,265.600 104.800 C 266.480 104.800,267.157 105.070,267.105 105.400 C 266.807 107.289,267.341 108.800,268.307 108.800 C 269.648 108.800,270.374 111.243,270.389 115.800 C 270.397 118.284,270.723 119.200,271.600 119.200 C 272.521 119.200,272.800 120.222,272.800 123.600 C 272.800 126.978,272.521 128.000,271.600 128.000 C 270.723 128.000,270.397 128.916,270.389 131.400 C 270.374 135.957,269.648 138.400,268.307 138.400 C 267.698 138.400,267.200 139.118,267.200 139.995 C 267.200 141.886,260.640 148.800,258.846 148.800 C 258.161 148.800,257.600 149.340,257.600 150.000 C 257.600 150.865,256.714 151.200,254.428 151.200 C 252.075 151.200,251.035 151.613,250.400 152.800 C 249.037 155.346,237.600 154.905,237.600 152.307 C 237.600 151.551,236.595 151.200,234.428 151.200 C 232.075 151.200,231.035 150.787,230.400 149.600 C 229.929 148.720,229.016 148.000,228.372 148.000 C 227.727 148.000,227.200 147.426,227.200 146.725 C 227.200 146.024,226.480 145.262,225.600 145.032 C 224.714 144.800,224.000 143.941,224.000 143.107 C 224.000 142.133,223.434 141.600,222.400 141.600 C 221.093 141.600,220.800 141.067,220.800 138.688 C 220.800 136.854,220.289 135.403,219.419 134.767 C 217.515 133.374,217.597 119.345,219.527 116.399 C 220.227 115.331,220.800 113.367,220.800 112.035 C 220.800 110.480,221.373 109.256,222.400 108.614 C 223.280 108.065,224.000 106.982,224.000 106.208 C 224.000 105.433,224.516 104.800,225.146 104.800 C 225.776 104.800,226.521 104.080,226.800 103.200 C 227.079 102.320,228.004 101.600,228.854 101.600 C 229.704 101.600,230.400 101.060,230.400 100.400 C 230.400 99.653,231.156 99.200,232.400 99.200 C 233.500 99.200,235.106 98.494,235.968 97.632 C 238.420 95.180,254.400 94.825,254.400 97.223 M238.911 109.200 C 238.657 109.860,237.928 110.400,237.289 110.400 C 236.650 110.400,235.897 111.450,235.615 112.733 C 235.333 114.016,234.584 115.265,233.951 115.508 C 232.575 116.036,232.224 133.600,233.589 133.600 C 234.023 133.600,234.890 134.824,235.515 136.320 C 236.338 138.290,237.316 139.186,239.059 139.569 C 240.383 139.860,241.665 140.616,241.908 141.249 C 242.536 142.886,248.800 142.841,248.800 141.200 C 248.800 140.540,249.160 140.000,249.600 140.000 C 251.378 140.000,251.623 139.843,252.174 138.352 C 252.490 137.499,253.300 136.800,253.974 136.800 C 254.747 136.800,255.200 136.064,255.200 134.807 C 255.200 133.680,255.895 132.379,256.800 131.814 C 258.193 130.945,258.400 129.949,258.400 124.133 C 258.400 118.123,258.239 117.408,256.800 117.032 C 255.612 116.721,255.200 115.941,255.200 114.000 C 255.200 111.556,253.391 109.969,251.000 110.313 C 250.670 110.361,250.400 109.860,250.400 109.200 C 250.400 108.249,249.254 108.000,244.886 108.000 C 240.722 108.000,239.258 108.294,238.911 109.200 M247.200 113.403 C 251.876 115.305,253.259 119.259,252.373 128.200 C 252.003 131.933,251.505 133.600,250.759 133.600 C 250.165 133.600,249.387 134.123,249.029 134.762 C 247.990 136.620,242.964 136.560,240.551 134.661 C 239.398 133.754,238.636 132.831,238.857 132.610 C 239.416 132.050,237.496 128.000,236.672 128.000 C 235.543 128.000,235.926 121.858,237.116 120.869 C 237.730 120.360,238.474 118.656,238.769 117.083 C 239.120 115.215,239.840 114.083,240.844 113.820 C 241.690 113.599,242.234 113.178,242.053 112.885 C 241.579 112.119,244.851 112.448,247.200 113.403 M216.200 138.498 C 217.103 139.002,217.600 140.239,217.600 141.986 C 217.600 143.990,218.015 144.824,219.200 145.200 C 220.080 145.479,220.800 146.257,220.800 146.929 C 220.800 147.600,221.520 148.338,222.400 148.568 C 223.280 148.798,224.000 149.485,224.000 150.093 C 224.000 150.702,224.720 151.200,225.600 151.200 C 226.667 151.200,227.200 151.733,227.200 152.800 C 227.200 154.073,227.733 154.400,229.808 154.400 C 231.568 154.400,232.747 154.932,233.436 156.035 C 234.931 158.428,253.935 158.324,255.439 155.914 C 256.437 154.316,258.400 153.843,258.400 155.200 C 258.400 155.640,257.860 156.000,257.200 156.000 C 256.337 156.000,256.000 156.883,256.000 159.143 C 256.000 160.871,256.540 162.826,257.200 163.486 C 257.860 164.146,258.400 165.711,258.400 166.965 C 258.400 168.254,259.095 169.839,260.000 170.614 C 260.880 171.368,261.600 172.561,261.600 173.266 C 261.600 173.971,262.320 175.463,263.200 176.582 C 264.080 177.700,264.800 179.074,264.800 179.634 C 264.800 181.131,268.911 188.800,269.714 188.800 C 270.091 188.800,270.400 189.402,270.400 190.137 C 270.400 191.667,274.981 201.370,276.001 202.001 C 276.373 202.230,276.920 203.584,277.217 205.009 C 277.514 206.434,278.274 208.416,278.906 209.414 C 279.913 211.003,279.906 211.286,278.850 211.692 C 278.186 211.946,277.414 213.380,277.133 214.877 C 276.852 216.375,276.212 217.601,275.711 217.602 C 274.540 217.604,270.357 226.237,270.381 228.600 C 270.392 229.631,269.914 230.400,269.264 230.400 C 268.639 230.400,267.895 231.455,267.612 232.745 C 267.329 234.034,266.580 235.518,265.949 236.043 C 265.317 236.567,264.800 237.623,264.800 238.390 C 264.800 239.157,264.127 240.643,263.304 241.692 C 262.482 242.741,261.560 244.740,261.255 246.133 C 260.951 247.526,260.184 248.865,259.551 249.108 C 258.904 249.356,258.400 250.599,258.400 251.947 C 258.400 253.525,257.853 254.636,256.800 255.200 C 255.689 255.795,255.200 256.875,255.200 258.735 C 255.200 260.741,254.798 261.518,253.600 261.832 C 252.519 262.115,252.000 262.923,252.000 264.325 C 252.000 265.466,251.280 267.120,250.400 268.000 C 249.520 268.880,248.800 270.511,248.800 271.625 C 248.800 272.739,248.282 273.849,247.649 274.092 C 247.016 274.335,246.259 275.620,245.967 276.948 C 245.676 278.276,244.754 280.046,243.919 280.881 C 243.083 281.717,242.400 283.261,242.400 284.314 C 242.400 285.367,241.860 286.436,241.200 286.689 C 240.540 286.943,240.000 287.701,240.000 288.375 C 240.000 289.459,235.264 289.600,198.800 289.600 C 158.133 289.600,157.600 289.579,157.600 288.000 C 157.600 287.120,156.880 285.680,156.000 284.800 C 155.120 283.920,154.400 282.476,154.400 281.592 C 154.400 280.708,153.680 279.368,152.800 278.614 C 151.920 277.861,151.200 276.480,151.200 275.545 C 151.200 274.610,150.480 273.015,149.600 272.000 C 148.720 270.985,148.000 269.366,148.000 268.402 C 148.000 267.437,147.280 265.996,146.400 265.200 C 145.520 264.404,144.800 263.144,144.800 262.400 C 144.800 261.656,144.080 260.396,143.200 259.600 C 142.306 258.791,141.600 257.136,141.600 255.851 C 141.600 254.585,141.095 253.356,140.479 253.119 C 139.862 252.883,139.122 251.435,138.834 249.903 C 138.547 248.370,137.827 246.930,137.234 246.703 C 136.642 246.475,135.922 245.035,135.634 243.503 C 135.347 241.970,134.634 240.533,134.050 240.309 C 133.466 240.085,132.762 238.483,132.485 236.751 C 132.160 234.720,131.558 233.600,130.791 233.600 C 130.054 233.600,129.600 232.837,129.600 231.600 C 129.600 230.500,128.929 228.929,128.110 228.110 C 127.290 227.290,126.380 225.345,126.088 223.787 C 125.796 222.229,125.026 220.751,124.378 220.502 C 123.730 220.254,123.200 219.332,123.200 218.453 C 123.200 217.575,122.546 216.506,121.746 216.078 C 119.958 215.121,118.219 208.234,119.269 206.270 C 119.671 205.520,120.000 204.342,120.000 203.653 C 120.000 202.964,120.720 201.680,121.600 200.800 C 122.480 199.920,123.200 198.524,123.200 197.698 C 123.200 196.872,123.730 195.756,124.379 195.218 C 125.027 194.679,125.783 193.040,126.057 191.575 C 126.332 190.110,127.042 188.725,127.634 188.497 C 128.227 188.270,128.947 186.830,129.234 185.297 C 129.522 183.765,130.228 182.330,130.803 182.109 C 131.378 181.889,132.103 180.514,132.414 179.054 C 132.724 177.594,133.435 175.860,133.994 175.200 C 134.553 174.540,135.282 173.100,135.613 172.000 C 135.945 170.900,136.446 169.820,136.727 169.600 C 137.664 168.867,141.600 160.671,141.600 159.452 C 141.600 158.792,142.320 157.337,143.200 156.218 C 144.080 155.100,144.800 153.593,144.800 152.870 C 144.800 152.147,145.520 150.939,146.400 150.186 C 147.280 149.432,148.000 148.059,148.000 147.134 C 148.000 146.209,148.720 144.537,149.600 143.418 C 150.480 142.300,151.200 140.571,151.200 139.578 C 151.200 138.584,151.689 137.584,152.286 137.354 C 152.884 137.125,153.596 135.821,153.869 134.456 C 154.617 130.714,156.500 130.400,178.187 130.400 C 199.338 130.400,207.038 129.589,209.265 127.128 C 210.026 126.288,211.143 125.600,211.749 125.600 C 212.355 125.600,213.109 124.970,213.425 124.200 C 213.747 123.417,214.176 126.085,214.400 130.259 C 214.722 136.261,215.073 137.870,216.200 138.498 " stroke="none" fill="#313131" fill-rule="evenodd"></path><path id="path2" d="M144.000 94.000 C 144.000 94.673,142.791 95.346,141.000 95.670 C 139.350 95.968,137.356 96.885,136.569 97.706 C 135.782 98.528,134.612 99.200,133.969 99.200 C 133.326 99.200,132.800 99.698,132.800 100.307 C 132.800 100.915,132.080 101.602,131.200 101.832 C 130.320 102.062,129.600 102.824,129.600 103.525 C 129.600 104.226,129.060 104.800,128.400 104.800 C 127.740 104.800,127.200 105.105,127.200 105.478 C 127.200 105.850,126.480 106.985,125.600 108.000 C 124.720 109.015,124.000 110.783,124.000 111.930 C 124.000 113.149,123.335 114.430,122.400 115.014 C 121.495 115.579,120.800 116.880,120.800 118.007 C 120.800 119.103,120.080 120.720,119.200 121.600 C 118.320 122.480,117.600 124.061,117.600 125.114 C 117.600 126.167,117.080 127.228,116.444 127.472 C 115.808 127.716,115.048 129.195,114.755 130.758 C 114.458 132.339,113.745 133.600,113.147 133.600 C 112.545 133.600,111.833 134.878,111.527 136.510 C 111.226 138.110,110.310 140.090,109.490 140.910 C 108.671 141.729,108.000 143.153,108.000 144.074 C 108.000 144.994,107.280 146.663,106.400 147.782 C 105.520 148.900,104.800 150.487,104.800 151.308 C 104.800 152.129,104.468 152.800,104.062 152.800 C 103.656 152.800,102.882 154.140,102.341 155.778 C 101.801 157.416,100.873 159.241,100.279 159.835 C 99.686 160.429,99.200 161.733,99.200 162.733 C 99.200 163.734,98.480 165.204,97.600 166.000 C 96.720 166.796,96.000 168.236,96.000 169.200 C 96.000 170.164,95.280 171.604,94.400 172.400 C 93.520 173.196,92.800 174.637,92.800 175.602 C 92.800 176.566,92.080 178.185,91.200 179.200 C 90.320 180.215,89.600 181.710,89.600 182.522 C 89.600 183.335,88.880 184.720,88.000 185.600 C 87.120 186.480,86.400 188.087,86.400 189.172 C 86.400 190.325,85.736 191.499,84.800 192.000 C 83.752 192.561,83.200 193.675,83.200 195.228 C 83.200 196.533,82.868 197.600,82.462 197.600 C 79.787 197.600,79.459 216.145,82.087 218.773 C 82.699 219.385,83.200 220.631,83.200 221.543 C 83.200 222.454,83.883 223.883,84.719 224.719 C 85.554 225.554,86.477 227.329,86.770 228.663 C 87.063 229.998,87.797 231.499,88.400 232.000 C 89.003 232.501,89.723 233.941,90.000 235.200 C 90.277 236.459,91.020 237.918,91.651 238.443 C 92.283 238.967,92.800 239.834,92.800 240.370 C 92.800 241.177,95.220 246.278,98.316 252.000 C 99.186 253.607,101.363 258.326,102.377 260.800 C 102.827 261.900,103.557 263.340,103.999 264.000 C 104.440 264.660,105.160 266.100,105.599 267.200 C 106.037 268.300,106.757 269.740,107.199 270.400 C 107.640 271.060,108.360 272.500,108.799 273.600 C 109.237 274.700,109.919 276.140,110.313 276.800 C 110.707 277.460,111.425 278.900,111.909 280.000 C 112.393 281.100,113.117 282.540,113.519 283.200 C 113.920 283.860,116.112 288.267,118.389 292.993 C 120.667 297.719,122.820 301.765,123.174 301.984 C 123.529 302.203,124.049 303.610,124.330 305.111 C 124.612 306.611,125.373 308.279,126.021 308.818 C 126.670 309.356,127.200 310.227,127.200 310.754 C 127.200 311.280,128.010 312.456,129.000 313.365 C 131.769 315.910,133.600 318.585,133.600 320.087 C 133.600 320.858,135.247 322.435,137.400 323.724 L 141.200 326.000 196.916 326.000 C 248.856 326.000,252.737 325.905,254.179 324.600 C 255.030 323.830,256.494 323.200,257.432 323.200 C 258.370 323.200,259.782 322.548,260.569 321.750 C 261.356 320.953,263.715 318.925,265.811 317.245 C 267.907 315.564,269.836 313.336,270.098 312.294 C 270.359 311.252,270.819 310.400,271.118 310.400 C 271.418 310.400,272.549 308.340,273.631 305.822 C 274.714 303.304,276.410 299.685,277.400 297.779 C 278.390 295.874,279.200 293.833,279.200 293.243 C 279.200 292.654,279.706 291.977,280.325 291.740 C 280.943 291.502,281.710 290.114,282.029 288.654 C 282.348 287.194,283.282 285.141,284.104 284.092 C 284.927 283.043,285.600 281.660,285.600 281.018 C 285.600 280.377,286.320 278.937,287.200 277.818 C 288.080 276.700,288.800 275.157,288.800 274.390 C 288.800 273.623,289.326 272.559,289.969 272.026 C 290.612 271.492,291.371 270.278,291.656 269.328 C 291.940 268.377,296.218 259.320,301.162 249.200 C 306.106 239.080,310.565 229.900,311.070 228.800 C 311.575 227.700,312.290 226.260,312.659 225.600 C 316.066 219.507,316.304 218.568,316.630 209.939 C 316.903 202.680,316.739 200.854,315.721 199.836 C 315.038 199.152,314.226 197.560,313.918 196.297 C 313.609 195.033,312.691 193.141,311.878 192.092 C 311.065 191.043,310.400 189.501,310.400 188.667 C 310.400 187.833,309.887 186.953,309.260 186.712 C 308.633 186.472,307.881 184.863,307.589 183.137 C 307.290 181.367,306.606 180.000,306.019 180.000 C 305.446 180.000,304.738 178.721,304.445 177.158 C 304.152 175.595,303.427 174.130,302.834 173.903 C 302.242 173.675,301.522 172.235,301.234 170.703 C 300.947 169.170,300.192 167.716,299.556 167.472 C 298.917 167.227,298.400 165.994,298.400 164.714 C 298.400 163.441,297.680 161.680,296.800 160.800 C 295.920 159.920,295.200 158.529,295.200 157.708 C 295.200 156.887,294.480 155.300,293.600 154.182 C 292.720 153.063,292.000 151.541,292.000 150.799 C 292.000 150.057,291.313 149.271,290.474 149.051 C 289.635 148.832,288.768 147.965,288.549 147.126 C 288.329 146.287,287.526 145.600,286.763 145.600 C 286.000 145.600,284.926 144.984,284.375 144.231 C 282.702 141.943,272.452 141.698,271.069 143.913 C 270.489 144.841,269.375 145.600,268.593 145.600 C 262.365 145.600,257.863 163.921,262.706 169.560 C 263.292 170.242,264.737 172.960,265.916 175.600 C 267.096 178.240,268.408 180.940,268.832 181.600 C 269.257 182.260,269.963 183.700,270.401 184.800 C 270.840 185.900,271.560 187.340,272.001 188.000 C 272.443 188.660,273.163 190.100,273.601 191.200 C 274.040 192.300,274.760 193.740,275.201 194.400 C 275.643 195.060,276.363 196.500,276.801 197.600 C 277.240 198.700,277.960 200.140,278.401 200.800 C 278.843 201.460,279.565 202.900,280.007 204.000 C 280.449 205.100,281.383 207.014,282.082 208.253 C 283.219 210.268,283.225 210.647,282.139 211.853 C 281.471 212.594,280.684 214.164,280.390 215.342 C 280.096 216.520,279.368 217.671,278.772 217.900 C 278.176 218.129,277.453 219.570,277.166 221.103 C 276.878 222.635,276.158 224.075,275.566 224.303 C 274.973 224.530,274.253 225.970,273.966 227.503 C 273.678 229.035,272.958 230.475,272.366 230.703 C 271.773 230.930,271.053 232.370,270.766 233.903 C 270.478 235.435,269.758 236.875,269.166 237.103 C 268.573 237.330,267.853 238.770,267.566 240.303 C 267.278 241.835,266.538 243.283,265.921 243.519 C 265.305 243.756,264.800 244.865,264.800 245.983 C 264.800 247.101,264.080 248.632,263.200 249.386 C 262.320 250.139,261.600 251.743,261.600 252.950 C 261.600 254.325,261.003 255.463,260.000 256.000 C 259.064 256.501,258.400 257.675,258.400 258.828 C 258.400 259.913,257.680 261.520,256.800 262.400 C 255.920 263.280,255.200 264.820,255.200 265.822 C 255.200 266.824,254.480 268.261,253.600 269.014 C 252.720 269.768,252.000 271.141,252.000 272.066 C 252.000 272.991,251.280 274.663,250.400 275.782 C 249.520 276.900,248.800 278.322,248.800 278.941 C 248.800 279.560,248.080 280.840,247.200 281.784 C 246.320 282.729,245.600 284.334,245.600 285.351 C 245.600 286.368,245.263 287.200,244.852 287.200 C 244.440 287.200,243.648 288.460,243.091 290.000 L 242.079 292.800 199.505 292.800 C 153.270 292.800,154.400 292.882,154.400 289.543 C 154.400 288.075,153.827 286.950,152.800 286.400 C 151.840 285.886,151.200 284.725,151.200 283.498 C 151.200 282.373,150.480 280.537,149.600 279.418 C 148.720 278.300,148.000 276.701,148.000 275.867 C 148.000 275.033,147.470 274.146,146.822 273.898 C 146.174 273.649,145.408 272.192,145.121 270.659 C 144.833 269.126,144.140 267.697,143.580 267.482 C 143.021 267.267,142.161 265.496,141.670 263.546 C 141.179 261.596,140.461 260.000,140.075 260.000 C 139.689 260.000,139.126 259.010,138.824 257.800 C 138.522 256.590,137.809 255.060,137.239 254.400 C 136.669 253.740,135.769 251.850,135.239 250.200 C 134.709 248.550,133.989 247.200,133.638 247.200 C 133.287 247.200,132.793 246.163,132.539 244.896 C 132.286 243.629,131.521 242.035,130.839 241.354 C 130.158 240.672,129.600 239.436,129.600 238.608 C 129.600 237.780,128.880 236.329,128.000 235.384 C 127.120 234.440,126.400 233.000,126.400 232.184 C 126.400 231.369,125.680 229.929,124.800 228.984 C 123.920 228.040,123.200 226.528,123.200 225.626 C 123.200 224.723,122.480 223.368,121.600 222.614 C 120.720 221.861,120.000 220.427,120.000 219.429 C 120.000 218.431,119.280 217.164,118.400 216.614 C 117.520 216.065,116.800 215.023,116.800 214.299 C 116.800 213.575,116.295 212.010,115.678 210.820 C 114.475 208.501,114.383 208.840,118.319 201.091 C 119.244 199.271,120.000 197.348,120.000 196.817 C 120.000 196.287,120.720 194.937,121.600 193.818 C 122.480 192.700,123.200 191.113,123.200 190.292 C 123.200 189.471,123.532 188.800,123.938 188.800 C 124.344 188.800,125.118 187.460,125.659 185.822 C 126.199 184.184,127.127 182.359,127.720 181.766 C 128.312 181.173,129.033 179.723,129.321 178.544 C 129.609 177.365,130.509 175.541,131.322 174.492 C 132.135 173.443,132.799 172.183,132.798 171.692 C 132.796 170.917,140.569 154.516,142.509 151.200 C 142.896 150.540,143.607 149.100,144.091 148.000 C 144.575 146.900,145.295 145.460,145.691 144.800 C 146.087 144.140,146.825 142.700,147.329 141.600 C 149.968 135.850,153.010 129.849,153.879 128.679 C 154.746 127.512,157.754 127.323,179.630 127.061 C 201.155 126.803,204.714 126.585,206.800 125.398 C 210.298 123.408,212.663 121.219,213.624 119.081 C 214.088 118.046,214.988 116.300,215.623 115.200 C 217.239 112.398,217.078 108.513,215.200 105.009 C 214.320 103.367,213.600 101.581,213.600 101.040 C 213.600 100.499,212.880 99.671,212.000 99.200 C 211.120 98.729,210.400 97.886,210.400 97.326 C 210.400 96.765,208.870 95.968,207.000 95.554 C 204.958 95.101,203.682 94.394,203.806 93.783 C 203.970 92.973,197.880 92.776,174.006 92.819 C 148.754 92.864,144.000 93.052,144.000 94.000 M244.568 95.832 C 238.850 96.020,237.244 96.356,235.968 97.632 C 235.106 98.494,233.500 99.200,232.400 99.200 C 231.156 99.200,230.400 99.653,230.400 100.400 C 230.400 101.060,229.704 101.600,228.854 101.600 C 228.004 101.600,227.079 102.320,226.800 103.200 C 226.521 104.080,225.776 104.800,225.146 104.800 C 224.516 104.800,224.000 105.433,224.000 106.208 C 224.000 106.982,223.280 108.065,222.400 108.614 C 221.373 109.256,220.800 110.480,220.800 112.035 C 220.800 113.367,220.227 115.331,219.527 116.399 C 217.597 119.345,217.515 133.374,219.419 134.767 C 220.289 135.403,220.800 136.854,220.800 138.688 C 220.800 141.067,221.093 141.600,222.400 141.600 C 223.434 141.600,224.000 142.133,224.000 143.107 C 224.000 143.941,224.714 144.800,225.600 145.032 C 226.480 145.262,227.200 146.024,227.200 146.725 C 227.200 147.426,227.727 148.000,228.372 148.000 C 229.016 148.000,229.929 148.720,230.400 149.600 C 231.035 150.787,232.075 151.200,234.428 151.200 C 236.595 151.200,237.600 151.551,237.600 152.307 C 237.600 154.905,249.037 155.346,250.400 152.800 C 251.035 151.613,252.075 151.200,254.428 151.200 C 256.714 151.200,257.600 150.865,257.600 150.000 C 257.600 149.340,258.161 148.800,258.846 148.800 C 260.640 148.800,267.200 141.886,267.200 139.995 C 267.200 139.118,267.698 138.400,268.307 138.400 C 269.648 138.400,270.374 135.957,270.389 131.400 C 270.397 128.916,270.723 128.000,271.600 128.000 C 272.521 128.000,272.800 126.978,272.800 123.600 C 272.800 120.222,272.521 119.200,271.600 119.200 C 270.723 119.200,270.397 118.284,270.389 115.800 C 270.374 111.243,269.648 108.800,268.307 108.800 C 267.341 108.800,266.807 107.289,267.105 105.400 C 267.157 105.070,266.480 104.800,265.600 104.800 C 264.533 104.800,264.000 104.267,264.000 103.200 C 264.000 102.133,263.467 101.600,262.400 101.600 C 261.520 101.600,260.800 101.092,260.800 100.470 C 260.800 99.776,259.567 99.132,257.600 98.800 C 255.792 98.494,254.400 97.809,254.400 97.223 C 254.400 95.800,252.728 95.563,244.568 95.832 M206.615 99.000 C 215.764 105.942,215.709 117.005,206.493 123.242 C 203.601 125.200,203.594 125.200,178.818 125.453 C 163.676 125.608,153.656 126.021,153.061 126.516 C 152.246 127.192,146.461 138.638,129.263 173.600 C 128.072 176.020,126.782 178.540,126.396 179.200 C 126.010 179.860,123.486 185.080,120.786 190.800 C 118.087 196.520,115.186 202.509,114.339 204.109 C 112.299 207.965,112.432 210.922,114.821 214.800 C 115.905 216.560,116.794 218.600,116.796 219.333 C 116.798 220.067,117.092 220.787,117.450 220.933 C 117.807 221.080,119.826 224.800,121.937 229.200 C 124.048 233.600,129.307 244.400,133.625 253.200 C 137.942 262.000,142.426 271.180,143.588 273.600 C 144.751 276.020,146.039 278.540,146.451 279.200 C 146.864 279.860,147.560 281.300,147.999 282.400 C 148.437 283.500,149.094 284.940,149.459 285.600 C 149.824 286.260,150.861 288.240,151.764 290.000 C 154.515 295.363,152.798 295.178,199.600 295.162 C 238.491 295.148,242.134 295.033,243.625 293.773 C 245.024 292.591,250.133 283.099,252.762 276.800 C 253.221 275.700,253.957 274.260,254.399 273.600 C 254.840 272.940,255.560 271.500,255.999 270.400 C 256.437 269.300,257.130 267.860,257.537 267.200 C 257.945 266.540,260.670 260.960,263.592 254.800 C 266.515 248.640,269.243 243.060,269.655 242.400 C 270.067 241.740,270.763 240.366,271.203 239.346 C 271.642 238.327,274.771 231.877,278.155 225.014 C 285.550 210.019,285.534 210.376,279.370 198.000 C 276.741 192.720,272.349 183.720,269.610 178.000 C 266.872 172.280,264.129 166.644,263.516 165.477 C 261.791 162.194,262.155 157.902,264.498 153.905 C 271.425 142.084,285.688 143.992,292.124 157.600 C 295.998 165.790,310.736 195.938,311.875 198.000 C 314.455 202.674,313.750 218.502,310.680 224.817 C 309.294 227.668,304.306 237.920,299.596 247.600 C 294.886 257.280,287.449 272.580,283.069 281.600 C 278.690 290.620,274.767 298.540,274.351 299.200 C 273.936 299.860,273.227 301.300,272.777 302.400 C 268.236 313.483,261.901 319.865,252.193 323.135 C 245.443 325.409,148.699 325.759,142.167 323.533 C 138.697 322.351,133.600 317.838,133.600 315.949 C 133.600 315.511,132.250 313.438,130.600 311.342 C 128.950 309.245,126.998 306.286,126.262 304.765 C 125.526 303.244,121.152 294.260,116.543 284.800 C 111.933 275.340,104.314 259.680,99.612 250.000 C 94.909 240.320,89.383 229.000,87.331 224.845 C 83.602 217.294,83.600 217.286,83.600 208.837 L 83.600 200.384 88.660 189.992 C 91.444 184.276,94.055 179.060,94.462 178.400 C 94.870 177.740,95.563 176.300,96.001 175.200 C 96.440 174.100,97.160 172.660,97.601 172.000 C 98.043 171.340,98.787 169.900,99.256 168.800 C 99.724 167.700,102.929 161.040,106.377 154.000 C 109.826 146.960,116.299 133.737,120.762 124.616 C 134.345 96.855,133.966 97.053,174.057 96.907 L 203.715 96.800 206.615 99.000 M257.456 101.900 C 278.377 116.399,269.257 150.000,244.400 150.000 C 220.720 150.000,212.273 118.820,231.745 103.288 C 237.757 98.493,251.471 97.753,257.456 101.900 M238.800 106.305 C 227.071 111.691,225.728 133.115,236.600 141.407 C 240.499 144.381,249.539 144.623,253.067 141.848 C 269.564 128.871,257.128 97.889,238.800 106.305 M250.400 109.200 C 250.400 109.860,250.670 110.361,251.000 110.313 C 253.391 109.969,255.200 111.556,255.200 114.000 C 255.200 115.941,255.612 116.721,256.800 117.032 C 258.239 117.408,258.400 118.123,258.400 124.133 C 258.400 129.949,258.193 130.945,256.800 131.814 C 255.895 132.379,255.200 133.680,255.200 134.807 C 255.200 136.064,254.747 136.800,253.974 136.800 C 253.300 136.800,252.490 137.499,252.174 138.352 C 251.623 139.843,251.378 140.000,249.600 140.000 C 249.160 140.000,248.800 140.540,248.800 141.200 C 248.800 142.841,242.536 142.886,241.908 141.249 C 241.665 140.616,240.383 139.860,239.059 139.569 C 237.316 139.186,236.338 138.290,235.515 136.320 C 234.890 134.824,234.023 133.600,233.589 133.600 C 232.224 133.600,232.575 116.036,233.951 115.508 C 234.584 115.265,235.333 114.016,235.615 112.733 C 235.897 111.450,236.650 110.400,237.289 110.400 C 237.928 110.400,238.657 109.860,238.911 109.200 C 239.258 108.294,240.722 108.000,244.886 108.000 C 249.254 108.000,250.400 108.249,250.400 109.200 " stroke="none" fill="#777777" fill-rule="evenodd"></path><path id="path3" d="M140.800 98.894 C 132.047 103.465,129.532 106.693,120.762 124.616 C 116.299 133.737,109.826 146.960,106.377 154.000 C 102.929 161.040,99.724 167.700,99.256 168.800 C 98.787 169.900,98.043 171.340,97.601 172.000 C 97.160 172.660,96.440 174.100,96.001 175.200 C 95.563 176.300,94.870 177.740,94.462 178.400 C 94.055 179.060,91.444 184.276,88.660 189.992 L 83.600 200.384 83.600 208.837 C 83.600 217.286,83.602 217.294,87.331 224.845 C 89.383 229.000,94.909 240.320,99.612 250.000 C 104.314 259.680,111.933 275.340,116.543 284.800 C 121.152 294.260,125.526 303.244,126.262 304.765 C 126.998 306.286,128.950 309.245,130.600 311.342 C 132.250 313.438,133.600 315.511,133.600 315.949 C 133.600 317.838,138.697 322.351,142.167 323.533 C 148.699 325.759,245.443 325.409,252.193 323.135 C 261.901 319.865,268.236 313.483,272.777 302.400 C 273.227 301.300,273.936 299.860,274.351 299.200 C 274.767 298.540,278.690 290.620,283.069 281.600 C 287.449 272.580,294.886 257.280,299.596 247.600 C 304.306 237.920,309.294 227.668,310.680 224.817 C 313.750 218.502,314.455 202.674,311.875 198.000 C 310.736 195.938,295.998 165.790,292.124 157.600 C 285.688 143.992,271.425 142.084,264.498 153.905 C 262.155 157.902,261.791 162.194,263.516 165.477 C 264.129 166.644,266.872 172.280,269.610 178.000 C 272.349 183.720,276.741 192.720,279.370 198.000 C 285.534 210.376,285.550 210.019,278.155 225.014 C 274.771 231.877,271.642 238.327,271.203 239.346 C 270.763 240.366,270.067 241.740,269.655 242.400 C 269.243 243.060,266.515 248.640,263.592 254.800 C 260.670 260.960,257.945 266.540,257.537 267.200 C 257.130 267.860,256.437 269.300,255.999 270.400 C 255.560 271.500,254.840 272.940,254.399 273.600 C 253.957 274.260,253.221 275.700,252.762 276.800 C 250.133 283.099,245.024 292.591,243.625 293.773 C 242.134 295.033,238.491 295.148,199.600 295.162 C 152.798 295.178,154.515 295.363,151.764 290.000 C 150.861 288.240,149.824 286.260,149.459 285.600 C 149.094 284.940,148.437 283.500,147.999 282.400 C 147.560 281.300,146.864 279.860,146.451 279.200 C 146.039 278.540,144.751 276.020,143.588 273.600 C 142.426 271.180,137.942 262.000,133.625 253.200 C 129.307 244.400,124.048 233.600,121.937 229.200 C 119.826 224.800,117.807 221.080,117.450 220.933 C 117.092 220.787,116.798 220.067,116.796 219.333 C 116.794 218.600,115.905 216.560,114.821 214.800 C 112.432 210.922,112.299 207.965,114.339 204.109 C 115.186 202.509,118.087 196.520,120.786 190.800 C 123.486 185.080,126.010 179.860,126.396 179.200 C 126.782 178.540,128.072 176.020,129.263 173.600 C 146.461 138.638,152.246 127.192,153.061 126.516 C 153.656 126.021,163.676 125.608,178.818 125.453 C 203.594 125.200,203.601 125.200,206.493 123.242 C 215.709 117.005,215.764 105.942,206.615 99.000 L 203.715 96.800 174.057 96.907 C 144.584 97.014,144.378 97.026,140.800 98.894 M204.842 99.473 C 211.472 102.909,213.895 111.570,209.911 117.590 C 205.467 124.307,205.278 124.348,176.800 124.800 L 151.600 125.200 143.098 142.400 C 134.492 159.809,117.274 194.966,113.227 203.390 C 110.475 209.120,110.456 209.042,118.351 225.200 C 149.700 289.361,151.891 293.750,153.382 295.400 C 154.559 296.701,157.765 296.800,198.774 296.800 L 242.901 296.800 244.939 294.600 C 246.061 293.390,247.791 290.600,248.784 288.400 C 250.889 283.739,250.999 283.511,254.180 277.200 C 255.511 274.560,258.854 267.720,261.610 262.000 C 264.365 256.280,266.897 251.060,267.236 250.400 C 277.767 229.898,285.600 212.796,285.600 210.308 C 285.600 207.821,283.243 202.593,271.032 178.000 C 263.598 163.026,263.051 160.746,265.517 154.995 C 268.462 148.122,277.618 145.437,284.212 149.511 C 286.925 151.188,288.334 153.640,298.446 174.286 C 304.618 186.889,310.193 198.156,310.834 199.323 C 311.649 200.808,312.000 204.009,312.000 209.967 C 312.000 219.739,312.968 217.037,299.811 244.000 C 294.981 253.900,287.252 269.740,282.638 279.200 C 278.023 288.660,272.571 299.799,270.523 303.953 C 266.408 312.300,262.267 316.958,256.210 320.053 L 252.400 322.000 197.494 322.216 C 135.518 322.460,140.056 322.964,134.837 315.255 C 132.716 312.122,130.716 309.395,130.392 309.195 C 130.068 308.995,128.809 306.754,127.594 304.215 C 125.183 299.178,115.600 279.560,96.879 241.342 L 84.800 216.684 84.800 208.983 L 84.800 201.282 92.486 185.641 C 99.743 170.872,108.088 153.822,123.167 122.951 C 130.295 108.357,135.747 101.492,141.122 100.344 C 142.485 100.053,143.960 99.536,144.400 99.194 C 146.087 97.883,149.183 97.750,175.200 97.873 C 199.516 97.988,202.263 98.137,204.842 99.473 M237.745 99.941 C 221.706 104.043,215.695 130.562,227.892 143.414 C 239.539 155.687,260.105 151.030,266.778 134.608 C 275.210 113.857,259.003 94.506,237.745 99.941 M256.000 102.672 C 276.510 114.928,267.929 149.265,244.408 149.058 C 221.303 148.854,213.901 116.333,234.000 103.328 C 239.503 99.767,250.586 99.437,256.000 102.672 M242.400 103.213 C 227.635 105.731,222.534 130.313,234.502 141.270 C 238.598 145.020,247.095 147.712,248.362 145.662 C 248.613 145.255,249.890 144.688,251.199 144.400 C 256.330 143.273,262.400 132.628,262.400 124.757 C 262.400 111.945,252.669 101.462,242.400 103.213 M251.567 106.620 C 260.761 111.828,263.718 129.387,256.867 138.096 C 249.564 147.381,236.879 145.639,231.462 134.607 C 223.303 117.990,237.282 98.529,251.567 106.620 " stroke="none" fill="#acacac" fill-rule="evenodd"></path><path id="path4" d="M146.800 98.159 C 145.920 98.386,144.840 98.852,144.400 99.194 C 143.960 99.536,142.485 100.053,141.122 100.344 C 135.747 101.492,130.295 108.357,123.167 122.951 C 108.088 153.822,99.743 170.872,92.486 185.641 L 84.800 201.282 84.800 208.983 L 84.800 216.684 96.879 241.342 C 115.600 279.560,125.183 299.178,127.594 304.215 C 128.809 306.754,130.068 308.995,130.392 309.195 C 130.716 309.395,132.716 312.122,134.837 315.255 C 140.056 322.964,135.518 322.460,197.494 322.216 L 252.400 322.000 256.210 320.053 C 262.267 316.958,266.408 312.300,270.523 303.953 C 272.571 299.799,278.023 288.660,282.638 279.200 C 287.252 269.740,294.981 253.900,299.811 244.000 C 312.968 217.037,312.000 219.739,312.000 209.967 C 312.000 204.009,311.649 200.808,310.834 199.323 C 310.193 198.156,304.618 186.889,298.446 174.286 C 288.334 153.640,286.925 151.188,284.212 149.511 C 277.618 145.437,268.462 148.122,265.517 154.995 C 263.051 160.746,263.598 163.026,271.032 178.000 C 283.243 202.593,285.600 207.821,285.600 210.308 C 285.600 212.796,277.767 229.898,267.236 250.400 C 266.897 251.060,264.365 256.280,261.610 262.000 C 258.854 267.720,255.511 274.560,254.180 277.200 C 250.999 283.511,250.889 283.739,248.784 288.400 C 247.791 290.600,246.061 293.390,244.939 294.600 L 242.901 296.800 198.774 296.800 C 157.765 296.800,154.559 296.701,153.382 295.400 C 151.891 293.750,149.700 289.361,118.351 225.200 C 110.456 209.042,110.475 209.120,113.227 203.390 C 117.274 194.966,134.492 159.809,143.098 142.400 L 151.600 125.200 176.800 124.800 C 205.278 124.348,205.467 124.307,209.911 117.590 C 213.895 111.570,211.472 102.909,204.842 99.473 C 202.048 98.025,151.733 96.886,146.800 98.159 M206.256 102.060 C 207.106 102.973,208.554 105.421,209.474 107.500 L 211.146 111.281 209.373 114.968 C 205.958 122.068,206.474 121.944,178.543 122.405 C 148.780 122.897,150.111 122.417,145.293 134.400 C 145.027 135.060,144.448 136.140,144.005 136.800 C 143.562 137.460,142.840 138.900,142.401 140.000 C 141.963 141.100,141.281 142.540,140.887 143.200 C 140.493 143.860,139.775 145.300,139.291 146.400 C 138.807 147.500,138.087 148.940,137.691 149.600 C 137.295 150.260,136.575 151.700,136.091 152.800 C 135.607 153.900,134.910 155.340,134.542 156.000 C 132.223 160.158,130.400 164.045,130.400 164.832 C 130.400 165.336,129.680 166.663,128.800 167.782 C 127.920 168.900,127.200 170.443,127.200 171.210 C 127.200 171.977,126.670 173.044,126.021 173.582 C 125.373 174.121,124.617 175.760,124.343 177.225 C 124.068 178.690,123.358 180.075,122.766 180.303 C 122.173 180.530,121.453 181.970,121.166 183.503 C 120.878 185.035,120.158 186.475,119.566 186.703 C 118.973 186.930,118.248 188.395,117.955 189.958 C 117.662 191.521,117.130 192.800,116.773 192.800 C 116.416 192.800,115.691 194.150,115.161 195.800 C 114.631 197.450,113.746 199.340,113.193 200.000 C 112.641 200.660,111.918 202.100,111.587 203.200 C 111.256 204.300,110.533 205.853,109.981 206.652 C 108.918 208.188,109.204 210.261,110.935 213.578 C 111.515 214.690,111.992 215.903,111.995 216.274 C 111.998 216.644,112.720 217.863,113.600 218.982 C 114.480 220.100,115.200 221.643,115.200 222.410 C 115.200 223.177,115.697 224.216,116.304 224.720 C 116.911 225.224,117.613 226.664,117.864 227.922 C 118.116 229.179,118.879 230.765,119.561 231.446 C 120.242 232.128,120.800 233.203,120.800 233.835 C 120.800 234.467,121.473 235.843,122.296 236.892 C 123.118 237.941,124.042 239.945,124.347 241.345 C 124.653 242.744,125.420 244.318,126.051 244.843 C 126.683 245.367,127.200 246.243,127.200 246.790 C 127.200 247.337,127.873 248.643,128.696 249.692 C 129.518 250.741,130.442 252.745,130.747 254.145 C 131.053 255.544,131.820 257.118,132.451 257.643 C 133.083 258.167,133.600 259.025,133.600 259.550 C 133.600 260.074,135.759 264.800,138.397 270.052 C 141.035 275.303,143.195 280.061,143.197 280.625 C 143.199 281.189,143.740 281.857,144.400 282.111 C 145.060 282.364,145.605 283.163,145.612 283.886 C 145.618 284.609,146.137 286.100,146.764 287.200 C 147.391 288.300,148.469 290.422,149.159 291.915 C 149.850 293.408,151.330 295.478,152.448 296.515 L 154.482 298.400 198.481 298.400 C 246.273 298.400,246.574 298.373,247.667 294.018 C 247.936 292.944,248.639 291.666,249.227 291.178 C 249.816 290.689,250.546 289.144,250.849 287.745 C 251.153 286.345,251.672 285.020,252.004 284.800 C 252.807 284.267,260.800 267.631,260.800 266.492 C 260.800 266.001,261.146 265.600,261.568 265.600 C 261.990 265.600,262.768 264.156,263.297 262.390 C 263.826 260.625,264.741 258.781,265.329 258.293 C 265.918 257.804,266.400 256.966,266.400 256.430 C 266.400 255.616,268.043 252.141,271.897 244.800 C 275.064 238.768,276.000 236.753,276.000 235.968 C 276.000 235.464,276.720 234.137,277.600 233.018 C 278.480 231.900,279.200 230.357,279.200 229.590 C 279.200 228.823,279.737 227.750,280.394 227.205 C 281.051 226.660,281.965 224.816,282.425 223.107 C 282.885 221.398,283.608 220.000,284.031 220.000 C 284.454 220.000,284.800 219.545,284.800 218.988 C 284.800 218.432,285.520 216.633,286.400 214.991 C 288.310 211.427,288.409 209.373,286.805 206.523 C 286.148 205.356,285.249 203.500,284.807 202.400 C 284.365 201.300,283.681 199.860,283.287 199.200 C 282.893 198.540,282.175 197.100,281.691 196.000 C 281.207 194.900,280.487 193.460,280.091 192.800 C 279.695 192.140,278.975 190.700,278.491 189.600 C 278.007 188.500,277.310 187.060,276.942 186.400 C 274.623 182.242,272.800 178.355,272.800 177.568 C 272.800 177.064,272.080 175.737,271.200 174.618 C 270.320 173.500,269.600 172.060,269.600 171.418 C 269.600 170.777,268.880 169.337,268.000 168.218 C 265.223 164.688,265.697 155.571,268.801 152.799 C 274.512 147.700,283.088 148.258,286.454 153.947 C 287.252 155.296,288.272 156.819,288.720 157.332 C 289.168 157.844,289.765 159.179,290.046 160.299 C 290.327 161.418,291.062 162.753,291.678 163.265 C 292.295 163.777,292.802 164.782,292.805 165.498 C 292.808 166.214,293.526 167.880,294.400 169.200 C 295.274 170.520,295.992 172.186,295.995 172.902 C 295.998 173.618,296.538 174.651,297.196 175.197 C 297.854 175.743,298.811 177.587,299.323 179.295 C 299.835 181.003,300.556 182.400,300.927 182.400 C 301.297 182.400,301.600 182.822,301.600 183.337 C 301.600 184.442,306.433 194.618,307.234 195.200 C 312.273 198.861,310.765 219.947,304.716 230.400 C 304.334 231.060,302.925 233.940,301.584 236.800 C 300.244 239.660,298.855 242.540,298.498 243.200 C 296.651 246.618,295.880 248.138,292.872 254.296 C 291.072 257.979,289.600 261.342,289.600 261.770 C 289.600 262.198,288.880 263.463,288.000 264.582 C 287.120 265.700,286.400 267.243,286.400 268.010 C 286.400 268.777,285.883 269.833,285.251 270.357 C 284.620 270.882,283.877 272.341,283.600 273.600 C 283.323 274.859,282.603 276.299,282.000 276.800 C 281.397 277.301,280.677 278.741,280.400 280.000 C 280.123 281.259,279.403 282.699,278.800 283.200 C 278.197 283.701,277.454 285.256,277.151 286.655 C 276.847 288.055,276.356 289.380,276.059 289.600 C 275.763 289.820,273.213 294.680,270.394 300.400 C 264.891 311.564,260.613 316.746,255.505 318.431 C 254.017 318.922,252.800 319.656,252.800 320.062 C 252.800 320.506,230.575 320.800,197.092 320.800 L 141.383 320.800 139.469 318.600 C 137.277 316.081,137.505 316.389,132.968 309.822 C 131.080 307.089,129.155 303.762,128.689 302.427 C 128.224 301.092,127.519 300.000,127.122 300.000 C 126.725 300.000,126.397 299.550,126.393 299.000 C 126.389 298.450,125.500 296.200,124.418 294.000 C 123.335 291.800,122.439 289.539,122.425 288.975 C 122.411 288.411,121.860 287.743,121.200 287.489 C 120.540 287.236,120.000 286.486,120.000 285.823 C 120.000 285.160,119.324 283.309,118.498 281.709 C 117.672 280.109,116.594 277.900,116.104 276.800 C 115.613 275.700,114.887 274.260,114.491 273.600 C 114.095 272.940,113.375 271.500,112.891 270.400 C 112.407 269.300,111.696 267.860,111.311 267.200 C 109.455 264.020,104.000 252.575,104.000 251.861 C 104.000 251.416,103.280 250.137,102.400 249.018 C 101.520 247.900,100.800 246.357,100.800 245.590 C 100.800 244.823,100.283 243.767,99.651 243.243 C 99.020 242.718,98.277 241.259,98.000 240.000 C 97.723 238.741,97.003 237.301,96.400 236.800 C 95.797 236.299,95.077 234.859,94.800 233.600 C 94.523 232.341,93.780 230.882,93.149 230.357 C 92.517 229.833,92.000 228.777,92.000 228.010 C 92.000 227.243,91.347 225.757,90.548 224.708 C 86.945 219.972,84.590 206.354,86.681 202.347 C 87.271 201.217,88.011 199.266,88.326 198.010 C 88.641 196.754,89.597 194.839,90.450 193.755 C 91.302 192.671,92.000 191.157,92.000 190.390 C 92.000 189.623,92.517 188.567,93.149 188.043 C 93.780 187.518,94.523 186.059,94.800 184.800 C 95.077 183.541,95.820 182.082,96.451 181.557 C 97.083 181.033,97.600 180.226,97.600 179.763 C 97.600 178.969,103.325 166.583,104.886 164.000 C 105.668 162.707,106.791 160.328,107.530 158.400 C 107.783 157.740,108.320 156.660,108.724 156.000 C 109.128 155.340,110.469 152.640,111.703 150.000 C 112.938 147.360,114.590 144.341,115.374 143.292 C 116.158 142.243,116.800 140.577,116.800 139.590 C 116.800 138.603,117.305 137.377,117.922 136.865 C 118.538 136.353,119.281 134.988,119.571 133.830 C 119.862 132.673,120.797 130.839,121.650 129.755 C 122.502 128.671,123.200 127.113,123.200 126.292 C 123.200 125.471,123.546 124.800,123.969 124.800 C 124.392 124.800,125.115 123.402,125.575 121.693 C 126.035 119.984,126.926 118.160,127.554 117.638 C 128.183 117.116,128.916 115.691,129.184 114.472 C 130.117 110.226,139.153 102.012,144.292 100.739 C 150.702 99.152,204.618 100.301,206.256 102.060 M241.200 100.742 C 223.344 103.043,215.887 129.434,229.302 142.849 C 241.821 155.367,262.775 148.208,266.819 130.030 C 270.849 111.917,259.060 98.440,241.200 100.742 M252.800 105.700 C 265.758 113.756,264.612 141.454,251.199 144.400 C 249.890 144.688,248.613 145.255,248.362 145.662 C 247.095 147.712,238.598 145.020,234.502 141.270 C 217.748 125.932,234.128 94.092,252.800 105.700 M258.453 106.500 C 258.895 107.325,259.784 108.000,260.428 108.000 C 261.073 108.000,261.600 108.491,261.600 109.092 C 261.600 109.693,262.410 111.214,263.400 112.473 C 265.468 115.103,266.166 132.554,264.279 134.441 C 263.585 135.135,263.371 132.980,263.407 125.684 C 263.445 117.939,263.202 115.727,262.190 114.604 C 261.494 113.832,260.684 112.236,260.390 111.058 C 260.096 109.880,259.348 108.721,258.728 108.483 C 258.108 108.245,257.600 107.499,257.600 106.825 C 257.600 106.133,256.903 105.600,256.000 105.600 C 255.120 105.600,254.400 105.274,254.400 104.875 C 254.400 103.634,257.608 104.920,258.453 106.500 M226.964 119.000 C 226.431 125.978,227.564 137.052,228.855 137.484 C 229.321 137.640,230.031 138.630,230.432 139.684 C 230.833 140.738,231.709 141.600,232.380 141.600 C 233.051 141.600,233.600 141.999,233.600 142.486 C 233.600 142.973,233.031 143.153,232.335 142.886 C 231.639 142.619,230.782 142.400,230.432 142.400 C 230.081 142.400,229.347 141.320,228.800 140.000 C 228.253 138.680,227.495 137.600,227.114 137.600 C 226.734 137.600,226.014 135.974,225.513 133.986 C 225.013 131.999,224.287 130.178,223.902 129.939 C 222.792 129.253,223.085 122.526,224.310 120.572 C 224.921 119.597,225.657 117.450,225.946 115.800 C 226.854 110.626,227.458 112.528,226.964 119.000 M261.600 138.047 C 261.600 139.173,261.274 139.893,260.875 139.646 C 260.476 139.400,260.338 138.479,260.568 137.599 C 261.144 135.398,261.600 135.596,261.600 138.047 " stroke="none" fill="#d5d5d5" fill-rule="evenodd"></path><path id="path5" d="M144.292 100.739 C 139.153 102.012,130.117 110.226,129.184 114.472 C 128.916 115.691,128.183 117.116,127.554 117.638 C 126.926 118.160,126.035 119.984,125.575 121.693 C 125.115 123.402,124.392 124.800,123.969 124.800 C 123.546 124.800,123.200 125.471,123.200 126.292 C 123.200 127.113,122.502 128.671,121.650 129.755 C 120.797 130.839,119.862 132.673,119.571 133.830 C 119.281 134.988,118.538 136.353,117.922 136.865 C 117.305 137.377,116.800 138.603,116.800 139.590 C 116.800 140.577,116.158 142.243,115.374 143.292 C 114.590 144.341,112.938 147.360,111.703 150.000 C 110.469 152.640,109.128 155.340,108.724 156.000 C 108.320 156.660,107.783 157.740,107.530 158.400 C 106.791 160.328,105.668 162.707,104.886 164.000 C 103.325 166.583,97.600 178.969,97.600 179.763 C 97.600 180.226,97.083 181.033,96.451 181.557 C 95.820 182.082,95.077 183.541,94.800 184.800 C 94.523 186.059,93.780 187.518,93.149 188.043 C 92.517 188.567,92.000 189.623,92.000 190.390 C 92.000 191.157,91.302 192.671,90.450 193.755 C 89.597 194.839,88.641 196.754,88.326 198.010 C 88.011 199.266,87.271 201.217,86.681 202.347 C 84.590 206.354,86.945 219.972,90.548 224.708 C 91.347 225.757,92.000 227.243,92.000 228.010 C 92.000 228.777,92.517 229.833,93.149 230.357 C 93.780 230.882,94.523 232.341,94.800 233.600 C 95.077 234.859,95.797 236.299,96.400 236.800 C 97.003 237.301,97.723 238.741,98.000 240.000 C 98.277 241.259,99.020 242.718,99.651 243.243 C 100.283 243.767,100.800 244.823,100.800 245.590 C 100.800 246.357,101.520 247.900,102.400 249.018 C 103.280 250.137,104.000 251.416,104.000 251.861 C 104.000 252.575,109.455 264.020,111.311 267.200 C 111.696 267.860,112.407 269.300,112.891 270.400 C 113.375 271.500,114.095 272.940,114.491 273.600 C 114.887 274.260,115.613 275.700,116.104 276.800 C 116.594 277.900,117.672 280.109,118.498 281.709 C 119.324 283.309,120.000 285.160,120.000 285.823 C 120.000 286.486,120.540 287.236,121.200 287.489 C 121.860 287.743,122.411 288.411,122.425 288.975 C 122.439 289.539,123.335 291.800,124.418 294.000 C 125.500 296.200,126.389 298.450,126.393 299.000 C 126.397 299.550,126.725 300.000,127.122 300.000 C 127.519 300.000,128.224 301.092,128.689 302.427 C 129.155 303.762,131.080 307.089,132.968 309.822 C 137.505 316.389,137.277 316.081,139.469 318.600 L 141.383 320.800 197.092 320.800 C 230.575 320.800,252.800 320.506,252.800 320.062 C 252.800 319.656,254.017 318.922,255.505 318.431 C 260.613 316.746,264.891 311.564,270.394 300.400 C 273.213 294.680,275.763 289.820,276.059 289.600 C 276.356 289.380,276.847 288.055,277.151 286.655 C 277.454 285.256,278.197 283.701,278.800 283.200 C 279.403 282.699,280.123 281.259,280.400 280.000 C 280.677 278.741,281.397 277.301,282.000 276.800 C 282.603 276.299,283.323 274.859,283.600 273.600 C 283.877 272.341,284.620 270.882,285.251 270.357 C 285.883 269.833,286.400 268.777,286.400 268.010 C 286.400 267.243,287.120 265.700,288.000 264.582 C 288.880 263.463,289.600 262.198,289.600 261.770 C 289.600 261.342,291.072 257.979,292.872 254.296 C 295.880 248.138,296.651 246.618,298.498 243.200 C 298.855 242.540,300.244 239.660,301.584 236.800 C 302.925 233.940,304.334 231.060,304.716 230.400 C 310.765 219.947,312.273 198.861,307.234 195.200 C 306.433 194.618,301.600 184.442,301.600 183.337 C 301.600 182.822,301.297 182.400,300.927 182.400 C 300.556 182.400,299.835 181.003,299.323 179.295 C 298.811 177.587,297.854 175.743,297.196 175.197 C 296.538 174.651,295.998 173.618,295.995 172.902 C 295.992 172.186,295.274 170.520,294.400 169.200 C 293.526 167.880,292.808 166.214,292.805 165.498 C 292.802 164.782,292.295 163.777,291.678 163.265 C 291.062 162.753,290.327 161.418,290.046 160.299 C 289.765 159.179,289.168 157.844,288.720 157.332 C 288.272 156.819,287.252 155.296,286.454 153.947 C 283.088 148.258,274.512 147.700,268.801 152.799 C 265.697 155.571,265.223 164.688,268.000 168.218 C 268.880 169.337,269.600 170.777,269.600 171.418 C 269.600 172.060,270.320 173.500,271.200 174.618 C 272.080 175.737,272.800 177.064,272.800 177.568 C 272.800 178.355,274.623 182.242,276.942 186.400 C 277.310 187.060,278.007 188.500,278.491 189.600 C 278.975 190.700,279.695 192.140,280.091 192.800 C 280.487 193.460,281.207 194.900,281.691 196.000 C 282.175 197.100,282.893 198.540,283.287 199.200 C 283.681 199.860,284.365 201.300,284.807 202.400 C 285.249 203.500,286.148 205.356,286.805 206.523 C 288.409 209.373,288.310 211.427,286.400 214.991 C 285.520 216.633,284.800 218.432,284.800 218.988 C 284.800 219.545,284.454 220.000,284.031 220.000 C 283.608 220.000,282.885 221.398,282.425 223.107 C 281.965 224.816,281.051 226.660,280.394 227.205 C 279.737 227.750,279.200 228.823,279.200 229.590 C 279.200 230.357,278.480 231.900,277.600 233.018 C 276.720 234.137,276.000 235.464,276.000 235.968 C 276.000 236.753,275.064 238.768,271.897 244.800 C 268.043 252.141,266.400 255.616,266.400 256.430 C 266.400 256.966,265.918 257.804,265.329 258.293 C 264.741 258.781,263.826 260.625,263.297 262.390 C 262.768 264.156,261.990 265.600,261.568 265.600 C 261.146 265.600,260.800 266.001,260.800 266.492 C 260.800 267.631,252.807 284.267,252.004 284.800 C 251.672 285.020,251.153 286.345,250.849 287.745 C 250.546 289.144,249.816 290.689,249.227 291.178 C 248.639 291.666,247.936 292.944,247.667 294.018 C 246.574 298.373,246.273 298.400,198.481 298.400 L 154.482 298.400 152.448 296.515 C 151.330 295.478,149.850 293.408,149.159 291.915 C 148.469 290.422,147.391 288.300,146.764 287.200 C 146.137 286.100,145.618 284.609,145.612 283.886 C 145.605 283.163,145.060 282.364,144.400 282.111 C 143.740 281.857,143.199 281.189,143.197 280.625 C 143.195 280.061,141.035 275.303,138.397 270.052 C 135.759 264.800,133.600 260.074,133.600 259.550 C 133.600 259.025,133.083 258.167,132.451 257.643 C 131.820 257.118,131.053 255.544,130.747 254.145 C 130.442 252.745,129.518 250.741,128.696 249.692 C 127.873 248.643,127.200 247.337,127.200 246.790 C 127.200 246.243,126.683 245.367,126.051 244.843 C 125.420 244.318,124.653 242.744,124.347 241.345 C 124.042 239.945,123.118 237.941,122.296 236.892 C 121.473 235.843,120.800 234.467,120.800 233.835 C 120.800 233.203,120.242 232.128,119.561 231.446 C 118.879 230.765,118.116 229.179,117.864 227.922 C 117.613 226.664,116.911 225.224,116.304 224.720 C 115.697 224.216,115.200 223.177,115.200 222.410 C 115.200 221.643,114.480 220.100,113.600 218.982 C 112.720 217.863,111.998 216.644,111.995 216.274 C 111.992 215.903,111.515 214.690,110.935 213.578 C 109.204 210.261,108.918 208.188,109.981 206.652 C 110.533 205.853,111.256 204.300,111.587 203.200 C 111.918 202.100,112.641 200.660,113.193 200.000 C 113.746 199.340,114.631 197.450,115.161 195.800 C 115.691 194.150,116.416 192.800,116.773 192.800 C 117.130 192.800,117.662 191.521,117.955 189.958 C 118.248 188.395,118.973 186.930,119.566 186.703 C 120.158 186.475,120.878 185.035,121.166 183.503 C 121.453 181.970,122.173 180.530,122.766 180.303 C 123.358 180.075,124.068 178.690,124.343 177.225 C 124.617 175.760,125.373 174.121,126.021 173.582 C 126.670 173.044,127.200 171.977,127.200 171.210 C 127.200 170.443,127.920 168.900,128.800 167.782 C 129.680 166.663,130.400 165.336,130.400 164.832 C 130.400 164.045,132.223 160.158,134.542 156.000 C 134.910 155.340,135.607 153.900,136.091 152.800 C 136.575 151.700,137.295 150.260,137.691 149.600 C 138.087 148.940,138.807 147.500,139.291 146.400 C 139.775 145.300,140.493 143.860,140.887 143.200 C 141.281 142.540,141.963 141.100,142.401 140.000 C 142.840 138.900,143.562 137.460,144.005 136.800 C 144.448 136.140,145.027 135.060,145.293 134.400 C 150.111 122.417,148.780 122.897,178.543 122.405 C 206.474 121.944,205.958 122.068,209.373 114.968 L 211.146 111.281 209.474 107.500 C 206.101 99.875,208.633 100.419,175.755 100.259 C 159.830 100.182,145.671 100.398,144.292 100.739 M254.400 104.875 C 254.400 105.274,255.120 105.600,256.000 105.600 C 256.903 105.600,257.600 106.133,257.600 106.825 C 257.600 107.499,258.108 108.245,258.728 108.483 C 259.348 108.721,260.096 109.880,260.390 111.058 C 260.684 112.236,261.494 113.832,262.190 114.604 C 263.202 115.727,263.445 117.939,263.407 125.684 C 263.371 132.980,263.585 135.135,264.279 134.441 C 266.166 132.554,265.468 115.103,263.400 112.473 C 262.410 111.214,261.600 109.693,261.600 109.092 C 261.600 108.491,261.073 108.000,260.428 108.000 C 259.784 108.000,258.895 107.325,258.453 106.500 C 257.608 104.920,254.400 103.634,254.400 104.875 M225.946 115.800 C 225.657 117.450,224.921 119.597,224.310 120.572 C 223.085 122.526,222.792 129.253,223.902 129.939 C 224.287 130.178,225.013 131.999,225.513 133.986 C 226.014 135.974,226.734 137.600,227.114 137.600 C 227.495 137.600,228.253 138.680,228.800 140.000 C 229.347 141.320,230.081 142.400,230.432 142.400 C 230.782 142.400,231.639 142.619,232.335 142.886 C 233.031 143.153,233.600 142.973,233.600 142.486 C 233.600 141.999,233.051 141.600,232.380 141.600 C 231.709 141.600,230.833 140.738,230.432 139.684 C 230.031 138.630,229.321 137.640,228.855 137.484 C 227.564 137.052,226.431 125.978,226.964 119.000 C 227.458 112.528,226.854 110.626,225.946 115.800 M260.568 137.599 C 260.338 138.479,260.476 139.400,260.875 139.646 C 261.274 139.893,261.600 139.173,261.600 138.047 C 261.600 135.596,261.144 135.398,260.568 137.599 " stroke="none" fill="#ffffff" fill-rule="evenodd"></path></g></svg>