<svg id="svg" version="1.1" width="500" height="500" xmlns="http://www.w3.org/2000/svg" xmlns:xlink="http://www.w3.org/1999/xlink" style="display: block;"><g id="svgg"><path id="path0" d="M140.282 71.195 C 136.237 72.826,137.547 73.600,144.353 73.600 C 149.649 73.600,151.200 73.349,151.200 72.493 C 151.200 70.541,144.020 69.687,140.282 71.195 M153.758 74.025 C 154.554 74.820,157.646 75.122,157.174 74.358 C 156.916 73.941,155.947 73.600,155.019 73.600 C 154.092 73.600,153.525 73.791,153.758 74.025 M131.663 76.913 C 130.818 77.727,130.377 78.644,130.682 78.949 C 131.390 79.657,133.884 77.212,133.493 76.194 C 133.332 75.775,132.509 76.098,131.663 76.913 M158.295 77.874 C 158.785 78.464,159.009 79.124,158.793 79.340 C 158.577 79.556,158.940 79.733,159.600 79.733 C 161.049 79.733,161.132 79.052,159.840 77.760 C 158.524 76.444,157.190 76.542,158.295 77.874 M129.600 80.665 C 129.600 81.030,128.724 81.798,127.654 82.371 C 126.259 83.118,125.437 84.569,124.747 87.506 C 124.218 89.758,123.294 92.572,122.693 93.760 C 121.394 96.327,121.105 130.595,122.354 133.880 C 122.927 135.385,122.830 135.971,121.954 136.307 C 121.319 136.550,120.800 137.301,120.800 137.975 C 120.800 139.526,123.102 139.585,123.692 138.049 C 123.935 137.416,125.274 136.651,126.667 136.348 C 128.060 136.046,129.468 135.394,129.796 134.899 C 130.425 133.951,130.590 80.000,129.964 80.000 C 129.764 80.000,129.600 80.299,129.600 80.665 M160.620 108.895 C 160.830 135.530,160.908 136.800,162.334 136.800 C 163.156 136.800,164.036 137.340,164.289 138.000 C 164.543 138.660,165.324 139.200,166.025 139.200 C 167.171 139.200,167.273 136.590,167.031 113.400 C 166.744 85.931,166.795 86.310,162.931 83.095 L 160.400 80.991 160.620 108.895 M115.184 140.419 C 114.627 141.090,114.395 141.861,114.667 142.133 C 115.248 142.714,117.600 140.925,117.600 139.902 C 117.600 138.800,116.296 139.079,115.184 140.419 M169.000 139.751 C 169.770 139.953,170.400 140.631,170.400 141.259 C 170.400 141.886,170.940 142.400,171.600 142.400 C 172.260 142.400,172.800 142.053,172.800 141.628 C 172.800 140.686,170.099 139.165,168.653 139.293 C 168.074 139.344,168.230 139.550,169.000 139.751 M291.868 139.902 C 292.456 140.274,292.996 140.891,293.068 141.272 C 293.243 142.193,295.200 142.455,295.200 141.557 C 295.200 141.172,294.504 140.484,293.653 140.028 C 291.803 139.038,290.343 138.935,291.868 139.902 M108.960 143.360 C 107.550 144.770,107.787 145.600,109.600 145.600 C 110.667 145.600,111.200 145.067,111.200 144.000 C 111.200 142.187,110.370 141.950,108.960 143.360 M274.439 143.928 C 273.779 145.160,273.877 145.418,274.944 145.261 C 275.672 145.154,276.355 144.467,276.463 143.733 C 276.728 141.923,275.446 142.046,274.439 143.928 M102.384 146.819 C 101.827 147.490,101.603 148.270,101.886 148.553 C 102.169 148.835,102.400 148.647,102.400 148.133 C 102.400 147.620,102.805 147.290,103.300 147.400 C 103.795 147.510,104.365 147.150,104.567 146.600 C 105.079 145.202,103.603 145.350,102.384 146.819 M180.120 146.360 C 180.464 147.391,181.561 147.577,181.660 146.620 C 181.693 146.301,181.288 145.896,180.760 145.720 C 180.232 145.544,179.944 145.832,180.120 146.360 M265.167 146.453 C 264.256 147.927,265.464 148.251,266.819 146.895 C 267.937 145.777,267.949 145.600,266.904 145.600 C 266.239 145.600,265.457 145.984,265.167 146.453 M298.218 150.074 C 298.421 151.133,299.060 152.000,299.639 152.000 C 300.218 152.000,300.906 152.673,301.167 153.494 C 301.994 156.103,304.800 158.229,304.800 156.248 C 304.800 155.368,304.080 153.996,303.200 153.200 C 302.320 152.404,301.600 151.326,301.600 150.804 C 301.600 150.283,300.756 149.472,299.725 149.003 C 298.007 148.220,297.881 148.310,298.218 150.074 M96.533 149.333 C 95.630 150.237,95.943 152.000,97.008 152.000 C 97.562 152.000,98.465 151.280,99.014 150.400 C 100.021 148.788,97.963 147.903,96.533 149.333 M185.425 150.396 C 186.335 151.373,187.456 152.044,187.915 151.887 C 189.164 151.457,187.861 149.897,185.684 149.217 L 183.769 148.619 185.425 150.396 M257.393 149.700 C 256.627 150.129,256.000 150.822,256.000 151.240 C 256.000 152.526,258.198 152.080,258.733 150.685 C 259.392 148.970,259.092 148.749,257.393 149.700 M247.657 153.257 C 246.047 154.867,246.066 155.383,247.724 155.059 C 248.453 154.916,249.141 154.170,249.254 153.400 C 249.506 151.677,249.259 151.655,247.657 153.257 M83.476 156.435 C 82.676 158.520,83.950 158.806,85.800 156.956 L 87.556 155.200 85.753 155.200 C 84.761 155.200,83.737 155.756,83.476 156.435 M195.200 155.941 C 195.200 156.414,195.761 156.800,196.447 156.800 C 197.133 156.800,197.472 157.160,197.200 157.600 C 196.928 158.040,197.113 158.400,197.611 158.400 C 199.052 158.400,198.130 155.647,196.591 155.351 C 195.826 155.203,195.200 155.469,195.200 155.941 M239.476 156.435 C 238.828 158.123,239.910 159.034,240.831 157.577 C 241.811 156.028,241.791 155.200,240.775 155.200 C 240.321 155.200,239.737 155.756,239.476 156.435 M77.333 158.933 C 76.405 159.862,76.755 160.665,78.008 160.481 C 80.115 160.172,81.380 158.400,79.493 158.400 C 78.599 158.400,77.627 158.640,77.333 158.933 M200.800 159.172 C 200.800 159.596,201.520 160.329,202.400 160.800 C 204.162 161.743,204.550 160.870,203.040 159.360 C 201.883 158.203,200.800 158.112,200.800 159.172 M230.400 159.600 C 230.400 160.260,230.940 160.800,231.600 160.800 C 232.260 160.800,232.800 160.260,232.800 159.600 C 232.800 158.940,232.260 158.400,231.600 158.400 C 230.940 158.400,230.400 158.940,230.400 159.600 M304.800 159.502 C 304.800 160.172,305.250 161.008,305.800 161.360 C 307.370 162.365,310.277 166.829,310.851 169.120 C 311.139 170.264,311.874 171.200,312.487 171.200 C 313.099 171.200,313.600 171.684,313.600 172.276 C 313.600 172.868,314.320 174.004,315.200 174.800 C 316.080 175.596,316.800 177.050,316.800 178.031 C 316.800 179.141,317.404 179.971,318.400 180.232 C 319.280 180.462,320.000 181.224,320.000 181.925 C 320.000 182.626,320.720 183.920,321.600 184.800 C 322.480 185.680,323.200 187.033,323.200 187.808 C 323.200 188.582,323.967 189.694,324.905 190.280 C 326.506 191.279,326.578 191.220,326.098 189.308 C 324.986 184.874,324.002 183.200,322.509 183.200 C 321.388 183.200,320.835 182.438,320.445 180.358 C 320.152 178.795,319.392 177.316,318.756 177.072 C 318.120 176.828,317.600 176.003,317.600 175.238 C 317.600 174.474,316.889 173.205,316.020 172.418 C 315.152 171.632,314.227 170.316,313.967 169.494 C 313.706 168.673,312.976 168.000,312.346 168.000 C 311.676 168.000,311.200 167.218,311.200 166.118 C 311.200 165.083,310.377 163.016,309.372 161.524 C 307.413 158.617,304.800 157.461,304.800 159.502 M72.668 161.338 C 71.431 161.666,70.013 163.879,70.638 164.505 C 70.790 164.657,72.129 163.885,73.613 162.791 C 76.133 160.932,75.849 160.496,72.668 161.338 M221.124 163.316 C 219.611 165.021,219.612 165.026,221.355 164.112 C 223.300 163.092,224.497 161.600,223.371 161.600 C 222.973 161.600,221.962 162.372,221.124 163.316 M210.984 165.800 C 212.592 167.581,213.765 167.563,216.810 165.711 L 219.259 164.221 214.490 164.311 C 210.002 164.395,209.795 164.483,210.984 165.800 M65.333 165.333 C 64.413 166.254,64.751 167.200,66.000 167.200 C 66.660 167.200,67.200 166.660,67.200 166.000 C 67.200 164.751,66.254 164.413,65.333 165.333 M60.178 168.445 C 58.431 169.669,57.725 172.000,59.102 172.000 C 59.488 172.000,60.252 171.460,60.800 170.800 C 61.348 170.140,61.528 169.600,61.200 169.600 C 60.872 169.600,61.052 169.060,61.600 168.400 C 62.876 166.863,62.416 166.878,60.178 168.445 M58.400 173.810 C 58.400 174.366,57.623 175.176,56.673 175.610 C 53.105 177.242,52.742 181.925,53.086 221.924 C 53.370 254.990,53.930 266.347,55.652 274.000 C 56.586 278.146,66.556 287.206,71.570 288.464 C 72.623 288.728,73.673 289.437,73.905 290.040 C 74.136 290.642,76.206 292.088,78.506 293.254 C 80.805 294.419,83.164 295.850,83.748 296.434 C 84.332 297.017,85.527 297.723,86.405 298.002 C 87.282 298.280,88.000 298.787,88.000 299.127 C 88.000 299.468,89.440 300.178,91.200 300.705 C 92.960 301.233,94.400 301.966,94.400 302.335 C 94.400 302.704,95.480 303.453,96.800 304.000 C 98.120 304.547,99.200 305.275,99.200 305.619 C 99.200 305.962,100.303 306.628,101.651 307.098 C 102.999 307.568,106.767 309.735,110.025 311.914 C 113.283 314.093,116.770 316.124,117.774 316.428 C 118.778 316.731,120.500 317.797,121.600 318.797 C 123.496 320.520,125.425 321.131,132.084 322.118 C 134.764 322.516,140.278 320.780,144.000 318.368 C 144.660 317.940,145.740 317.378,146.400 317.119 C 147.799 316.569,156.643 312.195,158.400 311.183 C 159.060 310.803,163.200 308.783,167.600 306.696 C 172.000 304.608,175.720 302.607,175.867 302.250 C 176.013 301.892,176.462 301.600,176.865 301.600 C 177.903 301.600,188.317 296.656,188.808 295.930 C 189.032 295.598,190.188 295.083,191.375 294.785 C 192.563 294.487,193.953 293.738,194.465 293.122 C 194.977 292.505,196.023 292.000,196.790 292.000 C 197.557 292.000,199.043 291.330,200.092 290.510 C 201.141 289.691,202.900 288.748,204.000 288.415 C 205.100 288.083,206.668 287.223,207.484 286.505 C 209.490 284.741,218.426 284.694,220.516 286.438 C 221.332 287.118,223.980 288.420,226.400 289.330 C 230.254 290.780,234.229 292.114,250.400 297.389 C 252.380 298.035,256.160 299.550,258.800 300.756 C 261.440 301.962,264.680 303.213,266.000 303.536 C 267.320 303.859,269.480 304.593,270.800 305.166 C 286.539 312.006,296.620 310.167,303.017 299.289 C 304.153 297.358,305.956 294.838,307.024 293.689 C 308.092 292.540,309.508 290.250,310.170 288.600 C 310.832 286.950,311.665 285.600,312.022 285.600 C 312.378 285.600,313.477 284.250,314.464 282.600 C 315.451 280.950,316.882 278.880,317.644 278.000 C 318.405 277.120,320.057 274.420,321.314 272.000 C 322.571 269.580,324.050 267.312,324.600 266.960 C 325.150 266.608,325.600 265.868,325.600 265.316 C 325.600 264.763,326.410 263.195,327.400 261.830 C 329.600 258.798,330.468 257.515,333.776 252.400 C 335.199 250.200,336.642 248.280,336.982 248.133 C 337.322 247.987,337.600 247.447,337.601 246.933 C 337.602 246.420,338.524 244.928,339.651 243.617 C 346.963 235.115,349.448 221.269,344.575 216.183 C 343.379 214.934,342.400 213.302,342.400 212.556 C 342.400 211.733,341.771 211.200,340.800 211.200 C 339.633 211.200,339.200 210.667,339.200 209.231 C 339.200 208.148,338.538 206.618,337.728 205.831 C 336.919 205.044,336.030 203.770,335.753 203.000 C 335.477 202.230,334.669 201.600,333.958 201.600 C 332.502 201.600,332.520 201.666,335.092 205.800 C 336.118 207.450,337.282 208.800,337.679 208.800 C 338.076 208.800,338.400 209.291,338.400 209.892 C 338.400 210.493,339.120 211.900,340.000 213.018 C 342.620 216.349,342.046 218.869,337.334 224.711 C 334.988 227.620,331.868 231.890,330.400 234.200 C 328.932 236.510,327.431 238.400,327.065 238.400 C 326.699 238.400,326.400 238.850,326.399 239.400 C 326.398 239.950,324.958 242.474,323.199 245.008 C 321.440 247.543,320.000 249.917,320.000 250.284 C 320.000 250.652,319.280 251.604,318.400 252.400 C 317.520 253.196,316.800 254.306,316.800 254.867 C 316.800 255.427,316.345 256.361,315.790 256.943 C 314.218 258.588,309.677 265.311,307.513 269.200 C 306.778 270.520,305.944 271.780,305.659 272.000 C 305.113 272.422,302.664 276.201,296.916 285.494 C 292.608 292.458,290.307 294.166,286.860 292.958 C 285.507 292.484,283.063 291.857,281.429 291.565 C 279.794 291.272,278.040 290.530,277.531 289.916 C 277.021 289.302,276.042 288.800,275.355 288.800 C 274.667 288.800,272.641 288.121,270.853 287.291 C 269.064 286.462,266.160 285.407,264.400 284.949 C 260.094 283.827,254.339 281.784,252.495 280.722 C 251.667 280.245,249.327 279.381,247.295 278.802 C 241.872 277.256,236.690 275.341,234.277 273.989 C 233.109 273.335,231.489 272.788,230.677 272.773 C 229.864 272.758,227.760 272.050,226.000 271.200 C 224.240 270.350,222.255 269.642,221.588 269.627 C 220.922 269.612,219.033 268.880,217.391 268.000 C 213.702 266.023,211.188 265.973,208.708 267.826 C 207.659 268.610,204.640 270.305,202.000 271.592 C 199.360 272.878,197.020 274.168,196.800 274.458 C 196.580 274.747,195.500 275.255,194.400 275.587 C 193.300 275.918,191.860 276.644,191.200 277.200 C 190.540 277.756,189.100 278.476,188.000 278.800 C 186.900 279.124,185.460 279.819,184.800 280.343 C 182.960 281.806,175.182 285.600,174.024 285.600 C 173.459 285.600,172.567 286.117,172.043 286.749 C 171.518 287.380,170.034 288.129,168.745 288.412 C 167.455 288.695,166.400 289.215,166.400 289.567 C 166.400 289.918,165.230 290.651,163.800 291.195 C 160.065 292.615,154.069 295.510,153.600 296.120 C 153.062 296.821,144.310 300.800,143.308 300.800 C 142.872 300.800,142.039 301.269,141.457 301.841 C 136.504 306.721,129.289 306.919,125.100 302.289 C 124.358 301.470,123.284 300.800,122.712 300.800 C 121.826 300.800,117.502 298.289,114.800 296.206 C 114.360 295.866,113.100 295.144,112.000 294.600 C 109.834 293.529,109.040 293.051,102.404 288.809 C 99.986 287.264,97.106 285.552,96.004 285.004 C 94.902 284.456,92.560 283.108,90.800 282.008 C 86.201 279.133,77.852 274.190,75.353 272.864 C 74.176 272.239,72.734 271.249,72.149 270.664 C 71.564 270.079,70.589 269.600,69.983 269.600 C 69.376 269.600,67.242 268.494,65.240 267.143 L 61.600 264.687 61.505 234.543 C 61.453 217.964,61.435 204.183,61.466 203.918 C 61.855 200.526,60.027 179.796,59.256 178.868 C 58.636 178.121,58.461 176.744,58.793 175.233 C 59.087 173.895,59.119 172.800,58.864 172.800 C 58.609 172.800,58.400 173.255,58.400 173.810 M326.400 192.676 C 326.400 193.048,327.120 194.004,328.000 194.800 C 328.880 195.596,329.600 196.912,329.600 197.724 C 329.600 198.667,330.178 199.200,331.200 199.200 C 332.080 199.200,332.800 198.673,332.800 198.028 C 332.800 197.384,332.080 196.471,331.200 196.000 C 330.320 195.529,329.600 194.436,329.600 193.572 C 329.600 192.533,329.057 192.000,328.000 192.000 C 327.120 192.000,326.400 192.304,326.400 192.676 " stroke="none" fill="#000000" fill-rule="evenodd"></path><path id="path1" d="M135.621 74.366 C 135.329 74.839,134.754 75.019,134.345 74.766 C 133.935 74.513,133.600 75.026,133.600 75.907 C 133.600 76.788,132.864 78.025,131.964 78.655 C 130.369 79.772,130.329 80.490,130.360 106.901 C 130.394 135.779,130.433 135.451,126.849 136.330 C 125.557 136.647,124.117 137.396,123.649 137.995 C 123.182 138.594,121.720 139.200,120.400 139.342 C 119.080 139.484,117.460 140.233,116.800 141.006 C 116.140 141.779,114.610 142.488,113.400 142.581 C 111.886 142.696,111.200 143.194,111.200 144.174 C 111.200 145.225,110.569 145.600,108.800 145.600 C 105.534 145.600,105.350 145.660,104.141 147.121 C 103.305 148.130,103.191 148.147,103.600 147.200 C 103.939 146.415,103.722 146.484,102.971 147.400 C 102.340 148.170,101.416 148.800,100.919 148.800 C 100.421 148.800,99.564 149.520,99.014 150.400 C 98.306 151.534,97.149 152.000,95.039 152.000 C 93.201 152.000,91.515 152.563,90.631 153.472 C 89.348 154.792,86.904 156.145,85.467 156.331 C 85.173 156.369,84.633 156.728,84.267 157.128 C 83.872 157.559,84.058 157.591,84.724 157.205 C 85.479 156.766,85.660 156.855,85.276 157.476 C 84.962 157.984,83.945 158.400,83.016 158.400 C 82.086 158.400,80.606 159.030,79.725 159.800 C 78.845 160.570,78.406 160.721,78.750 160.135 C 79.094 159.549,77.935 159.978,76.175 161.089 C 74.416 162.200,72.699 162.860,72.360 162.555 C 72.021 162.250,72.002 162.450,72.319 163.000 C 72.635 163.550,72.513 164.045,72.047 164.100 C 71.581 164.155,70.840 164.290,70.400 164.400 C 69.960 164.510,69.060 164.645,68.400 164.700 C 67.740 164.755,67.200 165.340,67.200 166.000 C 67.200 166.660,66.480 167.245,65.600 167.300 C 62.432 167.498,60.519 168.498,61.200 169.601 C 61.435 169.980,60.991 170.765,60.213 171.345 C 58.536 172.597,57.973 177.322,59.310 178.933 C 60.029 179.798,61.833 200.717,61.466 203.918 C 61.435 204.183,61.453 217.964,61.505 234.543 L 61.600 264.687 65.240 267.143 C 67.242 268.494,69.376 269.600,69.983 269.600 C 70.589 269.600,71.564 270.079,72.149 270.664 C 72.734 271.249,74.176 272.239,75.353 272.864 C 77.852 274.190,86.201 279.133,90.800 282.008 C 92.560 283.108,94.902 284.456,96.004 285.004 C 97.106 285.552,99.986 287.264,102.404 288.809 C 109.040 293.051,109.834 293.529,112.000 294.600 C 113.100 295.144,114.360 295.866,114.800 296.206 C 117.502 298.289,121.826 300.800,122.712 300.800 C 123.284 300.800,124.358 301.470,125.100 302.289 C 129.289 306.919,136.504 306.721,141.457 301.841 C 142.039 301.269,142.872 300.800,143.308 300.800 C 144.310 300.800,153.062 296.821,153.600 296.120 C 154.069 295.510,160.065 292.615,163.800 291.195 C 165.230 290.651,166.400 289.918,166.400 289.567 C 166.400 289.215,167.455 288.695,168.745 288.412 C 170.034 288.129,171.518 287.380,172.043 286.749 C 172.567 286.117,173.459 285.600,174.024 285.600 C 175.182 285.600,182.960 281.806,184.800 280.343 C 185.460 279.819,186.900 279.124,188.000 278.800 C 189.100 278.476,190.540 277.756,191.200 277.200 C 191.860 276.644,193.300 275.918,194.400 275.587 C 195.500 275.255,196.580 274.747,196.800 274.458 C 197.020 274.168,199.360 272.878,202.000 271.592 C 204.640 270.305,207.659 268.610,208.708 267.826 C 211.188 265.973,213.702 266.023,217.391 268.000 C 219.033 268.880,220.922 269.612,221.588 269.627 C 222.255 269.642,224.240 270.350,226.000 271.200 C 227.760 272.050,229.864 272.758,230.677 272.773 C 231.489 272.788,233.109 273.335,234.277 273.989 C 236.690 275.341,241.872 277.256,247.295 278.802 C 249.327 279.381,251.667 280.245,252.495 280.722 C 254.339 281.784,260.094 283.827,264.400 284.949 C 266.160 285.407,269.064 286.462,270.853 287.291 C 272.641 288.121,274.667 288.800,275.355 288.800 C 276.042 288.800,277.021 289.302,277.531 289.916 C 278.040 290.530,279.794 291.272,281.429 291.565 C 283.063 291.857,285.507 292.484,286.860 292.958 C 290.307 294.166,292.608 292.458,296.916 285.494 C 302.664 276.201,305.113 272.422,305.659 272.000 C 305.944 271.780,306.778 270.520,307.513 269.200 C 309.677 265.311,314.218 258.588,315.790 256.943 C 316.345 256.361,316.800 255.427,316.800 254.867 C 316.800 254.306,317.520 253.196,318.400 252.400 C 319.280 251.604,320.000 250.652,320.000 250.284 C 320.000 249.917,321.440 247.543,323.199 245.008 C 324.958 242.474,326.398 239.950,326.399 239.400 C 326.400 238.850,326.699 238.400,327.065 238.400 C 327.431 238.400,328.932 236.510,330.400 234.200 C 331.868 231.890,334.988 227.620,337.334 224.711 C 342.046 218.869,342.620 216.349,340.000 213.018 C 339.120 211.900,338.400 210.493,338.400 209.892 C 338.400 209.291,338.104 208.800,337.742 208.800 C 336.794 208.800,332.695 202.331,332.567 200.633 C 332.507 199.830,331.830 199.200,331.030 199.200 C 330.173 199.200,329.600 198.608,329.600 197.724 C 329.600 196.912,328.880 195.596,328.000 194.800 C 327.120 194.004,326.400 192.871,326.400 192.283 C 326.400 191.695,325.680 190.764,324.800 190.214 C 323.920 189.665,323.200 188.582,323.200 187.808 C 323.200 187.033,322.480 185.680,321.600 184.800 C 320.720 183.920,320.000 182.626,320.000 181.925 C 320.000 181.224,319.280 180.462,318.400 180.232 C 317.404 179.971,316.800 179.141,316.800 178.031 C 316.800 177.050,316.080 175.596,315.200 174.800 C 314.320 174.004,313.600 172.868,313.600 172.276 C 313.600 171.684,313.099 171.200,312.487 171.200 C 311.874 171.200,311.139 170.264,310.851 169.120 C 310.277 166.829,307.370 162.365,305.800 161.360 C 305.250 161.008,304.800 160.074,304.800 159.284 C 304.800 158.494,304.089 157.205,303.220 156.418 C 302.352 155.632,301.427 154.316,301.167 153.494 C 300.906 152.673,300.176 152.000,299.546 152.000 C 298.581 152.000,298.306 151.120,298.417 148.384 C 298.450 147.556,296.385 145.777,295.800 146.131 C 295.470 146.331,295.200 145.629,295.200 144.571 C 295.200 140.284,287.573 137.643,284.218 140.769 C 283.330 141.596,281.208 142.408,279.502 142.575 C 277.577 142.762,276.400 143.287,276.400 143.959 C 276.400 144.554,275.680 145.138,274.800 145.256 C 273.920 145.375,271.866 145.639,270.236 145.843 C 268.605 146.047,266.689 146.796,265.978 147.507 C 264.894 148.592,262.101 149.232,259.849 148.911 C 259.546 148.868,259.071 149.545,258.795 150.416 C 258.401 151.658,257.526 152.022,254.746 152.100 C 249.405 152.251,249.200 152.306,249.200 153.600 C 249.200 154.462,248.141 154.868,245.441 155.042 C 242.544 155.229,241.568 155.642,241.187 156.842 C 240.746 158.231,236.900 159.047,233.400 158.495 C 233.070 158.443,232.800 158.940,232.800 159.600 C 232.800 160.260,232.170 160.824,231.400 160.854 C 227.436 161.007,224.366 161.745,223.162 162.834 C 222.424 163.503,221.073 164.193,220.161 164.369 C 219.250 164.544,217.808 165.061,216.957 165.516 C 216.106 165.971,215.125 166.086,214.777 165.772 C 214.429 165.457,214.402 165.650,214.719 166.200 C 215.940 168.323,212.303 167.103,209.366 164.406 C 207.697 162.873,205.358 161.442,204.167 161.226 C 202.977 161.011,201.603 160.286,201.114 159.617 C 200.624 158.948,199.432 158.400,198.465 158.400 C 197.496 158.400,196.928 158.041,197.200 157.600 C 197.472 157.160,197.133 156.800,196.447 156.800 C 195.761 156.800,195.200 156.465,195.200 156.056 C 195.200 155.646,194.390 155.196,193.400 155.056 C 192.410 154.915,191.600 154.290,191.600 153.667 C 191.600 153.014,190.587 152.399,189.210 152.214 C 187.896 152.038,186.190 151.288,185.420 150.547 C 181.534 146.809,180.588 146.069,181.136 147.200 C 181.549 148.051,181.401 148.015,180.628 147.078 C 180.028 146.350,178.651 145.630,177.569 145.478 C 176.476 145.324,175.600 144.666,175.600 144.000 C 175.600 142.829,175.306 142.707,172.000 142.500 C 171.120 142.445,170.400 141.876,170.400 141.236 C 170.400 140.535,169.263 139.859,167.536 139.535 C 165.961 139.240,164.482 138.503,164.251 137.899 C 164.019 137.295,163.147 136.800,162.314 136.800 C 160.860 136.800,160.796 135.711,160.700 109.200 C 160.586 77.612,160.685 79.518,159.164 79.867 C 158.524 80.013,158.235 79.898,158.523 79.610 C 159.352 78.781,157.026 74.945,155.438 74.523 C 152.170 73.655,136.139 73.528,135.621 74.366 M147.962 75.554 C 148.488 76.188,150.062 76.818,151.460 76.954 C 153.392 77.141,154.061 77.631,154.256 79.000 C 154.396 79.990,154.988 80.800,155.570 80.800 C 157.521 80.800,157.705 83.478,157.594 110.400 C 157.534 125.140,157.510 137.621,157.542 138.136 C 157.574 138.651,158.704 139.315,160.054 139.612 C 161.404 139.908,162.702 140.657,162.940 141.275 C 163.177 141.894,164.212 142.400,165.240 142.400 C 166.268 142.400,167.580 143.062,168.155 143.871 C 168.730 144.680,170.190 145.586,171.400 145.886 C 172.610 146.185,173.600 146.964,173.600 147.615 C 173.600 148.267,174.291 148.800,175.135 148.800 C 177.519 148.800,179.200 149.662,179.200 150.886 C 179.200 151.537,180.020 152.000,181.172 152.000 C 182.325 152.000,183.499 152.664,184.000 153.600 C 184.501 154.536,185.675 155.200,186.828 155.200 C 188.267 155.200,188.800 155.633,188.800 156.800 C 188.800 158.085,189.333 158.400,191.507 158.400 C 193.541 158.400,194.317 158.798,194.632 160.000 C 194.913 161.074,195.723 161.600,197.097 161.600 C 198.325 161.600,199.486 162.240,200.000 163.200 C 200.471 164.080,201.575 164.800,202.453 164.800 C 203.332 164.800,204.249 165.318,204.492 165.951 C 204.735 166.584,205.987 167.333,207.273 167.616 C 208.560 167.899,209.983 168.821,210.435 169.665 C 211.493 171.642,214.047 171.630,215.752 169.640 C 216.606 168.642,218.605 167.890,221.291 167.554 C 223.744 167.248,225.673 166.565,225.922 165.914 C 226.174 165.259,227.490 164.800,229.118 164.800 C 230.640 164.800,232.477 164.209,233.200 163.486 C 233.922 162.763,236.186 161.860,238.229 161.478 C 240.273 161.096,242.246 160.247,242.612 159.592 C 243.062 158.788,244.560 158.400,247.212 158.400 C 250.325 158.400,251.322 158.067,252.000 156.800 C 252.621 155.640,253.675 155.200,255.836 155.200 C 257.949 155.200,259.106 154.735,259.814 153.600 C 260.560 152.406,261.680 152.000,264.229 152.000 C 266.654 152.000,268.042 151.536,269.014 150.400 C 269.962 149.294,271.374 148.800,273.592 148.800 C 275.781 148.800,276.800 148.450,276.800 147.700 C 276.800 146.326,280.293 145.600,286.900 145.600 C 291.361 145.600,292.000 145.789,292.000 147.107 C 292.000 147.941,292.714 148.800,293.600 149.032 C 294.480 149.262,295.200 150.024,295.200 150.725 C 295.200 151.426,295.920 152.720,296.800 153.600 C 297.680 154.480,298.400 155.920,298.400 156.800 C 298.400 157.689,298.933 158.400,299.600 158.400 C 300.260 158.400,300.800 158.944,300.800 159.608 C 300.800 160.272,301.520 161.432,302.400 162.186 C 303.280 162.939,304.000 164.019,304.000 164.586 C 304.000 165.152,304.720 166.232,305.600 166.986 C 306.480 167.739,307.200 168.760,307.200 169.255 C 307.200 169.750,307.920 170.985,308.800 172.000 C 309.680 173.015,310.400 174.327,310.400 174.916 C 310.400 175.505,311.120 176.436,312.000 176.986 C 312.880 177.535,313.600 178.538,313.600 179.215 C 313.600 179.891,314.320 181.061,315.200 181.814 C 316.080 182.568,316.800 183.908,316.800 184.792 C 316.800 185.679,317.331 186.400,317.985 186.400 C 318.636 186.400,319.415 187.390,319.714 188.600 C 320.014 189.810,320.920 191.270,321.729 191.845 C 322.538 192.420,323.200 193.590,323.200 194.445 C 323.200 195.300,323.579 196.000,324.042 196.000 C 324.505 196.000,325.262 197.088,325.726 198.417 C 326.189 199.746,327.250 201.199,328.084 201.645 C 328.918 202.091,329.600 203.164,329.600 204.028 C 329.600 204.893,329.968 205.600,330.417 205.600 C 330.867 205.600,331.660 206.590,332.181 207.800 C 332.701 209.010,333.774 210.644,334.564 211.431 C 335.354 212.218,336.000 213.568,336.000 214.431 C 336.000 215.294,336.360 216.000,336.800 216.000 C 337.240 216.000,337.600 216.540,337.600 217.200 C 337.600 217.860,337.240 218.400,336.800 218.400 C 336.360 218.400,336.000 218.982,336.000 219.694 C 336.000 221.112,328.024 233.600,327.118 233.600 C 326.809 233.600,326.160 234.590,325.676 235.800 C 325.192 237.010,324.166 238.917,323.398 240.038 C 322.629 241.159,321.154 243.409,320.121 245.038 C 319.088 246.667,317.918 248.000,317.521 248.000 C 317.124 248.000,316.800 248.664,316.800 249.476 C 316.800 250.288,316.080 251.604,315.200 252.400 C 314.320 253.196,313.600 254.276,313.600 254.800 C 313.600 255.324,312.880 256.404,312.000 257.200 C 311.120 257.996,310.400 258.916,310.400 259.244 C 310.400 259.572,307.332 264.467,303.583 270.120 C 299.833 275.774,296.323 281.071,295.783 281.892 C 289.095 292.044,290.227 291.884,272.400 285.201 C 269.320 284.046,265.622 282.799,264.182 282.431 C 262.742 282.062,260.685 281.184,259.610 280.480 C 258.536 279.776,256.828 279.200,255.816 279.200 C 254.804 279.200,252.722 278.528,251.188 277.707 C 249.655 276.885,247.206 275.951,245.746 275.631 C 244.286 275.311,242.126 274.545,240.946 273.930 C 239.766 273.314,238.260 272.795,237.600 272.778 C 236.940 272.760,234.960 272.050,233.200 271.200 C 231.440 270.350,229.549 269.642,228.997 269.627 C 228.446 269.612,226.651 268.880,225.009 268.000 C 223.367 267.120,221.288 266.400,220.390 266.400 C 219.491 266.400,218.046 265.914,217.178 265.319 C 214.257 263.319,211.271 263.048,208.956 264.575 C 205.071 267.135,203.744 267.856,191.600 274.007 C 185.000 277.349,179.060 280.396,178.400 280.777 C 174.885 282.805,168.685 285.600,167.700 285.600 C 167.079 285.600,166.382 286.094,166.150 286.697 C 165.919 287.300,164.739 288.043,163.528 288.347 C 162.317 288.651,160.439 289.597,159.355 290.450 C 158.271 291.302,156.983 292.002,156.492 292.003 C 155.533 292.007,148.411 295.482,146.909 296.679 C 146.409 297.078,145.100 297.677,144.000 298.010 C 142.900 298.343,141.820 298.859,141.600 299.158 C 141.380 299.456,139.214 300.495,136.786 301.467 L 132.372 303.235 128.786 301.508 C 125.650 299.997,120.626 297.070,115.553 293.798 C 114.699 293.247,113.262 292.473,112.359 292.078 C 111.457 291.684,108.937 290.156,106.759 288.684 C 102.054 285.504,98.796 283.626,95.800 282.368 C 94.590 281.859,93.600 281.145,93.600 280.780 C 93.600 280.158,92.679 279.595,86.200 276.263 C 84.770 275.527,83.413 274.650,83.184 274.313 C 82.955 273.976,81.875 273.311,80.784 272.836 C 79.693 272.360,76.820 270.732,74.400 269.217 C 71.980 267.702,69.640 266.428,69.200 266.387 C 68.760 266.345,67.612 265.311,66.648 264.087 C 64.558 261.434,63.487 172.038,65.537 171.354 C 66.061 171.180,67.100 170.395,67.845 169.612 C 68.590 168.828,70.394 167.930,71.854 167.618 C 73.314 167.305,74.702 166.543,74.940 165.925 C 75.177 165.306,76.400 164.800,77.657 164.800 C 79.125 164.800,80.250 164.227,80.800 163.200 C 81.357 162.159,82.475 161.600,84.000 161.600 C 85.525 161.600,86.643 161.041,87.200 160.000 C 87.735 159.001,88.875 158.400,90.236 158.400 C 91.549 158.400,92.812 157.764,93.414 156.800 C 93.979 155.895,95.280 155.200,96.407 155.200 C 97.503 155.200,99.120 154.480,100.000 153.600 C 100.880 152.720,102.500 152.000,103.600 152.000 C 104.776 152.000,105.600 151.541,105.600 150.886 C 105.600 149.596,107.304 148.800,110.065 148.800 C 111.204 148.800,112.000 148.332,112.000 147.664 C 112.000 147.029,113.148 146.281,114.600 145.970 C 116.030 145.664,117.844 144.736,118.631 143.907 C 119.418 143.078,120.930 142.400,121.991 142.400 C 123.052 142.400,124.208 141.932,124.560 141.360 C 124.912 140.788,126.687 139.886,128.505 139.356 C 133.875 137.791,133.686 138.931,133.621 108.470 C 133.581 89.715,133.831 80.800,134.398 80.800 C 134.858 80.800,135.644 79.900,136.146 78.800 C 136.810 77.343,137.680 76.800,139.354 76.800 C 140.657 76.800,141.849 76.281,142.111 75.600 C 142.699 74.067,146.702 74.036,147.962 75.554 " stroke="none" fill="#3f3f3f" fill-rule="evenodd"></path><path id="path2" d="M142.111 75.600 C 141.849 76.281,140.657 76.800,139.354 76.800 C 137.680 76.800,136.810 77.343,136.146 78.800 C 135.644 79.900,134.858 80.800,134.398 80.800 C 133.831 80.800,133.581 89.715,133.621 108.470 C 133.686 138.931,133.875 137.791,128.505 139.356 C 126.687 139.886,124.912 140.788,124.560 141.360 C 124.208 141.932,123.052 142.400,121.991 142.400 C 120.930 142.400,119.418 143.078,118.631 143.907 C 117.844 144.736,116.030 145.664,114.600 145.970 C 113.148 146.281,112.000 147.029,112.000 147.664 C 112.000 148.332,111.204 148.800,110.065 148.800 C 107.304 148.800,105.600 149.596,105.600 150.886 C 105.600 151.541,104.776 152.000,103.600 152.000 C 102.500 152.000,100.880 152.720,100.000 153.600 C 99.120 154.480,97.503 155.200,96.407 155.200 C 95.280 155.200,93.979 155.895,93.414 156.800 C 92.812 157.764,91.549 158.400,90.236 158.400 C 88.875 158.400,87.735 159.001,87.200 160.000 C 86.643 161.041,85.525 161.600,84.000 161.600 C 82.475 161.600,81.357 162.159,80.800 163.200 C 80.250 164.227,79.125 164.800,77.657 164.800 C 76.400 164.800,75.177 165.306,74.940 165.925 C 74.702 166.543,73.314 167.305,71.854 167.618 C 70.394 167.930,68.590 168.828,67.845 169.612 C 67.100 170.395,66.061 171.180,65.537 171.354 C 63.487 172.038,64.558 261.434,66.648 264.087 C 67.612 265.311,68.760 266.345,69.200 266.387 C 69.640 266.428,71.980 267.702,74.400 269.217 C 76.820 270.732,79.693 272.360,80.784 272.836 C 81.875 273.311,82.955 273.976,83.184 274.313 C 83.413 274.650,84.770 275.527,86.200 276.263 C 92.679 279.595,93.600 280.158,93.600 280.780 C 93.600 281.145,94.590 281.859,95.800 282.368 C 98.796 283.626,102.054 285.504,106.759 288.684 C 108.937 290.156,111.457 291.684,112.359 292.078 C 113.262 292.473,114.699 293.247,115.553 293.798 C 120.626 297.070,125.650 299.997,128.786 301.508 L 132.372 303.235 136.786 301.467 C 139.214 300.495,141.380 299.456,141.600 299.158 C 141.820 298.859,142.900 298.343,144.000 298.010 C 145.100 297.677,146.409 297.078,146.909 296.679 C 148.411 295.482,155.533 292.007,156.492 292.003 C 156.983 292.002,158.271 291.302,159.355 290.450 C 160.439 289.597,162.317 288.651,163.528 288.347 C 164.739 288.043,165.919 287.300,166.150 286.697 C 166.382 286.094,167.079 285.600,167.700 285.600 C 168.685 285.600,174.885 282.805,178.400 280.777 C 179.060 280.396,185.000 277.349,191.600 274.007 C 203.744 267.856,205.071 267.135,208.956 264.575 C 211.271 263.048,214.257 263.319,217.178 265.319 C 218.046 265.914,219.491 266.400,220.390 266.400 C 221.288 266.400,223.367 267.120,225.009 268.000 C 226.651 268.880,228.446 269.612,228.997 269.627 C 229.549 269.642,231.440 270.350,233.200 271.200 C 234.960 272.050,236.940 272.760,237.600 272.778 C 238.260 272.795,239.766 273.314,240.946 273.930 C 242.126 274.545,244.286 275.311,245.746 275.631 C 247.206 275.951,249.655 276.885,251.188 277.707 C 252.722 278.528,254.804 279.200,255.816 279.200 C 256.828 279.200,258.536 279.776,259.610 280.480 C 260.685 281.184,262.742 282.062,264.182 282.431 C 265.622 282.799,269.320 284.046,272.400 285.201 C 290.227 291.884,289.095 292.044,295.783 281.892 C 296.323 281.071,299.833 275.774,303.583 270.120 C 307.332 264.467,310.400 259.572,310.400 259.244 C 310.400 258.916,311.120 257.996,312.000 257.200 C 312.880 256.404,313.600 255.324,313.600 254.800 C 313.600 254.276,314.320 253.196,315.200 252.400 C 316.080 251.604,316.800 250.288,316.800 249.476 C 316.800 248.664,317.124 248.000,317.521 248.000 C 317.918 248.000,319.088 246.667,320.121 245.038 C 321.154 243.409,322.629 241.159,323.398 240.038 C 324.166 238.917,325.192 237.010,325.676 235.800 C 326.160 234.590,326.809 233.600,327.118 233.600 C 328.024 233.600,336.000 221.112,336.000 219.694 C 336.000 218.982,336.360 218.400,336.800 218.400 C 337.240 218.400,337.600 217.860,337.600 217.200 C 337.600 216.540,337.240 216.000,336.800 216.000 C 336.360 216.000,336.000 215.294,336.000 214.431 C 336.000 213.568,335.354 212.218,334.564 211.431 C 333.774 210.644,332.701 209.010,332.181 207.800 C 331.660 206.590,330.867 205.600,330.417 205.600 C 329.968 205.600,329.600 204.893,329.600 204.028 C 329.600 203.164,328.918 202.091,328.084 201.645 C 327.250 201.199,326.189 199.746,325.726 198.417 C 325.262 197.088,324.505 196.000,324.042 196.000 C 323.579 196.000,323.200 195.300,323.200 194.445 C 323.200 193.590,322.538 192.420,321.729 191.845 C 320.920 191.270,320.014 189.810,319.714 188.600 C 319.415 187.390,318.636 186.400,317.985 186.400 C 317.331 186.400,316.800 185.679,316.800 184.792 C 316.800 183.908,316.080 182.568,315.200 181.814 C 314.320 181.061,313.600 179.891,313.600 179.215 C 313.600 178.538,312.880 177.535,312.000 176.986 C 311.120 176.436,310.400 175.505,310.400 174.916 C 310.400 174.327,309.680 173.015,308.800 172.000 C 307.920 170.985,307.200 169.750,307.200 169.255 C 307.200 168.760,306.480 167.739,305.600 166.986 C 304.720 166.232,304.000 165.152,304.000 164.586 C 304.000 164.019,303.280 162.939,302.400 162.186 C 301.520 161.432,300.800 160.272,300.800 159.608 C 300.800 158.944,300.260 158.400,299.600 158.400 C 298.933 158.400,298.400 157.689,298.400 156.800 C 298.400 155.920,297.680 154.480,296.800 153.600 C 295.920 152.720,295.200 151.426,295.200 150.725 C 295.200 150.024,294.480 149.262,293.600 149.032 C 292.714 148.800,292.000 147.941,292.000 147.107 C 292.000 145.789,291.361 145.600,286.900 145.600 C 280.293 145.600,276.800 146.326,276.800 147.700 C 276.800 148.450,275.781 148.800,273.592 148.800 C 271.374 148.800,269.962 149.294,269.014 150.400 C 268.042 151.536,266.654 152.000,264.229 152.000 C 261.680 152.000,260.560 152.406,259.814 153.600 C 259.106 154.735,257.949 155.200,255.836 155.200 C 253.675 155.200,252.621 155.640,252.000 156.800 C 251.322 158.067,250.325 158.400,247.212 158.400 C 244.560 158.400,243.062 158.788,242.612 159.592 C 242.246 160.247,240.273 161.096,238.229 161.478 C 236.186 161.860,233.922 162.763,233.200 163.486 C 232.477 164.209,230.640 164.800,229.118 164.800 C 227.490 164.800,226.174 165.259,225.922 165.914 C 225.673 166.565,223.744 167.248,221.291 167.554 C 218.605 167.890,216.606 168.642,215.752 169.640 C 214.047 171.630,211.493 171.642,210.435 169.665 C 209.983 168.821,208.560 167.899,207.273 167.616 C 205.987 167.333,204.735 166.584,204.492 165.951 C 204.249 165.318,203.332 164.800,202.453 164.800 C 201.575 164.800,200.471 164.080,200.000 163.200 C 199.486 162.240,198.325 161.600,197.097 161.600 C 195.723 161.600,194.913 161.074,194.632 160.000 C 194.317 158.798,193.541 158.400,191.507 158.400 C 189.333 158.400,188.800 158.085,188.800 156.800 C 188.800 155.633,188.267 155.200,186.828 155.200 C 185.675 155.200,184.501 154.536,184.000 153.600 C 183.499 152.664,182.325 152.000,181.172 152.000 C 180.020 152.000,179.200 151.537,179.200 150.886 C 179.200 149.662,177.519 148.800,175.135 148.800 C 174.291 148.800,173.600 148.267,173.600 147.615 C 173.600 146.964,172.610 146.185,171.400 145.886 C 170.190 145.586,168.730 144.680,168.155 143.871 C 167.580 143.062,166.268 142.400,165.240 142.400 C 164.212 142.400,163.177 141.894,162.940 141.275 C 162.702 140.657,161.404 139.908,160.054 139.612 C 158.704 139.315,157.574 138.651,157.542 138.136 C 157.510 137.621,157.534 125.140,157.594 110.400 C 157.705 83.478,157.521 80.800,155.570 80.800 C 154.988 80.800,154.396 79.990,154.256 79.000 C 154.061 77.631,153.392 77.141,151.460 76.954 C 150.062 76.818,148.488 76.188,147.962 75.554 C 146.702 74.036,142.699 74.067,142.111 75.600 M151.115 80.064 C 154.713 82.724,154.704 82.662,155.023 107.200 C 155.333 131.076,154.994 134.185,151.990 134.971 C 150.275 135.419,149.791 136.800,151.348 136.800 C 151.870 136.800,153.040 137.481,153.948 138.313 C 154.857 139.146,157.400 140.793,159.600 141.975 C 161.800 143.156,165.220 145.172,167.200 146.455 C 169.180 147.738,171.790 149.185,173.000 149.672 C 174.210 150.158,175.200 150.857,175.200 151.224 C 175.200 151.592,175.957 152.132,176.882 152.426 C 178.441 152.921,183.261 155.834,185.261 157.491 C 185.735 157.883,186.903 158.452,187.857 158.755 C 188.810 159.057,190.046 159.760,190.602 160.316 C 191.158 160.872,192.563 161.839,193.723 162.464 C 200.744 166.244,206.338 169.831,208.042 171.644 L 210.000 173.727 210.400 205.463 C 210.851 241.246,211.675 238.792,212.370 199.600 L 212.795 175.600 215.210 173.400 C 216.539 172.190,218.259 171.200,219.035 171.200 C 219.810 171.200,221.154 170.706,222.022 170.102 C 222.890 169.498,224.860 168.737,226.400 168.410 C 227.940 168.083,229.560 167.541,230.000 167.207 C 230.440 166.872,232.600 166.037,234.800 165.352 C 241.013 163.418,247.615 161.041,249.284 160.139 C 250.926 159.251,256.886 157.230,262.000 155.826 C 263.760 155.343,265.910 154.465,266.778 153.874 C 267.646 153.283,268.906 152.788,269.578 152.773 C 270.250 152.758,272.240 152.050,274.000 151.200 C 275.760 150.350,277.941 149.642,278.847 149.627 C 279.753 149.612,281.193 149.071,282.047 148.425 C 286.377 145.150,289.129 146.591,294.604 155.000 C 297.397 159.290,300.384 163.838,301.241 165.106 C 302.099 166.374,303.160 167.998,303.600 168.715 C 304.040 169.432,307.190 174.196,310.600 179.302 C 314.010 184.407,316.800 188.963,316.800 189.425 C 316.800 189.888,317.070 190.387,317.400 190.533 C 318.064 190.828,322.400 196.482,322.400 197.052 C 322.400 197.249,325.100 201.480,328.400 206.453 C 336.050 217.981,336.125 217.082,326.278 232.052 C 321.810 238.843,314.133 250.520,309.217 258.000 C 287.631 290.842,289.730 288.000,287.067 288.000 C 285.733 288.000,283.507 287.480,282.121 286.844 C 280.734 286.208,276.000 284.453,271.600 282.944 C 267.200 281.435,259.460 278.685,254.400 276.832 C 249.340 274.980,243.760 272.969,242.000 272.364 C 240.240 271.759,236.280 270.329,233.200 269.186 C 230.120 268.043,226.160 266.642,224.400 266.073 C 219.085 264.355,213.519 261.449,212.539 259.880 C 211.342 257.963,210.400 257.992,210.400 259.946 C 210.400 262.579,205.803 265.117,156.800 289.547 C 143.682 296.087,138.721 298.665,137.733 299.455 C 135.527 301.218,129.407 300.409,125.600 297.852 C 123.620 296.521,119.546 294.031,116.547 292.317 C 109.565 288.326,108.726 287.825,102.000 283.629 C 98.920 281.707,92.980 278.115,88.800 275.647 C 84.620 273.180,80.501 270.719,79.647 270.180 C 78.792 269.641,76.257 268.067,74.012 266.681 C 66.726 262.184,67.053 264.599,66.000 207.513 C 65.369 173.262,65.313 173.763,70.034 171.391 C 71.557 170.626,76.672 168.082,81.401 165.739 C 86.131 163.395,90.540 161.144,91.200 160.737 C 91.860 160.329,93.300 159.637,94.400 159.199 C 95.500 158.760,96.940 158.062,97.600 157.647 C 98.260 157.233,108.059 152.283,119.376 146.647 C 142.082 135.339,140.921 136.130,137.595 134.237 L 135.200 132.874 135.200 109.729 C 135.200 84.958,135.453 83.101,139.226 80.172 C 143.189 77.094,147.052 77.059,151.115 80.064 M143.587 132.868 C 142.378 133.340,142.715 133.501,145.000 133.544 C 146.650 133.575,148.000 133.462,148.000 133.293 C 148.000 132.581,145.051 132.296,143.587 132.868 " stroke="none" fill="#767676" fill-rule="evenodd"></path><path id="path3" d="M142.400 78.146 C 135.635 80.925,135.200 82.834,135.200 109.729 L 135.200 132.874 137.595 134.237 C 140.921 136.130,142.082 135.339,119.376 146.647 C 108.059 152.283,98.260 157.233,97.600 157.647 C 96.940 158.062,95.500 158.760,94.400 159.199 C 93.300 159.637,91.860 160.329,91.200 160.737 C 90.540 161.144,86.131 163.395,81.401 165.739 C 76.672 168.082,71.557 170.626,70.034 171.391 C 65.313 173.763,65.369 173.262,66.000 207.513 C 67.053 264.599,66.726 262.184,74.012 266.681 C 76.257 268.067,78.792 269.641,79.647 270.180 C 80.501 270.719,84.620 273.180,88.800 275.647 C 92.980 278.115,98.920 281.707,102.000 283.629 C 108.726 287.825,109.565 288.326,116.547 292.317 C 119.546 294.031,123.620 296.521,125.600 297.852 C 129.407 300.409,135.527 301.218,137.733 299.455 C 138.721 298.665,143.682 296.087,156.800 289.547 C 205.803 265.117,210.400 262.579,210.400 259.946 C 210.400 257.992,211.342 257.963,212.539 259.880 C 213.519 261.449,219.085 264.355,224.400 266.073 C 226.160 266.642,230.120 268.043,233.200 269.186 C 236.280 270.329,240.240 271.759,242.000 272.364 C 243.760 272.969,249.340 274.980,254.400 276.832 C 259.460 278.685,267.200 281.435,271.600 282.944 C 276.000 284.453,280.734 286.208,282.121 286.844 C 283.507 287.480,285.733 288.000,287.067 288.000 C 289.730 288.000,287.631 290.842,309.217 258.000 C 314.133 250.520,321.810 238.843,326.278 232.052 C 336.125 217.082,336.050 217.981,328.400 206.453 C 325.100 201.480,322.400 197.249,322.400 197.052 C 322.400 196.482,318.064 190.828,317.400 190.533 C 317.070 190.387,316.800 189.888,316.800 189.425 C 316.800 188.963,314.010 184.407,310.600 179.302 C 307.190 174.196,304.040 169.432,303.600 168.715 C 303.160 167.998,302.099 166.374,301.241 165.106 C 300.384 163.838,297.397 159.290,294.604 155.000 C 289.129 146.591,286.377 145.150,282.047 148.425 C 281.193 149.071,279.753 149.612,278.847 149.627 C 277.941 149.642,275.760 150.350,274.000 151.200 C 272.240 152.050,270.250 152.758,269.578 152.773 C 268.906 152.788,267.646 153.283,266.778 153.874 C 265.910 154.465,263.760 155.343,262.000 155.826 C 256.886 157.230,250.926 159.251,249.284 160.139 C 247.615 161.041,241.013 163.418,234.800 165.352 C 232.600 166.037,230.440 166.872,230.000 167.207 C 229.560 167.541,227.940 168.083,226.400 168.410 C 224.860 168.737,222.890 169.498,222.022 170.102 C 221.154 170.706,219.810 171.200,219.035 171.200 C 218.259 171.200,216.539 172.190,215.210 173.400 L 212.795 175.600 212.370 199.600 C 211.675 238.792,210.851 241.246,210.400 205.463 L 210.000 173.727 208.042 171.644 C 206.338 169.831,200.744 166.244,193.723 162.464 C 192.563 161.839,191.158 160.872,190.602 160.316 C 190.046 159.760,188.810 159.057,187.857 158.755 C 186.903 158.452,185.735 157.883,185.261 157.491 C 183.261 155.834,178.441 152.921,176.882 152.426 C 175.957 152.132,175.200 151.592,175.200 151.224 C 175.200 150.857,174.210 150.158,173.000 149.672 C 171.790 149.185,169.180 147.738,167.200 146.455 C 165.220 145.172,161.800 143.156,159.600 141.975 C 157.400 140.793,154.857 139.146,153.948 138.313 C 153.040 137.481,151.870 136.800,151.348 136.800 C 149.791 136.800,150.275 135.419,151.990 134.971 C 154.994 134.185,155.333 131.076,155.023 107.200 C 154.860 94.660,154.455 83.825,154.124 83.122 C 152.547 79.773,145.608 76.828,142.400 78.146 M151.400 83.278 C 152.660 84.808,152.800 87.236,152.800 107.623 C 152.800 132.621,152.715 133.391,150.141 131.589 C 148.163 130.203,144.231 130.048,141.118 131.231 C 137.689 132.535,137.570 131.671,137.793 106.953 L 138.000 83.907 140.000 82.389 C 143.572 79.679,148.769 80.084,151.400 83.278 M148.000 133.293 C 148.000 133.462,146.650 133.575,145.000 133.544 C 142.715 133.501,142.378 133.340,143.587 132.868 C 145.051 132.296,148.000 132.581,148.000 133.293 M148.784 138.087 C 150.553 138.795,152.000 139.659,152.000 140.009 C 152.000 140.358,152.990 141.028,154.200 141.499 C 155.410 141.969,157.710 143.174,159.311 144.177 C 160.912 145.180,165.592 147.963,169.711 150.362 C 173.830 152.761,177.652 155.167,178.205 155.710 C 178.757 156.252,180.017 156.947,181.005 157.255 C 181.992 157.564,182.980 158.061,183.200 158.361 C 183.563 158.855,189.533 162.520,195.032 165.624 C 197.607 167.077,200.892 169.125,205.000 171.837 L 208.000 173.818 208.000 217.202 L 208.000 260.587 205.000 262.539 C 203.350 263.613,194.260 268.372,184.800 273.114 C 175.340 277.857,167.060 282.038,166.400 282.405 C 165.740 282.772,162.860 284.239,160.000 285.666 C 157.140 287.092,152.820 289.265,150.400 290.495 C 147.980 291.725,145.100 293.113,144.000 293.579 C 142.900 294.045,140.027 295.501,137.616 296.814 C 132.167 299.779,132.463 299.794,127.182 296.309 C 124.772 294.718,122.080 293.088,121.200 292.684 C 120.320 292.281,117.080 290.346,114.000 288.384 C 110.920 286.422,107.500 284.371,106.400 283.826 C 105.300 283.282,102.780 281.726,100.800 280.369 C 98.820 279.011,96.542 277.654,95.737 277.351 C 94.932 277.049,92.412 275.627,90.137 274.191 C 84.912 270.895,83.873 270.263,78.000 266.820 C 68.769 261.407,69.879 267.171,68.805 219.098 C 67.766 172.634,67.594 174.652,72.784 172.409 C 74.333 171.740,76.140 170.834,76.800 170.396 C 77.460 169.958,78.900 169.240,80.000 168.801 C 81.100 168.363,82.540 167.704,83.200 167.337 C 85.090 166.286,89.412 164.097,97.200 160.244 C 101.160 158.286,104.940 156.376,105.600 156.000 C 106.260 155.625,110.580 153.474,115.200 151.221 C 119.820 148.968,124.140 146.802,124.800 146.409 C 129.343 143.698,143.460 137.020,144.984 136.861 C 145.305 136.827,147.015 137.379,148.784 138.087 M289.263 151.000 C 289.958 151.770,293.108 156.400,296.263 161.290 C 303.838 173.028,303.240 172.121,306.200 176.358 C 307.630 178.405,308.800 180.209,308.800 180.366 C 308.800 180.524,311.148 184.196,314.017 188.526 C 321.293 199.507,321.005 199.080,323.000 201.830 C 323.990 203.195,324.800 204.616,324.800 204.990 C 324.800 205.363,326.150 207.554,327.800 209.859 C 333.368 217.637,333.365 217.699,326.851 227.328 C 323.807 231.827,315.832 244.001,314.800 245.724 C 314.360 246.458,312.830 248.729,311.400 250.770 C 309.970 252.810,308.800 254.594,308.800 254.732 C 308.800 255.593,288.554 285.274,287.604 285.806 C 286.914 286.192,285.527 285.995,284.218 285.326 C 282.998 284.703,280.752 283.924,279.226 283.595 C 277.701 283.266,275.901 282.694,275.226 282.325 C 273.808 281.549,264.365 277.986,262.000 277.336 C 261.120 277.093,257.880 275.944,254.800 274.781 C 251.720 273.618,247.760 272.171,246.000 271.566 C 244.240 270.960,240.280 269.511,237.200 268.346 C 234.120 267.181,230.160 265.807,228.400 265.292 C 226.640 264.777,224.480 263.965,223.600 263.488 C 222.720 263.012,220.924 262.363,219.608 262.047 C 215.942 261.167,216.025 262.197,216.012 217.498 C 215.999 170.822,215.543 174.437,221.687 172.462 C 223.619 171.841,227.720 170.381,230.800 169.217 C 233.880 168.053,237.480 166.812,238.800 166.458 C 240.120 166.105,242.460 165.274,244.000 164.612 C 245.540 163.950,247.970 163.002,249.400 162.504 C 250.830 162.007,253.170 161.181,254.600 160.670 C 256.030 160.158,259.180 159.040,261.600 158.185 C 264.020 157.329,267.080 156.147,268.400 155.557 C 269.720 154.967,272.060 154.121,273.600 153.676 C 275.140 153.231,278.380 152.144,280.800 151.260 C 286.252 149.268,287.661 149.224,289.263 151.000 " stroke="none" fill="#afafaf" fill-rule="evenodd"></path><path id="path4" d="M143.600 80.604 C 142.720 80.751,141.100 81.555,140.000 82.389 L 138.000 83.907 137.793 106.953 C 137.570 131.671,137.689 132.535,141.118 131.231 C 144.231 130.048,148.163 130.203,150.141 131.589 C 152.715 133.391,152.800 132.621,152.800 107.623 C 152.800 81.342,152.066 79.187,143.600 80.604 M142.000 137.880 C 139.611 138.834,127.086 145.045,124.800 146.409 C 124.140 146.802,119.820 148.968,115.200 151.221 C 110.580 153.474,106.260 155.625,105.600 156.000 C 104.940 156.376,101.160 158.286,97.200 160.244 C 89.412 164.097,85.090 166.286,83.200 167.337 C 82.540 167.704,81.100 168.363,80.000 168.801 C 78.900 169.240,77.460 169.958,76.800 170.396 C 76.140 170.834,74.333 171.740,72.784 172.409 C 67.594 174.652,67.766 172.634,68.805 219.098 C 69.879 267.171,68.769 261.407,78.000 266.820 C 83.873 270.263,84.912 270.895,90.137 274.191 C 92.412 275.627,94.932 277.049,95.737 277.351 C 96.542 277.654,98.820 279.011,100.800 280.369 C 102.780 281.726,105.300 283.282,106.400 283.826 C 107.500 284.371,110.920 286.422,114.000 288.384 C 117.080 290.346,120.320 292.281,121.200 292.684 C 122.080 293.088,124.772 294.718,127.182 296.309 C 132.463 299.794,132.167 299.779,137.616 296.814 C 140.027 295.501,142.900 294.045,144.000 293.579 C 145.100 293.113,147.980 291.725,150.400 290.495 C 152.820 289.265,157.140 287.092,160.000 285.666 C 162.860 284.239,165.740 282.772,166.400 282.405 C 167.060 282.038,175.340 277.857,184.800 273.114 C 194.260 268.372,203.350 263.613,205.000 262.539 L 208.000 260.587 208.000 217.202 L 208.000 173.818 205.000 171.837 C 200.892 169.125,197.607 167.077,195.032 165.624 C 189.533 162.520,183.563 158.855,183.200 158.361 C 182.980 158.061,181.992 157.564,181.005 157.255 C 180.017 156.947,178.757 156.252,178.205 155.710 C 177.652 155.167,173.830 152.761,169.711 150.362 C 165.592 147.963,160.912 145.180,159.311 144.177 C 157.710 143.174,155.410 141.969,154.200 141.499 C 152.990 141.028,152.000 140.358,152.000 140.009 C 152.000 139.382,146.117 136.743,144.984 136.861 C 144.663 136.894,143.320 137.353,142.000 137.880 M280.800 151.260 C 278.380 152.144,275.140 153.231,273.600 153.676 C 272.060 154.121,269.720 154.967,268.400 155.557 C 267.080 156.147,264.020 157.329,261.600 158.185 C 259.180 159.040,256.030 160.158,254.600 160.670 C 253.170 161.181,250.830 162.007,249.400 162.504 C 247.970 163.002,245.540 163.950,244.000 164.612 C 242.460 165.274,240.120 166.105,238.800 166.458 C 237.480 166.812,233.880 168.053,230.800 169.217 C 227.720 170.381,223.619 171.841,221.687 172.462 C 215.543 174.437,215.999 170.822,216.012 217.498 C 216.025 262.197,215.942 261.167,219.608 262.047 C 220.924 262.363,222.720 263.012,223.600 263.488 C 224.480 263.965,226.640 264.777,228.400 265.292 C 230.160 265.807,234.120 267.181,237.200 268.346 C 240.280 269.511,244.240 270.960,246.000 271.566 C 247.760 272.171,251.720 273.618,254.800 274.781 C 257.880 275.944,261.120 277.093,262.000 277.336 C 264.365 277.986,273.808 281.549,275.226 282.325 C 275.901 282.694,277.701 283.266,279.226 283.595 C 280.752 283.924,282.998 284.703,284.218 285.326 C 285.527 285.995,286.914 286.192,287.604 285.806 C 288.554 285.274,308.800 255.593,308.800 254.732 C 308.800 254.594,309.970 252.810,311.400 250.770 C 312.830 248.729,314.360 246.458,314.800 245.724 C 315.832 244.001,323.807 231.827,326.851 227.328 C 333.365 217.699,333.368 217.637,327.800 209.859 C 326.150 207.554,324.800 205.363,324.800 204.990 C 324.800 204.616,323.990 203.195,323.000 201.830 C 321.005 199.080,321.293 199.507,314.017 188.526 C 311.148 184.196,308.800 180.524,308.800 180.366 C 308.800 180.209,307.630 178.405,306.200 176.358 C 303.240 172.121,303.838 173.028,296.263 161.290 C 287.743 148.086,288.371 148.494,280.800 151.260 " stroke="none" fill="#ffffff" fill-rule="evenodd"></path></g></svg>