<svg id="svg" version="1.1" width="500" height="500" xmlns="http://www.w3.org/2000/svg" xmlns:xlink="http://www.w3.org/1999/xlink" style="display: block;"><g id="svgg"><path id="path0" d="M75.360 80.960 C 74.832 81.488,74.400 82.208,74.400 82.560 C 74.400 83.673,76.609 83.251,77.070 82.051 C 77.312 81.419,78.881 80.759,80.555 80.585 C 83.527 80.277,83.512 80.266,79.960 80.134 C 77.958 80.061,75.888 80.432,75.360 80.960 M236.960 80.960 C 235.594 82.326,235.772 83.092,237.400 82.853 C 238.170 82.740,238.683 82.336,238.541 81.955 C 238.398 81.574,238.938 81.004,239.741 80.687 C 241.070 80.164,241.054 80.107,239.560 80.056 C 238.658 80.025,237.488 80.432,236.960 80.960 M258.000 80.587 C 259.320 80.778,261.032 81.502,261.805 82.195 C 263.503 83.720,264.640 82.935,263.216 81.219 C 262.571 80.442,261.006 80.043,258.902 80.120 C 256.181 80.219,256.022 80.301,258.000 80.587 M65.052 84.600 C 64.778 85.370,64.408 86.270,64.229 86.600 C 63.426 88.088,64.750 86.996,65.926 85.200 C 66.652 84.093,66.860 83.200,66.393 83.200 C 65.929 83.200,65.326 83.830,65.052 84.600 M105.177 87.800 C 105.307 88.570,105.761 89.128,106.188 89.040 C 106.614 88.951,107.027 91.021,107.106 93.640 C 107.195 96.628,106.924 98.400,106.377 98.400 C 105.898 98.400,105.693 98.703,105.921 99.073 C 106.583 100.144,101.916 103.169,99.031 103.539 C 94.221 104.154,85.608 104.274,85.067 103.733 C 84.773 103.440,84.233 103.200,83.867 103.200 C 83.500 103.200,83.200 120.123,83.200 140.807 C 83.200 178.213,83.209 178.408,84.800 177.414 C 85.939 176.703,86.400 175.549,86.400 173.408 C 86.400 171.076,86.715 170.400,87.800 170.400 C 89.113 170.401,89.185 168.532,88.955 140.400 L 88.711 110.400 94.787 110.400 C 106.815 110.400,114.843 100.444,109.319 92.378 C 108.725 91.510,107.998 89.810,107.704 88.600 C 107.127 86.223,104.787 85.483,105.177 87.800 M273.600 87.086 C 273.600 87.537,273.985 88.143,274.455 88.434 C 274.925 88.724,275.116 89.465,274.880 90.081 C 274.643 90.696,274.718 91.200,275.045 91.200 C 275.373 91.200,275.637 93.090,275.632 95.400 C 275.517 153.117,276.268 248.786,276.825 247.400 C 277.223 246.410,277.920 245.600,278.374 245.600 C 279.814 245.600,279.494 94.808,278.051 93.365 C 277.419 92.733,276.592 91.022,276.214 89.562 C 275.577 87.103,273.600 85.230,273.600 87.086 M230.054 91.094 C 224.788 101.484,230.811 110.400,243.095 110.400 C 251.583 110.400,251.022 108.208,251.278 142.417 C 251.477 169.144,251.613 171.685,252.895 172.609 C 253.665 173.164,254.445 174.604,254.628 175.809 C 254.811 177.014,255.014 161.577,255.080 141.505 L 255.200 105.009 252.200 104.513 C 250.550 104.241,247.513 104.014,245.452 104.009 C 243.391 104.004,240.691 103.585,239.452 103.077 C 238.213 102.569,236.732 102.059,236.160 101.942 C 233.666 101.433,233.030 99.863,232.870 93.819 C 232.668 86.181,232.584 86.100,230.054 91.094 M60.858 92.508 C 59.202 94.614,59.200 94.710,59.200 190.338 L 59.200 286.061 61.000 289.595 C 63.953 295.392,68.915 297.866,78.367 298.253 C 82.565 298.425,86.342 298.888,86.760 299.283 C 89.009 301.405,102.078 298.920,105.106 295.794 C 109.764 290.985,111.944 281.547,109.225 277.953 C 108.579 277.099,108.039 275.578,108.025 274.573 C 107.963 270.063,103.092 267.184,95.827 267.363 L 89.200 267.526 95.672 267.793 C 104.277 268.149,107.541 270.888,106.697 277.044 C 106.414 279.110,105.871 280.800,105.491 280.800 C 105.111 280.800,104.800 281.760,104.800 282.933 C 104.800 284.107,105.038 284.829,105.328 284.538 C 105.619 284.248,106.387 284.767,107.035 285.692 C 107.966 287.022,108.001 287.505,107.204 287.998 C 106.649 288.341,106.397 288.949,106.645 289.349 C 107.349 290.488,106.061 292.003,104.060 292.389 C 103.057 292.582,101.720 293.168,101.089 293.692 C 96.481 297.517,74.336 293.081,67.683 287.000 L 64.400 284.000 64.184 187.200 C 64.057 129.905,63.672 90.400,63.242 90.400 C 62.843 90.400,61.770 91.349,60.858 92.508 M122.600 102.425 C 121.610 102.823,120.800 103.520,120.800 103.974 C 120.800 105.057,122.159 105.036,122.835 103.944 C 123.126 103.473,124.137 102.776,125.082 102.395 C 126.038 102.009,126.268 101.701,125.600 101.701 C 124.940 101.701,123.590 102.027,122.600 102.425 M212.800 101.907 C 212.800 102.075,213.700 102.386,214.800 102.596 C 215.900 102.806,216.800 102.668,216.800 102.289 C 216.800 101.910,215.900 101.600,214.800 101.600 C 213.700 101.600,212.800 101.738,212.800 101.907 M117.967 106.453 C 117.029 107.971,118.397 108.346,119.790 106.952 C 121.038 105.705,121.040 105.600,119.819 105.600 C 119.090 105.600,118.257 105.984,117.967 106.453 M221.400 109.467 C 222.995 111.138,223.618 111.043,222.924 109.235 C 222.663 108.556,221.899 108.000,221.225 108.000 C 220.189 108.000,220.215 108.226,221.400 109.467 M115.360 112.160 C 113.941 113.579,114.153 115.466,115.665 114.886 C 116.361 114.619,117.081 114.400,117.265 114.400 C 117.449 114.400,117.600 113.680,117.600 112.800 C 117.600 110.987,116.770 110.750,115.360 112.160 M224.600 115.867 C 226.195 117.538,226.818 117.443,226.124 115.635 C 225.863 114.956,225.099 114.400,224.425 114.400 C 223.389 114.400,223.415 114.626,224.600 115.867 M111.667 118.915 C 110.950 120.782,111.708 121.207,113.162 119.752 C 114.695 118.219,114.730 117.600,113.286 117.600 C 112.673 117.600,111.944 118.192,111.667 118.915 M226.400 121.589 C 226.400 122.087,226.738 122.286,227.151 122.030 C 227.564 121.775,228.297 122.204,228.780 122.983 C 229.592 124.292,229.641 124.279,229.420 122.809 C 229.170 121.140,226.400 120.021,226.400 121.589 M108.276 125.235 C 107.531 127.176,108.404 127.364,109.996 125.605 C 111.321 124.140,111.330 124.000,110.099 124.000 C 109.357 124.000,108.537 124.556,108.276 125.235 M230.850 128.056 C 232.513 129.893,232.800 129.957,232.800 128.493 C 232.800 127.885,232.047 127.190,231.126 126.949 C 229.520 126.529,229.509 126.574,230.850 128.056 M150.960 131.233 C 150.709 132.189,150.841 133.857,151.252 134.938 C 152.877 139.210,149.877 149.620,146.135 152.698 C 145.401 153.302,144.800 154.423,144.800 155.190 C 144.800 155.957,144.080 157.500,143.200 158.618 C 142.320 159.737,141.600 161.177,141.600 161.818 C 141.600 162.460,140.970 163.847,140.200 164.901 C 138.000 167.914,136.860 169.840,135.999 172.000 C 135.560 173.100,134.840 174.540,134.399 175.200 C 133.957 175.860,133.237 177.300,132.799 178.400 C 132.360 179.500,131.634 180.940,131.184 181.600 C 130.735 182.260,129.795 184.060,129.094 185.600 C 128.393 187.140,127.553 188.580,127.226 188.800 C 126.899 189.020,126.192 190.550,125.654 192.200 C 125.116 193.850,124.389 195.200,124.038 195.200 C 123.687 195.200,123.171 196.190,122.892 197.400 C 122.604 198.645,120.869 200.816,118.895 202.400 C 114.753 205.724,112.842 208.213,115.012 207.457 C 116.904 206.797,123.200 200.694,123.200 199.519 C 123.200 198.998,123.720 198.372,124.356 198.128 C 124.992 197.884,125.747 196.430,126.034 194.897 C 126.322 193.365,127.062 191.917,127.679 191.681 C 128.295 191.444,128.800 190.725,128.800 190.082 C 128.800 189.440,129.261 188.439,129.824 187.857 C 130.387 187.276,131.868 184.640,133.113 182.000 C 134.359 179.360,135.701 176.660,136.095 176.000 C 136.489 175.340,137.207 173.900,137.691 172.800 C 138.175 171.700,138.895 170.260,139.291 169.600 C 139.687 168.940,140.407 167.500,140.891 166.400 C 141.375 165.300,142.095 163.860,142.491 163.200 C 142.887 162.540,143.607 161.100,144.091 160.000 C 145.168 157.551,145.462 157.045,148.083 153.120 C 149.229 151.404,150.441 149.100,150.778 148.000 C 151.114 146.900,151.932 145.382,152.595 144.626 C 153.392 143.718,153.817 141.482,153.849 138.026 L 153.898 132.800 168.749 132.800 L 183.600 132.800 183.600 137.916 C 183.600 141.666,183.974 143.445,185.000 144.579 C 185.770 145.430,186.400 146.679,186.400 147.355 C 186.400 148.031,187.120 149.500,188.000 150.618 C 188.880 151.737,189.600 153.011,189.600 153.449 C 189.600 154.135,192.044 158.994,198.519 171.188 C 199.334 172.722,200.000 174.432,200.000 174.988 C 200.000 175.545,200.360 176.000,200.800 176.000 C 201.240 176.000,201.600 176.450,201.601 177.000 C 201.602 177.550,202.502 179.046,203.601 180.324 C 204.700 181.603,205.600 183.269,205.600 184.026 C 205.600 184.784,206.105 185.823,206.722 186.335 C 207.338 186.847,208.081 188.212,208.371 189.370 C 208.662 190.527,209.597 192.361,210.450 193.445 C 211.302 194.529,212.005 195.997,212.011 196.708 C 212.033 199.161,219.920 207.204,222.266 207.165 C 224.350 207.130,224.334 207.094,221.600 205.643 C 218.458 203.975,215.533 200.405,214.749 197.280 C 214.461 196.136,213.887 195.200,213.472 195.200 C 213.056 195.200,212.340 194.120,211.880 192.800 C 211.420 191.480,210.733 190.400,210.353 190.400 C 209.973 190.400,209.285 189.002,208.825 187.293 C 208.365 185.584,207.451 183.740,206.794 183.195 C 206.137 182.650,205.600 181.583,205.600 180.824 C 205.600 180.066,204.885 178.620,204.011 177.612 C 203.136 176.604,200.791 172.499,198.799 168.490 C 196.808 164.480,193.942 158.864,192.432 156.009 C 190.922 153.154,189.478 150.274,189.223 149.609 C 188.969 148.944,188.139 147.320,187.380 146.000 C 186.308 144.136,186.041 142.006,186.182 136.458 C 186.322 130.979,186.145 129.535,185.422 130.258 C 184.174 131.506,153.509 131.589,152.267 130.347 C 151.663 129.743,151.281 130.002,150.960 131.233 M105.286 131.665 C 104.638 133.352,104.631 133.333,105.965 133.333 C 106.605 133.333,106.944 133.033,106.718 132.667 C 106.491 132.300,106.687 132.000,107.153 132.000 C 107.619 132.000,108.000 131.640,108.000 131.200 C 108.000 129.909,105.816 130.283,105.286 131.665 M233.991 134.484 C 234.867 135.538,235.677 136.550,235.791 136.733 C 235.906 136.917,236.000 136.479,236.000 135.761 C 236.000 135.044,235.190 134.031,234.200 133.512 L 232.400 132.567 233.991 134.484 M102.857 137.257 C 101.284 138.830,101.127 140.589,102.674 139.305 C 103.264 138.815,103.909 138.575,104.106 138.773 C 104.303 138.970,104.518 138.427,104.583 137.566 C 104.725 135.672,104.485 135.629,102.857 137.257 M237.204 140.805 C 238.003 141.688,238.830 142.236,239.042 142.024 C 239.580 141.487,237.585 139.200,236.578 139.200 C 236.124 139.200,236.406 139.922,237.204 140.805 M99.180 144.452 C 98.188 147.061,98.248 149.032,99.244 146.549 C 99.652 145.530,100.275 144.875,100.627 145.093 C 100.980 145.311,101.320 144.794,101.384 143.945 C 101.552 141.711,100.095 142.047,99.180 144.452 M95.980 150.852 C 94.972 153.503,95.020 154.392,96.073 152.583 C 96.527 151.804,97.161 151.329,97.483 151.528 C 97.805 151.727,98.120 151.194,98.184 150.345 C 98.352 148.111,96.895 148.447,95.980 150.852 M92.780 157.252 C 91.772 159.903,91.820 160.792,92.873 158.983 C 93.327 158.204,93.961 157.729,94.283 157.928 C 94.605 158.127,94.920 157.594,94.984 156.745 C 95.152 154.511,93.695 154.847,92.780 157.252 M247.467 160.342 C 247.971 161.410,248.510 162.157,248.665 162.002 C 249.161 161.505,247.917 158.400,247.221 158.400 C 246.852 158.400,246.963 159.274,247.467 160.342 M89.876 162.835 C 89.228 164.523,90.310 165.434,91.231 163.977 C 92.211 162.428,92.191 161.600,91.175 161.600 C 90.721 161.600,90.137 162.156,89.876 162.835 M248.800 164.302 C 248.800 164.468,249.340 165.052,250.000 165.600 C 250.983 166.416,251.200 166.361,251.200 165.298 C 251.200 164.584,250.660 164.000,250.000 164.000 C 249.340 164.000,248.800 164.136,248.800 164.302 M254.339 199.400 C 254.273 201.322,254.272 201.328,252.428 207.942 C 250.364 215.341,222.767 269.532,219.251 273.089 C 214.565 277.830,213.651 277.921,170.400 277.921 C 121.780 277.921,121.350 277.838,116.405 267.557 C 114.851 264.325,113.224 261.462,112.790 261.194 C 112.355 260.925,112.000 260.033,112.000 259.210 C 112.000 258.387,111.478 257.192,110.840 256.555 C 109.257 254.971,87.109 210.560,87.304 209.360 C 87.531 207.966,86.407 204.289,84.727 200.927 C 83.287 198.046,83.263 198.551,83.232 233.087 L 83.200 268.173 85.398 267.622 C 86.607 267.318,87.777 266.890,87.998 266.670 C 88.219 266.449,88.595 255.229,88.833 241.735 C 89.071 228.241,89.349 217.740,89.450 218.400 C 89.552 219.060,90.854 221.940,92.345 224.800 C 93.836 227.660,96.216 232.340,97.634 235.200 C 99.052 238.060,100.705 240.688,101.306 241.040 C 101.908 241.392,102.400 242.565,102.400 243.648 C 102.400 244.730,103.120 246.232,104.000 246.986 C 104.880 247.739,105.600 249.029,105.600 249.852 C 105.600 250.674,106.320 252.263,107.200 253.382 C 108.080 254.500,108.800 255.863,108.800 256.410 C 108.800 256.957,109.317 257.833,109.949 258.357 C 110.580 258.882,111.323 260.341,111.600 261.600 C 111.877 262.859,112.597 264.299,113.200 264.800 C 113.803 265.301,114.529 266.766,114.812 268.056 C 115.390 270.687,121.645 277.353,124.586 278.471 C 127.198 279.464,212.107 279.424,214.726 278.428 C 215.842 278.004,217.899 276.564,219.296 275.228 C 220.694 273.893,222.054 272.800,222.320 272.800 C 222.585 272.800,223.821 270.643,225.066 268.007 C 226.310 265.372,227.632 263.027,228.003 262.798 C 228.374 262.569,228.913 261.306,229.202 259.991 C 229.491 258.676,230.034 257.600,230.410 257.600 C 230.785 257.600,231.333 256.790,231.628 255.800 C 232.213 253.831,236.158 245.442,236.800 244.800 C 237.020 244.580,238.240 242.240,239.512 239.600 C 240.784 236.960,242.113 234.260,242.467 233.600 C 242.820 232.940,244.392 229.790,245.959 226.600 C 250.851 216.646,251.188 217.635,251.280 242.200 C 251.364 264.735,251.632 267.430,253.835 267.854 C 255.105 268.099,255.200 265.663,255.200 232.859 C 255.200 213.466,255.020 197.600,254.800 197.600 C 254.580 197.600,254.372 198.410,254.339 199.400 M116.977 216.930 C 117.147 217.442,117.917 217.953,118.688 218.066 C 119.814 218.231,119.904 218.048,119.147 217.136 C 118.011 215.768,116.543 215.629,116.977 216.930 M120.141 222.924 C 120.284 223.653,121.061 224.346,121.869 224.464 C 123.269 224.669,123.272 224.606,121.945 223.139 C 120.238 221.253,119.805 221.201,120.141 222.924 M123.200 229.107 C 123.200 229.715,123.953 230.410,124.874 230.651 C 126.480 231.071,126.491 231.026,125.150 229.544 C 123.487 227.707,123.200 227.643,123.200 229.107 M130.631 231.072 C 129.844 231.881,128.570 232.770,127.800 233.047 C 127.030 233.323,126.442 234.191,126.493 234.975 C 126.580 236.310,126.609 236.312,126.951 235.000 C 127.153 234.230,127.775 233.600,128.335 233.600 C 128.894 233.600,130.000 232.884,130.793 232.008 C 132.185 230.469,133.455 230.409,168.717 230.200 L 205.200 229.983 168.631 229.792 C 134.033 229.610,131.985 229.679,130.631 231.072 M308.324 247.084 C 310.017 248.990,310.400 249.165,310.400 248.028 C 310.400 247.604,309.590 246.831,308.600 246.312 C 306.810 245.372,306.808 245.376,308.324 247.084 M313.756 250.352 C 314.837 252.083,316.000 252.537,316.000 251.228 C 316.000 250.804,315.264 250.062,314.363 249.580 C 312.852 248.771,312.805 248.831,313.756 250.352 M316.800 253.022 C 316.800 253.584,317.520 254.661,318.400 255.414 C 320.407 257.133,320.710 255.224,318.743 253.257 C 317.218 251.733,316.800 251.682,316.800 253.022 M320.028 258.829 C 320.044 259.693,320.571 261.300,321.200 262.400 C 325.563 270.033,321.464 293.753,315.591 294.854 C 311.346 295.651,303.906 294.843,302.880 293.475 C 302.396 292.829,301.370 292.064,300.600 291.776 C 299.830 291.487,299.195 290.789,299.188 290.225 C 299.182 289.661,298.725 290.093,298.172 291.184 C 296.075 295.329,283.038 296.943,280.433 293.380 C 279.878 292.621,279.065 292.000,278.627 292.000 C 278.189 292.000,276.939 290.032,275.851 287.626 L 273.872 283.251 272.549 286.026 C 271.704 287.797,270.659 288.800,269.658 288.800 C 268.796 288.800,267.620 289.430,267.045 290.200 C 265.961 291.652,264.729 292.169,262.000 292.314 C 261.120 292.362,260.206 292.659,259.968 292.976 C 259.256 293.924,243.735 295.099,242.258 294.317 C 241.520 293.926,240.440 293.779,239.858 293.991 C 237.965 294.681,230.977 289.705,231.664 288.156 C 232.727 285.757,233.065 274.400,232.073 274.400 C 226.289 274.400,227.338 289.044,233.579 295.428 C 236.556 298.472,247.382 300.956,250.673 299.349 C 251.623 298.886,256.081 298.358,260.580 298.176 C 269.071 297.833,274.187 295.795,275.564 292.206 C 275.968 291.153,276.413 291.296,278.267 293.073 C 279.488 294.243,281.077 295.200,281.797 295.200 C 282.517 295.200,283.328 295.560,283.600 296.000 C 284.206 296.981,292.538 297.072,293.136 296.103 C 293.373 295.720,294.654 295.189,295.983 294.923 C 297.459 294.628,298.400 293.944,298.400 293.166 C 298.400 292.053,298.679 292.080,300.600 293.385 C 305.383 296.631,314.254 298.178,315.600 296.000 C 315.872 295.560,316.827 295.200,317.722 295.200 C 318.677 295.200,319.523 294.539,319.768 293.600 C 319.998 292.720,320.678 292.000,321.278 292.000 C 323.909 292.000,324.021 261.273,321.400 258.656 C 320.067 257.324,320.001 257.333,320.028 258.829 M239.821 267.787 C 241.703 267.956,244.583 267.953,246.221 267.782 C 247.860 267.610,246.320 267.471,242.800 267.474 C 239.280 267.477,237.940 267.618,239.821 267.787 " stroke="none" fill="#000000" fill-rule="evenodd"></path><path id="path1" d="M80.463 80.714 C 78.737 80.981,77.178 81.646,76.999 82.191 C 76.590 83.433,92.629 83.361,94.261 82.114 C 94.912 81.616,95.530 81.592,95.861 82.051 C 96.739 83.271,100.800 83.268,100.800 82.048 C 100.800 80.022,89.642 79.290,80.463 80.714 M239.482 80.741 C 236.519 82.029,236.736 82.954,240.000 82.954 C 241.728 82.954,242.954 82.649,242.724 82.277 C 242.494 81.905,243.206 81.600,244.306 81.600 C 245.406 81.600,246.503 81.919,246.744 82.310 C 246.986 82.700,250.696 83.072,254.990 83.137 C 262.288 83.246,262.709 83.166,261.458 81.915 C 259.902 80.359,242.498 79.429,239.482 80.741 M66.560 84.160 C 65.431 85.289,65.305 86.400,66.307 86.400 C 66.695 86.400,67.202 85.680,67.432 84.800 C 67.920 82.933,67.844 82.876,66.560 84.160 M104.951 90.236 C 104.603 96.258,104.027 97.594,101.736 97.688 C 100.561 97.736,97.260 97.852,94.400 97.946 C 91.540 98.039,87.580 98.180,85.600 98.258 L 82.000 98.400 82.171 145.800 C 82.265 171.870,82.355 210.570,82.371 231.800 C 82.400 269.857,82.423 270.400,84.000 270.400 C 84.880 270.400,85.600 270.051,85.600 269.625 C 85.600 269.199,86.094 269.040,86.697 269.271 C 87.300 269.503,88.024 269.090,88.307 268.355 C 88.747 267.208,88.421 267.093,86.010 267.545 L 83.200 268.073 83.232 233.036 C 83.263 198.549,83.287 198.046,84.727 200.927 C 86.407 204.289,87.531 207.966,87.304 209.360 C 87.109 210.560,109.257 254.971,110.840 256.555 C 111.478 257.192,112.000 258.387,112.000 259.210 C 112.000 260.033,112.343 260.917,112.761 261.176 C 113.180 261.435,114.706 264.066,116.153 267.023 C 119.097 273.040,120.724 274.705,124.800 275.868 C 126.340 276.308,129.040 277.075,130.800 277.572 C 135.011 278.761,207.636 278.291,212.699 277.042 C 219.069 275.470,221.031 272.544,236.761 241.142 C 250.245 214.224,252.945 207.946,254.111 200.800 C 254.362 199.260,254.710 197.850,254.884 197.667 C 255.058 197.483,255.200 213.272,255.200 232.753 L 255.200 268.173 253.200 267.671 C 252.100 267.395,251.200 267.492,251.200 267.887 C 251.200 269.293,253.539 270.511,255.752 270.258 L 258.000 270.000 258.204 184.200 L 258.407 98.400 253.804 98.275 C 251.272 98.206,246.019 98.066,242.131 97.965 C 234.251 97.760,233.861 97.566,233.361 93.600 C 233.151 91.942,233.021 92.683,233.041 95.416 C 233.074 99.894,233.826 101.466,236.160 101.942 C 236.732 102.059,238.213 102.569,239.452 103.077 C 240.691 103.585,243.391 104.004,245.452 104.009 C 247.513 104.014,250.550 104.241,252.200 104.513 L 255.200 105.009 255.091 141.505 C 255.031 161.577,254.817 177.100,254.614 176.000 C 253.869 171.947,251.200 170.546,251.200 174.208 C 251.200 175.549,251.828 176.807,252.800 177.414 C 253.834 178.060,254.400 179.280,254.400 180.864 C 254.400 182.212,254.940 183.854,255.600 184.514 C 257.134 186.048,257.134 188.352,255.600 189.886 C 254.940 190.546,254.400 191.963,254.400 193.035 C 254.400 194.107,253.680 195.900,252.800 197.018 C 251.920 198.137,251.200 200.177,251.200 201.551 C 251.200 203.035,250.712 204.237,250.000 204.511 C 248.723 205.001,248.302 208.800,249.525 208.800 C 249.923 208.800,249.840 209.668,249.339 210.729 C 248.622 212.248,248.129 212.497,247.014 211.901 C 245.937 211.324,245.600 211.447,245.600 212.419 C 245.600 213.121,245.968 213.467,246.417 213.189 C 246.917 212.881,247.163 213.616,247.052 215.081 C 246.916 216.860,246.403 217.566,245.059 217.823 C 244.063 218.013,243.439 217.861,243.671 217.484 C 243.904 217.108,243.713 216.800,243.247 216.800 C 242.171 216.800,242.137 218.943,243.202 219.601 C 243.730 219.927,243.698 220.669,243.109 221.770 C 242.346 223.196,242.411 223.367,243.548 222.930 C 244.374 222.614,244.686 222.738,244.365 223.256 C 244.071 223.733,242.846 223.874,241.524 223.583 C 239.697 223.182,239.200 223.353,239.200 224.384 C 239.200 225.171,239.569 225.466,240.124 225.124 C 240.708 224.762,240.830 224.905,240.455 225.511 C 240.129 226.039,240.284 226.979,240.800 227.600 C 242.200 229.287,240.922 230.600,238.259 230.209 C 236.150 229.899,235.921 230.077,236.038 231.932 C 236.233 234.994,236.069 236.011,235.400 235.905 C 233.499 235.605,232.871 236.312,232.648 239.000 C 232.447 241.436,232.116 241.951,230.886 241.739 C 229.554 241.509,229.424 241.862,229.803 244.685 C 230.235 247.908,229.015 249.521,227.058 248.312 C 226.588 248.022,226.324 248.759,226.415 250.110 C 226.709 254.463,226.491 255.074,224.800 254.632 C 223.086 254.184,222.788 254.910,223.939 256.728 C 224.874 258.206,223.261 260.800,221.408 260.800 C 220.541 260.800,220.000 261.405,220.000 262.375 C 220.000 263.515,220.367 263.809,221.331 263.439 C 222.341 263.052,222.487 263.203,221.937 264.064 C 221.538 264.689,221.197 265.943,221.180 266.852 C 221.144 268.749,218.071 273.004,217.296 272.230 C 217.013 271.946,215.705 272.509,214.390 273.481 C 213.076 274.453,212.000 274.856,212.000 274.377 C 212.000 273.881,211.569 273.774,211.000 274.128 C 210.450 274.470,209.190 274.646,208.200 274.518 C 207.210 274.390,206.400 274.671,206.400 275.143 C 206.400 275.740,195.123 276.000,169.200 276.000 C 142.343 276.000,132.000 275.752,132.000 275.107 C 132.000 274.607,131.295 274.398,130.401 274.632 C 129.521 274.862,128.576 274.685,128.301 274.239 C 127.988 273.734,127.542 273.837,127.112 274.515 C 126.564 275.379,126.422 275.387,126.412 274.553 C 126.406 273.977,126.040 273.728,125.600 274.000 C 125.160 274.272,124.800 274.163,124.800 273.757 C 124.800 273.351,123.810 273.057,122.600 273.103 C 120.914 273.168,120.456 272.856,120.640 271.771 C 120.772 270.992,120.141 269.414,119.236 268.264 C 117.885 266.547,117.771 265.953,118.596 264.933 C 119.327 264.030,119.338 263.850,118.634 264.273 C 118.030 264.635,117.206 263.959,116.434 262.466 C 114.899 259.497,114.895 259.133,116.400 259.711 C 117.060 259.964,117.600 259.833,117.600 259.419 C 117.600 257.991,116.584 257.659,114.895 258.537 C 113.963 259.021,113.467 259.131,113.793 258.782 C 114.119 258.433,113.975 257.652,113.472 257.046 C 112.783 256.215,112.818 255.462,113.614 253.974 C 114.850 251.665,114.169 250.532,112.419 251.984 C 111.519 252.731,111.200 252.748,111.200 252.051 C 111.200 251.531,110.913 251.283,110.562 251.500 C 110.211 251.717,109.401 251.564,108.762 251.159 C 107.841 250.577,107.948 250.422,109.280 250.412 C 110.656 250.402,110.946 249.930,110.880 247.800 C 110.820 245.849,110.469 245.254,109.473 245.418 C 108.480 245.582,108.000 244.777,107.562 242.218 C 107.120 239.637,106.843 239.177,106.428 240.342 C 105.918 241.775,105.842 241.784,105.337 240.469 C 105.039 239.692,104.982 238.753,105.210 238.383 C 105.439 238.013,105.260 237.484,104.813 237.208 C 104.366 236.932,104.000 235.806,104.000 234.706 C 104.000 233.606,103.678 232.905,103.284 233.148 C 102.580 233.583,101.224 231.376,101.473 230.200 C 101.543 229.870,101.284 229.600,100.897 229.600 C 100.164 229.600,98.120 225.286,98.389 224.306 C 98.474 223.997,97.986 223.432,97.305 223.051 C 96.624 222.670,96.269 221.830,96.516 221.186 C 96.768 220.529,96.404 219.798,95.688 219.523 C 94.984 219.253,94.646 218.649,94.936 218.180 C 95.254 217.665,94.989 217.510,94.265 217.788 C 93.565 218.056,93.067 217.798,93.067 217.168 C 93.067 216.575,93.435 216.159,93.886 216.244 C 94.336 216.330,94.853 215.719,95.033 214.886 C 95.289 213.704,95.011 213.463,93.765 213.789 C 92.660 214.078,91.930 213.682,91.393 212.503 C 90.385 210.291,90.365 209.145,91.339 209.420 C 91.768 209.541,91.887 209.265,91.604 208.807 C 91.321 208.349,90.793 208.157,90.430 208.381 C 89.574 208.910,88.743 205.576,89.173 203.341 C 89.391 202.206,88.970 201.319,87.953 200.775 C 86.874 200.198,86.400 199.097,86.400 197.172 C 86.400 195.647,86.068 194.400,85.662 194.400 C 83.091 194.400,82.668 183.598,85.132 180.875 C 87.386 178.384,86.470 175.450,84.160 177.760 C 83.413 178.507,83.200 170.329,83.200 140.960 C 83.200 120.192,83.500 103.200,83.867 103.200 C 84.233 103.200,84.773 103.440,85.067 103.733 C 85.608 104.274,94.221 104.154,99.031 103.539 C 101.916 103.169,106.583 100.144,105.921 99.073 C 105.693 98.703,105.898 98.400,106.377 98.400 C 107.552 98.400,107.249 89.036,106.041 88.034 C 105.381 87.486,105.074 88.106,104.951 90.236 M273.321 94.625 C 273.040 98.241,272.802 141.700,272.793 191.200 C 272.783 240.700,272.511 281.560,272.188 282.000 C 270.700 284.025,268.310 285.179,264.517 285.703 C 262.253 286.016,257.880 286.649,254.800 287.110 C 246.670 288.326,237.825 288.241,237.040 286.940 C 236.688 286.356,235.770 285.648,235.000 285.365 C 233.958 284.982,233.572 283.873,233.491 281.025 L 233.381 277.200 232.789 282.000 C 232.464 284.640,231.942 287.410,231.630 288.156 C 230.981 289.707,237.984 294.674,239.858 293.991 C 240.440 293.779,241.520 293.926,242.258 294.317 C 243.735 295.099,259.256 293.924,259.968 292.976 C 260.206 292.659,261.120 292.362,262.000 292.314 C 264.729 292.169,265.961 291.652,267.045 290.200 C 267.620 289.430,268.796 288.800,269.658 288.800 C 270.659 288.800,271.704 287.797,272.549 286.026 L 273.872 283.251 275.851 287.626 C 276.939 290.032,278.189 292.000,278.627 292.000 C 279.065 292.000,279.878 292.621,280.433 293.380 C 283.038 296.943,296.075 295.329,298.172 291.184 C 298.725 290.093,299.182 289.661,299.188 290.225 C 299.195 290.789,299.830 291.487,300.600 291.776 C 301.370 292.064,302.396 292.829,302.880 293.475 C 303.906 294.843,311.346 295.651,315.591 294.854 C 321.299 293.784,325.400 271.459,321.472 262.838 C 319.746 259.051,319.422 260.763,319.324 274.200 C 319.269 281.570,319.179 287.780,319.124 288.000 C 319.068 288.220,319.089 289.210,319.169 290.200 C 319.249 291.190,318.907 292.000,318.410 292.000 C 317.913 292.000,317.744 291.613,318.037 291.141 C 318.330 290.667,317.836 290.738,316.935 291.301 C 316.038 291.862,315.516 292.664,315.775 293.084 C 316.035 293.504,315.832 293.590,315.324 293.276 C 314.816 292.962,313.978 292.967,313.461 293.286 C 312.270 294.022,308.000 294.172,308.000 293.478 C 308.000 292.843,303.470 291.196,303.004 291.662 C 302.822 291.845,301.842 291.109,300.827 290.028 L 298.980 288.063 295.775 290.807 C 294.011 292.317,292.261 293.361,291.884 293.129 C 291.508 292.896,291.200 293.045,291.200 293.460 C 291.200 294.304,287.174 294.173,285.732 293.281 C 285.219 292.965,284.384 292.962,283.876 293.276 C 283.304 293.630,283.170 293.496,283.524 292.924 C 283.876 292.353,283.532 292.000,282.624 292.000 C 281.815 292.000,280.634 291.280,280.000 290.400 C 279.366 289.520,278.386 288.800,277.823 288.800 C 277.261 288.800,276.800 287.990,276.800 287.000 C 276.799 286.010,276.642 273.140,276.450 258.400 C 276.258 243.660,276.041 200.010,275.969 161.400 C 275.896 122.423,275.529 91.200,275.144 91.200 C 274.762 91.200,274.643 90.696,274.880 90.081 C 275.116 89.465,274.977 88.757,274.571 88.506 C 274.158 88.250,273.608 90.940,273.321 94.625 M64.324 186.600 L 64.400 284.000 67.683 287.000 C 74.336 293.081,96.481 297.517,101.089 293.692 C 101.720 293.168,103.057 292.582,104.060 292.389 C 106.061 292.003,107.349 290.488,106.645 289.349 C 106.397 288.949,106.649 288.341,107.204 287.998 C 107.993 287.510,107.928 286.968,106.906 285.509 C 106.188 284.483,105.594 283.994,105.588 284.422 C 105.581 284.850,105.227 284.660,104.800 284.000 C 104.214 283.093,104.022 283.062,104.012 283.872 C 103.969 287.659,95.869 289.013,84.200 287.184 C 81.450 286.753,76.950 286.057,74.200 285.637 C 70.380 285.054,68.775 284.383,67.400 282.793 L 65.600 280.711 65.506 192.955 C 65.454 144.690,65.150 101.600,64.830 97.200 C 64.510 92.800,64.282 133.030,64.324 186.600 M125.200 102.377 C 122.161 103.659,117.600 108.717,117.600 110.805 C 117.600 112.613,117.760 112.714,119.200 111.814 C 120.158 111.216,120.800 109.949,120.800 108.655 C 120.800 107.467,121.160 106.272,121.600 106.000 C 122.040 105.728,122.400 105.913,122.400 106.410 C 122.400 106.929,122.941 106.773,123.670 106.045 C 124.800 104.914,129.940 104.779,170.670 104.813 C 206.486 104.843,216.400 104.637,216.400 103.862 C 216.400 103.317,215.500 102.622,214.400 102.316 C 211.516 101.513,127.109 101.571,125.200 102.377 M216.800 106.248 C 216.800 107.141,217.488 107.993,218.400 108.232 C 219.613 108.549,220.000 109.323,220.000 111.432 C 220.000 113.541,220.387 114.315,221.600 114.632 C 222.813 114.949,223.200 115.723,223.200 117.832 C 223.200 119.941,223.587 120.715,224.800 121.032 C 226.073 121.365,226.400 121.056,226.400 119.525 C 226.400 118.466,225.680 116.880,224.800 116.000 C 223.920 115.120,223.200 113.680,223.200 112.800 C 223.200 111.920,222.513 110.513,221.673 109.673 C 220.833 108.833,220.018 107.487,219.863 106.682 C 219.465 104.612,216.800 104.235,216.800 106.248 M115.400 114.930 C 113.636 115.642,114.187 118.306,116.000 117.832 C 116.886 117.600,117.600 116.741,117.600 115.907 C 117.600 114.380,117.202 114.203,115.400 114.930 M112.200 120.397 C 111.650 121.021,111.200 122.212,111.200 123.042 C 111.200 123.873,110.480 125.204,109.600 126.000 C 108.720 126.796,108.000 128.112,108.000 128.924 C 108.000 129.867,108.578 130.400,109.600 130.400 C 110.903 130.400,111.200 129.867,111.200 127.525 C 111.200 125.320,111.574 124.552,112.805 124.230 C 114.004 123.917,114.366 123.226,114.235 121.505 C 114.040 118.937,113.665 118.733,112.200 120.397 M226.978 122.089 C 225.625 123.442,226.376 127.200,228.000 127.200 C 229.333 127.200,229.600 127.733,229.600 130.400 C 229.600 133.067,229.867 133.600,231.200 133.600 C 232.537 133.600,232.800 134.133,232.800 136.847 C 232.800 138.694,233.128 139.892,233.560 139.625 C 234.479 139.057,236.000 141.693,236.000 143.854 C 236.000 144.741,236.690 145.594,237.600 145.832 C 238.826 146.152,239.200 146.923,239.200 149.125 C 239.200 151.068,239.566 152.000,240.330 152.000 C 241.024 152.000,241.668 153.233,242.000 155.200 C 242.307 157.016,242.991 158.400,243.581 158.400 C 244.154 158.400,244.852 159.625,245.133 161.123 C 245.414 162.620,246.128 164.032,246.721 164.259 C 247.313 164.486,248.040 165.961,248.335 167.536 C 248.659 169.263,249.335 170.400,250.036 170.400 C 251.555 170.400,251.566 166.900,250.051 165.643 C 249.420 165.118,248.677 163.659,248.400 162.400 C 248.123 161.141,247.403 159.701,246.800 159.200 C 246.197 158.699,245.477 157.259,245.200 156.000 C 244.923 154.741,244.203 153.301,243.600 152.800 C 242.997 152.299,242.266 150.810,241.976 149.491 C 241.686 148.171,240.943 146.898,240.325 146.660 C 239.706 146.423,239.200 145.423,239.200 144.438 C 239.200 143.454,238.480 141.996,237.600 141.200 C 236.720 140.404,236.000 139.136,236.000 138.384 C 236.000 137.631,235.280 136.100,234.400 134.982 C 233.520 133.863,232.800 132.250,232.800 131.398 C 232.800 130.545,232.080 129.196,231.200 128.400 C 230.320 127.604,229.600 126.357,229.600 125.629 C 229.600 123.891,227.717 121.349,226.978 122.089 M132.800 123.806 C 132.800 124.139,134.510 124.304,136.600 124.172 C 143.174 123.757,143.796 123.422,138.200 123.309 C 135.230 123.249,132.800 123.473,132.800 123.806 M197.011 123.774 C 198.227 123.958,200.027 123.953,201.011 123.763 C 201.995 123.573,201.000 123.423,198.800 123.429 C 196.600 123.435,195.795 123.590,197.011 123.774 M147.572 126.713 C 147.763 127.641,148.172 130.920,148.483 134.000 C 148.915 138.285,149.187 139.131,149.644 137.600 L 150.241 135.600 150.320 137.753 C 150.364 138.937,149.974 140.169,149.453 140.491 C 148.802 140.893,148.990 141.265,150.053 141.682 C 151.419 142.217,151.367 142.301,149.600 142.407 C 148.500 142.473,148.028 142.700,148.550 142.913 C 149.194 143.175,148.991 143.809,147.921 144.879 C 147.052 145.748,146.556 146.805,146.818 147.229 C 147.080 147.653,146.733 148.000,146.047 148.000 C 144.924 148.000,144.442 148.933,144.705 150.600 C 144.757 150.930,144.419 151.200,143.953 151.200 C 143.487 151.200,143.328 151.560,143.600 152.000 C 143.872 152.440,143.675 152.800,143.162 152.800 C 142.649 152.800,142.436 153.340,142.689 154.000 C 142.943 154.660,142.763 155.200,142.289 155.200 C 141.816 155.200,141.636 155.740,141.889 156.400 C 142.170 157.131,141.891 157.600,141.175 157.600 C 140.529 157.600,140.000 158.161,140.000 158.847 C 140.000 159.533,139.640 159.872,139.200 159.600 C 138.760 159.328,138.346 159.847,138.280 160.753 C 138.214 161.659,138.124 162.850,138.080 163.400 C 138.036 163.950,137.190 165.226,136.200 166.236 C 135.210 167.246,134.358 168.506,134.308 169.036 C 134.257 169.566,134.132 170.360,134.030 170.800 C 133.927 171.240,133.789 172.036,133.722 172.569 C 133.655 173.102,132.816 174.268,131.858 175.160 C 130.900 176.053,130.339 177.005,130.610 177.277 C 130.882 177.548,130.405 178.520,129.552 179.436 C 128.698 180.352,128.000 181.574,128.000 182.151 C 128.000 182.728,127.698 183.200,127.328 183.200 C 126.317 183.200,124.702 187.194,125.313 188.184 C 125.607 188.659,125.491 188.827,125.055 188.558 C 124.122 187.981,121.362 193.367,122.034 194.455 C 122.287 194.865,121.912 195.200,121.200 195.200 C 120.488 195.200,120.108 195.528,120.355 195.928 C 121.058 197.064,119.956 199.200,118.667 199.200 C 118.028 199.200,117.712 199.534,117.964 199.942 C 118.217 200.351,117.609 200.943,116.615 201.259 C 115.620 201.575,114.354 202.410,113.801 203.116 C 112.920 204.242,112.864 204.203,113.348 202.800 C 113.817 201.441,113.715 201.349,112.676 202.193 C 112.003 202.739,111.225 202.958,110.946 202.680 C 110.668 202.401,110.490 203.489,110.550 205.097 C 110.644 207.591,112.679 211.109,112.864 209.098 C 112.900 208.714,113.350 209.956,113.864 211.859 C 114.379 213.761,115.160 215.201,115.600 215.059 C 116.694 214.705,116.647 212.578,115.523 211.600 C 115.018 211.160,114.405 209.963,114.161 208.941 C 113.699 206.999,113.797 206.870,119.859 201.368 C 121.697 199.700,123.200 197.630,123.200 196.768 C 123.200 195.905,123.532 195.200,123.938 195.200 C 124.344 195.200,125.116 193.850,125.654 192.200 C 126.192 190.550,126.899 189.020,127.226 188.800 C 127.553 188.580,128.393 187.140,129.094 185.600 C 129.795 184.060,130.735 182.260,131.184 181.600 C 131.634 180.940,132.360 179.500,132.799 178.400 C 133.237 177.300,133.957 175.860,134.399 175.200 C 134.840 174.540,135.560 173.100,135.999 172.000 C 136.860 169.840,138.000 167.914,140.200 164.901 C 140.970 163.847,141.600 162.460,141.600 161.818 C 141.600 161.177,142.320 159.737,143.200 158.618 C 144.080 157.500,144.800 155.957,144.800 155.190 C 144.800 154.423,145.401 153.302,146.135 152.698 C 149.914 149.590,152.875 139.207,151.223 134.860 C 150.375 132.631,151.321 128.653,152.315 130.263 C 153.134 131.587,184.097 131.583,185.422 130.258 C 186.145 129.535,186.325 130.979,186.195 136.458 C 186.036 143.162,186.463 145.211,188.767 148.800 C 189.190 149.460,190.671 152.340,192.058 155.200 C 196.177 163.696,198.868 168.062,199.584 167.411 C 199.954 167.075,200.005 167.239,199.697 167.775 C 199.029 168.938,201.583 174.820,203.930 177.522 C 204.849 178.580,205.600 180.066,205.600 180.824 C 205.600 181.583,206.137 182.650,206.794 183.195 C 207.451 183.740,208.365 185.584,208.825 187.293 C 209.285 189.002,209.973 190.400,210.353 190.400 C 210.733 190.400,211.420 191.480,211.880 192.800 C 212.340 194.120,213.056 195.200,213.472 195.200 C 213.887 195.200,214.465 196.149,214.756 197.309 C 215.532 200.402,218.915 204.488,221.631 205.613 C 224.538 206.817,224.995 210.611,222.400 212.000 C 221.401 212.535,220.800 213.675,220.800 215.036 C 220.800 216.349,220.164 217.612,219.200 218.214 C 218.230 218.820,217.600 220.080,217.600 221.414 C 217.600 222.749,216.970 224.008,216.000 224.614 C 215.030 225.220,214.400 226.480,214.400 227.814 C 214.400 229.149,213.770 230.408,212.800 231.014 C 211.910 231.570,211.200 232.880,211.200 233.966 C 211.200 235.893,211.161 235.883,208.200 233.163 L 205.200 230.408 168.724 230.404 C 133.261 230.400,132.208 230.444,130.800 232.000 C 130.004 232.880,128.910 233.600,128.369 233.600 C 127.378 233.600,126.431 236.017,126.411 238.600 C 126.392 241.012,127.774 240.131,129.063 236.910 C 130.740 232.717,130.615 232.729,171.076 232.833 C 210.439 232.933,207.978 232.441,208.063 240.228 C 208.098 243.403,208.308 245.550,208.530 245.000 C 208.752 244.450,209.443 244.000,210.067 244.000 C 210.743 244.000,211.200 243.191,211.200 241.992 C 211.200 240.888,211.920 239.368,212.800 238.614 C 213.685 237.857,214.400 236.254,214.400 235.029 C 214.400 233.680,215.026 232.423,216.000 231.814 C 216.964 231.212,217.600 229.949,217.600 228.636 C 217.600 227.275,218.201 226.135,219.200 225.600 C 220.080 225.129,220.800 224.066,220.800 223.237 C 220.800 220.879,221.668 219.200,222.886 219.200 C 223.531 219.200,224.000 218.386,224.000 217.265 C 224.000 214.691,224.806 212.710,225.643 213.227 C 226.015 213.457,226.553 212.398,226.839 210.875 C 227.125 209.351,228.043 207.485,228.879 206.728 C 230.842 204.952,230.874 202.400,228.933 202.400 C 228.127 202.400,227.197 202.670,226.867 203.000 C 225.893 203.974,222.400 203.757,222.400 202.723 C 222.400 201.575,220.165 200.604,219.074 201.278 C 218.645 201.543,218.360 201.274,218.441 200.680 C 218.760 198.357,218.322 197.112,216.399 194.876 C 215.300 193.597,214.400 192.221,214.400 191.818 C 214.400 190.840,212.294 188.772,211.801 189.266 C 211.587 189.480,211.575 188.800,211.775 187.754 C 211.985 186.657,211.601 185.316,210.869 184.583 C 210.171 183.885,209.600 182.907,209.600 182.410 C 209.600 181.913,209.265 181.713,208.855 181.966 C 208.446 182.219,207.884 182.060,207.608 181.613 C 207.332 181.166,207.531 180.800,208.051 180.800 C 208.751 180.800,208.765 180.522,208.105 179.726 C 207.615 179.136,207.451 178.416,207.740 178.126 C 208.030 177.837,207.871 177.600,207.387 177.600 C 206.904 177.600,206.279 176.880,206.000 176.000 C 205.721 175.120,204.886 174.394,204.146 174.388 C 203.063 174.378,203.017 174.238,203.910 173.672 C 204.819 173.097,204.721 172.649,203.369 171.197 C 202.461 170.222,201.896 168.960,202.113 168.393 C 202.331 167.826,202.119 167.121,201.641 166.826 C 201.164 166.531,200.981 165.954,201.234 165.545 C 201.487 165.135,201.352 164.800,200.934 164.800 C 200.516 164.800,199.948 163.900,199.671 162.800 C 199.395 161.700,198.816 160.800,198.385 160.800 C 197.953 160.800,197.600 160.200,197.600 159.467 C 197.600 158.733,197.382 158.352,197.115 158.619 C 196.065 159.669,194.524 157.245,195.480 156.046 C 196.213 155.128,196.169 155.032,195.264 155.578 C 194.412 156.091,194.256 155.930,194.639 154.931 C 194.920 154.199,194.859 153.600,194.503 153.600 C 193.479 153.600,191.995 149.743,192.507 148.409 C 192.814 147.610,192.490 147.200,191.552 147.200 C 190.772 147.200,190.361 146.973,190.639 146.695 C 191.489 145.844,189.630 143.201,188.172 143.188 C 187.097 143.178,187.035 143.027,187.885 142.488 C 188.482 142.109,188.642 141.597,188.240 141.349 C 187.328 140.785,187.916 135.200,188.888 135.200 C 189.279 135.200,189.600 133.220,189.600 130.800 C 189.600 126.331,189.114 125.605,187.321 127.400 C 185.877 128.845,158.669 129.295,152.800 127.971 C 149.476 127.222,148.786 126.842,149.978 126.417 C 151.378 125.918,151.312 125.808,149.391 125.441 C 147.522 125.084,147.274 125.258,147.572 126.713 M204.800 126.433 C 204.800 126.892,205.520 128.040,206.400 128.984 C 207.280 129.929,208.000 131.714,208.000 132.951 C 208.000 134.337,208.426 135.200,209.111 135.200 C 209.750 135.200,210.448 136.406,210.755 138.042 C 211.048 139.605,211.808 141.084,212.444 141.328 C 213.080 141.572,213.600 142.404,213.600 143.178 C 213.600 143.951,214.320 145.500,215.200 146.618 C 216.080 147.737,216.800 149.646,216.800 150.860 C 216.800 152.073,217.037 152.830,217.326 152.540 C 218.316 151.551,220.000 153.792,220.000 156.098 C 220.000 157.532,220.420 158.400,221.114 158.400 C 222.404 158.400,223.200 160.104,223.200 162.865 C 223.200 163.986,223.669 164.800,224.314 164.800 C 225.504 164.800,226.400 166.470,226.400 168.688 C 226.400 169.434,227.120 170.661,228.000 171.414 C 228.880 172.168,229.600 173.688,229.600 174.792 C 229.600 175.975,230.058 176.800,230.714 176.800 C 232.004 176.800,232.800 178.504,232.800 181.265 C 232.800 182.441,233.265 183.200,233.985 183.200 C 235.493 183.200,236.316 186.436,235.776 190.243 L 235.356 193.200 236.916 189.781 C 238.325 186.695,238.356 186.242,237.238 185.124 C 236.557 184.443,236.000 183.236,236.000 182.441 C 236.000 181.646,235.495 180.577,234.878 180.065 C 234.262 179.553,233.535 178.249,233.263 177.167 C 232.992 176.085,232.395 175.200,231.938 175.200 C 231.480 175.200,231.328 174.840,231.600 174.400 C 231.872 173.960,231.753 173.600,231.336 173.600 C 230.919 173.600,230.338 172.321,230.045 170.758 C 229.752 169.195,229.001 167.720,228.378 167.481 C 227.754 167.241,227.008 165.792,226.721 164.259 C 226.433 162.726,225.703 161.282,225.099 161.051 C 224.495 160.819,224.000 159.600,224.000 158.343 C 224.000 156.875,223.427 155.750,222.400 155.200 C 221.359 154.643,220.800 153.525,220.800 152.000 C 220.800 150.475,220.241 149.357,219.200 148.800 C 218.320 148.329,217.600 147.136,217.600 146.150 C 217.600 145.163,216.880 143.739,216.000 142.986 C 215.120 142.232,214.400 140.715,214.400 139.615 C 214.400 138.480,213.707 137.181,212.800 136.614 C 211.888 136.045,211.200 134.749,211.200 133.600 C 211.200 132.451,210.512 131.155,209.600 130.586 C 208.720 130.036,208.000 128.908,208.000 128.079 C 208.000 127.250,207.431 126.353,206.735 126.086 C 205.019 125.427,204.800 125.466,204.800 126.433 M105.760 132.960 C 105.232 133.488,104.800 134.692,104.800 135.636 C 104.800 136.580,104.080 138.004,103.200 138.800 C 101.052 140.744,101.089 143.139,103.265 142.975 C 104.595 142.875,104.867 142.418,104.615 140.702 C 104.388 139.156,104.818 138.166,106.150 137.165 C 107.168 136.401,108.000 134.927,108.000 133.888 C 108.000 131.808,107.230 131.490,105.760 132.960 M100.196 145.000 C 99.756 145.550,99.122 146.900,98.788 148.000 C 98.453 149.100,97.509 150.859,96.690 151.908 C 95.870 152.957,95.200 154.443,95.200 155.210 C 95.200 155.977,94.663 157.050,94.006 157.595 C 93.349 158.140,92.435 159.984,91.975 161.693 C 91.515 163.402,90.792 164.800,90.369 164.800 C 89.946 164.800,89.600 165.509,89.600 166.375 C 89.600 168.998,91.899 167.352,92.467 164.323 C 92.748 162.825,93.446 161.600,94.019 161.600 C 94.609 161.600,95.293 160.216,95.600 158.400 C 95.907 156.584,96.591 155.200,97.181 155.200 C 97.754 155.200,98.462 153.921,98.755 152.358 C 99.048 150.795,99.811 149.315,100.450 149.070 C 101.160 148.798,101.544 147.725,101.436 146.312 C 101.233 143.654,101.255 143.677,100.196 145.000 M120.186 149.600 C 120.186 151.140,120.350 151.770,120.551 151.000 C 120.753 150.230,120.753 148.970,120.551 148.200 C 120.350 147.430,120.186 148.060,120.186 149.600 M116.986 156.000 C 116.986 157.540,117.150 158.170,117.351 157.400 C 117.553 156.630,117.553 155.370,117.351 154.600 C 117.150 153.830,116.986 154.460,116.986 156.000 M86.400 172.229 C 86.400 173.524,86.867 174.057,88.000 174.057 C 89.133 174.057,89.600 173.524,89.600 172.229 C 89.600 170.933,89.133 170.400,88.000 170.400 C 86.867 170.400,86.400 170.933,86.400 172.229 M116.800 219.671 C 116.800 221.088,117.239 221.600,118.456 221.600 C 119.698 221.600,120.047 221.168,119.856 219.872 C 119.485 217.369,116.800 217.192,116.800 219.671 M120.153 225.791 C 120.289 226.706,121.023 227.545,121.784 227.654 C 122.778 227.798,123.096 227.386,122.914 226.193 C 122.775 225.279,122.041 224.441,121.283 224.330 C 120.296 224.185,119.975 224.599,120.153 225.791 M123.200 231.848 C 123.200 232.756,123.892 233.594,124.847 233.844 C 126.179 234.193,126.448 233.944,126.247 232.546 C 125.925 230.294,123.200 229.670,123.200 231.848 M277.076 246.835 C 276.356 248.711,277.133 248.931,278.237 247.164 C 278.855 246.174,278.908 245.600,278.382 245.600 C 277.924 245.600,277.337 246.156,277.076 246.835 M306.968 247.200 C 307.198 248.080,307.940 248.800,308.617 248.800 C 309.652 248.800,309.618 248.546,308.400 247.200 C 307.604 246.320,306.862 245.600,306.751 245.600 C 306.640 245.600,306.738 246.320,306.968 247.200 M205.200 249.645 C 203.302 251.506,203.093 251.998,204.200 251.999 C 204.970 252.000,205.600 251.460,205.600 250.800 C 205.600 250.140,206.140 249.600,206.800 249.600 C 207.460 249.600,208.000 249.060,208.000 248.400 C 208.000 246.875,208.046 246.854,205.200 249.645 M132.800 250.800 C 132.800 251.460,133.384 252.000,134.098 252.000 C 135.161 252.000,135.216 251.783,134.400 250.800 C 133.852 250.140,133.268 249.600,133.102 249.600 C 132.936 249.600,132.800 250.140,132.800 250.800 M313.663 251.025 C 313.628 251.589,314.140 252.257,314.800 252.511 C 315.460 252.764,316.000 253.314,316.000 253.733 C 316.000 254.152,315.550 254.231,315.000 253.910 C 314.450 253.588,314.630 254.045,315.400 254.925 C 316.170 255.806,316.800 257.149,316.800 257.910 C 316.800 258.672,317.160 259.072,317.600 258.800 C 318.040 258.528,318.400 258.687,318.400 259.153 C 318.400 259.619,318.760 260.000,319.200 260.000 C 320.608 260.000,320.056 256.832,318.400 255.414 C 317.520 254.661,316.800 253.584,316.800 253.022 C 316.800 252.460,316.290 252.000,315.667 252.000 C 315.043 252.000,314.352 251.550,314.130 251.000 C 313.814 250.217,313.713 250.222,313.663 251.025 M89.600 268.724 C 89.600 269.376,95.927 268.991,96.733 268.290 C 96.917 268.130,95.387 268.000,93.333 268.000 C 91.280 268.000,89.600 268.326,89.600 268.724 M100.000 268.753 C 100.000 269.167,100.360 269.728,100.800 270.000 C 101.240 270.272,101.600 270.057,101.600 269.523 C 101.600 268.921,102.207 269.101,103.200 270.000 C 104.452 271.133,104.800 272.464,104.800 276.124 C 104.800 281.731,105.977 282.302,106.697 277.044 C 107.173 273.577,107.015 273.086,104.649 270.644 C 102.170 268.087,100.000 267.204,100.000 268.753 M241.200 268.570 C 240.320 268.782,239.286 269.252,238.903 269.614 C 238.520 269.977,239.768 269.922,241.677 269.494 C 243.586 269.065,245.969 268.920,246.974 269.172 C 247.981 269.425,248.800 269.265,248.800 268.815 C 248.800 267.998,244.198 267.849,241.200 268.570 " stroke="none" fill="#242424" fill-rule="evenodd"></path><path id="path2" d="M94.016 82.375 C 93.752 82.801,91.661 83.108,89.368 83.057 C 73.973 82.714,67.855 83.180,67.451 84.726 C 67.232 85.565,66.379 86.428,65.556 86.643 C 64.421 86.940,64.185 87.489,64.576 88.917 C 64.860 89.953,65.229 133.556,65.396 185.813 L 65.700 280.827 67.450 282.851 C 68.786 284.396,70.430 285.061,74.400 285.665 C 77.260 286.101,81.760 286.797,84.400 287.212 C 92.906 288.551,100.121 288.179,102.400 286.284 C 105.279 283.890,105.896 272.440,103.274 270.067 C 102.014 268.927,101.594 268.830,101.575 269.676 C 101.556 270.491,101.247 270.401,100.450 269.350 C 99.358 267.910,98.051 267.897,91.400 269.261 C 90.078 269.532,89.593 269.255,89.575 268.215 C 89.551 266.891,89.477 266.895,88.428 268.280 C 87.811 269.094,86.923 269.523,86.453 269.233 C 85.984 268.943,85.600 269.087,85.600 269.553 C 85.600 270.019,84.880 270.400,84.000 270.400 C 82.423 270.400,82.400 269.857,82.371 231.800 C 82.355 210.570,82.265 171.870,82.171 145.800 L 82.000 98.400 85.200 98.276 C 86.960 98.208,91.749 98.069,95.842 97.968 C 104.502 97.753,104.099 97.983,104.496 93.040 C 104.764 89.712,104.693 89.482,103.964 91.317 C 102.955 93.855,101.359 94.356,94.000 94.447 C 87.825 94.524,80.297 95.436,79.533 96.201 C 79.004 96.729,79.041 273.708,79.570 274.237 C 79.745 274.411,84.863 274.737,90.944 274.960 C 102.782 275.395,104.000 275.842,104.000 279.753 C 104.000 286.240,77.075 286.747,70.708 280.381 L 68.800 278.473 68.829 185.036 L 68.858 91.600 70.706 89.340 C 72.069 87.675,73.482 86.972,76.078 86.666 C 78.015 86.439,80.734 85.745,82.121 85.126 C 83.616 84.458,87.278 84.000,91.121 84.000 C 95.148 84.000,97.600 83.679,97.600 83.153 C 97.600 82.687,97.240 82.528,96.800 82.800 C 96.360 83.072,96.000 82.913,96.000 82.447 C 96.000 81.386,94.657 81.338,94.016 82.375 M241.600 82.800 C 240.727 83.852,241.533 84.000,248.149 84.000 C 253.545 84.000,256.137 84.335,257.247 85.175 C 258.101 85.821,260.178 86.361,261.862 86.375 C 264.161 86.394,265.508 86.985,267.271 88.748 L 269.619 91.096 269.410 185.613 C 269.203 278.587,269.174 280.148,267.625 281.281 C 264.996 283.203,260.919 283.906,249.059 284.482 L 237.718 285.032 236.107 282.384 C 232.959 277.207,235.204 275.209,244.221 275.159 C 250.561 275.124,258.431 274.549,258.965 274.081 C 259.584 273.539,259.212 96.492,258.590 95.870 C 258.173 95.453,253.346 94.901,247.862 94.642 C 236.508 94.105,234.587 93.239,233.503 88.165 C 233.082 86.196,233.016 87.081,233.305 90.800 C 233.854 97.870,233.701 97.746,242.131 97.965 C 246.019 98.066,251.272 98.206,253.804 98.275 L 258.407 98.400 258.204 184.200 L 258.000 270.000 255.437 270.248 C 253.543 270.431,252.605 270.066,251.844 268.848 C 250.642 266.922,248.800 266.660,248.800 268.415 C 248.800 269.281,248.275 269.499,246.974 269.172 C 245.969 268.920,243.586 269.065,241.677 269.494 C 238.346 270.242,237.909 269.380,241.200 268.553 C 242.080 268.332,241.267 268.207,239.393 268.276 C 236.843 268.369,236.092 268.680,236.411 269.513 C 236.775 270.464,236.637 270.464,235.465 269.513 C 234.541 268.764,234.290 268.729,234.697 269.406 C 235.046 269.987,234.843 270.587,234.216 270.828 C 233.545 271.085,233.167 272.380,233.226 274.222 C 233.556 284.560,233.603 284.851,235.000 285.365 C 235.770 285.648,236.688 286.356,237.040 286.940 C 237.825 288.241,246.670 288.326,254.800 287.110 C 257.880 286.649,262.200 286.013,264.400 285.696 C 269.088 285.020,271.914 283.437,272.425 281.200 C 273.602 276.042,273.151 85.817,271.959 84.561 C 270.929 83.477,268.713 83.237,258.962 83.156 C 252.496 83.102,247.004 82.730,246.756 82.329 C 246.043 81.175,242.695 81.481,241.600 82.800 M123.669 106.045 C 122.941 106.774,122.400 106.929,122.400 106.410 C 122.400 105.913,122.040 105.728,121.600 106.000 C 121.160 106.272,120.800 107.467,120.800 108.655 C 120.800 109.949,120.158 111.216,119.200 111.814 C 118.203 112.437,117.600 113.680,117.600 115.113 C 117.600 116.741,117.132 117.536,116.000 117.832 C 114.787 118.149,114.400 118.923,114.400 121.032 C 114.400 123.141,114.013 123.915,112.800 124.232 C 111.574 124.552,111.200 125.323,111.200 127.525 C 111.200 129.867,110.903 130.400,109.600 130.400 C 108.325 130.400,108.000 130.933,108.000 133.022 C 108.000 134.654,107.396 136.162,106.400 137.014 C 105.458 137.821,104.800 139.374,104.800 140.792 C 104.800 142.116,104.530 143.157,104.200 143.105 C 102.214 142.792,101.600 143.455,101.600 145.914 C 101.600 147.543,101.138 148.806,100.444 149.072 C 99.808 149.316,99.048 150.795,98.755 152.358 C 98.462 153.921,97.754 155.200,97.181 155.200 C 96.591 155.200,95.907 156.584,95.600 158.400 C 95.293 160.216,94.609 161.600,94.019 161.600 C 93.446 161.600,92.748 162.825,92.467 164.323 C 92.186 165.820,91.426 167.249,90.778 167.498 C 90.018 167.789,89.600 169.062,89.600 171.086 C 89.600 173.582,89.314 174.200,88.200 174.111 C 87.156 174.028,86.733 174.712,86.537 176.800 C 86.393 178.340,85.733 180.202,85.070 180.938 C 82.658 183.615,83.132 194.400,85.662 194.400 C 86.068 194.400,86.400 195.647,86.400 197.172 C 86.400 199.097,86.874 200.198,87.953 200.775 C 88.970 201.319,89.391 202.206,89.173 203.341 C 88.743 205.576,89.574 208.910,90.430 208.381 C 90.793 208.157,91.321 208.349,91.604 208.807 C 91.887 209.265,91.822 209.541,91.459 209.420 C 90.307 209.036,90.223 209.937,91.210 212.103 C 91.911 213.641,92.597 214.094,93.765 213.789 C 95.011 213.463,95.289 213.704,95.033 214.886 C 94.853 215.719,94.336 216.330,93.886 216.244 C 93.435 216.159,93.067 216.575,93.067 217.168 C 93.067 217.798,93.565 218.056,94.265 217.788 C 94.989 217.510,95.254 217.665,94.936 218.180 C 94.646 218.649,94.984 219.253,95.688 219.523 C 96.404 219.798,96.768 220.529,96.516 221.186 C 96.269 221.830,96.624 222.670,97.305 223.051 C 97.986 223.432,98.474 223.997,98.389 224.306 C 98.120 225.286,100.164 229.600,100.897 229.600 C 101.284 229.600,101.543 229.870,101.473 230.200 C 101.224 231.376,102.580 233.583,103.284 233.148 C 103.678 232.905,104.000 233.606,104.000 234.706 C 104.000 235.806,104.366 236.932,104.813 237.208 C 105.260 237.484,105.439 238.013,105.210 238.383 C 104.982 238.753,105.039 239.692,105.337 240.469 C 105.842 241.784,105.918 241.775,106.428 240.342 C 106.843 239.177,107.120 239.637,107.562 242.218 C 108.000 244.777,108.480 245.582,109.473 245.418 C 110.469 245.254,110.820 245.849,110.880 247.800 C 110.946 249.930,110.656 250.402,109.280 250.412 C 107.948 250.422,107.841 250.577,108.762 251.159 C 109.401 251.564,110.211 251.717,110.562 251.500 C 110.913 251.283,111.200 251.531,111.200 252.051 C 111.200 252.748,111.519 252.731,112.419 251.984 C 114.169 250.532,114.850 251.665,113.614 253.974 C 112.818 255.462,112.783 256.215,113.472 257.046 C 113.975 257.652,114.119 258.433,113.793 258.782 C 113.467 259.131,113.963 259.021,114.895 258.537 C 116.584 257.659,117.600 257.991,117.600 259.419 C 117.600 259.833,117.060 259.964,116.400 259.711 C 114.895 259.133,114.899 259.497,116.434 262.466 C 117.206 263.959,118.030 264.635,118.634 264.273 C 119.338 263.850,119.327 264.030,118.596 264.933 C 117.772 265.952,117.879 266.539,119.196 268.213 C 120.797 270.249,121.395 272.462,120.133 271.682 C 119.767 271.456,119.467 271.735,119.467 272.304 C 119.467 272.977,120.395 273.275,122.133 273.158 C 123.600 273.060,124.800 273.320,124.800 273.737 C 124.800 274.154,125.160 274.272,125.600 274.000 C 126.040 273.728,126.406 273.977,126.412 274.553 C 126.422 275.387,126.564 275.379,127.112 274.515 C 127.542 273.837,127.988 273.734,128.301 274.239 C 128.576 274.685,129.521 274.862,130.401 274.632 C 131.295 274.398,132.000 274.607,132.000 275.107 C 132.000 275.752,142.343 276.000,169.200 276.000 C 195.123 276.000,206.400 275.740,206.400 275.143 C 206.400 274.671,207.210 274.390,208.200 274.518 C 209.190 274.646,210.450 274.470,211.000 274.128 C 211.569 273.774,212.000 273.881,212.000 274.377 C 212.000 274.856,213.076 274.453,214.390 273.481 C 215.705 272.509,217.013 271.946,217.296 272.230 C 218.071 273.004,221.144 268.749,221.180 266.852 C 221.197 265.943,221.538 264.689,221.937 264.064 C 222.487 263.203,222.341 263.052,221.331 263.439 C 220.367 263.809,220.000 263.515,220.000 262.375 C 220.000 261.405,220.541 260.800,221.408 260.800 C 223.261 260.800,224.874 258.206,223.939 256.728 C 222.788 254.910,223.086 254.184,224.800 254.632 C 226.491 255.074,226.709 254.463,226.415 250.110 C 226.324 248.759,226.588 248.022,227.058 248.312 C 229.015 249.521,230.235 247.908,229.803 244.685 C 229.424 241.862,229.554 241.509,230.886 241.739 C 232.116 241.951,232.447 241.436,232.648 239.000 C 232.871 236.312,233.499 235.605,235.400 235.905 C 236.069 236.011,236.233 234.994,236.038 231.932 C 235.921 230.077,236.150 229.899,238.259 230.209 C 240.922 230.600,242.200 229.287,240.800 227.600 C 240.284 226.979,240.129 226.039,240.455 225.511 C 240.830 224.905,240.708 224.762,240.124 225.124 C 239.569 225.466,239.200 225.171,239.200 224.384 C 239.200 223.353,239.697 223.182,241.524 223.583 C 242.846 223.874,244.071 223.733,244.365 223.256 C 244.686 222.738,244.374 222.614,243.548 222.930 C 242.411 223.367,242.346 223.196,243.109 221.770 C 243.698 220.669,243.730 219.927,243.202 219.601 C 242.137 218.943,242.171 216.800,243.247 216.800 C 243.713 216.800,243.904 217.108,243.671 217.484 C 243.439 217.861,244.063 218.013,245.059 217.823 C 246.403 217.566,246.916 216.860,247.052 215.081 C 247.163 213.616,246.917 212.881,246.417 213.189 C 245.968 213.467,245.600 213.121,245.600 212.419 C 245.600 211.447,245.937 211.324,247.014 211.901 C 248.129 212.497,248.622 212.248,249.339 210.729 C 249.840 209.668,249.923 208.800,249.525 208.800 C 248.302 208.800,248.723 205.001,250.000 204.511 C 250.712 204.237,251.200 203.035,251.200 201.551 C 251.200 200.177,251.920 198.137,252.800 197.018 C 253.680 195.900,254.400 194.107,254.400 193.035 C 254.400 191.963,254.940 190.546,255.600 189.886 C 257.134 188.352,257.134 186.048,255.600 184.514 C 254.940 183.854,254.400 182.212,254.400 180.864 C 254.400 179.280,253.834 178.060,252.800 177.414 C 251.661 176.703,251.200 175.549,251.200 173.408 C 251.200 171.309,250.848 170.400,250.036 170.400 C 249.335 170.400,248.659 169.263,248.335 167.536 C 248.040 165.961,247.313 164.486,246.721 164.259 C 246.128 164.032,245.414 162.620,245.133 161.123 C 244.852 159.625,244.154 158.400,243.581 158.400 C 242.991 158.400,242.307 157.016,242.000 155.200 C 241.668 153.233,241.024 152.000,240.330 152.000 C 239.566 152.000,239.200 151.068,239.200 149.125 C 239.200 146.923,238.826 146.152,237.600 145.832 C 236.690 145.594,236.000 144.741,236.000 143.854 C 236.000 141.693,234.479 139.057,233.560 139.625 C 233.128 139.892,232.800 138.694,232.800 136.847 C 232.800 134.133,232.537 133.600,231.200 133.600 C 229.867 133.600,229.600 133.067,229.600 130.400 C 229.600 127.733,229.333 127.200,228.000 127.200 C 226.697 127.200,226.400 126.667,226.400 124.325 C 226.400 122.123,226.026 121.352,224.800 121.032 C 223.587 120.715,223.200 119.941,223.200 117.832 C 223.200 115.723,222.813 114.949,221.600 114.632 C 220.387 114.315,220.000 113.541,220.000 111.432 C 220.000 109.323,219.613 108.549,218.400 108.232 C 217.520 108.002,216.800 107.147,216.800 106.332 C 216.800 104.204,125.790 103.924,123.669 106.045 M214.267 110.200 C 215.171 110.970,217.592 114.840,219.647 118.800 C 221.702 122.760,223.656 126.360,223.988 126.800 C 224.320 127.240,225.026 128.950,225.558 130.600 C 226.089 132.250,226.817 133.600,227.175 133.600 C 227.533 133.600,228.075 134.588,228.378 135.796 C 228.681 137.003,229.269 138.401,229.684 138.901 C 230.100 139.402,232.970 144.984,236.063 151.306 C 239.156 157.628,242.011 163.340,242.408 164.000 C 250.262 177.067,253.827 187.748,251.712 191.877 C 250.559 194.126,246.998 201.253,243.054 209.200 C 241.744 211.840,240.340 214.540,239.934 215.200 C 239.528 215.860,238.837 217.300,238.399 218.400 C 237.960 219.500,237.246 220.940,236.812 221.600 C 236.379 222.260,235.516 223.880,234.896 225.200 C 231.472 232.487,230.275 234.918,229.575 236.000 C 229.148 236.660,228.440 238.100,228.001 239.200 C 227.563 240.300,226.866 241.740,226.453 242.400 C 226.039 243.060,225.200 244.680,224.587 246.000 C 221.230 253.226,215.699 262.981,214.267 264.200 C 212.745 265.496,209.395 265.600,169.187 265.600 L 125.751 265.600 123.308 261.912 C 121.964 259.883,119.570 255.473,117.987 252.112 C 116.404 248.750,114.790 245.460,114.400 244.800 C 110.274 237.820,86.394 188.712,86.396 187.211 C 86.400 185.493,89.070 178.940,91.291 175.200 C 91.683 174.540,92.363 173.100,92.801 172.000 C 93.240 170.900,93.947 169.460,94.372 168.800 C 94.797 168.140,96.272 165.260,97.650 162.400 C 99.028 159.540,100.481 156.660,100.879 156.000 C 101.278 155.340,101.963 153.900,102.401 152.800 C 102.840 151.700,103.538 150.260,103.952 149.600 C 104.367 148.940,108.683 140.480,113.543 130.800 C 118.403 121.120,123.299 112.210,124.422 111.000 L 126.465 108.800 169.544 108.800 C 209.412 108.800,212.745 108.904,214.267 110.200 M130.609 121.400 C 129.784 122.610,123.074 135.660,115.699 150.400 C 108.324 165.140,101.983 177.740,101.609 178.400 C 96.785 186.895,96.786 186.792,101.539 196.000 C 107.250 207.065,109.397 211.348,110.357 213.600 C 110.826 214.700,112.451 217.760,113.967 220.400 C 115.484 223.040,116.741 225.800,116.762 226.533 C 116.783 227.267,117.092 227.987,117.450 228.133 C 118.028 228.371,119.847 231.969,127.540 248.095 C 131.681 256.775,127.566 256.000,169.543 256.000 C 203.303 256.000,206.356 255.889,207.901 254.600 C 210.145 252.729,241.600 189.824,241.600 187.208 C 241.600 185.542,215.793 132.772,213.622 130.000 C 213.278 129.560,212.745 128.381,212.438 127.380 C 212.130 126.378,210.942 124.128,209.797 122.380 L 207.716 119.200 169.912 119.200 L 132.109 119.200 130.609 121.400 M142.000 123.675 C 138.200 124.286,132.800 124.363,132.800 123.806 C 132.800 123.473,135.230 123.249,138.200 123.309 C 141.170 123.369,142.880 123.534,142.000 123.675 M201.011 123.763 C 200.027 123.953,198.227 123.958,197.011 123.774 C 195.795 123.590,196.600 123.435,198.800 123.429 C 201.000 123.423,201.995 123.573,201.011 123.763 M149.978 126.417 C 148.786 126.842,149.476 127.222,152.800 127.971 C 158.669 129.295,185.877 128.845,187.321 127.400 C 189.114 125.605,189.600 126.331,189.600 130.800 C 189.600 133.220,189.279 135.200,188.888 135.200 C 187.916 135.200,187.328 140.785,188.240 141.349 C 188.642 141.597,188.482 142.109,187.885 142.488 C 187.035 143.027,187.097 143.178,188.172 143.188 C 189.630 143.201,191.489 145.844,190.639 146.695 C 190.361 146.973,190.772 147.200,191.552 147.200 C 192.490 147.200,192.814 147.610,192.507 148.409 C 191.995 149.743,193.479 153.600,194.503 153.600 C 194.859 153.600,194.920 154.199,194.639 154.931 C 194.256 155.930,194.412 156.091,195.264 155.578 C 196.169 155.032,196.213 155.128,195.480 156.046 C 194.524 157.245,196.065 159.669,197.115 158.619 C 197.382 158.352,197.600 158.733,197.600 159.467 C 197.600 160.200,197.953 160.800,198.385 160.800 C 198.816 160.800,199.395 161.700,199.671 162.800 C 199.948 163.900,200.516 164.800,200.934 164.800 C 201.352 164.800,201.487 165.135,201.234 165.545 C 200.981 165.954,201.164 166.531,201.641 166.826 C 202.119 167.121,202.331 167.826,202.113 168.393 C 201.896 168.960,202.461 170.222,203.369 171.197 C 204.721 172.649,204.819 173.097,203.910 173.672 C 203.017 174.238,203.063 174.378,204.146 174.388 C 204.886 174.394,205.721 175.120,206.000 176.000 C 206.279 176.880,206.904 177.600,207.387 177.600 C 207.871 177.600,208.030 177.837,207.740 178.126 C 207.451 178.416,207.615 179.136,208.105 179.726 C 208.765 180.522,208.751 180.800,208.051 180.800 C 207.531 180.800,207.332 181.166,207.608 181.613 C 207.884 182.060,208.446 182.219,208.855 181.966 C 209.265 181.713,209.600 181.913,209.600 182.410 C 209.600 182.907,210.171 183.885,210.869 184.583 C 211.601 185.316,211.985 186.657,211.775 187.754 C 211.575 188.800,211.587 189.480,211.801 189.266 C 212.294 188.772,214.400 190.840,214.400 191.818 C 214.400 192.221,215.300 193.597,216.399 194.876 C 218.322 197.112,218.760 198.357,218.441 200.680 C 218.360 201.274,218.645 201.543,219.074 201.278 C 220.165 200.604,222.400 201.575,222.400 202.723 C 222.400 203.757,225.893 203.974,226.867 203.000 C 227.197 202.670,228.127 202.400,228.933 202.400 C 230.874 202.400,230.842 204.952,228.879 206.728 C 228.043 207.485,227.125 209.351,226.839 210.875 C 226.553 212.398,226.015 213.457,225.643 213.227 C 224.806 212.710,224.000 214.691,224.000 217.265 C 224.000 218.386,223.531 219.200,222.886 219.200 C 221.668 219.200,220.800 220.879,220.800 223.237 C 220.800 224.066,220.080 225.129,219.200 225.600 C 218.201 226.135,217.600 227.275,217.600 228.636 C 217.600 229.949,216.964 231.212,216.000 231.814 C 215.026 232.423,214.400 233.680,214.400 235.029 C 214.400 236.254,213.685 237.857,212.800 238.614 C 211.920 239.368,211.200 240.888,211.200 241.992 C 211.200 243.191,210.743 244.000,210.067 244.000 C 209.443 244.000,208.752 244.450,208.530 245.000 C 208.308 245.550,208.098 243.403,208.063 240.228 C 207.978 232.441,210.439 232.933,171.076 232.833 C 130.615 232.729,130.740 232.717,129.063 236.910 C 127.513 240.782,126.400 240.872,126.400 237.125 C 126.400 234.950,126.021 234.151,124.843 233.843 C 123.726 233.551,123.218 232.614,123.043 230.518 C 122.881 228.566,122.403 227.600,121.600 227.600 C 120.791 227.600,120.319 226.623,120.152 224.600 C 119.957 222.250,119.567 221.600,118.352 221.600 C 117.075 221.600,116.800 221.033,116.800 218.400 C 116.800 216.307,116.463 215.269,115.825 215.400 C 115.274 215.513,114.432 214.033,113.889 212.000 C 113.361 210.020,112.900 208.714,112.864 209.098 C 112.679 211.109,110.644 207.591,110.550 205.097 C 110.490 203.489,110.668 202.401,110.946 202.680 C 111.225 202.958,112.003 202.739,112.676 202.193 C 113.715 201.349,113.817 201.441,113.348 202.800 C 112.864 204.203,112.920 204.242,113.801 203.116 C 114.354 202.410,115.620 201.575,116.615 201.259 C 117.609 200.943,118.217 200.351,117.964 199.942 C 117.712 199.534,118.028 199.200,118.667 199.200 C 119.956 199.200,121.058 197.064,120.355 195.928 C 120.108 195.528,120.488 195.200,121.200 195.200 C 121.912 195.200,122.287 194.865,122.034 194.455 C 121.362 193.367,124.122 187.981,125.055 188.558 C 125.491 188.827,125.607 188.659,125.313 188.184 C 124.702 187.194,126.317 183.200,127.328 183.200 C 127.698 183.200,128.000 182.728,128.000 182.151 C 128.000 181.574,128.698 180.352,129.552 179.436 C 130.405 178.520,130.856 177.523,130.553 177.220 C 130.250 176.917,130.577 176.249,131.278 175.735 C 132.793 174.625,135.759 169.160,134.386 170.008 C 133.100 170.803,134.998 167.227,136.726 165.600 C 137.427 164.940,138.036 163.950,138.080 163.400 C 138.124 162.850,138.214 161.659,138.280 160.753 C 138.346 159.847,138.760 159.328,139.200 159.600 C 139.640 159.872,140.000 159.533,140.000 158.847 C 140.000 158.161,140.529 157.600,141.175 157.600 C 141.891 157.600,142.170 157.131,141.889 156.400 C 141.636 155.740,141.816 155.200,142.289 155.200 C 142.763 155.200,142.943 154.660,142.689 154.000 C 142.436 153.340,142.649 152.800,143.162 152.800 C 143.675 152.800,143.872 152.440,143.600 152.000 C 143.328 151.560,143.487 151.200,143.953 151.200 C 144.419 151.200,144.757 150.930,144.705 150.600 C 144.442 148.933,144.924 148.000,146.047 148.000 C 146.733 148.000,147.080 147.653,146.818 147.229 C 146.556 146.805,147.052 145.748,147.921 144.879 C 148.991 143.809,149.194 143.175,148.550 142.913 C 148.028 142.700,148.500 142.473,149.600 142.407 C 151.367 142.301,151.419 142.217,150.053 141.682 C 148.990 141.265,148.802 140.893,149.453 140.491 C 149.974 140.169,150.364 138.937,150.320 137.753 L 150.241 135.600 149.644 137.600 C 149.187 139.131,148.915 138.285,148.483 134.000 C 148.172 130.920,147.763 127.641,147.572 126.713 C 147.274 125.258,147.522 125.084,149.391 125.441 C 151.312 125.808,151.378 125.918,149.978 126.417 M206.735 126.086 C 207.431 126.353,208.000 127.250,208.000 128.079 C 208.000 128.908,208.720 130.036,209.600 130.586 C 210.512 131.155,211.200 132.451,211.200 133.600 C 211.200 134.749,211.888 136.045,212.800 136.614 C 213.707 137.181,214.400 138.480,214.400 139.615 C 214.400 140.715,215.120 142.232,216.000 142.986 C 216.880 143.739,217.600 145.163,217.600 146.150 C 217.600 147.136,218.320 148.329,219.200 148.800 C 220.241 149.357,220.800 150.475,220.800 152.000 C 220.800 153.525,221.359 154.643,222.400 155.200 C 223.427 155.750,224.000 156.875,224.000 158.343 C 224.000 159.600,224.495 160.819,225.099 161.051 C 225.703 161.282,226.433 162.726,226.721 164.259 C 227.008 165.792,227.754 167.241,228.378 167.481 C 229.001 167.720,229.752 169.195,230.045 170.758 C 230.338 172.321,230.919 173.600,231.336 173.600 C 231.753 173.600,231.872 173.960,231.600 174.400 C 231.328 174.840,231.480 175.200,231.938 175.200 C 232.395 175.200,232.992 176.085,233.263 177.167 C 233.535 178.249,234.262 179.553,234.878 180.065 C 235.495 180.577,236.000 181.646,236.000 182.441 C 236.000 183.236,236.557 184.443,237.238 185.124 C 238.356 186.242,238.325 186.695,236.916 189.781 L 235.356 193.200 235.776 190.243 C 236.316 186.436,235.493 183.200,233.985 183.200 C 233.265 183.200,232.800 182.441,232.800 181.265 C 232.800 178.504,232.004 176.800,230.714 176.800 C 230.058 176.800,229.600 175.975,229.600 174.792 C 229.600 173.688,228.880 172.168,228.000 171.414 C 227.120 170.661,226.400 169.434,226.400 168.688 C 226.400 166.470,225.504 164.800,224.314 164.800 C 223.669 164.800,223.200 163.986,223.200 162.865 C 223.200 160.104,222.404 158.400,221.114 158.400 C 220.420 158.400,220.000 157.532,220.000 156.098 C 220.000 153.792,218.316 151.551,217.326 152.540 C 217.037 152.830,216.800 152.073,216.800 150.860 C 216.800 149.646,216.080 147.737,215.200 146.618 C 214.320 145.500,213.600 143.951,213.600 143.178 C 213.600 142.404,213.080 141.572,212.444 141.328 C 211.808 141.084,211.048 139.605,210.755 138.042 C 210.448 136.406,209.750 135.200,209.111 135.200 C 208.426 135.200,208.000 134.337,208.000 132.951 C 208.000 131.714,207.280 129.929,206.400 128.984 C 204.036 126.447,204.190 125.109,206.735 126.086 M142.453 128.028 C 144.323 129.029,144.585 133.718,142.851 135.157 C 142.220 135.682,141.472 137.162,141.190 138.446 C 140.908 139.731,140.349 140.984,139.949 141.232 C 139.549 141.479,137.933 144.273,136.358 147.441 C 134.784 150.608,131.924 156.080,130.002 159.600 C 128.081 163.120,126.124 166.900,125.654 168.000 C 125.184 169.100,124.384 170.714,123.876 171.587 C 123.368 172.460,121.194 176.600,119.044 180.787 C 114.395 189.841,112.665 192.000,110.062 192.000 C 104.502 192.000,104.399 187.734,109.719 177.739 C 111.984 173.483,115.824 166.220,118.253 161.600 C 120.681 156.980,124.194 150.320,126.060 146.800 C 127.926 143.280,130.736 137.813,132.306 134.651 C 135.870 127.472,138.367 125.842,142.453 128.028 M200.644 128.461 C 201.635 129.155,203.065 130.968,203.822 132.491 C 207.573 140.029,214.071 152.492,214.621 153.200 C 214.962 153.640,217.085 157.600,219.339 162.000 C 224.659 172.383,229.418 181.486,230.843 184.000 C 233.214 188.184,232.113 191.339,227.914 192.393 C 225.193 193.076,223.233 190.749,218.126 180.770 C 215.995 176.606,211.982 168.880,209.208 163.600 C 206.434 158.320,202.432 150.580,200.314 146.400 C 198.196 142.220,195.819 137.941,195.031 136.892 C 192.896 134.046,193.108 128.946,195.400 128.025 C 197.972 126.991,198.623 127.045,200.644 128.461 M120.551 151.000 C 120.350 151.770,120.186 151.140,120.186 149.600 C 120.186 148.060,120.350 147.430,120.551 148.200 C 120.753 148.970,120.753 150.230,120.551 151.000 M117.351 157.400 C 117.150 158.170,116.986 157.540,116.986 156.000 C 116.986 154.460,117.150 153.830,117.351 154.600 C 117.553 155.370,117.553 156.630,117.351 157.400 M202.960 237.435 C 205.061 238.770,205.471 241.901,203.846 244.200 L 202.291 246.400 168.937 246.400 L 135.584 246.400 133.459 244.430 C 131.152 242.290,131.150 239.643,133.455 237.800 C 134.869 236.670,201.208 236.321,202.960 237.435 M278.003 247.483 C 277.067 248.912,276.810 252.847,276.743 266.839 C 276.636 289.246,276.614 288.800,277.823 288.800 C 278.386 288.800,279.366 289.520,280.000 290.400 C 280.634 291.280,281.815 292.000,282.624 292.000 C 283.532 292.000,283.876 292.353,283.524 292.924 C 283.170 293.496,283.304 293.630,283.876 293.276 C 284.384 292.962,285.219 292.965,285.732 293.281 C 287.174 294.173,291.200 294.304,291.200 293.460 C 291.200 293.045,291.508 292.896,291.884 293.129 C 292.261 293.361,294.011 292.317,295.775 290.807 L 298.980 288.063 300.827 290.028 C 301.842 291.109,302.822 291.845,303.004 291.662 C 303.470 291.196,308.000 292.843,308.000 293.478 C 308.000 294.172,312.270 294.022,313.461 293.286 C 313.978 292.967,314.816 292.962,315.324 293.276 C 315.832 293.590,316.035 293.504,315.775 293.084 C 315.516 292.664,316.038 291.862,316.935 291.301 C 317.836 290.738,318.330 290.667,318.037 291.141 C 317.744 291.613,317.913 292.000,318.410 292.000 C 318.907 292.000,319.249 291.190,319.169 290.200 C 319.089 289.210,319.064 288.220,319.114 288.000 C 320.620 281.407,319.093 257.174,317.285 258.981 C 317.018 259.248,316.800 258.805,316.800 257.996 C 316.800 257.188,316.170 255.806,315.400 254.925 C 314.630 254.045,314.450 253.588,315.000 253.910 C 315.550 254.231,316.000 254.152,316.000 253.733 C 316.000 253.314,315.460 252.764,314.800 252.511 C 314.140 252.257,313.600 251.478,313.600 250.778 C 313.600 250.078,313.240 249.728,312.800 250.000 C 312.360 250.272,312.000 250.113,312.000 249.647 C 312.000 249.181,310.962 248.800,309.693 248.800 C 308.089 248.800,307.264 248.331,306.984 247.259 C 306.593 245.767,303.183 245.550,291.600 246.279 C 291.160 246.307,288.185 246.185,284.989 246.010 C 279.669 245.717,279.079 245.841,278.003 247.483 M208.000 248.400 C 208.000 249.060,207.460 249.600,206.800 249.600 C 206.140 249.600,205.600 250.140,205.600 250.800 C 205.600 251.460,204.970 252.000,204.200 251.999 C 203.093 251.998,203.302 251.506,205.200 249.645 C 208.046 246.854,208.000 246.875,208.000 248.400 M134.400 250.800 C 135.216 251.783,135.161 252.000,134.098 252.000 C 133.384 252.000,132.800 251.460,132.800 250.800 C 132.800 250.140,132.936 249.600,133.102 249.600 C 133.268 249.600,133.852 250.140,134.400 250.800 M307.363 254.390 C 309.786 256.992,310.400 260.357,310.400 271.047 C 310.400 282.164,309.831 284.000,306.387 284.000 C 303.475 284.000,303.364 283.563,302.994 270.619 C 302.665 259.112,301.479 256.800,295.908 256.800 C 292.576 256.800,291.370 255.722,292.789 254.013 C 294.924 251.440,304.854 251.697,307.363 254.390 M287.619 254.716 C 288.309 255.770,289.584 256.819,290.452 257.045 C 292.001 257.450,291.997 257.513,290.264 260.451 C 288.784 262.959,288.425 265.078,288.049 273.522 L 287.600 283.600 285.239 283.869 C 281.220 284.326,280.800 282.824,280.800 268.007 C 280.800 258.739,281.090 254.430,281.760 253.760 C 283.344 252.176,286.267 252.654,287.619 254.716 " stroke="none" fill="#808080" fill-rule="evenodd"></path><path id="path3" d="M90.323 83.922 C 86.100 84.185,82.140 84.803,81.523 85.295 C 80.905 85.788,78.645 86.379,76.499 86.608 C 73.465 86.933,72.183 87.534,70.728 89.313 L 68.858 91.600 68.829 185.036 L 68.800 278.473 70.708 280.381 C 77.075 286.747,104.000 286.240,104.000 279.753 C 104.000 275.842,102.782 275.395,90.944 274.960 C 84.863 274.737,79.745 274.411,79.570 274.237 C 79.041 273.708,79.004 96.729,79.533 96.201 C 80.297 95.436,87.825 94.524,94.000 94.447 C 103.118 94.335,103.656 93.994,104.523 87.801 C 104.959 84.683,104.326 84.092,102.381 85.800 C 101.755 86.350,101.855 86.060,102.605 85.155 C 104.223 83.202,103.328 83.112,90.323 83.922 M234.102 83.764 C 233.113 84.754,233.618 85.781,234.667 84.911 C 235.471 84.243,235.733 84.307,235.733 85.168 C 235.733 85.797,235.343 86.241,234.867 86.156 C 232.949 85.811,233.499 90.242,235.618 92.206 C 237.551 93.999,238.569 94.203,247.780 94.638 C 253.309 94.899,258.173 95.453,258.590 95.870 C 259.212 96.492,259.584 273.539,258.965 274.081 C 258.431 274.549,250.561 275.124,244.221 275.159 C 235.204 275.209,232.959 277.207,236.107 282.384 L 237.718 285.032 249.059 284.482 C 260.919 283.906,264.996 283.203,267.625 281.281 C 269.174 280.148,269.203 278.587,269.410 185.613 L 269.619 91.096 267.271 88.748 C 265.540 87.017,264.163 86.400,262.033 86.400 C 260.444 86.400,258.346 85.902,257.372 85.294 C 255.526 84.142,235.069 82.797,234.102 83.764 M258.143 88.476 C 261.635 88.786,263.689 89.434,265.143 90.683 L 267.200 92.451 267.200 184.937 C 267.200 271.866,267.116 277.520,265.800 279.048 C 263.658 281.533,239.478 283.615,238.301 281.415 C 237.048 279.075,237.993 278.622,245.388 278.022 C 254.543 277.278,260.131 276.212,261.373 274.970 C 262.161 274.181,262.382 255.151,262.414 185.234 C 262.461 80.641,264.305 93.404,249.065 92.800 C 240.939 92.478,238.810 92.148,238.157 91.109 C 235.900 87.517,240.516 86.909,258.143 88.476 M101.600 88.622 C 101.600 91.963,99.224 92.800,89.733 92.800 C 82.541 92.800,79.942 93.090,78.578 94.045 L 76.800 95.291 76.800 185.167 L 76.800 275.043 79.400 275.957 C 80.830 276.459,85.960 277.251,90.800 277.717 C 100.254 278.628,101.151 278.954,100.299 281.175 C 99.798 282.480,99.012 282.568,92.073 282.088 C 74.246 280.854,73.533 280.727,72.734 278.627 C 72.304 277.495,72.000 238.514,72.000 184.487 L 72.000 92.279 73.800 90.599 C 74.790 89.675,76.860 88.770,78.400 88.588 C 83.619 87.970,101.600 87.996,101.600 88.622 M124.422 111.000 C 123.299 112.210,118.403 121.120,113.543 130.800 C 108.683 140.480,104.367 148.940,103.952 149.600 C 103.538 150.260,102.840 151.700,102.401 152.800 C 101.963 153.900,101.278 155.340,100.879 156.000 C 100.481 156.660,99.028 159.540,97.650 162.400 C 96.272 165.260,94.797 168.140,94.372 168.800 C 93.947 169.460,93.240 170.900,92.801 172.000 C 92.363 173.100,91.683 174.540,91.291 175.200 C 89.070 178.940,86.400 185.493,86.396 187.211 C 86.394 188.712,110.274 237.820,114.400 244.800 C 114.790 245.460,116.404 248.750,117.987 252.112 C 119.570 255.473,121.964 259.883,123.308 261.912 L 125.751 265.600 169.187 265.600 C 209.395 265.600,212.745 265.496,214.267 264.200 C 215.699 262.981,221.230 253.226,224.587 246.000 C 225.200 244.680,226.039 243.060,226.453 242.400 C 226.866 241.740,227.563 240.300,228.001 239.200 C 228.440 238.100,229.148 236.660,229.575 236.000 C 230.275 234.918,231.472 232.487,234.896 225.200 C 235.516 223.880,236.379 222.260,236.812 221.600 C 237.246 220.940,237.960 219.500,238.399 218.400 C 238.837 217.300,239.528 215.860,239.934 215.200 C 240.340 214.540,241.744 211.840,243.054 209.200 C 246.998 201.253,250.559 194.126,251.712 191.877 C 253.827 187.748,250.262 177.067,242.408 164.000 C 242.011 163.340,239.156 157.628,236.063 151.306 C 232.970 144.984,230.100 139.402,229.684 138.901 C 229.269 138.401,228.681 137.003,228.378 135.796 C 228.075 134.588,227.533 133.600,227.175 133.600 C 226.817 133.600,226.089 132.250,225.558 130.600 C 225.026 128.950,224.320 127.240,223.988 126.800 C 223.656 126.360,221.702 122.760,219.647 118.800 C 213.885 107.696,219.415 108.800,169.544 108.800 L 126.465 108.800 124.422 111.000 M212.439 111.699 C 213.577 112.445,216.138 116.449,218.452 121.099 C 220.668 125.555,222.812 129.740,223.215 130.400 C 223.618 131.060,225.045 133.940,226.385 136.800 C 227.725 139.660,229.138 142.540,229.525 143.200 C 229.912 143.860,230.625 145.300,231.109 146.400 C 231.593 147.500,232.317 148.940,232.718 149.600 C 233.120 150.260,236.633 157.190,240.524 165.000 C 244.416 172.811,248.137 180.191,248.794 181.400 C 250.522 184.586,250.278 191.471,248.341 194.190 C 247.475 195.405,245.215 199.640,243.319 203.600 C 241.422 207.560,239.552 211.340,239.163 212.000 C 238.773 212.660,237.328 215.540,235.950 218.400 C 234.572 221.260,233.117 224.140,232.717 224.800 C 232.316 225.460,231.593 226.900,231.109 228.000 C 230.625 229.100,229.908 230.540,229.516 231.200 C 227.810 234.072,224.000 242.230,224.000 243.011 C 224.000 243.482,223.685 243.987,223.300 244.133 C 222.914 244.280,220.725 248.248,218.435 252.950 C 212.509 265.120,217.460 264.000,169.588 264.000 L 128.721 264.000 126.066 261.400 C 124.606 259.970,123.141 257.900,122.811 256.800 C 122.481 255.700,121.741 254.260,121.168 253.600 C 120.594 252.940,119.881 251.425,119.584 250.233 C 119.286 249.041,118.538 247.647,117.922 247.135 C 117.305 246.623,116.800 245.577,116.800 244.810 C 116.800 244.043,116.080 242.500,115.200 241.382 C 114.320 240.263,113.600 238.823,113.600 238.182 C 113.600 237.540,112.902 236.129,112.050 235.045 C 111.197 233.961,110.262 232.127,109.971 230.970 C 109.681 229.812,108.938 228.447,108.322 227.935 C 107.705 227.423,107.200 226.377,107.200 225.610 C 107.200 224.843,106.480 223.300,105.600 222.182 C 104.720 221.063,104.000 219.618,104.000 218.972 C 104.000 218.325,103.478 217.363,102.841 216.834 C 102.203 216.305,101.249 214.561,100.720 212.958 C 100.191 211.355,99.273 209.559,98.679 208.965 C 98.086 208.371,97.600 207.213,97.600 206.390 C 97.600 205.567,97.236 204.669,96.791 204.394 C 95.928 203.861,91.200 194.167,91.200 192.931 C 91.200 192.527,90.660 191.748,90.000 191.200 C 89.323 190.638,88.800 188.894,88.800 187.200 C 88.800 185.506,89.323 183.762,90.000 183.200 C 90.660 182.652,91.200 181.873,91.200 181.469 C 91.200 180.729,95.372 171.840,96.771 169.600 C 97.183 168.940,98.629 166.060,99.984 163.200 C 101.339 160.340,102.741 157.460,103.099 156.800 C 105.300 152.749,106.130 151.110,108.165 146.800 C 109.411 144.160,110.785 141.460,111.217 140.800 C 111.650 140.140,112.363 138.700,112.801 137.600 C 113.240 136.500,113.962 135.060,114.405 134.400 C 114.849 133.740,115.607 132.300,116.091 131.200 C 116.575 130.100,117.293 128.660,117.687 128.000 C 118.081 127.340,118.763 125.900,119.201 124.800 C 119.640 123.700,120.342 122.260,120.760 121.600 C 121.179 120.940,122.257 118.940,123.157 117.155 C 124.057 115.370,125.529 113.120,126.428 112.155 L 128.062 110.400 169.259 110.400 C 205.928 110.400,210.674 110.543,212.439 111.699 M130.679 117.959 C 128.920 118.725,127.998 119.786,127.628 121.473 C 127.336 122.802,126.616 124.289,126.027 124.778 C 125.439 125.266,124.714 126.641,124.416 127.833 C 124.119 129.025,123.406 130.540,122.832 131.200 C 122.259 131.860,121.518 133.300,121.187 134.400 C 120.855 135.500,120.337 136.580,120.034 136.800 C 119.392 137.267,114.400 147.453,114.400 148.297 C 114.400 148.611,114.025 149.302,113.567 149.834 C 112.463 151.116,99.200 177.690,99.200 178.622 C 99.200 179.021,98.480 180.263,97.600 181.382 C 94.676 185.099,95.681 190.928,100.809 200.000 C 101.182 200.660,106.260 210.740,112.094 222.400 C 117.927 234.060,122.947 243.780,123.250 244.000 C 123.552 244.220,124.047 245.545,124.351 246.945 C 124.654 248.344,125.420 249.918,126.051 250.443 C 126.683 250.967,127.200 251.908,127.200 252.534 C 127.200 253.160,128.084 254.556,129.164 255.636 L 131.127 257.600 169.894 257.600 L 208.662 257.600 211.131 254.242 C 212.489 252.396,213.600 250.382,213.600 249.769 C 213.600 249.155,214.320 247.737,215.200 246.618 C 216.080 245.500,216.800 244.060,216.800 243.418 C 216.800 242.777,217.520 241.337,218.400 240.218 C 219.280 239.100,220.000 237.660,220.000 237.018 C 220.000 236.377,220.720 234.937,221.600 233.818 C 222.480 232.700,223.200 231.113,223.200 230.292 C 223.200 229.471,223.532 228.800,223.938 228.800 C 224.344 228.800,225.116 227.450,225.654 225.800 C 226.192 224.150,226.879 222.620,227.181 222.400 C 227.483 222.180,230.521 216.333,233.931 209.407 C 237.341 202.481,240.461 196.609,240.865 196.360 C 241.269 196.110,241.600 195.071,241.600 194.051 C 241.600 193.031,242.101 191.780,242.713 191.272 C 244.534 189.761,244.723 185.718,243.070 183.616 C 242.261 182.589,241.600 181.402,241.600 180.979 C 241.600 180.095,234.809 166.423,233.739 165.155 C 233.347 164.690,232.587 162.980,232.051 161.355 C 231.515 159.730,230.772 158.400,230.402 158.400 C 230.031 158.400,229.495 157.345,229.212 156.055 C 228.929 154.766,228.203 153.301,227.600 152.800 C 226.997 152.299,226.277 150.859,226.000 149.600 C 225.723 148.341,224.980 146.882,224.349 146.357 C 223.717 145.833,223.200 144.777,223.200 144.010 C 223.200 143.243,222.502 141.729,221.650 140.645 C 220.797 139.561,219.851 137.683,219.547 136.472 C 219.243 135.261,218.500 134.081,217.897 133.850 C 217.294 133.618,216.800 132.616,216.800 131.622 C 216.800 130.629,216.102 128.929,215.250 127.845 C 214.397 126.761,213.451 124.883,213.147 123.672 C 212.843 122.461,212.136 121.295,211.576 121.080 C 211.016 120.865,210.390 120.049,210.186 119.267 C 209.598 117.020,206.084 116.816,168.400 116.840 C 140.383 116.858,132.686 117.086,130.679 117.959 M209.797 122.380 C 210.942 124.128,212.130 126.378,212.438 127.380 C 212.745 128.381,213.278 129.560,213.622 130.000 C 215.793 132.772,241.600 185.542,241.600 187.208 C 241.600 189.824,210.145 252.729,207.901 254.600 C 206.356 255.889,203.303 256.000,169.543 256.000 C 127.566 256.000,131.681 256.775,127.540 248.095 C 119.847 231.969,118.028 228.371,117.450 228.133 C 117.092 227.987,116.783 227.267,116.762 226.533 C 116.741 225.800,115.484 223.040,113.967 220.400 C 112.451 217.760,110.826 214.700,110.357 213.600 C 109.397 211.348,107.250 207.065,101.539 196.000 C 96.786 186.792,96.785 186.895,101.609 178.400 C 101.983 177.740,108.324 165.140,115.699 150.400 C 123.074 135.660,129.784 122.610,130.609 121.400 L 132.109 119.200 169.912 119.200 L 207.716 119.200 209.797 122.380 M136.580 128.075 C 135.799 128.530,133.876 131.489,132.306 134.651 C 130.736 137.813,127.926 143.280,126.060 146.800 C 124.194 150.320,120.681 156.980,118.253 161.600 C 115.824 166.220,111.984 173.483,109.719 177.739 C 104.399 187.734,104.502 192.000,110.062 192.000 C 112.665 192.000,114.395 189.841,119.044 180.787 C 121.194 176.600,123.368 172.460,123.876 171.587 C 124.384 170.714,125.184 169.100,125.654 168.000 C 126.124 166.900,128.081 163.120,130.002 159.600 C 131.924 156.080,134.784 150.608,136.358 147.441 C 137.933 144.273,139.549 141.479,139.949 141.232 C 140.349 140.984,140.908 139.731,141.190 138.446 C 141.472 137.162,142.220 135.682,142.851 135.157 C 147.186 131.560,141.542 125.187,136.580 128.075 M195.400 128.025 C 193.108 128.946,192.896 134.046,195.031 136.892 C 195.819 137.941,198.196 142.220,200.314 146.400 C 202.432 150.580,206.434 158.320,209.208 163.600 C 211.982 168.880,215.995 176.606,218.126 180.770 C 223.233 190.749,225.193 193.076,227.914 192.393 C 232.113 191.339,233.214 188.184,230.843 184.000 C 229.418 181.486,224.659 172.383,219.339 162.000 C 217.085 157.600,214.962 153.640,214.621 153.200 C 214.071 152.492,207.573 140.029,203.822 132.491 C 201.583 127.990,198.954 126.596,195.400 128.025 M140.335 129.286 C 142.706 130.196,142.127 131.870,134.413 146.400 C 133.829 147.500,133.045 148.940,132.670 149.600 C 132.295 150.260,131.593 151.700,131.109 152.800 C 130.625 153.900,129.900 155.340,129.498 156.000 C 129.097 156.660,128.241 158.345,127.596 159.745 C 126.952 161.145,126.086 162.499,125.674 162.754 C 125.261 163.010,124.692 164.269,124.410 165.554 C 124.128 166.838,123.403 168.299,122.800 168.800 C 122.197 169.301,121.478 170.736,121.203 171.988 C 120.927 173.241,120.184 174.465,119.551 174.708 C 118.918 174.951,118.389 175.611,118.375 176.175 C 118.346 177.354,114.612 184.987,112.532 188.116 C 111.561 189.577,110.644 190.105,109.563 189.822 C 107.669 189.327,107.484 185.949,109.225 183.647 C 109.871 182.793,110.400 181.482,110.400 180.733 C 110.400 179.984,110.894 179.182,111.497 178.950 C 112.100 178.719,112.843 177.539,113.147 176.328 C 113.451 175.117,114.397 173.239,115.250 172.155 C 116.102 171.071,116.800 169.678,116.800 169.060 C 116.800 168.441,117.444 166.960,118.232 165.768 C 120.270 162.683,121.144 161.119,124.359 154.800 C 125.926 151.720,127.528 148.660,127.919 148.000 C 128.309 147.340,129.040 145.900,129.541 144.800 C 131.918 139.590,138.179 128.800,138.827 128.800 C 138.960 128.800,139.639 129.019,140.335 129.286 M200.575 131.724 C 201.579 132.893,202.400 134.284,202.400 134.817 C 202.400 135.349,203.098 136.671,203.950 137.755 C 204.803 138.839,205.742 140.688,206.037 141.863 C 206.332 143.038,206.866 144.000,207.223 144.000 C 207.581 144.000,208.109 145.076,208.398 146.391 C 208.687 147.706,209.250 148.984,209.649 149.231 C 210.049 149.477,211.212 151.372,212.234 153.440 C 214.570 158.168,222.265 172.798,223.257 174.400 C 223.666 175.060,224.364 176.500,224.807 177.600 C 225.250 178.700,226.666 181.400,227.953 183.600 C 230.815 188.490,230.896 189.284,228.601 189.884 C 226.557 190.418,223.789 187.963,222.804 184.741 C 222.478 183.674,221.773 182.260,221.237 181.600 C 220.702 180.940,219.801 179.230,219.235 177.800 C 218.669 176.370,217.890 175.200,217.503 175.200 C 217.116 175.200,216.800 174.529,216.800 173.708 C 216.800 172.887,216.168 171.357,215.395 170.308 C 214.623 169.259,212.205 164.800,210.022 160.400 C 207.838 156.000,205.799 152.216,205.490 151.992 C 205.180 151.768,204.678 150.594,204.375 149.384 C 204.071 148.175,203.507 146.990,203.122 146.752 C 202.736 146.513,201.095 143.547,199.475 140.159 C 197.855 136.772,196.230 133.880,195.865 133.733 C 194.263 133.091,196.011 129.600,197.935 129.600 C 198.383 129.600,199.571 130.556,200.575 131.724 M133.455 237.800 C 131.150 239.643,131.152 242.290,133.459 244.430 L 135.584 246.400 168.937 246.400 L 202.291 246.400 203.846 244.200 C 205.471 241.901,205.061 238.770,202.960 237.435 C 201.208 236.321,134.869 236.670,133.455 237.800 M202.253 241.000 L 202.506 243.200 168.900 243.200 C 134.407 243.200,133.532 243.117,135.196 240.008 C 136.052 238.409,136.605 238.386,169.033 238.591 L 202.000 238.800 202.253 241.000 M295.458 252.512 C 290.929 253.511,291.273 256.800,295.908 256.800 C 301.479 256.800,302.665 259.112,302.994 270.619 C 303.364 283.563,303.475 284.000,306.387 284.000 C 309.831 284.000,310.400 282.164,310.400 271.047 C 310.400 254.337,306.895 249.989,295.458 252.512 M281.760 253.760 C 281.090 254.430,280.800 258.739,280.800 268.007 C 280.800 282.824,281.220 284.326,285.239 283.869 L 287.600 283.600 288.049 273.522 C 288.425 265.078,288.784 262.959,290.264 260.451 C 291.997 257.513,292.001 257.450,290.452 257.045 C 289.584 256.819,288.309 255.770,287.619 254.716 C 286.267 252.654,283.344 252.176,281.760 253.760 M305.929 256.861 C 308.123 259.469,309.324 281.713,307.200 280.400 C 306.755 280.125,306.400 276.442,306.400 272.103 C 306.400 265.938,306.064 263.606,304.800 260.989 C 303.920 259.168,303.200 257.310,303.200 256.862 C 303.200 256.413,302.030 255.708,300.600 255.295 L 298.000 254.544 300.929 254.472 C 303.265 254.415,304.277 254.898,305.929 256.861 M286.408 270.400 C 285.867 283.395,285.107 282.575,284.440 268.275 C 284.058 260.084,284.176 257.672,284.975 257.398 C 286.642 256.826,286.882 259.010,286.408 270.400 " stroke="none" fill="#d4d4d4" fill-rule="evenodd"></path><path id="path4" d="M102.793 83.860 C 103.009 84.076,102.739 84.794,102.193 85.455 C 101.317 86.516,101.411 86.525,103.000 85.536 C 105.085 84.237,105.309 83.467,103.600 83.467 C 102.940 83.467,102.577 83.644,102.793 83.860 M237.790 88.658 C 236.638 91.660,238.616 92.386,249.065 92.800 C 264.305 93.404,262.461 80.641,262.414 185.234 C 262.382 255.151,262.161 274.181,261.373 274.970 C 260.131 276.212,254.543 277.278,245.388 278.022 C 237.993 278.622,237.048 279.075,238.301 281.415 C 239.478 283.615,263.658 281.533,265.800 279.048 C 267.116 277.520,267.200 271.866,267.200 184.937 L 267.200 92.451 265.143 90.683 C 262.931 88.783,259.453 88.261,245.717 87.768 C 239.743 87.553,238.145 87.733,237.790 88.658 M78.400 88.588 C 76.860 88.770,74.790 89.675,73.800 90.599 L 72.000 92.279 72.000 184.487 C 72.000 238.514,72.304 277.495,72.734 278.627 C 73.533 280.727,74.246 280.854,92.073 282.088 C 99.012 282.568,99.798 282.480,100.299 281.175 C 101.151 278.954,100.254 278.628,90.800 277.717 C 85.960 277.251,80.830 276.459,79.400 275.957 L 76.800 275.043 76.800 185.167 L 76.800 95.291 78.578 94.045 C 79.942 93.090,82.541 92.800,89.733 92.800 C 99.224 92.800,101.600 91.963,101.600 88.622 C 101.600 87.996,83.619 87.970,78.400 88.588 M126.428 112.155 C 125.529 113.120,124.057 115.370,123.157 117.155 C 122.257 118.940,121.179 120.940,120.760 121.600 C 120.342 122.260,119.640 123.700,119.201 124.800 C 118.763 125.900,118.081 127.340,117.687 128.000 C 117.293 128.660,116.575 130.100,116.091 131.200 C 115.607 132.300,114.849 133.740,114.405 134.400 C 113.962 135.060,113.240 136.500,112.801 137.600 C 112.363 138.700,111.650 140.140,111.217 140.800 C 110.785 141.460,109.411 144.160,108.165 146.800 C 106.130 151.110,105.300 152.749,103.099 156.800 C 102.741 157.460,101.339 160.340,99.984 163.200 C 98.629 166.060,97.183 168.940,96.771 169.600 C 95.372 171.840,91.200 180.729,91.200 181.469 C 91.200 181.873,90.660 182.652,90.000 183.200 C 89.323 183.762,88.800 185.506,88.800 187.200 C 88.800 188.894,89.323 190.638,90.000 191.200 C 90.660 191.748,91.200 192.527,91.200 192.931 C 91.200 194.167,95.928 203.861,96.791 204.394 C 97.236 204.669,97.600 205.567,97.600 206.390 C 97.600 207.213,98.086 208.371,98.679 208.965 C 99.273 209.559,100.191 211.355,100.720 212.958 C 101.249 214.561,102.203 216.305,102.841 216.834 C 103.478 217.363,104.000 218.325,104.000 218.972 C 104.000 219.618,104.720 221.063,105.600 222.182 C 106.480 223.300,107.200 224.843,107.200 225.610 C 107.200 226.377,107.705 227.423,108.322 227.935 C 108.938 228.447,109.681 229.812,109.971 230.970 C 110.262 232.127,111.197 233.961,112.050 235.045 C 112.902 236.129,113.600 237.540,113.600 238.182 C 113.600 238.823,114.320 240.263,115.200 241.382 C 116.080 242.500,116.800 244.043,116.800 244.810 C 116.800 245.577,117.305 246.623,117.922 247.135 C 118.538 247.647,119.286 249.041,119.584 250.233 C 119.881 251.425,120.594 252.940,121.168 253.600 C 121.741 254.260,122.481 255.700,122.811 256.800 C 123.141 257.900,124.606 259.970,126.066 261.400 L 128.721 264.000 169.588 264.000 C 217.460 264.000,212.509 265.120,218.435 252.950 C 220.725 248.248,222.914 244.280,223.300 244.133 C 223.685 243.987,224.000 243.482,224.000 243.011 C 224.000 242.230,227.810 234.072,229.516 231.200 C 229.908 230.540,230.625 229.100,231.109 228.000 C 231.593 226.900,232.316 225.460,232.717 224.800 C 233.117 224.140,234.572 221.260,235.950 218.400 C 237.328 215.540,238.773 212.660,239.163 212.000 C 239.552 211.340,241.422 207.560,243.319 203.600 C 245.215 199.640,247.475 195.405,248.341 194.190 C 250.278 191.471,250.522 184.586,248.794 181.400 C 248.137 180.191,244.416 172.811,240.524 165.000 C 236.633 157.190,233.120 150.260,232.718 149.600 C 232.317 148.940,231.593 147.500,231.109 146.400 C 230.625 145.300,229.912 143.860,229.525 143.200 C 229.138 142.540,227.725 139.660,226.385 136.800 C 225.045 133.940,223.618 131.060,223.215 130.400 C 222.812 129.740,220.668 125.555,218.452 121.099 C 212.603 109.342,217.468 110.400,169.259 110.400 L 128.062 110.400 126.428 112.155 M206.707 117.331 C 208.728 117.665,209.944 118.341,210.186 119.267 C 210.390 120.049,211.016 120.865,211.576 121.080 C 212.136 121.295,212.843 122.461,213.147 123.672 C 213.451 124.883,214.397 126.761,215.250 127.845 C 216.102 128.929,216.800 130.629,216.800 131.622 C 216.800 132.616,217.294 133.618,217.897 133.850 C 218.500 134.081,219.243 135.261,219.547 136.472 C 219.851 137.683,220.797 139.561,221.650 140.645 C 222.502 141.729,223.200 143.243,223.200 144.010 C 223.200 144.777,223.717 145.833,224.349 146.357 C 224.980 146.882,225.723 148.341,226.000 149.600 C 226.277 150.859,226.997 152.299,227.600 152.800 C 228.203 153.301,228.929 154.766,229.212 156.055 C 229.495 157.345,230.031 158.400,230.402 158.400 C 230.772 158.400,231.515 159.730,232.051 161.355 C 232.587 162.980,233.347 164.690,233.739 165.155 C 234.809 166.423,241.600 180.095,241.600 180.979 C 241.600 181.402,242.261 182.589,243.070 183.616 C 244.723 185.718,244.534 189.761,242.713 191.272 C 242.101 191.780,241.600 193.031,241.600 194.051 C 241.600 195.071,241.269 196.110,240.865 196.360 C 240.461 196.609,237.341 202.481,233.931 209.407 C 230.521 216.333,227.483 222.180,227.181 222.400 C 226.879 222.620,226.192 224.150,225.654 225.800 C 225.116 227.450,224.344 228.800,223.938 228.800 C 223.532 228.800,223.200 229.471,223.200 230.292 C 223.200 231.113,222.480 232.700,221.600 233.818 C 220.720 234.937,220.000 236.377,220.000 237.018 C 220.000 237.660,219.280 239.100,218.400 240.218 C 217.520 241.337,216.800 242.777,216.800 243.418 C 216.800 244.060,216.080 245.500,215.200 246.618 C 214.320 247.737,213.600 249.155,213.600 249.769 C 213.600 250.382,212.489 252.396,211.131 254.242 L 208.662 257.600 169.894 257.600 L 131.127 257.600 129.164 255.636 C 128.084 254.556,127.200 253.160,127.200 252.534 C 127.200 251.908,126.683 250.967,126.051 250.443 C 125.420 249.918,124.654 248.344,124.351 246.945 C 124.047 245.545,123.552 244.220,123.250 244.000 C 122.947 243.780,117.927 234.060,112.094 222.400 C 106.260 210.740,101.182 200.660,100.809 200.000 C 95.681 190.928,94.676 185.099,97.600 181.382 C 98.480 180.263,99.200 179.021,99.200 178.622 C 99.200 177.690,112.463 151.116,113.567 149.834 C 114.025 149.302,114.400 148.611,114.400 148.297 C 114.400 147.453,119.392 137.267,120.034 136.800 C 120.337 136.580,120.855 135.500,121.187 134.400 C 121.518 133.300,122.259 131.860,122.832 131.200 C 123.406 130.540,124.119 129.025,124.416 127.833 C 124.714 126.641,125.439 125.266,126.027 124.778 C 126.616 124.289,127.336 122.802,127.628 121.473 C 128.618 116.966,129.509 116.865,168.400 116.840 C 187.760 116.828,204.998 117.049,206.707 117.331 M137.121 131.000 C 135.482 133.465,130.938 141.738,129.541 144.800 C 129.040 145.900,128.309 147.340,127.919 148.000 C 127.528 148.660,125.926 151.720,124.359 154.800 C 121.144 161.119,120.270 162.683,118.232 165.768 C 117.444 166.960,116.800 168.441,116.800 169.060 C 116.800 169.678,116.102 171.071,115.250 172.155 C 114.397 173.239,113.451 175.117,113.147 176.328 C 112.843 177.539,112.100 178.719,111.497 178.950 C 110.894 179.182,110.400 179.984,110.400 180.733 C 110.400 181.482,109.871 182.793,109.225 183.647 C 107.484 185.949,107.669 189.327,109.563 189.822 C 110.644 190.105,111.561 189.577,112.532 188.116 C 114.612 184.987,118.346 177.354,118.375 176.175 C 118.389 175.611,118.918 174.951,119.551 174.708 C 120.184 174.465,120.927 173.241,121.203 171.988 C 121.478 170.736,122.197 169.301,122.800 168.800 C 123.403 168.299,124.128 166.838,124.410 165.554 C 124.692 164.269,125.261 163.010,125.674 162.754 C 126.086 162.499,126.952 161.145,127.596 159.745 C 128.241 158.345,129.097 156.660,129.498 156.000 C 129.900 155.340,130.625 153.900,131.109 152.800 C 131.593 151.700,132.295 150.260,132.670 149.600 C 133.045 148.940,133.829 147.500,134.413 146.400 C 142.127 131.870,142.706 130.196,140.335 129.286 C 138.605 128.622,138.756 128.541,137.121 131.000 M196.160 130.560 C 195.052 131.668,194.896 133.345,195.865 133.733 C 196.230 133.880,197.855 136.772,199.475 140.159 C 201.095 143.547,202.736 146.513,203.122 146.752 C 203.507 146.990,204.071 148.175,204.375 149.384 C 204.678 150.594,205.180 151.768,205.490 151.992 C 205.799 152.216,207.838 156.000,210.022 160.400 C 212.205 164.800,214.623 169.259,215.395 170.308 C 216.168 171.357,216.800 172.887,216.800 173.708 C 216.800 174.529,217.116 175.200,217.503 175.200 C 217.890 175.200,218.669 176.370,219.235 177.800 C 219.801 179.230,220.702 180.940,221.237 181.600 C 221.773 182.260,222.478 183.674,222.804 184.741 C 223.789 187.963,226.557 190.418,228.601 189.884 C 230.896 189.284,230.815 188.490,227.953 183.600 C 226.666 181.400,225.250 178.700,224.807 177.600 C 224.364 176.500,223.666 175.060,223.257 174.400 C 222.265 172.798,214.570 158.168,212.234 153.440 C 211.212 151.372,210.049 149.477,209.649 149.231 C 209.250 148.984,208.687 147.706,208.398 146.391 C 208.109 145.076,207.581 144.000,207.223 144.000 C 206.866 144.000,206.332 143.038,206.037 141.863 C 205.742 140.688,204.803 138.839,203.950 137.755 C 203.098 136.671,202.400 135.349,202.400 134.817 C 202.400 131.909,197.889 128.831,196.160 130.560 M135.196 240.008 C 133.532 243.117,134.407 243.200,168.900 243.200 L 202.506 243.200 202.253 241.000 L 202.000 238.800 169.033 238.591 C 136.605 238.386,136.052 238.409,135.196 240.008 M300.600 255.295 C 302.030 255.708,303.200 256.413,303.200 256.862 C 303.200 257.310,303.920 259.168,304.800 260.989 C 306.064 263.606,306.400 265.938,306.400 272.103 C 306.400 276.442,306.755 280.125,307.200 280.400 C 307.718 280.720,308.000 277.095,308.000 270.109 C 308.000 257.316,306.650 254.331,300.929 254.472 L 298.000 254.544 300.600 255.295 M284.975 257.398 C 284.176 257.672,284.058 260.084,284.440 268.275 C 285.107 282.575,285.867 283.395,286.408 270.400 C 286.882 259.010,286.642 256.826,284.975 257.398 " stroke="none" fill="#fdfdfd" fill-rule="evenodd"></path></g></svg>