<svg id="svg" version="1.1" width="500" height="500" xmlns="http://www.w3.org/2000/svg" xmlns:xlink="http://www.w3.org/1999/xlink" style="display: block;"><g id="svgg"><path id="path0" d="M174.600 71.593 C 171.372 72.996,171.278 73.680,174.345 73.447 C 175.634 73.348,176.624 72.909,176.545 72.470 C 176.465 72.032,176.820 71.656,177.333 71.636 C 177.847 71.616,178.537 71.330,178.867 71.000 C 179.834 70.033,177.416 70.369,174.600 71.593 M215.418 72.000 C 217.493 73.632,220.000 74.140,220.000 72.928 C 220.000 72.105,216.395 70.400,214.654 70.400 C 213.749 70.400,213.968 70.859,215.418 72.000 M162.600 74.130 C 162.050 74.352,161.600 74.885,161.600 75.314 C 161.600 75.743,162.050 75.813,162.600 75.470 C 163.150 75.126,164.083 74.772,164.673 74.683 C 165.264 74.593,165.954 74.313,166.207 74.060 C 166.760 73.507,164.012 73.560,162.600 74.130 M228.200 74.151 C 228.970 74.353,229.600 75.031,229.600 75.659 C 229.600 76.286,230.320 76.800,231.200 76.800 C 232.080 76.800,232.800 76.431,232.800 75.980 C 232.800 75.107,229.333 73.538,227.748 73.693 C 227.227 73.744,227.430 73.950,228.200 74.151 M237.260 78.297 C 238.990 79.978,239.631 79.877,238.924 78.035 C 238.663 77.356,237.836 76.800,237.085 76.800 C 235.861 76.800,235.879 76.954,237.260 78.297 M149.167 80.853 C 148.877 81.322,148.832 81.899,149.067 82.133 C 149.640 82.706,151.200 81.697,151.200 80.753 C 151.200 79.730,149.819 79.799,149.167 80.853 M242.610 81.352 C 243.353 82.096,244.187 82.480,244.461 82.206 C 245.248 81.418,244.040 80.000,242.581 80.000 C 241.360 80.000,241.362 80.105,242.610 81.352 M248.349 84.612 C 248.454 85.328,249.048 86.076,249.670 86.274 C 250.291 86.472,251.085 87.117,251.434 87.707 C 252.673 89.803,255.097 90.579,254.612 88.725 C 254.375 87.819,253.330 86.754,252.291 86.358 C 251.251 85.963,250.400 85.309,250.400 84.905 C 250.400 84.502,249.896 83.978,249.279 83.741 C 248.566 83.468,248.227 83.785,248.349 84.612 M143.733 84.533 C 142.813 85.454,143.151 86.400,144.400 86.400 C 145.060 86.400,145.600 85.860,145.600 85.200 C 145.600 83.951,144.654 83.613,143.733 84.533 M139.686 87.665 C 139.007 89.434,139.064 89.627,140.200 89.400 C 141.270 89.186,142.368 87.982,142.388 87.000 C 142.411 85.855,140.169 86.407,139.686 87.665 M136.028 91.147 C 134.798 93.445,135.014 93.744,136.800 92.214 C 138.517 90.745,138.879 89.600,137.628 89.600 C 137.204 89.600,136.484 90.296,136.028 91.147 M132.800 95.200 C 132.800 95.640,132.260 96.000,131.600 96.000 C 130.940 96.000,130.400 96.354,130.400 96.786 C 130.400 97.218,128.750 99.288,126.734 101.386 C 124.718 103.484,122.539 106.460,121.892 108.000 C 121.245 109.540,119.890 111.700,118.882 112.800 C 116.410 115.496,113.063 121.762,112.378 124.979 C 112.070 126.420,111.112 129.172,110.247 131.093 C 109.066 133.718,108.563 137.099,108.225 144.698 C 107.536 160.206,111.147 165.663,123.200 167.321 C 125.620 167.654,129.580 168.310,132.000 168.777 C 150.236 172.302,162.055 167.267,163.752 155.249 C 163.973 153.682,164.840 150.874,165.677 149.009 C 166.515 147.144,167.200 144.714,167.200 143.609 C 167.200 142.504,167.525 141.600,167.922 141.600 C 168.319 141.600,169.031 140.488,169.505 139.128 C 175.341 122.386,205.786 118.669,220.019 132.960 C 228.912 141.890,230.098 151.179,223.905 163.389 C 222.273 166.607,223.032 168.095,225.200 165.927 C 226.300 164.827,227.200 163.736,227.200 163.502 C 227.200 162.705,231.874 158.400,232.738 158.400 C 233.212 158.400,233.600 157.346,233.600 156.057 C 233.600 154.769,234.229 153.085,234.999 152.315 C 237.317 149.998,237.511 134.273,235.282 129.380 C 234.357 127.349,233.600 125.473,233.600 125.211 C 233.600 123.290,223.086 112.111,219.348 110.058 C 208.427 104.060,191.539 102.050,184.400 105.897 C 183.080 106.608,181.344 107.192,180.542 107.195 C 175.889 107.211,164.212 117.803,161.135 124.800 C 160.845 125.460,159.955 127.440,159.158 129.200 C 158.361 130.960,157.466 134.098,157.168 136.174 C 156.870 138.250,156.125 140.364,155.513 140.872 C 154.878 141.399,154.400 143.274,154.400 145.241 C 154.400 151.794,152.175 152.160,128.400 149.511 C 114.737 147.989,112.201 144.837,115.164 133.057 C 115.184 132.979,115.720 132.394,116.356 131.758 C 117.006 131.108,117.596 128.759,117.704 126.388 C 117.855 123.087,118.211 122.090,119.348 121.793 C 120.473 121.499,120.800 120.621,120.800 117.899 C 120.800 115.374,121.251 113.998,122.400 113.014 C 123.280 112.261,124.000 110.880,124.000 109.946 C 124.000 109.012,124.720 107.596,125.600 106.800 C 126.480 106.004,127.200 104.774,127.200 104.068 C 127.200 103.362,127.934 102.327,128.831 101.766 C 129.728 101.206,130.263 100.425,130.019 100.031 C 129.776 99.638,130.247 99.102,131.067 98.842 C 132.682 98.330,134.908 94.400,133.583 94.400 C 133.152 94.400,132.800 94.760,132.800 95.200 M261.600 96.432 C 261.600 97.427,265.104 101.506,265.662 101.162 C 265.996 100.955,266.501 101.839,266.784 103.126 C 267.066 104.413,267.782 105.652,268.373 105.879 C 268.965 106.106,269.691 107.394,269.987 108.741 C 270.283 110.088,271.048 111.483,271.688 111.841 C 272.327 112.199,273.068 113.911,273.334 115.646 C 273.599 117.381,274.304 119.364,274.900 120.054 C 276.677 122.111,276.075 155.572,274.202 158.800 C 273.436 160.120,272.808 161.955,272.805 162.878 C 272.802 163.800,272.080 165.385,271.200 166.400 C 270.320 167.415,269.600 168.674,269.600 169.198 C 269.600 169.723,268.880 170.804,268.000 171.600 C 267.120 172.396,266.400 173.694,266.400 174.484 C 266.400 175.274,265.948 176.208,265.395 176.560 C 264.843 176.912,263.372 178.566,262.127 180.236 C 259.325 183.994,239.817 203.463,236.000 206.311 C 226.711 213.241,217.462 225.600,216.434 232.455 C 216.108 234.625,215.545 236.955,215.182 237.633 C 214.819 238.311,214.278 243.351,213.979 248.833 C 213.681 254.315,213.095 259.160,212.678 259.600 C 211.355 260.997,178.494 260.646,177.616 259.226 C 176.882 258.038,175.880 250.079,176.002 246.400 C 176.469 232.309,177.292 225.436,178.601 224.703 C 179.600 224.144,180.000 222.921,180.000 220.426 C 180.000 216.170,180.613 214.400,182.086 214.400 C 182.831 214.400,183.200 213.449,183.200 211.525 C 183.200 209.323,183.574 208.552,184.800 208.232 C 185.686 208.000,186.400 207.141,186.400 206.307 C 186.400 205.478,187.084 204.116,187.921 203.279 C 188.758 202.442,189.684 200.997,189.979 200.067 C 190.274 199.138,190.849 198.583,191.258 198.836 C 191.666 199.088,192.000 198.899,192.000 198.416 C 192.000 197.933,193.440 196.083,195.200 194.305 C 198.178 191.297,199.140 189.600,197.865 189.600 C 195.884 189.600,182.843 205.075,179.830 211.000 C 177.985 214.630,176.188 217.600,175.837 217.600 C 175.487 217.600,175.200 218.050,175.199 218.600 C 175.199 219.150,174.119 221.882,172.799 224.672 C 171.480 227.461,170.400 230.539,170.400 231.512 C 170.400 232.484,170.087 233.622,169.705 234.040 C 168.832 234.994,167.190 251.445,167.229 258.847 C 167.255 263.631,167.674 265.231,170.259 270.400 L 173.259 276.400 193.060 276.614 C 209.682 276.794,212.934 277.018,213.316 278.014 C 214.019 279.845,214.910 279.432,216.014 276.765 C 216.569 275.426,217.999 273.285,219.193 272.007 C 221.734 269.288,223.631 262.047,224.331 252.400 C 225.174 240.773,232.412 229.996,246.895 218.800 C 252.420 214.529,271.271 193.715,274.400 188.430 C 275.500 186.573,277.439 183.485,278.709 181.569 C 279.979 179.653,281.539 175.726,282.174 172.843 C 282.810 169.959,284.021 165.793,284.865 163.585 C 286.575 159.112,287.071 142.673,285.636 138.057 C 285.216 136.706,283.908 132.399,282.729 128.488 C 281.551 124.576,279.429 119.328,278.014 116.825 C 276.600 114.323,275.208 111.404,274.922 110.338 C 274.635 109.272,272.061 105.947,269.200 102.949 C 266.340 99.951,264.000 97.161,264.000 96.749 C 264.000 96.337,263.460 96.000,262.800 96.000 C 262.140 96.000,261.600 96.195,261.600 96.432 M210.665 177.705 C 210.150 178.158,208.592 179.580,207.203 180.865 C 205.814 182.149,204.497 183.200,204.277 183.200 C 203.499 183.200,199.200 187.889,199.200 188.738 C 199.200 189.212,199.740 189.600,200.400 189.600 C 201.060 189.600,201.600 189.026,201.600 188.325 C 201.600 187.624,202.287 186.871,203.126 186.651 C 203.965 186.432,204.832 185.565,205.051 184.726 C 205.271 183.887,206.024 183.200,206.725 183.200 C 207.467 183.200,208.000 182.531,208.000 181.600 C 208.000 180.606,208.533 180.000,209.408 180.000 C 210.182 180.000,211.265 179.280,211.814 178.400 C 212.872 176.707,212.234 176.321,210.665 177.705 M213.755 297.404 C 213.501 315.453,213.078 317.923,210.101 318.722 C 205.876 319.855,174.360 319.227,173.889 318.000 C 173.636 317.340,172.927 316.800,172.314 316.800 C 171.428 316.800,171.199 314.957,171.196 307.800 C 171.185 285.262,169.753 279.396,165.507 284.512 C 161.746 289.043,160.905 320.303,164.361 327.122 C 166.577 331.497,170.294 334.981,173.462 335.656 C 174.638 335.906,176.427 336.446,177.438 336.855 C 178.448 337.265,185.732 337.600,193.622 337.600 L 207.970 337.600 213.178 335.031 C 217.536 332.883,218.538 332.000,219.310 329.631 C 219.817 328.074,220.580 326.574,221.006 326.297 C 226.274 322.875,224.255 287.952,218.552 283.849 C 217.750 283.272,216.860 282.170,216.572 281.400 C 214.707 276.399,213.994 280.451,213.755 297.404 " stroke="none" fill="#000000" fill-rule="evenodd"></path><path id="path1" d="M178.820 71.047 C 178.516 71.351,177.847 71.616,177.333 71.636 C 176.820 71.656,176.469 72.043,176.553 72.496 C 176.637 72.949,174.951 73.398,172.797 73.497 C 170.646 73.595,168.057 73.859,167.043 74.084 C 166.030 74.309,164.746 74.584,164.192 74.695 C 163.637 74.806,162.755 75.325,162.232 75.848 C 161.708 76.372,160.426 76.800,159.383 76.800 C 157.395 76.800,154.920 78.653,155.771 79.505 C 156.044 79.777,155.307 80.000,154.133 80.000 C 152.960 80.000,151.280 80.720,150.400 81.600 C 149.520 82.480,148.080 83.200,147.200 83.200 C 146.133 83.200,145.600 83.733,145.600 84.800 C 145.600 85.848,145.067 86.400,144.054 86.400 C 143.204 86.400,142.278 87.125,141.996 88.012 C 141.715 88.898,141.181 89.435,140.810 89.206 C 140.438 88.976,139.038 89.885,137.698 91.225 C 136.358 92.565,134.978 93.648,134.631 93.631 C 134.284 93.614,133.982 93.870,133.961 94.200 C 133.829 96.206,132.500 98.387,131.147 98.817 C 130.284 99.091,129.776 99.638,130.019 100.031 C 130.263 100.425,129.728 101.206,128.831 101.766 C 127.934 102.327,127.200 103.362,127.200 104.068 C 127.200 104.774,126.480 106.004,125.600 106.800 C 124.720 107.596,124.000 109.012,124.000 109.946 C 124.000 110.880,123.280 112.261,122.400 113.014 C 121.251 113.998,120.800 115.374,120.800 117.899 C 120.800 120.621,120.473 121.499,119.348 121.793 C 118.211 122.090,117.855 123.087,117.704 126.388 C 117.596 128.759,117.006 131.108,116.356 131.758 C 115.720 132.394,115.184 132.979,115.164 133.057 C 112.201 144.837,114.737 147.989,128.400 149.511 C 152.175 152.160,154.400 151.794,154.400 145.241 C 154.400 143.274,154.878 141.399,155.513 140.872 C 156.125 140.364,156.870 138.250,157.168 136.174 C 157.466 134.098,158.361 130.960,159.158 129.200 C 159.955 127.440,160.845 125.460,161.135 124.800 C 164.212 117.803,175.889 107.211,180.542 107.195 C 181.344 107.192,183.080 106.608,184.400 105.897 C 191.539 102.050,208.427 104.060,219.348 110.058 C 223.086 112.111,233.600 123.290,233.600 125.211 C 233.600 125.473,234.357 127.349,235.282 129.380 C 237.511 134.273,237.317 149.998,234.999 152.315 C 234.229 153.085,233.600 154.769,233.600 156.057 C 233.600 157.346,233.212 158.400,232.738 158.400 C 231.874 158.400,227.200 162.705,227.200 163.502 C 227.200 164.019,222.882 168.394,222.600 168.164 C 222.084 167.741,220.811 168.067,220.895 168.600 C 221.108 169.951,220.763 171.194,220.200 171.105 C 218.524 170.841,217.600 171.327,217.600 172.475 C 217.600 173.176,216.880 173.938,216.000 174.168 C 215.120 174.398,214.400 174.888,214.400 175.257 C 214.400 176.380,210.404 180.000,209.164 180.000 C 208.524 180.000,208.000 180.720,208.000 181.600 C 208.000 182.531,207.467 183.200,206.725 183.200 C 206.024 183.200,205.262 183.920,205.032 184.800 C 204.802 185.680,204.082 186.400,203.432 186.400 C 202.782 186.400,202.062 187.120,201.832 188.000 C 201.600 188.886,200.741 189.600,199.907 189.600 C 199.078 189.600,198.400 189.931,198.400 190.337 C 198.400 190.742,196.960 192.528,195.200 194.305 C 193.440 196.083,192.000 197.933,192.000 198.416 C 192.000 198.899,191.666 199.088,191.258 198.836 C 190.849 198.583,190.274 199.138,189.979 200.067 C 189.684 200.997,188.758 202.442,187.921 203.279 C 187.084 204.116,186.400 205.478,186.400 206.307 C 186.400 207.141,185.686 208.000,184.800 208.232 C 183.574 208.552,183.200 209.323,183.200 211.525 C 183.200 213.449,182.831 214.400,182.086 214.400 C 180.613 214.400,180.000 216.170,180.000 220.426 C 180.000 222.921,179.600 224.144,178.601 224.703 C 177.292 225.436,176.469 232.309,176.002 246.400 C 175.880 250.079,176.882 258.038,177.616 259.226 C 178.494 260.646,211.355 260.997,212.678 259.600 C 213.095 259.160,213.681 254.315,213.979 248.833 C 214.278 243.351,214.819 238.311,215.182 237.633 C 215.545 236.955,216.108 234.625,216.434 232.455 C 217.462 225.600,226.711 213.241,236.000 206.311 C 239.817 203.463,259.325 183.994,262.127 180.236 C 263.372 178.566,264.843 176.912,265.395 176.560 C 265.948 176.208,266.400 175.274,266.400 174.484 C 266.400 173.694,267.120 172.396,268.000 171.600 C 268.880 170.804,269.600 169.723,269.600 169.198 C 269.600 168.674,270.320 167.415,271.200 166.400 C 272.080 165.385,272.802 163.800,272.805 162.878 C 272.808 161.955,273.436 160.120,274.202 158.800 C 276.075 155.572,276.677 122.111,274.900 120.054 C 274.304 119.364,273.599 117.381,273.334 115.646 C 273.068 113.911,272.327 112.199,271.688 111.841 C 271.048 111.483,270.283 110.088,269.987 108.741 C 269.691 107.394,268.965 106.106,268.373 105.879 C 267.782 105.652,267.066 104.413,266.784 103.126 C 266.501 101.839,265.978 100.966,265.622 101.186 C 265.266 101.406,264.420 100.740,263.743 99.705 C 263.065 98.671,261.920 97.234,261.198 96.512 C 260.476 95.791,260.102 95.200,260.365 95.200 C 260.629 95.200,259.665 93.991,258.223 92.513 C 256.780 91.035,255.333 89.974,255.007 90.156 C 254.680 90.337,253.546 89.619,252.487 88.559 C 251.427 87.500,249.980 86.410,249.272 86.139 C 248.564 85.867,248.078 85.223,248.193 84.707 C 248.307 84.191,247.275 83.462,245.901 83.088 C 244.526 82.713,242.952 81.865,242.403 81.203 C 241.853 80.541,240.893 80.000,240.269 80.000 C 239.644 80.000,238.360 79.280,237.416 78.400 C 236.321 77.380,234.593 76.800,232.649 76.800 C 230.586 76.800,229.600 76.442,229.600 75.693 C 229.600 74.320,228.103 73.923,222.047 73.689 C 217.092 73.498,215.715 73.108,216.352 72.078 C 217.059 70.933,179.953 69.913,178.820 71.047 M220.956 79.082 C 223.022 80.027,225.588 80.800,226.658 80.800 C 227.728 80.800,229.052 81.340,229.600 82.000 C 230.148 82.660,231.255 83.200,232.060 83.200 C 233.958 83.200,237.600 84.862,237.600 85.728 C 237.600 86.098,238.140 86.400,238.800 86.400 C 239.460 86.400,240.684 87.084,241.521 87.921 C 242.358 88.758,243.816 89.688,244.762 89.988 C 246.489 90.536,260.000 103.305,260.000 104.390 C 260.000 104.708,260.900 106.039,262.000 107.346 C 263.100 108.653,264.000 110.197,264.000 110.776 C 264.000 111.355,264.540 112.036,265.200 112.289 C 265.860 112.543,266.402 113.571,266.405 114.575 C 266.408 115.579,267.126 117.480,268.000 118.800 C 268.874 120.120,269.592 122.183,269.595 123.384 C 269.598 124.585,270.162 126.973,270.850 128.692 C 274.048 136.684,271.396 154.254,264.918 167.995 C 261.784 174.641,248.610 189.101,233.571 202.400 C 225.657 209.399,216.800 218.511,216.800 219.655 C 216.800 220.166,216.141 221.443,215.336 222.492 C 212.139 226.658,209.740 237.061,209.638 247.200 C 209.609 250.115,209.059 252.478,208.009 254.200 L 206.424 256.800 195.270 256.800 C 180.375 256.800,178.060 253.609,181.901 238.368 C 182.506 235.966,183.217 231.518,183.481 228.484 C 183.745 225.451,184.470 222.391,185.092 221.684 C 185.713 220.978,186.470 219.234,186.773 217.809 C 187.075 216.384,187.661 215.010,188.074 214.754 C 188.486 214.499,189.358 213.145,190.010 211.745 C 191.154 209.291,192.230 207.560,195.554 202.825 C 197.605 199.903,206.309 191.192,213.166 185.200 C 216.187 182.560,219.452 179.590,220.421 178.600 C 221.390 177.610,222.592 176.800,223.092 176.800 C 223.591 176.800,224.005 176.530,224.012 176.200 C 224.018 175.870,226.898 172.569,230.412 168.864 C 233.925 165.159,236.800 161.705,236.800 161.187 C 236.800 160.669,237.520 159.415,238.400 158.400 C 239.280 157.385,240.013 155.800,240.028 154.878 C 240.044 153.955,240.571 152.300,241.200 151.200 C 243.892 146.491,241.551 126.947,237.936 123.947 C 237.311 123.428,236.800 122.674,236.800 122.270 C 236.800 120.545,231.070 113.979,225.045 108.800 C 223.464 107.440,222.247 106.765,213.369 102.319 C 207.362 99.310,186.681 99.497,179.467 102.625 C 172.975 105.440,168.403 108.591,164.000 113.284 C 160.408 117.114,159.590 118.269,157.264 122.800 C 156.587 124.120,155.691 125.740,155.275 126.400 C 154.109 128.248,151.969 135.078,150.893 140.391 C 149.587 146.834,147.704 148.004,141.051 146.502 C 138.493 145.924,133.415 145.182,129.767 144.853 C 126.119 144.524,122.699 143.817,122.167 143.282 C 120.832 141.940,121.147 132.415,122.601 130.173 C 123.233 129.198,123.992 126.857,124.289 124.971 C 124.586 123.085,125.542 120.210,126.414 118.583 C 127.286 116.955,128.000 115.212,128.000 114.710 C 128.000 114.207,128.540 113.348,129.200 112.800 C 129.860 112.252,130.400 111.270,130.400 110.618 C 130.400 109.523,132.713 106.197,135.604 103.133 C 136.262 102.436,136.800 101.660,136.800 101.408 C 136.800 100.791,144.530 92.800,145.128 92.800 C 145.387 92.800,146.230 92.247,147.000 91.571 C 150.687 88.333,153.540 86.400,154.630 86.400 C 155.289 86.400,156.023 85.894,156.260 85.275 C 156.498 84.657,157.881 83.890,159.334 83.571 C 160.787 83.251,162.702 82.538,163.588 81.985 C 164.475 81.432,166.640 80.727,168.400 80.418 C 170.160 80.109,172.105 79.439,172.723 78.928 C 176.053 76.175,214.873 76.299,220.956 79.082 M170.874 278.096 C 170.621 278.755,170.557 283.502,170.731 288.647 C 170.905 293.791,171.082 302.230,171.124 307.400 C 171.184 314.865,171.429 316.800,172.314 316.800 C 172.927 316.800,173.636 317.340,173.889 318.000 C 174.279 319.015,176.973 319.198,191.375 319.189 C 210.218 319.177,211.427 319.026,212.655 316.533 C 213.801 314.205,214.563 280.199,213.513 278.237 C 212.417 276.189,171.657 276.055,170.874 278.096 M206.335 282.741 C 209.765 285.845,210.184 310.828,206.847 313.266 C 205.236 314.442,183.320 314.946,179.405 313.897 C 175.611 312.880,174.335 287.241,177.883 283.327 C 180.597 280.333,203.161 279.869,206.335 282.741 " stroke="none" fill="#3d3d3d" fill-rule="evenodd"></path><path id="path2" d="M178.323 77.464 C 175.860 77.759,173.340 78.418,172.723 78.928 C 172.105 79.439,170.160 80.109,168.400 80.418 C 166.640 80.727,164.475 81.432,163.588 81.985 C 162.702 82.538,160.787 83.251,159.334 83.571 C 157.881 83.890,156.498 84.657,156.260 85.275 C 156.023 85.894,155.289 86.400,154.630 86.400 C 153.540 86.400,150.687 88.333,147.000 91.571 C 146.230 92.247,145.387 92.800,145.128 92.800 C 144.530 92.800,136.800 100.791,136.800 101.408 C 136.800 101.660,136.262 102.436,135.604 103.133 C 132.713 106.197,130.400 109.523,130.400 110.618 C 130.400 111.270,129.860 112.252,129.200 112.800 C 128.540 113.348,128.000 114.207,128.000 114.710 C 128.000 115.212,127.286 116.955,126.414 118.583 C 125.542 120.210,124.586 123.085,124.289 124.971 C 123.992 126.857,123.233 129.198,122.601 130.173 C 121.147 132.415,120.832 141.940,122.167 143.282 C 122.699 143.817,126.119 144.524,129.767 144.853 C 133.415 145.182,138.493 145.924,141.051 146.502 C 147.704 148.004,149.587 146.834,150.893 140.391 C 151.969 135.078,154.109 128.248,155.275 126.400 C 155.691 125.740,156.587 124.120,157.264 122.800 C 165.281 107.181,177.127 100.511,196.969 100.443 C 210.366 100.397,209.297 100.171,218.800 105.061 C 224.181 107.829,224.163 107.816,229.821 113.240 C 233.425 116.696,236.800 121.062,236.800 122.270 C 236.800 122.674,237.311 123.428,237.936 123.947 C 241.551 126.947,243.892 146.491,241.200 151.200 C 240.571 152.300,240.044 153.955,240.028 154.878 C 240.013 155.800,239.280 157.385,238.400 158.400 C 237.520 159.415,236.800 160.669,236.800 161.187 C 236.800 161.705,233.925 165.159,230.412 168.864 C 226.898 172.569,224.018 175.870,224.012 176.200 C 224.005 176.530,223.591 176.800,223.092 176.800 C 222.592 176.800,221.390 177.610,220.421 178.600 C 219.452 179.590,216.187 182.560,213.166 185.200 C 206.309 191.192,197.605 199.903,195.554 202.825 C 192.230 207.560,191.154 209.291,190.010 211.745 C 189.358 213.145,188.486 214.499,188.074 214.754 C 187.661 215.010,187.075 216.384,186.773 217.809 C 186.470 219.234,185.713 220.978,185.092 221.684 C 184.470 222.391,183.745 225.451,183.481 228.484 C 183.217 231.518,182.506 235.966,181.901 238.368 C 178.060 253.609,180.375 256.800,195.270 256.800 L 206.424 256.800 208.009 254.200 C 209.059 252.478,209.609 250.115,209.638 247.200 C 209.740 237.061,212.139 226.658,215.336 222.492 C 216.141 221.443,216.800 220.166,216.800 219.655 C 216.800 218.511,225.657 209.399,233.571 202.400 C 248.610 189.101,261.784 174.641,264.918 167.995 C 271.396 154.254,274.048 136.684,270.850 128.692 C 270.162 126.973,269.598 124.585,269.595 123.384 C 269.592 122.183,268.874 120.120,268.000 118.800 C 267.126 117.480,266.408 115.579,266.405 114.575 C 266.402 113.571,265.860 112.543,265.200 112.289 C 264.540 112.036,264.000 111.355,264.000 110.776 C 264.000 110.197,263.100 108.653,262.000 107.346 C 260.900 106.039,260.000 104.708,260.000 104.390 C 260.000 103.305,246.489 90.536,244.762 89.988 C 243.816 89.688,242.358 88.758,241.521 87.921 C 240.684 87.084,239.460 86.400,238.800 86.400 C 238.140 86.400,237.600 86.098,237.600 85.728 C 237.600 84.862,233.958 83.200,232.060 83.200 C 231.255 83.200,230.148 82.660,229.600 82.000 C 229.052 81.340,227.728 80.800,226.658 80.800 C 225.588 80.800,223.022 80.027,220.956 79.082 C 216.947 77.247,188.996 76.187,178.323 77.464 M215.618 80.759 C 250.696 87.583,272.505 114.584,268.859 146.677 C 266.970 163.296,258.959 176.335,240.232 193.272 C 211.043 219.670,209.220 222.586,206.772 246.800 C 205.991 254.528,206.185 254.400,195.200 254.400 C 183.156 254.400,183.625 254.940,184.221 241.774 C 185.309 217.745,191.006 208.586,223.118 179.238 C 237.870 165.757,243.214 157.491,244.400 146.320 C 244.983 140.831,243.726 129.806,242.362 128.442 C 241.943 128.023,241.600 127.088,241.600 126.364 C 241.600 125.640,240.200 122.881,238.488 120.233 C 214.424 83.001,159.038 93.073,149.584 136.400 C 147.964 143.825,147.311 144.288,139.314 143.683 C 123.220 142.466,122.494 142.076,123.937 135.416 C 130.536 104.973,148.548 86.502,177.150 80.848 C 191.346 78.042,201.531 78.019,215.618 80.759 M181.483 281.321 C 174.963 282.457,173.066 312.198,179.405 313.897 C 183.320 314.946,205.236 314.442,206.847 313.266 C 210.184 310.828,209.765 285.845,206.335 282.741 C 204.684 281.247,187.534 280.267,181.483 281.321 M204.348 284.780 L 206.400 285.560 206.400 297.233 C 206.400 313.064,207.409 312.000,192.400 312.000 C 177.280 312.000,178.277 313.078,178.579 297.048 L 178.800 285.270 180.800 284.715 C 183.897 283.855,202.047 283.905,204.348 284.780 " stroke="none" fill="#989898" fill-rule="evenodd"></path><path id="path3" d="M188.000 78.903 C 151.648 83.505,131.298 101.457,123.937 135.416 C 122.494 142.076,123.220 142.466,139.314 143.683 C 147.311 144.288,147.964 143.825,149.584 136.400 C 159.038 93.073,214.424 83.001,238.488 120.233 C 240.200 122.881,241.600 125.640,241.600 126.364 C 241.600 127.088,241.943 128.023,242.362 128.442 C 243.726 129.806,244.983 140.831,244.400 146.320 C 243.214 157.491,237.870 165.757,223.118 179.238 C 191.006 208.586,185.309 217.745,184.221 241.774 C 183.625 254.940,183.156 254.400,195.200 254.400 C 206.185 254.400,205.991 254.528,206.772 246.800 C 209.220 222.586,211.043 219.670,240.232 193.272 C 263.172 172.525,271.364 155.370,268.859 133.323 C 264.963 99.044,227.591 73.891,188.000 78.903 M208.800 81.969 C 214.740 82.583,221.040 83.635,222.800 84.308 C 224.560 84.980,226.951 85.546,228.114 85.565 C 229.277 85.584,230.418 86.094,230.650 86.697 C 230.881 87.300,232.061 88.043,233.272 88.347 C 234.483 88.651,236.361 89.597,237.445 90.450 C 238.529 91.302,239.757 92.000,240.173 92.000 C 241.937 92.000,255.200 103.991,255.200 105.585 C 255.200 105.984,255.830 106.783,256.600 107.361 C 261.856 111.311,267.643 128.815,267.524 140.400 C 267.420 150.431,263.361 164.594,259.424 168.657 C 258.861 169.239,258.400 170.044,258.400 170.448 C 258.400 171.294,256.402 173.891,253.800 176.428 C 252.810 177.394,252.000 178.390,252.000 178.642 C 252.000 179.092,238.578 192.800,238.138 192.800 C 236.708 192.800,214.400 215.025,214.400 216.449 C 214.400 217.082,214.083 217.600,213.695 217.600 C 211.567 217.600,205.604 234.016,205.593 239.904 C 205.589 241.937,205.359 245.490,205.082 247.800 L 204.577 252.000 195.089 252.000 L 185.600 252.000 185.600 242.847 C 185.600 237.813,185.936 233.487,186.346 233.233 C 186.757 232.980,187.506 230.708,188.011 228.186 C 188.516 225.664,189.621 222.136,190.465 220.347 C 191.309 218.559,192.000 216.684,192.000 216.183 C 192.000 214.272,201.176 202.255,206.748 196.870 C 208.757 194.929,210.400 193.039,210.400 192.670 C 210.400 192.302,210.815 192.000,211.323 192.000 C 211.830 192.000,213.540 190.643,215.123 188.983 C 216.705 187.324,219.666 184.637,221.701 183.011 C 226.405 179.254,236.624 169.021,238.290 166.400 C 238.990 165.300,240.020 164.112,240.581 163.760 C 241.141 163.408,241.600 162.607,241.600 161.980 C 241.600 161.352,242.319 159.660,243.197 158.219 C 244.075 156.779,244.795 154.654,244.797 153.498 C 244.799 152.341,245.340 150.103,246.000 148.523 C 246.660 146.944,247.200 144.008,247.200 142.000 C 247.200 139.992,246.660 137.056,246.000 135.477 C 245.340 133.897,244.800 131.437,244.800 130.010 C 244.800 128.583,244.080 126.500,243.200 125.382 C 242.320 124.263,241.600 122.807,241.600 122.146 C 241.600 120.038,229.297 105.600,227.501 105.600 C 227.243 105.600,225.961 104.700,224.654 103.600 C 223.347 102.500,221.765 101.600,221.139 101.600 C 220.512 101.600,220.000 101.256,220.000 100.836 C 220.000 100.416,218.650 99.822,217.000 99.516 C 215.350 99.209,213.117 98.383,212.038 97.679 C 209.052 95.733,188.149 95.372,183.200 97.182 C 181.220 97.906,178.363 98.871,176.852 99.327 C 172.084 100.767,158.400 111.003,158.400 113.130 C 158.400 113.379,156.960 115.657,155.201 118.192 C 153.442 120.726,152.002 123.409,152.001 124.153 C 152.000 124.897,151.650 125.722,151.222 125.987 C 150.794 126.251,150.059 127.982,149.588 129.834 C 149.118 131.685,148.352 133.964,147.887 134.897 C 147.421 135.830,146.793 137.810,146.492 139.297 C 145.793 142.741,142.785 143.139,132.519 141.145 L 125.438 139.770 125.997 134.550 C 126.305 131.679,127.018 128.868,127.581 128.304 C 128.145 127.741,128.852 125.641,129.152 123.640 C 129.452 121.638,130.022 120.000,130.417 120.000 C 130.812 120.000,131.568 118.556,132.097 116.790 C 132.626 115.025,133.541 113.181,134.129 112.693 C 134.718 112.204,135.200 111.450,135.200 111.018 C 135.200 110.262,137.901 106.586,140.404 103.933 C 141.062 103.236,141.600 102.246,141.600 101.733 C 141.600 101.220,141.870 100.795,142.200 100.789 C 142.530 100.784,144.780 98.969,147.200 96.757 C 149.620 94.545,152.680 92.196,154.000 91.536 C 159.681 88.698,162.827 86.978,163.200 86.506 C 164.086 85.386,175.318 82.894,183.600 81.981 C 195.388 80.680,196.337 80.680,208.800 81.969 M180.800 284.715 L 178.800 285.270 178.579 297.048 C 178.277 313.078,177.280 312.000,192.400 312.000 C 207.409 312.000,206.400 313.064,206.400 297.233 L 206.400 285.560 204.348 284.780 C 202.047 283.905,183.897 283.855,180.800 284.715 M203.840 286.560 C 205.434 288.154,205.159 308.491,203.535 309.114 C 201.543 309.879,183.246 309.681,181.747 308.879 C 180.080 307.987,179.876 290.422,181.497 287.392 C 182.622 285.290,201.855 284.575,203.840 286.560 " stroke="none" fill="#d3d3d3" fill-rule="evenodd"></path><path id="path4" d="M183.600 81.981 C 175.318 82.894,164.086 85.386,163.200 86.506 C 162.827 86.978,159.681 88.698,154.000 91.536 C 152.680 92.196,149.620 94.545,147.200 96.757 C 144.780 98.969,142.530 100.784,142.200 100.789 C 141.870 100.795,141.600 101.220,141.600 101.733 C 141.600 102.246,141.062 103.236,140.404 103.933 C 137.901 106.586,135.200 110.262,135.200 111.018 C 135.200 111.450,134.718 112.204,134.129 112.693 C 133.541 113.181,132.626 115.025,132.097 116.790 C 131.568 118.556,130.812 120.000,130.417 120.000 C 130.022 120.000,129.452 121.638,129.152 123.640 C 128.852 125.641,128.145 127.741,127.581 128.304 C 127.018 128.868,126.305 131.679,125.997 134.550 L 125.438 139.770 132.519 141.145 C 142.785 143.139,145.793 142.741,146.492 139.297 C 146.793 137.810,147.421 135.830,147.887 134.897 C 148.352 133.964,149.118 131.685,149.588 129.834 C 150.059 127.982,150.794 126.251,151.222 125.987 C 151.650 125.722,152.000 124.897,152.001 124.153 C 152.002 123.409,153.442 120.726,155.201 118.192 C 156.960 115.657,158.400 113.379,158.400 113.130 C 158.400 111.003,172.084 100.767,176.852 99.327 C 178.363 98.871,181.220 97.906,183.200 97.182 C 188.149 95.372,209.052 95.733,212.038 97.679 C 213.117 98.383,215.350 99.209,217.000 99.516 C 218.650 99.822,220.000 100.416,220.000 100.836 C 220.000 101.256,220.512 101.600,221.139 101.600 C 221.765 101.600,223.347 102.500,224.654 103.600 C 225.961 104.700,227.243 105.600,227.501 105.600 C 229.297 105.600,241.600 120.038,241.600 122.146 C 241.600 122.807,242.320 124.263,243.200 125.382 C 244.080 126.500,244.800 128.583,244.800 130.010 C 244.800 131.437,245.340 133.897,246.000 135.477 C 246.660 137.056,247.200 139.992,247.200 142.000 C 247.200 144.008,246.660 146.944,246.000 148.523 C 245.340 150.103,244.799 152.341,244.797 153.498 C 244.795 154.654,244.075 156.779,243.197 158.219 C 242.319 159.660,241.600 161.352,241.600 161.980 C 241.600 162.607,241.141 163.408,240.581 163.760 C 240.020 164.112,238.990 165.300,238.290 166.400 C 236.624 169.021,226.405 179.254,221.701 183.011 C 219.666 184.637,216.705 187.324,215.123 188.983 C 213.540 190.643,211.830 192.000,211.323 192.000 C 210.815 192.000,210.400 192.302,210.400 192.670 C 210.400 193.039,208.757 194.929,206.748 196.870 C 201.176 202.255,192.000 214.272,192.000 216.183 C 192.000 216.684,191.309 218.559,190.465 220.347 C 189.621 222.136,188.516 225.664,188.011 228.186 C 187.506 230.708,186.757 232.980,186.346 233.233 C 185.936 233.487,185.600 237.813,185.600 242.847 L 185.600 252.000 195.089 252.000 L 204.577 252.000 205.082 247.800 C 205.359 245.490,205.589 241.937,205.593 239.904 C 205.604 234.016,211.567 217.600,213.695 217.600 C 214.083 217.600,214.400 217.082,214.400 216.449 C 214.400 215.025,236.708 192.800,238.138 192.800 C 238.578 192.800,252.000 179.092,252.000 178.642 C 252.000 178.390,252.810 177.394,253.800 176.428 C 256.402 173.891,258.400 171.294,258.400 170.448 C 258.400 170.044,258.861 169.239,259.424 168.657 C 263.361 164.594,267.420 150.431,267.524 140.400 C 267.643 128.815,261.856 111.311,256.600 107.361 C 255.830 106.783,255.200 105.984,255.200 105.585 C 255.200 103.991,241.937 92.000,240.173 92.000 C 239.757 92.000,238.529 91.302,237.445 90.450 C 236.361 89.597,234.483 88.651,233.272 88.347 C 232.061 88.043,230.881 87.300,230.650 86.697 C 230.418 86.094,229.277 85.584,228.114 85.565 C 226.951 85.546,224.560 84.980,222.800 84.308 C 215.634 81.571,197.225 80.478,183.600 81.981 M181.497 287.392 C 179.876 290.422,180.080 307.987,181.747 308.879 C 183.246 309.681,201.543 309.879,203.535 309.114 C 205.159 308.491,205.434 288.154,203.840 286.560 C 201.855 284.575,182.622 285.290,181.497 287.392 " stroke="none" fill="#ffffff" fill-rule="evenodd"></path></g></svg>