<?xml version="1.0" standalone="yes"?>

<svg version="1.1" viewBox="0.0 0.0 113.38582677165354 113.38582677165354" fill="none" stroke="none" stroke-linecap="square" stroke-miterlimit="10" xmlns="http://www.w3.org/2000/svg" xmlns:xlink="http://www.w3.org/1999/xlink"><clipPath id="p.0"><path d="m0 0l113.385826 0l0 113.385826l-113.385826 0l0 -113.385826z" clip-rule="nonzero"></path></clipPath><g clip-path="url(#p.0)"><path fill="#000000" fill-opacity="0.0" d="m0 0l113.385826 0l0 113.385826l-113.385826 0z" fill-rule="nonzero"></path><path fill="#000000" fill-opacity="0.0" d="m23.015749 -6.6981626l104.031494 0l0 102.96063l-104.031494 0z" fill-rule="nonzero"></path><path fill="#ffffff" d="m36.000122 76.46183l8.859375 -0.75q0.984375 6.46875 4.5625 9.734375q3.59375 3.25 8.65625 3.25q6.09375 0 10.3125 -4.59375q4.21875 -4.59375 4.21875 -12.1875q0 -7.21875 -4.0625 -11.390621q-4.046875 -4.171875 -10.609375 -4.171875q-4.078125 0 -7.359375 1.859375q-3.28125 1.84375 -5.15625 4.796875l-7.921875 -1.03125l6.65625 -35.296875l34.171875 0l0 8.0625l-27.421875 0l-3.703125 18.46875q6.1875 -4.3125 12.984375 -4.3125q9.0 0 15.1875 6.234375q6.1875 6.234375 6.1875 16.031246q0 9.328125 -5.4375 16.125q-6.609375 8.34375 -18.046875 8.34375q-9.375 0 -15.3125 -5.25q-5.921875 -5.25 -6.765625 -13.921875z" fill-rule="nonzero"></path><path fill="#ffffff" d="m33.890747 209.46184l0 -6.84375l31.6875 -36.375q-5.390625 0.28125 -9.515625 0.28125l-20.296875 0l0 -6.84375l40.6875 0l0 5.578125l-26.953125 31.59375l-5.203125 5.765625q5.671875 -0.421875 10.640625 -0.421875l23.015625 0l0 7.265625l-44.0625 0z" fill-rule="nonzero"></path></g></svg>

