<?xml version="1.0" standalone="yes"?>

<svg version="1.1" viewBox="0.0 0.0 113.38582677165354 113.38582677165354" fill="none" stroke="none" stroke-linecap="square" stroke-miterlimit="10" xmlns="http://www.w3.org/2000/svg" xmlns:xlink="http://www.w3.org/1999/xlink"><clipPath id="p.0"><path d="m0 0l113.385826 0l0 113.385826l-113.385826 0l0 -113.385826z" clip-rule="nonzero"></path></clipPath><g clip-path="url(#p.0)"><path fill="#000000" fill-opacity="0.0" d="m0 0l113.385826 0l0 113.385826l-113.385826 0z" fill-rule="nonzero"></path><path fill="#ffffff" d="m25.349714 42.615234l0 0c0 -5.770237 4.677702 -10.447941 10.447943 -10.447941l41.790516 0l0 0c2.7709656 0 5.4284363 1.1007614 7.3878098 3.060131c1.9593658 1.9593697 3.0601273 4.616844 3.0601273 7.3878098l0 51.750328c0 5.770241 -4.677696 10.447945 -10.447937 10.447945l-41.790516 0c-5.770241 0 -10.447943 -4.677704 -10.447943 -10.447945z" fill-rule="nonzero"></path><path stroke="#000000" stroke-width="1.0" stroke-linejoin="round" stroke-linecap="butt" d="m25.349714 42.615234l0 0c0 -5.770237 4.677702 -10.447941 10.447943 -10.447941l41.790516 0l0 0c2.7709656 0 5.4284363 1.1007614 7.3878098 3.060131c1.9593658 1.9593697 3.0601273 4.616844 3.0601273 7.3878098l0 51.750328c0 5.770241 -4.677696 10.447945 -10.447937 10.447945l-41.790516 0c-5.770241 0 -10.447943 -4.677704 -10.447943 -10.447945z" fill-rule="nonzero"></path><path fill="#ffffff" d="m29.527632 34.242786l21.071589 -14.927767l12.187386 0l21.071587 14.927767z" fill-rule="nonzero"></path><path stroke="#000000" stroke-width="1.0" stroke-linejoin="round" stroke-linecap="butt" d="m29.527632 34.242786l21.071589 -14.927767l12.187386 0l21.071587 14.927767z" fill-rule="nonzero"></path><path fill="#ffffff" d="m43.92999 22.149157l3.9091797 -13.576838l17.707485 0l3.9091797 13.576838z" fill-rule="nonzero"></path><path stroke="#000000" stroke-width="1.0" stroke-linejoin="round" stroke-linecap="butt" d="m43.92999 22.149157l3.9091797 -13.576838l17.707485 0l3.9091797 13.576838z" fill-rule="nonzero"></path></g></svg>

